<?xml version="1.0" encoding="UTF-8" standalone="no"?>
<!-- Created with Inkscape (http://www.inkscape.org/) -->

<svg
   xmlns:dc="http://purl.org/dc/elements/1.1/"
   xmlns:cc="http://creativecommons.org/ns#"
   xmlns:rdf="http://www.w3.org/1999/02/22-rdf-syntax-ns#"
   xmlns:svg="http://www.w3.org/2000/svg"
   xmlns="http://www.w3.org/2000/svg"
   xmlns:sodipodi="http://sodipodi.sourceforge.net/DTD/sodipodi-0.dtd"
   xmlns:inkscape="http://www.inkscape.org/namespaces/inkscape"
   id="svg7356"
   version="1.1"
   inkscape:version="0.48.2 r9819"
   width="676.60004"
   height="520.43811"
   xml:space="preserve"
   sodipodi:docname="corotation_damping_profile.svg"><metadata
     id="metadata7362"><rdf:RDF><cc:Work
         rdf:about=""><dc:format>image/svg+xml</dc:format><dc:type
           rdf:resource="http://purl.org/dc/dcmitype/StillImage" /><dc:title /></cc:Work></rdf:RDF></metadata><defs
     id="defs7360" /><sodipodi:namedview
     pagecolor="#ffffff"
     bordercolor="#666666"
     borderopacity="1"
     objecttolerance="10"
     gridtolerance="10"
     guidetolerance="10"
     inkscape:pageopacity="0"
     inkscape:pageshadow="2"
     inkscape:window-width="640"
     inkscape:window-height="480"
     id="namedview7358"
     showgrid="false"
     inkscape:zoom="0.8429988"
     inkscape:cx="157.03192"
     inkscape:cy="170.0864"
     inkscape:current-layer="g7364"
     fit-margin-top="0"
     fit-margin-left="0"
     fit-margin-right="0"
     fit-margin-bottom="0" /><g
     id="g7364"
     inkscape:groupmode="layer"
     inkscape:label="corotation_damping_profile"
     transform="matrix(1.25,0,0,-1.25,19.525827,501.07037)"><path
   id="path7766"
   style="fill:none;stroke:#999999;stroke-width:0.5;stroke-linecap:butt;stroke-linejoin:round;stroke-miterlimit:10;stroke-opacity:1;stroke-dasharray:4, 4;stroke-dashoffset:0"
   d="m 72,319.68 446.4,0 M 72,250.56 l 446.4,0 M 72,181.44 l 446.4,0 M 72,112.32 l 446.4,0 M 444,43.2 l 0,345.6 m -74.4,-345.6 0,345.6 m -74.4,-345.6 0,345.6 m -74.4,-345.6 0,345.6 m -74.4,-345.6 0,345.6"
   inkscape:connector-curvature="0" /><path
   d="m 72,388.8 34.50979,-53.95727 34.51007,-207.63319 33.27739,-25.95403 34.5098,19.63198 69.01986,-27.828303 69.01932,-1.365716 65.88101,-48.455809 4.87401,0.0054 66.05313,31.375168 34.44903,3.034877"
   style="fill:none;stroke:#0000ff;stroke-width:2.4000001;stroke-linecap:square;stroke-linejoin:round;stroke-miterlimit:10;stroke-opacity:1;stroke-dasharray:9.6, 9.6;stroke-dashoffset:0"
   id="path7378"
   inkscape:connector-curvature="0"
   sodipodi:nodetypes="ccccccccccc" /><path
   inkscape:connector-curvature="0"
   id="path7390"
   style="fill:none;stroke:#0000ff;stroke-width:0.5;stroke-linecap:butt;stroke-linejoin:round;stroke-miterlimit:10;stroke-opacity:1;stroke-dasharray:none"
   d="m 69,388.8 6,0 m -3,-3 0,6" /><path
   d="m 103.50979,334.84273 6,0 m -3,-3 0,6"
   style="fill:none;stroke:#0000ff;stroke-width:0.5;stroke-linecap:butt;stroke-linejoin:round;stroke-miterlimit:10;stroke-opacity:1;stroke-dasharray:none"
   id="path7402"
   inkscape:connector-curvature="0" /><path
   inkscape:connector-curvature="0"
   id="path7414"
   style="fill:none;stroke:#0000ff;stroke-width:0.5;stroke-linecap:butt;stroke-linejoin:round;stroke-miterlimit:10;stroke-opacity:1;stroke-dasharray:none"
   d="m 138.01986,127.20954 6,0 m -3,-3 0,6" /><path
   d="m 171.29725,101.25551 6,0 m -3,-3 0,6"
   style="fill:none;stroke:#0000ff;stroke-width:0.5;stroke-linecap:butt;stroke-linejoin:round;stroke-miterlimit:10;stroke-opacity:1;stroke-dasharray:none"
   id="path7426"
   inkscape:connector-curvature="0" /><path
   inkscape:connector-curvature="0"
   id="path7438"
   style="fill:none;stroke:#0000ff;stroke-width:0.5;stroke-linecap:butt;stroke-linejoin:round;stroke-miterlimit:10;stroke-opacity:1;stroke-dasharray:none"
   d="m 205.80704,120.88749 6,0 m -3,-3 0,6" /><path
   d="m 274.8269,93.059185 6,0 m -3,-3 0,6"
   style="fill:none;stroke:#0000ff;stroke-width:0.5;stroke-linecap:butt;stroke-linejoin:round;stroke-miterlimit:10;stroke-opacity:1;stroke-dasharray:none"
   id="path7450"
   inkscape:connector-curvature="0" /><path
   inkscape:connector-curvature="0"
   id="path7462"
   style="fill:none;stroke:#0000ff;stroke-width:0.5;stroke-linecap:butt;stroke-linejoin:round;stroke-miterlimit:10;stroke-opacity:1;stroke-dasharray:none"
   d="m 343.84622,91.693469 6,0 m -3,-3 0,6" /><path
   inkscape:connector-curvature="0"
   id="path7486"
   style="fill:none;stroke:#0000ff;stroke-width:0.5;stroke-linecap:butt;stroke-linejoin:round;stroke-miterlimit:10;stroke-opacity:1;stroke-dasharray:none"
   d="m 480.65437,74.618215 6,0 m -3,-3 0,6" /><path
   d="m 72,388.8 3.72,-1.16687 3.72,-1.63426 3.72,-2.28042 3.72,-3.16566 3.72,-4.36322 3.72,-5.95484 3.72,-8.01867 3.72,-10.60482 3.72,-13.69541 3.72,-17.15357 3.72,-20.67988 3.72,-23.81347 3.72,-26.01592 3.72,-26.83751 3.72,-26.09568 3.72,-23.95561 3.72,-20.85713 3.72,-17.33871 3.72,-13.86811 3.72,-10.75375 3.72,-8.14012 3.72,-6.049949 3.72,-4.435584 3.72,-3.219583 3.72,-2.319993 3.72,-1.663005 3.72,-1.187583 3.72,-0.845796 3.72,-0.601221 3.72,-0.426787 3.72,-0.302669 3.72,-0.214499 3.72,-0.15194 3.72,-0.107589 3.72,-0.07617 3.72,-0.05391 3.72,-0.03815 3.72,-0.027 3.72,-0.01911 3.72,-0.01352 3.72,-0.0096 3.72,-0.0068 3.72,-0.0048 3.72,-0.0034 3.72,-0.0024 3.72,-0.0017 3.72,-0.0012 3.72,-8.49e-4 3.72,-6.01e-4 3.72,-4.25e-4 3.72,-3.01e-4 3.72,-2.12e-4 3.72,-1.51e-4 3.72,-1.06e-4 3.72,-7.6e-5 3.72,-5.3e-5 3.72,-3.8e-5 3.72,-2.6e-5 3.72,-1.9e-5 3.72,-1.4e-5 3.72,-9e-6 3.72,-7e-6 3.72,-4e-6 3.72,-4e-6 3.72,-2e-6 3.72,-2e-6 3.72,-10e-7 3.72,-10e-7 3.72,0 3.72,-10e-7 3.72,0 3.72,0 3.72,-1e-6 3.72,0 3.72,0 3.72,0 3.72,0 3.72,0 3.72,0 3.72,0 3.72,0 3.72,0 3.72,0 3.72,0 3.72,0 3.72,0 3.72,0 3.72,0 3.72,0 3.72,0 3.72,0 3.72,0 3.72,0 3.72,0 3.72,0 3.72,0 3.72,0 3.72,0 3.72,0 3.72,0 3.72,0 3.72,0 3.72,0 3.72,0 3.72,0 3.72,0 3.72,0 3.72,0 3.72,0 3.72,0 3.72,0 3.72,0 3.72,0 3.72,0 3.72,0 3.72,0 3.72,0 3.72,0 3.72,0 3.72,0"
   style="fill:none;stroke:#ff0000;stroke-width:2.4000001;stroke-linecap:square;stroke-linejoin:round;stroke-miterlimit:10;stroke-opacity:1;stroke-dasharray:none"
   id="path7544"
   inkscape:connector-curvature="0"
   sodipodi:nodetypes="ccccccccccccccccccccccccccccccccccccccccccccccccccccccccccccccccccccccccccccccccccccccccccccccccccccccccccccccccccccccccc" /><path
   d="M 146.4,43.456403 146.4,388.8"
   style="fill:none;stroke:#000000;stroke-width:2.4000001;stroke-linecap:butt;stroke-linejoin:round;stroke-miterlimit:10;stroke-opacity:1;stroke-dasharray:19.2, 4.8, 2.4, 4.8;stroke-dashoffset:0"
   id="path7554"
   inkscape:connector-curvature="0"
   sodipodi:nodetypes="cc" /><path
   d="m 72,43.2 0,345.6"
   style="fill:none;stroke:#000000;stroke-width:0.5;stroke-linecap:butt;stroke-linejoin:round;stroke-miterlimit:10;stroke-opacity:1;stroke-dasharray:1, 3;stroke-dashoffset:0"
   id="path7564"
   inkscape:connector-curvature="0" /><path
   d="m 72,43.2 0,4"
   style="fill:none;stroke:#000000;stroke-width:0.5;stroke-linecap:butt;stroke-linejoin:round;stroke-miterlimit:10;stroke-opacity:1;stroke-dasharray:none"
   id="path7566"
   inkscape:connector-curvature="0" /><path
   d="m 72,388.8 0,-4"
   style="fill:none;stroke:#000000;stroke-width:0.5;stroke-linecap:butt;stroke-linejoin:round;stroke-miterlimit:10;stroke-opacity:1;stroke-dasharray:none"
   id="path7568"
   inkscape:connector-curvature="0" /><text
   transform="scale(1,-1)"
   id="text7570"
   style="font-size:28.79999924px;text-align:center;text-anchor:middle"
   x="78.462494"
   y="-16.642397"><tspan
     style="font-size:28.79999924px;font-variant:normal;font-weight:normal;text-align:center;writing-mode:lr-tb;text-anchor:middle;fill:#000000;fill-opacity:1;fill-rule:nonzero;stroke:none;font-family:DejaVu Sans;-inkscape-font-specification:DejaVuSans"
     x="72.012497"
     y="-16.642397"
     id="tspan7572">0</tspan></text>



<path
   d="m 146.4,43.2 0,4"
   style="fill:none;stroke:#000000;stroke-width:0.5;stroke-linecap:butt;stroke-linejoin:round;stroke-miterlimit:10;stroke-opacity:1;stroke-dasharray:none"
   id="path7584"
   inkscape:connector-curvature="0" /><path
   d="m 146.4,388.8 0,-4"
   style="fill:none;stroke:#000000;stroke-width:0.5;stroke-linecap:butt;stroke-linejoin:round;stroke-miterlimit:10;stroke-opacity:1;stroke-dasharray:none"
   id="path7586"
   inkscape:connector-curvature="0" /><text
   transform="scale(1,-1)"
   id="text7588"
   style="font-size:28.79999924px;text-align:center;text-anchor:middle"
   x="151.73749"
   y="-16.629896"><tspan
     style="font-size:28.79999924px;font-variant:normal;font-weight:normal;text-align:center;writing-mode:lr-tb;text-anchor:middle;fill:#000000;fill-opacity:1;fill-rule:nonzero;stroke:none;font-family:DejaVu Sans;-inkscape-font-specification:DejaVuSans"
     x="146.18124"
     y="-16.629896"
     id="tspan7590">1</tspan></text>



<path
   d="m 220.8,43.2 0,4"
   style="fill:none;stroke:#000000;stroke-width:0.5;stroke-linecap:butt;stroke-linejoin:round;stroke-miterlimit:10;stroke-opacity:1;stroke-dasharray:none"
   id="path7602"
   inkscape:connector-curvature="0" /><path
   d="m 220.8,388.8 0,-4"
   style="fill:none;stroke:#000000;stroke-width:0.5;stroke-linecap:butt;stroke-linejoin:round;stroke-miterlimit:10;stroke-opacity:1;stroke-dasharray:none"
   id="path7604"
   inkscape:connector-curvature="0" /><text
   transform="scale(1,-1)"
   id="text7606"
   style="font-size:28.79999924px;text-align:center;text-anchor:middle"
   x="227.07501"
   y="-16.461147"><tspan
     style="font-size:28.79999924px;font-variant:normal;font-weight:normal;text-align:center;writing-mode:lr-tb;text-anchor:middle;fill:#000000;fill-opacity:1;fill-rule:nonzero;stroke:none;font-family:DejaVu Sans;-inkscape-font-specification:DejaVuSans"
     x="221.15001"
     y="-16.461147"
     id="tspan7608">2</tspan></text>



<path
   d="m 295.2,43.2 0,4"
   style="fill:none;stroke:#000000;stroke-width:0.5;stroke-linecap:butt;stroke-linejoin:round;stroke-miterlimit:10;stroke-opacity:1;stroke-dasharray:none"
   id="path7620"
   inkscape:connector-curvature="0" /><path
   d="m 295.2,388.8 0,-4"
   style="fill:none;stroke:#000000;stroke-width:0.5;stroke-linecap:butt;stroke-linejoin:round;stroke-miterlimit:10;stroke-opacity:1;stroke-dasharray:none"
   id="path7622"
   inkscape:connector-curvature="0" /><text
   transform="scale(1,-1)"
   id="text7624"
   style="font-size:28.79999924px;text-align:center;text-anchor:middle"
   x="301.39999"
   y="-16.642397"><tspan
     style="font-size:28.79999924px;font-variant:normal;font-weight:normal;text-align:center;writing-mode:lr-tb;text-anchor:middle;fill:#000000;fill-opacity:1;fill-rule:nonzero;stroke:none;font-family:DejaVu Sans;-inkscape-font-specification:DejaVuSans"
     x="295.25626"
     y="-16.642397"
     id="tspan7626">3</tspan></text>



<path
   d="m 369.6,43.2 0,4"
   style="fill:none;stroke:#000000;stroke-width:0.5;stroke-linecap:butt;stroke-linejoin:round;stroke-miterlimit:10;stroke-opacity:1;stroke-dasharray:none"
   id="path7638"
   inkscape:connector-curvature="0" /><path
   d="m 369.6,388.8 0,-4"
   style="fill:none;stroke:#000000;stroke-width:0.5;stroke-linecap:butt;stroke-linejoin:round;stroke-miterlimit:10;stroke-opacity:1;stroke-dasharray:none"
   id="path7640"
   inkscape:connector-curvature="0" /><text
   transform="scale(1,-1)"
   id="text7642"
   style="font-size:28.79999924px;text-align:center;text-anchor:middle"
   x="376.5"
   y="-16.629896"><tspan
     style="font-size:28.79999924px;font-variant:normal;font-weight:normal;text-align:center;writing-mode:lr-tb;text-anchor:middle;fill:#000000;fill-opacity:1;fill-rule:nonzero;stroke:none;font-family:DejaVu Sans;-inkscape-font-specification:DejaVuSans"
     x="369.70001"
     y="-16.629896"
     id="tspan7644">4</tspan></text>



<path
   d="m 444,43.2 0,4"
   style="fill:none;stroke:#000000;stroke-width:0.5;stroke-linecap:butt;stroke-linejoin:round;stroke-miterlimit:10;stroke-opacity:1;stroke-dasharray:none"
   id="path7656"
   inkscape:connector-curvature="0" /><path
   d="m 444,388.8 0,-4"
   style="fill:none;stroke:#000000;stroke-width:0.5;stroke-linecap:butt;stroke-linejoin:round;stroke-miterlimit:10;stroke-opacity:1;stroke-dasharray:none"
   id="path7658"
   inkscape:connector-curvature="0" /><text
   transform="scale(1,-1)"
   id="text7660"
   style="font-size:28.79999924px;text-align:center;text-anchor:middle"
   x="450.17502"
   y="-16.811148"><tspan
     style="font-size:28.79999924px;font-variant:normal;font-weight:normal;text-align:center;writing-mode:lr-tb;text-anchor:middle;fill:#000000;fill-opacity:1;fill-rule:nonzero;stroke:none;font-family:DejaVu Sans;-inkscape-font-specification:DejaVuSans"
     x="444.13751"
     y="-16.811148"
     id="tspan7662">5</tspan></text>



<path
   d="m 518.4,43.2 0,345.6"
   style="fill:none;stroke:#000000;stroke-width:0.5;stroke-linecap:butt;stroke-linejoin:round;stroke-miterlimit:10;stroke-opacity:1;stroke-dasharray:1, 3;stroke-dashoffset:0"
   id="path7672"
   inkscape:connector-curvature="0" /><path
   d="m 518.4,43.2 0,4"
   style="fill:none;stroke:#000000;stroke-width:0.5;stroke-linecap:butt;stroke-linejoin:round;stroke-miterlimit:10;stroke-opacity:1;stroke-dasharray:none"
   id="path7674"
   inkscape:connector-curvature="0" /><path
   d="m 518.4,388.8 0,-4"
   style="fill:none;stroke:#000000;stroke-width:0.5;stroke-linecap:butt;stroke-linejoin:round;stroke-miterlimit:10;stroke-opacity:1;stroke-dasharray:none"
   id="path7676"
   inkscape:connector-curvature="0" /><text
   transform="scale(1,-1)"
   id="text7678"
   style="font-size:28.79999924px;text-align:center;text-anchor:middle"
   x="524.76245"
   y="-16.642397"><tspan
     style="font-size:28.79999924px;font-variant:normal;font-weight:normal;text-align:center;writing-mode:lr-tb;text-anchor:middle;fill:#000000;fill-opacity:1;fill-rule:nonzero;stroke:none;font-family:DejaVu Sans;-inkscape-font-specification:DejaVuSans"
     x="518.31873"
     y="-16.642397"
     id="tspan7680">6</tspan></text>



<text
   transform="scale(1,-1)"
   id="text7682"
   style="font-size:28.79999924px;text-align:center;text-anchor:middle"
   x="294.82199"
   y="9.5221081"><tspan
     style="font-size:28.79999924px;font-variant:normal;font-weight:normal;text-align:center;writing-mode:lr-tb;text-anchor:middle;fill:#000000;fill-opacity:1;fill-rule:nonzero;stroke:none;font-family:DejaVu Sans;-inkscape-font-specification:DejaVuSans"
     x="294.82199"
     y="9.5221081"
     sodipodi:role="line"
     id="tspan7684">e/x<tspan
   style="font-size:52.00042725%;baseline-shift:sub"
   id="tspan3852">s</tspan></tspan></text>



<path
   d="m 72,43.2 446.4,0"
   style="fill:none;stroke:#000000;stroke-width:0.5;stroke-linecap:butt;stroke-linejoin:round;stroke-miterlimit:10;stroke-opacity:1;stroke-dasharray:1, 3;stroke-dashoffset:0"
   id="path7694"
   inkscape:connector-curvature="0" /><path
   d="m 72,43.2 4,0"
   style="fill:none;stroke:#000000;stroke-width:0.5;stroke-linecap:butt;stroke-linejoin:round;stroke-miterlimit:10;stroke-opacity:1;stroke-dasharray:none"
   id="path7696"
   inkscape:connector-curvature="0" /><path
   d="m 518.4,43.2 -4,0"
   style="fill:none;stroke:#000000;stroke-width:0.5;stroke-linecap:butt;stroke-linejoin:round;stroke-miterlimit:10;stroke-opacity:1;stroke-dasharray:none"
   id="path7698"
   inkscape:connector-curvature="0" /><text
   transform="scale(1,-1)"
   id="text7700"
   style="font-size:28.79999924px"
   x="23.291044"
   y="-33.881248"><tspan
     style="font-size:28.79999924px;font-variant:normal;font-weight:normal;writing-mode:lr-tb;fill:#000000;fill-opacity:1;fill-rule:nonzero;stroke:none;font-family:DejaVu Sans;-inkscape-font-specification:DejaVuSans"
     x="23.291044"
     y="-33.881248"
     sodipodi:role="line"
     id="tspan7702">0.0</tspan></text>



<path
   d="m 72,112.32 4,0"
   style="fill:none;stroke:#000000;stroke-width:0.5;stroke-linecap:butt;stroke-linejoin:round;stroke-miterlimit:10;stroke-opacity:1;stroke-dasharray:none"
   id="path7714"
   inkscape:connector-curvature="0" /><path
   d="m 518.4,112.32 -4,0"
   style="fill:none;stroke:#000000;stroke-width:0.5;stroke-linecap:butt;stroke-linejoin:round;stroke-miterlimit:10;stroke-opacity:1;stroke-dasharray:none"
   id="path7716"
   inkscape:connector-curvature="0" /><text
   transform="scale(1,-1)"
   id="text7718"
   style="font-size:28.79999924px"
   x="23.722296"
   y="-103.00126"><tspan
     style="font-size:28.79999924px;font-variant:normal;font-weight:normal;writing-mode:lr-tb;fill:#000000;fill-opacity:1;fill-rule:nonzero;stroke:none;font-family:DejaVu Sans;-inkscape-font-specification:DejaVuSans"
     x="23.722296"
     y="-103.00126"
     sodipodi:role="line"
     id="tspan7720">0.2</tspan></text>



<path
   d="m 72,181.44 4,0"
   style="fill:none;stroke:#000000;stroke-width:0.5;stroke-linecap:butt;stroke-linejoin:round;stroke-miterlimit:10;stroke-opacity:1;stroke-dasharray:none"
   id="path7732"
   inkscape:connector-curvature="0" /><path
   d="m 518.4,181.44 -4,0"
   style="fill:none;stroke:#000000;stroke-width:0.5;stroke-linecap:butt;stroke-linejoin:round;stroke-miterlimit:10;stroke-opacity:1;stroke-dasharray:none"
   id="path7734"
   inkscape:connector-curvature="0" /><text
   transform="scale(1,-1)"
   id="text7736"
   style="font-size:28.79999924px"
   x="23.159796"
   y="-172.12126"><tspan
     style="font-size:28.79999924px;font-variant:normal;font-weight:normal;writing-mode:lr-tb;fill:#000000;fill-opacity:1;fill-rule:nonzero;stroke:none;font-family:DejaVu Sans;-inkscape-font-specification:DejaVuSans"
     x="23.159796"
     y="-172.12126"
     sodipodi:role="line"
     id="tspan7738">0.4</tspan></text>



<path
   d="m 72,250.56 4,0"
   style="fill:none;stroke:#000000;stroke-width:0.5;stroke-linecap:butt;stroke-linejoin:round;stroke-miterlimit:10;stroke-opacity:1;stroke-dasharray:none"
   id="path7750"
   inkscape:connector-curvature="0" /><path
   d="m 518.4,250.56 -4,0"
   style="fill:none;stroke:#000000;stroke-width:0.5;stroke-linecap:butt;stroke-linejoin:round;stroke-miterlimit:10;stroke-opacity:1;stroke-dasharray:none"
   id="path7752"
   inkscape:connector-curvature="0" /><text
   transform="scale(1,-1)"
   id="text7754"
   style="font-size:28.79999924px"
   x="23.247293"
   y="-241.24124"><tspan
     style="font-size:28.79999924px;font-variant:normal;font-weight:normal;writing-mode:lr-tb;fill:#000000;fill-opacity:1;fill-rule:nonzero;stroke:none;font-family:DejaVu Sans;-inkscape-font-specification:DejaVuSans"
     x="23.247293"
     y="-241.24124"
     sodipodi:role="line"
     id="tspan7756">0.6</tspan></text>



<path
   d="m 72,319.68 4,0"
   style="fill:none;stroke:#000000;stroke-width:0.5;stroke-linecap:butt;stroke-linejoin:round;stroke-miterlimit:10;stroke-opacity:1;stroke-dasharray:none"
   id="path7768"
   inkscape:connector-curvature="0" /><path
   d="m 518.4,319.68 -4,0"
   style="fill:none;stroke:#000000;stroke-width:0.5;stroke-linecap:butt;stroke-linejoin:round;stroke-miterlimit:10;stroke-opacity:1;stroke-dasharray:none"
   id="path7770"
   inkscape:connector-curvature="0" /><text
   transform="scale(1,-1)"
   id="text7772"
   style="font-size:28.79999924px"
   x="23.316046"
   y="-310.36127"><tspan
     style="font-size:28.79999924px;font-variant:normal;font-weight:normal;writing-mode:lr-tb;fill:#000000;fill-opacity:1;fill-rule:nonzero;stroke:none;font-family:DejaVu Sans;-inkscape-font-specification:DejaVuSans"
     x="23.316046"
     y="-310.36127"
     sodipodi:role="line"
     id="tspan7774">0.8</tspan></text>



<path
   d="m 72,388.8 446.4,0"
   style="fill:none;stroke:#000000;stroke-width:0.5;stroke-linecap:butt;stroke-linejoin:round;stroke-miterlimit:10;stroke-opacity:1;stroke-dasharray:1, 3;stroke-dashoffset:0"
   id="path7784"
   inkscape:connector-curvature="0" /><path
   d="m 72,388.8 4,0"
   style="fill:none;stroke:#000000;stroke-width:0.5;stroke-linecap:butt;stroke-linejoin:round;stroke-miterlimit:10;stroke-opacity:1;stroke-dasharray:none"
   id="path7786"
   inkscape:connector-curvature="0" /><path
   d="m 518.4,388.8 -4,0"
   style="fill:none;stroke:#000000;stroke-width:0.5;stroke-linecap:butt;stroke-linejoin:round;stroke-miterlimit:10;stroke-opacity:1;stroke-dasharray:none"
   id="path7788"
   inkscape:connector-curvature="0" /><text
   transform="scale(1,-1)"
   id="text7790"
   style="font-size:28.79999924px"
   x="22.728544"
   y="-379.48129"><tspan
     style="font-size:28.79999924px;font-variant:normal;font-weight:normal;writing-mode:lr-tb;fill:#000000;fill-opacity:1;fill-rule:nonzero;stroke:none;font-family:DejaVu Sans;-inkscape-font-specification:DejaVuSans"
     x="22.728544"
     y="-379.48129"
     sodipodi:role="line"
     id="tspan7792">1.0</tspan></text>



<text
   transform="matrix(0,1,1,0,0,0)"
   id="text7794"
   style="font-size:28.79999924px;text-align:center;text-anchor:middle"
   x="216.44374"
   y="6.2605877"><tspan
     style="font-size:28.79999924px;font-variant:normal;font-weight:normal;text-align:center;writing-mode:lr-tb;text-anchor:middle;fill:#000000;fill-opacity:1;fill-rule:nonzero;stroke:none;font-family:DejaVu Sans;-inkscape-font-specification:DejaVuSans"
     x="216.44374"
     y="6.2605877"
     sodipodi:role="line"
     id="tspan7796">Corotation damping D</tspan></text>



<path
   d="m 72,388.8 446.4,0"
   style="fill:none;stroke:#000000;stroke-width:1;stroke-linecap:square;stroke-linejoin:round;stroke-miterlimit:10;stroke-opacity:1;stroke-dasharray:none"
   id="path7798"
   inkscape:connector-curvature="0" /><path
   d="m 518.4,43.2 0,345.6"
   style="fill:none;stroke:#000000;stroke-width:1;stroke-linecap:square;stroke-linejoin:round;stroke-miterlimit:10;stroke-opacity:1;stroke-dasharray:none"
   id="path7800"
   inkscape:connector-curvature="0" /><path
   d="m 72,43.2 446.4,0"
   style="fill:none;stroke:#000000;stroke-width:1;stroke-linecap:square;stroke-linejoin:round;stroke-miterlimit:10;stroke-opacity:1;stroke-dasharray:none"
   id="path7802"
   inkscape:connector-curvature="0" /><path
   d="m 72,43.2 0,345.6"
   style="fill:none;stroke:#000000;stroke-width:1;stroke-linecap:square;stroke-linejoin:round;stroke-miterlimit:10;stroke-opacity:1;stroke-dasharray:none"
   id="path7804"
   inkscape:connector-curvature="0" /><path
   d="m 198.78109,291.98752 313.42607,0 0,89.10889 -313.42607,0 z"
   style="fill:#ffffff;fill-opacity:1;fill-rule:nonzero;stroke:#000000;stroke-width:1;stroke-linecap:square;stroke-linejoin:round;stroke-miterlimit:10;stroke-opacity:1;stroke-dasharray:none"
   id="path7806"
   inkscape:connector-curvature="0"
   sodipodi:nodetypes="ccccc" /><path
   d="m 208.86109,359.66413 20.16,0"
   style="fill:none;stroke:#0000ff;stroke-width:2.4000001;stroke-linecap:square;stroke-linejoin:round;stroke-miterlimit:10;stroke-opacity:1;stroke-dasharray:9.6, 9.6;stroke-dashoffset:4.08"
   id="path7808"
   inkscape:connector-curvature="0" /><path
   d="m 205.86109,359.66413 6,0 m -3,-3 0,6"
   style="fill:none;stroke:#0000ff;stroke-width:0.80000001;stroke-linecap:butt;stroke-linejoin:round;stroke-miterlimit:10;stroke-opacity:1;stroke-dasharray:none"
   id="path7810"
   inkscape:connector-curvature="0" /><path
   d="m 226.02109,359.66413 6,0 m -3,-3 0,6"
   style="fill:none;stroke:#0000ff;stroke-width:0.80000001;stroke-linecap:butt;stroke-linejoin:round;stroke-miterlimit:10;stroke-opacity:1;stroke-dasharray:none"
   id="path7812"
   inkscape:connector-curvature="0" /><text
   transform="scale(1,-1)"
   id="text7814"
   style="font-size:25.60000038px"
   x="244.8611"
   y="-354.62415"><tspan
     style="font-size:25.60000038px;font-variant:normal;font-weight:normal;writing-mode:lr-tb;fill:#000000;fill-opacity:1;fill-rule:nonzero;stroke:none;font-family:DejaVu Sans;-inkscape-font-specification:DejaVuSans"
     x="244.8611"
     y="-354.62415"
     sodipodi:role="line"
     id="tspan7816">Bitsch &amp; Kley (2010)</tspan></text>



<path
   d="m 208.86109,331.8671 20.16,0"
   style="fill:none;stroke:#ff0000;stroke-width:2.4000001;stroke-linecap:square;stroke-linejoin:round;stroke-miterlimit:10;stroke-opacity:1;stroke-dasharray:none"
   id="path7818"
   inkscape:connector-curvature="0" /><text
   transform="scale(1,-1)"
   id="text7820"
   style="font-size:25.60000038px"
   x="244.8611"
   y="-326.82709"><tspan
     style="font-size:25.60000038px;font-variant:normal;font-weight:normal;writing-mode:lr-tb;fill:#000000;fill-opacity:1;fill-rule:nonzero;stroke:none;font-family:DejaVu Sans;-inkscape-font-specification:DejaVuSans"
     x="244.8611"
     y="-326.82709"
     sodipodi:role="line"
     id="tspan7822">model eq. (1)</tspan></text>



<path
   d="m 208.86109,307.59515 20.16,0"
   style="fill:none;stroke:#000000;stroke-width:2.4000001;stroke-linecap:butt;stroke-linejoin:round;stroke-miterlimit:10;stroke-opacity:1;stroke-dasharray:19.2, 4.8, 2.4, 4.8;stroke-dashoffset:0"
   id="path7824"
   inkscape:connector-curvature="0" /><text
   transform="scale(1,-1)"
   id="text7826"
   style="font-size:25.60000038px"
   x="244.8611"
   y="-302.55515"><tspan
     style="font-size:25.60000038px;font-variant:normal;font-weight:normal;writing-mode:lr-tb;fill:#000000;fill-opacity:1;fill-rule:nonzero;stroke:none;font-family:DejaVu Sans;-inkscape-font-specification:DejaVuSans"
     x="244.8611"
     y="-302.55515"
     sodipodi:role="line"
     id="tspan7828">e=x<tspan
   style="font-size:52.00042725%;baseline-shift:sub"
   id="tspan7830">s</tspan></tspan></text>



</g></svg>