<?xml version="1.0" encoding="UTF-8" standalone="no"?>
<!-- Created with Inkscape (http://www.inkscape.org/) -->

<svg
   xmlns:dc="http://purl.org/dc/elements/1.1/"
   xmlns:cc="http://creativecommons.org/ns#"
   xmlns:rdf="http://www.w3.org/1999/02/22-rdf-syntax-ns#"
   xmlns:svg="http://www.w3.org/2000/svg"
   xmlns="http://www.w3.org/2000/svg"
   xmlns:sodipodi="http://sodipodi.sourceforge.net/DTD/sodipodi-0.dtd"
   xmlns:inkscape="http://www.inkscape.org/namespaces/inkscape"
   id="svg2"
   version="1.1"
   inkscape:version="0.48.2 r9819"
   width="636.75116"
   height="334.95462"
   xml:space="preserve"
   sodipodi:docname="corotation_damping_influence.svg"><metadata
     id="metadata8"><rdf:RDF><cc:Work
         rdf:about=""><dc:format>image/svg+xml</dc:format><dc:type
           rdf:resource="http://purl.org/dc/dcmitype/StillImage" /><dc:title /></cc:Work></rdf:RDF></metadata><defs
     id="defs6" /><sodipodi:namedview
     pagecolor="#ffffff"
     bordercolor="#666666"
     borderopacity="1"
     objecttolerance="10"
     gridtolerance="10"
     guidetolerance="10"
     inkscape:pageopacity="0"
     inkscape:pageshadow="2"
     inkscape:window-width="640"
     inkscape:window-height="480"
     id="namedview4"
     showgrid="false"
     inkscape:zoom="1.3119009"
     inkscape:cx="310.38864"
     inkscape:cy="110.38488"
     inkscape:current-layer="g10"
     fit-margin-top="0"
     fit-margin-left="0"
     fit-margin-right="0"
     fit-margin-bottom="0" /><g
     id="g10"
     inkscape:groupmode="layer"
     inkscape:label="corotation_damping_influence"
     transform="matrix(1.25,0,0,-1.25,-25.356216,341.09287)">













<path
   id="path954"
   style="fill:none;stroke:#999999;stroke-width:0.50000000000000000;stroke-linecap:butt;stroke-linejoin:round;stroke-miterlimit:10;stroke-opacity:1;stroke-dasharray:3, 3;stroke-dashoffset:0"
   d="m 72,127.90588 446.4,0 M 72,110.96471 l 446.4,0 M 72,94.023529 l 446.4,0 M 72,77.082353 l 446.4,0 M 72,60.141176 l 446.4,0 M 429.12,43.2 l 0,101.64706 M 339.84,43.2 l 0,101.64706 M 250.56,43.2 l 0,101.64706 M 161.28,43.2 l 0,101.64706" /><path
   id="path620"
   style="fill:none;stroke:#999999;stroke-width:0.50000000000000000;stroke-linecap:butt;stroke-linejoin:round;stroke-miterlimit:10;stroke-opacity:1;stroke-dasharray:3, 3;stroke-dashoffset:0"
   d="m 72,246.49412 446.4,0 M 72,226.16471 l 446.4,0 M 72,205.83529 l 446.4,0 M 72,185.50588 l 446.4,0 m -89.28,-20.32941 0,101.64706 m -89.28,-101.64706 0,101.64706 m -89.28,-101.64706 0,101.64706 m -89.28,-101.64706 0,101.64706" /><path
   d="m 72,185.50588 17.856,5.38238 17.4096,5.1381 4.464,1.19232 0.6696,0.0862 2.6784,0.68534 17.856,4.78052 11.3832,2.7496 11.6064,2.53217 1.116,0.10879 2.0088,-1.70613 0.4464,-0.11542 1.116,0.0935 2.9016,0.56533 14.508,2.93486 8.0352,1.39017 0.6696,-0.45352 0.4464,-0.38107 0.2232,-0.18295 0.2232,-7.7e-4 0.2232,-0.12959 0.6696,-0.74775 1.116,-0.91171 1.5624,0.26648 12.4992,2.3344 5.58,0.91038 0.4464,-0.0935 0.8928,-0.6129 2.4552,-1.88269 0.2232,-0.0746 0.2232,-0.24524 0.2232,-0.051 0.4464,-0.36458 0.2232,0.0293 0.4464,-0.07 1.116,0.10821 3.7944,0.68686 8.4816,1.55499 2.0088,0.22165 0.4464,-0.15896 1.3392,-0.85378 6.4728,-4.32716 0.2232,-0.0566 0.2232,-0.20917 0.2232,-0.0445 0.4464,-0.24835 0.6696,-0.32552 0.2232,0.003 0.2232,-0.23977 0.2232,-0.0449 0.6696,-0.57359 1.3392,-0.6347 0.2232,0.0356 0.2232,-0.18155 0.2232,0.0294 0.4464,-0.20559 0.2232,-0.004 0.4464,-0.36638 0.4464,-0.28176 0.8928,-0.48051 0.2232,-0.004 0.6696,-0.24752 0.2232,-0.0219 0.2232,-0.14039 0.2232,0.0258 0.2232,-0.21494 0.2232,-0.0414 0.6696,-0.40461 1.116,-0.53089 0.2232,0.0328 0.2232,-0.17599 0.2232,0.0413 0.2232,-0.17427 0.2232,5e-4 0.6696,-0.38665 0.8928,-0.37825 0.6696,-0.18193 0.2232,-0.17233 0.2232,0.0296 0.2232,-0.17586 0.2232,0.0291 0.2232,-0.20607 0.2232,-0.006 0.4464,-0.26789 0.2232,-0.0181 0.2232,-0.18304 0.2232,0.0196 0.2232,-0.15156 0.2232,-0.007 0.6696,-0.27135 0.8928,-0.31131 0.2232,-0.17417 0.2232,0.006 0.4464,-0.18504 1.7856,-0.69328 0.2232,0.014 0.2232,-0.17252 0.2232,0.009 0.4464,-0.17395 0.8928,-0.31694 1.116,-0.36246 0.2232,-0.16306 0.2232,0.0193 0.2232,-0.17292 0.2232,0.0299 0.2232,-0.17009 0.2232,0.0363 0.2232,-0.1748 0.2232,0.0342 0.2232,-0.17703 0.2232,0.0298 0.2232,-0.1757 0.2232,0.0259 0.2232,-0.17746 0.2232,0.0221 0.2232,-0.16366 0.2232,0.0157 0.2232,-0.15532 0.2232,0.0399 0.2232,-0.17505 0.2232,0.0257 0.2232,-0.16938 0.2232,0.0374 0.2232,-0.18058 0.2232,0.0303 0.2232,-0.15684 0.2232,-0.007 0.2232,-0.15839 0.2232,8.3e-4 0.2232,-0.16906 0.2232,0.0314 0.2232,-0.15046 0.2232,0.0252 0.2232,-0.16924 0.2232,0.0403 0.4464,-0.14955 1.3392,0.32501 16.9632,4.76531 0.8928,0.0321 0.6696,-0.15154 1.5624,-0.60874 8.0352,-3.39671 12.0528,-4.32393 6.2496,-1.85753 1.3392,-0.36129 2.9016,-0.77695 15.8472,-3.4778 1.5624,-0.28614 10.7136,-1.71153 8.928,-1.13872 23.2128,-2.00627 10.4904,-0.5656 25.2216,-0.80777 14.2848,-0.23937 15.1776,-0.15408 30.3552,-0.14262 1.3392,-0.004 16.0704,-0.0324 17.856,-0.014 3.7944,-0.006 0,0"
   style="fill:none;stroke:#ff0000;stroke-width:1.6;stroke-linecap:square;stroke-linejoin:round;stroke-miterlimit:10;stroke-opacity:1;stroke-dasharray:none;stroke-dashoffset:0"
   id="path402"
   inkscape:connector-curvature="0" /><path
   d="m 72,226.16471 446.4,0"
   style="fill:none;stroke:#000000;stroke-width:1.6;stroke-linecap:butt;stroke-linejoin:round;stroke-miterlimit:10;stroke-opacity:1;stroke-dasharray:12.8,3.2,1.6,3.2;stroke-dashoffset:0"
   id="path422"
   inkscape:connector-curvature="0" /><path
   d="m 72,266.82353 8.7048,-3.79836 12.4992,-4.96139 8.0352,-2.91263 8.928,-2.98122 12.276,-3.71226 12.276,-3.20523 10.9368,-2.49463 9.3744,-1.8999 2.0088,-0.46418 0.6696,-0.73168 1.5624,-1.76786 1.3392,-0.5409 2.0088,-0.42023 4.6872,-0.69225 14.9544,-1.80323 3.7944,-0.44931 0.4464,-0.33338 0.8928,-0.89115 0.6696,-0.39735 1.116,-1.29225 0.8928,-0.61575 3.1248,-0.2503 16.5168,-0.95676 0.8928,-0.71961 3.1248,-2.72337 0.2232,-0.0376 0.2232,-0.27768 1.116,-0.34264 11.3832,-0.002 3.348,0.003 0.6696,-0.23125 1.116,-0.79581 7.5888,-5.63438 0.2232,-0.0289 0.2232,-0.23404 0.2232,0.0135 0.2232,-0.2448 0.2232,-0.007 0.6696,-0.43238 1.5624,-1.03003 0.6696,-0.20322 0.2232,-0.14875 0.2232,0.0225 0.2232,-0.2319 0.4464,-0.0962 1.3392,-0.96683 0.4464,-0.14854 0.2232,-0.17231 0.2232,0.0256 0.2232,-0.19705 0.2232,0.0295 0.2232,-0.20445 0.4464,-0.084 1.3392,-0.85361 0.2232,-0.046 0.2232,-0.17001 0.4464,-0.14244 0.6696,-0.1748 0.2232,-0.17856 0.2232,-0.004 0.4464,-0.36418 0.2232,-0.036 0.4464,-0.3126 0.2232,-0.016 0.2232,-0.1812 0.2232,-0.0185 0.6696,-0.2947 0.2232,-0.0293 0.4464,-0.22758 2.0088,-0.95544 0.2232,0.0189 0.2232,-0.19211 0.2232,0.025 0.2232,-0.1986 0.2232,0.003 0.4464,-0.26371 0.6696,-0.23525 0.2232,-0.18699 0.2232,0.0265 0.2232,-0.19754 0.2232,0.0373 0.2232,-0.19273 0.2232,0.0118 0.2232,-0.17981 0.4464,-0.16365 0.6696,-0.33116 0.2232,0.0113 0.2232,-0.1833 0.2232,0.0269 0.2232,-0.19064 0.2232,0.0252 0.2232,-0.18435 0.2232,0.0234 0.2232,-0.18896 0.2232,0.0123 0.2232,-0.18094 0.2232,-0.0224 0.6696,-0.2909 0.6696,-0.28234 0.6696,-0.19788 1.116,-0.4844 0.2232,-0.01 0.2232,-0.16059 0.2232,-0.0159 0.2232,-0.14488 0.2232,0.009 0.4464,-0.16664 1.5624,-0.57739 1.116,-0.4075 0.2232,0.0183 0.2232,-0.18451 2.0088,0.37945 3.348,0.76659 9.8208,2.13996 3.7944,0.63104 0.8928,-0.19378 1.5624,-0.68327 10.4904,-4.82787 4.2408,-1.73807 6.2496,-2.30055 9.8208,-3.07603 13.8384,-3.41709 12.0528,-2.26062 8.0352,-1.20383 10.044,-1.20966 5.58,-0.5547 16.74,-1.24155 7.5888,-0.3876 15.8472,-0.57826 13.6152,-0.30978 46.2024,-0.43277 2.232,0.004 31.4712,-0.0693 4.6872,-4e-5 1.3392,-10e-4 3.1248,-0.002 2.232,-0.001 0,0"
   style="fill:none;stroke:#0000ff;stroke-width:1.6;stroke-linecap:square;stroke-linejoin:round;stroke-miterlimit:10;stroke-opacity:1;stroke-dasharray:none;stroke-dashoffset:0"
   id="path412"
   inkscape:connector-curvature="0" /><path
   d="m 72,165.17647 0,101.64706"
   style="fill:none;stroke:#000000;stroke-width:0.5;stroke-linecap:butt;stroke-linejoin:round;stroke-miterlimit:10;stroke-opacity:1;stroke-dasharray:1, 3;stroke-dashoffset:0"
   id="path432"
   inkscape:connector-curvature="0" /><path
   d="m 72,165.17647 0,4"
   style="fill:none;stroke:#000000;stroke-width:0.5;stroke-linecap:butt;stroke-linejoin:round;stroke-miterlimit:10;stroke-opacity:1;stroke-dasharray:none"
   id="path434"
   inkscape:connector-curvature="0" /><path
   d="m 72,266.82353 0,-4"
   style="fill:none;stroke:#000000;stroke-width:0.5;stroke-linecap:butt;stroke-linejoin:round;stroke-miterlimit:10;stroke-opacity:1;stroke-dasharray:none"
   id="path436"
   inkscape:connector-curvature="0" />
<path
   d="m 161.28,165.17647 0,4"
   style="fill:none;stroke:#000000;stroke-width:0.5;stroke-linecap:butt;stroke-linejoin:round;stroke-miterlimit:10;stroke-opacity:1;stroke-dasharray:none"
   id="path452"
   inkscape:connector-curvature="0" /><path
   d="m 161.28,266.82353 0,-4"
   style="fill:none;stroke:#000000;stroke-width:0.5;stroke-linecap:butt;stroke-linejoin:round;stroke-miterlimit:10;stroke-opacity:1;stroke-dasharray:none"
   id="path454"
   inkscape:connector-curvature="0" />
<path
   d="m 250.56,165.17647 0,4"
   style="fill:none;stroke:#000000;stroke-width:0.5;stroke-linecap:butt;stroke-linejoin:round;stroke-miterlimit:10;stroke-opacity:1;stroke-dasharray:none"
   id="path470"
   inkscape:connector-curvature="0" /><path
   d="m 250.56,266.82353 0,-4"
   style="fill:none;stroke:#000000;stroke-width:0.5;stroke-linecap:butt;stroke-linejoin:round;stroke-miterlimit:10;stroke-opacity:1;stroke-dasharray:none"
   id="path472"
   inkscape:connector-curvature="0" />
<path
   d="m 339.84,165.17647 0,4"
   style="fill:none;stroke:#000000;stroke-width:0.5;stroke-linecap:butt;stroke-linejoin:round;stroke-miterlimit:10;stroke-opacity:1;stroke-dasharray:none"
   id="path488"
   inkscape:connector-curvature="0" /><path
   d="m 339.84,266.82353 0,-4"
   style="fill:none;stroke:#000000;stroke-width:0.5;stroke-linecap:butt;stroke-linejoin:round;stroke-miterlimit:10;stroke-opacity:1;stroke-dasharray:none"
   id="path490"
   inkscape:connector-curvature="0" />
<path
   d="m 429.12,165.17647 0,4"
   style="fill:none;stroke:#000000;stroke-width:0.5;stroke-linecap:butt;stroke-linejoin:round;stroke-miterlimit:10;stroke-opacity:1;stroke-dasharray:none"
   id="path506"
   inkscape:connector-curvature="0" /><path
   d="m 429.12,266.82353 0,-4"
   style="fill:none;stroke:#000000;stroke-width:0.5;stroke-linecap:butt;stroke-linejoin:round;stroke-miterlimit:10;stroke-opacity:1;stroke-dasharray:none"
   id="path508"
   inkscape:connector-curvature="0" />
<path
   d="m 518.4,165.17647 0,101.64706"
   style="fill:none;stroke:#000000;stroke-width:0.5;stroke-linecap:butt;stroke-linejoin:round;stroke-miterlimit:10;stroke-opacity:1;stroke-dasharray:1, 3;stroke-dashoffset:0"
   id="path522"
   inkscape:connector-curvature="0" /><path
   d="m 518.4,165.17647 0,4"
   style="fill:none;stroke:#000000;stroke-width:0.5;stroke-linecap:butt;stroke-linejoin:round;stroke-miterlimit:10;stroke-opacity:1;stroke-dasharray:none"
   id="path524"
   inkscape:connector-curvature="0" /><path
   d="m 518.4,266.82353 0,-4"
   style="fill:none;stroke:#000000;stroke-width:0.5;stroke-linecap:butt;stroke-linejoin:round;stroke-miterlimit:10;stroke-opacity:1;stroke-dasharray:none"
   id="path526"
   inkscape:connector-curvature="0" />


<path
   d="m 72,165.17647 446.4,0"
   style="fill:none;stroke:#000000;stroke-width:0.5;stroke-linecap:butt;stroke-linejoin:round;stroke-miterlimit:10;stroke-opacity:1;stroke-dasharray:1, 3;stroke-dashoffset:0"
   id="path548"
   inkscape:connector-curvature="0" /><path
   d="m 72,165.17647 4,0"
   style="fill:none;stroke:#000000;stroke-width:0.5;stroke-linecap:butt;stroke-linejoin:round;stroke-miterlimit:10;stroke-opacity:1;stroke-dasharray:none"
   id="path550"
   inkscape:connector-curvature="0" /><path
   d="m 518.4,165.17647 -4,0"
   style="fill:none;stroke:#000000;stroke-width:0.5;stroke-linecap:butt;stroke-linejoin:round;stroke-miterlimit:10;stroke-opacity:1;stroke-dasharray:none"
   id="path552"
   inkscape:connector-curvature="0" /><text
   transform="scale(1,-1)"
   id="text554"
   style="font-size:16px;font-style:normal;font-variant:normal;font-weight:normal;font-stretch:normal;text-align:end;line-height:125%;writing-mode:lr-tb;text-anchor:end;font-family:Sans;-inkscape-font-specification:Sans"
   sodipodi:linespacing="125%"
   x="68.887161"
   y="-159.45772"><tspan
     style="font-size:16px;font-style:normal;font-variant:normal;font-weight:normal;font-stretch:normal;text-align:end;line-height:125%;writing-mode:lr-tb;text-anchor:end;fill:#000000;fill-opacity:1;fill-rule:nonzero;stroke:none;font-family:Sans;-inkscape-font-specification:Sans"
     x="68.887161"
     y="-159.45772"
     sodipodi:role="line"
     id="tspan556">1.5</tspan></text>


<path
   d="m 72,185.50588 4,0"
   style="fill:none;stroke:#000000;stroke-width:0.5;stroke-linecap:butt;stroke-linejoin:round;stroke-miterlimit:10;stroke-opacity:1;stroke-dasharray:none"
   id="path568"
   inkscape:connector-curvature="0" /><path
   d="m 518.4,185.50588 -4,0"
   style="fill:none;stroke:#000000;stroke-width:0.5;stroke-linecap:butt;stroke-linejoin:round;stroke-miterlimit:10;stroke-opacity:1;stroke-dasharray:none"
   id="path570"
   inkscape:connector-curvature="0" /><text
   transform="scale(1,-1)"
   id="text572"
   style="font-size:16px;font-style:normal;font-variant:normal;font-weight:normal;font-stretch:normal;text-align:end;line-height:125%;writing-mode:lr-tb;text-anchor:end;font-family:Sans;-inkscape-font-specification:Sans"
   sodipodi:linespacing="125%"
   x="68.517632"
   y="-179.68166"><tspan
     style="font-size:16px;font-style:normal;font-variant:normal;font-weight:normal;font-stretch:normal;text-align:end;line-height:125%;writing-mode:lr-tb;text-anchor:end;fill:#000000;fill-opacity:1;fill-rule:nonzero;stroke:none;font-family:Sans;-inkscape-font-specification:Sans"
     x="68.517632"
     y="-179.68166"
     sodipodi:role="line"
     id="tspan574">2.0</tspan></text>


<path
   d="m 72,205.83529 4,0"
   style="fill:none;stroke:#000000;stroke-width:0.5;stroke-linecap:butt;stroke-linejoin:round;stroke-miterlimit:10;stroke-opacity:1;stroke-dasharray:none"
   id="path586"
   inkscape:connector-curvature="0" /><path
   d="m 518.4,205.83529 -4,0"
   style="fill:none;stroke:#000000;stroke-width:0.5;stroke-linecap:butt;stroke-linejoin:round;stroke-miterlimit:10;stroke-opacity:1;stroke-dasharray:none"
   id="path588"
   inkscape:connector-curvature="0" /><text
   transform="scale(1,-1)"
   id="text590"
   style="font-size:16px;font-style:normal;font-variant:normal;font-weight:normal;font-stretch:normal;text-align:end;line-height:125%;writing-mode:lr-tb;text-anchor:end;font-family:Sans;-inkscape-font-specification:Sans"
   sodipodi:linespacing="125%"
   x="68.887161"
   y="-200.01106"><tspan
     style="font-size:16px;font-style:normal;font-variant:normal;font-weight:normal;font-stretch:normal;text-align:end;line-height:125%;writing-mode:lr-tb;text-anchor:end;fill:#000000;fill-opacity:1;fill-rule:nonzero;stroke:none;font-family:Sans;-inkscape-font-specification:Sans"
     x="68.887161"
     y="-200.01106"
     sodipodi:role="line"
     id="tspan592">2.5</tspan></text>


<path
   d="m 72,226.16471 4,0"
   style="fill:none;stroke:#000000;stroke-width:0.5;stroke-linecap:butt;stroke-linejoin:round;stroke-miterlimit:10;stroke-opacity:1;stroke-dasharray:none"
   id="path604"
   inkscape:connector-curvature="0" /><path
   d="m 518.4,226.16471 -4,0"
   style="fill:none;stroke:#000000;stroke-width:0.5;stroke-linecap:butt;stroke-linejoin:round;stroke-miterlimit:10;stroke-opacity:1;stroke-dasharray:none"
   id="path606"
   inkscape:connector-curvature="0" /><text
   transform="scale(1,-1)"
   id="text608"
   style="font-size:16px;font-style:normal;font-variant:normal;font-weight:normal;font-stretch:normal;text-align:end;line-height:125%;writing-mode:lr-tb;text-anchor:end;font-family:Sans;-inkscape-font-specification:Sans"
   sodipodi:linespacing="125%"
   x="68.517632"
   y="-220.34048"><tspan
     style="font-size:16px;font-style:normal;font-variant:normal;font-weight:normal;font-stretch:normal;text-align:end;line-height:125%;writing-mode:lr-tb;text-anchor:end;fill:#000000;fill-opacity:1;fill-rule:nonzero;stroke:none;font-family:Sans;-inkscape-font-specification:Sans"
     x="68.517632"
     y="-220.34048"
     sodipodi:role="line"
     id="tspan610">3.0</tspan></text>


<path
   d="m 72,246.49412 4,0"
   style="fill:none;stroke:#000000;stroke-width:0.5;stroke-linecap:butt;stroke-linejoin:round;stroke-miterlimit:10;stroke-opacity:1;stroke-dasharray:none"
   id="path622"
   inkscape:connector-curvature="0" /><path
   d="m 518.4,246.49412 -4,0"
   style="fill:none;stroke:#000000;stroke-width:0.5;stroke-linecap:butt;stroke-linejoin:round;stroke-miterlimit:10;stroke-opacity:1;stroke-dasharray:none"
   id="path624"
   inkscape:connector-curvature="0" /><text
   transform="scale(1,-1)"
   id="text626"
   style="font-size:16px;font-style:normal;font-variant:normal;font-weight:normal;font-stretch:normal;text-align:end;line-height:125%;writing-mode:lr-tb;text-anchor:end;font-family:Sans;-inkscape-font-specification:Sans"
   sodipodi:linespacing="125%"
   x="68.887161"
   y="-240.66989"><tspan
     style="font-size:16px;font-style:normal;font-variant:normal;font-weight:normal;font-stretch:normal;text-align:end;line-height:125%;writing-mode:lr-tb;text-anchor:end;fill:#000000;fill-opacity:1;fill-rule:nonzero;stroke:none;font-family:Sans;-inkscape-font-specification:Sans"
     x="68.887161"
     y="-240.66989"
     sodipodi:role="line"
     id="tspan628">3.5</tspan></text>


<path
   d="m 72,266.82353 446.4,0"
   style="fill:none;stroke:#000000;stroke-width:0.5;stroke-linecap:butt;stroke-linejoin:round;stroke-miterlimit:10;stroke-opacity:1;stroke-dasharray:1, 3;stroke-dashoffset:0"
   id="path638"
   inkscape:connector-curvature="0" /><path
   d="m 72,266.82353 4,0"
   style="fill:none;stroke:#000000;stroke-width:0.5;stroke-linecap:butt;stroke-linejoin:round;stroke-miterlimit:10;stroke-opacity:1;stroke-dasharray:none"
   id="path640"
   inkscape:connector-curvature="0" /><path
   d="m 518.4,266.82353 -4,0"
   style="fill:none;stroke:#000000;stroke-width:0.5;stroke-linecap:butt;stroke-linejoin:round;stroke-miterlimit:10;stroke-opacity:1;stroke-dasharray:none"
   id="path642"
   inkscape:connector-curvature="0" /><text
   transform="scale(1,-1)"
   id="text644"
   style="font-size:16px;font-style:normal;font-variant:normal;font-weight:normal;font-stretch:normal;text-align:end;line-height:125%;writing-mode:lr-tb;text-anchor:end;font-family:Sans;-inkscape-font-specification:Sans"
   sodipodi:linespacing="125%"
   x="68.517639"
   y="-260.9993"><tspan
     style="font-size:16px;font-style:normal;font-variant:normal;font-weight:normal;font-stretch:normal;text-align:end;line-height:125%;writing-mode:lr-tb;text-anchor:end;fill:#000000;fill-opacity:1;fill-rule:nonzero;stroke:none;font-family:Sans;-inkscape-font-specification:Sans"
     x="68.517639"
     y="-260.9993"
     sodipodi:role="line"
     id="tspan646">4.0</tspan></text>


<text
   transform="matrix(0,1,1,0,0,0)"
   id="text648"
   style="font-size:16px;font-style:normal;font-variant:normal;font-weight:normal;font-stretch:normal;text-align:center;line-height:125%;writing-mode:lr-tb;text-anchor:middle;font-family:Sans;-inkscape-font-specification:Sans"
   sodipodi:linespacing="125%"
   x="216.23203"
   y="33.050598"><tspan
     style="font-size:16px;font-style:normal;font-variant:normal;font-weight:normal;font-stretch:normal;text-align:center;line-height:125%;writing-mode:lr-tb;text-anchor:middle;fill:#000000;fill-opacity:1;fill-rule:nonzero;stroke:none;font-family:Sans;-inkscape-font-specification:Sans"
     x="216.23203"
     y="33.050598"
     sodipodi:role="line"
     id="tspan650">a [AU]</tspan></text>


<path
   d="m 72,266.82353 446.4,0"
   style="fill:none;stroke:#000000;stroke-width:1;stroke-linecap:square;stroke-linejoin:round;stroke-miterlimit:10;stroke-opacity:1;stroke-dasharray:none"
   id="path652"
   inkscape:connector-curvature="0" /><path
   d="m 518.4,165.17647 0,101.64706"
   style="fill:none;stroke:#000000;stroke-width:1;stroke-linecap:square;stroke-linejoin:round;stroke-miterlimit:10;stroke-opacity:1;stroke-dasharray:none"
   id="path654"
   inkscape:connector-curvature="0" /><path
   d="m 72,165.17647 446.4,0"
   style="fill:none;stroke:#000000;stroke-width:1;stroke-linecap:square;stroke-linejoin:round;stroke-miterlimit:10;stroke-opacity:1;stroke-dasharray:none"
   id="path656"
   inkscape:connector-curvature="0" /><path
   d="m 72,165.17647 0,101.64706"
   style="fill:none;stroke:#000000;stroke-width:1;stroke-linecap:square;stroke-linejoin:round;stroke-miterlimit:10;stroke-opacity:1;stroke-dasharray:none"
   id="path658"
   inkscape:connector-curvature="0" /><path
   d="m 309.28237,234.55665 201.91763,0 0,25.06688 -201.91763,0 z"
   style="fill:#ffffff;fill-opacity:1;fill-rule:nonzero;stroke:#000000;stroke-width:1;stroke-linecap:square;stroke-linejoin:round;stroke-miterlimit:10;stroke-opacity:1;stroke-dasharray:none"
   id="path660"
   inkscape:connector-curvature="0"
   sodipodi:nodetypes="ccccc" /><path
   d="m 314.26838,248.2629 20.16,0"
   style="fill:none;stroke:#000000;stroke-width:1.6;stroke-linecap:butt;stroke-linejoin:round;stroke-miterlimit:10;stroke-opacity:1;stroke-dasharray:12.8,3.2,1.6,3.2;stroke-dashoffset:0"
   id="path662"
   inkscape:connector-curvature="0" /><text
   transform="scale(1,-1)"
   id="text664"
   style="font-size:16px;font-style:normal;font-variant:normal;font-weight:normal;font-stretch:normal;text-align:start;line-height:125%;writing-mode:lr-tb;text-anchor:start;font-family:Sans;-inkscape-font-specification:Sans"
   sodipodi:linespacing="125%"
   x="347.9173"
   y="-243.2229"><tspan
     style="font-size:16px;font-style:normal;font-variant:normal;font-weight:normal;font-stretch:normal;text-align:start;line-height:125%;writing-mode:lr-tb;text-anchor:start;fill:#000000;fill-opacity:1;fill-rule:nonzero;stroke:none;font-family:Sans;-inkscape-font-specification:Sans"
     x="347.9173"
     y="-243.2229"
     sodipodi:role="line"
     id="tspan666">Convergence Zone</tspan></text>


<path
   d="m 72,77.082088 0.2232,1.258702 0.2232,-5.466717 0.2232,-1.922029 0.2232,6.054215 0.2232,-6.815693 0.2232,1.44465 0.2232,4.491178 0.2232,-3.202314 0.4464,1.504731 0.2232,-0.261864 0.2232,0.279591 0.2232,-0.9225 0.2232,1.213282 0.2232,-0.660984 0.2232,-2.127198 0.2232,1.188479 0.4464,-2.409243 0.2232,2.616888 0.4464,-2.013968 0.2232,0.336508 0.2232,1.257163 0.2232,-1.873596 0.2232,1.370764 0.2232,-2.119692 0.2232,2.822408 0.2232,-3.426645 0.2232,1.989405 0.2232,0.662144 0.2232,-1.422828 0.2232,0.623988 0.2232,1.450945 0.2232,0.04053 0.2232,-2.347592 0.2232,-0.08284 0.2232,2.180246 0.2232,-0.291021 0.2232,1.10612 0.2232,-0.651176 0.4464,0.404813 0.2232,-1.3866 0.2232,1.539777 0.2232,-0.437257 0.2232,0.663935 0.2232,-1.002896 0.2232,1.09565 0.2232,0.08226 0.2232,-0.117744 0.2232,0.744606 0.2232,-1.346825 0.2232,0.706774 0.2232,-1.477736 0.2232,1.094905 0.2232,0.481507 0.2232,-0.840517 0.2232,1.946597 0.2232,-0.308057 0.4464,0.61983 0.4464,-1.911654 0.2232,1.745442 0.4464,-0.124147 0.2232,0.759382 0.2232,-1.586869 0.2232,0.693404 0.2232,-0.512706 0.2232,0.344128 0.2232,1.169354 0.2232,-0.887227 0.2232,1.426133 0.2232,-0.279335 0.2232,0.492505 0.2232,0.04871 0.2232,0.362753 0.2232,-0.576896 0.2232,0.810141 0.2232,-0.165238 0.2232,0.293046 0.2232,-0.475221 0.2232,0.470417 0.2232,-0.689863 0.2232,0.770591 0.2232,-0.84202 0.2232,-0.277122 0.2232,0.879287 0.2232,-0.0087 0.2232,0.214375 0.2232,0.418808 0.2232,0.82979 0.2232,-0.06341 0.4464,-1.333838 0.2232,1.188999 0.2232,-0.109664 0.2232,0.317899 0.2232,-0.450656 0.2232,0.707328 0.2232,-0.171304 0.2232,0.411706 0.2232,-0.565541 0.2232,0.521096 0.2232,0.810196 0.2232,0.127981 0.4464,-0.704097 0.2232,0.723622 0.2232,-0.147767 0.2232,0.475262 0.2232,-0.640093 0.2232,0.923094 0.4464,-0.0088 0.2232,0.334667 0.2232,0.619979 0.2232,-0.920958 0.2232,0.233371 0.2232,0.731966 0.2232,0.05215 0.2232,0.397868 0.2232,-0.522884 0.2232,0.331661 0.2232,1.283081 0.2232,-0.68185 0.2232,0.396921 0.2232,0.08135 0.2232,0.307787 0.2232,-0.0586 0.2232,0.44982 0.2232,0.09155 0.2232,0.288911 0.2232,0.08353 0.2232,0.752507 0.2232,-0.619007 0.4464,0.557117 0.2232,1.188784 0.2232,-0.730051 0.2232,0.592868 0.2232,0.264494 0.2232,0.0074 0.2232,0.950518 0.2232,-0.450664 0.2232,0.530217 0.4464,0.617184 1.116,1.787538 0.4464,0.702551 1.3392,3.045983 0.6696,1.991908 0.6696,2.683093 0.4464,2.472092 0.4464,3.61472 0.4464,6.14617 0.6696,11.50543 0.6696,-5.49336 0.2232,-0.26277 0.2232,-1.35037 0.2232,0.76157 0.2232,-2.32101 0.2232,-0.0126 0.4464,-2.15204 0.2232,0.008 0.2232,-0.20795 0.2232,-0.81568 0.2232,-2.07015 0.2232,-0.19618 0.2232,-2.34162 0.2232,-1.01635 0.2232,0.96286 0.2232,-1.54949 0.2232,0.65466 0.2232,-0.65333 0.2232,-1.3296 0.2232,-3.478944 0.2232,0.558926 0.2232,-0.06254 0.2232,-3.041873 0.2232,1.974682 0.2232,-5.329693 0.2232,1.564288 0.2232,-3.96404 0.2232,4.368144 0.2232,-5.59302 0.2232,4.396125 0.2232,-2.086199 0.2232,-5.073351 0.2232,6.737694 0.2232,-0.260168 0.2232,-0.843788 0.2232,-0.381112 0.2232,-9.85831 0.2232,5.342726 0.2232,0.525548 0.2232,-5.349549 0.2232,6.348677 0.2232,-6.246609 0.2232,3.827272 0.2232,-5.529336 0.2232,5.252244 0.4464,1.686872 0.2232,-0.183001 0.4464,-2.769207 0.2232,0.102033 0.2232,0.833561 0.2232,-1.220567 0.2232,0.757177 0.2232,-0.417104 0.2232,0.938115 0.2232,-0.977333 0.2232,-0.194656 0.2232,0.929004 0.2232,-2.234113 0.2232,0.874881 0.2232,-0.263634 0.2232,1.37035 0.2232,-1.014373 0.4464,0.817939 0.2232,-5.245017 0.2232,5.221025 0.2232,-1.171109 0.2232,-0.230649 0.2232,0.12974 0.2232,0.702236 0.2232,-1.151858 0.2232,1.168394 0.2232,-1.242883 0.2232,-5.951775 0.4464,6.779917 0.2232,0.115452 0.2232,-0.46835 0.2232,-5.640202 0.2232,4.722808 0.2232,-0.610892 0.2232,0.59541 0.2232,1.590065 0.2232,-8.317791 0.2232,7.626756 0.2232,0.809062 0.2232,0.0091 0.2232,-1.330903 0.2232,-0.542611 0.2232,1.830306 0.2232,-0.832517 0.4464,-3.601107 0.2232,3.352403 0.2232,0.932645 0.2232,-3.930593 0.2232,4.102994 0.4464,-1.052448 0.2232,0.283779 0.2232,0.720085 0.2232,-2.017253 0.2232,1.844706 0.4464,-4.027754 0.2232,0.647145 0.2232,-1.003475 0.2232,4.389386 0.2232,-1.093018 0.2232,1.282442 0.2232,-1.151341 0.2232,-5.342512 0.4464,6.198212 0.2232,0.656094 0.2232,-1.629241 0.2232,0.490966 0.2232,1.447555 0.2232,-0.06289 0.2232,0.163611 0.2232,-1.544084 0.6696,1.36275 0.2232,-0.75305 0.2232,-0.320083 0.4464,1.607588 0.2232,-1.884525 0.2232,1.842506 0.2232,-3.252838 0.4464,2.117388 0.2232,-2.696624 0.2232,3.334876 0.2232,1.28467 0.2232,-3.235505 0.2232,2.377946 0.2232,1.109228 0.2232,-0.02177 0.2232,0.232633 0.4464,-1.871627 0.2232,2.165677 0.2232,-0.788221 0.2232,-2.345839 0.2232,1.799963 0.2232,-0.501867 0.2232,-0.09636 0.2232,2.414959 0.2232,-0.775097 0.2232,1.089769 0.2232,-1.437025 0.2232,-0.620119 0.2232,0.676061 0.2232,-0.257713 0.2232,1.993444 0.2232,0.655587 0.2232,-0.799658 0.2232,0.444745 0.2232,1.069942 0.2232,0.05903 0.4464,0.466825 0.2232,-0.975043 0.2232,1.091196 0.2232,-0.245095 0.2232,1.114027 0.2232,-0.07279 0.2232,0.0943 0.4464,1.016068 0.2232,-0.268795 0.8928,1.616648 0.4464,0.801811 0.2232,0.686387 0.2232,0.104362 1.116,2.890388 0.8928,3.451381 0.6696,4.3874 0.4464,4.85516 1.116,17.36756 0.4464,-4.20838 0.4464,3.77974 0.4464,-4.11436 0.2232,1.02812 0.6696,-5.408 0.2232,0.67099 0.2232,-2.22726 0.2232,0.12198 0.2232,-1.52238 0.2232,0.28317 0.2232,-1.8814 0.2232,-0.4 0.2232,0.38241 0.4464,-3.2878 0.2232,0.32775 0.2232,-1.21256 0.2232,0.46111 0.2232,-0.659 0.2232,-2.53978 0.2232,1.18699 0.2232,-1.41545 0.2232,0.0679 0.2232,-3.19566 0.2232,1.82586 0.2232,-0.65487 0.2232,-1.35518 0.4464,-4.855567 0.8928,1.700337 0.2232,-0.44304 0.4464,-2.656488 0.2232,-3.614428 0.2232,2.569657 0.2232,1.283251 0.4464,-11.308699 0.2232,-0.989685 0.2232,7.69744 0.2232,-1.619496 0.2232,2.488742 0.2232,-4.129126 0.2232,-6.993848 0.2232,10.388602 0.2232,-1.980079 0.2232,2.117051 0.2232,-4.691609 0.2232,3.565593 0.2232,-4.235846 0.2232,1.551494 0.2232,2.858087 0.2232,-10.8127 0.2232,8.798582 0.2232,-4.423316 0.2232,1.280175 0.2232,4.388453 0.2232,-3.234824 0.2232,-0.582011 0.4464,3.086118 0.2232,-0.0067 0.2232,-1.146296 0.2232,1.101598 0.2232,-9.93202 0.2232,10.258684 0.2232,-1.374048 0.2232,0.467226 0.2232,0.994517 0.2232,-1.38592 0.2232,0.01554 0.2232,0.235977 0.4464,1.41548 0.2232,-0.715888 0.2232,-3.56983 0.2232,3.953078 0.2232,0.205805 0.2232,-0.479169 0.2232,0.8352 0.2232,-0.396483 0.2232,0.321242 0.2232,-0.08803 0.2232,-2.88303 0.2232,3.183302 0.2232,0.608545 0.2232,-1.989558 0.2232,2.15166 0.2232,0.549771 0.2232,0.03256 0.2232,-1.453435 0.2232,1.805247 0.2232,0.104579 0.2232,-0.618763 0.2232,1.177062 0.2232,-1.160517 0.2232,1.941162 0.2232,0.04702 0.8928,1.782995 0.2232,-0.521522 0.2232,1.286223 0.4464,0.971216 0.2232,0.30566 1.3392,4.83 0.6696,4.26032 0.4464,4.94127 0.6696,11.0104 0.2232,0.94374 0.2232,-2.0462 0.2232,1.53794 0.2232,2.32099 0.4464,-7.65105 0.2232,5.76938 0.2232,2.8376 0.2232,-1.63219 0.2232,0.92932 0.2232,-2.91418 0.2232,1.9624 0.2232,-3.12768 0.2232,3.73929 0.2232,-4.39603 0.2232,-9.77012 0.2232,3.45896 0.2232,-1.44101 0.2232,-5.88435 0.2232,3.84292 0.2232,-1.49165 0.2232,-0.47 0.4464,-8.9453 0.2232,1.72574 0.2232,4.80856 0.2232,-2.21343 0.2232,-0.65356 0.2232,0.88789 0.4464,-11.417188 0.4464,9.365548 0.2232,-3.66885 0.2232,0.79454 0.2232,1.34137 0.2232,-9.042044 0.2232,1.857069 0.2232,-1.754645 0.2232,3.69975 0.2232,-1.74931 0.2232,2.243015 0.2232,-9.270119 0.2232,10.779182 0.2232,-13.975256 0.2232,2.261139 0.2232,10.8321 0.2232,-3.291869 0.2232,2.808197 0.2232,-1.826501 0.2232,-5.496498 0.2232,6.584206 0.2232,-1.819185 0.2232,0.998337 0.2232,-1.996261 0.2232,2.234026 0.2232,-4.413105 0.2232,3.017447 0.2232,-13.405801 0.2232,13.297566 0.2232,-2.148159 0.2232,3.171979 0.2232,-1.749923 0.2232,1.08845 0.2232,-1.079113 0.2232,1.120843 0.2232,-0.723327 0.2232,1.180927 0.2232,-9.427968 0.2232,8.77693 0.2232,-0.51503 0.4464,1.541335 0.2232,-0.103509 0.2232,0.265906 0.2232,-5.032685 0.2232,5.251692 0.2232,0.302393 0.2232,-0.376902 0.2232,-2.06096 0.2232,2.845797 0.2232,-0.09645 0.2232,0.86423 0.2232,0.241734 0.2232,0.0037 0.2232,0.589487 0.2232,0.201164 1.5624,3.848759 0.6696,2.78423 0.4464,2.48441 0.4464,3.73702 1.116,11.37799 0.2232,0.4854 0.2232,0.20579 0.2232,-0.10874 0.2232,0.36411 0.2232,-0.43423 0.2232,0.47514 0.2232,-0.28999 0.2232,-0.002 0.2232,0.50629 0.2232,-1.15452 0.2232,1.5978 0.2232,-1.92747 0.2232,1.67401 0.2232,-0.60379 0.2232,-1.25707 0.2232,3.13218 0.2232,-6.8268 0.2232,6.81554 0.2232,-2.38883 0.2232,-7.42295 0.2232,6.65061 0.2232,-3.90815 0.2232,0.72227 0.2232,-3.79581 0.2232,1.75237 0.2232,-2.25654 0.2232,-0.18443 0.2232,-2.82486 0.2232,-0.79922 0.2232,2.7746 0.2232,-3.89521 0.2232,0.29338 0.2232,1.36372 0.2232,-4.58222 0.2232,1.65138 0.2232,-3.18568 0.2232,3.1636 0.2232,-5.15167 0.2232,0.0873 0.2232,3.92704 0.2232,-4.97657 0.2232,-0.81014 0.2232,-2.19763 0.2232,4.6084 0.2232,-1.53962 0.2232,-4.081873 0.2232,4.713943 0.2232,-8.252348 0.2232,2.479276 0.2232,-3.080846 0.2232,5.342278 0.2232,-6.576096 0.2232,2.141385 0.2232,-1.038653 0.2232,5.373734 0.2232,-7.093683 0.2232,6.186863 0.2232,1.03323 0.2232,-8.844427 0.2232,-1.657643 0.2232,4.68836 0.2232,0.08424 0.2232,6.62547 0.2232,-3.415258 0.2232,-0.550646 0.2232,1.723351 0.2232,-0.659755 0.2232,0.06018 0.2232,2.457908 0.2232,-1.889324 0.2232,1.662184 0.2232,-4.060175 0.2232,5.133415 0.2232,-0.0237 0.2232,0.40606 0.2232,0.14118 0.2232,-0.0607 0.2232,0.60837 0.2232,1.29673 0.6696,1.85163 1.116,6.18085 1.116,10.05419 0.4464,1.16527 0.4464,0.37071 0.8928,0.20129 0.8928,-0.0105 0.2232,0.0491 0.2232,-0.0928 0.2232,0.11428 0.2232,-0.15055 0.2232,0.16402 0.2232,-0.11517 0.4464,0.0791 0.2232,-0.1769 0.2232,0.30453 0.2232,-0.41935 0.2232,0.44536 0.2232,-0.37262 0.4464,0.33623 0.2232,-0.64216 0.2232,1.07914 0.2232,-1.34553 0.2232,1.26207 0.2232,-0.86016 0.2232,0.0125 0.2232,1.1123 0.2232,-2.68038 0.2232,3.3612 0.2232,-3.84435 0.2232,3.09119 0.4464,-2.07215 0.2232,2.38481 0.2232,-6.00801 0.2232,6.82973 0.2232,-7.26083 0.2232,4.8403 0.2232,0.48268 0.2232,-1.21177 0.2232,3.0279 0.2232,0.84038 0.2232,-0.63624 0.2232,-1.72569 0.2232,-3.44241 0.2232,1.46976 0.2232,3.06421 0.2232,-8.57712 0.2232,8.80809 0.2232,-9.50006 0.2232,9.91985 0.2232,-11.3881 0.2232,11.83242 0.2232,-7.10913 0.2232,2.66911 0.2232,4.51103 0.2232,-0.40577 0.2232,-3.74841 0.2232,0.67397 0.2232,3.22518 0.2232,-3.55515 0.2232,-1.77714 0.2232,4.45906 0.4464,-6.07605 0.2232,5.2766 0.2232,-6.46874 0.2232,5.66221 0.2232,-3.47051 0.2232,0.45354 0.2232,5.24831 0.4464,-4.07204 0.2232,4.59771 0.2232,-2.26049 0.2232,-3.57605 0.2232,3.23046 0.2232,1.35117 0.2232,-8.62752 0.2232,9.07726 0.2232,-8.48396 0.2232,8.36848 0.2232,-8.5484 0.2232,9.52497 0.2232,-7.35602 0.2232,7.55137 0.2232,-4.64309 0.2232,0.69506 0.2232,3.37561 0.2232,-5.50546 0.4464,4.56951 0.2232,-7.6898 0.2232,8.57201 0.2232,-8.88152 0.2232,8.89904 0.2232,-7.87748 0.2232,8.1356 0.2232,-6.43794 0.2232,5.74116 0.4464,-4.27101 0.2232,4.77462 0.2232,-6.70408 0.2232,5.47674 0.2232,-2.93792 0.2232,-0.8145 0.2232,2.23806 0.2232,-3.53293 0.2232,4.48502 0.2232,-4.81041 0.2232,5.71963 0.2232,-5.75152 0.2232,6.98472 0.2232,-6.57694 0.2232,5.10324 0.2232,-2.63508 0.2232,-1.22729 0.2232,3.55029 0.2232,-6.07269 0.2232,7.18391 0.2232,-7.8899 0.2232,8.45985 0.2232,-8.06433 0.2232,8.19722 0.2232,-7.17002 0.2232,6.86971 0.2232,-5.83369 0.2232,3.57653 0.4464,-2.99433 0.2232,3.25339 0.2232,-5.15112 0.2232,6.1346 0.2232,-6.77574 0.2232,7.40011 0.2232,-7.1929 0.2232,7.4333 0.2232,-7.19708 0.2232,7.583 0.2232,-7.42563 0.2232,7.37483 0.2232,-6.76853 0.2232,5.61204 0.2232,-4.80147 0.2232,3.62256 0.2232,-3.18072 0.2232,2.86532 0.2232,-2.96454 0.2232,3.46494 0.2232,-3.65671 0.2232,4.15766 0.2232,-3.88415 0.2232,3.41888 0.2232,-2.87051 0.2232,1.19695 0.4464,-0.68307 0.2232,0.20012 0.2232,-0.27808 0.2232,-0.52328 0.2232,1.85004 0.2232,-3.0486 0.2232,5.58632 0.2232,-6.31824 0.2232,7.45375 0.2232,-7.18717 0.2232,7.14132 0.2232,-7.00016 0.2232,6.1845 0.2232,-6.26002 0.2232,5.66512 0.2232,-6.62851 0.2232,7.50497 0.2232,-9.08057 0.2232,9.0444 0.2232,-7.51101 0.2232,0.72772 0.2232,-7.24653 0.4464,2.41538 0.4464,-3.80543 0.2232,1.28702 0.2232,-2.93418 0.2232,1.82266 0.4464,-1.23827 0.2232,-7.76359 0.2232,5.75733 0.2232,-0.82466 0.2232,0.53993 0.2232,-5.02229 0.2232,3.90082 0.2232,-1.60766 0.2232,-0.0544 0.2232,-0.5494 0.2232,-1.73249 0.4464,-0.58507 0.2232,1.90567 0.2232,-3.13836 0.2232,1.88117 0.2232,-0.43399 0.2232,-1.58913 0.2232,2.06495 0.2232,0.0111 0.2232,-1.80449 0.2232,1.10463 0.2232,-0.39198 0.2232,-0.0966 0.2232,0.0373 0.2232,-1.02195 0.6696,0.92813 0.2232,-8.556318 0.2232,4.606006 0.2232,-0.515837 0.2232,4.177279 0.2232,-0.27648 0.4464,-0.139 0.6696,0.55646 0.2232,0.0922 0.2232,-0.17271 0.2232,-6.658471 0.2232,6.915141 0.2232,0.0111 0.2232,0.31974 0.4464,0.24004 1.5624,1.75891 0.8928,1.39129 0.6696,1.50021 0.6696,1.86917 0.6696,2.5252 1.7856,9.96079 0.4464,0.99489 0.4464,0.73522 0.4464,0.34204 0.4464,0.18702 0.8928,0.15947 0.6696,0.0218 2.6784,0.009 3.348,-0.0525 1.116,-0.014 0.4464,-0.0384 1.3392,-0.005 0.2232,-0.0617 0.4464,0.0681 7.812,-0.1789 2.9016,-0.0464 0.8928,-0.11259 0.6696,0.0612 3.1248,-0.0456 1.116,-0.0425 0.4464,-0.002 0.2232,-0.0904 0.2232,0.0798 0.2232,-0.0659 0.2232,0.0581 0.4464,-0.0189 1.7856,-0.0237 0.4464,-0.0171 2.232,-0.0529 3.7944,-0.0534 1.3392,-0.0426 1.3392,-0.0114 0.6696,-0.0309 2.0088,-0.0308 3.7944,-0.0583 5.58,-0.11274 3.7944,-0.0592 6.2496,-0.10669 5.8032,-0.10553 0.2232,-0.067 0.4464,0.0669 9.1512,-0.14458 0.8928,-0.007 0.4464,-0.0226 2.0088,0.003 0.2232,-0.11249 0.4464,0.0754 4.9104,-0.0621 0.2232,-0.0811 0.4464,0.0808 13.392,-0.15138 0.2232,-0.0875 0.4464,0.0813 1.5624,-0.025 4.464,-0.0307 0.2232,-0.1056 0.4464,0.0896 3.1248,-0.0149 0.2232,-0.0813 0.6696,0.0644 4.6872,-0.0308 5.3568,-0.0398 1.7856,-0.006 4.6872,-0.0373 1.3392,-0.0123 0.2232,-0.09 0.4464,0.10723 3.7944,-0.0278 25.8912,-0.0949 0.4464,0.008 0.2232,-0.093 0.4464,0.0818 0.4464,0.008 0.2232,-0.0954 0.4464,0.0876 1.3392,0.0115 4.6872,-0.0777 0.4464,0.07 0.8928,-0.0126 0.2232,-0.0711 0.4464,0.081 1.3392,-0.001 0.4464,-0.003 2.6784,-0.004 0.4464,-0.006 0.2232,-0.054 0.4464,0.0464 1.3392,0.004 1.5624,-0.006 1.3392,0.0114 0.2232,-0.059 0.6696,0.0589 2.232,-0.068 0.4464,0.0517 2.232,8.5e-4 0.4464,0.01 1.7856,0.006 1.116,-0.009 0.8928,-0.006 0.2232,-0.0637 0.4464,0.0908 1.3392,-0.0242 3.348,0.003 2.4552,-0.009 8.7048,-0.005 0.2232,-0.06 0.2232,0.063 0.2232,-0.078 0.2232,0.0794 0.2232,-0.0818 0.2232,0.0817 0.2232,-0.0607 0.4464,0.0462 1.5624,0.0161 0.6696,-0.0774 0.2232,0.0756 0.2232,-0.0911 0.2232,0.0914 0.2232,-0.098 0.2232,0.0987 0.2232,-0.10239 0.2232,0.10112 0.2232,-0.10399 0.2232,0.10324 0.2232,-0.10335 0.2232,0.10439 0.2232,-0.10354 0.2232,0.10334 0.2232,-0.10443 0.2232,0.10307 0.2232,-0.10383 0.2232,0.10433 0.2232,-0.10302 0.2232,0.10391 0.2232,-0.10314 0.2232,0.10208 0.2232,-0.10121 0.2232,0.1007 0.2232,-0.0954 0.2232,0.0966 0.2232,-0.0862 0.2232,0.0861 0.2232,-0.0706 0.4464,0.0258 0.8928,0.0693 1.3392,-0.0753 0.2232,0.0493 0.2232,-0.0774 0.2232,0.0752 0.2232,-0.0835 0.2232,0.0828 0.2232,-0.0753 0.2232,0.0746 0.2232,-0.06 0.4464,0.0179 0.8928,0.0388 2.4552,-0.002 0,0"
   style="fill:none;stroke:#ff0000;stroke-width:1.6;stroke-linecap:square;stroke-linejoin:round;stroke-miterlimit:10;stroke-opacity:1;stroke-dasharray:none;stroke-dashoffset:0"
   id="path678"
   inkscape:connector-curvature="0" /><path
   d="m 72,126.50826 446.4,0 0,0"
   style="fill:none;stroke:#000000;stroke-width:1.6;stroke-linecap:butt;stroke-linejoin:round;stroke-miterlimit:10;stroke-opacity:1;stroke-dasharray:12.8,3.2,1.6,3.2;stroke-dashoffset:0"
   id="path688"
   inkscape:connector-curvature="0" /><path
   d="m 72,77.081851 0.2232,-0.701854 0.2232,2.309064 0.2232,3.518198 0.2232,-2.484311 0.2232,-0.286555 0.2232,-9.155527 0.2232,9.536395 0.2232,1.609427 0.2232,-0.08207 0.2232,-8.213958 0.2232,5.778713 0.2232,-9.559901 0.2232,8.353782 0.2232,-7.261396 0.2232,7.975732 0.2232,-0.473291 0.2232,1.291614 0.4464,-7.739024 0.2232,0.652487 0.4464,-0.342461 0.2232,7.795723 0.4464,-6.800384 0.4464,6.120756 0.2232,-5.732139 0.2232,-2.508855 0.2232,1.137182 0.2232,-3.323021 0.2232,3.042199 0.2232,6.297422 0.2232,-0.227903 0.2232,-0.602083 0.2232,1.093505 0.2232,-7.656391 0.2232,-0.621924 0.4464,6.935614 0.2232,-5.467988 0.2232,2.329862 0.2232,-8.619622 0.2232,4.670523 0.2232,-4.509852 0.2232,10.250712 0.2232,-19.825826 0.2232,17.985352 0.2232,-8.333176 0.2232,4.199963 0.2232,1.195018 0.2232,7.062425 0.2232,-5.038776 0.2232,0.08958 0.2232,-3.44954 0.2232,8.416089 0.4464,-7.855213 0.2232,8.485338 0.2232,-12.59535 0.2232,11.335073 0.2232,0.722534 0.2232,-0.295628 0.2232,-6.178713 0.2232,-3.081518 0.2232,6.040534 0.2232,-3.615901 0.2232,7.713002 0.2232,-6.51513 0.2232,1.07167 0.2232,-2.359287 0.2232,7.175473 0.2232,-1.441923 0.2232,-4.028504 0.2232,6.257239 0.2232,-7.902448 0.2232,7.30466 0.2232,-0.04102 0.2232,-1.138284 0.2232,-14.453147 0.2232,14.071043 0.2232,1.996214 0.2232,-1.199366 0.2232,-9.736556 0.2232,10.978607 0.2232,-3.876337 0.2232,2.866767 0.2232,0.415007 0.2232,-7.48096 0.2232,0.262291 0.2232,0.913053 0.2232,3.278699 0.2232,0.08011 0.4464,2.570818 0.2232,0.200057 0.2232,-7.461043 0.2232,2.679516 0.2232,4.287438 0.2232,-10.049211 0.2232,6.282424 0.2232,-4.717695 0.2232,8.960915 0.2232,-2.262526 0.2232,-4.679661 0.2232,6.371006 0.2232,1.562899 0.2232,-0.0192 0.2232,-1.752356 0.2232,-6.586482 0.2232,5.975676 0.2232,1.616128 0.2232,-4.470619 0.2232,-2.080343 0.2232,4.06041 0.4464,2.426808 0.2232,-14.441377 0.2232,15.147394 0.2232,-7.757432 0.2232,-1.521928 0.2232,7.706691 0.2232,1.06036 0.2232,-0.33318 0.2232,-7.031894 0.2232,3.566337 0.2232,0.616543 0.2232,-10.5708 0.2232,13.441809 0.2232,0.471976 0.2232,-5.0424 0.2232,3.351406 0.2232,-2.732281 0.2232,4.520111 0.2232,0.0066 0.2232,-20.493912 0.2232,19.561888 0.2232,-3.552722 0.2232,-6.406668 0.2232,8.830399 0.2232,-21.943135 0.2232,17.017577 0.2232,3.53496 0.2232,0.903876 0.2232,-6.449226 0.2232,6.968247 0.2232,-2.709632 0.2232,-0.877173 0.2232,-2.5189 0.2232,10.133419 0.4464,-0.01772 0.2232,1.293732 0.2232,-0.895518 0.4464,1.233446 0.2232,-5.002492 0.2232,2.461755 0.2232,-0.648914 0.2232,3.606136 0.2232,-2.304292 0.2232,3.888468 0.2232,0.345988 0.2232,-0.34274 0.2232,2.225521 0.2232,-0.244447 0.2232,0.21614 0.2232,0.848718 0.4464,3.307916 0.4464,2.112695 0.4464,5.239661 0.4464,8.079316 0.4464,7.6014 0.4464,-2.80032 0.2232,-1.33982 0.2232,-0.0447 0.2232,-0.83917 0.2232,0.73259 0.2232,-1.5238 0.2232,0.13663 0.2232,-0.91488 0.2232,-0.38158 0.4464,-0.0934 0.2232,-0.49993 0.2232,-1.33165 0.2232,-0.0195 0.4464,-1.63606 0.2232,0.28877 0.2232,-0.84529 0.2232,0.37863 0.2232,-0.46854 0.2232,-0.72907 0.2232,-1.743528 0.2232,0.373875 0.2232,-0.282025 0.2232,-1.239361 0.2232,0.380956 0.2232,-1.819784 0.2232,0.204662 0.2232,-1.214398 0.2232,0.23574 0.2232,-1.512626 0.2232,1.199678 0.4464,-1.66238 0.2232,1.355966 0.4464,-1.634944 0.2232,0.07335 0.2232,-3.333165 0.4464,1.155944 0.2232,-2.716361 0.2232,2.202288 0.2232,-4.578126 0.2232,2.043927 0.2232,-1.828161 0.2232,0.66996 0.2232,1.996469 0.2232,0.321845 0.2232,-0.846223 0.2232,-1.549017 0.2232,1.017814 0.2232,-5.314626 0.2232,3.396401 0.2232,-1.599028 0.2232,-0.280053 0.2232,-4.744991 0.2232,7.564494 0.2232,-4.235209 0.2232,-7.146737 0.2232,8.557249 0.4464,-2.408533 0.2232,-0.480957 0.2232,3.655924 0.2232,-10.512359 0.2232,7.330311 0.2232,-0.03389 0.2232,-7.442392 0.2232,9.790844 0.2232,-7.155231 0.2232,5.920977 0.2232,-2.132173 0.2232,1.300987 0.2232,-2.869312 0.2232,3.293706 0.2232,0.686786 0.2232,-6.210851 0.2232,3.465485 0.2232,0.684656 0.4464,-1.389796 0.2232,-1.720616 0.2232,4.170569 0.6696,0.781212 0.2232,-6.320175 0.2232,3.29765 0.2232,0.549106 0.4464,0.328522 0.2232,1.616239 0.4464,-2.734205 0.2232,2.000061 0.2232,-1.603271 0.2232,2.849526 0.4464,-1.683853 0.2232,1.309017 0.2232,-1.762716 0.2232,1.794251 0.2232,-1.314155 0.4464,2.58654 0.2232,-2.067023 0.2232,1.185877 0.2232,-0.899445 0.2232,0.315709 0.4464,-1.1183 0.2232,2.405337 0.2232,-1.349836 0.2232,1.701726 0.2232,-3.783143 0.2232,3.114649 0.2232,-1.6531 0.2232,-0.546454 0.2232,3.177378 0.4464,-1.187743 0.2232,0.794451 0.2232,-1.093283 0.2232,1.918874 0.2232,-0.126573 0.2232,-2.150722 0.2232,0.418515 0.2232,2.077528 0.2232,0.2027 0.2232,-1.042685 0.2232,0.502322 0.2232,0.815806 0.2232,-1.478429 0.2232,0.191274 0.2232,1.323809 0.2232,0.545648 0.2232,-2.358259 0.2232,2.292008 0.2232,-1.010289 0.2232,-0.09512 0.2232,0.127249 0.2232,0.632016 0.2232,0.252952 0.2232,-0.104417 0.2232,0.235639 0.2232,0.449116 0.2232,-0.98969 0.2232,1.305146 0.2232,-2.15021 0.2232,2.731261 0.2232,-0.536772 0.4464,-0.320162 0.2232,1.665022 0.2232,-1.198519 0.2232,0.863833 0.2232,-0.835982 0.2232,0.832107 0.2232,-0.888978 0.2232,1.249935 0.2232,-0.542673 0.2232,1.653365 0.6696,-0.02178 0.2232,0.382952 0.2232,-0.452009 0.2232,1.039898 0.2232,-0.431875 0.2232,1.317969 0.4464,-0.520219 0.2232,0.797006 0.2232,-0.110854 0.4464,1.439575 0.2232,0.08664 0.2232,0.533205 0.4464,0.182959 0.2232,0.78949 0.2232,0.07701 0.8928,2.204978 0.2232,0.414922 1.3392,4.719579 0.4464,2.66662 0.4464,3.78894 0.4464,6.52759 0.6696,12.24328 0.2232,1.70965 0.4464,-3.52177 0.4464,3.53676 0.4464,-3.54948 0.2232,0.34898 0.2232,-2.64003 0.2232,-0.6059 0.2232,-1.41142 0.2232,0.45561 0.2232,-2.02451 0.2232,0.0567 0.2232,-1.01269 0.2232,0.50765 0.2232,-1.34939 0.2232,-0.27507 0.2232,0.0537 0.4464,-2.10443 0.2232,0.14955 0.2232,-1.23144 0.2232,0.27812 0.2232,-0.45191 0.2232,-1.72452 0.2232,0.73112 0.4464,-1.15182 0.2232,-1.91743 0.2232,0.8816 0.2232,-0.40989 0.2232,-1.29458 0.2232,-0.52973 0.2232,-1.6377 0.2232,-0.62381 0.2232,0.8918 0.2232,-0.91369 0.2232,0.55926 0.2232,-0.6132 0.2232,-1.86459 0.2232,0.66219 0.2232,-1.58615 0.2232,0.54929 0.2232,-0.10636 0.2232,-1.77863 0.2232,-3.266285 0.2232,-0.637459 0.2232,3.232064 0.2232,-4.273634 0.2232,1.898681 0.2232,-3.315758 0.4464,2.073834 0.2232,0.659542 0.2232,-0.771988 0.2232,-6.566892 0.2232,7.301359 0.2232,-2.524362 0.2232,0.56394 0.2232,-0.275906 0.4464,-5.939178 0.2232,-4.391058 0.4464,9.735091 0.4464,-7.677513 0.2232,5.602343 0.2232,-3.64042 0.2232,4.367975 0.2232,-1.637047 0.2232,1.71495 0.2232,-7.519514 0.2232,6.999858 0.2232,-1.000141 0.2232,-0.274408 0.2232,0.451812 0.4464,-4.599333 0.2232,0.520465 0.2232,-0.489225 0.2232,4.296983 0.2232,-3.478125 0.2232,0.66095 0.4464,3.477561 0.2232,-2.08065 0.2232,0.171314 0.2232,-0.422418 0.2232,1.354121 0.2232,0.654287 0.2232,-2.423057 0.2232,1.519192 0.2232,0.355392 0.2232,-0.704812 0.4464,1.217409 0.2232,0.341615 0.2232,-0.954295 0.2232,1.474291 0.2232,0.574065 0.2232,-0.645272 0.2232,1.453874 0.2232,-1.029363 0.2232,1.09748 0.6696,1.263403 0.2232,0.203087 0.2232,0.488111 0.2232,-0.158905 0.4464,1.34968 0.4464,1.223039 1.116,3.67394 0.6696,3.42989 0.4464,3.97149 0.4464,6.32556 0.4464,7.55542 0.2232,1.01778 0.2232,-1.98302 0.2232,1.39664 0.2232,2.33917 0.4464,-7.94468 0.2232,6.05793 0.2232,2.99279 0.2232,-1.43021 0.2232,0.99481 0.2232,-2.55575 0.2232,1.84286 0.2232,-2.84951 0.2232,3.36157 0.2232,-3.69863 0.2232,-10.9742 0.2232,5.74308 0.2232,-1.16102 0.2232,-4.98251 0.2232,3.41435 0.4464,-2.05715 0.2232,-1.66077 0.2232,-2.96099 0.4464,2.65311 0.6696,-2.13523 0.4464,-4.45096 0.2232,1.88605 0.2232,0.83792 0.2232,-1.37801 0.2232,0.0271 0.2232,-0.21495 0.2232,-6.46109 0.4464,-1.607704 0.2232,5.106864 0.2232,-6.058379 0.2232,1.587123 0.2232,-3.663965 0.2232,7.344111 0.2232,-7.710055 0.2232,1.850967 0.2232,4.656608 0.2232,-9.38818 0.2232,8.56697 0.4464,-10.555579 0.2232,9.228319 0.2232,-0.284887 0.2232,0.02793 0.2232,-9.789763 0.2232,8.774915 0.2232,-4.936752 0.2232,4.74429 0.2232,-8.484482 0.2232,8.081308 0.2232,-4.890576 0.2232,4.381969 0.2232,-4.985804 0.2232,5.221963 0.2232,-0.989922 0.2232,0.770917 0.2232,-4.348354 0.2232,3.676608 0.2232,-12.958523 0.2232,13.407994 0.2232,-2.536997 0.2232,2.607053 0.2232,-0.436632 0.2232,0.515034 0.2232,-0.728233 0.2232,-5.121071 0.2232,6.04032 0.2232,-0.140507 0.2232,-0.557745 0.2232,-1.992005 0.2232,2.506733 0.2232,0.404058 0.2232,0.85602 0.2232,0.06353 1.3392,2.447131 1.116,3.29355 0.8928,4.506 0.4464,3.75767 1.116,11.43499 0.2232,0.47435 0.2232,0.17733 0.2232,-0.13049 0.2232,0.35457 0.2232,-0.41549 0.2232,0.48862 0.2232,-0.26538 0.2232,-0.0227 0.2232,0.5079 0.2232,-1.16692 0.2232,1.59527 0.2232,-1.91547 0.2232,1.65869 0.2232,-0.54729 0.2232,-1.32437 0.2232,3.18285 0.2232,-6.76659 0.2232,6.72862 0.2232,-2.25222 0.2232,-7.73685 0.2232,7.07278 0.2232,-3.64289 0.2232,0.75566 0.2232,-3.4735 0.2232,1.59393 0.2232,-1.99864 0.2232,0.021 0.2232,-2.37966 0.2232,-0.67221 0.2232,2.1817 0.2232,-3.08082 0.2232,0.21486 0.2232,0.97549 0.2232,-3.76554 0.2232,0.84558 0.2232,-2.29334 0.2232,2.58607 0.2232,-3.62857 0.2232,-0.0214 0.2232,2.37445 0.2232,-3.27962 0.4464,-2.10587 0.2232,1.48495 0.2232,0.0711 0.2232,-2.73882 0.2232,1.74031 0.6696,-9.993953 0.2232,8.245723 0.2232,-12.000107 0.2232,1.984198 0.2232,5.927629 0.2232,0.77229 0.2232,-2.49132 0.2232,4.13982 0.2232,-2.31111 0.2232,-9.038283 0.2232,4.34892 0.2232,-4.027076 0.4464,10.905649 0.2232,-6.003203 0.2232,-0.494151 0.2232,5.193324 0.2232,-3.602185 0.2232,0.373609 0.2232,4.423466 0.2232,-3.456429 0.2232,1.686899 0.2232,-2.2178 0.2232,4.01565 0.2232,0.64231 0.2232,-0.3671 0.2232,0.91086 0.2232,-0.45699 0.8928,3.28304 0.2232,0.35312 1.116,6.34134 1.116,10.04286 0.4464,1.15726 0.4464,0.37119 0.8928,0.20305 0.8928,-0.0151 0.2232,0.0584 0.2232,-0.0954 0.2232,0.10992 0.2232,-0.14691 0.2232,0.16316 0.2232,-0.12404 0.4464,0.0911 0.2232,-0.17629 0.2232,0.30432 0.2232,-0.42144 0.2232,0.44508 0.2232,-0.37492 0.4464,0.33017 0.2232,-0.62553 0.2232,1.06514 0.2232,-1.347 0.2232,1.27233 0.2232,-0.87001 0.2232,0.0296 0.2232,1.08884 0.2232,-2.65115 0.2232,3.34836 0.2232,-3.84999 0.2232,3.11126 0.4464,-2.02504 0.2232,2.31356 0.2232,-5.82889 0.2232,6.66392 0.2232,-6.98538 0.2232,4.63278 0.2232,0.62138 0.2232,-1.52127 0.2232,3.10096 0.2232,0.81713 0.2232,-0.65045 0.2232,-1.75989 0.2232,-3.45473 0.2232,1.60353 0.2232,2.90996 0.2232,-8.74272 0.2232,9.09451 0.2232,-9.65475 0.2232,10.09961 0.2232,-11.83199 0.2232,12.29918 0.2232,-6.92874 0.2232,2.25137 0.2232,4.73815 0.2232,-0.3337 0.2232,-3.72987 0.2232,0.75459 0.2232,2.90336 0.2232,-3.75296 0.2232,-1.66632 0.2232,4.60264 0.4464,-5.84246 0.2232,5.01162 0.2232,-6.33183 0.2232,5.60827 0.2232,-3.28232 0.2232,0.14466 0.2232,5.43891 0.4464,-3.9695 0.2232,4.37475 0.4464,-5.96147 0.2232,3.3929 0.2232,1.33035 0.2232,-8.6722 0.2232,9.15335 0.2232,-8.71315 0.2232,8.62429 0.2232,-8.82255 0.2232,9.79358 0.2232,-7.41086 0.2232,7.57033 0.2232,-4.66619 0.2232,0.8186 0.2232,3.25411 0.2232,-5.64351 0.4464,4.6905 0.2232,-7.65767 0.2232,8.59933 0.2232,-9.07865 0.2232,9.10777 0.2232,-8.0253 0.2232,8.28266 0.2232,-6.55644 0.2232,5.86385 0.4464,-4.25383 0.2232,4.69934 0.2232,-6.79353 0.2232,5.61461 0.2232,-3.02132 0.2232,-0.67905 0.2232,2.12745 0.2232,-3.42916 0.2232,4.39186 0.2232,-4.71027 0.2232,5.62901 0.2232,-5.70655 0.2232,6.95121 0.2232,-6.67062 0.2232,5.21858 0.2232,-2.70635 0.2232,-1.11175 0.2232,3.46763 0.2232,-6.01488 0.2232,7.14428 0.2232,-7.90613 0.2232,8.47489 0.2232,-8.10434 0.2232,8.25227 0.2232,-7.25399 0.2232,6.9578 0.2232,-5.93185 0.2232,3.6963 0.4464,-3.00221 0.2232,3.21023 0.2232,-5.10847 0.2232,6.09672 0.2232,-6.75732 0.2232,7.39224 0.2232,-7.19602 0.2232,7.43632 0.2232,-7.21215 0.2232,7.60094 0.2232,-7.49415 0.2232,7.45097 0.2232,-6.84593 0.2232,5.70928 0.2232,-4.89395 0.2232,3.71872 0.2232,-3.27766 0.2232,2.97269 0.2232,-3.074 0.2232,3.55945 0.2232,-3.74273 0.2232,4.23831 0.2232,-3.9716 0.2232,3.50346 0.2232,-2.93077 0.2232,1.26626 0.4464,-0.6762 0.2232,0.13891 0.2232,-0.2165 0.2232,-0.59682 0.2232,1.91954 0.2232,-3.14535 0.2232,5.69039 0.2232,-6.45632 0.2232,7.57145 0.2232,-7.23238 0.2232,7.1676 0.2232,-7.05867 0.2232,6.25869 0.2232,-6.32782 0.2232,5.72952 0.2232,-6.70066 0.2232,7.59292 0.2232,-9.25288 0.2232,9.22996 0.2232,-7.59162 0.2232,0.89688 0.2232,-7.09766 0.4464,1.92002 0.4464,-3.58855 0.2232,1.12882 0.2232,-2.91497 0.2232,1.76541 0.4464,-1.22016 0.2232,-7.43345 0.2232,5.44119 0.2232,-0.67558 0.2232,0.48551 0.2232,-4.93255 0.2232,3.75917 0.2232,-1.52148 0.2232,-0.10871 0.2232,-0.5828 0.2232,-1.44234 0.4464,-0.67088 0.2232,1.79678 0.2232,-3.09026 0.2232,1.91307 0.2232,-0.55209 0.2232,-1.56476 0.2232,1.9443 0.2232,0.15233 0.2232,-1.84242 0.2232,1.2738 0.2232,-0.66242 0.2232,-0.0401 0.2232,0.13829 0.2232,-0.91766 0.2232,0.18031 0.2232,-0.10676 0.2232,0.59963 0.2232,-8.280284 0.2232,4.471439 0.2232,-0.488572 0.2232,4.019127 0.2232,-0.38245 0.2232,0.16273 0.2232,-0.0249 0.2232,0.34537 0.6696,0.13034 0.2232,-0.17915 0.2232,-6.46708 0.2232,6.8997 0.2232,-0.0395 0.4464,0.41917 0.2232,0.11203 2.0088,2.33299 1.7856,4.25757 0.6696,2.49669 1.116,6.72611 0.4464,2.33358 0.4464,1.49026 0.6696,1.12686 0.4464,0.35615 0.6696,0.24892 0.6696,0.0776 0.8928,0.0388 1.116,-0.0132 9.3744,-0.1246 0.2232,-0.0702 0.4464,0.0489 1.116,-0.002 1.116,-0.0434 2.232,-0.0504 0.2232,-0.0799 0.4464,0.0868 5.58,-0.13623 2.0088,-0.0346 2.6784,-0.1389 0.2232,0.0744 0.2232,-0.0625 0.4464,-0.002 0.4464,0.0589 1.116,-0.0419 8.7048,-0.15315 1.3392,-0.0415 57.5856,-0.89494 0.8928,-0.0161 1.7856,0.002 0.2232,-0.0863 0.4464,0.0802 1.5624,-0.0374 1.116,0.0218 1.116,-0.0324 2.232,-0.01 0.2232,-0.10099 0.4464,0.0819 1.7856,-0.0205 12.9456,-0.0885 0.4464,-0.0717 0.4464,0.0818 1.7856,-0.0466 0.6696,0.0272 3.1248,-0.0259 7.1424,-0.0438 0.2232,-0.0823 0.4464,0.0898 2.0088,-0.0164 0.6696,0.006 6.4728,-0.0365 0.4464,9.1e-4 0.2232,-0.0607 0.4464,0.0637 0.8928,0.0234 2.0088,-0.0896 0.4464,0.0535 1.5624,0.0186 1.5624,-0.0285 0.8928,0.02 1.5624,-0.0192 1.5624,0.003 2.4552,-0.006 0.4464,-0.006 0.2232,-0.086 0.4464,0.0877 0.4464,-0.005 0.2232,-0.0877 0.4464,0.0932 1.5624,0.001 0.4464,-0.006 6.4728,-0.0115 0.8928,0.004 0.4464,0.007 1.3392,-0.0584 0.6696,0.0548 2.232,-0.0204 1.3392,0.008 0.2232,-0.0958 0.4464,0.0909 1.7856,0.001 0.4464,-0.003 14.2848,-0.005 0.8928,-0.0117 0.6696,-0.0392 0.6696,0.0449 0.2232,-0.085 0.4464,0.0553 0.8928,0.0246 1.5624,3.2e-4 6.4728,-0.005 0.6696,-0.0658 0.2232,0.0708 0.2232,-0.0719 0.2232,0.0724 0.4464,0.002 2.4552,-0.0692 0.2232,0.0671 0.2232,-0.0822 0.2232,0.0822 0.2232,-0.0889 0.2232,0.0893 0.2232,-0.0932 0.2232,0.0917 0.2232,-0.0948 0.2232,0.0939 0.2232,-0.0942 0.2232,0.0952 0.2232,-0.0944 0.2232,0.0942 0.2232,-0.0953 0.2232,0.0939 0.2232,-0.0946 0.2232,0.0952 0.2232,-0.0937 0.2232,0.0948 0.2232,-0.0938 0.2232,0.0929 0.2232,-0.0918 0.2232,0.0915 0.2232,-0.086 0.2232,0.0876 0.2232,-0.0772 0.2232,0.0774 0.2232,-0.0624 0.4464,0.0246 0.8928,0.0652 1.3392,-0.0696 0.6696,0.0382 0.2232,-0.0743 0.2232,0.0731 0.2232,-0.0669 0.2232,0.0659 0.4464,-0.003 0.6696,-0.0136 2.232,0.0373 0.6696,-0.0161 0,0"
   style="fill:none;stroke:#0000ff;stroke-width:1.6;stroke-linecap:square;stroke-linejoin:round;stroke-miterlimit:10;stroke-opacity:1;stroke-dasharray:none;stroke-dashoffset:0"
   id="path698"
   inkscape:connector-curvature="0" /><path
   d="m 72,43.2 0,101.64706"
   style="fill:none;stroke:#000000;stroke-width:0.5;stroke-linecap:butt;stroke-linejoin:round;stroke-miterlimit:10;stroke-opacity:1;stroke-dasharray:1, 3;stroke-dashoffset:0"
   id="path718"
   inkscape:connector-curvature="0" /><path
   d="m 72,43.2 0,4"
   style="fill:none;stroke:#000000;stroke-width:0.5;stroke-linecap:butt;stroke-linejoin:round;stroke-miterlimit:10;stroke-opacity:1;stroke-dasharray:none"
   id="path720"
   inkscape:connector-curvature="0" /><path
   d="m 72,144.84706 0,-4"
   style="fill:none;stroke:#000000;stroke-width:0.5;stroke-linecap:butt;stroke-linejoin:round;stroke-miterlimit:10;stroke-opacity:1;stroke-dasharray:none"
   id="path722"
   inkscape:connector-curvature="0" /><text
   transform="scale(1,-1)"
   id="text724"
   style="font-size:16px;font-style:normal;font-variant:normal;font-weight:normal;font-stretch:normal;text-align:center;line-height:125%;writing-mode:lr-tb;text-anchor:middle;font-family:Sans;-inkscape-font-specification:Sans"
   sodipodi:linespacing="125%"
   x="72.008591"
   y="-25.591604"><tspan
     style="font-size:16px;font-style:normal;font-variant:normal;font-weight:normal;font-stretch:normal;text-align:center;line-height:125%;writing-mode:lr-tb;text-anchor:middle;fill:#000000;fill-opacity:1;fill-rule:nonzero;stroke:none;font-family:Sans;-inkscape-font-specification:Sans"
     x="72.008591"
     y="-25.591604"
     sodipodi:role="line"
     id="tspan726">0.0</tspan></text>


<path
   d="m 161.28,43.2 0,4"
   style="fill:none;stroke:#000000;stroke-width:0.5;stroke-linecap:butt;stroke-linejoin:round;stroke-miterlimit:10;stroke-opacity:1;stroke-dasharray:none"
   id="path738"
   inkscape:connector-curvature="0" /><path
   d="m 161.28,144.84706 0,-4"
   style="fill:none;stroke:#000000;stroke-width:0.5;stroke-linecap:butt;stroke-linejoin:round;stroke-miterlimit:10;stroke-opacity:1;stroke-dasharray:none"
   id="path740"
   inkscape:connector-curvature="0" /><text
   transform="scale(1,-1)"
   id="text742"
   style="font-size:16px;font-style:normal;font-variant:normal;font-weight:normal;font-stretch:normal;text-align:center;line-height:125%;writing-mode:lr-tb;text-anchor:middle;font-family:Sans;-inkscape-font-specification:Sans"
   sodipodi:linespacing="125%"
   x="161.58507"
   y="-25.591604"><tspan
     style="font-size:16px;font-style:normal;font-variant:normal;font-weight:normal;font-stretch:normal;text-align:center;line-height:125%;writing-mode:lr-tb;text-anchor:middle;fill:#000000;fill-opacity:1;fill-rule:nonzero;stroke:none;font-family:Sans;-inkscape-font-specification:Sans"
     x="161.58507"
     y="-25.591604"
     sodipodi:role="line"
     id="tspan744">0.2</tspan></text>


<path
   d="m 250.56,43.2 0,4"
   style="fill:none;stroke:#000000;stroke-width:0.5;stroke-linecap:butt;stroke-linejoin:round;stroke-miterlimit:10;stroke-opacity:1;stroke-dasharray:none"
   id="path756"
   inkscape:connector-curvature="0" /><path
   d="m 250.56,144.84706 0,-4"
   style="fill:none;stroke:#000000;stroke-width:0.5;stroke-linecap:butt;stroke-linejoin:round;stroke-miterlimit:10;stroke-opacity:1;stroke-dasharray:none"
   id="path758"
   inkscape:connector-curvature="0" /><text
   transform="scale(1,-1)"
   id="text760"
   style="font-size:16px;font-style:normal;font-variant:normal;font-weight:normal;font-stretch:normal;text-align:center;line-height:125%;writing-mode:lr-tb;text-anchor:middle;font-family:Sans;-inkscape-font-specification:Sans"
   sodipodi:linespacing="125%"
   x="250.47835"
   y="-25.591604"><tspan
     style="font-size:16px;font-style:normal;font-variant:normal;font-weight:normal;font-stretch:normal;text-align:center;line-height:125%;writing-mode:lr-tb;text-anchor:middle;fill:#000000;fill-opacity:1;fill-rule:nonzero;stroke:none;font-family:Sans;-inkscape-font-specification:Sans"
     x="250.47835"
     y="-25.591604"
     sodipodi:role="line"
     id="tspan762">0.4</tspan></text>


<path
   d="m 339.84,43.2 0,4"
   style="fill:none;stroke:#000000;stroke-width:0.5;stroke-linecap:butt;stroke-linejoin:round;stroke-miterlimit:10;stroke-opacity:1;stroke-dasharray:none"
   id="path774"
   inkscape:connector-curvature="0" /><path
   d="m 339.84,144.84706 0,-4"
   style="fill:none;stroke:#000000;stroke-width:0.5;stroke-linecap:butt;stroke-linejoin:round;stroke-miterlimit:10;stroke-opacity:1;stroke-dasharray:none"
   id="path776"
   inkscape:connector-curvature="0" /><text
   transform="scale(1,-1)"
   id="text778"
   style="font-size:16px;font-style:normal;font-variant:normal;font-weight:normal;font-stretch:normal;text-align:center;line-height:125%;writing-mode:lr-tb;text-anchor:middle;font-family:Sans;-inkscape-font-specification:Sans"
   sodipodi:linespacing="125%"
   x="339.81851"
   y="-25.591604"><tspan
     style="font-size:16px;font-style:normal;font-variant:normal;font-weight:normal;font-stretch:normal;text-align:center;line-height:125%;writing-mode:lr-tb;text-anchor:middle;fill:#000000;fill-opacity:1;fill-rule:nonzero;stroke:none;font-family:Sans;-inkscape-font-specification:Sans"
     x="339.81851"
     y="-25.591604"
     sodipodi:role="line"
     id="tspan780">0.6</tspan></text>


<path
   d="m 429.12,43.2 0,4"
   style="fill:none;stroke:#000000;stroke-width:0.5;stroke-linecap:butt;stroke-linejoin:round;stroke-miterlimit:10;stroke-opacity:1;stroke-dasharray:none"
   id="path792"
   inkscape:connector-curvature="0" /><path
   d="m 429.12,144.84706 0,-4"
   style="fill:none;stroke:#000000;stroke-width:0.5;stroke-linecap:butt;stroke-linejoin:round;stroke-miterlimit:10;stroke-opacity:1;stroke-dasharray:none"
   id="path794"
   inkscape:connector-curvature="0" /><text
   transform="scale(1,-1)"
   id="text796"
   style="font-size:16px;font-style:normal;font-variant:normal;font-weight:normal;font-stretch:normal;text-align:center;line-height:125%;writing-mode:lr-tb;text-anchor:middle;font-family:Sans;-inkscape-font-specification:Sans"
   sodipodi:linespacing="125%"
   x="429.14575"
   y="-25.591604"><tspan
     style="font-size:16px;font-style:normal;font-variant:normal;font-weight:normal;font-stretch:normal;text-align:center;line-height:125%;writing-mode:lr-tb;text-anchor:middle;fill:#000000;fill-opacity:1;fill-rule:nonzero;stroke:none;font-family:Sans;-inkscape-font-specification:Sans"
     x="429.14575"
     y="-25.591604"
     sodipodi:role="line"
     id="tspan798">0.8</tspan></text>


<path
   d="m 518.4,43.2 0,101.64706"
   style="fill:none;stroke:#000000;stroke-width:0.5;stroke-linecap:butt;stroke-linejoin:round;stroke-miterlimit:10;stroke-opacity:1;stroke-dasharray:1, 3;stroke-dashoffset:0"
   id="path808"
   inkscape:connector-curvature="0" /><path
   d="m 518.4,43.2 0,4"
   style="fill:none;stroke:#000000;stroke-width:0.5;stroke-linecap:butt;stroke-linejoin:round;stroke-miterlimit:10;stroke-opacity:1;stroke-dasharray:none"
   id="path810"
   inkscape:connector-curvature="0" /><path
   d="m 518.4,144.84706 0,-4"
   style="fill:none;stroke:#000000;stroke-width:0.5;stroke-linecap:butt;stroke-linejoin:round;stroke-miterlimit:10;stroke-opacity:1;stroke-dasharray:none"
   id="path812"
   inkscape:connector-curvature="0" /><text
   transform="scale(1,-1)"
   id="text814"
   style="font-size:16px;font-style:normal;font-variant:normal;font-weight:normal;font-stretch:normal;text-align:center;line-height:125%;writing-mode:lr-tb;text-anchor:middle;font-family:Sans;-inkscape-font-specification:Sans"
   sodipodi:linespacing="125%"
   x="518.02185"
   y="-25.591604"><tspan
     style="font-size:16px;font-style:normal;font-variant:normal;font-weight:normal;font-stretch:normal;text-align:center;line-height:125%;writing-mode:lr-tb;text-anchor:middle;fill:#000000;fill-opacity:1;fill-rule:nonzero;stroke:none;font-family:Sans;-inkscape-font-specification:Sans"
     x="518.02185"
     y="-25.591604"
     sodipodi:role="line"
     id="tspan816">1.0</tspan></text>


<text
   transform="scale(1,-1)"
   id="text818"
   x="295.72421"
   y="-8.2387295"
   style="font-size:16px;font-style:normal;font-variant:normal;font-weight:normal;font-stretch:normal;text-align:center;line-height:125%;writing-mode:lr-tb;text-anchor:middle;font-family:Sans;-inkscape-font-specification:Sans"
   sodipodi:linespacing="125%"><tspan
     style="font-size:16px;font-style:normal;font-variant:normal;font-weight:normal;font-stretch:normal;text-align:center;line-height:125%;writing-mode:lr-tb;text-anchor:middle;fill:#000000;fill-opacity:1;fill-rule:nonzero;stroke:none;font-family:Sans;-inkscape-font-specification:Sans"
     x="295.72421"
     y="-8.2387295"
     sodipodi:role="line"
     id="tspan820">Time [million years]</tspan></text>



<path
   d="m 72,43.2 446.4,0"
   style="fill:none;stroke:#000000;stroke-width:0.5;stroke-linecap:butt;stroke-linejoin:round;stroke-miterlimit:10;stroke-opacity:1;stroke-dasharray:1, 3;stroke-dashoffset:0"
   id="path834"
   inkscape:connector-curvature="0" /><path
   d="m 72,43.2 4,0"
   style="fill:none;stroke:#000000;stroke-width:0.5;stroke-linecap:butt;stroke-linejoin:round;stroke-miterlimit:10;stroke-opacity:1;stroke-dasharray:none"
   id="path836"
   inkscape:connector-curvature="0" /><path
   d="m 518.4,43.2 -4,0"
   style="fill:none;stroke:#000000;stroke-width:0.5;stroke-linecap:butt;stroke-linejoin:round;stroke-miterlimit:10;stroke-opacity:1;stroke-dasharray:none"
   id="path838"
   inkscape:connector-curvature="0" /><text
   id="text842"
   transform="scale(1,-1)"
   x="41.824463"
   y="-37.375782"
   style="font-size:16px;font-style:normal;font-variant:normal;font-weight:normal;font-stretch:normal;text-align:start;line-height:125%;writing-mode:lr-tb;text-anchor:start;font-family:Sans;-inkscape-font-specification:Sans"
   sodipodi:linespacing="125%"><tspan
     id="tspan844"
     sodipodi:role="line"
     y="-37.375782"
     x="41.824463 49.459229"
     style="font-size:16px;font-style:normal;font-variant:normal;font-weight:normal;font-stretch:normal;text-align:start;line-height:125%;writing-mode:lr-tb;text-anchor:start;fill:#000000;fill-opacity:1;fill-rule:nonzero;stroke:none;font-family:Sans;-inkscape-font-specification:Sans">10<tspan
   style="font-size:52.00042725%;baseline-shift:super"
   id="tspan5015">-7</tspan></tspan></text>

<path
   d="m 72,60.141176 4,0"
   style="fill:none;stroke:#000000;stroke-width:0.5;stroke-linecap:butt;stroke-linejoin:round;stroke-miterlimit:10;stroke-opacity:1;stroke-dasharray:none"
   id="path860"
   inkscape:connector-curvature="0" /><path
   d="m 518.4,60.141176 -4,0"
   style="fill:none;stroke:#000000;stroke-width:0.5;stroke-linecap:butt;stroke-linejoin:round;stroke-miterlimit:10;stroke-opacity:1;stroke-dasharray:none"
   id="path862"
   inkscape:connector-curvature="0" /><text
   id="text866"
   transform="scale(1,-1)"
   x="41.824463"
   y="-54.316963"
   style="font-size:16px;font-style:normal;font-variant:normal;font-weight:normal;font-stretch:normal;text-align:start;line-height:125%;writing-mode:lr-tb;text-anchor:start;font-family:Sans;-inkscape-font-specification:Sans"
   sodipodi:linespacing="125%"><tspan
     id="tspan868"
     sodipodi:role="line"
     y="-54.316963"
     x="41.824463 49.459229"
     style="font-size:16px;font-style:normal;font-variant:normal;font-weight:normal;font-stretch:normal;text-align:start;line-height:125%;writing-mode:lr-tb;text-anchor:start;fill:#000000;fill-opacity:1;fill-rule:nonzero;stroke:none;font-family:Sans;-inkscape-font-specification:Sans">10<tspan
   style="font-size:52.00042725%;baseline-shift:super"
   id="tspan5013">-6</tspan></tspan></text>

<path
   d="m 72,77.082353 4,0"
   style="fill:none;stroke:#000000;stroke-width:0.5;stroke-linecap:butt;stroke-linejoin:round;stroke-miterlimit:10;stroke-opacity:1;stroke-dasharray:none"
   id="path884"
   inkscape:connector-curvature="0" /><path
   d="m 518.4,77.082353 -4,0"
   style="fill:none;stroke:#000000;stroke-width:0.5;stroke-linecap:butt;stroke-linejoin:round;stroke-miterlimit:10;stroke-opacity:1;stroke-dasharray:none"
   id="path886"
   inkscape:connector-curvature="0" /><text
   id="text890"
   transform="scale(1,-1)"
   x="41.824463"
   y="-71.258133"
   style="font-size:16px;font-style:normal;font-variant:normal;font-weight:normal;font-stretch:normal;text-align:start;line-height:125%;writing-mode:lr-tb;text-anchor:start;font-family:Sans;-inkscape-font-specification:Sans"
   sodipodi:linespacing="125%"><tspan
     id="tspan892"
     sodipodi:role="line"
     y="-71.258133"
     x="41.824463 49.459229"
     style="font-size:16px;font-style:normal;font-variant:normal;font-weight:normal;font-stretch:normal;text-align:start;line-height:125%;writing-mode:lr-tb;text-anchor:start;fill:#000000;fill-opacity:1;fill-rule:nonzero;stroke:none;font-family:Sans;-inkscape-font-specification:Sans">10<tspan
   style="font-size:52.00042725%;baseline-shift:super"
   id="tspan5011">-5</tspan></tspan></text>

<path
   d="m 72,94.023529 4,0"
   style="fill:none;stroke:#000000;stroke-width:0.5;stroke-linecap:butt;stroke-linejoin:round;stroke-miterlimit:10;stroke-opacity:1;stroke-dasharray:none"
   id="path908"
   inkscape:connector-curvature="0" /><path
   d="m 518.4,94.023529 -4,0"
   style="fill:none;stroke:#000000;stroke-width:0.5;stroke-linecap:butt;stroke-linejoin:round;stroke-miterlimit:10;stroke-opacity:1;stroke-dasharray:none"
   id="path910"
   inkscape:connector-curvature="0" /><text
   id="text914"
   transform="scale(1,-1)"
   x="41.824463"
   y="-88.19931"
   style="font-size:16px;font-style:normal;font-variant:normal;font-weight:normal;font-stretch:normal;text-align:start;line-height:125%;writing-mode:lr-tb;text-anchor:start;font-family:Sans;-inkscape-font-specification:Sans"
   sodipodi:linespacing="125%"><tspan
     id="tspan916"
     sodipodi:role="line"
     y="-88.19931"
     x="41.824463 49.459229"
     style="font-size:16px;font-style:normal;font-variant:normal;font-weight:normal;font-stretch:normal;text-align:start;line-height:125%;writing-mode:lr-tb;text-anchor:start;fill:#000000;fill-opacity:1;fill-rule:nonzero;stroke:none;font-family:Sans;-inkscape-font-specification:Sans">10<tspan
   style="font-size:52.00042725%;baseline-shift:super"
   id="tspan5009">-4</tspan></tspan></text>

<path
   d="m 72,110.96471 4,0"
   style="fill:none;stroke:#000000;stroke-width:0.5;stroke-linecap:butt;stroke-linejoin:round;stroke-miterlimit:10;stroke-opacity:1;stroke-dasharray:none"
   id="path932"
   inkscape:connector-curvature="0" /><path
   d="m 518.4,110.96471 -4,0"
   style="fill:none;stroke:#000000;stroke-width:0.5;stroke-linecap:butt;stroke-linejoin:round;stroke-miterlimit:10;stroke-opacity:1;stroke-dasharray:none"
   id="path934"
   inkscape:connector-curvature="0" /><text
   id="text938"
   transform="scale(1,-1)"
   x="41.824463"
   y="-105.14049"
   style="font-size:16px;font-style:normal;font-variant:normal;font-weight:normal;font-stretch:normal;text-align:start;line-height:125%;writing-mode:lr-tb;text-anchor:start;font-family:Sans;-inkscape-font-specification:Sans"
   sodipodi:linespacing="125%"><tspan
     id="tspan940"
     sodipodi:role="line"
     y="-105.14049"
     x="41.824463 49.459229"
     style="font-size:16px;font-style:normal;font-variant:normal;font-weight:normal;font-stretch:normal;text-align:start;line-height:125%;writing-mode:lr-tb;text-anchor:start;fill:#000000;fill-opacity:1;fill-rule:nonzero;stroke:none;font-family:Sans;-inkscape-font-specification:Sans">10<tspan
   style="font-size:52.00042725%;baseline-shift:super"
   id="tspan5007">-3</tspan></tspan></text>

<path
   d="m 72,127.90588 4,0"
   style="fill:none;stroke:#000000;stroke-width:0.5;stroke-linecap:butt;stroke-linejoin:round;stroke-miterlimit:10;stroke-opacity:1;stroke-dasharray:none"
   id="path956"
   inkscape:connector-curvature="0" /><path
   d="m 518.4,127.90588 -4,0"
   style="fill:none;stroke:#000000;stroke-width:0.5;stroke-linecap:butt;stroke-linejoin:round;stroke-miterlimit:10;stroke-opacity:1;stroke-dasharray:none"
   id="path958"
   inkscape:connector-curvature="0" /><text
   id="text962"
   transform="scale(1,-1)"
   x="41.824463"
   y="-122.08167"
   style="font-size:16px;font-style:normal;font-variant:normal;font-weight:normal;font-stretch:normal;text-align:start;line-height:125%;writing-mode:lr-tb;text-anchor:start;font-family:Sans;-inkscape-font-specification:Sans"
   sodipodi:linespacing="125%"><tspan
     id="tspan964"
     sodipodi:role="line"
     y="-122.08167"
     x="41.824463 49.459229"
     style="font-size:16px;font-style:normal;font-variant:normal;font-weight:normal;font-stretch:normal;text-align:start;line-height:125%;writing-mode:lr-tb;text-anchor:start;fill:#000000;fill-opacity:1;fill-rule:nonzero;stroke:none;font-family:Sans;-inkscape-font-specification:Sans">10<tspan
   style="font-size:52.00042725%;baseline-shift:super"
   id="tspan5005">-2</tspan></tspan></text>

<path
   d="m 72,144.84706 446.4,0"
   style="fill:none;stroke:#000000;stroke-width:0.5;stroke-linecap:butt;stroke-linejoin:round;stroke-miterlimit:10;stroke-opacity:1;stroke-dasharray:1, 3;stroke-dashoffset:0"
   id="path978"
   inkscape:connector-curvature="0" /><path
   d="m 72,144.84706 4,0"
   style="fill:none;stroke:#000000;stroke-width:0.5;stroke-linecap:butt;stroke-linejoin:round;stroke-miterlimit:10;stroke-opacity:1;stroke-dasharray:none"
   id="path980"
   inkscape:connector-curvature="0" /><path
   d="m 518.4,144.84706 -4,0"
   style="fill:none;stroke:#000000;stroke-width:0.5;stroke-linecap:butt;stroke-linejoin:round;stroke-miterlimit:10;stroke-opacity:1;stroke-dasharray:none"
   id="path982"
   inkscape:connector-curvature="0" /><text
   id="text986"
   transform="scale(1,-1)"
   x="41.824463"
   y="-139.02284"
   style="font-size:16px;font-style:normal;font-variant:normal;font-weight:normal;font-stretch:normal;text-align:start;line-height:125%;writing-mode:lr-tb;text-anchor:start;font-family:Sans;-inkscape-font-specification:Sans"
   sodipodi:linespacing="125%"><tspan
     id="tspan988"
     sodipodi:role="line"
     y="-139.02284"
     x="41.824463 49.459229"
     style="font-size:16px;font-style:normal;font-variant:normal;font-weight:normal;font-stretch:normal;text-align:start;line-height:125%;writing-mode:lr-tb;text-anchor:start;fill:#000000;fill-opacity:1;fill-rule:nonzero;stroke:none;font-family:Sans;-inkscape-font-specification:Sans">10<tspan
   style="font-size:52.00042725%;baseline-shift:super"
   id="tspan5003">-1</tspan></tspan></text>

<path
   d="m 72,48.299802 2,0"
   style="fill:none;stroke:#000000;stroke-width:0.5;stroke-linecap:butt;stroke-linejoin:round;stroke-miterlimit:10;stroke-opacity:1;stroke-dasharray:none"
   id="path994"
   inkscape:connector-curvature="0" /><path
   d="m 518.4,48.299802 -2,0"
   style="fill:none;stroke:#000000;stroke-width:0.5;stroke-linecap:butt;stroke-linejoin:round;stroke-miterlimit:10;stroke-opacity:1;stroke-dasharray:none"
   id="path996"
   inkscape:connector-curvature="0" /><path
   d="m 72,51.282995 2,0"
   style="fill:none;stroke:#000000;stroke-width:0.5;stroke-linecap:butt;stroke-linejoin:round;stroke-miterlimit:10;stroke-opacity:1;stroke-dasharray:none"
   id="path998"
   inkscape:connector-curvature="0" /><path
   d="m 518.4,51.282995 -2,0"
   style="fill:none;stroke:#000000;stroke-width:0.5;stroke-linecap:butt;stroke-linejoin:round;stroke-miterlimit:10;stroke-opacity:1;stroke-dasharray:none"
   id="path1000"
   inkscape:connector-curvature="0" /><path
   d="m 72,53.399605 2,0"
   style="fill:none;stroke:#000000;stroke-width:0.5;stroke-linecap:butt;stroke-linejoin:round;stroke-miterlimit:10;stroke-opacity:1;stroke-dasharray:none"
   id="path1002"
   inkscape:connector-curvature="0" /><path
   d="m 518.4,53.399605 -2,0"
   style="fill:none;stroke:#000000;stroke-width:0.5;stroke-linecap:butt;stroke-linejoin:round;stroke-miterlimit:10;stroke-opacity:1;stroke-dasharray:none"
   id="path1004"
   inkscape:connector-curvature="0" /><path
   d="m 72,55.041374 2,0"
   style="fill:none;stroke:#000000;stroke-width:0.5;stroke-linecap:butt;stroke-linejoin:round;stroke-miterlimit:10;stroke-opacity:1;stroke-dasharray:none"
   id="path1006"
   inkscape:connector-curvature="0" /><path
   d="m 518.4,55.041374 -2,0"
   style="fill:none;stroke:#000000;stroke-width:0.5;stroke-linecap:butt;stroke-linejoin:round;stroke-miterlimit:10;stroke-opacity:1;stroke-dasharray:none"
   id="path1008"
   inkscape:connector-curvature="0" /><path
   d="m 72,56.382798 2,0"
   style="fill:none;stroke:#000000;stroke-width:0.5;stroke-linecap:butt;stroke-linejoin:round;stroke-miterlimit:10;stroke-opacity:1;stroke-dasharray:none"
   id="path1010"
   inkscape:connector-curvature="0" /><path
   d="m 518.4,56.382798 -2,0"
   style="fill:none;stroke:#000000;stroke-width:0.5;stroke-linecap:butt;stroke-linejoin:round;stroke-miterlimit:10;stroke-opacity:1;stroke-dasharray:none"
   id="path1012"
   inkscape:connector-curvature="0" /><path
   d="m 72,57.516955 2,0"
   style="fill:none;stroke:#000000;stroke-width:0.5;stroke-linecap:butt;stroke-linejoin:round;stroke-miterlimit:10;stroke-opacity:1;stroke-dasharray:none"
   id="path1014"
   inkscape:connector-curvature="0" /><path
   d="m 518.4,57.516955 -2,0"
   style="fill:none;stroke:#000000;stroke-width:0.5;stroke-linecap:butt;stroke-linejoin:round;stroke-miterlimit:10;stroke-opacity:1;stroke-dasharray:none"
   id="path1016"
   inkscape:connector-curvature="0" /><path
   d="m 72,58.499407 2,0"
   style="fill:none;stroke:#000000;stroke-width:0.5;stroke-linecap:butt;stroke-linejoin:round;stroke-miterlimit:10;stroke-opacity:1;stroke-dasharray:none"
   id="path1018"
   inkscape:connector-curvature="0" /><path
   d="m 518.4,58.499407 -2,0"
   style="fill:none;stroke:#000000;stroke-width:0.5;stroke-linecap:butt;stroke-linejoin:round;stroke-miterlimit:10;stroke-opacity:1;stroke-dasharray:none"
   id="path1020"
   inkscape:connector-curvature="0" /><path
   d="m 72,59.365991 2,0"
   style="fill:none;stroke:#000000;stroke-width:0.5;stroke-linecap:butt;stroke-linejoin:round;stroke-miterlimit:10;stroke-opacity:1;stroke-dasharray:none"
   id="path1022"
   inkscape:connector-curvature="0" /><path
   d="m 518.4,59.365991 -2,0"
   style="fill:none;stroke:#000000;stroke-width:0.5;stroke-linecap:butt;stroke-linejoin:round;stroke-miterlimit:10;stroke-opacity:1;stroke-dasharray:none"
   id="path1024"
   inkscape:connector-curvature="0" /><path
   d="m 72,65.240979 2,0"
   style="fill:none;stroke:#000000;stroke-width:0.5;stroke-linecap:butt;stroke-linejoin:round;stroke-miterlimit:10;stroke-opacity:1;stroke-dasharray:none"
   id="path1026"
   inkscape:connector-curvature="0" /><path
   d="m 518.4,65.240979 -2,0"
   style="fill:none;stroke:#000000;stroke-width:0.5;stroke-linecap:butt;stroke-linejoin:round;stroke-miterlimit:10;stroke-opacity:1;stroke-dasharray:none"
   id="path1028"
   inkscape:connector-curvature="0" /><path
   d="m 72,68.224172 2,0"
   style="fill:none;stroke:#000000;stroke-width:0.5;stroke-linecap:butt;stroke-linejoin:round;stroke-miterlimit:10;stroke-opacity:1;stroke-dasharray:none"
   id="path1030"
   inkscape:connector-curvature="0" /><path
   d="m 518.4,68.224172 -2,0"
   style="fill:none;stroke:#000000;stroke-width:0.5;stroke-linecap:butt;stroke-linejoin:round;stroke-miterlimit:10;stroke-opacity:1;stroke-dasharray:none"
   id="path1032"
   inkscape:connector-curvature="0" /><path
   d="m 72,70.340781 2,0"
   style="fill:none;stroke:#000000;stroke-width:0.5;stroke-linecap:butt;stroke-linejoin:round;stroke-miterlimit:10;stroke-opacity:1;stroke-dasharray:none"
   id="path1034"
   inkscape:connector-curvature="0" /><path
   d="m 518.4,70.340781 -2,0"
   style="fill:none;stroke:#000000;stroke-width:0.5;stroke-linecap:butt;stroke-linejoin:round;stroke-miterlimit:10;stroke-opacity:1;stroke-dasharray:none"
   id="path1036"
   inkscape:connector-curvature="0" /><path
   d="m 72,71.982551 2,0"
   style="fill:none;stroke:#000000;stroke-width:0.5;stroke-linecap:butt;stroke-linejoin:round;stroke-miterlimit:10;stroke-opacity:1;stroke-dasharray:none"
   id="path1038"
   inkscape:connector-curvature="0" /><path
   d="m 518.4,71.982551 -2,0"
   style="fill:none;stroke:#000000;stroke-width:0.5;stroke-linecap:butt;stroke-linejoin:round;stroke-miterlimit:10;stroke-opacity:1;stroke-dasharray:none"
   id="path1040"
   inkscape:connector-curvature="0" /><path
   d="m 72,73.323974 2,0"
   style="fill:none;stroke:#000000;stroke-width:0.5;stroke-linecap:butt;stroke-linejoin:round;stroke-miterlimit:10;stroke-opacity:1;stroke-dasharray:none"
   id="path1042"
   inkscape:connector-curvature="0" /><path
   d="m 518.4,73.323974 -2,0"
   style="fill:none;stroke:#000000;stroke-width:0.5;stroke-linecap:butt;stroke-linejoin:round;stroke-miterlimit:10;stroke-opacity:1;stroke-dasharray:none"
   id="path1044"
   inkscape:connector-curvature="0" /><path
   d="m 72,74.458132 2,0"
   style="fill:none;stroke:#000000;stroke-width:0.5;stroke-linecap:butt;stroke-linejoin:round;stroke-miterlimit:10;stroke-opacity:1;stroke-dasharray:none"
   id="path1046"
   inkscape:connector-curvature="0" /><path
   d="m 518.4,74.458132 -2,0"
   style="fill:none;stroke:#000000;stroke-width:0.5;stroke-linecap:butt;stroke-linejoin:round;stroke-miterlimit:10;stroke-opacity:1;stroke-dasharray:none"
   id="path1048"
   inkscape:connector-curvature="0" /><path
   d="m 72,75.440583 2,0"
   style="fill:none;stroke:#000000;stroke-width:0.5;stroke-linecap:butt;stroke-linejoin:round;stroke-miterlimit:10;stroke-opacity:1;stroke-dasharray:none"
   id="path1050"
   inkscape:connector-curvature="0" /><path
   d="m 518.4,75.440583 -2,0"
   style="fill:none;stroke:#000000;stroke-width:0.5;stroke-linecap:butt;stroke-linejoin:round;stroke-miterlimit:10;stroke-opacity:1;stroke-dasharray:none"
   id="path1052"
   inkscape:connector-curvature="0" /><path
   d="m 72,76.307167 2,0"
   style="fill:none;stroke:#000000;stroke-width:0.5;stroke-linecap:butt;stroke-linejoin:round;stroke-miterlimit:10;stroke-opacity:1;stroke-dasharray:none"
   id="path1054"
   inkscape:connector-curvature="0" /><path
   d="m 518.4,76.307167 -2,0"
   style="fill:none;stroke:#000000;stroke-width:0.5;stroke-linecap:butt;stroke-linejoin:round;stroke-miterlimit:10;stroke-opacity:1;stroke-dasharray:none"
   id="path1056"
   inkscape:connector-curvature="0" /><path
   d="m 72,82.182155 2,0"
   style="fill:none;stroke:#000000;stroke-width:0.5;stroke-linecap:butt;stroke-linejoin:round;stroke-miterlimit:10;stroke-opacity:1;stroke-dasharray:none"
   id="path1058"
   inkscape:connector-curvature="0" /><path
   d="m 518.4,82.182155 -2,0"
   style="fill:none;stroke:#000000;stroke-width:0.5;stroke-linecap:butt;stroke-linejoin:round;stroke-miterlimit:10;stroke-opacity:1;stroke-dasharray:none"
   id="path1060"
   inkscape:connector-curvature="0" /><path
   d="m 72,85.165348 2,0"
   style="fill:none;stroke:#000000;stroke-width:0.5;stroke-linecap:butt;stroke-linejoin:round;stroke-miterlimit:10;stroke-opacity:1;stroke-dasharray:none"
   id="path1062"
   inkscape:connector-curvature="0" /><path
   d="m 518.4,85.165348 -2,0"
   style="fill:none;stroke:#000000;stroke-width:0.5;stroke-linecap:butt;stroke-linejoin:round;stroke-miterlimit:10;stroke-opacity:1;stroke-dasharray:none"
   id="path1064"
   inkscape:connector-curvature="0" /><path
   d="m 72,87.281958 2,0"
   style="fill:none;stroke:#000000;stroke-width:0.5;stroke-linecap:butt;stroke-linejoin:round;stroke-miterlimit:10;stroke-opacity:1;stroke-dasharray:none"
   id="path1066"
   inkscape:connector-curvature="0" /><path
   d="m 518.4,87.281958 -2,0"
   style="fill:none;stroke:#000000;stroke-width:0.5;stroke-linecap:butt;stroke-linejoin:round;stroke-miterlimit:10;stroke-opacity:1;stroke-dasharray:none"
   id="path1068"
   inkscape:connector-curvature="0" /><path
   d="m 72,88.923727 2,0"
   style="fill:none;stroke:#000000;stroke-width:0.5;stroke-linecap:butt;stroke-linejoin:round;stroke-miterlimit:10;stroke-opacity:1;stroke-dasharray:none"
   id="path1070"
   inkscape:connector-curvature="0" /><path
   d="m 518.4,88.923727 -2,0"
   style="fill:none;stroke:#000000;stroke-width:0.5;stroke-linecap:butt;stroke-linejoin:round;stroke-miterlimit:10;stroke-opacity:1;stroke-dasharray:none"
   id="path1072"
   inkscape:connector-curvature="0" /><path
   d="m 72,90.265151 2,0"
   style="fill:none;stroke:#000000;stroke-width:0.5;stroke-linecap:butt;stroke-linejoin:round;stroke-miterlimit:10;stroke-opacity:1;stroke-dasharray:none"
   id="path1074"
   inkscape:connector-curvature="0" /><path
   d="m 518.4,90.265151 -2,0"
   style="fill:none;stroke:#000000;stroke-width:0.5;stroke-linecap:butt;stroke-linejoin:round;stroke-miterlimit:10;stroke-opacity:1;stroke-dasharray:none"
   id="path1076"
   inkscape:connector-curvature="0" /><path
   d="m 72,91.399308 2,0"
   style="fill:none;stroke:#000000;stroke-width:0.5;stroke-linecap:butt;stroke-linejoin:round;stroke-miterlimit:10;stroke-opacity:1;stroke-dasharray:none"
   id="path1078"
   inkscape:connector-curvature="0" /><path
   d="m 518.4,91.399308 -2,0"
   style="fill:none;stroke:#000000;stroke-width:0.5;stroke-linecap:butt;stroke-linejoin:round;stroke-miterlimit:10;stroke-opacity:1;stroke-dasharray:none"
   id="path1080"
   inkscape:connector-curvature="0" /><path
   d="m 72,92.38176 2,0"
   style="fill:none;stroke:#000000;stroke-width:0.5;stroke-linecap:butt;stroke-linejoin:round;stroke-miterlimit:10;stroke-opacity:1;stroke-dasharray:none"
   id="path1082"
   inkscape:connector-curvature="0" /><path
   d="m 518.4,92.38176 -2,0"
   style="fill:none;stroke:#000000;stroke-width:0.5;stroke-linecap:butt;stroke-linejoin:round;stroke-miterlimit:10;stroke-opacity:1;stroke-dasharray:none"
   id="path1084"
   inkscape:connector-curvature="0" /><path
   d="m 72,93.248344 2,0"
   style="fill:none;stroke:#000000;stroke-width:0.5;stroke-linecap:butt;stroke-linejoin:round;stroke-miterlimit:10;stroke-opacity:1;stroke-dasharray:none"
   id="path1086"
   inkscape:connector-curvature="0" /><path
   d="m 518.4,93.248344 -2,0"
   style="fill:none;stroke:#000000;stroke-width:0.5;stroke-linecap:butt;stroke-linejoin:round;stroke-miterlimit:10;stroke-opacity:1;stroke-dasharray:none"
   id="path1088"
   inkscape:connector-curvature="0" /><path
   d="m 72,99.123332 2,0"
   style="fill:none;stroke:#000000;stroke-width:0.5;stroke-linecap:butt;stroke-linejoin:round;stroke-miterlimit:10;stroke-opacity:1;stroke-dasharray:none"
   id="path1090"
   inkscape:connector-curvature="0" /><path
   d="m 518.4,99.123332 -2,0"
   style="fill:none;stroke:#000000;stroke-width:0.5;stroke-linecap:butt;stroke-linejoin:round;stroke-miterlimit:10;stroke-opacity:1;stroke-dasharray:none"
   id="path1092"
   inkscape:connector-curvature="0" /><path
   d="m 72,102.10652 2,0"
   style="fill:none;stroke:#000000;stroke-width:0.5;stroke-linecap:butt;stroke-linejoin:round;stroke-miterlimit:10;stroke-opacity:1;stroke-dasharray:none"
   id="path1094"
   inkscape:connector-curvature="0" /><path
   d="m 518.4,102.10652 -2,0"
   style="fill:none;stroke:#000000;stroke-width:0.5;stroke-linecap:butt;stroke-linejoin:round;stroke-miterlimit:10;stroke-opacity:1;stroke-dasharray:none"
   id="path1096"
   inkscape:connector-curvature="0" /><path
   d="m 72,104.22313 2,0"
   style="fill:none;stroke:#000000;stroke-width:0.5;stroke-linecap:butt;stroke-linejoin:round;stroke-miterlimit:10;stroke-opacity:1;stroke-dasharray:none"
   id="path1098"
   inkscape:connector-curvature="0" /><path
   d="m 518.4,104.22313 -2,0"
   style="fill:none;stroke:#000000;stroke-width:0.5;stroke-linecap:butt;stroke-linejoin:round;stroke-miterlimit:10;stroke-opacity:1;stroke-dasharray:none"
   id="path1100"
   inkscape:connector-curvature="0" /><path
   d="m 72,105.8649 2,0"
   style="fill:none;stroke:#000000;stroke-width:0.5;stroke-linecap:butt;stroke-linejoin:round;stroke-miterlimit:10;stroke-opacity:1;stroke-dasharray:none"
   id="path1102"
   inkscape:connector-curvature="0" /><path
   d="m 518.4,105.8649 -2,0"
   style="fill:none;stroke:#000000;stroke-width:0.5;stroke-linecap:butt;stroke-linejoin:round;stroke-miterlimit:10;stroke-opacity:1;stroke-dasharray:none"
   id="path1104"
   inkscape:connector-curvature="0" /><path
   d="m 72,107.20633 2,0"
   style="fill:none;stroke:#000000;stroke-width:0.5;stroke-linecap:butt;stroke-linejoin:round;stroke-miterlimit:10;stroke-opacity:1;stroke-dasharray:none"
   id="path1106"
   inkscape:connector-curvature="0" /><path
   d="m 518.4,107.20633 -2,0"
   style="fill:none;stroke:#000000;stroke-width:0.5;stroke-linecap:butt;stroke-linejoin:round;stroke-miterlimit:10;stroke-opacity:1;stroke-dasharray:none"
   id="path1108"
   inkscape:connector-curvature="0" /><path
   d="m 72,108.34048 2,0"
   style="fill:none;stroke:#000000;stroke-width:0.5;stroke-linecap:butt;stroke-linejoin:round;stroke-miterlimit:10;stroke-opacity:1;stroke-dasharray:none"
   id="path1110"
   inkscape:connector-curvature="0" /><path
   d="m 518.4,108.34048 -2,0"
   style="fill:none;stroke:#000000;stroke-width:0.5;stroke-linecap:butt;stroke-linejoin:round;stroke-miterlimit:10;stroke-opacity:1;stroke-dasharray:none"
   id="path1112"
   inkscape:connector-curvature="0" /><path
   d="m 72,109.32294 2,0"
   style="fill:none;stroke:#000000;stroke-width:0.5;stroke-linecap:butt;stroke-linejoin:round;stroke-miterlimit:10;stroke-opacity:1;stroke-dasharray:none"
   id="path1114"
   inkscape:connector-curvature="0" /><path
   d="m 518.4,109.32294 -2,0"
   style="fill:none;stroke:#000000;stroke-width:0.5;stroke-linecap:butt;stroke-linejoin:round;stroke-miterlimit:10;stroke-opacity:1;stroke-dasharray:none"
   id="path1116"
   inkscape:connector-curvature="0" /><path
   d="m 72,110.18952 2,0"
   style="fill:none;stroke:#000000;stroke-width:0.5;stroke-linecap:butt;stroke-linejoin:round;stroke-miterlimit:10;stroke-opacity:1;stroke-dasharray:none"
   id="path1118"
   inkscape:connector-curvature="0" /><path
   d="m 518.4,110.18952 -2,0"
   style="fill:none;stroke:#000000;stroke-width:0.5;stroke-linecap:butt;stroke-linejoin:round;stroke-miterlimit:10;stroke-opacity:1;stroke-dasharray:none"
   id="path1120"
   inkscape:connector-curvature="0" /><path
   d="m 72,116.06451 2,0"
   style="fill:none;stroke:#000000;stroke-width:0.5;stroke-linecap:butt;stroke-linejoin:round;stroke-miterlimit:10;stroke-opacity:1;stroke-dasharray:none"
   id="path1122"
   inkscape:connector-curvature="0" /><path
   d="m 518.4,116.06451 -2,0"
   style="fill:none;stroke:#000000;stroke-width:0.5;stroke-linecap:butt;stroke-linejoin:round;stroke-miterlimit:10;stroke-opacity:1;stroke-dasharray:none"
   id="path1124"
   inkscape:connector-curvature="0" /><path
   d="m 72,119.0477 2,0"
   style="fill:none;stroke:#000000;stroke-width:0.5;stroke-linecap:butt;stroke-linejoin:round;stroke-miterlimit:10;stroke-opacity:1;stroke-dasharray:none"
   id="path1126"
   inkscape:connector-curvature="0" /><path
   d="m 518.4,119.0477 -2,0"
   style="fill:none;stroke:#000000;stroke-width:0.5;stroke-linecap:butt;stroke-linejoin:round;stroke-miterlimit:10;stroke-opacity:1;stroke-dasharray:none"
   id="path1128"
   inkscape:connector-curvature="0" /><path
   d="m 72,121.16431 2,0"
   style="fill:none;stroke:#000000;stroke-width:0.5;stroke-linecap:butt;stroke-linejoin:round;stroke-miterlimit:10;stroke-opacity:1;stroke-dasharray:none"
   id="path1130"
   inkscape:connector-curvature="0" /><path
   d="m 518.4,121.16431 -2,0"
   style="fill:none;stroke:#000000;stroke-width:0.5;stroke-linecap:butt;stroke-linejoin:round;stroke-miterlimit:10;stroke-opacity:1;stroke-dasharray:none"
   id="path1132"
   inkscape:connector-curvature="0" /><path
   d="m 72,122.80608 2,0"
   style="fill:none;stroke:#000000;stroke-width:0.5;stroke-linecap:butt;stroke-linejoin:round;stroke-miterlimit:10;stroke-opacity:1;stroke-dasharray:none"
   id="path1134"
   inkscape:connector-curvature="0" /><path
   d="m 518.4,122.80608 -2,0"
   style="fill:none;stroke:#000000;stroke-width:0.5;stroke-linecap:butt;stroke-linejoin:round;stroke-miterlimit:10;stroke-opacity:1;stroke-dasharray:none"
   id="path1136"
   inkscape:connector-curvature="0" /><path
   d="m 72,124.1475 2,0"
   style="fill:none;stroke:#000000;stroke-width:0.5;stroke-linecap:butt;stroke-linejoin:round;stroke-miterlimit:10;stroke-opacity:1;stroke-dasharray:none"
   id="path1138"
   inkscape:connector-curvature="0" /><path
   d="m 518.4,124.1475 -2,0"
   style="fill:none;stroke:#000000;stroke-width:0.5;stroke-linecap:butt;stroke-linejoin:round;stroke-miterlimit:10;stroke-opacity:1;stroke-dasharray:none"
   id="path1140"
   inkscape:connector-curvature="0" /><path
   d="m 72,125.28166 2,0"
   style="fill:none;stroke:#000000;stroke-width:0.5;stroke-linecap:butt;stroke-linejoin:round;stroke-miterlimit:10;stroke-opacity:1;stroke-dasharray:none"
   id="path1142"
   inkscape:connector-curvature="0" /><path
   d="m 518.4,125.28166 -2,0"
   style="fill:none;stroke:#000000;stroke-width:0.5;stroke-linecap:butt;stroke-linejoin:round;stroke-miterlimit:10;stroke-opacity:1;stroke-dasharray:none"
   id="path1144"
   inkscape:connector-curvature="0" /><path
   d="m 72,126.26411 2,0"
   style="fill:none;stroke:#000000;stroke-width:0.5;stroke-linecap:butt;stroke-linejoin:round;stroke-miterlimit:10;stroke-opacity:1;stroke-dasharray:none"
   id="path1146"
   inkscape:connector-curvature="0" /><path
   d="m 518.4,126.26411 -2,0"
   style="fill:none;stroke:#000000;stroke-width:0.5;stroke-linecap:butt;stroke-linejoin:round;stroke-miterlimit:10;stroke-opacity:1;stroke-dasharray:none"
   id="path1148"
   inkscape:connector-curvature="0" /><path
   d="m 72,127.1307 2,0"
   style="fill:none;stroke:#000000;stroke-width:0.5;stroke-linecap:butt;stroke-linejoin:round;stroke-miterlimit:10;stroke-opacity:1;stroke-dasharray:none"
   id="path1150"
   inkscape:connector-curvature="0" /><path
   d="m 518.4,127.1307 -2,0"
   style="fill:none;stroke:#000000;stroke-width:0.5;stroke-linecap:butt;stroke-linejoin:round;stroke-miterlimit:10;stroke-opacity:1;stroke-dasharray:none"
   id="path1152"
   inkscape:connector-curvature="0" /><path
   d="m 72,133.00568 2,0"
   style="fill:none;stroke:#000000;stroke-width:0.5;stroke-linecap:butt;stroke-linejoin:round;stroke-miterlimit:10;stroke-opacity:1;stroke-dasharray:none"
   id="path1154"
   inkscape:connector-curvature="0" /><path
   d="m 518.4,133.00568 -2,0"
   style="fill:none;stroke:#000000;stroke-width:0.5;stroke-linecap:butt;stroke-linejoin:round;stroke-miterlimit:10;stroke-opacity:1;stroke-dasharray:none"
   id="path1156"
   inkscape:connector-curvature="0" /><path
   d="m 72,135.98888 2,0"
   style="fill:none;stroke:#000000;stroke-width:0.5;stroke-linecap:butt;stroke-linejoin:round;stroke-miterlimit:10;stroke-opacity:1;stroke-dasharray:none"
   id="path1158"
   inkscape:connector-curvature="0" /><path
   d="m 518.4,135.98888 -2,0"
   style="fill:none;stroke:#000000;stroke-width:0.5;stroke-linecap:butt;stroke-linejoin:round;stroke-miterlimit:10;stroke-opacity:1;stroke-dasharray:none"
   id="path1160"
   inkscape:connector-curvature="0" /><path
   d="m 72,138.10549 2,0"
   style="fill:none;stroke:#000000;stroke-width:0.5;stroke-linecap:butt;stroke-linejoin:round;stroke-miterlimit:10;stroke-opacity:1;stroke-dasharray:none"
   id="path1162"
   inkscape:connector-curvature="0" /><path
   d="m 518.4,138.10549 -2,0"
   style="fill:none;stroke:#000000;stroke-width:0.5;stroke-linecap:butt;stroke-linejoin:round;stroke-miterlimit:10;stroke-opacity:1;stroke-dasharray:none"
   id="path1164"
   inkscape:connector-curvature="0" /><path
   d="m 72,139.74726 2,0"
   style="fill:none;stroke:#000000;stroke-width:0.5;stroke-linecap:butt;stroke-linejoin:round;stroke-miterlimit:10;stroke-opacity:1;stroke-dasharray:none"
   id="path1166"
   inkscape:connector-curvature="0" /><path
   d="m 518.4,139.74726 -2,0"
   style="fill:none;stroke:#000000;stroke-width:0.5;stroke-linecap:butt;stroke-linejoin:round;stroke-miterlimit:10;stroke-opacity:1;stroke-dasharray:none"
   id="path1168"
   inkscape:connector-curvature="0" /><path
   d="m 72,141.08868 2,0"
   style="fill:none;stroke:#000000;stroke-width:0.5;stroke-linecap:butt;stroke-linejoin:round;stroke-miterlimit:10;stroke-opacity:1;stroke-dasharray:none"
   id="path1170"
   inkscape:connector-curvature="0" /><path
   d="m 518.4,141.08868 -2,0"
   style="fill:none;stroke:#000000;stroke-width:0.5;stroke-linecap:butt;stroke-linejoin:round;stroke-miterlimit:10;stroke-opacity:1;stroke-dasharray:none"
   id="path1172"
   inkscape:connector-curvature="0" /><path
   d="m 72,142.22284 2,0"
   style="fill:none;stroke:#000000;stroke-width:0.5;stroke-linecap:butt;stroke-linejoin:round;stroke-miterlimit:10;stroke-opacity:1;stroke-dasharray:none"
   id="path1174"
   inkscape:connector-curvature="0" /><path
   d="m 518.4,142.22284 -2,0"
   style="fill:none;stroke:#000000;stroke-width:0.5;stroke-linecap:butt;stroke-linejoin:round;stroke-miterlimit:10;stroke-opacity:1;stroke-dasharray:none"
   id="path1176"
   inkscape:connector-curvature="0" /><path
   d="m 72,143.20529 2,0"
   style="fill:none;stroke:#000000;stroke-width:0.5;stroke-linecap:butt;stroke-linejoin:round;stroke-miterlimit:10;stroke-opacity:1;stroke-dasharray:none"
   id="path1178"
   inkscape:connector-curvature="0" /><path
   d="m 518.4,143.20529 -2,0"
   style="fill:none;stroke:#000000;stroke-width:0.5;stroke-linecap:butt;stroke-linejoin:round;stroke-miterlimit:10;stroke-opacity:1;stroke-dasharray:none"
   id="path1180"
   inkscape:connector-curvature="0" /><path
   d="m 72,144.07187 2,0"
   style="fill:none;stroke:#000000;stroke-width:0.5;stroke-linecap:butt;stroke-linejoin:round;stroke-miterlimit:10;stroke-opacity:1;stroke-dasharray:none"
   id="path1182"
   inkscape:connector-curvature="0" /><path
   d="m 518.4,144.07187 -2,0"
   style="fill:none;stroke:#000000;stroke-width:0.5;stroke-linecap:butt;stroke-linejoin:round;stroke-miterlimit:10;stroke-opacity:1;stroke-dasharray:none"
   id="path1184"
   inkscape:connector-curvature="0" /><text
   transform="matrix(0,1,1,0,0,0)"
   id="text1186"
   style="font-size:16px;font-style:normal;font-variant:normal;font-weight:normal;font-stretch:normal;text-align:center;line-height:125%;writing-mode:lr-tb;text-anchor:middle;font-family:Sans;-inkscape-font-specification:Sans"
   sodipodi:linespacing="125%"
   x="93.800095"
   y="32.441223"><tspan
     style="font-size:16px;font-style:normal;font-variant:normal;font-weight:normal;font-stretch:normal;text-align:center;line-height:125%;writing-mode:lr-tb;text-anchor:middle;fill:#000000;fill-opacity:1;fill-rule:nonzero;stroke:none;font-family:Sans;-inkscape-font-specification:Sans"
     x="93.800095"
     y="32.441223"
     sodipodi:role="line"
     id="tspan1188">eccentricity</tspan></text>


<path
   d="m 72,144.84706 446.4,0"
   style="fill:none;stroke:#000000;stroke-width:1;stroke-linecap:square;stroke-linejoin:round;stroke-miterlimit:10;stroke-opacity:1;stroke-dasharray:none"
   id="path1190"
   inkscape:connector-curvature="0" /><path
   d="m 518.4,43.2 0,101.64706"
   style="fill:none;stroke:#000000;stroke-width:1;stroke-linecap:square;stroke-linejoin:round;stroke-miterlimit:10;stroke-opacity:1;stroke-dasharray:none"
   id="path1192"
   inkscape:connector-curvature="0" /><path
   d="m 72,43.2 446.4,0"
   style="fill:none;stroke:#000000;stroke-width:1;stroke-linecap:square;stroke-linejoin:round;stroke-miterlimit:10;stroke-opacity:1;stroke-dasharray:none"
   id="path1194"
   inkscape:connector-curvature="0" /><path
   d="m 72,43.2 0,101.64706"
   style="fill:none;stroke:#000000;stroke-width:1;stroke-linecap:square;stroke-linejoin:round;stroke-miterlimit:10;stroke-opacity:1;stroke-dasharray:none"
   id="path1196"
   inkscape:connector-curvature="0" /><path
   d="m 388.45632,57.007465 117.8713,0 0,26.717906 -117.8713,0 z"
   style="fill:#ffffff;fill-opacity:1;fill-rule:nonzero;stroke:#000000;stroke-width:1;stroke-linecap:square;stroke-linejoin:round;stroke-miterlimit:10;stroke-opacity:1;stroke-dasharray:none"
   id="path6221"
   clip-path="none"
   inkscape:connector-curvature="0"
   sodipodi:nodetypes="ccccc"
   mask="none" /><path
   d="m 398.53632,71.104339 20.16,0"
   style="fill:none;stroke:#000000;stroke-width:1.6;stroke-linecap:butt;stroke-linejoin:round;stroke-miterlimit:10;stroke-opacity:1;stroke-dasharray:12.8,3.2,1.6,3.2;stroke-dashoffset:0"
   id="path6241"
   clip-path="none"
   inkscape:connector-curvature="0"
   mask="none" /><text
   transform="scale(1,-1)"
   id="text6243"
   clip-path="none"
   x="434.53638"
   y="-66.064339"
   mask="none"
   style="font-size:16px;font-style:normal;font-variant:normal;font-weight:normal;font-stretch:normal;text-align:start;line-height:125%;writing-mode:lr-tb;text-anchor:start;font-family:Sans;-inkscape-font-specification:Sans"
   sodipodi:linespacing="125%"><tspan
     style="font-size:16px;font-style:normal;font-variant:normal;font-weight:normal;font-stretch:normal;text-align:start;line-height:125%;writing-mode:lr-tb;text-anchor:start;fill:#000000;fill-opacity:1;fill-rule:nonzero;stroke:none;font-family:Sans;-inkscape-font-specification:Sans"
     x="434.53638"
     y="-66.064339"
     sodipodi:role="line"
     id="tspan6245">e=x<tspan
   style="font-size:52.00042725%;baseline-shift:sub"
   id="tspan5017">s</tspan></tspan></text>

</g></svg>