<?xml version="1.0" encoding="UTF-8" standalone="no"?>
<!-- Created with Inkscape (http://www.inkscape.org/) -->

<svg xmlns:dc="http://purl.org/dc/elements/1.1/" xmlns:cc="http://creativecommons.org/ns#" xmlns:rdf="http://www.w3.org/1999/02/22-rdf-syntax-ns#" xmlns:svg="http://www.w3.org/2000/svg" xmlns="http://www.w3.org/2000/svg" xmlns:sodipodi="http://sodipodi.sourceforge.net/DTD/sodipodi-0.dtd" xmlns:inkscape="http://www.inkscape.org/namespaces/inkscape" id="svg2" version="1.1" inkscape:version="0.48.3.1 r9886" width="665.6" height="490.1" xml:space="preserve" sodipodi:docname="fiducial_temperature_profile.svg"><metadata id="metadata8"><rdf:RDF><cc:Work rdf:about=""><dc:format>image/svg+xml</dc:format><dc:type rdf:resource="http://purl.org/dc/dcmitype/StillImage" /><dc:title></dc:title></cc:Work></rdf:RDF></metadata><defs id="defs6" /><sodipodi:namedview pagecolor="#ffffff" bordercolor="#666666" borderopacity="1" objecttolerance="10" gridtolerance="10" guidetolerance="10" inkscape:pageopacity="0" inkscape:pageshadow="2" inkscape:window-width="1615" inkscape:window-height="1026" id="namedview4" showgrid="false" inkscape:zoom="1.236" inkscape:cx="332.3" inkscape:cy="262.3" inkscape:window-x="65" inkscape:window-y="24" inkscape:window-maximized="1" inkscape:current-layer="g10" fit-margin-top="0" fit-margin-left="0" fit-margin-right="0" fit-margin-bottom="0" /><g id="g10" inkscape:groupmode="layer" inkscape:label="fiducial_temperature_profile" transform="matrix(1.25,0,0,-1.25,0.3115,493.6)"><path d="m 72,43.2 446.4,0 0,345.6 -446.4,0 0,-345.6 z" style="fill:#ffffff;fill-opacity:1;fill-rule:nonzero;stroke:none" id="path14" clip-path="none" inkscape:connector-curvature="0" /><path d="m 216.1,43.2 133.6,0 0,345.6 -133.6,0 0,-345.6 z" style="fill:#dddddd;fill-opacity:1;fill-rule:nonzero;stroke:#dddddd;stroke-width:1;stroke-linecap:square;stroke-linejoin:round;stroke-miterlimit:10;stroke-opacity:1;stroke-dasharray:none" id="path24" inkscape:connector-curvature="0" clip-path="none" /><path d="m 253.3,43.2 4.8,0 0,345.6 -4.8,0 0,-345.6 z" style="fill:#aaaaaa;fill-opacity:1;fill-rule:nonzero;stroke:#aaaaaa;stroke-width:1;stroke-linecap:square;stroke-linejoin:round;stroke-miterlimit:10;stroke-opacity:1;stroke-dasharray:none" id="path34" inkscape:connector-curvature="0" clip-path="none" /><path d="m 72,123.1 3.9,167.6 3.79,0.3 3.68,-0.3 16.93,-2.9 9.3,-1.2 8.6,-1 5.4,-0.5 2.6,-1.4 5.1,-3.3 2.5,-1.9 9.5,-8.5 8.8,-7.7 6.2,-4.3 2,-1.4 4,-1.8 9.3,-3.9 1.8,-0.6 24.3,-5.3 1.5,-0.5 11.1,-5.6 7.8,-6 20.9,-14.1 4.2,-3.1 9,-7.5 27,-23.8 4.6,-4.4 5.2,-5.4 5,-5.7 4.2,-5.4 3.3,-5.1 3.9,-7.9 4.4,-9.5 3.7,-7 4.1,-7.1 4.1,-6.4 3.3,-5 4.3,-6 4.2,-5.6 6.1,-7.47 4.3,-5.06 5.6,-6.12 4.9,-5.02 5.2,-4.89 3.7,-3.26 4.1,-3.29 3.9,-2.87 3.4,-2.34 3.7,-2.25 5,-2.72 3.8,-1.78 4,-1.63 5.2,-1.82 4.4,-1.28 4.8,-1.17 5.5,-1.1 6,-0.98 6.4,-0.79 7.2,-0.67 8.3,-0.53 9.6,-0.4 11.4,-0.24 13.6,-0.1 16.8,0.17 21.4,0.45 4.6,0.12 0,0" style="fill:none;stroke:#0000ff;stroke-width:1;stroke-linecap:square;stroke-linejoin:round;stroke-miterlimit:10;stroke-opacity:1;stroke-dasharray:none" id="path44" inkscape:connector-curvature="0" clip-path="none" /><path d="m 72,264.3 3.9,27.4 3.79,0 10.74,-0.7 16.17,-2.6 8.7,-1 13.5,-1.5 2.5,-0.5 2.5,-1.4 4.8,-3.4 9.2,-6.8 6.4,-4.4 6.1,-3.8 4,-2.3 3.8,-2 5.5,-2.6 5.3,-2.2 8.4,-3 7.9,-2.7 4.5,-1.4 2.9,-1.2 2.9,-1.5 2.8,-1.7 4,-3 6.6,-5 16.6,-13.3 15.8,-13 4.9,-4.2 3.7,-3.2 17.3,-13.9 17.4,-13.7 14.1,-10.8 12.1,-9 11.1,-8 10.2,-7.1 10.3,-6.9 10.4,-6.7 10.5,-6.5 10.3,-6.2 10.3,-5.8 10.1,-5.5 9.9,-5.19 9.8,-4.83 9.5,-4.49 9.3,-4.15 9.4,-3.91 9.5,-3.73 9.7,-3.6 11.3,-3.91 26.4,-9.04 5.7,-2.27 3.9,-1.75 0,0" style="fill:none;stroke:#008000;stroke-width:1;stroke-linecap:square;stroke-linejoin:round;stroke-miterlimit:10;stroke-opacity:1;stroke-dasharray:none" id="path54" inkscape:connector-curvature="0" clip-path="none" /><path d="m 72,264.3 3.9,27.4 3.79,0 10.74,-0.7 16.17,-2.6 8.7,-1 13.5,-1.5 2.5,-0.5 2.5,-1.4 4.8,-3.4 9.2,-6.8 6.4,-4.4 6.1,-3.8 4,-2.3 3.8,-2 5.5,-2.6 5.3,-2.2 8.4,-3 7.9,-2.7 4.5,-1.4 2.9,-1.2 2.9,-1.5 2.8,-1.7 4,-3 2.7,-2 1.3,-4.2 3.8,-2.9 20.9,-14.1 4.2,-3.1 9,-7.5 27,-23.8 4.6,-4.4 5.2,-5.4 5,-5.7 4.2,-5.4 3.3,-5.1 3.9,-7.9 4.4,-9.5 3.7,-7 4.1,-7.1 4.1,-6.4 3.3,-5 4.3,-6 4.2,-5.6 6.1,-7.47 2.4,-2.87 0.5,5.8 0.5,7.34 0.9,9.3 1,6.2 0.9,4.8 1.4,5.4 0.9,3 11.1,-7.2 14.4,-8.9 10.5,-6.2 10.4,-5.9 10.2,-5.5 8.3,-4.24 6.3,-3.11 14.3,-6.72 10.5,-4.58 7.7,-3.15 9.3,-3.64 12.8,-4.63 31.2,-10.69 5.3,-2.03 5,-2.15 1,-0.43 0,0" style="fill:none;stroke:#ff0000;stroke-width:1;stroke-linecap:square;stroke-linejoin:round;stroke-miterlimit:10;stroke-opacity:1;stroke-dasharray:none" id="path64" inkscape:connector-curvature="0" clip-path="none" /><path d="m 72,264.3 3.9,27.4 3.79,0 10.74,-0.7 16.17,-2.6 8.7,-1 13.5,-1.5 2.5,-0.5 2.5,-1.4 4.8,-3.4 9.2,-6.8 6.4,-4.4 6.1,-3.8 4,-2.3 3.8,-2 5.5,-2.6 5.3,-2.2 8.4,-3 7.9,-2.7 4.5,-1.4 2.9,-1.2 2.9,-1.5 2.8,-1.7 4,-3 6.6,-5 16.6,-13.3 15.8,-13 4.9,-4.2 3.7,-3.2 17.3,-13.9 17.4,-13.7 14.1,-10.8 12.1,-9 11.1,-8 10.2,-7.1 10.3,-6.9 10.4,-6.7 10.5,-6.5 10.3,-6.2 10.3,-5.8 10.1,-5.5 9.9,-5.19 9.8,-4.83 9.5,-4.49 9.3,-4.15 9.4,-3.91 9.5,-3.73 9.7,-3.6 11.3,-3.91 26.4,-9.04 5.7,-2.27 3.9,-1.75 0,0" style="fill:none;stroke:#00bfbf;stroke-width:1;stroke-linecap:square;stroke-linejoin:round;stroke-miterlimit:10;stroke-opacity:1;stroke-dasharray:none" id="path74" inkscape:connector-curvature="0" clip-path="none" /><path d="m 72,43.2 0,345.6" style="fill:none;stroke:#222222;stroke-width:0.5;stroke-linecap:square;stroke-linejoin:round;stroke-miterlimit:10;stroke-opacity:1;stroke-dasharray:none" id="path84" inkscape:connector-curvature="0" clip-path="none" /><path d="m 72,43.2 0,4" style="fill:none;stroke:#000000;stroke-width:0.5;stroke-linecap:butt;stroke-linejoin:round;stroke-miterlimit:10;stroke-opacity:1;stroke-dasharray:none" id="path86" clip-path="none" inkscape:connector-curvature="0" /><path d="m 72,388.8 0,-4" style="fill:none;stroke:#000000;stroke-width:0.5;stroke-linecap:butt;stroke-linejoin:round;stroke-miterlimit:10;stroke-opacity:1;stroke-dasharray:none" id="path88" clip-path="none" inkscape:connector-curvature="0" /><text transform="scale(1,-1)" id="text90" clip-path="none" style="font-size:16px;font-style:normal;font-variant:normal;font-weight:normal;font-stretch:normal;text-align:center;text-anchor:middle;font-family:Sans;-inkscape-font-specification:Sans" x="72.214844" y="-22.967966"><tspan style="font-size:16px;font-style:normal;font-variant:normal;font-weight:normal;font-stretch:normal;text-align:center;writing-mode:lr-tb;text-anchor:middle;fill:#000000;fill-opacity:1;fill-rule:nonzero;stroke:none;font-family:Sans;-inkscape-font-specification:Sans" x="72.214844" y="-22.967966" sodipodi:role="line" id="tspan92">0.1</tspan></text>
<path d="m 220.8,43.2 0,345.6" style="fill:none;stroke:#222222;stroke-width:0.5;stroke-linecap:square;stroke-linejoin:round;stroke-miterlimit:10;stroke-opacity:1;stroke-dasharray:none" id="path102" inkscape:connector-curvature="0" clip-path="none" /><path d="m 220.8,43.2 0,4" style="fill:none;stroke:#000000;stroke-width:0.5;stroke-linecap:butt;stroke-linejoin:round;stroke-miterlimit:10;stroke-opacity:1;stroke-dasharray:none" id="path104" clip-path="none" inkscape:connector-curvature="0" /><path d="m 220.8,388.8 0,-4" style="fill:none;stroke:#000000;stroke-width:0.5;stroke-linecap:butt;stroke-linejoin:round;stroke-miterlimit:10;stroke-opacity:1;stroke-dasharray:none" id="path106" clip-path="none" inkscape:connector-curvature="0" /><text transform="scale(1,-1)" id="text108" clip-path="none" style="font-size:16px;font-style:normal;font-variant:normal;font-weight:normal;font-stretch:normal;text-align:center;text-anchor:middle;font-family:Sans;-inkscape-font-specification:Sans" x="224.13594" y="-22.960154"><tspan style="font-size:16px;font-style:normal;font-variant:normal;font-weight:normal;font-stretch:normal;text-align:center;writing-mode:lr-tb;text-anchor:middle;fill:#000000;fill-opacity:1;fill-rule:nonzero;stroke:none;font-family:Sans;-inkscape-font-specification:Sans" x="220.66328" y="-22.960154" id="tspan110">1</tspan></text>
<path d="m 369.6,43.2 0,345.6" style="fill:none;stroke:#222222;stroke-width:0.5;stroke-linecap:square;stroke-linejoin:round;stroke-miterlimit:10;stroke-opacity:1;stroke-dasharray:none" id="path120" inkscape:connector-curvature="0" clip-path="none" /><path d="m 369.6,43.2 0,4" style="fill:none;stroke:#000000;stroke-width:0.5;stroke-linecap:butt;stroke-linejoin:round;stroke-miterlimit:10;stroke-opacity:1;stroke-dasharray:none" id="path122" clip-path="none" inkscape:connector-curvature="0" /><path d="m 369.6,388.8 0,-4" style="fill:none;stroke:#000000;stroke-width:0.5;stroke-linecap:butt;stroke-linejoin:round;stroke-miterlimit:10;stroke-opacity:1;stroke-dasharray:none" id="path124" clip-path="none" inkscape:connector-curvature="0" /><text transform="scale(1,-1)" id="text126" clip-path="none" style="font-size:16px;font-style:normal;font-variant:normal;font-weight:normal;font-stretch:normal;text-align:center;text-anchor:middle;font-family:Sans;-inkscape-font-specification:Sans" x="369.25626" y="-22.967966"><tspan style="font-size:16px;font-style:normal;font-variant:normal;font-weight:normal;font-stretch:normal;text-align:center;writing-mode:lr-tb;text-anchor:middle;fill:#000000;fill-opacity:1;fill-rule:nonzero;stroke:none;font-family:Sans;-inkscape-font-specification:Sans" x="369.25626" y="-22.967966" sodipodi:role="line" id="tspan128">10</tspan></text>
<path d="m 518.4,43.2 0,345.6" style="fill:none;stroke:#222222;stroke-width:0.5;stroke-linecap:square;stroke-linejoin:round;stroke-miterlimit:10;stroke-opacity:1;stroke-dasharray:none" id="path138" inkscape:connector-curvature="0" clip-path="none" /><path d="m 518.4,43.2 0,4" style="fill:none;stroke:#000000;stroke-width:0.5;stroke-linecap:butt;stroke-linejoin:round;stroke-miterlimit:10;stroke-opacity:1;stroke-dasharray:none" id="path140" clip-path="none" inkscape:connector-curvature="0" /><path d="m 518.4,388.8 0,-4" style="fill:none;stroke:#000000;stroke-width:0.5;stroke-linecap:butt;stroke-linejoin:round;stroke-miterlimit:10;stroke-opacity:1;stroke-dasharray:none" id="path142" clip-path="none" inkscape:connector-curvature="0" /><text transform="scale(1,-1)" id="text144" clip-path="none" style="font-size:16px;font-style:normal;font-variant:normal;font-weight:normal;font-stretch:normal;text-align:center;text-anchor:middle;font-family:Sans;-inkscape-font-specification:Sans" x="518.05627" y="-22.967966"><tspan style="font-size:16px;font-style:normal;font-variant:normal;font-weight:normal;font-stretch:normal;text-align:center;writing-mode:lr-tb;text-anchor:middle;fill:#000000;fill-opacity:1;fill-rule:nonzero;stroke:none;font-family:Sans;-inkscape-font-specification:Sans" x="518.05627" y="-22.967966" sodipodi:role="line" id="tspan146">100</tspan></text>
<path d="m 116.8,43.2 0,2" style="fill:none;stroke:#000000;stroke-width:0.5;stroke-linecap:butt;stroke-linejoin:round;stroke-miterlimit:10;stroke-opacity:1;stroke-dasharray:none" id="path158" clip-path="none" inkscape:connector-curvature="0" /><path d="m 116.8,388.8 0,-2" style="fill:none;stroke:#000000;stroke-width:0.5;stroke-linecap:butt;stroke-linejoin:round;stroke-miterlimit:10;stroke-opacity:1;stroke-dasharray:none" id="path160" clip-path="none" inkscape:connector-curvature="0" /><path d="m 143,43.2 0,2" style="fill:none;stroke:#000000;stroke-width:0.5;stroke-linecap:butt;stroke-linejoin:round;stroke-miterlimit:10;stroke-opacity:1;stroke-dasharray:none" id="path172" clip-path="none" inkscape:connector-curvature="0" /><path d="m 143,388.8 0,-2" style="fill:none;stroke:#000000;stroke-width:0.5;stroke-linecap:butt;stroke-linejoin:round;stroke-miterlimit:10;stroke-opacity:1;stroke-dasharray:none" id="path174" clip-path="none" inkscape:connector-curvature="0" /><path d="m 161.6,43.2 0,2" style="fill:none;stroke:#000000;stroke-width:0.5;stroke-linecap:butt;stroke-linejoin:round;stroke-miterlimit:10;stroke-opacity:1;stroke-dasharray:none" id="path186" clip-path="none" inkscape:connector-curvature="0" /><path d="m 161.6,388.8 0,-2" style="fill:none;stroke:#000000;stroke-width:0.5;stroke-linecap:butt;stroke-linejoin:round;stroke-miterlimit:10;stroke-opacity:1;stroke-dasharray:none" id="path188" clip-path="none" inkscape:connector-curvature="0" /><path d="m 176,43.2 0,2" style="fill:none;stroke:#000000;stroke-width:0.5;stroke-linecap:butt;stroke-linejoin:round;stroke-miterlimit:10;stroke-opacity:1;stroke-dasharray:none" id="path200" clip-path="none" inkscape:connector-curvature="0" /><path d="m 176,388.8 0,-2" style="fill:none;stroke:#000000;stroke-width:0.5;stroke-linecap:butt;stroke-linejoin:round;stroke-miterlimit:10;stroke-opacity:1;stroke-dasharray:none" id="path202" clip-path="none" inkscape:connector-curvature="0" /><path d="m 187.8,43.2 0,2" style="fill:none;stroke:#000000;stroke-width:0.5;stroke-linecap:butt;stroke-linejoin:round;stroke-miterlimit:10;stroke-opacity:1;stroke-dasharray:none" id="path214" clip-path="none" inkscape:connector-curvature="0" /><path d="m 187.8,388.8 0,-2" style="fill:none;stroke:#000000;stroke-width:0.5;stroke-linecap:butt;stroke-linejoin:round;stroke-miterlimit:10;stroke-opacity:1;stroke-dasharray:none" id="path216" clip-path="none" inkscape:connector-curvature="0" /><path d="m 197.8,43.2 0,2" style="fill:none;stroke:#000000;stroke-width:0.5;stroke-linecap:butt;stroke-linejoin:round;stroke-miterlimit:10;stroke-opacity:1;stroke-dasharray:none" id="path228" clip-path="none" inkscape:connector-curvature="0" /><path d="m 197.8,388.8 0,-2" style="fill:none;stroke:#000000;stroke-width:0.5;stroke-linecap:butt;stroke-linejoin:round;stroke-miterlimit:10;stroke-opacity:1;stroke-dasharray:none" id="path230" clip-path="none" inkscape:connector-curvature="0" /><path d="m 206.4,43.2 0,2" style="fill:none;stroke:#000000;stroke-width:0.5;stroke-linecap:butt;stroke-linejoin:round;stroke-miterlimit:10;stroke-opacity:1;stroke-dasharray:none" id="path242" clip-path="none" inkscape:connector-curvature="0" /><path d="m 206.4,388.8 0,-2" style="fill:none;stroke:#000000;stroke-width:0.5;stroke-linecap:butt;stroke-linejoin:round;stroke-miterlimit:10;stroke-opacity:1;stroke-dasharray:none" id="path244" clip-path="none" inkscape:connector-curvature="0" /><path d="m 214,43.2 0,2" style="fill:none;stroke:#000000;stroke-width:0.5;stroke-linecap:butt;stroke-linejoin:round;stroke-miterlimit:10;stroke-opacity:1;stroke-dasharray:none" id="path256" clip-path="none" inkscape:connector-curvature="0" /><path d="m 214,388.8 0,-2" style="fill:none;stroke:#000000;stroke-width:0.5;stroke-linecap:butt;stroke-linejoin:round;stroke-miterlimit:10;stroke-opacity:1;stroke-dasharray:none" id="path258" clip-path="none" inkscape:connector-curvature="0" /><path d="m 265.6,43.2 0,2" style="fill:none;stroke:#000000;stroke-width:0.5;stroke-linecap:butt;stroke-linejoin:round;stroke-miterlimit:10;stroke-opacity:1;stroke-dasharray:none" id="path270" clip-path="none" inkscape:connector-curvature="0" /><path d="m 265.6,388.8 0,-2" style="fill:none;stroke:#000000;stroke-width:0.5;stroke-linecap:butt;stroke-linejoin:round;stroke-miterlimit:10;stroke-opacity:1;stroke-dasharray:none" id="path272" clip-path="none" inkscape:connector-curvature="0" /><path d="m 291.8,43.2 0,2" style="fill:none;stroke:#000000;stroke-width:0.5;stroke-linecap:butt;stroke-linejoin:round;stroke-miterlimit:10;stroke-opacity:1;stroke-dasharray:none" id="path284" clip-path="none" inkscape:connector-curvature="0" /><path d="m 291.8,388.8 0,-2" style="fill:none;stroke:#000000;stroke-width:0.5;stroke-linecap:butt;stroke-linejoin:round;stroke-miterlimit:10;stroke-opacity:1;stroke-dasharray:none" id="path286" clip-path="none" inkscape:connector-curvature="0" /><path d="m 310.4,43.2 0,2" style="fill:none;stroke:#000000;stroke-width:0.5;stroke-linecap:butt;stroke-linejoin:round;stroke-miterlimit:10;stroke-opacity:1;stroke-dasharray:none" id="path298" clip-path="none" inkscape:connector-curvature="0" /><path d="m 310.4,388.8 0,-2" style="fill:none;stroke:#000000;stroke-width:0.5;stroke-linecap:butt;stroke-linejoin:round;stroke-miterlimit:10;stroke-opacity:1;stroke-dasharray:none" id="path300" clip-path="none" inkscape:connector-curvature="0" /><path d="m 324.8,43.2 0,2" style="fill:none;stroke:#000000;stroke-width:0.5;stroke-linecap:butt;stroke-linejoin:round;stroke-miterlimit:10;stroke-opacity:1;stroke-dasharray:none" id="path312" clip-path="none" inkscape:connector-curvature="0" /><path d="m 324.8,388.8 0,-2" style="fill:none;stroke:#000000;stroke-width:0.5;stroke-linecap:butt;stroke-linejoin:round;stroke-miterlimit:10;stroke-opacity:1;stroke-dasharray:none" id="path314" clip-path="none" inkscape:connector-curvature="0" /><path d="m 336.6,43.2 0,2" style="fill:none;stroke:#000000;stroke-width:0.5;stroke-linecap:butt;stroke-linejoin:round;stroke-miterlimit:10;stroke-opacity:1;stroke-dasharray:none" id="path326" clip-path="none" inkscape:connector-curvature="0" /><path d="m 336.6,388.8 0,-2" style="fill:none;stroke:#000000;stroke-width:0.5;stroke-linecap:butt;stroke-linejoin:round;stroke-miterlimit:10;stroke-opacity:1;stroke-dasharray:none" id="path328" clip-path="none" inkscape:connector-curvature="0" /><path d="m 346.6,43.2 0,2" style="fill:none;stroke:#000000;stroke-width:0.5;stroke-linecap:butt;stroke-linejoin:round;stroke-miterlimit:10;stroke-opacity:1;stroke-dasharray:none" id="path340" clip-path="none" inkscape:connector-curvature="0" /><path d="m 346.6,388.8 0,-2" style="fill:none;stroke:#000000;stroke-width:0.5;stroke-linecap:butt;stroke-linejoin:round;stroke-miterlimit:10;stroke-opacity:1;stroke-dasharray:none" id="path342" clip-path="none" inkscape:connector-curvature="0" /><path d="m 355.2,43.2 0,2" style="fill:none;stroke:#000000;stroke-width:0.5;stroke-linecap:butt;stroke-linejoin:round;stroke-miterlimit:10;stroke-opacity:1;stroke-dasharray:none" id="path354" clip-path="none" inkscape:connector-curvature="0" /><path d="m 355.2,388.8 0,-2" style="fill:none;stroke:#000000;stroke-width:0.5;stroke-linecap:butt;stroke-linejoin:round;stroke-miterlimit:10;stroke-opacity:1;stroke-dasharray:none" id="path356" clip-path="none" inkscape:connector-curvature="0" /><path d="m 362.8,43.2 0,2" style="fill:none;stroke:#000000;stroke-width:0.5;stroke-linecap:butt;stroke-linejoin:round;stroke-miterlimit:10;stroke-opacity:1;stroke-dasharray:none" id="path368" clip-path="none" inkscape:connector-curvature="0" /><path d="m 362.8,388.8 0,-2" style="fill:none;stroke:#000000;stroke-width:0.5;stroke-linecap:butt;stroke-linejoin:round;stroke-miterlimit:10;stroke-opacity:1;stroke-dasharray:none" id="path370" clip-path="none" inkscape:connector-curvature="0" /><path d="m 414.4,43.2 0,2" style="fill:none;stroke:#000000;stroke-width:0.5;stroke-linecap:butt;stroke-linejoin:round;stroke-miterlimit:10;stroke-opacity:1;stroke-dasharray:none" id="path382" clip-path="none" inkscape:connector-curvature="0" /><path d="m 414.4,388.8 0,-2" style="fill:none;stroke:#000000;stroke-width:0.5;stroke-linecap:butt;stroke-linejoin:round;stroke-miterlimit:10;stroke-opacity:1;stroke-dasharray:none" id="path384" clip-path="none" inkscape:connector-curvature="0" /><path d="m 440.6,43.2 0,2" style="fill:none;stroke:#000000;stroke-width:0.5;stroke-linecap:butt;stroke-linejoin:round;stroke-miterlimit:10;stroke-opacity:1;stroke-dasharray:none" id="path396" clip-path="none" inkscape:connector-curvature="0" /><path d="m 440.6,388.8 0,-2" style="fill:none;stroke:#000000;stroke-width:0.5;stroke-linecap:butt;stroke-linejoin:round;stroke-miterlimit:10;stroke-opacity:1;stroke-dasharray:none" id="path398" clip-path="none" inkscape:connector-curvature="0" /><path d="m 459.2,43.2 0,2" style="fill:none;stroke:#000000;stroke-width:0.5;stroke-linecap:butt;stroke-linejoin:round;stroke-miterlimit:10;stroke-opacity:1;stroke-dasharray:none" id="path410" clip-path="none" inkscape:connector-curvature="0" /><path d="m 459.2,388.8 0,-2" style="fill:none;stroke:#000000;stroke-width:0.5;stroke-linecap:butt;stroke-linejoin:round;stroke-miterlimit:10;stroke-opacity:1;stroke-dasharray:none" id="path412" clip-path="none" inkscape:connector-curvature="0" /><path d="m 473.6,43.2 0,2" style="fill:none;stroke:#000000;stroke-width:0.5;stroke-linecap:butt;stroke-linejoin:round;stroke-miterlimit:10;stroke-opacity:1;stroke-dasharray:none" id="path424" clip-path="none" inkscape:connector-curvature="0" /><path d="m 473.6,388.8 0,-2" style="fill:none;stroke:#000000;stroke-width:0.5;stroke-linecap:butt;stroke-linejoin:round;stroke-miterlimit:10;stroke-opacity:1;stroke-dasharray:none" id="path426" clip-path="none" inkscape:connector-curvature="0" /><path d="m 485.4,43.2 0,2" style="fill:none;stroke:#000000;stroke-width:0.5;stroke-linecap:butt;stroke-linejoin:round;stroke-miterlimit:10;stroke-opacity:1;stroke-dasharray:none" id="path438" clip-path="none" inkscape:connector-curvature="0" /><path d="m 485.4,388.8 0,-2" style="fill:none;stroke:#000000;stroke-width:0.5;stroke-linecap:butt;stroke-linejoin:round;stroke-miterlimit:10;stroke-opacity:1;stroke-dasharray:none" id="path440" clip-path="none" inkscape:connector-curvature="0" /><path d="m 495.4,43.2 0,2" style="fill:none;stroke:#000000;stroke-width:0.5;stroke-linecap:butt;stroke-linejoin:round;stroke-miterlimit:10;stroke-opacity:1;stroke-dasharray:none" id="path452" clip-path="none" inkscape:connector-curvature="0" /><path d="m 495.4,388.8 0,-2" style="fill:none;stroke:#000000;stroke-width:0.5;stroke-linecap:butt;stroke-linejoin:round;stroke-miterlimit:10;stroke-opacity:1;stroke-dasharray:none" id="path454" clip-path="none" inkscape:connector-curvature="0" /><path d="m 504,43.2 0,2" style="fill:none;stroke:#000000;stroke-width:0.5;stroke-linecap:butt;stroke-linejoin:round;stroke-miterlimit:10;stroke-opacity:1;stroke-dasharray:none" id="path466" clip-path="none" inkscape:connector-curvature="0" /><path d="m 504,388.8 0,-2" style="fill:none;stroke:#000000;stroke-width:0.5;stroke-linecap:butt;stroke-linejoin:round;stroke-miterlimit:10;stroke-opacity:1;stroke-dasharray:none" id="path468" clip-path="none" inkscape:connector-curvature="0" /><path d="m 511.6,43.2 0,2" style="fill:none;stroke:#000000;stroke-width:0.5;stroke-linecap:butt;stroke-linejoin:round;stroke-miterlimit:10;stroke-opacity:1;stroke-dasharray:none" id="path480" clip-path="none" inkscape:connector-curvature="0" /><path d="m 511.6,388.8 0,-2" style="fill:none;stroke:#000000;stroke-width:0.5;stroke-linecap:butt;stroke-linejoin:round;stroke-miterlimit:10;stroke-opacity:1;stroke-dasharray:none" id="path482" clip-path="none" inkscape:connector-curvature="0" /><text transform="scale(1,-1)" id="text484" clip-path="none" style="font-size:16px;font-style:normal;font-variant:normal;font-weight:normal;font-stretch:normal;text-align:center;text-anchor:middle;font-family:Sans;-inkscape-font-specification:Sans" x="295.36407" y="-6.0892363"><tspan style="font-size:16px;font-style:normal;font-variant:normal;font-weight:normal;font-stretch:normal;text-align:center;writing-mode:lr-tb;text-anchor:middle;fill:#000000;fill-opacity:1;fill-rule:nonzero;stroke:none;font-family:Sans;-inkscape-font-specification:Sans" x="295.36407" y="-6.0892363" sodipodi:role="line" id="tspan486">Semi-major axis [AU]</tspan></text>
<path d="m 72,43.2 446.4,0" style="fill:none;stroke:#222222;stroke-width:0.5;stroke-linecap:square;stroke-linejoin:round;stroke-miterlimit:10;stroke-opacity:1;stroke-dasharray:none" id="path496" inkscape:connector-curvature="0" clip-path="none" /><path d="m 72,43.2 4,0" style="fill:none;stroke:#000000;stroke-width:0.5;stroke-linecap:butt;stroke-linejoin:round;stroke-miterlimit:10;stroke-opacity:1;stroke-dasharray:none" id="path498" clip-path="none" inkscape:connector-curvature="0" /><path d="m 518.4,43.2 -4,0" style="fill:none;stroke:#000000;stroke-width:0.5;stroke-linecap:butt;stroke-linejoin:round;stroke-miterlimit:10;stroke-opacity:1;stroke-dasharray:none" id="path500" clip-path="none" inkscape:connector-curvature="0" /><text id="text504" transform="scale(1,-1)" x="64.651749" y="-37.375782" clip-path="none" style="font-size:16px;font-style:normal;font-variant:normal;font-weight:normal;font-stretch:normal;text-align:end;text-anchor:end;font-family:Sans;-inkscape-font-specification:Sans"><tspan id="tspan506" sodipodi:role="line" y="-37.375782" x="64.651749" style="font-size:16px;font-style:normal;font-variant:normal;font-weight:normal;font-stretch:normal;text-align:end;writing-mode:lr-tb;text-anchor:end;fill:#000000;fill-opacity:1;fill-rule:nonzero;stroke:none;font-family:Sans;-inkscape-font-specification:Sans">10</tspan></text>
<path d="m 72,158.4 446.4,0" style="fill:none;stroke:#222222;stroke-width:0.5;stroke-linecap:square;stroke-linejoin:round;stroke-miterlimit:10;stroke-opacity:1;stroke-dasharray:none" id="path520" inkscape:connector-curvature="0" clip-path="none" /><path d="m 72,158.4 4,0" style="fill:none;stroke:#000000;stroke-width:0.5;stroke-linecap:butt;stroke-linejoin:round;stroke-miterlimit:10;stroke-opacity:1;stroke-dasharray:none" id="path522" clip-path="none" inkscape:connector-curvature="0" /><path d="m 518.4,158.4 -4,0" style="fill:none;stroke:#000000;stroke-width:0.5;stroke-linecap:butt;stroke-linejoin:round;stroke-miterlimit:10;stroke-opacity:1;stroke-dasharray:none" id="path524" clip-path="none" inkscape:connector-curvature="0" /><text id="text528" transform="scale(1,-1)" x="64.651749" y="-152.57578" clip-path="none" style="font-size:16px;font-style:normal;font-variant:normal;font-weight:normal;font-stretch:normal;text-align:end;text-anchor:end;font-family:Sans;-inkscape-font-specification:Sans"><tspan id="tspan530" sodipodi:role="line" y="-152.57578" x="64.651749" style="font-size:16px;font-style:normal;font-variant:normal;font-weight:normal;font-stretch:normal;text-align:end;writing-mode:lr-tb;text-anchor:end;fill:#000000;fill-opacity:1;fill-rule:nonzero;stroke:none;font-family:Sans;-inkscape-font-specification:Sans">100</tspan></text>
<path d="m 72,273.6 446.4,0" style="fill:none;stroke:#222222;stroke-width:0.5;stroke-linecap:square;stroke-linejoin:round;stroke-miterlimit:10;stroke-opacity:1;stroke-dasharray:none" id="path544" inkscape:connector-curvature="0" clip-path="none" /><path d="m 72,273.6 4,0" style="fill:none;stroke:#000000;stroke-width:0.5;stroke-linecap:butt;stroke-linejoin:round;stroke-miterlimit:10;stroke-opacity:1;stroke-dasharray:none" id="path546" clip-path="none" inkscape:connector-curvature="0" /><path d="m 518.4,273.6 -4,0" style="fill:none;stroke:#000000;stroke-width:0.5;stroke-linecap:butt;stroke-linejoin:round;stroke-miterlimit:10;stroke-opacity:1;stroke-dasharray:none" id="path548" clip-path="none" inkscape:connector-curvature="0" /><text id="text552" transform="scale(1,-1)" x="64.651749" y="-267.77579" clip-path="none" style="font-size:16px;font-style:normal;font-variant:normal;font-weight:normal;font-stretch:normal;text-align:end;text-anchor:end;font-family:Sans;-inkscape-font-specification:Sans"><tspan id="tspan554" sodipodi:role="line" y="-267.77579" x="64.651749" style="font-size:16px;font-style:normal;font-variant:normal;font-weight:normal;font-stretch:normal;text-align:end;writing-mode:lr-tb;text-anchor:end;fill:#000000;fill-opacity:1;fill-rule:nonzero;stroke:none;font-family:Sans;-inkscape-font-specification:Sans">1000</tspan></text>
<path d="m 72,388.8 446.4,0" style="fill:none;stroke:#222222;stroke-width:0.5;stroke-linecap:square;stroke-linejoin:round;stroke-miterlimit:10;stroke-opacity:1;stroke-dasharray:none" id="path568" inkscape:connector-curvature="0" clip-path="none" /><path d="m 72,388.8 4,0" style="fill:none;stroke:#000000;stroke-width:0.5;stroke-linecap:butt;stroke-linejoin:round;stroke-miterlimit:10;stroke-opacity:1;stroke-dasharray:none" id="path570" clip-path="none" inkscape:connector-curvature="0" /><path d="m 518.4,388.8 -4,0" style="fill:none;stroke:#000000;stroke-width:0.5;stroke-linecap:butt;stroke-linejoin:round;stroke-miterlimit:10;stroke-opacity:1;stroke-dasharray:none" id="path572" clip-path="none" inkscape:connector-curvature="0" /><text id="text576" transform="scale(1,-1)" x="64.651749" y="-382.97577" clip-path="none" style="font-size:16px;font-style:normal;font-variant:normal;font-weight:normal;font-stretch:normal;text-align:end;text-anchor:end;font-family:Sans;-inkscape-font-specification:Sans"><tspan id="tspan578" sodipodi:role="line" y="-382.97577" x="64.651749" style="font-size:16px;font-style:normal;font-variant:normal;font-weight:normal;font-stretch:normal;text-align:end;writing-mode:lr-tb;text-anchor:end;fill:#000000;fill-opacity:1;fill-rule:nonzero;stroke:none;font-family:Sans;-inkscape-font-specification:Sans">10000</tspan></text>
<path d="m 72,77.88 2,0" style="fill:none;stroke:#000000;stroke-width:0.5;stroke-linecap:butt;stroke-linejoin:round;stroke-miterlimit:10;stroke-opacity:1;stroke-dasharray:none" id="path594" clip-path="none" inkscape:connector-curvature="0" /><path d="m 518.4,77.88 -2,0" style="fill:none;stroke:#000000;stroke-width:0.5;stroke-linecap:butt;stroke-linejoin:round;stroke-miterlimit:10;stroke-opacity:1;stroke-dasharray:none" id="path596" clip-path="none" inkscape:connector-curvature="0" /><path d="m 72,98.16 2,0" style="fill:none;stroke:#000000;stroke-width:0.5;stroke-linecap:butt;stroke-linejoin:round;stroke-miterlimit:10;stroke-opacity:1;stroke-dasharray:none" id="path608" clip-path="none" inkscape:connector-curvature="0" /><path d="m 518.4,98.16 -2,0" style="fill:none;stroke:#000000;stroke-width:0.5;stroke-linecap:butt;stroke-linejoin:round;stroke-miterlimit:10;stroke-opacity:1;stroke-dasharray:none" id="path610" clip-path="none" inkscape:connector-curvature="0" /><path d="m 72,112.6 2,0" style="fill:none;stroke:#000000;stroke-width:0.5;stroke-linecap:butt;stroke-linejoin:round;stroke-miterlimit:10;stroke-opacity:1;stroke-dasharray:none" id="path622" clip-path="none" inkscape:connector-curvature="0" /><path d="m 518.4,112.6 -2,0" style="fill:none;stroke:#000000;stroke-width:0.5;stroke-linecap:butt;stroke-linejoin:round;stroke-miterlimit:10;stroke-opacity:1;stroke-dasharray:none" id="path624" clip-path="none" inkscape:connector-curvature="0" /><path d="m 72,123.7 2,0" style="fill:none;stroke:#000000;stroke-width:0.5;stroke-linecap:butt;stroke-linejoin:round;stroke-miterlimit:10;stroke-opacity:1;stroke-dasharray:none" id="path636" clip-path="none" inkscape:connector-curvature="0" /><path d="m 518.4,123.7 -2,0" style="fill:none;stroke:#000000;stroke-width:0.5;stroke-linecap:butt;stroke-linejoin:round;stroke-miterlimit:10;stroke-opacity:1;stroke-dasharray:none" id="path638" clip-path="none" inkscape:connector-curvature="0" /><path d="m 72,132.8 2,0" style="fill:none;stroke:#000000;stroke-width:0.5;stroke-linecap:butt;stroke-linejoin:round;stroke-miterlimit:10;stroke-opacity:1;stroke-dasharray:none" id="path650" clip-path="none" inkscape:connector-curvature="0" /><path d="m 518.4,132.8 -2,0" style="fill:none;stroke:#000000;stroke-width:0.5;stroke-linecap:butt;stroke-linejoin:round;stroke-miterlimit:10;stroke-opacity:1;stroke-dasharray:none" id="path652" clip-path="none" inkscape:connector-curvature="0" /><path d="m 72,140.6 2,0" style="fill:none;stroke:#000000;stroke-width:0.5;stroke-linecap:butt;stroke-linejoin:round;stroke-miterlimit:10;stroke-opacity:1;stroke-dasharray:none" id="path664" clip-path="none" inkscape:connector-curvature="0" /><path d="m 518.4,140.6 -2,0" style="fill:none;stroke:#000000;stroke-width:0.5;stroke-linecap:butt;stroke-linejoin:round;stroke-miterlimit:10;stroke-opacity:1;stroke-dasharray:none" id="path666" clip-path="none" inkscape:connector-curvature="0" /><path d="m 72,147.2 2,0" style="fill:none;stroke:#000000;stroke-width:0.5;stroke-linecap:butt;stroke-linejoin:round;stroke-miterlimit:10;stroke-opacity:1;stroke-dasharray:none" id="path678" clip-path="none" inkscape:connector-curvature="0" /><path d="m 518.4,147.2 -2,0" style="fill:none;stroke:#000000;stroke-width:0.5;stroke-linecap:butt;stroke-linejoin:round;stroke-miterlimit:10;stroke-opacity:1;stroke-dasharray:none" id="path680" clip-path="none" inkscape:connector-curvature="0" /><path d="m 72,153.1 2,0" style="fill:none;stroke:#000000;stroke-width:0.5;stroke-linecap:butt;stroke-linejoin:round;stroke-miterlimit:10;stroke-opacity:1;stroke-dasharray:none" id="path692" clip-path="none" inkscape:connector-curvature="0" /><path d="m 518.4,153.1 -2,0" style="fill:none;stroke:#000000;stroke-width:0.5;stroke-linecap:butt;stroke-linejoin:round;stroke-miterlimit:10;stroke-opacity:1;stroke-dasharray:none" id="path694" clip-path="none" inkscape:connector-curvature="0" /><path d="m 72,193.1 2,0" style="fill:none;stroke:#000000;stroke-width:0.5;stroke-linecap:butt;stroke-linejoin:round;stroke-miterlimit:10;stroke-opacity:1;stroke-dasharray:none" id="path706" clip-path="none" inkscape:connector-curvature="0" /><path d="m 518.4,193.1 -2,0" style="fill:none;stroke:#000000;stroke-width:0.5;stroke-linecap:butt;stroke-linejoin:round;stroke-miterlimit:10;stroke-opacity:1;stroke-dasharray:none" id="path708" clip-path="none" inkscape:connector-curvature="0" /><path d="m 72,213.4 2,0" style="fill:none;stroke:#000000;stroke-width:0.5;stroke-linecap:butt;stroke-linejoin:round;stroke-miterlimit:10;stroke-opacity:1;stroke-dasharray:none" id="path720" clip-path="none" inkscape:connector-curvature="0" /><path d="m 518.4,213.4 -2,0" style="fill:none;stroke:#000000;stroke-width:0.5;stroke-linecap:butt;stroke-linejoin:round;stroke-miterlimit:10;stroke-opacity:1;stroke-dasharray:none" id="path722" clip-path="none" inkscape:connector-curvature="0" /><path d="m 72,227.8 2,0" style="fill:none;stroke:#000000;stroke-width:0.5;stroke-linecap:butt;stroke-linejoin:round;stroke-miterlimit:10;stroke-opacity:1;stroke-dasharray:none" id="path734" clip-path="none" inkscape:connector-curvature="0" /><path d="m 518.4,227.8 -2,0" style="fill:none;stroke:#000000;stroke-width:0.5;stroke-linecap:butt;stroke-linejoin:round;stroke-miterlimit:10;stroke-opacity:1;stroke-dasharray:none" id="path736" clip-path="none" inkscape:connector-curvature="0" /><path d="m 72,238.9 2,0" style="fill:none;stroke:#000000;stroke-width:0.5;stroke-linecap:butt;stroke-linejoin:round;stroke-miterlimit:10;stroke-opacity:1;stroke-dasharray:none" id="path748" clip-path="none" inkscape:connector-curvature="0" /><path d="m 518.4,238.9 -2,0" style="fill:none;stroke:#000000;stroke-width:0.5;stroke-linecap:butt;stroke-linejoin:round;stroke-miterlimit:10;stroke-opacity:1;stroke-dasharray:none" id="path750" clip-path="none" inkscape:connector-curvature="0" /><path d="m 72,248 2,0" style="fill:none;stroke:#000000;stroke-width:0.5;stroke-linecap:butt;stroke-linejoin:round;stroke-miterlimit:10;stroke-opacity:1;stroke-dasharray:none" id="path762" clip-path="none" inkscape:connector-curvature="0" /><path d="m 518.4,248 -2,0" style="fill:none;stroke:#000000;stroke-width:0.5;stroke-linecap:butt;stroke-linejoin:round;stroke-miterlimit:10;stroke-opacity:1;stroke-dasharray:none" id="path764" clip-path="none" inkscape:connector-curvature="0" /><path d="m 72,255.8 2,0" style="fill:none;stroke:#000000;stroke-width:0.5;stroke-linecap:butt;stroke-linejoin:round;stroke-miterlimit:10;stroke-opacity:1;stroke-dasharray:none" id="path776" clip-path="none" inkscape:connector-curvature="0" /><path d="m 518.4,255.8 -2,0" style="fill:none;stroke:#000000;stroke-width:0.5;stroke-linecap:butt;stroke-linejoin:round;stroke-miterlimit:10;stroke-opacity:1;stroke-dasharray:none" id="path778" clip-path="none" inkscape:connector-curvature="0" /><path d="m 72,262.4 2,0" style="fill:none;stroke:#000000;stroke-width:0.5;stroke-linecap:butt;stroke-linejoin:round;stroke-miterlimit:10;stroke-opacity:1;stroke-dasharray:none" id="path790" clip-path="none" inkscape:connector-curvature="0" /><path d="m 518.4,262.4 -2,0" style="fill:none;stroke:#000000;stroke-width:0.5;stroke-linecap:butt;stroke-linejoin:round;stroke-miterlimit:10;stroke-opacity:1;stroke-dasharray:none" id="path792" clip-path="none" inkscape:connector-curvature="0" /><path d="m 72,268.3 2,0" style="fill:none;stroke:#000000;stroke-width:0.5;stroke-linecap:butt;stroke-linejoin:round;stroke-miterlimit:10;stroke-opacity:1;stroke-dasharray:none" id="path804" clip-path="none" inkscape:connector-curvature="0" /><path d="m 518.4,268.3 -2,0" style="fill:none;stroke:#000000;stroke-width:0.5;stroke-linecap:butt;stroke-linejoin:round;stroke-miterlimit:10;stroke-opacity:1;stroke-dasharray:none" id="path806" clip-path="none" inkscape:connector-curvature="0" /><path d="m 72,308.3 2,0" style="fill:none;stroke:#000000;stroke-width:0.5;stroke-linecap:butt;stroke-linejoin:round;stroke-miterlimit:10;stroke-opacity:1;stroke-dasharray:none" id="path818" clip-path="none" inkscape:connector-curvature="0" /><path d="m 518.4,308.3 -2,0" style="fill:none;stroke:#000000;stroke-width:0.5;stroke-linecap:butt;stroke-linejoin:round;stroke-miterlimit:10;stroke-opacity:1;stroke-dasharray:none" id="path820" clip-path="none" inkscape:connector-curvature="0" /><path d="m 72,328.6 2,0" style="fill:none;stroke:#000000;stroke-width:0.5;stroke-linecap:butt;stroke-linejoin:round;stroke-miterlimit:10;stroke-opacity:1;stroke-dasharray:none" id="path832" clip-path="none" inkscape:connector-curvature="0" /><path d="m 518.4,328.6 -2,0" style="fill:none;stroke:#000000;stroke-width:0.5;stroke-linecap:butt;stroke-linejoin:round;stroke-miterlimit:10;stroke-opacity:1;stroke-dasharray:none" id="path834" clip-path="none" inkscape:connector-curvature="0" /><path d="m 72,343 2,0" style="fill:none;stroke:#000000;stroke-width:0.5;stroke-linecap:butt;stroke-linejoin:round;stroke-miterlimit:10;stroke-opacity:1;stroke-dasharray:none" id="path846" clip-path="none" inkscape:connector-curvature="0" /><path d="m 518.4,343 -2,0" style="fill:none;stroke:#000000;stroke-width:0.5;stroke-linecap:butt;stroke-linejoin:round;stroke-miterlimit:10;stroke-opacity:1;stroke-dasharray:none" id="path848" clip-path="none" inkscape:connector-curvature="0" /><path d="m 72,354.1 2,0" style="fill:none;stroke:#000000;stroke-width:0.5;stroke-linecap:butt;stroke-linejoin:round;stroke-miterlimit:10;stroke-opacity:1;stroke-dasharray:none" id="path860" clip-path="none" inkscape:connector-curvature="0" /><path d="m 518.4,354.1 -2,0" style="fill:none;stroke:#000000;stroke-width:0.5;stroke-linecap:butt;stroke-linejoin:round;stroke-miterlimit:10;stroke-opacity:1;stroke-dasharray:none" id="path862" clip-path="none" inkscape:connector-curvature="0" /><path d="m 72,363.2 2,0" style="fill:none;stroke:#000000;stroke-width:0.5;stroke-linecap:butt;stroke-linejoin:round;stroke-miterlimit:10;stroke-opacity:1;stroke-dasharray:none" id="path874" clip-path="none" inkscape:connector-curvature="0" /><path d="m 518.4,363.2 -2,0" style="fill:none;stroke:#000000;stroke-width:0.5;stroke-linecap:butt;stroke-linejoin:round;stroke-miterlimit:10;stroke-opacity:1;stroke-dasharray:none" id="path876" clip-path="none" inkscape:connector-curvature="0" /><path d="m 72,371 2,0" style="fill:none;stroke:#000000;stroke-width:0.5;stroke-linecap:butt;stroke-linejoin:round;stroke-miterlimit:10;stroke-opacity:1;stroke-dasharray:none" id="path888" clip-path="none" inkscape:connector-curvature="0" /><path d="m 518.4,371 -2,0" style="fill:none;stroke:#000000;stroke-width:0.5;stroke-linecap:butt;stroke-linejoin:round;stroke-miterlimit:10;stroke-opacity:1;stroke-dasharray:none" id="path890" clip-path="none" inkscape:connector-curvature="0" /><path d="m 72,377.6 2,0" style="fill:none;stroke:#000000;stroke-width:0.5;stroke-linecap:butt;stroke-linejoin:round;stroke-miterlimit:10;stroke-opacity:1;stroke-dasharray:none" id="path902" clip-path="none" inkscape:connector-curvature="0" /><path d="m 518.4,377.6 -2,0" style="fill:none;stroke:#000000;stroke-width:0.5;stroke-linecap:butt;stroke-linejoin:round;stroke-miterlimit:10;stroke-opacity:1;stroke-dasharray:none" id="path904" clip-path="none" inkscape:connector-curvature="0" /><path d="m 72,383.5 2,0" style="fill:none;stroke:#000000;stroke-width:0.5;stroke-linecap:butt;stroke-linejoin:round;stroke-miterlimit:10;stroke-opacity:1;stroke-dasharray:none" id="path916" clip-path="none" inkscape:connector-curvature="0" /><path d="m 518.4,383.5 -2,0" style="fill:none;stroke:#000000;stroke-width:0.5;stroke-linecap:butt;stroke-linejoin:round;stroke-miterlimit:10;stroke-opacity:1;stroke-dasharray:none" id="path918" clip-path="none" inkscape:connector-curvature="0" /><text transform="matrix(0,1,1,0,0,0)" id="text920" clip-path="none" style="font-size:16px;font-style:normal;font-variant:normal;font-weight:normal;font-stretch:normal;text-align:center;text-anchor:middle;font-family:Sans;-inkscape-font-specification:Sans" x="216.71484" y="11.907065"><tspan style="font-size:16px;font-style:normal;font-variant:normal;font-weight:normal;font-stretch:normal;text-align:center;writing-mode:lr-tb;text-anchor:middle;fill:#000000;fill-opacity:1;fill-rule:nonzero;stroke:none;font-family:Sans;-inkscape-font-specification:Sans" x="216.71484" y="11.907065" sodipodi:role="line" id="tspan922">Temperature [K]</tspan></text>
<path d="m 72,388.8 446.4,0" style="fill:none;stroke:#000000;stroke-width:1;stroke-linecap:square;stroke-linejoin:round;stroke-miterlimit:10;stroke-opacity:1;stroke-dasharray:none" id="path924" clip-path="none" inkscape:connector-curvature="0" /><path d="m 518.4,43.2 0,345.6" style="fill:none;stroke:#000000;stroke-width:1;stroke-linecap:square;stroke-linejoin:round;stroke-miterlimit:10;stroke-opacity:1;stroke-dasharray:none" id="path926" clip-path="none" inkscape:connector-curvature="0" /><path d="m 72,43.2 446.4,0" style="fill:none;stroke:#000000;stroke-width:1;stroke-linecap:square;stroke-linejoin:round;stroke-miterlimit:10;stroke-opacity:1;stroke-dasharray:none" id="path928" clip-path="none" inkscape:connector-curvature="0" /><path d="m 72,43.2 0,345.6" style="fill:none;stroke:#000000;stroke-width:1;stroke-linecap:square;stroke-linejoin:round;stroke-miterlimit:10;stroke-opacity:1;stroke-dasharray:none" id="path930" clip-path="none" inkscape:connector-curvature="0" /><path d="m 312.3,255.5 198.9,0 0,126.1 -198.9,0 0,-126.1 z" style="fill:#ffffff;fill-opacity:1;fill-rule:nonzero;stroke:#000000;stroke-width:1;stroke-linecap:square;stroke-linejoin:round;stroke-miterlimit:10;stroke-opacity:1;stroke-dasharray:none" id="path932" clip-path="none" inkscape:connector-curvature="0" /><path d="m 322.4,370.2 20.2,0" style="fill:none;stroke:#0000ff;stroke-width:1;stroke-linecap:square;stroke-linejoin:round;stroke-miterlimit:10;stroke-opacity:1;stroke-dasharray:none" id="path934" clip-path="none" inkscape:connector-curvature="0" /><text transform="matrix(1,0,0,-1,358.4,365.2)" id="text936" clip-path="none" style="font-style:normal;font-variant:normal;font-weight:normal;font-stretch:normal;font-family:Sans;-inkscape-font-specification:Sans"><tspan style="font-size:14.4px;font-style:normal;font-variant:normal;font-weight:normal;font-stretch:normal;writing-mode:lr-tb;fill:#000000;fill-opacity:1;fill-rule:nonzero;stroke:none;font-family:Sans;-inkscape-font-specification:Sans" x="0" y="0" sodipodi:role="line" id="tspan938">Pure Viscous</tspan></text>
<path d="m 322.4,349.5 20.2,0" style="fill:none;stroke:#008000;stroke-width:1;stroke-linecap:square;stroke-linejoin:round;stroke-miterlimit:10;stroke-opacity:1;stroke-dasharray:none" id="path940" clip-path="none" inkscape:connector-curvature="0" /><text transform="matrix(1,0,0,-1,358.4,344.5)" id="text942" clip-path="none" style="font-style:normal;font-variant:normal;font-weight:normal;font-stretch:normal;font-family:Sans;-inkscape-font-specification:Sans"><tspan style="font-size:14.4px;font-style:normal;font-variant:normal;font-weight:normal;font-stretch:normal;writing-mode:lr-tb;fill:#000000;fill-opacity:1;fill-rule:nonzero;stroke:none;font-family:Sans;-inkscape-font-specification:Sans" x="0" y="0" sodipodi:role="line" id="tspan944">Fiducial</tspan></text>
<path d="m 322.4,328.7 20.2,0" style="fill:none;stroke:#ff0000;stroke-width:1;stroke-linecap:square;stroke-linejoin:round;stroke-miterlimit:10;stroke-opacity:1;stroke-dasharray:none" id="path946" clip-path="none" inkscape:connector-curvature="0" /><text transform="matrix(1,0,0,-1,358.4,323.7)" id="text948" clip-path="none" style="font-style:normal;font-variant:normal;font-weight:normal;font-stretch:normal;font-family:Sans;-inkscape-font-specification:Sans"><tspan style="font-size:14.4px;font-style:normal;font-variant:normal;font-weight:normal;font-stretch:normal;writing-mode:lr-tb;fill:#000000;fill-opacity:1;fill-rule:nonzero;stroke:none;font-family:Sans;-inkscape-font-specification:Sans" x="0" y="0" sodipodi:role="line" id="tspan950">Point source</tspan></text>
<path d="m 322.4,308 20.2,0" style="fill:none;stroke:#00bfbf;stroke-width:1;stroke-linecap:square;stroke-linejoin:round;stroke-miterlimit:10;stroke-opacity:1;stroke-dasharray:none" id="path952" clip-path="none" inkscape:connector-curvature="0" /><text transform="matrix(1,0,0,-1,358.4,303)" id="text954" clip-path="none" style="font-style:normal;font-variant:normal;font-weight:normal;font-stretch:normal;font-family:Sans;-inkscape-font-specification:Sans"><tspan style="font-size:14.4px;font-style:normal;font-variant:normal;font-weight:normal;font-stretch:normal;writing-mode:lr-tb;fill:#000000;fill-opacity:1;fill-rule:nonzero;stroke:none;font-family:Sans;-inkscape-font-specification:Sans" x="0" y="0" sodipodi:role="line" id="tspan956">Extended star</tspan></text>
<path d="m 318.1,282.2 28.8,0 0,10.1 -28.8,0 0,-10.1 z" style="fill:#dddddd;fill-opacity:1;fill-rule:nonzero;stroke:#dddddd;stroke-width:1;stroke-linecap:square;stroke-linejoin:round;stroke-miterlimit:10;stroke-opacity:1;stroke-dasharray:none" id="path958" clip-path="none" inkscape:connector-curvature="0" /><text transform="matrix(1,0,0,-1,358.4,282.2)" id="text960" clip-path="none" style="font-style:normal;font-variant:normal;font-weight:normal;font-stretch:normal;font-family:Sans;-inkscape-font-specification:Sans"><tspan style="font-size:14.4px;font-style:normal;font-variant:normal;font-weight:normal;font-stretch:normal;writing-mode:lr-tb;fill:#000000;fill-opacity:1;fill-rule:nonzero;stroke:none;font-family:Sans;-inkscape-font-specification:Sans" x="0" y="0" sodipodi:role="line" id="tspan962">Point source shadow</tspan></text>
<path d="m 318.1,261.5 28.8,0 0,10 -28.8,0 0,-10 z" style="fill:#aaaaaa;fill-opacity:1;fill-rule:nonzero;stroke:#aaaaaa;stroke-width:1;stroke-linecap:square;stroke-linejoin:round;stroke-miterlimit:10;stroke-opacity:1;stroke-dasharray:none" id="path964" clip-path="none" inkscape:connector-curvature="0" /><text transform="matrix(1,0,0,-1,358.4,261.5)" id="text966" clip-path="none" style="font-style:normal;font-variant:normal;font-weight:normal;font-stretch:normal;font-family:Sans;-inkscape-font-specification:Sans"><tspan style="font-size:14.4px;font-style:normal;font-variant:normal;font-weight:normal;font-stretch:normal;writing-mode:lr-tb;fill:#000000;fill-opacity:1;fill-rule:nonzero;stroke:none;font-family:Sans;-inkscape-font-specification:Sans" x="0" y="0" sodipodi:role="line" id="tspan968">Extended shadow</tspan></text>
</g></svg>