<?xml version="1.0" encoding="UTF-8" standalone="no"?>
<!-- Created with Inkscape (http://www.inkscape.org/) -->

<svg
   xmlns:dc="http://purl.org/dc/elements/1.1/"
   xmlns:cc="http://creativecommons.org/ns#"
   xmlns:rdf="http://www.w3.org/1999/02/22-rdf-syntax-ns#"
   xmlns:svg="http://www.w3.org/2000/svg"
   xmlns="http://www.w3.org/2000/svg"
   xmlns:xlink="http://www.w3.org/1999/xlink"
   xmlns:sodipodi="http://sodipodi.sourceforge.net/DTD/sodipodi-0.dtd"
   xmlns:inkscape="http://www.inkscape.org/namespaces/inkscape"
   width="210mm"
   height="297mm"
   id="svg2"
   version="1.1"
   inkscape:version="0.48.2 r9819"
   sodipodi:docname="Nouveau document 1">
  <defs
     id="defs4">
    <linearGradient
       id="linearGradient4033">
      <stop
         style="stop-color:#ffff00;stop-opacity:1;"
         offset="0"
         id="stop4035" />
      <stop
         style="stop-color:#ff8800;stop-opacity:1;"
         offset="1"
         id="stop4037" />
    </linearGradient>
    <marker
       style="overflow:visible;"
       id="Arrow1Lend"
       refX="0.0"
       refY="0.0"
       orient="auto"
       inkscape:stockid="Arrow1Lend">
      <path
         transform="scale(0.8) rotate(180) translate(12.5,0)"
         style="fill-rule:evenodd;stroke:#000000;stroke-width:1.0pt;marker-start:none;"
         d="M 0.0,0.0 L 5.0,-5.0 L -12.5,0.0 L 5.0,5.0 L 0.0,0.0 z "
         id="path3829" />
    </marker>
    <radialGradient
       inkscape:collect="always"
       xlink:href="#linearGradient4033"
       id="radialGradient3161"
       gradientUnits="userSpaceOnUse"
       gradientTransform="matrix(1.3296497,0,0,1.3296497,892.38982,508.73809)"
       cx="282.34476"
       cy="375.4017"
       fx="282.34476"
       fy="375.4017"
       r="35.820995" />
  </defs>
  <sodipodi:namedview
     id="base"
     pagecolor="#ffffff"
     bordercolor="#666666"
     borderopacity="1.0"
     inkscape:pageopacity="0.0"
     inkscape:pageshadow="2"
     inkscape:zoom="0.89960937"
     inkscape:cx="388.00003"
     inkscape:cy="508.65053"
     inkscape:document-units="px"
     inkscape:current-layer="layer1"
     showgrid="false" />
  <metadata
     id="metadata7">
    <rdf:RDF>
      <cc:Work
         rdf:about="">
        <dc:format>image/svg+xml</dc:format>
        <dc:type
           rdf:resource="http://purl.org/dc/dcmitype/StillImage" />
        <dc:title></dc:title>
      </cc:Work>
    </rdf:RDF>
  </metadata>
  <g
     inkscape:label="Calque 1"
     inkscape:groupmode="layer"
     id="layer1">
    <path
       sodipodi:type="arc"
       style="fill:#0000ff;fill-opacity:1;fill-rule:evenodd;stroke:#000000;stroke-width:0.5;stroke-linecap:round;stroke-linejoin:round;stroke-miterlimit:4;stroke-opacity:1;stroke-dasharray:none;stroke-dashoffset:0"
       id="path3088"
       sodipodi:cx="491.89429"
       sodipodi:cy="240.63057"
       sodipodi:rx="4.9456491"
       sodipodi:ry="4.9456491"
       d="m 496.83994,240.63057 a 4.9456491,4.9456491 0 1 1 -9.8913,0 4.9456491,4.9456491 0 1 1 9.8913,0 z"
       transform="matrix(1.6092051,0,0,1.6092051,-380.90629,111.75873)" />
    <g
       transform="matrix(0.62039409,0,0,0.62039409,34.924708,245.14077)"
       id="layer1-7"
       inkscape:label="Calque 1">
      <path
         transform="translate(6.5158829,23.388712)"
         d="m 317.91575,375.4017 c 0,19.64532 -15.92567,35.571 -35.57099,35.571 -19.64532,0 -35.571,-15.92568 -35.571,-35.571 0,-19.64532 15.92568,-35.57099 35.571,-35.57099 19.64532,0 35.57099,15.92567 35.57099,35.57099 z"
         sodipodi:ry="35.570995"
         sodipodi:rx="35.570995"
         sodipodi:cy="375.4017"
         sodipodi:cx="282.34476"
         id="path3108"
         style="fill:url(#radialGradient3161);fill-opacity:1;fill-rule:evenodd;stroke:#000000;stroke-width:0.5;stroke-linecap:round;stroke-linejoin:round;stroke-miterlimit:4;stroke-opacity:1;stroke-dasharray:none;stroke-dashoffset:0"
         sodipodi:type="arc" />
      <path
         inkscape:tile-y0="345.59409"
         inkscape:tile-x0="282.96551"
         inkscape:tile-h="14.92895"
         inkscape:tile-w="11.79025"
         inkscape:tile-cy="398.79042"
         inkscape:tile-cx="288.86064"
         inkscape:transform-center-y="-60.178641"
         sodipodi:nodetypes="ccczc"
         inkscape:connector-curvature="0"
         d="m 296.61805,356.94694 c -3.84599,-3.84599 -5.87757,-9.05331 -7.7574,-16.06893 -1.92774,7.19443 -4.1359,12.44742 -7.75741,16.06893 4.74917,1.25562 4.3592,3.57611 7.75741,3.57611 3.39821,0 3.00823,-2.32049 7.7574,-3.57611 z"
         style="fill:#ffac00;fill-opacity:1;fill-rule:evenodd;stroke:#000000;stroke-width:0.5;stroke-linecap:round;stroke-linejoin:round;stroke-miterlimit:4;stroke-opacity:1;stroke-dasharray:none;stroke-dashoffset:0"
         id="path3120" />
      <use
         height="1052.3622"
         width="744.09448"
         inkscape:transform-center-y="-31.21388"
         inkscape:transform-center-x="-31.213884"
         id="use4075"
         transform="matrix(0.70710678,0.70710678,-0.70710678,0.70710678,366.59273,-87.452306)"
         xlink:href="#path3120"
         inkscape:tiled-clone-of="#path3120"
         y="0"
         x="0" />
      <use
         height="1052.3622"
         width="744.09448"
         inkscape:transform-center-x="-45.73185"
         id="use4077"
         transform="matrix(0,1,-1,0,687.65105,109.92978)"
         xlink:href="#path3120"
         inkscape:tiled-clone-of="#path3120"
         y="0"
         x="0" />
      <use
         height="1052.3622"
         width="744.09448"
         inkscape:transform-center-y="31.213884"
         inkscape:transform-center-x="-31.213884"
         id="use4079"
         transform="matrix(-0.70710678,0.70710678,-0.70710678,-0.70710678,775.10336,476.52251)"
         xlink:href="#path3120"
         inkscape:tiled-clone-of="#path3120"
         y="0"
         x="0" />
      <use
         height="1052.3622"
         width="744.09448"
         inkscape:transform-center-y="45.73185"
         id="use4081"
         transform="matrix(-1,0,0,-1,577.72127,797.58083)"
         xlink:href="#path3120"
         inkscape:tiled-clone-of="#path3120"
         y="0"
         x="0" />
      <use
         height="1052.3622"
         width="744.09448"
         inkscape:transform-center-y="31.213884"
         inkscape:transform-center-x="31.213884"
         id="use4083"
         transform="matrix(-0.70710678,-0.70710678,0.70710678,-0.70710678,211.12854,885.03314)"
         xlink:href="#path3120"
         inkscape:tiled-clone-of="#path3120"
         y="0"
         x="0" />
      <use
         height="1052.3622"
         width="744.09448"
         inkscape:transform-center-x="45.73185"
         id="use4085"
         transform="matrix(0,-1,1,0,-109.92978,687.65105)"
         xlink:href="#path3120"
         inkscape:tiled-clone-of="#path3120"
         y="0"
         x="0" />
      <use
         height="1052.3622"
         width="744.09448"
         inkscape:transform-center-y="-31.213884"
         inkscape:transform-center-x="31.213884"
         id="use4087"
         transform="matrix(0.70710678,-0.70710678,0.70710678,0.70710678,-197.38209,321.05832)"
         xlink:href="#path3120"
         inkscape:tiled-clone-of="#path3120"
         y="0"
         x="0" />
    </g>
    <path
       style="color:#ff0000;fill:none;stroke:#ff0000;stroke-width:1;stroke-linecap:butt;stroke-linejoin:miter;marker-mid:url(#Arrow1Lend)"
       d="m 222.1654,289.26876 c 66.19649,4.03763 128.80253,41.36786 164.549,97.09972 13.8456,22.33239 26.7484,47.59106 26.051,74.50028 0.5469,6.51422 -7.0246,9.04354 -9.9,2.9 -13.5715,-22.38179 -22.8948,-47.36334 -39.2682,-68.09517 -35.09129,-49.14261 -93.75738,-82.09938 -154.67947,-81.14892 -69.21205,2.79195 -134.963312,48.05385 -160.665322,112.6475 -25.38017,59.5382 -14.13866,132.45832 28.07012,181.55992 42.044022,50.86171 113.520862,74.44123 177.600402,58.83863 57.21642,-12.66561 104.1982,-54.67464 131.81447,-105.29545 7.3402,-11.5592 11.4284,-25.53175 21.228,-35.30651 7.9456,-2.62663 7.4707,10.00584 7.2,15 -2.6972,29.79242 -16.2506,57.67372 -32.9,82.1 -44.95838,56.29686 -120.14555,86.03516 -191.45165,75.84546 C 115.44965,690.54902 48.357308,637.73673 23.046918,567.00302 -3.6057618,497.43521 12.626008,414.2345 62.752728,359.27055 102.52937,314.62879 162.23487,287.6022 222.1654,289.26876 z"
       id="path4481"
       inkscape:connector-curvature="0"
       sodipodi:nodetypes="ccccccccccccccccc" />
    <text
       xml:space="preserve"
       style="font-size:24px;font-style:normal;font-variant:normal;font-weight:normal;font-stretch:normal;text-align:center;line-height:125%;letter-spacing:0px;word-spacing:0px;writing-mode:lr-tb;text-anchor:middle;fill:#000000;fill-opacity:1;stroke:none;font-family:DejaVu Sans;-inkscape-font-specification:DejaVu Sans"
       x="213.24739"
       y="402.09683"
       id="text4523"
       sodipodi:linespacing="125%"><tspan
         sodipodi:role="line"
         id="tspan4525"
         x="213.24739"
         y="402.09683">Référentiel tournant</tspan><tspan
         sodipodi:role="line"
         x="213.24739"
         y="432.09683"
         id="tspan4527">avec la planète</tspan></text>
    <text
       xml:space="preserve"
       style="font-size:24px;font-style:normal;font-variant:normal;font-weight:normal;font-stretch:normal;text-align:center;line-height:125%;letter-spacing:0px;word-spacing:0px;writing-mode:lr-tb;text-anchor:middle;fill:#000000;fill-opacity:1;stroke:none;font-family:DejaVu Sans;-inkscape-font-specification:DejaVu Sans"
       x="213.59309"
       y="553.7312"
       id="text4529"
       sodipodi:linespacing="125%"><tspan
         sodipodi:role="line"
         id="tspan4531"
         x="213.59309"
         y="553.7312">Étoile</tspan></text>
    <text
       xml:space="preserve"
       style="font-size:24px;font-style:normal;font-variant:normal;font-weight:normal;font-stretch:normal;text-align:center;line-height:125%;letter-spacing:0px;word-spacing:0px;writing-mode:lr-tb;text-anchor:middle;fill:#000000;fill-opacity:1;stroke:none;font-family:DejaVu Sans;-inkscape-font-specification:DejaVu Sans"
       x="334.00906"
       y="501.97571"
       id="text4533"
       sodipodi:linespacing="125%"><tspan
         sodipodi:role="line"
         id="tspan4535"
         x="334.00906"
         y="501.97571">Planète</tspan></text>
    <path
       transform="matrix(7.5513478,0,0,7.5510482,-3097.6767,-1303.5819)"
       d="m 496.83994,240.63057 a 4.9456491,4.9456491 0 1 1 -9.8913,0 4.9456491,4.9456491 0 1 1 9.8913,0 z"
       sodipodi:ry="4.9456491"
       sodipodi:rx="4.9456491"
       sodipodi:cy="240.63057"
       sodipodi:cx="491.89429"
       id="path3163"
       style="fill:#0000ff;fill-opacity:1;fill-rule:evenodd;stroke:#000000;stroke-width:0.10655297;stroke-linecap:round;stroke-linejoin:round;stroke-miterlimit:4;stroke-opacity:1;stroke-dasharray:none;stroke-dashoffset:0"
       sodipodi:type="arc" />
    <path
       style="color:#ff0000;fill:none;stroke:#ff0000;stroke-width:1;stroke-linecap:butt;stroke-linejoin:miter;marker-mid:url(#Arrow1Lend)"
       d="M 533.85238 747.37315 C 552.10389 710.51967 570.45361 673.71097 599.48582 644.75347 C 636.77132 632.42824 634.54292 691.70495 633.27252 715.13959 C 632.29421 725.94523 631.01154 736.6973 629.44133 747.39245 "
       id="path3172" />
    <path
       style="color:#ff0000;fill:none;stroke:#ff0000;stroke-width:1;stroke-linecap:butt;stroke-linejoin:miter;marker-mid:url(#Arrow1Lend)"
       d="M 622.9393 269.49285 C 625.91319 290.9355 627.27162 312.64342 626.70292 334.58522 C 629.26932 365.15259 593.73932 377.02118 580.24622 348.1932 C 564.69139 322.54155 550.3258 296.16215 536.37694 269.52331 "
       id="path3165" />
  </g>
</svg>
