<?xml version="1.0" encoding="UTF-8" standalone="no"?>
<svg
   xmlns:dc="http://purl.org/dc/elements/1.1/"
   xmlns:cc="http://creativecommons.org/ns#"
   xmlns:rdf="http://www.w3.org/1999/02/22-rdf-syntax-ns#"
   xmlns:svg="http://www.w3.org/2000/svg"
   xmlns="http://www.w3.org/2000/svg"
   xmlns:xlink="http://www.w3.org/1999/xlink"
   xmlns:sodipodi="http://sodipodi.sourceforge.net/DTD/sodipodi-0.dtd"
   xmlns:inkscape="http://www.inkscape.org/namespaces/inkscape"
   width="438.40424"
   height="436.82584"
   viewBox="0 0 438.40424 436.82584"
   id="svg3031"
   version="1.1"
   inkscape:version="0.48.2 r9819"
   sodipodi:docname="corotation_orbits.svg">
  <metadata
     id="metadata3079">
    <rdf:RDF>
      <cc:Work
         rdf:about="">
        <dc:format>image/svg+xml</dc:format>
        <dc:type
           rdf:resource="http://purl.org/dc/dcmitype/StillImage" />
        <dc:title></dc:title>
      </cc:Work>
    </rdf:RDF>
  </metadata>
  <sodipodi:namedview
     pagecolor="#ffffff"
     bordercolor="#666666"
     borderopacity="1"
     objecttolerance="10"
     gridtolerance="10"
     guidetolerance="10"
     inkscape:pageopacity="0"
     inkscape:pageshadow="2"
     inkscape:window-width="640"
     inkscape:window-height="480"
     id="namedview3077"
     showgrid="false"
     inkscape:zoom="1.1484118"
     inkscape:cx="214.18699"
     inkscape:cy="193.151"
     inkscape:current-layer="svg3031"
     fit-margin-top="0"
     fit-margin-left="0"
     fit-margin-right="0"
     fit-margin-bottom="0" />
  <desc
     id="desc3033">Produced by GNUPLOT 4.4 patchlevel 0 </desc>
  <defs
     id="defs3035">
    <marker
       inkscape:stockid="Arrow1Lend"
       orient="auto"
       refY="0.0"
       refX="0.0"
       id="Arrow1Lend"
       style="overflow:visible;">
      <path
         id="path3829"
         d="M 0.0,0.0 L 5.0,-5.0 L -12.5,0.0 L 5.0,5.0 L 0.0,0.0 z "
         style="fill-rule:evenodd;stroke:#000000;stroke-width:1.0pt;marker-start:none;"
         transform="scale(0.8) rotate(180) translate(12.5,0)" />
    </marker>
    <radialGradient
       gradientTransform="matrix(1.3296497,0,0,1.3296497,-93.074866,-123.75106)"
       gradientUnits="userSpaceOnUse"
       r="35.820995"
       fy="375.4017"
       fx="282.34476"
       cy="375.4017"
       cx="282.34476"
       id="radialGradient4039"
       xlink:href="#linearGradient4033"
       inkscape:collect="always" />
    <linearGradient
       id="linearGradient4033">
      <stop
         id="stop4035"
         offset="0"
         style="stop-color:#ffff00;stop-opacity:1;" />
      <stop
         id="stop4037"
         offset="1"
         style="stop-color:#ff8800;stop-opacity:1;" />
    </linearGradient>
  </defs>
  <path
     sodipodi:type="arc"
     style="fill:#0000ff;fill-opacity:1;fill-rule:evenodd;stroke:#000000;stroke-width:0.5;stroke-linecap:round;stroke-linejoin:round;stroke-miterlimit:4;stroke-opacity:1;stroke-dasharray:none;stroke-dashoffset:0"
     id="path3088"
     sodipodi:cx="491.89429"
     sodipodi:cy="240.63057"
     sodipodi:rx="4.9456491"
     sodipodi:ry="4.9456491"
     d="m 496.83994,240.63057 a 4.9456491,4.9456491 0 1 1 -9.8913,0 4.9456491,4.9456491 0 1 1 9.8913,0 z"
     transform="matrix(1.6092051,0,0,1.6092051,-375.83631,-162.37634)" />
  <g
     transform="matrix(0.62039409,0,0,0.62039409,39.994686,-28.994299)"
     id="layer1"
     inkscape:label="Calque 1">
    <path
       transform="translate(6.5158829,23.388712)"
       d="m 317.91575,375.4017 c 0,19.64532 -15.92567,35.571 -35.57099,35.571 -19.64532,0 -35.571,-15.92568 -35.571,-35.571 0,-19.64532 15.92568,-35.57099 35.571,-35.57099 19.64532,0 35.57099,15.92567 35.57099,35.57099 z"
       sodipodi:ry="35.570995"
       sodipodi:rx="35.570995"
       sodipodi:cy="375.4017"
       sodipodi:cx="282.34476"
       id="path3108"
       style="fill:url(#radialGradient4039);fill-opacity:1;fill-rule:evenodd;stroke:#000000;stroke-width:0.5;stroke-linecap:round;stroke-linejoin:round;stroke-miterlimit:4;stroke-opacity:1;stroke-dasharray:none;stroke-dashoffset:0"
       sodipodi:type="arc" />
    <path
       inkscape:tile-y0="345.59409"
       inkscape:tile-x0="282.96551"
       inkscape:tile-h="14.92895"
       inkscape:tile-w="11.79025"
       inkscape:tile-cy="398.79042"
       inkscape:tile-cx="288.86064"
       inkscape:transform-center-y="-60.178641"
       sodipodi:nodetypes="ccczc"
       inkscape:connector-curvature="0"
       d="m 296.61805,356.94694 c -3.84599,-3.84599 -5.87757,-9.05331 -7.7574,-16.06893 -1.92774,7.19443 -4.1359,12.44742 -7.75741,16.06893 4.74917,1.25562 4.3592,3.57611 7.75741,3.57611 3.39821,0 3.00823,-2.32049 7.7574,-3.57611 z"
       style="fill:#ffac00;fill-opacity:1;fill-rule:evenodd;stroke:#000000;stroke-width:0.5;stroke-linecap:round;stroke-linejoin:round;stroke-miterlimit:4;stroke-opacity:1;stroke-dasharray:none;stroke-dashoffset:0"
       id="path3120" />
    <use
       height="1052.3622"
       width="744.09448"
       inkscape:transform-center-y="-31.21388"
       inkscape:transform-center-x="-31.213884"
       id="use4075"
       transform="matrix(0.70710678,0.70710678,-0.70710678,0.70710678,366.59273,-87.452306)"
       xlink:href="#path3120"
       inkscape:tiled-clone-of="#path3120"
       y="0"
       x="0" />
    <use
       height="1052.3622"
       width="744.09448"
       inkscape:transform-center-x="-45.73185"
       id="use4077"
       transform="matrix(0,1,-1,0,687.65105,109.92978)"
       xlink:href="#path3120"
       inkscape:tiled-clone-of="#path3120"
       y="0"
       x="0" />
    <use
       height="1052.3622"
       width="744.09448"
       inkscape:transform-center-y="31.213884"
       inkscape:transform-center-x="-31.213884"
       id="use4079"
       transform="matrix(-0.70710678,0.70710678,-0.70710678,-0.70710678,775.10336,476.52251)"
       xlink:href="#path3120"
       inkscape:tiled-clone-of="#path3120"
       y="0"
       x="0" />
    <use
       height="1052.3622"
       width="744.09448"
       inkscape:transform-center-y="45.73185"
       id="use4081"
       transform="matrix(-1,0,0,-1,577.72127,797.58083)"
       xlink:href="#path3120"
       inkscape:tiled-clone-of="#path3120"
       y="0"
       x="0" />
    <use
       height="1052.3622"
       width="744.09448"
       inkscape:transform-center-y="31.213884"
       inkscape:transform-center-x="31.213884"
       id="use4083"
       transform="matrix(-0.70710678,-0.70710678,0.70710678,-0.70710678,211.12854,885.03314)"
       xlink:href="#path3120"
       inkscape:tiled-clone-of="#path3120"
       y="0"
       x="0" />
    <use
       height="1052.3622"
       width="744.09448"
       inkscape:transform-center-x="45.73185"
       id="use4085"
       transform="matrix(0,-1,1,0,-109.92978,687.65105)"
       xlink:href="#path3120"
       inkscape:tiled-clone-of="#path3120"
       y="0"
       x="0" />
    <use
       height="1052.3622"
       width="744.09448"
       inkscape:transform-center-y="-31.213884"
       inkscape:transform-center-x="31.213884"
       id="use4087"
       transform="matrix(0.70710678,-0.70710678,0.70710678,0.70710678,-197.38209,321.05832)"
       xlink:href="#path3120"
       inkscape:tiled-clone-of="#path3120"
       y="0"
       x="0" />
  </g>
  <path
     style="color:#ff0000;fill:none;stroke:#000000;stroke-width:1;stroke-linecap:butt;stroke-linejoin:miter"
     d="M 76.335376,55.133691 C 118.08821,22.585821 170.81093,3.3474007 223.87931,3.7538007 c 89.01727,3.62555 172.85887,65.9491803 199.92547,151.1620793 22.5767,67.59377 8.2936,146.57799 -38.849,200.46272 C 334.6288,415.87385 250.08234,445.75255 173.05924,428.52245 96.897896,412.72145 29.670763,353.63389 10.214173,277.43245 -7.9149475,208.92438 6.6920825,130.73694 54.685943,77.427781 c 6.67976,-7.93649 14.031603,-15.26223 21.649433,-22.29409 z"
     id="path4493"
     inkscape:connector-curvature="0" />
  <path
     style="color:#ff0000;fill:none;stroke:#000000;stroke-width:1;stroke-linecap:butt;stroke-linejoin:miter"
     d="m 124.13538,77.433691 c 39.97352,-23.26012 89.2095,-34.61104 134.50143,-21.36566 68.48524,17.3352 120.38677,78.771179 134.19387,146.915739 7.5516,38.16451 -9.0776,76.4829 -30.11537,107.52329 -33.19574,49.28573 -91.84401,81.09199 -151.64953,78.24399 C 147.67835,386.90475 87.410416,346.32503 62.422986,287.95211 35.758763,229.20939 47.281983,156.07217 89.985766,107.87322 99.984416,96.289611 111.56851,86.149151 124.13538,77.433691 z"
     id="path4491"
     inkscape:connector-curvature="0" />
  <path
     style="color:#ff0000;fill:none;stroke:#000000;stroke-width:1;stroke-linecap:butt;stroke-linejoin:miter"
     d="M 218.93538,5.3336907 C 143.80301,7.1622507 71.060456,50.182561 34.409003,115.98862 c -37.1630105,64.21253 -36.7527505,147.95442 1.27693,211.70162 37.985663,66.07381 113.131437,107.49101 189.042297,106.74341 71.76301,0.063 141.86725,-39.6766 178.68305,-101.30095 17.0448,-28.6248 31.6791,-61.4747 28.9241,-95.49901 0.1682,-8.73925 -6.201,-9.2711 -11.0306,-3.31297 -6.1512,5.09882 -15.2724,-5.56247 -19.4694,3.71297 -11.3004,23.01262 -18.7715,48.12239 -33.8669,69.21986 -33.43136,52.01594 -94.45733,86.1419 -156.76154,82.6699 C 138.70497,387.48615 69.597926,334.66207 52.935373,263.23369 39.620593,208.89793 52.833073,147.61343 91.974416,106.73507 126.73476,68.734581 178.85512,45.489951 230.595,49.327781 c 58.34857,5.20574 111.54026,41.59263 140.43808,92.109339 13.5219,21.20856 19.8871,45.82063 30.9023,68.19657 4.3826,8.53812 15.0998,4.12463 22.6,5.9 8.1838,-4.93625 5.5491,-17.19879 5.3303,-25.39727 -5.9434,-45.04912 -29.2283,-86.74907 -59.9696,-119.666529 -32.84806,-33.6063 -77.36701,-55.4959 -123.64067,-62.8506003 -9.04036,-1.38681 -18.1959,-1.81805 -27.32003,-2.2856 z"
     id="path4489"
     inkscape:connector-curvature="0" />
  <path
     style="color:#ff0000;fill:none;stroke:#000000;stroke-width:1;stroke-linecap:butt;stroke-linejoin:miter"
     d="m 218.93538,7.3336907 c 72.57282,1.44764 142.52699,42.0136103 180.3354,103.8951693 15.8508,26.4164 29.7723,56.4979 28.2007,87.96787 0.6425,13.44417 -19.1379,15.08598 -24.3361,4.53696 -12.3543,-22.95996 -19.6536,-48.57626 -34.5506,-70.27117 C 336.8144,83.445931 280.78931,48.990651 221.15347,46.965721 170.2441,47.150611 119.45464,69.977681 87.448116,109.97217 47.045583,157.00939 35.373183,226.47392 58.843933,283.96494 c 21.536823,55.97621 74.079387,99.65459 134.205967,106.49511 63.65336,9.3185 130.19491,-19.53338 168.61238,-70.7878 18.3323,-22.62285 28.4507,-50.14625 40.6045,-76.20409 2.6088,-7.63653 10.6661,-6.51125 16.9686,-6.43447 4.8677,-2.10945 12.0668,-1.07695 11.2,5.8 1.6195,41.06164 -18.7787,79.71629 -43.8,111 -46.25683,56.92486 -122.92074,86.86826 -195.50304,76.12456 C 116.54873,420.13805 49.379813,367.57781 22.822933,297.05749 -5.1329775,227.50873 8.8919425,143.83365 56.994943,86.544531 96.269116,38.357211 156.87265,9.0510507 218.93538,7.3336907 z"
     id="path4487"
     inkscape:connector-curvature="0" />
  <path
     style="color:#ff0000;fill:none;stroke:#000000;stroke-width:1;stroke-linecap:butt;stroke-linejoin:miter"
     d="m 428.73538,253.43369 c -2.8184,37.4974 -20.0808,73.18058 -44.0424,101.75436 -47.38526,55.7632 -124.14615,84.2939 -196.45379,73.0168 C 130.77665,420.72955 78.043646,386.77617 46.545833,338.274 4.9513225,277.54885 -0.91380746,194.4767 32.512213,128.78327 59.201653,74.211461 109.69848,31.132901 169.13995,16.838501 c 29.14615,-7.9825703 60.02041,-9.6489503 89.52636,-2.53725 79.54637,16.75419 148.79467,81.16665 164.92557,161.767149 1.093,9.52586 4.9503,23.53782 -4.8565,29.66529 -12.5291,3.68318 -17.4098,-11.48679 -21.7058,-20.13059 C 378.49248,140.97162 351.92604,96.883561 309.21736,71.749011 278.41045,52.779171 241.34848,42.729321 205.17737,45.840941 139.71799,51.857821 79.503666,96.768791 56.330823,158.48273 c -23.81354,59.6186 -10.22118,131.7804 33.647353,178.65407 49.902424,55.72295 136.694914,72.91185 204.316754,41.25979 48.32064,-21.67423 80.88085,-66.98632 101.46545,-114.318 5.0925,-8.54466 6.8321,-22.24779 17.675,-25.2449 6.2625,-1.11647 13.8142,1.17652 14.1169,8.69733 0.6151,1.92368 0.8566,3.91793 1.1831,5.90267 z"
     id="path4485"
     inkscape:connector-curvature="0" />
  <path
     style="color:#ff0000;fill:none;stroke:#000000;stroke-width:1;stroke-linecap:butt;stroke-linejoin:miter"
     d="M 419.43538,292.33369 C 392.92998,367.77676 318.76178,422.55795 239.33923,428.35715 163.19354,435.34815 84.857966,396.86765 44.699953,331.63852 4.4868225,269.6344 2.3587025,185.8671 38.600203,121.58025 75.206926,54.023671 151.24147,9.7146307 228.13538,12.333691 c 67.44883,4.45309 131.16008,42.90217 166.9949,100.134799 14.6904,24.049 27.5832,51.39892 26.8051,80.1652 0.7751,7.77239 -9.0888,13.63944 -13.9,6 -12.0609,-18.18349 -18.0646,-39.7946 -30.0745,-58.12413 C 348.40121,89.364831 295.62193,51.144971 236.40317,44.168891 192.23735,38.715561 147.00534,54.180811 111.77881,80.552911 58.651723,118.60809 33.695963,188.70604 45.301443,252.27305 c 8.00878,51.24103 41.140183,97.47699 87.103457,121.51732 54.41643,30.10968 124.3153,28.98608 177.58269,-3.21487 41.56183,-24.06744 70.89299,-64.39397 89.85339,-107.7927 4.1431,-6.87976 7.3489,-19.18319 17.2944,-18.44911 10.5494,5.62822 6.9067,20.252 6.2,30 -0.9447,6.0813 -2.412,12.03386 -3.9,18 z"
     id="path4483"
     inkscape:connector-curvature="0" />
  <path
     style="color:#ff0000;fill:none;stroke:#ff0000;stroke-width:1;stroke-linecap:butt;stroke-linejoin:miter;marker-mid:url(#Arrow1Lend)"
     d="M 194.88373,425.77915 C 120.51963,416.41395 53.427293,363.60166 28.116903,292.86795 1.4642225,223.30014 17.695993,140.09943 67.822706,85.135481 107.59935,40.493721 167.30485,13.467131 227.23538,15.133691 c 66.19649,4.03763 128.80253,41.36786 164.549,97.099719 13.8456,22.33239 26.7484,47.59106 26.051,74.50028 0.5469,6.51422 -7.0246,9.04354 -9.9,2.9 -13.5715,-22.38179 -22.8948,-47.36334 -39.2682,-68.09517 C 333.57589,72.395911 274.9098,39.439141 213.98771,40.389601 144.77566,43.181551 79.024396,88.443451 53.322393,153.0371 c -25.38017,59.5382 -14.13866,132.45832 28.070113,181.55992 42.044024,50.86171 113.520864,74.44123 177.600404,58.83863 57.21642,-12.66561 104.1982,-54.67464 131.81447,-105.29545 7.3402,-11.5592 11.4284,-25.53175 21.228,-35.30651 7.9456,-2.62663 7.4707,10.00584 7.2,15 -2.6972,29.79242 -16.2506,57.67372 -32.9,82.1 -44.95838,56.29686 -120.14555,86.03516 -191.45165,75.84546 z"
     id="path4481"
     inkscape:connector-curvature="0"
     sodipodi:nodetypes="ccccccccccccccccc" />
  <path
     style="color:#ff0000;fill:none;stroke:#000000;stroke-width:1;stroke-linecap:butt;stroke-linejoin:miter"
     d="m 336.33534,392.63365 c -60.66245,38.8625 -142.62757,45.2814 -206.50499,10.2327 C 67.141406,370.93139 23.014113,304.99299 19.560403,234.45908 14.592123,162.59045 52.054603,90.296421 112.82525,51.903771 c 42.72135,-27.60693 96.33108,-41.20001 146.42637,-28.41624 69.04705,15.3979 131.35186,67.63685 150.75656,136.754309 0.5239,4.75001 4.2582,12.86846 -0.5728,15.79185 -9.7617,-8.37897 -13.7359,-21.923 -21.0583,-32.43372 -29.93562,-51.968899 -81.0694,-93.134049 -140.90262,-103.723729 -39.72139,-7.99779 -81.58042,1.599 -116.86065,20.50893 C 67.933996,95.412001 28.561323,169.09311 37.543153,240.78596 c 7.61629,75.31118 66.795857,143.53662 141.942307,157.34299 63.2519,13.2468 131.34881,-9.5252 176.16389,-55.54132 20.93803,-19.87911 35.16443,-45.17694 50.88493,-69.02614 6.6063,-7.30982 5.7974,7.04176 4.3494,10.88493 -10.2023,43.7209 -38.6363,81.89767 -74.54834,108.18723 z"
     id="path4479"
     inkscape:connector-curvature="0" />
  <path
     id="path4414"
     style="color:#ff0000;fill:none;stroke:#000000;stroke-width:1;stroke-linecap:butt;stroke-linejoin:miter"
     d="m 223.93538,25.233691 c 55.67422,1.41452 109.80186,28.7139 145.6376,71.04219 3.4682,4.615229 8.371,9.367529 9.9624,14.657809 -16.94669,-14.245189 -32.2339,-30.955199 -51.04444,-43.098799 -41.85621,-28.88864 -95.01759,-44.28258 -145.55556,-34.0012 -10.4657,1.3443 -21.10665,4.8159 -31.3,5.8 22.44364,-10.03015 47.80436,-14.22926 72.3,-14.4 z M 365.93534,349.93369 c 5.17554,-5.52988 9.52954,-12.21611 15.70004,-16.6 -7.6259,16.12343 -21.84375,28.79689 -35.30004,40.4 -41.03644,33.37856 -95.38002,49.00086 -147.89861,43.14436 -10.40973,-1.1144 -21.11873,-2.0675 -31.00135,-5.5444 24.22434,1.3082 48.97078,4.6723 73.3273,0.9336 47.2205,-5.861 92.12766,-28.04911 125.17266,-62.33356 z"
     inkscape:connector-curvature="0" />
  <text
     xml:space="preserve"
     style="font-size:24px;font-style:normal;font-variant:normal;font-weight:normal;font-stretch:normal;text-align:center;line-height:125%;letter-spacing:0px;word-spacing:0px;writing-mode:lr-tb;text-anchor:middle;fill:#000000;fill-opacity:1;stroke:none;font-family:DejaVu Sans;-inkscape-font-specification:DejaVu Sans"
     x="218.31735"
     y="127.96178"
     id="text4523"
     sodipodi:linespacing="125%"><tspan
       sodipodi:role="line"
       id="tspan4525"
       x="218.31735"
       y="127.96178">Référentiel tournant</tspan><tspan
       sodipodi:role="line"
       x="218.31735"
       y="157.96178"
       id="tspan4527">avec la planète</tspan></text>
  <text
     xml:space="preserve"
     style="font-size:24px;font-style:normal;font-variant:normal;font-weight:normal;font-stretch:normal;text-align:center;line-height:125%;letter-spacing:0px;word-spacing:0px;writing-mode:lr-tb;text-anchor:middle;fill:#000000;fill-opacity:1;stroke:none;font-family:DejaVu Sans;-inkscape-font-specification:DejaVu Sans"
     x="218.66306"
     y="279.59613"
     id="text4529"
     sodipodi:linespacing="125%"><tspan
       sodipodi:role="line"
       id="tspan4531"
       x="218.66306"
       y="279.59613">Étoile</tspan></text>
  <text
     xml:space="preserve"
     style="font-size:24px;font-style:normal;font-variant:normal;font-weight:normal;font-stretch:normal;text-align:center;line-height:125%;letter-spacing:0px;word-spacing:0px;writing-mode:lr-tb;text-anchor:middle;fill:#000000;fill-opacity:1;stroke:none;font-family:DejaVu Sans;-inkscape-font-specification:DejaVu Sans"
     x="339.07904"
     y="227.84065"
     id="text4533"
     sodipodi:linespacing="125%"><tspan
       sodipodi:role="line"
       id="tspan4535"
       x="339.07904"
       y="227.84065">Planète</tspan></text>
</svg>
