<?xml version="1.0" encoding="UTF-8" standalone="no"?>
<!-- Created with Inkscape (http://www.inkscape.org/) -->

<svg
   xmlns:dc="http://purl.org/dc/elements/1.1/"
   xmlns:cc="http://creativecommons.org/ns#"
   xmlns:rdf="http://www.w3.org/1999/02/22-rdf-syntax-ns#"
   xmlns:svg="http://www.w3.org/2000/svg"
   xmlns="http://www.w3.org/2000/svg"
   xmlns:xlink="http://www.w3.org/1999/xlink"
   xmlns:sodipodi="http://sodipodi.sourceforge.net/DTD/sodipodi-0.dtd"
   xmlns:inkscape="http://www.inkscape.org/namespaces/inkscape"
   inkscape:version="0.48.2 r9819"
   version="1.1"
   id="svg2"
   height="562.1438"
   width="1764.9263"
   sodipodi:docname="corotation_torque.svg">
  <defs
     id="defs4">
    <linearGradient
       id="linearGradient4033">
      <stop
         style="stop-color:#ffff00;stop-opacity:1;"
         offset="0"
         id="stop4035" />
      <stop
         style="stop-color:#ff8800;stop-opacity:1;"
         offset="1"
         id="stop4037" />
    </linearGradient>
    <marker
       style="overflow:visible"
       id="Arrow2Mend"
       refX="0"
       refY="0"
       orient="auto"
       inkscape:stockid="Arrow2Mend">
      <path
         inkscape:connector-curvature="0"
         transform="scale(-0.6,-0.6)"
         d="M 8.7185878,4.0337352 -2.2072895,0.01601326 8.7185884,-4.0017078 c -1.7454984,2.3720609 -1.7354408,5.6174519 -6e-7,8.035443 z"
         style="font-size:12px;fill-rule:evenodd;stroke-width:0.625;stroke-linejoin:round"
         id="path5225" />
    </marker>
    <radialGradient
       inkscape:collect="always"
       xlink:href="#linearGradient4033"
       id="radialGradient4838"
       gradientUnits="userSpaceOnUse"
       gradientTransform="matrix(1.3296497,0,0,1.3296497,-93.074866,-123.75106)"
       cx="282.34476"
       cy="375.4017"
       fx="282.34476"
       fy="375.4017"
       r="35.820995" />
  </defs>
  <sodipodi:namedview
     id="base"
     pagecolor="#ffffff"
     bordercolor="#666666"
     borderopacity="1.0"
     inkscape:pageopacity="0.0"
     inkscape:pageshadow="2"
     inkscape:zoom="0.31805994"
     inkscape:cx="878.98441"
     inkscape:cy="66.922261"
     inkscape:document-units="px"
     inkscape:current-layer="layer1"
     showgrid="false"
     inkscape:object-nodes="true"
     inkscape:snap-object-midpoints="true"
     inkscape:object-paths="false"
     inkscape:snap-intersection-paths="true"
     inkscape:snap-center="true"
     inkscape:snap-global="true"
     fit-margin-top="0"
     fit-margin-left="0"
     fit-margin-right="0"
     fit-margin-bottom="0" />
  <metadata
     id="metadata7">
    <rdf:RDF>
      <cc:Work
         rdf:about="">
        <dc:format>image/svg+xml</dc:format>
        <dc:type
           rdf:resource="http://purl.org/dc/dcmitype/StillImage" />
        <dc:title></dc:title>
      </cc:Work>
    </rdf:RDF>
  </metadata>
  <g
     inkscape:label="Calque 1"
     inkscape:groupmode="layer"
     id="layer1"
     transform="translate(952.84811,601.56396)">
    <use
       x="0"
       y="0"
       xlink:href="#path6021"
       id="use6559"
       transform="translate(-644.03775,0)"
       width="744.09448"
       height="1052.3622" />
    <use
       x="0"
       y="0"
       xlink:href="#layer1-2"
       id="use6561"
       transform="translate(-644.03781,3e-5)"
       width="744.09448"
       height="1052.3622" />
    <use
       height="1052.3622"
       width="744.09448"
       transform="translate(-642.64831,2e-5)"
       id="use6571"
       xlink:href="#path5123"
       y="0"
       x="0" />
    <path
       id="path4096"
       style="fill:none;stroke:#0000ff;stroke-width:0.55179834;stroke-linecap:butt;stroke-linejoin:miter;stroke-miterlimit:4;stroke-opacity:1;stroke-dashoffset:0"
       d="m -84.584672,-410.64542 c -61.142108,5.50092 -114.588568,58.78279 -118.585128,120.22515 2.6769,-15.19551 5.78968,-30.79804 13.02247,-44.67402 18.36133,-38.60666 55.93281,-67.00273 98.165731,-73.81068 1.337846,-0.62571 12.106593,-1.47677 8.066332,-1.77393 l -0.669405,0.0334 z m 2.342918,0.1003 c 0.10282,0.0172 -0.01724,-0.10282 0,0 z m 25.303513,0.23429 c 9.20764,2.45721 18.930434,2.50236 27.847252,6.29242 48.563228,15.55629 85.553269,61.17181 90.838274,111.95799 0.790462,3.77341 0.715636,-3.85856 0.267762,-5.28829 -3.766009,-17.8949 -8.917307,-35.86165 -19.178456,-51.14255 -21.726975,-34.41062 -59.354362,-59.07276 -100.209945,-61.95345 l 0.435113,0.13388 z m -146.365439,145.32785 c 2.05079,23.42207 10.63365,46.33781 24.66758,65.23353 22.35574,30.5945 57.7224,52.2072 95.858821,54.6904 -12.150923,-2.43777 -24.529811,-4.04966 -35.980531,-9.10391 -43.29823,-16.92644 -76.42261,-57.57163 -82.97276,-103.75779 -0.36832,-2.0172 -0.95588,-6.25978 -1.57311,-7.06223 z m 265.285257,0.26777 c -2.065603,7.42046 -1.497636,15.40875 -4.551955,22.65936 -13.789988,50.61721 -59.6968326,90.21539 -111.891064,96.0931 -5.937528,0.60474 -0.236873,1.09668 2.510269,0.60247 20.864008,-3.61274 41.387028,-10.75169 58.4748549,-23.41438 31.1106891,-22.25894 53.1544171,-57.89491 55.6252471,-96.27521 l -0.167352,0.33471 z m -147.001363,-150.2144 c -55.444954,5.23782 -104.996754,47.74185 -118.699584,101.81224 -1.72733,8.62465 -4.64976,17.77741 -3.23257,26.51272 0.77344,3.39254 4.93523,4.19877 6.35936,0.6694 4.57577,-7.59289 2.72714,-17.04693 6.15893,-25.13552 12.31575,-48.05016 54.81526,-86.51064 104.107217,-93.58004 4.758827,-1.2404 13.597106,-0.76716 14.109325,-7.40036 -1.675195,-2.63152 -5.888666,-3.00927 -8.802678,-2.87844 z m 25.805568,0 c -3.507748,-0.11953 -8.241899,4.1416 -3.380497,6.72751 7.104692,4.81688 16.570144,2.76289 24.366797,6.08774 47.9639411,11.8777 86.607146,53.77593 94.31873,102.62366 1.614204,5.09812 0.455115,15.46023 7.898981,15.83143 6.050648,-7.93494 0.309322,-18.6849 -0.736346,-27.54602 -13.093266,-55.71824 -65.0109223,-100.61253 -122.467665,-103.72432 z m -144.926212,142.81757 c -6.13464,3.91491 -2.47974,12.7902 -1.98635,18.65956 9.53121,57.01189 58.6204,104.55252 115.952576,112.07526 4.397958,0.72037 11.943675,2.09283 13.923626,-3.04579 -2.702802,-7.28064 -12.330989,-5.39038 -18.375171,-7.19611 -45.892721,-8.72058 -85.646131,-43.90604 -98.636851,-88.897 -3.14272,-9.35015 -3.64598,-19.54142 -6.92835,-28.71747 -0.93538,-1.25529 -2.22382,-2.95834 -3.94948,-2.87845 z m 266.992234,0.0334 c -7.61371,3.62637 -5.253513,14.15102 -7.631218,21.01932 -9.701659,46.36876 -46.6071971,85.75294 -92.711677,97.23259 -7.776678,2.63206 -16.431432,2.65905 -24.032575,5.42069 -2.36361,1.18126 -5.206076,5.58074 -0.803286,6.52669 10.1557,3.35879 20.744114,-2.1643 30.826105,-3.64825 52.859419,-15.2551 94.268248,-64.61043 98.134789,-119.58923 -0.08641,-2.40326 -0.584387,-6.92278 -3.782138,-6.96181 z M -85.722661,-427.7822 c -65.970159,5.67194 -124.104919,60.40629 -133.546319,126.04898 -2.0293,8.10595 -1.22859,17.24679 2.34291,24.46676 -7.16091,12.21093 -1.48747,27.04177 1.29076,39.75707 15.8252,59.16933 71.09792,105.96434 132.590269,109.55375 4.592334,0.49411 8.937147,-1.86147 12.886049,-3.58132 12.769529,7.81996 28.082326,1.09666 41.369236,-1.4727 58.55831,-16.19657 104.488229,-71.23019 108.410157,-132.17404 0.246119,-4.7929 -2.951743,-9.42349 -3.347025,-13.65586 7.163833,-12.6948 0.638206,-27.75695 -1.941274,-40.86718 -16.606328,-59.09651 -72.548135,-105.75042 -134.483487,-107.97504 -3.985692,-0.17305 -7.689216,3.18131 -11.078655,3.17967 -4.324154,-2.66239 -9.474204,-3.52757 -14.492621,-3.28009 z m 15.597139,29.95589 c 11.737371,8.166 27.384528,5.13996 39.871311,11.59572 41.061033,14.82624 71.089126,54.59101 75.232898,97.81854 0.529361,3.97976 3.201714,7.75468 4.418074,11.11213 -7.781642,11.35385 -4.981235,26.3446 -11.031622,38.46385 -14.432049,41.4258 -54.365937,72.25183 -97.981001,76.37259 -4.075799,0.48396 -7.986881,3.0318 -11.279475,4.51849 -11.555604,-8.00057 -26.882496,-4.98358 -39.162663,-11.27733 -41.38148,-14.73971 -71.91429,-54.89969 -75.84114,-98.47164 -0.65729,-3.80955 -2.95771,-7.41063 -4.41807,-10.5766 8.0719,-11.93378 5.04035,-27.6089 11.64765,-40.26472 15.09826,-40.881 54.74176,-70.68448 97.967437,-74.80602 3.794199,-0.66117 7.522861,-2.65815 10.576601,-4.48501 z m 12.250114,-25.70516 c -4.634726,-0.025 -9.509505,2.25279 -12.785638,4.75278 -9.092996,-8.32906 -22.543969,-3.59075 -33.169024,-1.67351 -53.18946,12.18338 -97.66819,56.42848 -109.31386,109.78243 -1.54817,10.49322 -6.48854,23.19091 1.40575,32.26533 1.03907,1.6467 -2.79632,3.40988 -2.77803,5.58953 -4.28288,12.21402 1.45949,25.15087 3.88255,37.18545 16.18395,55.66125 68.41687,98.92386 126.31675,103.5235 5.131842,0.36572 10.68016,-2.07705 14.191388,-4.81971 9.275084,8.68954 23.026711,3.29933 33.779457,1.4077 57.278101,-12.85571 103.123087,-63.56299 110.979398,-121.56592 1.712793,-6.99199 0.336595,-15.63419 -4.116841,-21.05279 8.747117,-9.68183 3.107673,-23.69462 1.117383,-34.85287 -13.8551,-59.26362 -68.5140228,-106.64123 -129.509283,-110.54192 z m -12.350524,19.94827 c 8.800952,9.40847 23.336104,6.20653 34.424934,10.99863 42.1358487,12.52586 75.727778,49.48608 83.122603,92.95998 1.624312,7.5651 1.685321,16.74839 8.233683,21.78914 -9.400273,8.38105 -6.455718,22.51627 -10.875776,33.32722 -12.164581,43.19288 -50.3137554,77.63444 -94.65594,84.72237 -7.216401,1.34047 -15.672702,1.62264 -20.416856,8.03287 -8.192319,-9.48506 -22.351276,-6.5477 -33.001676,-10.8109 -43.05152,-12.0651 -77.69388,-49.93467 -84.97646,-94.2341 -1.50226,-7.31348 -1.51268,-16.16222 -8.13779,-20.93705 9.66278,-8.54528 6.50658,-23.15633 11.1456,-34.17313 12.55305,-43.30604 51.22014,-77.62272 95.874436,-84.20504 6.8,-1.11818 14.593033,-1.8989 19.02895,-7.77122 l 0.234292,0.30123 z m 93.508883,207.11712 c 16.998831,-19.37347 27.161096,-44.26137 30.123231,-69.85242 1.183529,-5.68624 7.633982,-13.37975 13.655863,-8.76919 7.177512,7.31862 2.552779,18.56974 1.372271,27.31172 -5.536827,26.70796 -19.316665,51.2162 -38.454036,70.35356 -19.137372,19.13737 -43.645599,32.91719 -70.353572,38.45403 -8.741981,1.18051 -19.993107,5.80523 -27.311729,-1.37228 -4.610551,-6.02187 3.082959,-12.47233 8.769208,-13.65586 25.591035,-2.96212 50.4789551,-13.1244 69.852428,-30.12323 2.224866,-1.89063 4.379216,-3.85446 6.435543,-5.91078 2.056327,-2.05632 4.020168,-4.21068 5.910793,-6.43555 z m -175.081911,12.35264 c 19.37347,16.99883 44.26138,27.16109 69.852429,30.12322 5.686238,1.18354 13.379749,7.63398 8.769196,13.65587 -7.318622,7.17752 -18.569747,2.55278 -27.311735,1.37227 -26.70796,-5.53682 -51.2162,-19.31666 -70.35355,-38.45403 -19.13738,-19.13737 -32.91721,-43.6456 -38.45404,-70.35357 -1.1805,-8.74199 -5.80523,-19.99311 1.37228,-27.31173 6.02188,-4.61055 12.47233,3.08296 13.65587,8.76921 2.96212,25.59103 13.12439,50.47895 30.12323,69.85242 1.89062,2.22487 3.85445,4.37922 5.91078,6.43554 2.05631,2.05633 4.21068,4.02018 6.43554,5.9108 z m -12.35263,-175.08192 c -16.99883,19.37348 -27.1611,44.26138 -30.12324,69.85243 -1.18352,5.68624 -7.63398,13.37975 -13.65586,8.76919 -7.17751,-7.31861 -2.55277,-18.56974 -1.37227,-27.31173 5.53683,-26.70795 19.31667,-51.21619 38.45404,-70.35355 19.13737,-19.13737 43.6456,-32.91719 70.35357,-38.45404 8.741981,-1.18049 19.993106,-5.80522 27.311729,1.37229 4.610552,6.02187 -3.082959,12.47234 -8.769207,13.65586 -25.591042,2.96212 -50.478952,13.12441 -69.852432,30.12323 -2.22487,1.89063 -4.37921,3.85446 -6.43554,5.91078 -2.05633,2.05632 -4.02017,4.21068 -5.91079,6.43554 z m 175.081917,-12.35261 c -19.3734688,-16.99884 -44.261381,-27.1611 -69.852428,-30.12323 -5.686238,-1.18354 -13.379747,-7.63399 -8.769196,-13.65587 7.318622,-7.17751 18.569747,-2.55278 27.311729,-1.37227 26.707963,5.53682 51.216199,19.31667 70.353565,38.45403 19.137366,19.13738 32.917194,43.6456 38.454027,70.35357 1.180499,8.74198 5.805232,19.99311 -1.37228,27.31173 -6.021872,4.61055 -12.472335,-3.08295 -13.655865,-8.76921 -2.962123,-25.59103 -13.124399,-50.47894 -30.123229,-69.85242 -1.890626,-2.22487 -3.854457,-4.37922 -5.910777,-6.43554 -2.05632,-2.05633 -4.210678,-4.02018 -6.435546,-5.91079 z"
       inkscape:connector-curvature="0" />
    <text
       xml:space="preserve"
       style="font-size:28px;font-style:normal;font-variant:normal;font-weight:normal;font-stretch:normal;text-align:center;line-height:125%;letter-spacing:0px;word-spacing:0px;writing-mode:lr-tb;text-anchor:middle;fill:#000000;fill-opacity:1;stroke:none;font-family:DejaVu Sans;-inkscape-font-specification:DejaVu Sans"
       x="-70.55584"
       y="-579.72998"
       id="text5105"
       sodipodi:linespacing="125%"><tspan
         sodipodi:role="line"
         x="-70.55584"
         y="-579.72998"
         id="tspan5109">Illustration de la superposition</tspan><tspan
         sodipodi:role="line"
         x="-70.55584"
         y="-544.72998"
         id="tspan5131">des modes m=3 et m=4</tspan></text>
    <text
       xml:space="preserve"
       style="font-size:28px;font-style:normal;font-variant:normal;font-weight:normal;font-stretch:normal;text-align:center;line-height:125%;letter-spacing:0px;word-spacing:0px;writing-mode:lr-tb;text-anchor:middle;fill:#000000;fill-opacity:1;stroke:none;font-family:DejaVu Sans;-inkscape-font-specification:DejaVu Sans"
       x="574.07666"
       y="-579.16943"
       id="text5111"
       sodipodi:linespacing="125%"><tspan
         sodipodi:role="line"
         id="tspan5113"
         x="574.07666"
         y="-579.16943">Interférence</tspan><tspan
         sodipodi:role="line"
         x="574.07666"
         y="-544.16943"
         id="tspan5115">de tous les modes m</tspan></text>
    <path
       style="fill:#cccccc;fill-opacity:1;fill-rule:evenodd;stroke:#000000;stroke-width:9;stroke-linecap:butt;stroke-linejoin:miter;stroke-miterlimit:4;stroke-opacity:1;stroke-dasharray:none;stroke-dashoffset:0;marker-end:url(#Arrow2Mend)"
       d="m 204.87961,-288.08996 86.08924,0"
       id="path5193"
       inkscape:connector-curvature="0"
       sodipodi:nodetypes="cc" />
    <path
       inkscape:connector-curvature="0"
       id="path6021"
       style="fill:#cccccc;fill-rule:evenodd;stroke:#000000;stroke-width:1;stroke-linecap:butt;stroke-linejoin:miter;stroke-miterlimit:4;stroke-opacity:1;stroke-dasharray:none;stroke-dashoffset:0"
       d="m 626.56159,-277.84555 c 0,29.22507 -23.6881,52.91667 -52.9088,52.91667 -29.2208,0 -52.9089,-23.6916 -52.9089,-52.91667 0,-29.22507 23.6881,-52.91667 52.9089,-52.91667 29.2207,0 52.9088,23.6916 52.9088,52.91667 z m 185.0166,-2e-5 c 0,131.40259 -106.5229,237.925426 -237.9255,237.925426 -131.4025,0 -237.9254,-106.522836 -237.9254,-237.925426 0,-131.40259 106.5229,-237.92543 237.9254,-237.92543 131.4026,0 237.9255,106.52284 237.9255,237.92543 z" />
    <path
       sodipodi:type="arc"
       style="fill:none;stroke:#000000;stroke-width:0.99999994;stroke-linecap:butt;stroke-linejoin:miter;stroke-miterlimit:4;stroke-opacity:1;stroke-dasharray:5.99999982, 5.99999982;stroke-dashoffset:0"
       id="path2985-9"
       sodipodi:cx="302.35345"
       sodipodi:cy="336.49591"
       sodipodi:rx="254.55493"
       sodipodi:ry="254.55493"
       d="m 556.90839,336.49591 c 0,140.58681 -113.96813,254.55493 -254.55494,254.55493 -140.5868,0 -254.554927,-113.96812 -254.554927,-254.55493 0,-140.58681 113.968127,-254.554931 254.554927,-254.554931 140.58681,0 254.55494,113.968121 254.55494,254.554931 z"
       transform="matrix(0.51690929,0,0,0.51698552,417.36345,-451.80911)" />
    <g
       transform="matrix(0.20730299,0,0,0.20730299,513.77115,-360.51604)"
       id="layer1-2"
       inkscape:label="Calque 1">
      <path
         transform="translate(6.5158829,23.388712)"
         d="m 317.91575,375.4017 c 0,19.64532 -15.92567,35.571 -35.57099,35.571 -19.64532,0 -35.571,-15.92568 -35.571,-35.571 0,-19.64532 15.92568,-35.57099 35.571,-35.57099 19.64532,0 35.57099,15.92567 35.57099,35.57099 z"
         sodipodi:ry="35.570995"
         sodipodi:rx="35.570995"
         sodipodi:cy="375.4017"
         sodipodi:cx="282.34476"
         id="path3108"
         style="fill:url(#radialGradient4838);fill-opacity:1;fill-rule:evenodd;stroke:#000000;stroke-width:0.5;stroke-linecap:round;stroke-linejoin:round;stroke-miterlimit:4;stroke-opacity:1;stroke-dasharray:none;stroke-dashoffset:0"
         sodipodi:type="arc" />
      <path
         inkscape:tile-y0="345.59409"
         inkscape:tile-x0="282.96551"
         inkscape:tile-h="14.92895"
         inkscape:tile-w="11.79025"
         inkscape:tile-cy="398.79042"
         inkscape:tile-cx="288.86064"
         inkscape:transform-center-y="-60.178641"
         sodipodi:nodetypes="ccczc"
         inkscape:connector-curvature="0"
         d="m 296.61805,356.94694 c -3.84599,-3.84599 -5.87757,-9.05331 -7.7574,-16.06893 -1.92774,7.19443 -4.1359,12.44742 -7.75741,16.06893 4.74917,1.25562 4.3592,3.57611 7.75741,3.57611 3.39821,0 3.00823,-2.32049 7.7574,-3.57611 z"
         style="fill:#ffac00;fill-opacity:1;fill-rule:evenodd;stroke:#000000;stroke-width:0.5;stroke-linecap:round;stroke-linejoin:round;stroke-miterlimit:4;stroke-opacity:1;stroke-dasharray:none;stroke-dashoffset:0"
         id="path3120" />
      <use
         height="1052.3622"
         width="744.09448"
         inkscape:transform-center-y="-31.21388"
         inkscape:transform-center-x="-31.213884"
         id="use4075"
         transform="matrix(0.70710678,0.70710678,-0.70710678,0.70710678,366.59273,-87.452306)"
         xlink:href="#path3120"
         inkscape:tiled-clone-of="#path3120"
         y="0"
         x="0" />
      <use
         height="1052.3622"
         width="744.09448"
         inkscape:transform-center-x="-45.73185"
         id="use4077"
         transform="matrix(0,1,-1,0,687.65105,109.92978)"
         xlink:href="#path3120"
         inkscape:tiled-clone-of="#path3120"
         y="0"
         x="0" />
      <use
         height="1052.3622"
         width="744.09448"
         inkscape:transform-center-y="31.213884"
         inkscape:transform-center-x="-31.213884"
         id="use4079"
         transform="matrix(-0.70710678,0.70710678,-0.70710678,-0.70710678,775.10336,476.52251)"
         xlink:href="#path3120"
         inkscape:tiled-clone-of="#path3120"
         y="0"
         x="0" />
      <use
         height="1052.3622"
         width="744.09448"
         inkscape:transform-center-y="45.73185"
         id="use4081"
         transform="matrix(-1,0,0,-1,577.72127,797.58083)"
         xlink:href="#path3120"
         inkscape:tiled-clone-of="#path3120"
         y="0"
         x="0" />
      <use
         height="1052.3622"
         width="744.09448"
         inkscape:transform-center-y="31.213884"
         inkscape:transform-center-x="31.213884"
         id="use4083"
         transform="matrix(-0.70710678,-0.70710678,0.70710678,-0.70710678,211.12854,885.03314)"
         xlink:href="#path3120"
         inkscape:tiled-clone-of="#path3120"
         y="0"
         x="0" />
      <use
         height="1052.3622"
         width="744.09448"
         inkscape:transform-center-x="45.73185"
         id="use4085"
         transform="matrix(0,-1,1,0,-109.92978,687.65105)"
         xlink:href="#path3120"
         inkscape:tiled-clone-of="#path3120"
         y="0"
         x="0" />
      <use
         height="1052.3622"
         width="744.09448"
         inkscape:transform-center-y="-31.213884"
         inkscape:transform-center-x="31.213884"
         id="use4087"
         transform="matrix(0.70710678,-0.70710678,0.70710678,0.70710678,-197.38209,321.05832)"
         xlink:href="#path3120"
         inkscape:tiled-clone-of="#path3120"
         y="0"
         x="0" />
    </g>
    <path
       transform="matrix(1.1550726,0,0,1.1550726,-236.87929,-1008.3802)"
       d="m 821.46764,632.4577 c 0,3.22306 -2.61281,5.83587 -5.83587,5.83587 -3.22306,0 -5.83586,-2.61281 -5.83586,-5.83587 0,-3.22306 2.6128,-5.83586 5.83586,-5.83586 3.22306,0 5.83587,2.6128 5.83587,5.83586 z"
       sodipodi:ry="5.8358665"
       sodipodi:rx="5.8358665"
       sodipodi:cy="632.4577"
       sodipodi:cx="815.63177"
       id="path5123"
       style="fill:#0000ff;stroke:#000000;stroke-width:0.86574644;stroke-linecap:butt;stroke-linejoin:miter;stroke-miterlimit:4;stroke-opacity:1;stroke-dasharray:none;stroke-dashoffset:0"
       sodipodi:type="arc" />
    <text
       sodipodi:linespacing="125%"
       id="text6509"
       y="-579.72998"
       x="-714.56622"
       style="font-size:28px;font-style:normal;font-variant:normal;font-weight:normal;font-stretch:normal;text-align:center;line-height:125%;letter-spacing:0px;word-spacing:0px;writing-mode:lr-tb;text-anchor:middle;fill:#000000;fill-opacity:1;stroke:none;font-family:DejaVu Sans;-inkscape-font-specification:DejaVu Sans"
       xml:space="preserve"><tspan
         id="tspan6513"
         y="-579.72998"
         x="-714.56622"
         sodipodi:role="line">mode m=3</tspan></text>
    <use
       height="1052.3622"
       width="744.09448"
       transform="translate(-1288.0754,0)"
       id="use6515"
       xlink:href="#path6021"
       y="0"
       x="0" />
    <use
       height="1052.3622"
       width="744.09448"
       transform="translate(-1288.0755,2.5844032e-5)"
       id="use6517"
       xlink:href="#layer1-2"
       y="0"
       x="0" />
    <path
       sodipodi:nodetypes="cc"
       inkscape:connector-curvature="0"
       id="path6541"
       d="m -439.15812,-288.08996 86.08923,0"
       style="fill:#cccccc;fill-opacity:1;fill-rule:evenodd;stroke:#000000;stroke-width:9;stroke-linecap:butt;stroke-linejoin:miter;stroke-miterlimit:4;stroke-opacity:1;stroke-dasharray:none;stroke-dashoffset:0;marker-end:url(#Arrow2Mend)" />
    <path
       sodipodi:type="arc"
       style="fill:none;stroke:#000000;stroke-width:1.00063562;stroke-linecap:butt;stroke-linejoin:miter;stroke-miterlimit:4;stroke-opacity:1;stroke-dasharray:6.00381367, 6.00381367;stroke-dashoffset:0"
       id="path6537"
       sodipodi:cx="302.35345"
       sodipodi:cy="336.49591"
       sodipodi:rx="254.55493"
       sodipodi:ry="254.55493"
       d="m 556.90839,336.49591 c 0,140.58681 -113.96813,254.55493 -254.55494,254.55493 -140.5868,0 -254.554927,-113.96812 -254.554927,-254.55493 0,-140.58681 113.968127,-254.554931 254.554927,-254.554931 140.58681,0 254.55494,113.968121 254.55494,254.554931 z"
       transform="matrix(0.5223678,0,0,0.51698552,-872.36241,-451.80909)" />
    <use
       x="0"
       y="0"
       xlink:href="#path5123"
       id="use6539"
       transform="translate(-1286.686,2.4367815e-5)"
       width="744.09448"
       height="1052.3622" />
    <path
       transform="matrix(0.5223678,0,0,0.51698552,-228.32472,-451.80909)"
       d="m 556.90839,336.49591 c 0,140.58681 -113.96813,254.55493 -254.55494,254.55493 -140.5868,0 -254.554927,-113.96812 -254.554927,-254.55493 0,-140.58681 113.968127,-254.554931 254.554927,-254.554931 140.58681,0 254.55494,113.968121 254.55494,254.554931 z"
       sodipodi:ry="254.55493"
       sodipodi:rx="254.55493"
       sodipodi:cy="336.49591"
       sodipodi:cx="302.35345"
       id="path6567"
       style="fill:none;stroke:#000000;stroke-width:1.00063562;stroke-linecap:butt;stroke-linejoin:miter;stroke-miterlimit:4;stroke-opacity:1;stroke-dasharray:6.00381367, 6.00381367;stroke-dashoffset:0"
       sodipodi:type="arc" />
    <path
       id="path4013"
       style="fill:none;stroke:#ff0000;stroke-width:0.54932606;stroke-linecap:butt;stroke-linejoin:miter;stroke-miterlimit:4;stroke-opacity:1;stroke-dashoffset:0"
       d="m -716.8161,-427.82415 c -23.6764,1.24285 -49.26453,4.76979 -67.94008,20.29206 -1.27558,2.01716 -2.16238,4.90683 -5.098,3.69855 -15.0649,1.99101 -24.71959,15.24218 -35.14205,24.80837 -43.10067,46.25681 -51.97832,121.61824 -18.96958,176.03647 12.23992,21.17806 29.26143,40.69986 51.67925,51.08989 2.50816,0.60829 6.46582,-1.4084 6.83066,2.39906 9.17154,12.32845 25.97738,13.81566 39.51786,18.29284 63.7781,14.52556 135.26798,-18.11975 164.40233,-76.73663 10.40501,-19.79826 17.96465,-42.50788 15.46061,-65.10785 -1.18946,-2.63593 -3.79975,-5.618 -0.83301,-7.99687 5.43972,-14.25334 -1.41846,-29.20553 -4.44027,-43.13748 -19.25164,-61.08213 -80.99996,-106.10275 -145.46772,-103.63841 z m 3.79851,34.91966 c 51.19644,-0.21055 100.11335,38.15712 110.7774,88.40898 1.9131,8.73839 2.68638,18.93985 7.30972,26.24615 -7.98169,10.85554 -4.53143,26.00691 -10.32929,37.85185 -16.51588,49.42939 -69.89502,84.13417 -122.05223,76.76996 -14.64475,-1.63979 -28.55636,-7.40645 -42.74994,-11.06234 -1.68087,0.32748 -4.11037,1.39773 -3.99843,-1.23285 -7.16824,-12.19638 -21.72107,-17.24978 -29.24818,-29.13284 -34.69172,-41.6277 -34.48571,-108.62147 2.79186,-148.66424 7.67362,-9.10921 18.4315,-15.85311 25.52335,-25.32342 0.0609,-4.04476 4.70913,-0.55555 7.16386,-2.03254 12.33333,-2.17319 23.04236,-9.98359 35.81931,-10.46257 6.2261,-0.99109 12.63586,-1.33208 18.99257,-1.36614 z m -3.73187,-30.65466 c -22.00051,0.97195 -45.18486,4.6553 -63.5418,17.42651 -2.09859,1.74678 -3.14283,5.30432 -4.53156,6.76402 -12.62526,-2.28353 -21.85861,9.28469 -30.46242,16.52712 -42.68485,40.35266 -56.97367,108.12277 -32.79231,162.07221 11.21539,26.19211 29.63274,49.7555 54.45817,63.93908 2.96561,1.67353 7.65048,0.0359 9.76285,1.23285 4.72025,12.36279 19.94256,14.08859 30.80784,18.13868 58.03267,16.8562 125.18585,-7.21323 158.63629,-57.40791 14.9558,-21.84201 25.32714,-48.14458 24.80535,-74.95273 -0.44596,-3.16536 -2.99396,-6.09264 -3.99843,-8.56332 8.37517,-9.47464 2.94603,-23.20903 1.05311,-34.09113 -13.92713,-60.1688 -69.56136,-107.43766 -131.39553,-110.75279 -4.25688,-0.31286 -8.53419,-0.39768 -12.80156,-0.33259 z m 1.43277,26.42299 c 48.75199,-0.8951 96.30408,30.92103 112.68923,77.03651 4.70797,11.48688 5.97496,24.1425 9.16308,36.05256 0.9172,2.11626 2.90229,4.08214 4.13172,5.69777 -9.17948,8.78808 -5.67969,23.00738 -10.19601,33.85342 -13.69711,48.49757 -60.88633,85.54493 -111.58952,85.88359 -19.70635,0.65484 -38.83739,-4.93571 -57.01116,-11.57934 -3.03652,-1.27444 -8.22364,2.82933 -8.62996,-1.59937 -4.78349,-11.35657 -17.94906,-15.41582 -25.05686,-25.1235 -35.71543,-37.85365 -42.07589,-100.26433 -13.55535,-144.04353 9.11035,-14.90926 22.12568,-26.47397 35.21354,-37.65203 2.02451,-1.69195 1.71355,-6.5352 3.9318,-6.86398 12.39291,2.79936 22.85418,-7.19506 34.8197,-8.52999 8.55262,-2.11521 17.27382,-3.05081 26.08979,-3.13211 z m -1.36613,-22.158 c -19.95786,0.53526 -40.2277,4.60922 -57.87735,13.99453 -4.77078,2.76232 -9.11787,10.83078 -3.29871,14.66092 9.24387,4.88055 18.40508,-3.39628 27.35596,-5.2646 45.53667,-14.59567 98.66847,0.52182 129.68258,37.01884 16.92267,19.28667 27.03941,44.06308 29.98826,69.53945 1.17823,5.66078 7.59979,13.31982 13.59468,8.72992 7.14536,-7.28583 2.54135,-18.48655 1.36614,-27.18936 -10.61289,-51.19324 -51.71028,-94.20517 -102.4239,-106.86634 -12.52112,-3.29149 -25.40083,-4.84659 -38.38766,-4.62336 z m -72.07179,23.75737 c -10.13051,1.52704 -17.02535,10.47353 -24.4571,16.72679 -36.16911,34.88235 -51.27662,90.33647 -37.1188,138.81234 8.7173,31.38593 28.48618,60.28793 55.9106,78.08883 4.80225,2.9167 14.29644,2.62694 14.52849,-4.58427 -0.64847,-10.37164 -12.25491,-14.15873 -18.29284,-20.89182 -35.76608,-32.51012 -49.06665,-86.86892 -32.22072,-132.14828 8.39448,-23.88709 24.59045,-44.40327 44.71583,-59.34344 4.20903,-3.8884 7.79872,-13.13853 0.83301,-16.16034 -1.23328,-0.46438 -2.57759,-0.6081 -3.89847,-0.49981 z m 206.25261,118.15376 c -8.43798,2.18029 -8.97428,12.80812 -9.79617,19.89221 -7.17608,46.24648 -43.34742,86.48971 -88.4987,98.56143 -27.90747,8.07149 -58.53584,5.12498 -84.93342,-6.43082 -5.39685,-1.63262 -14.83733,-0.45042 -14.52765,6.8973 2.26943,10.21703 14.70386,11.85565 22.89104,15.2607 48.10127,15.86971 103.99468,3.2193 140.38847,-31.88524 24.88334,-23.60469 41.69722,-56.79813 43.47291,-91.36652 -0.47523,-4.82469 -3.08096,-11.51225 -8.99648,-10.92906 z m -133.94758,-133.38113 c -18.01079,0.83602 -36.41216,3.38603 -52.31286,12.42847 11.02202,-4.14288 22.07511,-8.64687 33.93964,-10.03348 54.11209,-9.04758 112.45032,19.44933 137.29335,68.41063 8.13007,15.35919 12.87375,32.32419 15.39397,49.51395 0.11007,-11.29295 -3.87535,-22.26218 -7.03058,-32.98709 -17.87213,-50.01981 -67.96051,-86.74189 -121.25212,-87.29587 -2.00982,-0.0635 -4.02101,-0.094 -6.0314,-0.0366 z m -75.43714,25.35674 c -10.66387,6.54895 -18.92434,16.41188 -27.05756,25.68809 -32.91656,41.57171 -37.56821,103.40722 -9.82388,148.96492 9.39692,16.17182 22.11093,30.68417 37.88105,40.72936 -7.71305,-7.02876 -16.68176,-12.91884 -23.15761,-21.35831 -35.66063,-40.61808 -42.73254,-104.27311 -15.27028,-151.13674 9.50762,-16.8939 22.94592,-31.20334 38.06136,-43.1872 l -0.63308,0.29988 z m 209.58464,119.31997 c -1.82211,7.91575 -1.8171,16.27019 -4.63152,24.09057 -14.8681,54.43658 -67.57643,96.0027 -124.31801,96.19568 -19.86837,0.41095 -39.52882,-4.11973 -57.87735,-11.42886 11.17639,6.30771 24.46531,8.78462 36.98552,11.12898 51.19394,7.21855 105.4364,-18.06575 131.54852,-62.70879 10.53673,-17.22686 17.67848,-37.47554 18.29284,-57.27758 z m -134.3141,-148.94171 c -19.39005,0.63575 -39.19701,4.29418 -56.21133,13.7946 -2.3374,1.34123 -5.66599,6.44878 -1.66602,7.46375 8.64071,1.56606 15.86114,-5.30642 24.19053,-6.63074 46.8407,-14.45823 101.09301,1.47914 132.68141,38.71818 17.29846,19.73011 27.87603,45.0404 30.85459,71.03886 0.79833,2.63881 3.67571,9.15427 7.19718,6.3975 4.50788,-7.81373 -0.07,-17.26362 -1.09637,-25.45698 -11.22086,-48.57865 -50.67049,-89.00024 -99.16439,-100.96021 -11.97176,-3.11432 -24.35754,-4.56447 -36.7856,-4.36496 z m -71.83855,23.75737 c -8.92271,1.73527 -15.07541,9.995 -21.75815,15.52726 -35.615,34.27185 -49.9459,88.77696 -35.58607,136.08007 8.57425,29.68428 27.45835,56.92333 53.27914,73.93773 2.49793,1.62125 9.75835,2.5279 8.16348,-2.39906 -3.32971,-7.71658 -12.18278,-10.68158 -17.47134,-16.82295 -35.56904,-32.85889 -49.46236,-87.14815 -33.57535,-133.18501 8.34581,-25.4639 25.00654,-47.66289 46.44848,-63.5418 1.85294,-2.00984 5.99195,-7.37905 2.43239,-9.42964 -0.60635,-0.18457 -1.289,-0.2352 -1.93258,-0.1666 z m 206.41921,118.15376 c -6.60605,3.50478 -4.71648,13.07824 -6.59742,19.29245 -8.80803,49.21578 -49.2659,90.74289 -98.26154,100.8272 -26.63586,5.92413 -54.91414,2.62311 -79.8021,-8.19679 -2.71209,-0.78858 -10.67007,-1.31408 -8.92984,3.56527 5.03641,7.44056 15.40108,8.22633 23.02432,11.42886 47.78926,14.40695 102.76119,-0.0342 137.08891,-36.35153 21.58956,-22.40124 35.88608,-52.29709 37.74267,-83.53488 -0.41449,-2.29006 -1.16099,-7.16459 -4.265,-7.03058 z"
       inkscape:connector-curvature="0" />
    <use
       x="0"
       y="0"
       xlink:href="#path4013"
       id="use4430"
       transform="translate(644.03765,6.7627866e-7)"
       width="744.09448"
       height="1052.3622" />
    <g
       id="g4552"
       transform="matrix(0.67553653,0,0,0.67553653,424.42362,-428.98416)">
      <path
         inkscape:connector-curvature="0"
         id="path4493"
         d="M 76.335376,55.133691 C 118.08821,22.585821 170.81093,3.3474007 223.87931,3.7538007 c 89.01727,3.62555 172.85887,65.9491803 199.92547,151.1620793 22.5767,67.59377 8.2936,146.57799 -38.849,200.46272 C 334.6288,415.87385 250.08234,445.75255 173.05924,428.52245 96.897896,412.72145 29.670763,353.63389 10.214173,277.43245 -7.9149475,208.92438 6.6920825,130.73694 54.685943,77.427781 c 6.67976,-7.93649 14.031603,-15.26223 21.649433,-22.29409 z"
         style="color:#ff0000;fill:none;stroke:#000000;stroke-width:1;stroke-linecap:butt;stroke-linejoin:miter" />
      <path
         inkscape:connector-curvature="0"
         id="path4491"
         d="m 124.13538,77.433691 c 39.97352,-23.26012 89.2095,-34.61104 134.50143,-21.36566 68.48524,17.3352 120.38677,78.771179 134.19387,146.915739 7.5516,38.16451 -9.0776,76.4829 -30.11537,107.52329 -33.19574,49.28573 -91.84401,81.09199 -151.64953,78.24399 C 147.67835,386.90475 87.410416,346.32503 62.422986,287.95211 35.758763,229.20939 47.281983,156.07217 89.985766,107.87322 99.984416,96.289611 111.56851,86.149151 124.13538,77.433691 z"
         style="color:#ff0000;fill:none;stroke:#000000;stroke-width:1;stroke-linecap:butt;stroke-linejoin:miter" />
      <path
         inkscape:connector-curvature="0"
         id="path4489"
         d="M 218.93538,5.3336907 C 143.80301,7.1622507 71.060456,50.182561 34.409003,115.98862 c -37.1630105,64.21253 -36.7527505,147.95442 1.27693,211.70162 37.985663,66.07381 113.131437,107.49101 189.042297,106.74341 71.76301,0.063 141.86725,-39.6766 178.68305,-101.30095 17.0448,-28.6248 31.6791,-61.4747 28.9241,-95.49901 0.1682,-8.73925 -6.201,-9.2711 -11.0306,-3.31297 -6.1512,5.09882 -15.2724,-5.56247 -19.4694,3.71297 -11.3004,23.01262 -18.7715,48.12239 -33.8669,69.21986 -33.43136,52.01594 -94.45733,86.1419 -156.76154,82.6699 C 138.70497,387.48615 69.597926,334.66207 52.935373,263.23369 39.620593,208.89793 52.833073,147.61343 91.974416,106.73507 126.73476,68.734581 178.85512,45.489951 230.595,49.327781 c 58.34857,5.20574 111.54026,41.59263 140.43808,92.109339 13.5219,21.20856 19.8871,45.82063 30.9023,68.19657 4.3826,8.53812 15.0998,4.12463 22.6,5.9 8.1838,-4.93625 5.5491,-17.19879 5.3303,-25.39727 -5.9434,-45.04912 -29.2283,-86.74907 -59.9696,-119.666529 -32.84806,-33.6063 -77.36701,-55.4959 -123.64067,-62.8506003 -9.04036,-1.38681 -18.1959,-1.81805 -27.32003,-2.2856 z"
         style="color:#ff0000;fill:none;stroke:#000000;stroke-width:1;stroke-linecap:butt;stroke-linejoin:miter" />
      <path
         inkscape:connector-curvature="0"
         id="path4487"
         d="m 218.93538,7.3336907 c 72.57282,1.44764 142.52699,42.0136103 180.3354,103.8951693 15.8508,26.4164 29.7723,56.4979 28.2007,87.96787 0.6425,13.44417 -19.1379,15.08598 -24.3361,4.53696 -12.3543,-22.95996 -19.6536,-48.57626 -34.5506,-70.27117 C 336.8144,83.445931 280.78931,48.990651 221.15347,46.965721 170.2441,47.150611 119.45464,69.977681 87.448116,109.97217 47.045583,157.00939 35.373183,226.47392 58.843933,283.96494 c 21.536823,55.97621 74.079387,99.65459 134.205967,106.49511 63.65336,9.3185 130.19491,-19.53338 168.61238,-70.7878 18.3323,-22.62285 28.4507,-50.14625 40.6045,-76.20409 2.6088,-7.63653 10.6661,-6.51125 16.9686,-6.43447 4.8677,-2.10945 12.0668,-1.07695 11.2,5.8 1.6195,41.06164 -18.7787,79.71629 -43.8,111 -46.25683,56.92486 -122.92074,86.86826 -195.50304,76.12456 C 116.54873,420.13805 49.379813,367.57781 22.822933,297.05749 -5.1329775,227.50873 8.8919425,143.83365 56.994943,86.544531 96.269116,38.357211 156.87265,9.0510507 218.93538,7.3336907 z"
         style="color:#ff0000;fill:none;stroke:#000000;stroke-width:1;stroke-linecap:butt;stroke-linejoin:miter" />
      <path
         inkscape:connector-curvature="0"
         id="path4485"
         d="m 428.73538,253.43369 c -2.8184,37.4974 -20.0808,73.18058 -44.0424,101.75436 -47.38526,55.7632 -124.14615,84.2939 -196.45379,73.0168 C 130.77665,420.72955 78.043646,386.77617 46.545833,338.274 4.9513225,277.54885 -0.91380746,194.4767 32.512213,128.78327 59.201653,74.211461 109.69848,31.132901 169.13995,16.838501 c 29.14615,-7.9825703 60.02041,-9.6489503 89.52636,-2.53725 79.54637,16.75419 148.79467,81.16665 164.92557,161.767149 1.093,9.52586 4.9503,23.53782 -4.8565,29.66529 -12.5291,3.68318 -17.4098,-11.48679 -21.7058,-20.13059 C 378.49248,140.97162 351.92604,96.883561 309.21736,71.749011 278.41045,52.779171 241.34848,42.729321 205.17737,45.840941 139.71799,51.857821 79.503666,96.768791 56.330823,158.48273 c -23.81354,59.6186 -10.22118,131.7804 33.647353,178.65407 49.902424,55.72295 136.694914,72.91185 204.316754,41.25979 48.32064,-21.67423 80.88085,-66.98632 101.46545,-114.318 5.0925,-8.54466 6.8321,-22.24779 17.675,-25.2449 6.2625,-1.11647 13.8142,1.17652 14.1169,8.69733 0.6151,1.92368 0.8566,3.91793 1.1831,5.90267 z"
         style="color:#ff0000;fill:none;stroke:#000000;stroke-width:1;stroke-linecap:butt;stroke-linejoin:miter" />
      <path
         inkscape:connector-curvature="0"
         id="path4483"
         d="M 419.43538,292.33369 C 392.92998,367.77676 318.76178,422.55795 239.33923,428.35715 163.19354,435.34815 84.857966,396.86765 44.699953,331.63852 4.4868225,269.6344 2.3587025,185.8671 38.600203,121.58025 75.206926,54.023671 151.24147,9.7146307 228.13538,12.333691 c 67.44883,4.45309 131.16008,42.90217 166.9949,100.134799 14.6904,24.049 27.5832,51.39892 26.8051,80.1652 0.7751,7.77239 -9.0888,13.63944 -13.9,6 -12.0609,-18.18349 -18.0646,-39.7946 -30.0745,-58.12413 C 348.40121,89.364831 295.62193,51.144971 236.40317,44.168891 192.23735,38.715561 147.00534,54.180811 111.77881,80.552911 58.651723,118.60809 33.695963,188.70604 45.301443,252.27305 c 8.00878,51.24103 41.140183,97.47699 87.103457,121.51732 54.41643,30.10968 124.3153,28.98608 177.58269,-3.21487 41.56183,-24.06744 70.89299,-64.39397 89.85339,-107.7927 4.1431,-6.87976 7.3489,-19.18319 17.2944,-18.44911 10.5494,5.62822 6.9067,20.252 6.2,30 -0.9447,6.0813 -2.412,12.03386 -3.9,18 z"
         style="color:#ff0000;fill:none;stroke:#000000;stroke-width:1;stroke-linecap:butt;stroke-linejoin:miter" />
      <path
         sodipodi:nodetypes="ccccccccccccccccc"
         inkscape:connector-curvature="0"
         id="path4481"
         d="m 227.23538,15.133691 c 66.19649,4.03763 128.80253,41.36786 164.549,97.099719 13.8456,22.33239 26.7484,47.59106 26.051,74.50028 0.5469,6.51422 -7.0246,9.04354 -9.9,2.9 -13.5715,-22.38179 -22.8948,-47.36334 -39.2682,-68.09517 C 333.57589,72.395911 274.9098,39.439141 213.98771,40.389601 144.77566,43.181551 79.024396,88.443451 53.322393,153.0371 c -25.38017,59.5382 -14.13866,132.45832 28.070113,181.55992 42.044024,50.86171 113.520864,74.44123 177.600404,58.83863 57.21642,-12.66561 104.1982,-54.67464 131.81447,-105.29545 7.3402,-11.5592 11.4284,-25.53175 21.228,-35.30651 7.9456,-2.62663 7.4707,10.00584 7.2,15 -2.6972,29.79242 -16.2506,57.67372 -32.9,82.1 C 341.377,406.23055 266.18983,435.96885 194.88373,425.77915 120.51963,416.41395 53.427293,363.60166 28.116903,292.86795 1.4642225,223.30014 17.695993,140.09943 67.822706,85.135481 107.59935,40.493721 167.30485,13.467131 227.23538,15.133691 z"
         style="color:#ff0000;fill:none;stroke:#000000;stroke-width:1.00068605;stroke-linecap:butt;stroke-linejoin:miter;stroke-miterlimit:4;stroke-opacity:1;stroke-dasharray:none;marker-mid:none" />
      <path
         inkscape:connector-curvature="0"
         id="path4479"
         d="m 336.33534,392.63365 c -60.66245,38.8625 -142.62757,45.2814 -206.50499,10.2327 C 67.141406,370.93139 23.014113,304.99299 19.560403,234.45908 14.592123,162.59045 52.054603,90.296421 112.82525,51.903771 c 42.72135,-27.60693 96.33108,-41.20001 146.42637,-28.41624 69.04705,15.3979 131.35186,67.63685 150.75656,136.754309 0.5239,4.75001 4.2582,12.86846 -0.5728,15.79185 -9.7617,-8.37897 -13.7359,-21.923 -21.0583,-32.43372 -29.93562,-51.968899 -81.0694,-93.134049 -140.90262,-103.723729 -39.72139,-7.99779 -81.58042,1.599 -116.86065,20.50893 C 67.933996,95.412001 28.561323,169.09311 37.543153,240.78596 c 7.61629,75.31118 66.795857,143.53662 141.942307,157.34299 63.2519,13.2468 131.34881,-9.5252 176.16389,-55.54132 20.93803,-19.87911 35.16443,-45.17694 50.88493,-69.02614 6.6063,-7.30982 5.7974,7.04176 4.3494,10.88493 -10.2023,43.7209 -38.6363,81.89767 -74.54834,108.18723 z"
         style="color:#ff0000;fill:none;stroke:#000000;stroke-width:1;stroke-linecap:butt;stroke-linejoin:miter" />
      <path
         inkscape:connector-curvature="0"
         d="m 223.93538,25.233691 c 55.67422,1.41452 109.80186,28.7139 145.6376,71.04219 3.4682,4.615229 8.371,9.367529 9.9624,14.657809 -16.94669,-14.245189 -32.2339,-30.955199 -51.04444,-43.098799 -41.85621,-28.88864 -95.01759,-44.28258 -145.55556,-34.0012 -10.4657,1.3443 -21.10665,4.8159 -31.3,5.8 22.44364,-10.03015 47.80436,-14.22926 72.3,-14.4 z M 365.93534,349.93369 c 5.17554,-5.52988 9.52954,-12.21611 15.70004,-16.6 -7.6259,16.12343 -21.84375,28.79689 -35.30004,40.4 -41.03644,33.37856 -95.38002,49.00086 -147.89861,43.14436 -10.40973,-1.1144 -21.11873,-2.0675 -31.00135,-5.5444 24.22434,1.3082 48.97078,4.6723 73.3273,0.9336 47.2205,-5.861 92.12766,-28.04911 125.17266,-62.33356 z"
         style="color:#ff0000;fill:none;stroke:#000000;stroke-width:1;stroke-linecap:butt;stroke-linejoin:miter"
         id="path4414" />
    </g>
  </g>
</svg>
