<?xml version="1.0" encoding="UTF-8" standalone="no"?>
<svg
   xmlns:dc="http://purl.org/dc/elements/1.1/"
   xmlns:cc="http://creativecommons.org/ns#"
   xmlns:rdf="http://www.w3.org/1999/02/22-rdf-syntax-ns#"
   xmlns:svg="http://www.w3.org/2000/svg"
   xmlns="http://www.w3.org/2000/svg"
   xmlns:xlink="http://www.w3.org/1999/xlink"
   xmlns:sodipodi="http://sodipodi.sourceforge.net/DTD/sodipodi-0.dtd"
   xmlns:inkscape="http://www.inkscape.org/namespaces/inkscape"
   width="488.25955"
   height="544.45892"
   viewBox="0 0 488.25957 544.45893"
   id="svg3031"
   version="1.1"
   inkscape:version="0.48.2 r9819"
   sodipodi:docname="corotation_times.svg">
  <metadata
     id="metadata3079">
    <rdf:RDF>
      <cc:Work
         rdf:about="">
        <dc:format>image/svg+xml</dc:format>
        <dc:type
           rdf:resource="http://purl.org/dc/dcmitype/StillImage" />
        <dc:title />
      </cc:Work>
    </rdf:RDF>
  </metadata>
  <sodipodi:namedview
     pagecolor="#ffffff"
     bordercolor="#666666"
     borderopacity="1"
     objecttolerance="10"
     gridtolerance="10"
     guidetolerance="10"
     inkscape:pageopacity="0"
     inkscape:pageshadow="2"
     inkscape:window-width="640"
     inkscape:window-height="480"
     id="namedview3077"
     showgrid="false"
     inkscape:zoom="1.1075833"
     inkscape:cx="490.06295"
     inkscape:cy="293.54952"
     inkscape:current-layer="svg3031"
     fit-margin-top="0"
     fit-margin-left="0"
     fit-margin-right="0"
     fit-margin-bottom="0"
     inkscape:snap-page="false"
     inkscape:object-nodes="true"
     inkscape:object-paths="false"
     inkscape:snap-bbox="true"
     inkscape:snap-object-midpoints="true"
     inkscape:snap-center="true"
     inkscape:snap-midpoints="true"
     inkscape:snap-smooth-nodes="true" />
  <desc
     id="desc3033">Produced by GNUPLOT 4.4 patchlevel 0 </desc>
  <defs
     id="defs3035">
    <marker
       inkscape:stockid="Arrow2Lend"
       orient="auto"
       refY="0"
       refX="0"
       id="Arrow2Lend"
       style="overflow:visible">
      <path
         id="path4685"
         style="font-size:12px;fill-rule:evenodd;stroke-width:0.625;stroke-linejoin:round"
         d="M 8.7185878,4.0337352 -2.2072895,0.01601326 8.7185884,-4.0017078 c -1.7454984,2.3720609 -1.7354408,5.6174519 -6e-7,8.035443 z"
         transform="matrix(-1.1,0,0,-1.1,-1.1,0)"
         inkscape:connector-curvature="0" />
    </marker>
    <linearGradient
       id="linearGradient3984">
      <stop
         style="stop-color:#ff0000;stop-opacity:1;"
         offset="0"
         id="stop3986" />
      <stop
         style="stop-color:#0000ff;stop-opacity:1;"
         offset="1"
         id="stop3988" />
    </linearGradient>
    <marker
       inkscape:stockid="Arrow1Lend"
       orient="auto"
       refY="0"
       refX="0"
       id="Arrow1Lend"
       style="overflow:visible">
      <path
         id="path3829"
         d="M 0,0 5,-5 -12.5,0 5,5 0,0 z"
         style="fill-rule:evenodd;stroke:#000000;stroke-width:1pt;marker-start:none"
         transform="matrix(-0.8,0,0,-0.8,-10,0)"
         inkscape:connector-curvature="0" />
    </marker>
    <radialGradient
       gradientTransform="matrix(1.3296497,0,0,1.3296497,-93.074866,-123.75106)"
       gradientUnits="userSpaceOnUse"
       r="35.820995"
       fy="375.4017"
       fx="282.34476"
       cy="375.4017"
       cx="282.34476"
       id="radialGradient4039"
       xlink:href="#linearGradient4033"
       inkscape:collect="always" />
    <linearGradient
       id="linearGradient4033">
      <stop
         id="stop4035"
         offset="0"
         style="stop-color:#ffff00;stop-opacity:1;" />
      <stop
         id="stop4037"
         offset="1"
         style="stop-color:#ff8800;stop-opacity:1;" />
    </linearGradient>
    <linearGradient
       inkscape:collect="always"
       xlink:href="#linearGradient3984"
       id="linearGradient7301"
       gradientUnits="userSpaceOnUse"
       gradientTransform="translate(-471.09185,-1.7965868e-6)"
       x1="-210.60564"
       y1="220.1459"
       x2="-88.147316"
       y2="220.1459" />
    <linearGradient
       inkscape:collect="always"
       xlink:href="#linearGradient3984"
       id="linearGradient7303"
       gradientUnits="userSpaceOnUse"
       gradientTransform="translate(-213.05329,-1.7965868e-6)"
       x1="-210.60564"
       y1="220.1459"
       x2="-88.147316"
       y2="220.1459" />
    <linearGradient
       inkscape:collect="always"
       xlink:href="#linearGradient3984"
       id="linearGradient7305"
       gradientUnits="userSpaceOnUse"
       gradientTransform="translate(54.151251,-1.7965868e-6)"
       x1="-210.60564"
       y1="220.1459"
       x2="-88.147316"
       y2="220.1459" />
  </defs>
  <path
     id="path8247"
     style="fill:#ff0000;fill-opacity:1;fill-rule:evenodd;stroke:#000000;stroke-width:0.9750815"
     d="m 379.85601,300.21715 c 0,74.95932 -60.76654,135.72586 -135.72587,135.72586 -74.95933,0 -135.72587,-60.76654 -135.72587,-135.72586 0,-74.95933 60.76654,-135.72588 135.72587,-135.72588 74.95933,0 135.72587,60.76655 135.72587,135.72588 z m 107.88384,0.112 c 0,134.54212 -109.06794,243.61006 -243.61007,243.61006 -134.54212,0 -243.6100662,-109.06794 -243.6100662,-243.61006 0,-134.54213 109.0679462,-243.610068 243.6100662,-243.610068 134.54213,0 243.61007,109.067938 243.61007,243.610068 z"
     inkscape:connector-curvature="0" />
  <path
     transform="matrix(1.0394282,0,0,1.0394282,24.656808,23.087023)"
     d="m 445.51711,266.72562 a 234.36931,234.36931 0 1 1 -468.738622,0 234.36931,234.36931 0 1 1 468.738622,0 z"
     sodipodi:ry="234.36931"
     sodipodi:rx="234.36931"
     sodipodi:cy="266.72562"
     sodipodi:cx="211.1478"
     id="path7546"
     style="fill:none;stroke:#000000"
     sodipodi:type="arc" />
  <path
     style="font-size:medium;font-style:normal;font-variant:normal;font-weight:normal;font-stretch:normal;text-indent:0;text-align:start;text-decoration:none;line-height:normal;letter-spacing:normal;word-spacing:normal;text-transform:none;direction:ltr;block-progression:tb;writing-mode:lr-tb;text-anchor:start;baseline-shift:baseline;color:#ff0000;fill:#cccccc;fill-opacity:1;stroke:none;stroke-width:1;marker:none;visibility:visible;display:inline;overflow:visible;enable-background:accumulate;font-family:Sans;-inkscape-font-specification:Sans"
     d="M 239.32609,82.86653 C 150.56014,86.32913 66.895171,147.23377 38.91262,231.84702 17.572224,293.45469 25.193626,364.8085 60.927644,419.49005 102.94692,485.42218 181.85266,526.16276 260.32355,519.95153 c 73.0326,-4.72577 142.46664,-47.78805 178.19004,-111.71 15.38335,-26.52839 26.11748,-57.40715 22.90625,-88.46875 -3.39067,-9.11607 -14.8687,-8.89415 -22.875,-7.59375 -8.98762,0.36359 -17.51644,6.34272 -19.53001,15.34513 -15.2476,33.79956 -30.73516,69.26728 -59.34499,93.90487 -48.97945,45.12395 -125.18506,60.01522 -186.12493,31.57711 -57.12985,-26.36041 -96.635402,-87.81666 -95.299751,-150.92078 0.14215,-59.12761 33.785411,-116.72903 85.594141,-145.21898 40.73167,-23.10958 91.89771,-28.48488 135.58223,-10.62094 49.66111,18.80598 89.33778,60.76603 108.15445,110.2224 6.03819,13.01415 10.38176,27.45971 19.90636,38.36744 10.12613,8.84301 30.09671,3.41349 31.03125,-11.0625 3.003,-30.96941 -9.79677,-60.76822 -24.49534,-87.14098 C 407.40874,150.03722 363.82299,113.50306 313.16984,95.52278 289.50407,87.07719 264.52315,82.46013 239.32609,82.86653 z m 4.59375,12.78125 c 81.46545,1.42116 158.63075,54.70467 189.9375,129.625 8.11892,18.37226 14.68359,39.03257 10.96875,59.125 -3.97642,3.85176 -10.7752,0.83608 -12.09375,-4.28125 -11.02155,-20.57344 -17.43264,-43.4706 -30.34375,-63.15625 -32.68504,-54.32408 -92.37313,-93.18868 -156.53125,-94.46875 -65.97857,-1.07749 -129.80843,38.40924 -159.934029,96.72891 -30.030234,56.14815 -27.129519,128.74302 8.516708,181.67145 30.878301,47.59962 85.631631,79.29739 142.823571,79.59964 73.26831,2.14102 144.69364,-42.75327 175.46875,-108.96875 7.69961,-14.79065 13.28748,-31.04566 22.09375,-45.0625 4.28448,-1.60134 10.53067,-2.4715 14.3125,-0.78125 0.53254,44.19118 -22.71536,84.89709 -52.11577,116.4298 -55.38994,60.18179 -148.73581,81.95888 -224.90667,51.78844 C 107.2796,469.27588 56.2393,410.2872 43.57609,341.80403 29.690812,271.06153 56.235432,193.56926 111.51456,147.26869 148.05994,115.68038 195.56864,97.02257 243.91984,95.64778 z"
     id="path7307"
     inkscape:connector-curvature="0" />
  <g
     transform="matrix(0.62039409,0,0,0.62039409,64.92271,52.809932)"
     id="layer1"
     inkscape:label="Calque 1">
    <path
       transform="translate(6.5158829,23.388712)"
       d="m 317.91575,375.4017 c 0,19.64532 -15.92567,35.571 -35.57099,35.571 -19.64532,0 -35.571,-15.92568 -35.571,-35.571 0,-19.64532 15.92568,-35.57099 35.571,-35.57099 19.64532,0 35.57099,15.92567 35.57099,35.57099 z"
       sodipodi:ry="35.570995"
       sodipodi:rx="35.570995"
       sodipodi:cy="375.4017"
       sodipodi:cx="282.34476"
       id="path3108"
       style="fill:url(#radialGradient4039);fill-opacity:1;fill-rule:evenodd;stroke:#000000;stroke-width:0.5;stroke-linecap:round;stroke-linejoin:round;stroke-miterlimit:4;stroke-opacity:1;stroke-dasharray:none;stroke-dashoffset:0"
       sodipodi:type="arc" />
    <path
       inkscape:tile-y0="345.59409"
       inkscape:tile-x0="282.96551"
       inkscape:tile-h="14.92895"
       inkscape:tile-w="11.79025"
       inkscape:tile-cy="398.79042"
       inkscape:tile-cx="288.86064"
       inkscape:transform-center-y="-60.178641"
       sodipodi:nodetypes="ccczc"
       inkscape:connector-curvature="0"
       d="m 296.61805,356.94694 c -3.84599,-3.84599 -5.87757,-9.05331 -7.7574,-16.06893 -1.92774,7.19443 -4.1359,12.44742 -7.75741,16.06893 4.74917,1.25562 4.3592,3.57611 7.75741,3.57611 3.39821,0 3.00823,-2.32049 7.7574,-3.57611 z"
       style="fill:#ffac00;fill-opacity:1;fill-rule:evenodd;stroke:#000000;stroke-width:0.5;stroke-linecap:round;stroke-linejoin:round;stroke-miterlimit:4;stroke-opacity:1;stroke-dasharray:none;stroke-dashoffset:0"
       id="path3120" />
    <use
       height="1052.3622"
       width="744.09448"
       inkscape:transform-center-y="-31.21388"
       inkscape:transform-center-x="-31.213884"
       id="use4075"
       transform="matrix(0.70710678,0.70710678,-0.70710678,0.70710678,366.59273,-87.452306)"
       xlink:href="#path3120"
       inkscape:tiled-clone-of="#path3120"
       y="0"
       x="0" />
    <use
       height="1052.3622"
       width="744.09448"
       inkscape:transform-center-x="-45.73185"
       id="use4077"
       transform="matrix(0,1,-1,0,687.65105,109.92978)"
       xlink:href="#path3120"
       inkscape:tiled-clone-of="#path3120"
       y="0"
       x="0" />
    <use
       height="1052.3622"
       width="744.09448"
       inkscape:transform-center-y="31.213884"
       inkscape:transform-center-x="-31.213884"
       id="use4079"
       transform="matrix(-0.70710678,0.70710678,-0.70710678,-0.70710678,775.10336,476.52251)"
       xlink:href="#path3120"
       inkscape:tiled-clone-of="#path3120"
       y="0"
       x="0" />
    <use
       height="1052.3622"
       width="744.09448"
       inkscape:transform-center-y="45.73185"
       id="use4081"
       transform="matrix(-1,0,0,-1,577.72127,797.58083)"
       xlink:href="#path3120"
       inkscape:tiled-clone-of="#path3120"
       y="0"
       x="0" />
    <use
       height="1052.3622"
       width="744.09448"
       inkscape:transform-center-y="31.213884"
       inkscape:transform-center-x="31.213884"
       id="use4083"
       transform="matrix(-0.70710678,-0.70710678,0.70710678,-0.70710678,211.12854,885.03314)"
       xlink:href="#path3120"
       inkscape:tiled-clone-of="#path3120"
       y="0"
       x="0" />
    <use
       height="1052.3622"
       width="744.09448"
       inkscape:transform-center-x="45.73185"
       id="use4085"
       transform="matrix(0,-1,1,0,-109.92978,687.65105)"
       xlink:href="#path3120"
       inkscape:tiled-clone-of="#path3120"
       y="0"
       x="0" />
    <use
       height="1052.3622"
       width="744.09448"
       inkscape:transform-center-y="-31.213884"
       inkscape:transform-center-x="31.213884"
       id="use4087"
       transform="matrix(0.70710678,-0.70710678,0.70710678,0.70710678,-197.38209,321.05832)"
       xlink:href="#path3120"
       inkscape:tiled-clone-of="#path3120"
       y="0"
       x="0" />
  </g>
  <text
     xml:space="preserve"
     style="font-size:24px;font-style:normal;font-variant:normal;font-weight:normal;font-stretch:normal;text-align:center;line-height:125%;letter-spacing:0px;word-spacing:0px;writing-mode:lr-tb;text-anchor:middle;fill:#000000;fill-opacity:1;stroke:none;font-family:DejaVu Sans;-inkscape-font-specification:DejaVu Sans"
     x="243.24542"
     y="209.76602"
     id="text4523"
     sodipodi:linespacing="125%"><tspan
       sodipodi:role="line"
       id="tspan4525"
       x="243.24542"
       y="209.76602">Référentiel tournant</tspan><tspan
       sodipodi:role="line"
       x="243.24542"
       y="239.76601"
       id="tspan4527">avec la planète</tspan></text>
  <text
     xml:space="preserve"
     style="font-size:24px;font-style:normal;font-variant:normal;font-weight:normal;font-stretch:normal;text-align:center;line-height:125%;letter-spacing:0px;word-spacing:0px;writing-mode:lr-tb;text-anchor:middle;fill:#000000;fill-opacity:1;stroke:none;font-family:DejaVu Sans;-inkscape-font-specification:DejaVu Sans"
     x="243.59113"
     y="361.40036"
     id="text4529"
     sodipodi:linespacing="125%"><tspan
       sodipodi:role="line"
       id="tspan4531"
       x="243.59113"
       y="361.40036">Étoile</tspan></text>
  <text
     xml:space="preserve"
     style="font-size:24px;font-style:normal;font-variant:normal;font-weight:normal;font-stretch:normal;text-align:center;line-height:125%;letter-spacing:0px;word-spacing:0px;writing-mode:lr-tb;text-anchor:middle;fill:#000000;fill-opacity:1;stroke:none;font-family:DejaVu Sans;-inkscape-font-specification:DejaVu Sans"
     x="364.00711"
     y="309.64487"
     id="text4533"
     sodipodi:linespacing="125%"><tspan
       sodipodi:role="line"
       id="tspan4535"
       x="364.00711"
       y="309.64487">Planète</tspan></text>
  <path
     id="path7507"
     style="font-size:medium;font-style:normal;font-variant:normal;font-weight:normal;font-stretch:normal;text-indent:0;text-align:start;text-decoration:none;line-height:normal;letter-spacing:normal;word-spacing:normal;text-transform:none;direction:ltr;block-progression:tb;writing-mode:lr-tb;text-anchor:start;baseline-shift:baseline;color:#ff0000;fill:#00ff00;fill-opacity:1;stroke:none;stroke-width:0.99999994;marker:none;visibility:visible;display:inline;overflow:visible;enable-background:accumulate;font-family:Sans;-inkscape-font-specification:Sans"
     d="m 458.46168,359.85107 c 3.11375,-13.09634 4.35467,-26.57002 2.95815,-40.07829 -3.39067,-9.11607 -14.8687,-8.89415 -22.875,-7.59375 -8.98762,0.36359 -17.51644,6.34272 -19.53001,15.34513 -4.84824,10.74714 -9.72073,21.66294 -15.03162,32.34561 m 14.37963,-0.0263 c 5.16739,-11.35164 9.92949,-22.98343 16.46325,-33.38314 4.28448,-1.60134 10.53067,-2.4715 14.3125,-0.78125 0.14063,11.67016 -1.37718,23.09726 -4.22879,34.17654 M 401.81138,242.9143 c 2.09515,4.44505 4.01957,8.96706 5.76459,13.55354 6.03819,13.01415 10.38176,27.45971 19.90636,38.36744 10.12613,8.84301 30.09671,3.41349 31.03125,-11.0625 1.35101,-13.93273 -0.49644,-27.62854 -4.27629,-40.88205 m -13.54892,0.007 c 4.366,13.477 6.70321,27.62384 4.13771,41.49984 -3.97642,3.85176 -10.7752,0.83608 -12.09375,-4.28125 -6.4226,-11.98878 -11.2796,-24.76665 -16.76956,-37.23827"
     inkscape:connector-curvature="0" />
  <path
     inkscape:connector-curvature="0"
     id="path3022"
     d="m 243.86343,89.13792 c 72.57282,1.44764 142.52699,42.01361 180.3354,103.89516 15.8508,26.4164 30.00568,56.51042 28.2007,87.96787 -0.50488,8.79916 -5.28616,10.87758 -11.44068,11.39981 -7.91542,0.67165 -11.2662,-2.86435 -16.51819,-13.93732 -10.042,-21.17197 -17.54456,-43.70628 -30.92783,-63.1967 -31.77038,-50.01659 -87.79547,-84.47186 -147.43131,-86.49679 -50.90941,0.18489 -101.69881,23.01195 -133.70531,63.00644 -40.4026,47.03722 -52.075,116.50175 -28.6042,173.99277 21.5368,55.97621 74.0794,99.65459 134.2059,106.49511 63.6534,9.3185 130.19495,-19.53338 168.61242,-70.7878 15.61485,-19.26939 24.47644,-42.4661 35.3005,-64.54031 7.51148,-15.31864 4.55344,-17.10317 20.77169,-18.43532 14.56254,-1.19615 13.89245,1.17783 12.30761,21.44065 -2.76549,35.35783 -21.51884,68.3304 -43.4067,95.69642 -46.25683,56.92486 -122.92074,86.86826 -195.50302,76.12456 -74.5836,-9.8202 -141.7525,-62.38044 -168.3094,-132.90076 -27.9559,-69.54876 -13.930999,-153.22384 34.172,-210.51296 39.2742,-48.18731 99.8777,-77.49347 161.94042,-79.21083 z"
     style="color:#ff0000;fill:none;stroke:#ff0000;stroke-width:1;stroke-linecap:butt;stroke-linejoin:miter;stroke-miterlimit:4;stroke-dasharray:none;marker-mid:url(#Arrow1Lend)"
     sodipodi:nodetypes="ccsssccccccsssccccc" />
  <g
     style="font-size:14px;font-style:normal;font-variant:normal;font-weight:normal;font-stretch:normal;text-align:start;line-height:125%;letter-spacing:0px;word-spacing:0px;writing-mode:lr-tb;text-anchor:start;fill:#ffffff;fill-opacity:1;stroke:none;font-family:Sans;-inkscape-font-specification:Sans"
     id="text6004"
     transform="translate(372.34019,-729.06811)" />
  <g
     style="font-size:14px;font-style:normal;font-variant:normal;font-weight:normal;font-stretch:normal;text-align:start;line-height:125%;letter-spacing:0px;word-spacing:0px;writing-mode:lr-tb;text-anchor:start;fill:#ffffff;fill-opacity:1;stroke:none;font-family:Sans;-inkscape-font-specification:Sans"
     id="text6004-9"
     transform="translate(593.85979,-730.06525)" />
  <path
     sodipodi:type="arc"
     style="fill:#0000ff;fill-opacity:1;fill-rule:evenodd;stroke:#000000;stroke-width:0.5;stroke-linecap:round;stroke-linejoin:round;stroke-miterlimit:4;stroke-opacity:1;stroke-dasharray:none;stroke-dashoffset:0"
     id="path3088"
     sodipodi:cx="491.89429"
     sodipodi:cy="240.63057"
     sodipodi:rx="4.9456491"
     sodipodi:ry="4.9456491"
     d="m 496.83994,240.63057 a 4.9456491,4.9456491 0 1 1 -9.8913,0 4.9456491,4.9456491 0 1 1 9.8913,0 z"
     transform="matrix(1.6092051,0,0,1.6092051,-350.90829,-80.572111)" />
  <path
     sodipodi:type="arc"
     style="fill:none;stroke:#000000"
     id="path7544"
     sodipodi:cx="211.1478"
     sodipodi:cy="266.72562"
     sodipodi:rx="139.19438"
     sodipodi:ry="139.19438"
     d="m 350.34218,266.72562 a 139.19438,139.19438 0 1 1 -278.388765,0 139.19438,139.19438 0 1 1 278.388765,0 z"
     transform="matrix(0.9750815,0,0,0.9750815,38.243831,40.137934)" />
  <path
     inkscape:tile-y0="23.227551"
     inkscape:tile-x0="209.88799"
     inkscape:tile-h="20.336259"
     inkscape:tile-w="2.8895661"
     inkscape:tile-cy="266.72561"
     inkscape:tile-cx="211.15747"
     inkscape:transform-center-y="-233.09412"
     sodipodi:nodetypes="cssscc"
     inkscape:connector-curvature="0"
     id="path8121"
     d="m 244.12978,56.719082 c 0,0 1.78478,2.1864 1.61929,3.42899 -0.19309,1.44972 -2.87873,1.96774 -2.87873,3.42898 0,1.46123 2.78361,1.97053 2.87873,3.42897 0.0744,1.14183 -1.61929,2.18277 -1.61929,3.42898 l 0,6.62034"
     style="fill:none;stroke:#000000;stroke-width:0.56958348;stroke-linecap:butt;stroke-linejoin:miter;stroke-miterlimit:4;stroke-opacity:1;stroke-dasharray:none;stroke-dashoffset:0;marker-end:url(#Arrow2Lend)" />
  <path
     style="fill:none;stroke:#000000;stroke-width:0.56958348;stroke-linecap:butt;stroke-linejoin:miter;stroke-miterlimit:4;stroke-opacity:1;stroke-dasharray:none;stroke-dashoffset:0;marker-end:url(#Arrow2Lend)"
     d="m 244.14984,543.71521 c 0,0 -1.78478,-2.1864 -1.61929,-3.42899 0.19309,-1.44972 2.87873,-1.96774 2.87873,-3.42898 0,-1.46123 -2.78361,-1.97053 -2.87873,-3.42897 -0.0744,-1.14183 1.61929,-2.18277 1.61929,-3.42898 l 0,-6.62034"
     id="use8171"
     inkscape:connector-curvature="0"
     sodipodi:nodetypes="cssscc"
     inkscape:tile-x0="209.88799"
     inkscape:tile-y0="23.227551"
     inkscape:transform-center-y="233.09412" />
  <use
     x="0"
     y="0"
     inkscape:tiled-clone-of="#path8121"
     xlink:href="#path8121"
     transform="matrix(0.8660254,0.5,-0.5,0.8660254,182.8171,-81.848432)"
     id="use8173"
     inkscape:transform-center-x="-116.68037"
     inkscape:transform-center-y="-201.88701"
     width="1221.1652"
     height="563.05005" />
  <use
     x="0"
     y="0"
     inkscape:tiled-clone-of="#path8121"
     xlink:href="#path8121"
     transform="matrix(0.5,0.8660254,-0.8660254,0.5,382.06558,-61.322702)"
     id="use8175"
     inkscape:transform-center-x="-201.882"
     inkscape:transform-center-y="-116.6226"
     width="1221.1652"
     height="563.05005" />
  <use
     x="0"
     y="0"
     inkscape:tiled-clone-of="#path8121"
     xlink:href="#path8121"
     transform="matrix(0,1,-1,0,544.35695,56.077344)"
     id="use8177"
     inkscape:transform-center-x="-233.09411"
     width="1221.1652"
     height="563.05005" />
  <use
     x="0"
     y="0"
     inkscape:tiled-clone-of="#path8121"
     xlink:href="#path8121"
     transform="matrix(-0.5,0.8660254,-0.8660254,-0.5,626.20538,238.89443)"
     id="use8179"
     inkscape:transform-center-x="-201.887"
     inkscape:transform-center-y="116.68038"
     width="1221.1652"
     height="563.05005" />
  <use
     x="0"
     y="0"
     inkscape:tiled-clone-of="#path8121"
     xlink:href="#path8121"
     transform="matrix(-0.8660254,0.5,-0.5,-0.8660254,605.67966,438.14291)"
     id="use8181"
     inkscape:transform-center-x="-116.62259"
     inkscape:transform-center-y="201.882"
     width="1221.1652"
     height="563.05005" />
  <use
     x="0"
     y="0"
     inkscape:tiled-clone-of="#path8121"
     xlink:href="#path8121"
     transform="matrix(-1,0,0,-1,488.25992,221.21035)"
     id="use8183"
     inkscape:transform-center-y="-146.1298"
     width="1221.1652"
     height="563.05005"
     inkscape:tile-cx="211.13776"
     inkscape:tile-cy="266.72561"
     inkscape:tile-w="2.8895661"
     inkscape:tile-h="20.336259"
     inkscape:tile-x0="209.51767"
     inkscape:tile-y0="110.66349" />
  <use
     x="0"
     y="0"
     inkscape:tiled-clone-of="#path8121"
     xlink:href="#path8121"
     transform="matrix(-0.8660254,-0.5,0.5,-0.8660254,305.46251,682.28272)"
     id="use8185"
     inkscape:transform-center-x="116.68039"
     inkscape:transform-center-y="201.88701"
     width="1221.1652"
     height="563.05005" />
  <use
     x="0"
     y="0"
     inkscape:tiled-clone-of="#path8121"
     xlink:href="#path8121"
     transform="matrix(-0.5,-0.8660254,0.8660254,-0.5,106.21403,661.75699)"
     id="use8187"
     inkscape:transform-center-x="201.88201"
     inkscape:transform-center-y="116.62259"
     width="1221.1652"
     height="563.05005" />
  <use
     x="0"
     y="0"
     inkscape:tiled-clone-of="#path8121"
     xlink:href="#path8121"
     transform="matrix(0,-1,1,0,-56.07734,544.35695)"
     id="use8189"
     inkscape:transform-center-x="233.09412"
     width="1221.1652"
     height="563.05005" />
  <use
     x="0"
     y="0"
     inkscape:tiled-clone-of="#path8121"
     xlink:href="#path8121"
     transform="matrix(0.5,-0.8660254,0.8660254,0.5,-137.92577,361.53984)"
     id="use8191"
     inkscape:transform-center-x="201.88702"
     inkscape:transform-center-y="-116.68039"
     width="1221.1652"
     height="563.05005" />
  <use
     x="0"
     y="0"
     inkscape:tiled-clone-of="#path8121"
     xlink:href="#path8121"
     transform="matrix(0.8660254,-0.5,0.5,0.8660254,-117.40005,162.29137)"
     id="use8193"
     inkscape:transform-center-x="116.6226"
     inkscape:transform-center-y="-201.882"
     width="1221.1652"
     height="563.05005" />
  <use
     x="0"
     y="0"
     inkscape:tiled-clone-of="#use8183"
     xlink:href="#use8183"
     id="use8221"
     inkscape:transform-center-y="-146.1298"
     width="1221.1652"
     height="563.05005" />
  <use
     x="0"
     y="0"
     inkscape:tiled-clone-of="#use8183"
     xlink:href="#use8183"
     transform="matrix(0.8660254,0.5,-0.5,0.8660254,182.81446,-81.838579)"
     id="use8223"
     inkscape:transform-center-x="-72.93158"
     inkscape:transform-center-y="-126.53053"
     width="1221.1652"
     height="563.05005" />
  <use
     x="0"
     y="0"
     inkscape:tiled-clone-of="#use8183"
     xlink:href="#use8183"
     transform="matrix(0.5,0.8660254,-0.8660254,0.5,382.05572,-61.305636)"
     id="use8225"
     inkscape:transform-center-x="-126.53554"
     inkscape:transform-center-y="-72.989353"
     width="1221.1652"
     height="563.05005" />
  <use
     x="0"
     y="0"
     inkscape:tiled-clone-of="#use8183"
     xlink:href="#use8183"
     transform="matrix(0,1,-1,0,544.33724,56.097044)"
     id="use8227"
     inkscape:transform-center-x="-146.12979"
     width="1221.1652"
     height="563.05005" />
  <use
     x="0"
     y="0"
     inkscape:tiled-clone-of="#use8183"
     xlink:href="#use8183"
     transform="matrix(-0.5,0.8660254,-0.8660254,-0.5,626.17582,238.9115)"
     id="use8229"
     inkscape:transform-center-x="-126.53052"
     inkscape:transform-center-y="72.931588"
     width="1221.1652"
     height="563.05005" />
  <use
     x="0"
     y="0"
     inkscape:tiled-clone-of="#use8183"
     xlink:href="#use8183"
     transform="matrix(-0.8660254,0.5,-0.5,-0.8660254,605.64289,438.15276)"
     id="use8231"
     inkscape:transform-center-x="-72.989347"
     inkscape:transform-center-y="126.53555"
     width="1221.1652"
     height="563.05005" />
  <use
     x="0"
     y="0"
     inkscape:tiled-clone-of="#use8183"
     xlink:href="#use8183"
     transform="matrix(-1,0,0,-1,488.2402,600.43428)"
     id="use8233"
     inkscape:transform-center-x="1.3494413e-05"
     inkscape:transform-center-y="146.1298"
     width="1221.1652"
     height="563.05005" />
  <use
     x="0"
     y="0"
     inkscape:tiled-clone-of="#use8183"
     xlink:href="#use8183"
     transform="matrix(-0.8660254,-0.5,0.5,-0.8660254,305.42574,682.27286)"
     id="use8235"
     inkscape:transform-center-x="72.931594"
     inkscape:transform-center-y="126.53053"
     width="1221.1652"
     height="563.05005" />
  <use
     x="0"
     y="0"
     inkscape:tiled-clone-of="#use8183"
     xlink:href="#use8183"
     transform="matrix(-0.5,-0.8660254,0.8660254,-0.5,106.18447,661.73993)"
     id="use8237"
     inkscape:transform-center-x="126.53556"
     inkscape:transform-center-y="72.989355"
     width="1221.1652"
     height="563.05005" />
  <use
     x="0"
     y="0"
     inkscape:tiled-clone-of="#use8183"
     xlink:href="#use8183"
     transform="matrix(0,-1,1,0,-56.09704,544.33724)"
     id="use8239"
     inkscape:transform-center-x="146.12981"
     width="1221.1652"
     height="563.05005" />
  <use
     x="0"
     y="0"
     inkscape:tiled-clone-of="#use8183"
     xlink:href="#use8183"
     transform="matrix(0.5,-0.8660254,0.8660254,0.5,-137.93562,361.52278)"
     id="use8241"
     inkscape:transform-center-x="126.53053"
     inkscape:transform-center-y="-72.931586"
     width="1221.1652"
     height="563.05005" />
  <use
     x="0"
     y="0"
     inkscape:tiled-clone-of="#use8183"
     xlink:href="#use8183"
     transform="matrix(0.8660254,-0.5,0.5,0.8660254,-117.40269,162.28152)"
     id="use8243"
     inkscape:transform-center-x="72.989361"
     inkscape:transform-center-y="-126.53555"
     width="1221.1652"
     height="563.05005" />
  <g
     id="g8288"
     transform="translate(162.61716,31.693966)">
    <rect
       y="-31.036224"
       x="176.36937"
       height="27.847794"
       width="45.058678"
       id="rect8252"
       style="fill:#ff0000;fill-opacity:1;fill-rule:evenodd;stroke:#000000;stroke-width:1;stroke-linecap:butt;stroke-linejoin:miter;stroke-miterlimit:4;stroke-opacity:1;stroke-dasharray:none;stroke-dashoffset:0" />
    <text
       sodipodi:linespacing="125%"
       id="text8258"
       y="-9.2252207"
       x="259.91275"
       style="font-size:32px;font-style:normal;font-variant:normal;font-weight:normal;font-stretch:normal;text-align:center;line-height:125%;letter-spacing:0px;word-spacing:0px;writing-mode:lr-tb;text-anchor:middle;fill:#000000;fill-opacity:1;stroke:none;font-family:DejaVu Sans;-inkscape-font-specification:DejaVu Sans"
       xml:space="preserve"><tspan
         y="-9.2252207"
         x="259.91275"
         id="tspan8260"
         sodipodi:role="line">t<tspan
   id="tspan8274"
   style="font-size:65.00091553%;baseline-shift:sub">diff</tspan></tspan></text>
  </g>
  <g
     id="g8282"
     transform="translate(28.310786,78.687144)">
    <rect
       y="-78.029404"
       x="176.36937"
       height="27.847794"
       width="45.058678"
       id="rect8256"
       style="fill:#cccccc;fill-opacity:1;fill-rule:evenodd;stroke:#000000;stroke-width:1;stroke-linecap:butt;stroke-linejoin:miter;stroke-miterlimit:4;stroke-opacity:1;stroke-dasharray:none;stroke-dashoffset:0" />
    <text
       sodipodi:linespacing="125%"
       id="text8262"
       y="-56.218399"
       x="255.62675"
       style="font-size:32px;font-style:normal;font-variant:normal;font-weight:normal;font-stretch:normal;text-align:center;line-height:125%;letter-spacing:0px;word-spacing:0px;writing-mode:lr-tb;text-anchor:middle;fill:#000000;fill-opacity:1;stroke:none;font-family:DejaVu Sans;-inkscape-font-specification:DejaVu Sans"
       xml:space="preserve"><tspan
         y="-56.218399"
         x="255.62675"
         id="tspan8264"
         sodipodi:role="line">t<tspan
   id="tspan8266"
   style="font-size:65.00091553%;baseline-shift:sub">lib</tspan></tspan></text>
  </g>
  <g
     id="g8276"
     transform="translate(-131.11236,125.68026)">
    <rect
       style="fill:#00ff00;fill-opacity:1;fill-rule:evenodd;stroke:#000000;stroke-width:1;stroke-linecap:butt;stroke-linejoin:miter;stroke-miterlimit:4;stroke-opacity:1;stroke-dasharray:none;stroke-dashoffset:0"
       id="rect8254"
       width="45.058678"
       height="27.847794"
       x="176.36937"
       y="-125.02253" />
    <text
       sodipodi:linespacing="125%"
       id="text8268"
       y="-103.21152"
       x="276.02078"
       style="font-size:32px;font-style:normal;font-variant:normal;font-weight:normal;font-stretch:normal;text-align:center;line-height:125%;letter-spacing:0px;word-spacing:0px;writing-mode:lr-tb;text-anchor:middle;fill:#000000;fill-opacity:1;stroke:none;font-family:DejaVu Sans;-inkscape-font-specification:DejaVu Sans"
       xml:space="preserve"><tspan
         y="-103.21152"
         x="276.02078"
         id="tspan8270"
         sodipodi:role="line">t<tspan
   id="tspan8272"
   style="font-size:65.00091553%;baseline-shift:sub">U-turn</tspan></tspan></text>
  </g>
</svg>
