<?xml version="1.0" encoding="UTF-8" standalone="no"?>
<!-- Created with Inkscape (http://www.inkscape.org/) -->

<svg
   xmlns:dc="http://purl.org/dc/elements/1.1/"
   xmlns:cc="http://creativecommons.org/ns#"
   xmlns:rdf="http://www.w3.org/1999/02/22-rdf-syntax-ns#"
   xmlns:svg="http://www.w3.org/2000/svg"
   xmlns="http://www.w3.org/2000/svg"
   xmlns:sodipodi="http://sodipodi.sourceforge.net/DTD/sodipodi-0.dtd"
   xmlns:inkscape="http://www.inkscape.org/namespaces/inkscape"
   id="svg2"
   version="1.1"
   inkscape:version="0.48.2 r9819"
   width="650.867"
   height="477.20779"
   xml:space="preserve"
   sodipodi:docname="disk_dispersion.svg"><metadata
     id="metadata8"><rdf:RDF><cc:Work
         rdf:about=""><dc:format>image/svg+xml</dc:format><dc:type
           rdf:resource="http://purl.org/dc/dcmitype/StillImage" /><dc:title></dc:title></cc:Work></rdf:RDF></metadata><defs
     id="defs6" /><sodipodi:namedview
     pagecolor="#ffffff"
     bordercolor="#666666"
     borderopacity="1"
     objecttolerance="10"
     gridtolerance="10"
     guidetolerance="10"
     inkscape:pageopacity="0"
     inkscape:pageshadow="2"
     inkscape:window-width="640"
     inkscape:window-height="480"
     id="namedview4"
     showgrid="false"
     fit-margin-top="0"
     fit-margin-left="0"
     fit-margin-right="0"
     fit-margin-bottom="0"
     inkscape:zoom="1"
     inkscape:cx="312.02455"
     inkscape:cy="232.56136"
     inkscape:current-layer="g10"
     inkscape:object-nodes="true" /><g
     id="g10"
     inkscape:groupmode="layer"
     inkscape:label="graph"
     transform="matrix(1.25,0,0,-1.25,-8.4130353,664.79121)"><g
   id="g12" /><path
   id="path28"
   style="fill:none;stroke:#000000;stroke-width:0.80000001;stroke-linecap:round;stroke-linejoin:round;stroke-miterlimit:10;stroke-opacity:1;stroke-dasharray:none"
   d="m 53.455757,193.31546 2.980513,0 m -2.980513,25.91982 5.961027,0 m -5.961027,25.97305 2.980513,0 m -2.980513,25.91982 2.980513,0 m -2.980513,25.97305 2.980513,0 m -2.980513,25.91982 2.980513,0 m -2.980513,25.97305 5.961027,0 m -5.961027,25.91982 2.980513,0 m -2.980513,25.91982 2.980513,0 m -2.980513,25.97305 2.980513,0 m -2.980513,25.91982 2.980513,0 m -2.980513,25.97305 5.961027,0 m -5.961027,25.91982 2.980513,0 m 449.04629,-311.30399 2.98052,0 m -5.96103,25.91982 5.96103,0 m -2.98052,25.97305 2.98052,0 m -2.98052,25.91982 2.98052,0 m -2.98052,25.97305 2.98052,0 m -2.98052,25.91982 2.98052,0 m -5.96103,25.97305 5.96103,0 m -2.98052,25.91982 2.98052,0 m -2.98052,25.91982 2.98052,0 m -2.98052,25.97305 2.98052,0 m -2.98052,25.91982 2.98052,0 m -5.96103,25.97305 5.96103,0 m -2.98052,25.91982 2.98052,0 M 53.455757,193.31546 l 455.007323,0 0,311.30399 -455.007323,0 0,-311.30399 0,5.96103 m 34.222682,-5.96103 0,2.98051 m 20.065241,-2.98051 0,2.98051 m 14.21066,-2.98051 0,2.98051 m 11.01726,-2.98051 0,2.98051 m 8.99476,-2.98051 0,2.98051 m 7.61096,-2.98051 0,2.98051 m 6.59971,-2.98051 0,2.98051 m 5.80135,-2.98051 0,2.98051 m 5.2159,-2.98051 0,5.96103 m 34.27591,-5.96103 0,2.98051 m 20.01202,-2.98051 0,2.98051 m 14.21066,-2.98051 0,2.98051 m 11.01725,-2.98051 0,2.98051 m 8.99477,-2.98051 0,2.98051 m 7.61095,-2.98051 0,2.98051 m 6.59971,-2.98051 0,2.98051 m 5.85458,-2.98051 0,2.98051 m 5.2159,-2.98051 0,5.96103 m 34.22268,-5.96103 0,2.98051 m 20.01202,-2.98051 0,2.98051 m 14.21066,-2.98051 0,2.98051 m 11.01726,-2.98051 0,2.98051 m 9.04798,-2.98051 0,2.98051 m 7.61096,-2.98051 0,2.98051 m 6.59971,-2.98051 0,2.98051 m 5.80135,-2.98051 0,2.98051 m 5.2159,-2.98051 0,5.96103 m 34.22268,-5.96103 0,2.98051 m 20.06525,-2.98051 0,2.98051 m 14.21066,-2.98051 0,2.98051 m 11.01726,-2.98051 0,2.98051 m 8.99476,-2.98051 0,2.98051 m 7.61095,-2.98051 0,2.98051 m 6.59971,-2.98051 0,2.98051 m 5.80136,-2.98051 0,2.98051 m 5.2159,-2.98051 0,5.96103 m -455.007323,299.38193 0,5.96103 m 34.222682,-2.98051 0,2.98051 m 20.065241,-2.98051 0,2.98051 m 14.21066,-2.98051 0,2.98051 m 11.01726,-2.98051 0,2.98051 m 8.99476,-2.98051 0,2.98051 m 7.61096,-2.98051 0,2.98051 m 6.59971,-2.98051 0,2.98051 m 5.80135,-2.98051 0,2.98051 m 5.2159,-5.96103 0,5.96103 m 34.27591,-2.98051 0,2.98051 m 20.01202,-2.98051 0,2.98051 m 14.21066,-2.98051 0,2.98051 m 11.01725,-2.98051 0,2.98051 m 8.99477,-2.98051 0,2.98051 m 7.61095,-2.98051 0,2.98051 m 6.59971,-2.98051 0,2.98051 m 5.85458,-2.98051 0,2.98051 m 5.2159,-5.96103 0,5.96103 m 34.22268,-2.98051 0,2.98051 m 20.01202,-2.98051 0,2.98051 m 14.21066,-2.98051 0,2.98051 m 11.01726,-2.98051 0,2.98051 m 9.04798,-2.98051 0,2.98051 m 7.61096,-2.98051 0,2.98051 m 6.59971,-2.98051 0,2.98051 m 5.80135,-2.98051 0,2.98051 m 5.2159,-5.96103 0,5.96103 m 34.22268,-2.98051 0,2.98051 m 20.06525,-2.98051 0,2.98051 m 14.21066,-2.98051 0,2.98051 m 11.01726,-2.98051 0,2.98051 m 8.99476,-2.98051 0,2.98051 m 7.61095,-2.98051 0,2.98051 m 6.59971,-2.98051 0,2.98051 m 5.80136,-2.98051 0,2.98051 m 5.2159,-5.96103 0,5.96103"
   inkscape:connector-curvature="0" /><path
   style="fill:none;stroke:#0000ff;stroke-width:0.80000001;stroke-linecap:round;stroke-linejoin:round;stroke-miterlimit:10;stroke-opacity:1;stroke-dasharray:none"
   d="m 53.455757,474.76109 c 63.999063,-15.24036 128.632013,-28.52727 191.251903,-48.93048 38.51498,-12.71726 76.44718,-31.17102 103.55356,-62.20009 17.07242,-19.04092 29.93264,-41.46297 40.34264,-64.71972 14.96038,-33.87371 25.2643,-69.62463 33.79763,-105.59534"
   id="path3516"
   inkscape:connector-curvature="0"
   sodipodi:nodetypes="ccccc" /><path
   style="fill:none;stroke:#00ff00;stroke-width:0.80000001;stroke-linecap:round;stroke-linejoin:round;stroke-miterlimit:10;stroke-opacity:1;stroke-dasharray:none"
   d="M 53.455757,407.75276 C 135.96208,390.57035 218.07669,371.5554 300.41259,353.62451 c 17.01601,-3.82378 34.03666,-7.63042 50.98881,-11.70916 26.59088,-6.38884 53.08637,-13.2197 78.98361,-21.87484 4.52267,-1.54564 9.02662,-3.1511 13.51875,-4.79011 7.15141,-2.73867 14.27363,-5.59173 21.23579,-8.78187 8.82645,-4.01458 17.4389,-8.53702 25.70656,-13.57199 6.07295,-3.78574 11.98713,-7.8195 17.61697,-12.24139"
   id="path56"
   inkscape:connector-curvature="0" /><path
   id="path4327"
   style="fill:none;stroke:#ff0000;stroke-width:0.80000001;stroke-linecap:round;stroke-linejoin:round;stroke-miterlimit:10;stroke-opacity:1;stroke-dasharray:none"
   d="M 53.455757,389.97613 C 128.19139,374.76005 202.27584,356.3972 277.36683,342.92659 c 16.94454,-3.09305 33.90274,-6.14228 50.82914,-9.3141 33.95959,-6.52568 67.80024,-13.71118 101.17779,-22.67312 2.0167,-0.59232 4.05411,-1.1102 6.06748,-1.70317 9.99364,-2.74289 19.88197,-5.78617 29.69831,-9.04708 2.70422,-0.96633 5.45494,-1.84721 8.14282,-2.87439 4.16275,-1.45269 8.26938,-3.05137 12.34784,-4.68397 7.65281,-3.05972 15.151,-6.41986 22.4603,-10.21846 0.14272,-0.0287 0.276,-0.10541 0.37257,-0.21367"
   inkscape:connector-curvature="0"
   sodipodi:nodetypes="cccccccccc" /><path
   style="fill:none;stroke:#000000;stroke-width:0.80000001;stroke-linecap:round;stroke-linejoin:round;stroke-miterlimit:10;stroke-opacity:1;stroke-dasharray:none"
   d="m 53.455757,379.22499 c 56.772863,-11.3733 112.959213,-25.58045 169.956803,-35.81879 24.69823,-4.32991 49.56228,-7.58135 74.39208,-11.01785 39.17773,-5.36311 78.09878,-12.37862 116.56011,-21.44905 3.94435,-0.94667 7.87624,-1.93853 11.8156,-2.87407 13.08555,-3.32629 26.12483,-6.80848 38.9592,-10.85759 l 0.26575,-0.0532 c 4.9563,-1.58411 9.87577,-3.21952 14.79612,-4.89656 9.17886,-3.31994 18.2758,-6.79733 27.09074,-11.01726 0.39456,-0.16385 0.78987,-0.36006 1.17089,-0.5322"
   id="path82"
   inkscape:connector-curvature="0" /><path
   style="fill:none;stroke:#ff00ff;stroke-width:0.80000001;stroke-linecap:round;stroke-linejoin:round;stroke-miterlimit:10;stroke-opacity:1;stroke-dasharray:none"
   d="m 53.455727,352.29397 c 42.493472,-8.13601 84.378583,-19.47806 127.024213,-26.67207 35.66503,-2.56527 71.41363,2.03475 107.12268,0.0263 56.42183,-2.33753 112.2772,-13.39696 166.57327,-27.80061 18.49876,-5.22957 36.86573,-10.97891 54.28716,-18.89556"
   id="path84"
   inkscape:connector-curvature="0" /><path
   style="fill:none;stroke:#000000;stroke-width:0.80000001;stroke-linecap:round;stroke-linejoin:round;stroke-miterlimit:10;stroke-opacity:1;stroke-dasharray:none"
   d="m 53.455727,327.81113 c 37.755685,-7.67263 75.134573,-17.22434 112.561463,-26.18608 13.55874,1.42984 24.74273,10.59947 37.90128,13.83824 36.53276,10.49064 75.18331,10.28294 112.78783,7.57757 51.12176,-4.7953 101.76635,-15.11963 150.82794,-29.34537 13.93078,-4.25967 27.7092,-8.95514 40.92881,-14.95636"
   id="path94"
   inkscape:connector-curvature="0" /><path
   style="fill:none;stroke:#000000;stroke-width:0.80000001;stroke-linecap:round;stroke-linejoin:round;stroke-miterlimit:10;stroke-opacity:1;stroke-dasharray:none"
   d="m 53.455727,311.52478 c 31.311493,-7.64177 63.490453,-14.07369 92.493763,-28.62059 6.08706,-3.27156 11.62868,-7.47473 16.18853,-12.68081 8.30423,10.17367 11.43884,24.01395 22.26059,32.27705 20.0499,16.5776 47.31696,19.1289 72.27481,21.20878 62.20063,3.81388 124.16602,-8.08832 184.19661,-22.6684 22.99957,-6.01878 46.0068,-12.55592 67.59302,-22.35474"
   id="path108"
   inkscape:connector-curvature="0" /><path
   style="fill:none;stroke:#000000;stroke-width:0.80000001;stroke-linecap:round;stroke-linejoin:round;stroke-miterlimit:10;stroke-opacity:1;stroke-dasharray:none"
   d="m 53.455727,246.16645 c 29.546778,-7.85673 60.289063,-15.03932 86.062903,-32.19886 7.59524,-5.22378 13.47986,-12.33884 17.29705,-20.65203 m 15.22191,0 c 0.20351,26.98266 -0.40638,54.09929 0.30378,80.99851 3.63822,15.07942 12.66245,29.26054 26.99451,36.12071 26.51306,12.97169 56.92653,13.45558 85.85477,13.91686 55.41962,-0.88735 110.27977,-11.79694 163.6629,-25.44057 20.30243,-5.48651 40.51541,-11.58893 59.6095,-20.22488"
   id="path120"
   inkscape:connector-curvature="0" /><path
   style="fill:none;stroke:#000000;stroke-width:0.80000001;stroke-linecap:round;stroke-linejoin:round;stroke-miterlimit:10;stroke-opacity:1;stroke-dasharray:none"
   d="m 172.03759,193.31565 c 0.16954,21.06396 -0.33884,42.18792 0.25372,63.21443 2.4615,11.01614 2.55377,22.74768 8.06548,32.84279 8.82027,18.41721 29.41276,26.56013 48.32686,30.17079 44.82553,8.3319 90.87605,4.43225 135.59783,-2.64334 42.53859,-7.32489 84.90987,-16.31795 125.39372,-30.60322 6.3519,-2.34916 12.67939,-4.80663 18.78785,-7.66409"
   id="path132"
   inkscape:connector-curvature="0" /><path
   style="fill:none;stroke:#000000;stroke-width:0.80000001;stroke-linecap:round;stroke-linejoin:round;stroke-miterlimit:10;stroke-opacity:1;stroke-dasharray:none"
   d="m 283.64717,193.31572 c 0.13553,22.28103 -0.27303,44.58035 0.20778,66.84978 1.28348,15.42583 0.76195,31.90433 8.52087,45.82427 5.99717,10.35534 18.75345,13.06744 29.82415,13.3601 24.07801,0.54792 47.92474,-3.73795 71.51334,-8.03796 33.24364,-6.53845 66.35311,-14.3127 98.0376,-25.81241 5.63461,-2.12612 11.23677,-4.37593 16.71214,-6.86675"
   id="path144"
   inkscape:connector-curvature="0" /><path
   style="fill:none;stroke:#000000;stroke-width:0.80000001;stroke-linecap:round;stroke-linejoin:round;stroke-miterlimit:10;stroke-opacity:1;stroke-dasharray:none"
   d="m 323.1922,193.31556 c 0.0967,21.34837 -0.19445,42.7097 0.14744,64.04988 1.15877,14.53048 1.03376,29.96427 8.16529,43.11261 4.52272,8.43418 14.24859,12.04234 23.31692,12.62174 18.49855,1.13734 36.87195,-2.35686 54.96494,-5.61977 29.13777,-5.85694 58.10753,-13.06641 85.79621,-23.52433 4.30975,-1.72541 8.67537,-3.44756 12.88005,-5.42947"
   id="path156"
   inkscape:connector-curvature="0" /><path
   style="fill:none;stroke:#000000;stroke-width:0.80000001;stroke-linecap:round;stroke-linejoin:round;stroke-miterlimit:10;stroke-opacity:1;stroke-dasharray:none"
   d="m 347.46209,193.31551 c 0.10665,19.32796 -0.21525,38.66703 0.16442,57.98791 0.83593,14.0873 0.99484,28.67062 6.32736,41.94713 2.96378,7.6165 10.06194,13.1571 18.09749,14.44212 12.9372,2.37064 26.14317,0.29964 39.01353,-1.54312 26.08735,-4.43571 51.81814,-10.88191 76.74749,-19.48008 6.98159,-2.51445 13.92034,-5.18552 20.65067,-8.24919"
   id="path166"
   inkscape:connector-curvature="0" /><path
   style="fill:none;stroke:#000000;stroke-width:0.80000001;stroke-linecap:round;stroke-linejoin:round;stroke-miterlimit:10;stroke-opacity:1;stroke-dasharray:none"
   d="m 366.3032,193.31595 c 0.0921,18.89836 -0.18612,37.80586 0.14269,56.69839 0.70119,13.17443 1.06121,26.73429 5.75231,39.2214 2.58161,7.12959 8.75219,12.77412 16.21976,14.30345 10.99459,2.44663 22.32227,0.9298 33.34411,-0.53022 23.14591,-3.70001 45.89044,-9.55735 67.91313,-17.24403 6.33458,-2.30595 12.68441,-4.71438 18.78785,-7.55809"
   id="path176"
   inkscape:connector-curvature="0" /><path
   style="fill:none;stroke:#000000;stroke-width:0.80000001;stroke-linecap:round;stroke-linejoin:round;stroke-miterlimit:10;stroke-opacity:1;stroke-dasharray:none"
   d="m 381.52511,193.31551 c 0.14621,24.62881 -0.66658,49.33859 1.85911,73.87871 1.2984,9.46077 2.55569,19.87301 9.31783,27.19261 6.55468,6.58566 16.4954,7.0939 25.22867,6.8125 16.4955,-0.72954 32.73733,-4.50245 48.6455,-8.62179 14.31138,-3.9303 28.42757,-8.54827 41.88683,-14.58355"
   id="path186"
   inkscape:connector-curvature="0" /><path
   style="fill:none;stroke:#000000;stroke-width:0.80000001;stroke-linecap:round;stroke-linejoin:round;stroke-miterlimit:10;stroke-opacity:1;stroke-dasharray:none"
   d="m 395.20353,193.3155 c 0.16865,23.1455 -0.67647,46.35717 1.55681,69.43168 1.10961,9.29743 2.08445,19.29088 7.81052,27.06244 5.10342,6.58879 13.94023,8.13859 21.77971,8.14305 13.60885,-0.005 27.03587,-2.89131 40.22565,-6.06655 14.32655,-3.69065 28.43153,-8.23247 41.88683,-14.21135"
   id="path194"
   inkscape:connector-curvature="0" /><path
   style="fill:none;stroke:#000000;stroke-width:0.80000001;stroke-linecap:round;stroke-linejoin:round;stroke-miterlimit:10;stroke-opacity:1;stroke-dasharray:none"
   d="m 407.23203,193.31561 c -0.0239,18.60156 0.076,37.21193 0.86948,55.79841 0.81141,11.43067 1.17903,23.31475 5.9717,33.92337 2.68032,5.81398 8.34915,9.85776 14.60788,10.87053 8.89438,1.7479 18.03378,0.57219 26.87031,-0.80676 16.30601,-2.78704 32.29058,-7.47404 47.53611,-13.56346 1.79338,-0.74291 3.60088,-1.51607 5.37554,-2.28854"
   id="path202"
   inkscape:connector-curvature="0" /><path
   style="fill:none;stroke:#000000;stroke-width:0.80000001;stroke-linecap:round;stroke-linejoin:round;stroke-miterlimit:10;stroke-opacity:1;stroke-dasharray:none"
   d="m 418.7283,193.31575 c 0.1294,23.11979 -0.63573,46.32668 1.95094,69.34823 1.04949,7.71178 2.31019,16.00557 7.44515,22.17165 4.87374,5.58627 12.70134,6.80692 19.71971,6.78366 11.74074,-0.0821 23.26107,-2.66044 34.59271,-5.69418 8.88945,-2.53078 17.61676,-5.55165 26.02624,-9.20835"
   id="path210"
   inkscape:connector-curvature="0" /><path
   style="fill:none;stroke:#000000;stroke-width:0.80000001;stroke-linecap:round;stroke-linejoin:round;stroke-miterlimit:10;stroke-opacity:1;stroke-dasharray:none"
   d="m 429.37299,193.31565 c 0.12159,22.1481 -0.60012,44.37256 1.77051,66.43461 1.04237,7.5759 2.10275,15.71671 7.01288,21.89148 4.45263,5.33495 11.72015,6.76604 18.3216,6.78387 10.51429,0.0874 20.78391,-2.21033 30.90861,-4.94922 7.18773,-2.11224 14.27675,-4.48264 21.07646,-7.50485"
   id="path218"
   inkscape:connector-curvature="0" /><path
   style="fill:none;stroke:#000000;stroke-width:0.80000001;stroke-linecap:round;stroke-linejoin:round;stroke-miterlimit:10;stroke-opacity:1;stroke-dasharray:none"
   d="m 439.5919,193.3155 c 0.073,12.8746 -0.15259,25.75373 0.12535,38.62522 0.40166,11.38965 0.66319,22.87214 2.89164,34.08249 1.31325,6.02622 3.63799,12.54631 9.1929,15.8798 5.88615,3.52027 13.05981,3.50944 19.67096,3.0099 10.38123,-0.97747 20.59243,-3.73471 30.44384,-7.23736 2.19985,-0.83615 4.41108,-1.65367 6.54646,-2.60788"
   id="path224"
   inkscape:connector-curvature="0" /><path
   style="fill:none;stroke:#000000;stroke-width:0.80000001;stroke-linecap:round;stroke-linejoin:round;stroke-miterlimit:10;stroke-opacity:1;stroke-dasharray:none"
   d="m 449.43823,193.31648 c 0.0419,19.30231 -0.33858,38.64375 1.28992,57.89749 0.79492,7.66507 1.50765,15.72729 5.57591,22.46993 2.71106,4.41442 7.66538,6.8784 12.66721,7.55663 6.79893,0.95511 13.69075,0.0255 20.33136,-1.38339 6.51255,-1.40585 12.98917,-3.46894 19.16042,-5.96136"
   id="path4364"
   inkscape:connector-curvature="0" /><path
   style="fill:none;stroke:#000000;stroke-width:0.80000001;stroke-linecap:round;stroke-linejoin:round;stroke-miterlimit:10;stroke-opacity:1;stroke-dasharray:none"
   d="m 459.44424,193.31548 c 0.11723,20.16546 -0.54756,40.40579 1.66429,60.48864 0.9098,6.31241 1.92469,13.07774 6.08491,18.1542 3.02193,3.53594 7.63826,5.2488 12.15638,5.60973 5.72429,0.54413 11.42572,-0.27402 16.95089,-1.55187 4.10863,-0.95389 8.22939,-2.19985 12.16234,-3.77025"
   id="path236"
   inkscape:connector-curvature="0" /><path
   style="fill:none;stroke:#000000;stroke-width:0.80000001;stroke-linecap:round;stroke-linejoin:round;stroke-miterlimit:10;stroke-opacity:1;stroke-dasharray:none"
   d="m 469.87604,193.31559 c 0.045,11.54429 -0.092,23.09123 0.0723,34.63379 0.35898,10.08095 0.30187,20.29229 2.57964,30.17159 1.13909,4.88223 3.36598,9.98327 7.88632,12.58152 4.57916,2.73626 10.19641,2.78265 15.34639,2.23518 4.31866,-0.51254 8.53427,-1.60431 12.70237,-2.98018"
   id="path240"
   inkscape:connector-curvature="0" /><path
   style="fill:none;stroke:#000000;stroke-width:0.80000001;stroke-linecap:round;stroke-linejoin:round;stroke-miterlimit:10;stroke-opacity:1;stroke-dasharray:none"
   d="m 481.21264,193.31567 c 0.0309,12.53731 -0.0624,25.07632 0.0477,37.61255 0.24818,7.83769 0.2825,15.78208 2.18771,23.43475 1.10978,4.1898 3.16857,8.49251 6.97228,10.80436 3.5161,2.18258 7.78093,2.51774 11.81273,2.18182 2.10643,-0.20243 4.17368,-0.60618 6.23002,-1.11749"
   id="path242"
   inkscape:connector-curvature="0" /><path
   style="fill:none;stroke:#000000;stroke-width:0.80000001;stroke-linecap:round;stroke-linejoin:round;stroke-miterlimit:10;stroke-opacity:1;stroke-dasharray:none"
   d="m 494.83784,193.31551 c 0.0185,14.10454 -0.037,28.21099 0.0277,42.31433 0.26924,4.88462 0.28637,9.91205 2.1012,14.52832 1.26395,3.272 3.57872,6.3989 6.97227,7.61093 1.41657,0.60348 2.98479,0.85704 4.524,0.85149"
   id="path246"
   inkscape:connector-curvature="0" /><text
   xml:space="preserve"
   style="font-size:16px;font-style:normal;font-variant:normal;font-weight:normal;font-stretch:normal;text-align:center;line-height:125%;letter-spacing:0px;word-spacing:0px;writing-mode:lr-tb;text-anchor:middle;fill:#000000;fill-opacity:1;stroke:none;font-family:DejaVu Sans;-inkscape-font-specification:DejaVu Sans"
   x="280.86566"
   y="-152.1761"
   id="text3458"
   sodipodi:linespacing="125%"
   transform="scale(1,-1)"><tspan
     sodipodi:role="line"
     id="tspan3460"
     x="280.86566"
     y="-152.1761">R [AU]</tspan></text>

<text
   xml:space="preserve"
   style="font-size:16px;font-style:normal;font-variant:normal;font-weight:normal;font-stretch:normal;text-align:center;line-height:125%;letter-spacing:0px;word-spacing:0px;writing-mode:lr-tb;text-anchor:middle;fill:#000000;fill-opacity:1;stroke:none;font-family:DejaVu Sans;-inkscape-font-specification:DejaVu Sans"
   x="348.90497"
   y="20.849287"
   id="text3462"
   sodipodi:linespacing="125%"
   transform="matrix(0,1,1,0,0,0)"><tspan
     sodipodi:role="line"
     id="tspan3464"
     x="348.90497"
     y="20.849287">log<tspan
   style="font-size:10.40014648px;baseline-shift:sub"
   id="tspan3466">10</tspan>(Σ [g/cm<tspan
   style="font-size:10.40014648px;baseline-shift:super"
   id="tspan3468">2</tspan>])</tspan></text>

<text
   xml:space="preserve"
   style="font-size:16px;font-style:normal;font-variant:normal;font-weight:normal;font-stretch:normal;text-align:center;line-height:125%;letter-spacing:0px;word-spacing:0px;writing-mode:lr-tb;text-anchor:middle;fill:#000000;fill-opacity:1;stroke:none;font-family:DejaVu Sans;-inkscape-font-specification:DejaVu Sans"
   x="39.83868"
   y="-213.51653"
   id="text3470"
   sodipodi:linespacing="125%"
   transform="scale(1,-1)"><tspan
     sodipodi:role="line"
     id="tspan3472"
     x="39.83868"
     y="-213.51653">-5</tspan></text>

<text
   xml:space="preserve"
   style="font-size:16px;font-style:normal;font-variant:normal;font-weight:normal;font-stretch:normal;text-align:center;line-height:125%;letter-spacing:0px;word-spacing:0px;writing-mode:lr-tb;text-anchor:middle;fill:#000000;fill-opacity:1;stroke:none;font-family:DejaVu Sans;-inkscape-font-specification:DejaVu Sans"
   x="42.393368"
   y="-343.14322"
   id="text3474"
   sodipodi:linespacing="125%"
   transform="scale(1,-1)"><tspan
     sodipodi:role="line"
     id="tspan3476"
     x="42.393368"
     y="-343.14322">0</tspan></text>

<text
   xml:space="preserve"
   style="font-size:16px;font-style:normal;font-variant:normal;font-weight:normal;font-stretch:normal;text-align:center;line-height:125%;letter-spacing:0px;word-spacing:0px;writing-mode:lr-tb;text-anchor:middle;fill:#000000;fill-opacity:1;stroke:none;font-family:DejaVu Sans;-inkscape-font-specification:DejaVu Sans"
   x="42.729305"
   y="-472.98087"
   id="text3478"
   sodipodi:linespacing="125%"
   transform="scale(1,-1)"><tspan
     sodipodi:role="line"
     id="tspan3480"
     x="42.729305"
     y="-472.98087">5</tspan></text>

<text
   xml:space="preserve"
   style="font-size:16px;font-style:normal;font-variant:normal;font-weight:normal;font-stretch:normal;text-align:center;line-height:125%;letter-spacing:0px;word-spacing:0px;writing-mode:lr-tb;text-anchor:middle;fill:#000000;fill-opacity:1;stroke:none;font-family:DejaVu Sans;-inkscape-font-specification:DejaVu Sans"
   x="53.670605"
   y="-173.50931"
   id="text3482"
   sodipodi:linespacing="125%"
   transform="scale(1,-1)"><tspan
     sodipodi:role="line"
     id="tspan3484"
     x="53.670605"
     y="-173.50931">0.1</tspan></text>

<text
   xml:space="preserve"
   style="font-size:16px;font-style:normal;font-variant:normal;font-weight:normal;font-stretch:normal;text-align:center;line-height:125%;letter-spacing:0px;word-spacing:0px;writing-mode:lr-tb;text-anchor:middle;fill:#000000;fill-opacity:1;stroke:none;font-family:DejaVu Sans;-inkscape-font-specification:DejaVu Sans"
   x="167.07088"
   y="-173.5015"
   id="text3486"
   sodipodi:linespacing="125%"
   transform="scale(1,-1)"><tspan
     sodipodi:role="line"
     id="tspan3488"
     x="167.07088"
     y="-173.5015">1</tspan></text>

<text
   xml:space="preserve"
   style="font-size:16px;font-style:normal;font-variant:normal;font-weight:normal;font-stretch:normal;text-align:center;line-height:125%;letter-spacing:0px;word-spacing:0px;writing-mode:lr-tb;text-anchor:middle;fill:#000000;fill-opacity:1;stroke:none;font-family:DejaVu Sans;-inkscape-font-specification:DejaVu Sans"
   x="280.61566"
   y="-173.50931"
   id="text3490"
   sodipodi:linespacing="125%"
   transform="scale(1,-1)"><tspan
     sodipodi:role="line"
     id="tspan3492"
     x="280.61566"
     y="-173.50931">10</tspan></text>

<text
   xml:space="preserve"
   style="font-size:16px;font-style:normal;font-variant:normal;font-weight:normal;font-stretch:normal;text-align:center;line-height:125%;letter-spacing:0px;word-spacing:0px;writing-mode:lr-tb;text-anchor:middle;fill:#000000;fill-opacity:1;stroke:none;font-family:DejaVu Sans;-inkscape-font-specification:DejaVu Sans"
   x="394.36752"
   y="-173.50931"
   id="text3494"
   sodipodi:linespacing="125%"
   transform="scale(1,-1)"><tspan
     sodipodi:role="line"
     id="tspan3496"
     x="394.36752"
     y="-173.50931">100</tspan></text>

<text
   xml:space="preserve"
   style="font-size:16px;font-style:normal;font-variant:normal;font-weight:normal;font-stretch:normal;text-align:center;line-height:125%;letter-spacing:0px;word-spacing:0px;writing-mode:lr-tb;text-anchor:middle;fill:#000000;fill-opacity:1;stroke:none;font-family:DejaVu Sans;-inkscape-font-specification:DejaVu Sans"
   x="508.11932"
   y="-173.50931"
   id="text3498"
   sodipodi:linespacing="125%"
   transform="scale(1,-1)"><tspan
     sodipodi:role="line"
     id="tspan3500"
     x="508.11932"
     y="-173.50931">1000</tspan></text>

<text
   xml:space="preserve"
   style="font-size:16px;font-style:normal;font-variant:normal;font-weight:normal;font-stretch:normal;text-align:center;line-height:125%;letter-spacing:0px;word-spacing:0px;writing-mode:lr-tb;text-anchor:middle;fill:#000000;fill-opacity:1;stroke:none;font-family:DejaVu Sans;-inkscape-font-specification:DejaVu Sans"
   x="280.65668"
   y="-517.71411"
   id="text3502"
   sodipodi:linespacing="125%"
   transform="scale(1,-1)"><tspan
     sodipodi:role="line"
     id="tspan3504"
     x="280.65668"
     y="-517.71411">Evolution of surface density: M<tspan
   style="font-size:10.40014648px;baseline-shift:sub"
   id="tspan3506">⋆</tspan>=1M<tspan
   style="font-size:10.40014648px;baseline-shift:sub"
   id="tspan3508">⊙</tspan>, ϕ=10<tspan
   style="font-size:10.40014648px;baseline-shift:super"
   id="tspan3510">42</tspan>s<tspan
   style="font-size:10.40014648px;baseline-shift:super"
   id="tspan3512">-1</tspan></tspan></text>

<g
   id="g3888"
   transform="translate(-67.47411,0.01411014)"><path
     inkscape:connector-curvature="0"
     id="path3864"
     d="m 318.19748,477.49216 23.75879,0"
     style="fill:none;stroke:#0000ff;stroke-width:0.80000001;stroke-linecap:butt;stroke-linejoin:miter;stroke-miterlimit:10;stroke-opacity:1;stroke-dasharray:none;stroke-dashoffset:0" /><text
     transform="scale(1,-1)"
     sodipodi:linespacing="125%"
     id="text3872"
     y="-473.21872"
     x="352.18347"
     style="font-size:16px;font-style:normal;font-variant:normal;font-weight:normal;font-stretch:normal;text-align:start;line-height:125%;letter-spacing:0px;word-spacing:0px;writing-mode:lr-tb;text-anchor:start;fill:#000000;fill-opacity:1;stroke:none;font-family:DejaVu Sans;-inkscape-font-specification:DejaVu Sans"
     xml:space="preserve"><tspan
       y="-473.21872"
       x="352.18347"
       id="tspan3874"
       sodipodi:role="line">t=0 Myr</tspan></text>
</g><g
   id="g3893"
   transform="translate(-67.47411,0.01411014)"><path
     style="fill:none;stroke:#00ff00;stroke-width:0.80000001;stroke-linecap:butt;stroke-linejoin:miter;stroke-miterlimit:10;stroke-opacity:1;stroke-dasharray:none;stroke-dashoffset:0"
     d="m 318.19748,459.0131 23.75879,0"
     id="path3866"
     inkscape:connector-curvature="0" /><text
     xml:space="preserve"
     style="font-size:16px;font-style:normal;font-variant:normal;font-weight:normal;font-stretch:normal;text-align:start;line-height:125%;letter-spacing:0px;word-spacing:0px;writing-mode:lr-tb;text-anchor:start;fill:#000000;fill-opacity:1;stroke:none;font-family:DejaVu Sans;-inkscape-font-specification:DejaVu Sans"
     x="352.18347"
     y="-454.73965"
     id="text3876"
     sodipodi:linespacing="125%"
     transform="scale(1,-1)"><tspan
       sodipodi:role="line"
       id="tspan3878"
       x="352.18347"
       y="-454.73965">t=2 Myr</tspan></text>
</g><g
   id="g3898"
   transform="translate(50.52589,36.972209)"><path
     inkscape:connector-curvature="0"
     id="path3868"
     d="m 318.19748,440.53403 23.75879,0"
     style="fill:none;stroke:#ff0000;stroke-width:0.80000001;stroke-linecap:butt;stroke-linejoin:miter;stroke-miterlimit:10;stroke-opacity:1;stroke-dasharray:none;stroke-dashoffset:0" /><text
     transform="scale(1,-1)"
     sodipodi:linespacing="125%"
     id="text3880"
     y="-436.36609"
     x="352.18347"
     style="font-size:16px;font-style:normal;font-variant:normal;font-weight:normal;font-stretch:normal;text-align:start;line-height:125%;letter-spacing:0px;word-spacing:0px;writing-mode:lr-tb;text-anchor:start;fill:#000000;fill-opacity:1;stroke:none;font-family:DejaVu Sans;-inkscape-font-specification:DejaVu Sans"
     xml:space="preserve"><tspan
       y="-436.36609"
       x="352.18347"
       id="tspan3882"
       sodipodi:role="line">t=4 Myr</tspan></text>
</g><g
   id="g3903"
   transform="translate(50.52589,36.97224)"><path
     style="fill:none;stroke:#ff00ff;stroke-width:0.80000001;stroke-linecap:butt;stroke-linejoin:miter;stroke-miterlimit:10;stroke-opacity:1;stroke-dasharray:none;stroke-dashoffset:0"
     d="m 318.19748,422.05496 23.75879,0"
     id="path3870"
     inkscape:connector-curvature="0" /><text
     xml:space="preserve"
     style="font-size:16px;font-style:normal;font-variant:normal;font-weight:normal;font-stretch:normal;text-align:start;line-height:125%;letter-spacing:0px;word-spacing:0px;writing-mode:lr-tb;text-anchor:start;fill:#000000;fill-opacity:1;stroke:none;font-family:DejaVu Sans;-inkscape-font-specification:DejaVu Sans"
     x="352.18347"
     y="-417.78152"
     id="text3884"
     sodipodi:linespacing="125%"
     transform="scale(1,-1)"><tspan
       sodipodi:role="line"
       id="tspan3886"
       x="352.18347"
       y="-417.78152">t=6 Myr</tspan></text>
</g><rect
   style="fill:none;stroke:#000000;stroke-width:1;stroke-linecap:butt;stroke-linejoin:miter;stroke-miterlimit:10;stroke-opacity:1;stroke-dasharray:none;stroke-dashoffset:0"
   id="rect3948"
   width="305.5"
   height="48.5"
   x="287.5"
   y="55.207794"
   transform="matrix(0.8,0,0,-0.8,6.7304282,531.83297)" /></g></svg>