<?xml version="1.0" encoding="UTF-8" standalone="no"?>
<!-- Created with Inkscape (http://www.inkscape.org/) -->

<svg
   xmlns:dc="http://purl.org/dc/elements/1.1/"
   xmlns:cc="http://creativecommons.org/ns#"
   xmlns:rdf="http://www.w3.org/1999/02/22-rdf-syntax-ns#"
   xmlns:svg="http://www.w3.org/2000/svg"
   xmlns="http://www.w3.org/2000/svg"
   xmlns:xlink="http://www.w3.org/1999/xlink"
   xmlns:sodipodi="http://sodipodi.sourceforge.net/DTD/sodipodi-0.dtd"
   xmlns:inkscape="http://www.inkscape.org/namespaces/inkscape"
   width="707.66528"
   height="321.90369"
   id="svg2"
   version="1.1"
   inkscape:version="0.48.2 r9819"
   sodipodi:docname="disk_energy.svg">
  <defs
     id="defs4">
    <linearGradient
       id="linearGradient4175">
      <stop
         style="stop-color:#ffff00;stop-opacity:1;"
         offset="0"
         id="stop4177" />
      <stop
         style="stop-color:#ff8200;stop-opacity:1;"
         offset="1"
         id="stop4179" />
    </linearGradient>
    <linearGradient
       id="linearGradient3844">
      <stop
         style="stop-color:#ff0000;stop-opacity:0.94117647;"
         offset="0"
         id="stop3846" />
      <stop
         style="stop-color:#0000ff;stop-opacity:1;"
         offset="1"
         id="stop3848" />
    </linearGradient>
    <linearGradient
       id="linearGradient5804">
      <stop
         style="stop-color:#000000;stop-opacity:1;"
         offset="0"
         id="stop5806" />
      <stop
         id="stop5808"
         offset="0.46999031"
         style="stop-color:#b5b5b5;stop-opacity:1;" />
      <stop
         style="stop-color:#ffffff;stop-opacity:1;"
         offset="1"
         id="stop5810" />
    </linearGradient>
    <marker
       inkscape:stockid="Arrow1Lend"
       orient="auto"
       refY="0"
       refX="0"
       id="Arrow1Lend"
       style="overflow:visible">
      <path
         id="path3891"
         d="M 0,0 5,-5 -12.5,0 5,5 0,0 z"
         style="fill-rule:evenodd;stroke:#000000;stroke-width:1pt;marker-start:none"
         transform="matrix(-0.8,0,0,-0.8,-10,0)"
         inkscape:connector-curvature="0" />
    </marker>
    <linearGradient
       id="linearGradient3875">
      <stop
         style="stop-color:#000000;stop-opacity:1;"
         offset="0"
         id="stop3877" />
      <stop
         style="stop-color:#ffffff;stop-opacity:1;"
         offset="1"
         id="stop3879" />
    </linearGradient>
    <linearGradient
       id="linearGradient3778">
      <stop
         style="stop-color:#000000;stop-opacity:1;"
         offset="0"
         id="stop3780" />
      <stop
         style="stop-color:#ffffff;stop-opacity:1;"
         offset="1"
         id="stop3782" />
    </linearGradient>
    <radialGradient
       inkscape:collect="always"
       xlink:href="#linearGradient3778"
       id="radialGradient3784"
       cx="72.253586"
       cy="316.48724"
       fx="72.253586"
       fy="316.48724"
       r="141.67238"
       gradientTransform="translate(0,3.3509064e-6)"
       gradientUnits="userSpaceOnUse" />
    <linearGradient
       inkscape:collect="always"
       xlink:href="#linearGradient3875"
       id="linearGradient4345"
       gradientUnits="userSpaceOnUse"
       gradientTransform="translate(-69.418793,132.03872)"
       x1="642.5011"
       y1="9.5458927"
       x2="642.5011"
       y2="320.79211" />
    <linearGradient
       inkscape:collect="always"
       xlink:href="#linearGradient5804"
       id="linearGradient5812"
       gradientUnits="userSpaceOnUse"
       x1="372.80432"
       y1="317.35727"
       x2="361.56247"
       y2="250.57527" />
    <linearGradient
       inkscape:collect="always"
       xlink:href="#linearGradient5804"
       id="linearGradient3063"
       gradientUnits="userSpaceOnUse"
       x1="372.80432"
       y1="317.35727"
       x2="361.56247"
       y2="250.57527"
       gradientTransform="matrix(-1,0,0,1,781.17961,0)" />
    <linearGradient
       inkscape:collect="always"
       xlink:href="#linearGradient5804"
       id="linearGradient3067"
       gradientUnits="userSpaceOnUse"
       x1="372.80432"
       y1="317.35727"
       x2="361.56247"
       y2="250.57527"
       gradientTransform="matrix(-1,0,0,-1,781.17961,634.71452)" />
    <marker
       inkscape:stockid="Arrow2Mend"
       orient="auto"
       refY="0"
       refX="0"
       id="Arrow2Mend"
       style="overflow:visible">
      <path
         id="path3630"
         style="font-size:12px;fill-rule:evenodd;stroke-width:0.625;stroke-linejoin:round"
         d="M 8.7185878,4.0337352 -2.2072895,0.01601326 8.7185884,-4.0017078 c -1.7454984,2.3720609 -1.7354408,5.6174519 -6e-7,8.035443 z"
         transform="scale(-0.6,-0.6)"
         inkscape:connector-curvature="0" />
    </marker>
    <marker
       style="overflow:visible;"
       id="Arrow1Lend-7"
       refX="0.0"
       refY="0.0"
       orient="auto"
       inkscape:stockid="Arrow1Lend">
      <path
         transform="scale(0.8) rotate(180) translate(12.5,0)"
         style="fill-rule:evenodd;stroke:#000000;stroke-width:1.0pt;marker-start:none;"
         d="M 0.0,0.0 L 5.0,-5.0 L -12.5,0.0 L 5.0,5.0 L 0.0,0.0 z "
         id="path5098" />
    </marker>
    <linearGradient
       inkscape:collect="always"
       xlink:href="#linearGradient3844"
       id="linearGradient4165"
       x1="-111.24712"
       y1="68.237038"
       x2="-111.24712"
       y2="-37.495876"
       gradientUnits="userSpaceOnUse"
       spreadMethod="reflect" />
    <radialGradient
       inkscape:collect="always"
       xlink:href="#linearGradient4175"
       id="radialGradient4181"
       cx="425.27423"
       cy="489.4937"
       fx="425.27423"
       fy="489.4937"
       r="42.869476"
       gradientTransform="matrix(1,0,0,0.95162737,0,23.678099)"
       gradientUnits="userSpaceOnUse" />
    <marker
       style="overflow:visible"
       id="Arrow2Mend-3"
       refX="0"
       refY="0"
       orient="auto"
       inkscape:stockid="Arrow2Mend">
      <path
         inkscape:connector-curvature="0"
         transform="scale(-0.6,-0.6)"
         d="M 8.7185878,4.0337352 -2.2072895,0.01601326 8.7185884,-4.0017078 c -1.7454984,2.3720609 -1.7354408,5.6174519 -6e-7,8.035443 z"
         style="font-size:12px;fill-rule:evenodd;stroke-width:0.625;stroke-linejoin:round"
         id="path3630-7" />
    </marker>
    <marker
       style="overflow:visible"
       id="Arrow1Lend-5"
       refX="0"
       refY="0"
       orient="auto"
       inkscape:stockid="Arrow1Lend">
      <path
         inkscape:connector-curvature="0"
         transform="matrix(-0.8,0,0,-0.8,-10,0)"
         style="fill-rule:evenodd;stroke:#000000;stroke-width:1pt;marker-start:none"
         d="M 0,0 5,-5 -12.5,0 5,5 0,0 z"
         id="path4554" />
    </marker>
    <linearGradient
       id="linearGradient5819">
      <stop
         id="stop5821"
         offset="0"
         style="stop-color:#ff0000;stop-opacity:1;" />
      <stop
         id="stop5823"
         offset="1"
         style="stop-color:#0000ff;stop-opacity:1;" />
    </linearGradient>
    <marker
       inkscape:stockid="DistanceStart"
       orient="auto"
       refY="0"
       refX="0"
       id="DistanceStart"
       style="overflow:visible">
      <g
         id="g2300">
        <path
           inkscape:connector-curvature="0"
           id="path2306"
           d="M 0,0 2,0"
           style="fill:none;stroke:#ffffff;stroke-width:1.14999998;stroke-linecap:square" />
        <path
           inkscape:connector-curvature="0"
           id="path2302"
           d="M 0,0 13,4 9,0 13,-4 0,0 z"
           style="fill:#000000;fill-rule:evenodd;stroke:none" />
        <path
           inkscape:connector-curvature="0"
           id="path2304"
           d="M 0,-4 0,40"
           style="fill:none;stroke:#000000;stroke-width:1;stroke-linecap:square" />
      </g>
    </marker>
    <marker
       inkscape:stockid="DistanceEnd"
       orient="auto"
       refY="0"
       refX="0"
       id="DistanceEnd"
       style="overflow:visible">
      <g
         id="g4607">
        <path
           inkscape:connector-curvature="0"
           id="path2316"
           d="M 0,0 -2,0"
           style="fill:none;stroke:#ffffff;stroke-width:1.14999998;stroke-linecap:square" />
        <path
           inkscape:connector-curvature="0"
           id="path2312"
           d="M 0,0 -13,4 -9,0 -13,-4 0,0 z"
           style="fill:#000000;fill-rule:evenodd;stroke:none" />
        <path
           inkscape:connector-curvature="0"
           id="path2314"
           d="M 0,-4 0,40"
           style="fill:none;stroke:#000000;stroke-width:1;stroke-linecap:square" />
      </g>
    </marker>
    <linearGradient
       inkscape:collect="always"
       xlink:href="#linearGradient5819"
       id="linearGradient4669"
       gradientUnits="userSpaceOnUse"
       gradientTransform="translate(-336.4687,863.60453)"
       x1="555.71429"
       y1="19.505039"
       x2="555.71429"
       y2="149.50504" />
    <linearGradient
       inkscape:collect="always"
       xlink:href="#linearGradient5819"
       id="linearGradient4786"
       gradientUnits="userSpaceOnUse"
       gradientTransform="translate(-336.4687,863.60453)"
       x1="555.71429"
       y1="19.505039"
       x2="555.71429"
       y2="149.50504" />
    <linearGradient
       inkscape:collect="always"
       xlink:href="#linearGradient5819"
       id="linearGradient4810"
       gradientUnits="userSpaceOnUse"
       gradientTransform="translate(-336.4687,863.60453)"
       x1="555.71429"
       y1="19.505039"
       x2="555.71429"
       y2="149.50504" />
  </defs>
  <sodipodi:namedview
     id="base"
     pagecolor="#ffffff"
     bordercolor="#666666"
     borderopacity="1.0"
     inkscape:pageopacity="0.0"
     inkscape:pageshadow="2"
     inkscape:zoom="0.52531628"
     inkscape:cx="444.91434"
     inkscape:cy="32.733648"
     inkscape:document-units="px"
     inkscape:current-layer="layer1"
     showgrid="false"
     inkscape:object-nodes="true"
     inkscape:snap-smooth-nodes="true"
     inkscape:snap-object-midpoints="true"
     inkscape:snap-midpoints="true"
     inkscape:snap-bbox="false"
     inkscape:snap-bbox-edge-midpoints="true"
     fit-margin-top="0"
     fit-margin-left="0"
     fit-margin-right="0"
     fit-margin-bottom="0"
     inkscape:object-paths="true" />
  <metadata
     id="metadata7">
    <rdf:RDF>
      <cc:Work
         rdf:about="">
        <dc:format>image/svg+xml</dc:format>
        <dc:type
           rdf:resource="http://purl.org/dc/dcmitype/StillImage" />
        <dc:title />
      </cc:Work>
    </rdf:RDF>
  </metadata>
  <g
     inkscape:label="Calque 1"
     inkscape:groupmode="layer"
     id="layer1"
     transform="translate(69.418793,-136.25592)">
    <path
       sodipodi:type="arc"
       style="fill:#cccccc;stroke:none;stroke-width:1;stroke-linecap:round;stroke-linejoin:round;stroke-miterlimit:4;stroke-opacity:1;stroke-dasharray:6, 6;stroke-dashoffset:0"
       id="path4715"
       sodipodi:cx="449.17188"
       sodipodi:cy="465.44025"
       sodipodi:rx="490.94907"
       sodipodi:ry="245.47453"
       d="m 449.17188,219.96571 a 490.94907,245.47453 0 0 1 1e-5,490.94907"
       transform="translate(-69.418793,136.25592)"
       sodipodi:start="4.712389"
       sodipodi:end="7.8539816"
       sodipodi:open="true" />
    <g
       id="g4167">
      <path
         sodipodi:nodetypes="ccccc"
         id="path4492"
         style="fill:url(#linearGradient4165);fill-opacity:1;stroke:#000000"
         d="M 251.75466,-34.6817 C 148.31682,21.88911 22.50352,47.69364 -111.24712,62.58434 l 0,11.30539 c 133.75064,14.8907 259.56394,40.69523 363.00178,97.26604 z"
         inkscape:connector-curvature="0" />
      <path
         inkscape:connector-curvature="0"
         id="path5088"
         d="m -161.3627,-175.2241 0,487.90368"
         style="fill:#ffff00;fill-opacity:1;fill-rule:evenodd;stroke:#000000;stroke-width:1;stroke-linecap:round;stroke-linejoin:round;stroke-miterlimit:4;stroke-opacity:1;stroke-dasharray:8, 2, 1, 2;stroke-dashoffset:0" />
      <path
         transform="translate(-586.63693,-421.25666)"
         inkscape:transform-center-y="-4.2541372"
         d="m 425.27423,449.19793 10.24241,30.45243 32.12707,0.3308 -25.79691,19.15143 9.61321,30.65687 -26.18578,-18.61619 -26.18578,18.61619 9.61321,-30.65687 -25.79691,-19.15144 32.12707,-0.33079 z"
         inkscape:randomized="0"
         inkscape:rounded="0"
         inkscape:flatsided="false"
         sodipodi:arg2="-0.9424778"
         sodipodi:arg1="-1.5707963"
         sodipodi:r2="17.425434"
         sodipodi:r1="44.549904"
         sodipodi:cy="493.74783"
         sodipodi:cx="425.27423"
         sodipodi:sides="5"
         id="path5065"
         style="fill:url(#radialGradient4181);fill-opacity:1;fill-rule:evenodd;stroke:#000000"
         sodipodi:type="star" />
      <path
         sodipodi:open="true"
         sodipodi:end="8.7534701"
         sodipodi:start="4.0460505"
         transform="matrix(-1,0,0,1,351.04274,-248.5634)"
         d="m 490.38526,105.8776 c 13.1566,-2.75871 32.20857,-2.15095 42.55375,1.35747 10.34519,3.50843 8.06609,8.58895 -5.09051,11.34767 -13.11039,2.74903 -32.08649,2.15644 -42.46037,-1.32596"
         sodipodi:ry="8.0812206"
         sodipodi:rx="30.304579"
         sodipodi:cy="112.23017"
         sodipodi:cx="509.11688"
         id="path5090"
         style="fill:none;stroke:#000000;stroke-width:1;stroke-linecap:round;stroke-linejoin:round;stroke-miterlimit:4;stroke-opacity:1;stroke-dasharray:none;stroke-dashoffset:0;marker-end:url(#Arrow1Lend)"
         sodipodi:type="arc" />
    </g>
    <text
       xml:space="preserve"
       style="font-size:18px;font-style:normal;font-variant:normal;font-weight:normal;font-stretch:normal;text-align:center;line-height:125%;letter-spacing:0px;word-spacing:0px;writing-mode:lr-tb;text-anchor:middle;fill:#000000;fill-opacity:1;stroke:none;font-family:DejaVu Sans;-inkscape-font-specification:DejaVu Sans"
       x="63.080803"
       y="21.983198"
       id="text3856"
       sodipodi:linespacing="125%"><tspan
         sodipodi:role="line"
         id="tspan3858"
         x="63.080803"
         y="21.983198">T<tspan
   style="font-size:65.00091553%;baseline-shift:sub"
   id="tspan3860">eff</tspan></tspan></text>
    <use
       id="use4490"
       xlink:href="#use7365"
       y="0"
       x="0"
       transform="matrix(1,0,0,-1,0.65054992,136.55978)"
       width="1"
       height="1" />
    <path
       inkscape:connector-curvature="0"
       sodipodi:nodetypes="cszzzzzzssz"
       id="use7365"
       d="m -70.04303,57.59519 c -4.67463,-2.6632 -7.05488,-5.4936 -7.05488,-7.4408 0,-6.4447 14.10844,-7.5718 14.10844,-14.3186 0,-6.7468 -14.10888,-8.0179 -14.10888,-14.6605 0,-6.5163 14.10957,-7.3591 14.10957,-14.6595 0,-7.4266 -14.10306,-7.5226 -14.10306,-14.2423 0,-6.5934 14.09362,-8.477 14.09362,-15.0367 0,-6.5701 -14.08805,-7.3886 -14.08805,-13.971 0,-6.5888 14.0718,-8.8949 14.0718,-14.36566 0,-3.8832 -3.46415,-5.691 -7.02856,-7.7489 l 0,-12.4107"
       style="fill:none;stroke:#000000;stroke-width:1;stroke-linecap:round;stroke-linejoin:round;stroke-miterlimit:4;stroke-opacity:1;stroke-dasharray:none;stroke-dashoffset:0;marker:none;marker-end:url(#Arrow2Mend);visibility:visible;display:inline;overflow:visible;enable-background:accumulate" />
    <use
       id="use4398"
       xlink:href="#use7365"
       y="0"
       x="0"
       transform="translate(53.925434,-7.7943998)"
       width="1"
       height="1" />
    <use
       id="use4400"
       xlink:href="#use7365"
       y="0"
       x="0"
       transform="translate(107.85087,-17.712056)"
       width="1"
       height="1" />
    <use
       id="use4402"
       xlink:href="#use7365"
       y="0"
       x="0"
       transform="translate(161.7763,-31.73477)"
       width="1"
       height="1" />
    <use
       id="use4408"
       xlink:href="#use7365"
       y="0"
       x="0"
       transform="translate(269.62712,-68.783653)"
       width="1"
       height="1" />
    <use
       id="use4412"
       xlink:href="#use7365"
       y="0"
       x="0"
       transform="translate(215.70167,-47.365416)"
       width="1"
       height="1" />
    <use
       height="1"
       width="1"
       transform="matrix(1,0,0,-1,54.992567,144.40918)"
       x="0"
       y="0"
       xlink:href="#use7365"
       id="use4442" />
    <use
       height="1"
       width="1"
       transform="matrix(1,0,0,-1,108.918,154.32688)"
       x="0"
       y="0"
       xlink:href="#use7365"
       id="use4444" />
    <use
       height="1"
       width="1"
       transform="matrix(1,0,0,-1,162.84343,168.34958)"
       x="0"
       y="0"
       xlink:href="#use7365"
       id="use4446" />
    <use
       height="1"
       width="1"
       transform="matrix(1,0,0,-1,270.69425,205.39848)"
       x="0"
       y="0"
       xlink:href="#use7365"
       id="use4452" />
    <use
       height="1"
       width="1"
       transform="matrix(1,0,0,-1,216.7688,183.98018)"
       x="0"
       y="0"
       xlink:href="#use7365"
       id="use4456" />
    <use
       x="0"
       y="0"
       xlink:href="#g4167"
       id="use4173"
       transform="translate(547.84607,0)"
       width="707.66528"
       height="321.90369" />
    <path
       sodipodi:nodetypes="ccccc"
       id="path4187"
       style="fill:none;fill-opacity:1;stroke:#000000;stroke-width:1;stroke-miterlimit:4;stroke-dasharray:6,6;stroke-dashoffset:0"
       d="M 799.81066,33.638514 C 696.25318,52.656104 570.29436,61.330896 436.38902,66.33675 l 0,3.80057 c 133.90534,5.005854 259.86416,13.680646 363.42164,32.69824 z"
       inkscape:connector-curvature="0" />
    <text
       xml:space="preserve"
       style="font-size:18px;font-style:normal;font-variant:normal;font-weight:normal;font-stretch:normal;text-align:center;line-height:125%;letter-spacing:0px;word-spacing:0px;writing-mode:lr-tb;text-anchor:middle;fill:#000000;fill-opacity:1;stroke:none;font-family:DejaVu Sans;-inkscape-font-specification:DejaVu Sans"
       x="40.285027"
       y="-143.52884"
       id="text4205"
       sodipodi:linespacing="125%"><tspan
         sodipodi:role="line"
         x="40.285027"
         y="-143.52884"
         id="tspan4213" /></text>
    <flowRoot
       xml:space="preserve"
       id="flowRoot4220"
       style="font-size:18px;font-style:normal;font-variant:normal;font-weight:normal;font-stretch:normal;text-align:center;line-height:125%;letter-spacing:0px;word-spacing:0px;writing-mode:lr-tb;text-anchor:middle;fill:#000000;fill-opacity:1;stroke:none;font-family:DejaVu Sans;-inkscape-font-specification:DejaVu Sans"
       transform="translate(-81.533325,147.02439)"><flowRegion
         id="flowRegion4222"><rect
           id="rect4224"
           width="215.75046"
           height="80.388535"
           x="-0.6730296"
           y="-322.85864" /></flowRegion><flowPara
         id="flowPara4226">Rayonnement de corps noir à la température de surface Teff</flowPara></flowRoot>    <flowRoot
       xml:space="preserve"
       id="flowRoot4228"
       style="font-size:18px;font-style:normal;font-variant:normal;font-weight:normal;font-stretch:normal;text-align:center;line-height:125%;letter-spacing:0px;word-spacing:0px;writing-mode:lr-tb;text-anchor:middle;fill:#000000;fill-opacity:1;stroke:none;font-family:DejaVu Sans;-inkscape-font-specification:DejaVu Sans"
       transform="translate(-69.418793,136.25592)"><flowRegion
         id="flowRegion4230"><rect
           id="rect4232"
           width="217.96393"
           height="81.855446"
           x="558.71106"
           y="-233.95192" /></flowRegion><flowPara
         id="flowPara4234">Chauffage visqueux principalement au centre, avec T&gt;T<flowSpan
   style="font-size:65%;baseline-shift:sub"
   id="flowSpan4236">eff</flowSpan></flowPara></flowRoot>    <text
       xml:space="preserve"
       style="font-size:18px;font-style:normal;font-variant:normal;font-weight:normal;font-stretch:normal;text-align:center;line-height:125%;letter-spacing:0px;word-spacing:0px;writing-mode:lr-tb;text-anchor:middle;fill:#000000;fill-opacity:1;stroke:none;font-family:DejaVu Sans;-inkscape-font-specification:DejaVu Sans"
       x="747.62506"
       y="76.176048"
       id="text3852"
       sodipodi:linespacing="125%"><tspan
         sodipodi:role="line"
         id="tspan3854"
         x="747.62506"
         y="76.176048">T</tspan></text>
    <use
       x="0"
       y="0"
       xlink:href="#g4167"
       id="use4238"
       transform="translate(0,529.205)"
       width="707.66528"
       height="321.90369" />
    <path
       style="fill:none;stroke:#000000;stroke-width:1;stroke-linecap:round;stroke-linejoin:round;stroke-miterlimit:4;stroke-opacity:1;stroke-dasharray:none;stroke-dashoffset:0;marker:none;marker-end:url(#Arrow2Mend);visibility:visible;display:inline;overflow:visible;enable-background:accumulate"
       d="m -70.04303,57.59519 c -4.67463,-2.6632 -7.05488,-5.4936 -7.05488,-7.4408 0,-6.4447 14.10844,-7.5718 14.10844,-14.3186 0,-6.7468 -14.10888,-8.0179 -14.10888,-14.6605 0,-6.5163 14.10957,-7.3591 14.10957,-14.6595 0,-7.4266 -14.10306,-7.5226 -14.10306,-14.2423 0,-6.5934 14.09362,-8.477 14.09362,-15.0367 0,-6.5701 -14.08805,-7.3886 -14.08805,-13.971 0,-6.5888 14.0718,-8.8949 14.0718,-14.36566 0,-3.8832 -3.46415,-5.691 -7.02856,-7.7489 l 0,-12.4107"
       id="path4240"
       sodipodi:nodetypes="cszzzzzzssz"
       inkscape:connector-curvature="0" />
    <g
       id="g4695"
       transform="matrix(0.99906028,0.0433423,-0.0433423,0.99906028,304.89912,-330.86166)">
      <path
         style="font-size:medium;font-style:normal;font-variant:normal;font-weight:normal;font-stretch:normal;text-indent:0;text-align:start;text-decoration:none;line-height:normal;letter-spacing:normal;word-spacing:normal;text-transform:none;direction:ltr;block-progression:tb;writing-mode:lr-tb;text-anchor:start;baseline-shift:baseline;color:#000000;fill:#ffcc00;fill-opacity:1;fill-rule:evenodd;stroke:#000000;stroke-width:0.99999994;stroke-miterlimit:4;stroke-dasharray:none;marker:none;visibility:visible;display:inline;overflow:visible;enable-background:accumulate;font-family:Sans;-inkscape-font-specification:Sans"
         d="m -34.027787,824.01153 3.91125,3.6413 -12.77398,-2.9043 -163.184073,27.729 0.31387,11.5953 163.382393,-27.7627 12.57566,-5.845 -2.94551,4.7958 15.42774,-8.3482 z"
         id="use8506"
         inkscape:connector-curvature="0"
         sodipodi:nodetypes="cccccccccc" />
      <use
         height="1052.3622"
         width="744.09448"
         transform="translate(24.485245,-185.06542)"
         id="use8514"
         xlink:href="#path4879"
         y="0"
         x="0" />
    </g>
    <g
       id="g4831">
      <path
         id="path8520"
         style="fill:#0000ff;fill-opacity:1;stroke:none"
         d="m -280.0996,1168.2321 372.85714,0 0,-229.3046 c -100.21892,91.5197 -273.73194,163.6849 -372.85714,170.7158 z"
         inkscape:connector-curvature="0"
         sodipodi:nodetypes="ccccc" />
      <path
         sodipodi:nodetypes="ccccc"
         inkscape:connector-curvature="0"
         d="M 92.75754,949.5341 C -7.46138,1041.0538 -180.9744,1113.219 -280.0996,1120.2499 l 0,-10.6066 c 99.1252,-7.0309 272.63822,-79.1961 372.85714,-170.7158 z"
         style="fill:#ff0000;stroke:none"
         id="path5782" />
      <path
         inkscape:connector-curvature="0"
         id="path4024"
         d="m -280.0996,1168.2321 372.85714,0"
         style="fill:none;stroke:#000000;stroke-width:1;stroke-linecap:round;stroke-linejoin:round;stroke-miterlimit:4;stroke-opacity:1;stroke-dasharray:8, 2, 1, 2;stroke-dashoffset:0" />
      <path
         sodipodi:nodetypes="cc"
         style="fill:none;stroke:#ff6600;stroke-width:1;stroke-linecap:round;stroke-linejoin:round;stroke-miterlimit:4;stroke-opacity:1;stroke-dasharray:6, 6;stroke-dashoffset:0"
         d="m -280.0996,1138.9377 c 135.59632,-6.2365 283.01816,-43.4126 372.85714,-103.2143"
         id="path4026"
         inkscape:connector-curvature="0" />
      <path
         sodipodi:nodetypes="cc"
         inkscape:connector-curvature="0"
         id="path4028"
         d="m -280.0996,1109.6433 c 99.1252,-7.0309 272.63822,-79.1961 372.85714,-170.7158"
         style="fill:none;stroke:#000000;stroke-width:1;stroke-linecap:round;stroke-linejoin:round;stroke-miterlimit:4;stroke-opacity:1;stroke-dasharray:none;stroke-dashoffset:0" />
      <path
         style="fill:none;stroke:#000000;stroke-width:1;stroke-linecap:round;stroke-linejoin:round;stroke-miterlimit:4;stroke-opacity:1;stroke-dasharray:3, 3;stroke-dashoffset:0"
         d="m -280.0996,1120.2499 c 99.1252,-7.0309 272.63822,-79.1961 372.85714,-170.7158"
         id="path4030"
         inkscape:connector-curvature="0"
         sodipodi:nodetypes="cc" />
      <text
         sodipodi:linespacing="125%"
         id="text5766"
         y="1020.0121"
         x="-278.26855"
         style="font-size:20px;font-style:normal;font-variant:normal;font-weight:normal;font-stretch:normal;text-align:start;line-height:125%;letter-spacing:0px;word-spacing:0px;writing-mode:lr-tb;text-anchor:start;fill:#000000;fill-opacity:1;stroke:none;font-family:Sans;-inkscape-font-specification:Sans"
         xml:space="preserve"><tspan
           y="1020.0121"
           x="-278.26855"
           id="tspan5768"
           sodipodi:role="line">λ~1μm</tspan></text>
      <text
         sodipodi:linespacing="125%"
         id="text8522"
         y="969.66071"
         x="-282.24246"
         style="font-size:20px;font-style:normal;font-variant:normal;font-weight:normal;font-stretch:normal;text-align:start;line-height:125%;letter-spacing:0px;word-spacing:0px;writing-mode:lr-tb;text-anchor:start;fill:#000000;fill-opacity:1;stroke:none;font-family:Sans;-inkscape-font-specification:Sans"
         xml:space="preserve"><tspan
           y="969.66071"
           x="-282.24246"
           id="tspan8524"
           sodipodi:role="line">Stellar</tspan><tspan
           id="tspan8526"
           y="994.66071"
           x="-282.24246"
           sodipodi:role="line">radiation</tspan></text>
      <path
         sodipodi:nodetypes="ccccc"
         inkscape:connector-curvature="0"
         d="m 264.71987,1168.2321 372.85714,0 0,-229.3046 c -100.21892,91.5197 -273.73194,163.6849 -372.85714,170.7158 z"
         style="fill:#9b0064;fill-opacity:1;stroke:none"
         id="path7407" />
      <path
         inkscape:connector-curvature="0"
         sodipodi:nodetypes="cszzzzzzssz"
         id="path7359"
         d="m 286.18388,1107.2826 c -4.67463,-2.6632 -7.05488,-5.4936 -7.05488,-7.4408 0,-6.4447 14.10844,-7.5718 14.10844,-14.3186 0,-6.7468 -14.10888,-8.0179 -14.10888,-14.6605 0,-6.5163 14.10957,-7.3591 14.10957,-14.6595 0,-7.4266 -14.10306,-7.5226 -14.10306,-14.2423 0,-6.5934 14.09362,-8.477 14.09362,-15.0367 0,-6.5701 -14.08805,-7.3886 -14.08805,-13.971 0,-6.5888 14.0718,-8.8949 14.0718,-14.36572 0,-3.88318 -3.46415,-5.691 -7.02856,-7.74891 l 0,-12.4107"
         style="fill:none;stroke:#000000;stroke-width:1;stroke-linecap:round;stroke-linejoin:round;stroke-miterlimit:4;stroke-opacity:1;stroke-dasharray:none;stroke-dashoffset:0;marker:none;marker-end:url(#Arrow2Mend);visibility:visible;display:inline;overflow:visible;enable-background:accumulate" />
      <use
         style="stroke:#000000"
         height="1052.3622"
         width="744.09448"
         transform="translate(93.628491,-23.543245)"
         id="use7361"
         xlink:href="#path7359"
         y="0"
         x="0" />
      <use
         style="stroke:#000000"
         x="0"
         y="0"
         xlink:href="#path7359"
         id="use7363"
         transform="translate(185.74174,-61.072554)"
         width="744.09448"
         height="1052.3622" />
      <use
         style="stroke:#000000"
         height="1052.3622"
         width="744.09448"
         transform="translate(277.85505,-112.33376)"
         id="use7365-8"
         xlink:href="#path7359"
         y="0"
         x="0" />
      <path
         style="fill:none;stroke:#000000;stroke-width:1;stroke-linecap:round;stroke-linejoin:round;stroke-miterlimit:4;stroke-opacity:1;stroke-dasharray:none;stroke-dashoffset:0;marker:none;marker-end:url(#Arrow2Mend);visibility:visible;display:inline;overflow:visible;enable-background:accumulate"
         d="m 565.43415,1006.0423 c 4.67463,2.6633 7.05488,5.4936 7.05488,7.4409 0,6.4447 -14.10844,7.5717 -14.10844,14.3185 0,6.7468 14.10888,8.0179 14.10888,14.6605 0,6.5164 -14.10957,7.3592 -14.10957,14.6596 0,7.4265 13.2102,7.5226 13.2102,14.2423 0,6.5933 -11.23647,8.4769 -11.23647,15.0367 0,6.57 8.01662,7.3886 8.01662,13.9709 0,6.5888 -6.39323,8.895 -6.39323,14.3658 0,3.8832 3.45713,7.7489 3.45713,7.7489 l 0,12.4107"
         id="path7383"
         sodipodi:nodetypes="cszzzzczccz"
         inkscape:connector-curvature="0" />
      <path
         inkscape:connector-curvature="0"
         sodipodi:nodetypes="czzzczccz"
         id="use7387"
         d="m 466.23771,1061.1368 c 0,6.7468 14.10888,8.0179 14.10888,14.6605 0,6.5163 -14.10956,7.3591 -14.10956,14.6595 0,7.4266 13.2102,7.5226 13.2102,14.2423 0,6.5934 -11.23648,8.477 -11.23648,15.0367 0,6.5701 8.01662,7.3886 8.01662,13.971 0,6.5888 -6.39323,8.8949 -6.39323,14.3657 0,3.8832 3.45713,7.7489 3.45713,7.7489 l 0,12.4107"
         style="fill:none;stroke:#000000;stroke-width:1;stroke-linecap:round;stroke-linejoin:round;stroke-miterlimit:4;stroke-opacity:1;stroke-dasharray:none;stroke-dashoffset:0;marker:none;marker-end:url(#Arrow2Mend);visibility:visible;display:inline;overflow:visible;enable-background:accumulate" />
      <path
         inkscape:connector-curvature="0"
         sodipodi:nodetypes="czczccz"
         id="use7389"
         d="m 374.09418,1090.4568 c 0,7.4266 13.2102,7.5226 13.2102,14.2423 0,6.5934 -11.23647,8.477 -11.23647,15.0367 0,6.5701 8.01662,7.3886 8.01662,13.971 0,6.5888 -6.39323,8.8949 -6.39323,14.3657 0,3.8832 3.45713,7.7489 3.45713,7.7489 l 0,12.4107"
         style="fill:none;stroke:#000000;stroke-width:1;stroke-linecap:round;stroke-linejoin:round;stroke-miterlimit:4;stroke-opacity:1;stroke-dasharray:none;stroke-dashoffset:0;marker:none;marker-end:url(#Arrow2Mend);visibility:visible;display:inline;overflow:visible;enable-background:accumulate" />
      <path
         inkscape:connector-curvature="0"
         sodipodi:nodetypes="czccz"
         id="use7391"
         d="m 283.92506,1119.7358 c 0,6.5701 8.01662,7.3886 8.01662,13.971 0,6.5888 -6.39323,8.8949 -6.39323,14.3657 0,3.8832 3.45713,7.7489 3.45713,7.7489 l 0,12.4107"
         style="fill:none;stroke:#000000;stroke-width:1;stroke-linecap:round;stroke-linejoin:round;stroke-miterlimit:4;stroke-opacity:1;stroke-dasharray:none;stroke-dashoffset:0;marker:none;marker-end:url(#Arrow2Mend);visibility:visible;display:inline;overflow:visible;enable-background:accumulate" />
      <text
         sodipodi:linespacing="125%"
         id="text5770"
         y="1066.8036"
         x="-155.81389"
         style="font-size:20px;font-style:normal;font-variant:normal;font-weight:normal;font-stretch:normal;text-align:start;line-height:125%;letter-spacing:0px;word-spacing:0px;writing-mode:lr-tb;text-anchor:start;fill:#000000;fill-opacity:1;stroke:none;font-family:Sans;-inkscape-font-specification:Sans"
         xml:space="preserve"><tspan
           y="1066.8036"
           x="-155.81389"
           id="tspan5772"
           sodipodi:role="line">T↗</tspan></text>
      <path
         id="path5791"
         style="fill:#ff0000;stroke:none"
         d="m 637.57701,949.5341 c -100.21892,91.5197 -273.73194,163.6849 -372.85714,170.7158 l 0,-10.6066 c 99.1252,-7.0309 272.63822,-79.1961 372.85714,-170.7158 z"
         inkscape:connector-curvature="0"
         sodipodi:nodetypes="ccccc" />
      <text
         xml:space="preserve"
         style="font-size:20px;font-style:normal;font-variant:normal;font-weight:normal;font-stretch:normal;text-align:start;line-height:125%;letter-spacing:0px;word-spacing:0px;writing-mode:lr-tb;text-anchor:start;fill:#000000;fill-opacity:1;stroke:none;font-family:Sans;-inkscape-font-specification:Sans"
         x="300.98102"
         y="926.68945"
         id="text5795"
         sodipodi:linespacing="125%"><tspan
           sodipodi:role="line"
           id="tspan5797"
           x="300.98102"
           y="926.68945">λ&gt;1μm</tspan></text>
      <rect
         y="883.10956"
         x="210.67415"
         height="130"
         width="18.571428"
         id="rect5817"
         style="fill:url(#linearGradient4810);fill-opacity:1;fill-rule:evenodd;stroke:none" />
      <path
         sodipodi:nodetypes="cc"
         inkscape:connector-curvature="0"
         id="path5827"
         d="m 199.77297,1013.1096 0,-130.00004"
         style="fill:#800000;fill-opacity:1;fill-rule:evenodd;stroke:#000000;stroke-width:1;stroke-miterlimit:4;stroke-opacity:1;stroke-dasharray:none;marker-end:url(#Arrow1Lend)" />
      <text
         transform="matrix(0,-1,1,0,0,0)"
         sodipodi:linespacing="125%"
         id="text6017"
         y="186.90773"
         x="-1012.0379"
         style="font-size:20px;font-style:normal;font-variant:normal;font-weight:normal;font-stretch:normal;text-align:start;line-height:125%;letter-spacing:0px;word-spacing:0px;writing-mode:lr-tb;text-anchor:start;fill:#000000;fill-opacity:1;stroke:none;font-family:Sans;-inkscape-font-specification:Sans"
         xml:space="preserve"><tspan
           y="186.90773"
           x="-1012.0379"
           id="tspan6019"
           sodipodi:role="line">Temperature</tspan></text>
      <text
         sodipodi:linespacing="125%"
         id="text7416"
         y="1171.9288"
         x="98.390732"
         style="font-size:12px;font-style:normal;font-variant:normal;font-weight:normal;font-stretch:normal;text-align:start;line-height:125%;letter-spacing:0px;word-spacing:0px;writing-mode:lr-tb;text-anchor:start;fill:#000000;fill-opacity:1;stroke:none;font-family:Sans;-inkscape-font-specification:Sans"
         xml:space="preserve"><tspan
           y="1171.9288"
           x="98.390732"
           id="tspan7418"
           sodipodi:role="line">mid plane</tspan></text>
      <text
         sodipodi:linespacing="125%"
         id="text7420"
         y="1109.0543"
         x="98.818466"
         style="font-size:12px;font-style:normal;font-variant:normal;font-weight:normal;font-stretch:normal;text-align:start;line-height:125%;letter-spacing:0px;word-spacing:0px;writing-mode:lr-tb;text-anchor:start;fill:#000000;fill-opacity:1;stroke:none;font-family:Sans;-inkscape-font-specification:Sans"
         xml:space="preserve"><tspan
           y="1109.0543"
           x="98.818466"
           id="tspan7422"
           sodipodi:role="line">disk interior</tspan></text>
      <text
         sodipodi:linespacing="125%"
         id="text7424"
         y="1029.8019"
         x="99.515732"
         style="font-size:12px;font-style:normal;font-variant:normal;font-weight:normal;font-stretch:normal;text-align:start;line-height:125%;letter-spacing:0px;word-spacing:0px;writing-mode:lr-tb;text-anchor:start;fill:#000000;fill-opacity:1;stroke:none;font-family:Sans;-inkscape-font-specification:Sans"
         xml:space="preserve"><tspan
           id="tspan7428"
           y="1029.8019"
           x="99.515732"
           sodipodi:role="line">Thermal</tspan><tspan
           id="tspan7432"
           y="1044.8019"
           x="99.515732"
           sodipodi:role="line">photosphere</tspan></text>
      <text
         sodipodi:linespacing="125%"
         id="text7434"
         y="937.31964"
         x="98.68956"
         style="font-size:12px;font-style:normal;font-variant:normal;font-weight:normal;font-stretch:normal;text-align:start;line-height:125%;letter-spacing:0px;word-spacing:0px;writing-mode:lr-tb;text-anchor:start;fill:#000000;fill-opacity:1;stroke:none;font-family:Sans;-inkscape-font-specification:Sans"
         xml:space="preserve"><tspan
           y="937.31964"
           x="98.68956"
           id="tspan7436"
           sodipodi:role="line">Surface</tspan><tspan
           id="tspan7438"
           y="952.31964"
           x="98.68956"
           sodipodi:role="line">layer</tspan></text>
      <text
         sodipodi:linespacing="125%"
         id="text7440"
         y="900.39032"
         x="-39.858414"
         style="font-size:12px;font-style:normal;font-variant:normal;font-weight:normal;font-stretch:normal;text-align:start;line-height:125%;letter-spacing:0px;word-spacing:0px;writing-mode:lr-tb;text-anchor:start;fill:#000000;fill-opacity:1;stroke:none;font-family:Sans;-inkscape-font-specification:Sans"
         xml:space="preserve"><tspan
           y="900.39032"
           x="-39.858414"
           id="tspan7442"
           sodipodi:role="line">Absorption depth</tspan><tspan
           id="tspan7444"
           y="915.39032"
           x="-39.858414"
           sodipodi:role="line">for stellar photons</tspan></text>
      <path
         sodipodi:nodetypes="cccccccccc"
         inkscape:connector-curvature="0"
         id="path7446"
         d="m -7.90764,1007.4994 5.0625,3.8438 -16.53391,-3.0659 -211.21609,29.2712 0.40625,12.2402 211.47279,-29.3067 16.27721,-6.1701 -3.8125,5.0625 19.9688,-8.8125 z"
         style="font-size:medium;font-style:normal;font-variant:normal;font-weight:normal;font-stretch:normal;text-indent:0;text-align:start;text-decoration:none;line-height:normal;letter-spacing:normal;word-spacing:normal;text-transform:none;direction:ltr;block-progression:tb;writing-mode:lr-tb;text-anchor:start;baseline-shift:baseline;color:#000000;fill:#ffcc00;fill-opacity:1;fill-rule:evenodd;stroke:#000000;stroke-width:1;stroke-miterlimit:4;stroke-dasharray:none;marker:none;visibility:visible;display:inline;overflow:visible;enable-background:accumulate;font-family:Sans;-inkscape-font-specification:Sans" />
      <path
         style="fill:none;stroke:#000000;stroke-width:1;stroke-linecap:round;stroke-linejoin:round;stroke-miterlimit:4;stroke-opacity:1;stroke-dasharray:none;stroke-dashoffset:0;marker:none;marker-end:url(#Arrow2Mend);visibility:visible;display:inline;overflow:visible;enable-background:accumulate"
         d="m -230.4029,1043.3406 c 0.4094,-4.7675 1.17878,-7.2681 1.91962,-7.3646 2.45196,-0.3194 4.70326,13.615 7.27016,13.2806 2.56689,-0.3344 1.22796,-14.3881 3.75522,-14.7173 2.47922,-0.323 4.62248,13.6266 7.4,13.2648 2.82554,-0.3681 1.04029,-14.3577 3.59687,-14.6908 2.50852,-0.3268 5.04573,13.5554 7.54145,13.2303 2.49967,-0.3256 0.99125,-14.3362 3.49558,-14.6624 2.50678,-0.3266 5.20193,13.513 7.28336,13.2419 1.4774,-0.1925 1.71772,-3.7172 2.04023,-7.3538 l 9.43107,-1.2285"
         id="path4879"
         sodipodi:nodetypes="cszzzzzzscz"
         inkscape:connector-curvature="0" />
      <use
         x="0"
         y="0"
         xlink:href="#path7446"
         id="use8508"
         transform="translate(54.92918,-43.12921)"
         width="744.09448"
         height="1052.3622" />
      <use
         x="0"
         y="0"
         xlink:href="#path4879"
         id="use8516"
         transform="translate(55.027029,-42.882525)"
         width="744.09448"
         height="1052.3622" />
      <path
         inkscape:connector-curvature="0"
         id="path7863"
         d="m 37.68538,932.75825 27.58145,-3.90954"
         style="fill:#ffcc00;fill-opacity:1;fill-rule:evenodd;stroke:#000000;stroke-width:1;stroke-linecap:butt;stroke-linejoin:round;stroke-miterlimit:4;stroke-opacity:1;stroke-dasharray:none;stroke-dashoffset:0;marker-start:url(#DistanceStart);marker-end:url(#DistanceEnd)" />
    </g>
    <use
       x="0"
       y="0"
       xlink:href="#g4695"
       id="use4699"
       transform="translate(-173.71687,64.943151)"
       width="707.66528"
       height="321.90369" />
    <use
       x="0"
       y="0"
       xlink:href="#g4695"
       id="use4705"
       transform="matrix(1,0,0,-1,2.5642136e-7,1194.8841)"
       width="707.66528"
       height="321.90369" />
    <use
       height="321.90369"
       width="707.66528"
       transform="matrix(1,0,0,-1,-169.18496,1130.8392)"
       id="use4703"
       xlink:href="#g4695"
       y="0"
       x="0" />
    <text
       xml:space="preserve"
       style="font-size:18px;font-style:normal;font-variant:normal;font-weight:normal;font-stretch:normal;text-align:center;line-height:125%;letter-spacing:0px;word-spacing:0px;writing-mode:lr-tb;text-anchor:middle;fill:#000000;fill-opacity:1;stroke:none;font-family:DejaVu Sans;-inkscape-font-specification:DejaVu Sans"
       x="15.292079"
       y="485.76202"
       id="text4707"
       sodipodi:linespacing="125%"><tspan
         sodipodi:role="line"
         id="tspan4709"
         x="15.292079"
         y="485.76202">Irradiation de l'étoile</tspan></text>
    <use
       height="321.90369"
       width="707.66528"
       transform="translate(541.11578,529.205)"
       id="use4711"
       xlink:href="#g4167"
       y="0"
       x="0" />
    <text
       xml:space="preserve"
       style="font-size:18px;font-style:normal;font-variant:normal;font-weight:normal;font-stretch:normal;text-align:center;line-height:125%;letter-spacing:0px;word-spacing:0px;writing-mode:lr-tb;text-anchor:middle;fill:#000000;fill-opacity:1;stroke:none;font-family:DejaVu Sans;-inkscape-font-specification:DejaVu Sans"
       x="561.30664"
       y="285.56009"
       id="text4717"
       sodipodi:linespacing="125%"
       transform="translate(-69.418793,136.25592)"><tspan
         sodipodi:role="line"
         id="tspan4719"
         x="564.17188"
         y="285.56009">Chauffage par </tspan><tspan
         sodipodi:role="line"
         x="561.30664"
         y="308.06009"
         id="tspan4721">l'enveloppe du disque</tspan><tspan
         sodipodi:role="line"
         x="561.30664"
         y="330.56009"
         id="tspan4723">à ~10K</tspan></text>
    <path
       style="font-size:medium;font-style:normal;font-variant:normal;font-weight:normal;font-stretch:normal;text-indent:0;text-align:start;text-decoration:none;line-height:normal;letter-spacing:normal;word-spacing:normal;text-transform:none;direction:ltr;block-progression:tb;writing-mode:lr-tb;text-anchor:start;baseline-shift:baseline;color:#000000;fill:#ffcc00;fill-opacity:1;fill-rule:evenodd;stroke:#000000;stroke-width:0.69309336;stroke-miterlimit:4;stroke-dasharray:none;marker:none;visibility:visible;display:inline;overflow:visible;enable-background:accumulate;font-family:Sans;-inkscape-font-specification:Sans"
       d="m 744.81806,506.59169 -1.99402,4.1606 -0.3911,-7.65302 -54.79089,-54.95382 -8.84162,7.79796 54.85747,55.0206 7.07051,1.78632 -4.28809,1.8445 9.57852,1.41381 z"
       id="path4727"
       inkscape:connector-curvature="0"
       sodipodi:nodetypes="cccccccccc" />
    <use
       id="use4735"
       xlink:href="#path4727"
       y="0"
       x="0"
       transform="translate(-71.781423,27.379588)"
       width="1"
       height="1" />
    <use
       id="use4737"
       xlink:href="#path4727"
       y="0"
       x="0"
       transform="translate(-158.83498,51.150248)"
       width="1"
       height="1" />
    <use
       id="use4739"
       xlink:href="#path4727"
       y="0"
       x="0"
       transform="translate(-242.96368,69.322046)"
       width="1"
       height="1" />
    <use
       height="321.90369"
       width="707.66528"
       transform="matrix(1,0,0,-1,-247.00185,1129.7194)"
       id="use4741"
       xlink:href="#path4727"
       y="0"
       x="0" />
    <use
       height="321.90369"
       width="707.66528"
       transform="matrix(1,0,0,-1,-158.83498,1144.8626)"
       id="use4743"
       xlink:href="#path4727"
       y="0"
       x="0" />
    <use
       height="321.90369"
       width="707.66528"
       transform="matrix(1,0,0,-1,-62.863781,1170.4841)"
       id="use4745"
       xlink:href="#path4727"
       y="0"
       x="0" />
    <use
       x="0"
       y="0"
       xlink:href="#path4727"
       id="use4733"
       transform="matrix(1,0,0,-1,8.749385,1198.3684)"
       width="707.66528"
       height="321.90369" />
  </g>
</svg>
