<?xml version="1.0" encoding="UTF-8" standalone="no"?>
<!-- Created with Inkscape (http://www.inkscape.org/) -->

<svg
   xmlns:dc="http://purl.org/dc/elements/1.1/"
   xmlns:cc="http://creativecommons.org/ns#"
   xmlns:rdf="http://www.w3.org/1999/02/22-rdf-syntax-ns#"
   xmlns:svg="http://www.w3.org/2000/svg"
   xmlns="http://www.w3.org/2000/svg"
   xmlns:xlink="http://www.w3.org/1999/xlink"
   xmlns:sodipodi="http://sodipodi.sourceforge.net/DTD/sodipodi-0.dtd"
   xmlns:inkscape="http://www.inkscape.org/namespaces/inkscape"
   width="707.66528"
   height="321.90369"
   id="svg2"
   version="1.1"
   inkscape:version="0.48.2 r9819"
   sodipodi:docname="disk_scheme.svg">
  <defs
     id="defs4">
    <marker
       inkscape:stockid="Arrow1Lend"
       orient="auto"
       refY="0"
       refX="0"
       id="Arrow1Lend"
       style="overflow:visible">
      <path
         id="path3891"
         d="M 0,0 5,-5 -12.5,0 5,5 0,0 z"
         style="fill-rule:evenodd;stroke:#000000;stroke-width:1pt;marker-start:none"
         transform="matrix(-0.8,0,0,-0.8,-10,0)"
         inkscape:connector-curvature="0" />
    </marker>
    <linearGradient
       inkscape:collect="always"
       id="linearGradient3875">
      <stop
         style="stop-color:#000000;stop-opacity:1;"
         offset="0"
         id="stop3877" />
      <stop
         style="stop-color:#000000;stop-opacity:0;"
         offset="1"
         id="stop3879" />
    </linearGradient>
    <linearGradient
       id="linearGradient3800">
      <stop
         id="stop3802"
         offset="0"
         style="stop-color:#000000;stop-opacity:0.49803922;" />
      <stop
         style="stop-color:#ffffff;stop-opacity:0;"
         offset="0.5"
         id="stop3852" />
      <stop
         id="stop3804"
         offset="1"
         style="stop-color:#ffffff;stop-opacity:0;" />
    </linearGradient>
    <linearGradient
       id="linearGradient3788">
      <stop
         style="stop-color:#000000;stop-opacity:0.49803922;"
         offset="0"
         id="stop3790" />
      <stop
         style="stop-color:#ffffff;stop-opacity:0.49803922;"
         offset="1"
         id="stop3792" />
    </linearGradient>
    <linearGradient
       inkscape:collect="always"
       id="linearGradient3778">
      <stop
         style="stop-color:#000000;stop-opacity:1;"
         offset="0"
         id="stop3780" />
      <stop
         style="stop-color:#000000;stop-opacity:0;"
         offset="1"
         id="stop3782" />
    </linearGradient>
    <radialGradient
       inkscape:collect="always"
       xlink:href="#linearGradient3778"
       id="radialGradient3784"
       cx="72.253586"
       cy="316.48724"
       fx="72.253586"
       fy="316.48724"
       r="141.67238"
       gradientTransform="translate(0,3.3509064e-6)"
       gradientUnits="userSpaceOnUse" />
    <linearGradient
       inkscape:collect="always"
       xlink:href="#linearGradient3788"
       id="linearGradient3794"
       x1="390.09454"
       y1="317.35727"
       x2="531.76221"
       y2="317.35727"
       gradientUnits="userSpaceOnUse"
       spreadMethod="reflect" />
    <linearGradient
       inkscape:collect="always"
       xlink:href="#linearGradient3800"
       id="linearGradient3798"
       gradientUnits="userSpaceOnUse"
       spreadMethod="reflect"
       x1="390.58981"
       y1="317.35727"
       x2="390.58981"
       y2="250.27867" />
    <linearGradient
       inkscape:collect="always"
       xlink:href="#linearGradient3875"
       id="linearGradient3881"
       x1="642.5011"
       y1="9.5458927"
       x2="642.5011"
       y2="320.79211"
       gradientUnits="userSpaceOnUse"
       gradientTransform="translate(-69.418793,136.25588)" />
    <linearGradient
       inkscape:collect="always"
       xlink:href="#linearGradient3875"
       id="linearGradient4339"
       gradientUnits="userSpaceOnUse"
       gradientTransform="translate(-69.418793,136.25588)"
       x1="642.5011"
       y1="9.5458927"
       x2="642.5011"
       y2="320.79211" />
    <linearGradient
       inkscape:collect="always"
       xlink:href="#linearGradient3875"
       id="linearGradient4345"
       gradientUnits="userSpaceOnUse"
       gradientTransform="translate(-69.418793,132.03872)"
       x1="642.5011"
       y1="9.5458927"
       x2="642.5011"
       y2="320.79211" />
  </defs>
  <sodipodi:namedview
     id="base"
     pagecolor="#ffffff"
     bordercolor="#666666"
     borderopacity="1.0"
     inkscape:pageopacity="0.0"
     inkscape:pageshadow="2"
     inkscape:zoom="1.2722398"
     inkscape:cx="550.84817"
     inkscape:cy="145.98178"
     inkscape:document-units="px"
     inkscape:current-layer="layer1"
     showgrid="false"
     inkscape:object-nodes="true"
     inkscape:snap-smooth-nodes="true"
     inkscape:snap-object-midpoints="true"
     inkscape:snap-midpoints="true"
     inkscape:snap-bbox="true"
     inkscape:snap-bbox-edge-midpoints="true"
     fit-margin-top="0"
     fit-margin-left="0"
     fit-margin-right="0"
     fit-margin-bottom="0" />
  <metadata
     id="metadata7">
    <rdf:RDF>
      <cc:Work
         rdf:about="">
        <dc:format>image/svg+xml</dc:format>
        <dc:type
           rdf:resource="http://purl.org/dc/dcmitype/StillImage" />
        <dc:title></dc:title>
      </cc:Work>
    </rdf:RDF>
  </metadata>
  <g
     inkscape:label="Calque 1"
     inkscape:groupmode="layer"
     id="layer1"
     transform="translate(69.418793,-136.25592)">
    <path
       d="m 90.039078,316.48724 c 0,9.82266 -7.962836,17.7855 -17.785492,17.7855 -9.822656,0 -17.785492,-7.96284 -17.785492,-17.7855 0,-9.82265 7.962836,-17.78549 17.785492,-17.78549 9.822656,0 17.785492,7.96284 17.785492,17.78549 z"
       sodipodi:ry="17.785492"
       sodipodi:rx="17.785492"
       sodipodi:cy="316.48724"
       sodipodi:cx="72.253586"
       id="path2987"
       style="fill:none;stroke:#000000;stroke-width:1;stroke-linecap:round;stroke-linejoin:round;stroke-miterlimit:4;stroke-opacity:1;stroke-dasharray:none;stroke-dashoffset:0"
       sodipodi:type="arc" />
    <path
       sodipodi:type="star"
       style="fill:#ffff00;stroke:#000000;stroke-width:1;stroke-linecap:round;stroke-linejoin:round;stroke-miterlimit:4;stroke-opacity:1;stroke-dasharray:none;stroke-dashoffset:0"
       id="path2989"
       sodipodi:sides="5"
       sodipodi:cx="285.67953"
       sodipodi:cy="322.0452"
       sodipodi:r1="20.008684"
       sodipodi:r2="7.5437093"
       sodipodi:arg1="-1.5707963"
       sodipodi:arg2="-0.9424778"
       inkscape:flatsided="false"
       inkscape:rounded="0"
       inkscape:randomized="0"
       d="m 285.67954,302.03651 4.43408,13.9057 14.5953,-0.08 -11.85489,8.51416 4.58631,13.85623 -11.76081,-8.64365 -11.7608,8.64365 4.58631,-13.85623 -11.85489,-8.51416 14.5953,0.08 z"
       inkscape:transform-center-y="-1.0406395"
       transform="matrix(0.5446479,0,0,0.5446479,-83.341172,142.99666)" />
    <path
       transform="matrix(0.5446479,0,0,0.5446479,234.99505,142.99666)"
       inkscape:transform-center-y="-1.0406395"
       d="m 285.67954,302.03651 4.43408,13.9057 14.5953,-0.08 -11.85489,8.51416 4.58631,13.85623 -11.76081,-8.64365 -11.7608,8.64365 4.58631,-13.85623 -11.85489,-8.51416 14.5953,0.08 z"
       inkscape:randomized="0"
       inkscape:rounded="0"
       inkscape:flatsided="false"
       sodipodi:arg2="-0.9424778"
       sodipodi:arg1="-1.5707963"
       sodipodi:r2="7.5437093"
       sodipodi:r1="20.008684"
       sodipodi:cy="322.0452"
       sodipodi:cx="285.67953"
       sodipodi:sides="5"
       id="path3001"
       style="fill:#ffff00;stroke:#000000;stroke-width:1;stroke-linecap:round;stroke-linejoin:round;stroke-miterlimit:4;stroke-opacity:1;stroke-dasharray:none;stroke-dashoffset:0"
       sodipodi:type="star" />
    <path
       id="path3005"
       style="fill:url(#radialGradient3784);fill-opacity:1;fill-rule:evenodd;stroke:none"
       d="m 90.039078,316.48724 c 0,9.82266 -7.962836,17.7855 -17.785492,17.7855 -9.822656,0 -17.785492,-7.96284 -17.785492,-17.7855 0,-9.82265 7.962836,-17.78549 17.785492,-17.78549 9.822656,0 17.785492,7.96284 17.785492,17.78549 z m 123.386882,0 c 0,77.96736 -63.20502,141.17238 -141.172374,141.17238 -77.9673519,0 -141.172379,-63.20502 -141.172379,-141.17238 0,-77.96735 63.2050271,-141.17237 141.172379,-141.17237 77.967354,0 141.172374,63.20502 141.172374,141.17237 z"
       inkscape:connector-curvature="0" />
    <path
       inkscape:connector-curvature="0"
       d="M 372.80431,304.34173 C 325.60416,298.90768 253.28998,273.50966 249.41743,250.98524 l 0,132.74404 c 3.87255,-22.52442 76.18673,-47.92244 123.38688,-53.35649 z m 35.57099,0 c 47.20015,-5.43405 119.51433,-30.83207 123.38688,-53.35649 l 0,132.74404 C 527.88963,361.20486 455.57545,335.80684 408.3753,330.37279 z"
       style="fill:url(#linearGradient3794);fill-opacity:1;stroke:none"
       id="path3786"
       sodipodi:nodetypes="cccccccccc" />
    <path
       sodipodi:nodetypes="cccccccccc"
       id="path3796"
       style="fill:url(#linearGradient3798);fill-opacity:1;stroke:none"
       d="M 372.80431,304.34173 C 325.60416,298.90768 253.28998,273.50966 249.41743,250.98524 l 0,132.74404 c 3.87255,-22.52442 76.18673,-47.92244 123.38688,-53.35649 z m 35.57099,0 c 47.20015,-5.43405 119.51433,-30.83207 123.38688,-53.35649 l 0,132.74404 C 527.88963,361.20486 455.57545,335.80684 408.3753,330.37279 z"
       inkscape:connector-curvature="0" />
    <path
       id="path2998"
       style="fill:none;stroke:#000000;stroke-width:1;stroke-linecap:round;stroke-linejoin:round;stroke-miterlimit:4;stroke-opacity:1;stroke-dasharray:none;stroke-dashoffset:0"
       d="m 372.80431,330.37279 c -47.20015,5.43405 -119.51433,30.83207 -123.38688,53.35649 M 372.80431,304.34173 C 325.60416,298.90768 253.28998,273.50966 249.41743,250.98524 m 158.95787,79.38755 c 47.20015,5.43405 119.51433,30.83207 123.38688,53.35649 M 408.3753,304.34173 c 47.20015,-5.43405 119.51433,-30.83207 123.38688,-53.35649"
       inkscape:connector-curvature="0" />
    <path
       sodipodi:type="arc"
       style="fill:none;stroke:#000000;stroke-width:1;stroke-linecap:round;stroke-linejoin:round;stroke-miterlimit:4;stroke-opacity:1;stroke-dasharray:none;stroke-dashoffset:0"
       id="path2985"
       sodipodi:cx="72.253586"
       sodipodi:cy="316.48724"
       sodipodi:rx="141.17238"
       sodipodi:ry="141.17238"
       d="m 213.42596,316.48724 c 0,77.96736 -63.20502,141.17238 -141.172374,141.17238 -77.9673519,0 -141.172379,-63.20502 -141.172379,-141.17238 0,-77.96735 63.2050271,-141.17237 141.172379,-141.17237 77.967354,0 141.172374,63.20502 141.172374,141.17237 z" />
    <text
       xml:space="preserve"
       style="font-size:28px;font-style:normal;font-variant:normal;font-weight:normal;font-stretch:normal;text-align:center;line-height:125%;letter-spacing:0px;word-spacing:0px;writing-mode:lr-tb;text-anchor:middle;fill:#000000;fill-opacity:1;stroke:none;font-family:DejaVu Sans;-inkscape-font-specification:DejaVu Sans"
       x="72.834641"
       y="160.24323"
       id="text3806"
       sodipodi:linespacing="125%"><tspan
         sodipodi:role="line"
         id="tspan3808"
         x="72.834641"
         y="160.24323">Vue de dessus</tspan></text>
    <text
       xml:space="preserve"
       style="font-size:28px;font-style:normal;font-variant:normal;font-weight:normal;font-stretch:normal;text-align:center;line-height:125%;letter-spacing:0px;word-spacing:0px;writing-mode:lr-tb;text-anchor:middle;fill:#000000;fill-opacity:1;stroke:none;font-family:DejaVu Sans;-inkscape-font-specification:DejaVu Sans"
       x="391.7861"
       y="157.52936"
       id="text3810"
       sodipodi:linespacing="125%"><tspan
         sodipodi:role="line"
         id="tspan3812"
         x="391.7861"
         y="157.52936">Vue de profil</tspan></text>
    <rect
       style="fill:url(#linearGradient4345);fill-opacity:1;fill-rule:evenodd;stroke:#000000"
       id="rect3873"
       width="31.12462"
       height="311.24622"
       x="557.51996"
       y="141.58466"
       rx="0"
       ry="0" />
    <path
       style="fill:none;stroke:#000000;marker-end:url(#Arrow1Lend)"
       d="m 603.09534,452.83087 0,-311.24622"
       id="path3883"
       inkscape:connector-curvature="0" />
    <text
       xml:space="preserve"
       style="font-size:28px;font-style:normal;font-variant:normal;font-weight:normal;font-stretch:normal;text-align:center;line-height:125%;letter-spacing:0px;word-spacing:0px;writing-mode:lr-tb;text-anchor:middle;fill:#000000;fill-opacity:1;stroke:none;font-family:DejaVu Sans;-inkscape-font-specification:DejaVu Sans"
       x="-297.83667"
       y="637.85004"
       id="text4329"
       sodipodi:linespacing="125%"
       transform="matrix(0,-1,1,0,0,0)"><tspan
         sodipodi:role="line"
         id="tspan4331"
         x="-297.83667"
         y="637.85004">Densité de matière</tspan></text>
  </g>
</svg>
