<?xml version="1.0" encoding="UTF-8" standalone="no"?>
<!-- Created with Inkscape (http://www.inkscape.org/) -->

<svg
   xmlns:dc="http://purl.org/dc/elements/1.1/"
   xmlns:cc="http://creativecommons.org/ns#"
   xmlns:rdf="http://www.w3.org/1999/02/22-rdf-syntax-ns#"
   xmlns:svg="http://www.w3.org/2000/svg"
   xmlns="http://www.w3.org/2000/svg"
   xmlns:xlink="http://www.w3.org/1999/xlink"
   xmlns:sodipodi="http://sodipodi.sourceforge.net/DTD/sodipodi-0.dtd"
   xmlns:inkscape="http://www.inkscape.org/namespaces/inkscape"
   width="1074.9343"
   height="1022.8948"
   id="svg2"
   version="1.1"
   inkscape:version="0.48.2 r9819"
   sodipodi:docname="disk_energy.svg">
  <defs
     id="defs4">
    <linearGradient
       id="linearGradient3844">
      <stop
         style="stop-color:#0000ff;stop-opacity:1;"
         offset="0"
         id="stop3846" />
      <stop
         id="stop6922"
         offset="0.50847751"
         style="stop-color:#ff0000;stop-opacity:1;" />
      <stop
         style="stop-color:#0000ff;stop-opacity:1;"
         offset="1"
         id="stop3848" />
    </linearGradient>
    <marker
       inkscape:stockid="Arrow1Lend"
       orient="auto"
       refY="0"
       refX="0"
       id="Arrow1Lend"
       style="overflow:visible">
      <path
         id="path3891"
         d="M 0,0 5,-5 -12.5,0 5,5 0,0 z"
         style="fill-rule:evenodd;stroke:#000000;stroke-width:1pt;marker-start:none"
         transform="matrix(-0.8,0,0,-0.8,-10,0)"
         inkscape:connector-curvature="0" />
    </marker>
    <marker
       inkscape:stockid="Arrow2Mend"
       orient="auto"
       refY="0"
       refX="0"
       id="Arrow2Mend"
       style="overflow:visible">
      <path
         id="path3630"
         style="font-size:12px;fill-rule:evenodd;stroke-width:0.625;stroke-linejoin:round"
         d="M 8.7185878,4.0337352 -2.2072895,0.01601326 8.7185884,-4.0017078 c -1.7454984,2.3720609 -1.7354408,5.6174519 -6e-7,8.035443 z"
         transform="scale(-0.6,-0.6)"
         inkscape:connector-curvature="0" />
    </marker>
    <linearGradient
       id="linearGradient4033">
      <stop
         id="stop4035"
         offset="0"
         style="stop-color:#ffff00;stop-opacity:1;" />
      <stop
         id="stop4037"
         offset="1"
         style="stop-color:#ff8800;stop-opacity:1;" />
    </linearGradient>
    <radialGradient
       inkscape:collect="always"
       xlink:href="#linearGradient4033"
       id="radialGradient3980"
       gradientUnits="userSpaceOnUse"
       gradientTransform="matrix(1.3296497,0,0,1.3296497,-93.074866,-123.75106)"
       cx="282.34476"
       cy="375.4017"
       fx="282.34476"
       fy="375.4017"
       r="35.820995" />
    <linearGradient
       inkscape:collect="always"
       xlink:href="#linearGradient3844"
       id="linearGradient7086"
       gradientUnits="userSpaceOnUse"
       gradientTransform="translate(-134.81338,-311.98002)"
       spreadMethod="pad"
       x1="386.56805"
       y1="483.1358"
       x2="386.56805"
       y2="277.29831" />
  </defs>
  <sodipodi:namedview
     id="base"
     pagecolor="#ffffff"
     bordercolor="#666666"
     borderopacity="1.0"
     inkscape:pageopacity="0.0"
     inkscape:pageshadow="2"
     inkscape:zoom="0.43381316"
     inkscape:cx="130.97142"
     inkscape:cy="543.49697"
     inkscape:document-units="px"
     inkscape:current-layer="layer1"
     showgrid="false"
     inkscape:object-nodes="true"
     inkscape:snap-smooth-nodes="true"
     inkscape:snap-object-midpoints="true"
     inkscape:snap-midpoints="true"
     inkscape:snap-bbox="false"
     inkscape:snap-bbox-edge-midpoints="true"
     fit-margin-top="0"
     fit-margin-left="0"
     fit-margin-right="0"
     fit-margin-bottom="0"
     inkscape:object-paths="true"
     inkscape:snap-global="true" />
  <metadata
     id="metadata7">
    <rdf:RDF>
      <cc:Work
         rdf:about="">
        <dc:format>image/svg+xml</dc:format>
        <dc:type
           rdf:resource="http://purl.org/dc/dcmitype/StillImage" />
        <dc:title></dc:title>
      </cc:Work>
    </rdf:RDF>
  </metadata>
  <g
     inkscape:label="Calque 1"
     inkscape:groupmode="layer"
     id="layer1"
     transform="translate(204.23218,175.7241)">
    <path
       sodipodi:type="arc"
       style="fill:#cccccc;stroke:none"
       id="path4715"
       sodipodi:cx="449.17188"
       sodipodi:cy="465.44025"
       sodipodi:rx="490.94907"
       sodipodi:ry="245.47453"
       d="m 449.17188,219.96571 c 271.14369,1e-5 490.94907,109.9027 490.94906,245.47454 0,135.57184 -219.80538,245.47453 -490.94905,245.47453"
       transform="translate(-69.418793,136.25592)"
       sodipodi:start="4.712389"
       sodipodi:end="7.8539816"
       sodipodi:open="true" />
    <g
       id="g4167">
      <path
         sodipodi:nodetypes="ccccc"
         id="path4492"
         style="fill:url(#linearGradient7086);fill-opacity:1;stroke:#000000"
         d="M 251.75466,-34.6817 C 148.31682,21.88911 22.50352,47.69364 -111.24712,62.58434 l 0,11.30539 c 133.75064,14.8907 259.56394,40.69523 363.00178,97.26604 z"
         inkscape:connector-curvature="0" />
      <path
         inkscape:connector-curvature="0"
         id="path5088"
         d="m -161.3627,-175.2241 0,487.90368"
         style="fill:#ffff00;fill-opacity:1;fill-rule:evenodd;stroke:#000000;stroke-width:1;stroke-linecap:round;stroke-linejoin:round;stroke-miterlimit:4;stroke-opacity:1;stroke-dasharray:8, 2, 1, 2;stroke-dashoffset:0" />
      <path
         sodipodi:open="true"
         sodipodi:end="8.7534701"
         sodipodi:start="4.0460505"
         transform="matrix(-1,0,0,1,351.04274,-248.5634)"
         d="m 490.38526,105.8776 c 13.1566,-2.75871 32.20857,-2.15095 42.55375,1.35747 10.34519,3.50843 8.06609,8.58895 -5.09051,11.34767 -13.11039,2.74903 -32.08649,2.15644 -42.46037,-1.32596"
         sodipodi:ry="8.0812206"
         sodipodi:rx="30.304579"
         sodipodi:cy="112.23017"
         sodipodi:cx="509.11688"
         id="path5090"
         style="fill:none;stroke:#000000;stroke-width:1;stroke-linecap:round;stroke-linejoin:round;stroke-miterlimit:4;stroke-opacity:1;stroke-dasharray:none;stroke-dashoffset:0;marker-end:url(#Arrow1Lend)"
         sodipodi:type="arc" />
      <g
         transform="matrix(0.64730497,0,0,0.64730497,-348.34363,-185.64785)"
         id="layer1-0"
         inkscape:label="Calque 1">
        <path
           transform="translate(6.5158829,23.388712)"
           d="m 317.91575,375.4017 c 0,19.64532 -15.92567,35.571 -35.57099,35.571 -19.64532,0 -35.571,-15.92568 -35.571,-35.571 0,-19.64532 15.92568,-35.57099 35.571,-35.57099 19.64532,0 35.57099,15.92567 35.57099,35.57099 z"
           sodipodi:ry="35.570995"
           sodipodi:rx="35.570995"
           sodipodi:cy="375.4017"
           sodipodi:cx="282.34476"
           id="path3108"
           style="fill:url(#radialGradient3980);fill-opacity:1;fill-rule:evenodd;stroke:#000000;stroke-width:0.5;stroke-linecap:round;stroke-linejoin:round;stroke-miterlimit:4;stroke-opacity:1;stroke-dasharray:none;stroke-dashoffset:0"
           sodipodi:type="arc" />
        <path
           inkscape:tile-y0="345.59409"
           inkscape:tile-x0="282.96551"
           inkscape:tile-h="14.92895"
           inkscape:tile-w="11.79025"
           inkscape:tile-cy="398.79042"
           inkscape:tile-cx="288.86064"
           inkscape:transform-center-y="-60.178641"
           sodipodi:nodetypes="ccczc"
           inkscape:connector-curvature="0"
           d="m 296.61805,356.94694 c -3.84599,-3.84599 -5.87757,-9.05331 -7.7574,-16.06893 -1.92774,7.19443 -4.1359,12.44742 -7.75741,16.06893 4.74917,1.25562 4.3592,3.57611 7.75741,3.57611 3.39821,0 3.00823,-2.32049 7.7574,-3.57611 z"
           style="fill:#ffac00;fill-opacity:1;fill-rule:evenodd;stroke:#000000;stroke-width:0.5;stroke-linecap:round;stroke-linejoin:round;stroke-miterlimit:4;stroke-opacity:1;stroke-dasharray:none;stroke-dashoffset:0"
           id="path3120" />
        <use
           height="1052.3622"
           width="744.09448"
           inkscape:transform-center-y="-31.21388"
           inkscape:transform-center-x="-31.213884"
           id="use4075"
           transform="matrix(0.70710678,0.70710678,-0.70710678,0.70710678,366.59273,-87.452306)"
           xlink:href="#path3120"
           inkscape:tiled-clone-of="#path3120"
           y="0"
           x="0" />
        <use
           height="1052.3622"
           width="744.09448"
           inkscape:transform-center-x="-45.73185"
           id="use4077"
           transform="matrix(0,1,-1,0,687.65105,109.92978)"
           xlink:href="#path3120"
           inkscape:tiled-clone-of="#path3120"
           y="0"
           x="0" />
        <use
           height="1052.3622"
           width="744.09448"
           inkscape:transform-center-y="31.213884"
           inkscape:transform-center-x="-31.213884"
           id="use4079"
           transform="matrix(-0.70710678,0.70710678,-0.70710678,-0.70710678,775.10336,476.52251)"
           xlink:href="#path3120"
           inkscape:tiled-clone-of="#path3120"
           y="0"
           x="0" />
        <use
           height="1052.3622"
           width="744.09448"
           inkscape:transform-center-y="45.73185"
           id="use4081"
           transform="matrix(-1,0,0,-1,577.72127,797.58083)"
           xlink:href="#path3120"
           inkscape:tiled-clone-of="#path3120"
           y="0"
           x="0" />
        <use
           height="1052.3622"
           width="744.09448"
           inkscape:transform-center-y="31.213884"
           inkscape:transform-center-x="31.213884"
           id="use4083"
           transform="matrix(-0.70710678,-0.70710678,0.70710678,-0.70710678,211.12854,885.03314)"
           xlink:href="#path3120"
           inkscape:tiled-clone-of="#path3120"
           y="0"
           x="0" />
        <use
           height="1052.3622"
           width="744.09448"
           inkscape:transform-center-x="45.73185"
           id="use4085"
           transform="matrix(0,-1,1,0,-109.92978,687.65105)"
           xlink:href="#path3120"
           inkscape:tiled-clone-of="#path3120"
           y="0"
           x="0" />
        <use
           height="1052.3622"
           width="744.09448"
           inkscape:transform-center-y="-31.213884"
           inkscape:transform-center-x="31.213884"
           id="use4087"
           transform="matrix(0.70710678,-0.70710678,0.70710678,0.70710678,-197.38209,321.05832)"
           xlink:href="#path3120"
           inkscape:tiled-clone-of="#path3120"
           y="0"
           x="0" />
      </g>
    </g>
    <text
       xml:space="preserve"
       style="font-size:18px;font-style:normal;font-variant:normal;font-weight:normal;font-stretch:normal;text-align:center;line-height:125%;letter-spacing:0px;word-spacing:0px;writing-mode:lr-tb;text-anchor:middle;fill:#000000;fill-opacity:1;stroke:none;font-family:DejaVu Sans;-inkscape-font-specification:DejaVu Sans"
       x="63.080803"
       y="21.983198"
       id="text3856"
       sodipodi:linespacing="125%"><tspan
         sodipodi:role="line"
         id="tspan3858"
         x="63.080803"
         y="21.983198">T<tspan
   style="font-size:65.00091553%;baseline-shift:sub"
   id="tspan3860">eff</tspan></tspan></text>
    <use
       id="use4490"
       xlink:href="#use7365"
       y="0"
       x="0"
       transform="matrix(1,0,0,-1,0.65054992,136.55978)"
       width="1"
       height="1" />
    <path
       inkscape:connector-curvature="0"
       sodipodi:nodetypes="cszzzzzzssz"
       id="use7365"
       d="m -70.04303,57.59519 c -4.67463,-2.6632 -7.05488,-5.4936 -7.05488,-7.4408 0,-6.4447 14.10844,-7.5718 14.10844,-14.3186 0,-6.7468 -14.10888,-8.0179 -14.10888,-14.6605 0,-6.5163 14.10957,-7.3591 14.10957,-14.6595 0,-7.4266 -14.10306,-7.5226 -14.10306,-14.2423 0,-6.5934 14.09362,-8.477 14.09362,-15.0367 0,-6.5701 -14.08805,-7.3886 -14.08805,-13.971 0,-6.5888 14.0718,-8.8949 14.0718,-14.36566 0,-3.8832 -3.46415,-5.691 -7.02856,-7.7489 l 0,-12.4107"
       style="fill:none;stroke:#000000;stroke-width:1;stroke-linecap:round;stroke-linejoin:round;stroke-miterlimit:4;stroke-opacity:1;stroke-dasharray:none;stroke-dashoffset:0;marker:none;marker-end:url(#Arrow2Mend);visibility:visible;display:inline;overflow:visible;enable-background:accumulate" />
    <use
       id="use4398"
       xlink:href="#use7365"
       y="0"
       x="0"
       transform="translate(53.925434,-7.7943998)"
       width="1"
       height="1" />
    <use
       id="use4400"
       xlink:href="#use7365"
       y="0"
       x="0"
       transform="translate(107.85087,-17.712056)"
       width="1"
       height="1" />
    <use
       id="use4402"
       xlink:href="#use7365"
       y="0"
       x="0"
       transform="translate(161.7763,-31.73477)"
       width="1"
       height="1" />
    <use
       id="use4408"
       xlink:href="#use7365"
       y="0"
       x="0"
       transform="translate(269.62712,-68.783653)"
       width="1"
       height="1" />
    <use
       id="use4412"
       xlink:href="#use7365"
       y="0"
       x="0"
       transform="translate(215.70167,-47.365416)"
       width="1"
       height="1" />
    <use
       height="1"
       width="1"
       transform="matrix(1,0,0,-1,54.992567,144.40918)"
       x="0"
       y="0"
       xlink:href="#use7365"
       id="use4442" />
    <use
       height="1"
       width="1"
       transform="matrix(1,0,0,-1,108.918,154.32688)"
       x="0"
       y="0"
       xlink:href="#use7365"
       id="use4444" />
    <use
       height="1"
       width="1"
       transform="matrix(1,0,0,-1,162.84343,168.34958)"
       x="0"
       y="0"
       xlink:href="#use7365"
       id="use4446" />
    <use
       height="1"
       width="1"
       transform="matrix(1,0,0,-1,270.69425,205.39848)"
       x="0"
       y="0"
       xlink:href="#use7365"
       id="use4452" />
    <use
       height="1"
       width="1"
       transform="matrix(1,0,0,-1,216.7688,183.98018)"
       x="0"
       y="0"
       xlink:href="#use7365"
       id="use4456" />
    <use
       x="0"
       y="0"
       xlink:href="#g4167"
       id="use4173"
       transform="translate(547.84607,0)"
       width="707.66528"
       height="321.90369" />
    <path
       sodipodi:nodetypes="ccccc"
       id="path4187"
       style="fill:none;stroke:#000000;stroke-width:1;stroke-miterlimit:4;stroke-dasharray:6, 6;stroke-dashoffset:0"
       d="M 799.81066,33.638514 C 696.25318,52.656104 570.29436,61.330896 436.38902,66.33675 l 0,3.80057 c 133.90534,5.005854 259.86416,13.680646 363.42164,32.69824 z"
       inkscape:connector-curvature="0" />
    <text
       xml:space="preserve"
       style="font-size:18px;font-style:normal;font-variant:normal;font-weight:normal;font-stretch:normal;text-align:center;line-height:125%;letter-spacing:0px;word-spacing:0px;writing-mode:lr-tb;text-anchor:middle;fill:#000000;fill-opacity:1;stroke:none;font-family:DejaVu Sans;-inkscape-font-specification:DejaVu Sans"
       x="40.285027"
       y="-143.52884"
       id="text4205"
       sodipodi:linespacing="125%"><tspan
         sodipodi:role="line"
         x="40.285027"
         y="-143.52884"
         id="tspan4213" /></text>
    <flowRoot
       xml:space="preserve"
       id="flowRoot4220"
       style="font-size:18px;font-style:normal;font-variant:normal;font-weight:normal;font-stretch:normal;text-align:center;line-height:125%;letter-spacing:0px;word-spacing:0px;writing-mode:lr-tb;text-anchor:middle;fill:#000000;fill-opacity:1;stroke:none;font-family:DejaVu Sans;-inkscape-font-specification:DejaVu Sans"
       transform="translate(-81.533325,147.02439)"><flowRegion
         id="flowRegion4222"><rect
           id="rect4224"
           width="215.75046"
           height="80.388535"
           x="-0.6730296"
           y="-322.85864" /></flowRegion><flowPara
         id="flowPara4226">Rayonnement de corps noir à la température de surface Teff</flowPara></flowRoot>    <flowRoot
       xml:space="preserve"
       id="flowRoot4228"
       style="font-size:18px;font-style:normal;font-variant:normal;font-weight:normal;font-stretch:normal;text-align:center;line-height:125%;letter-spacing:0px;word-spacing:0px;writing-mode:lr-tb;text-anchor:middle;fill:#000000;fill-opacity:1;stroke:none;font-family:DejaVu Sans;-inkscape-font-specification:DejaVu Sans"
       transform="translate(-69.418793,136.25592)"><flowRegion
         id="flowRegion4230"><rect
           id="rect4232"
           width="217.96393"
           height="81.855446"
           x="558.71106"
           y="-233.95192" /></flowRegion><flowPara
         id="flowPara4234">Chauffage visqueux principalement au centre, avec T&gt;T<flowSpan
   style="font-size:65.00091553%;baseline-shift:sub"
   id="flowSpan4236">eff</flowSpan></flowPara></flowRoot>    <text
       xml:space="preserve"
       style="font-size:18px;font-style:normal;font-variant:normal;font-weight:normal;font-stretch:normal;text-align:center;line-height:125%;letter-spacing:0px;word-spacing:0px;writing-mode:lr-tb;text-anchor:middle;fill:#000000;fill-opacity:1;stroke:none;font-family:DejaVu Sans;-inkscape-font-specification:DejaVu Sans"
       x="747.62506"
       y="76.176048"
       id="text3852"
       sodipodi:linespacing="125%"><tspan
         sodipodi:role="line"
         id="tspan3854"
         x="747.62506"
         y="76.176048">T</tspan></text>
    <use
       x="0"
       y="0"
       xlink:href="#g4167"
       id="use4238"
       transform="translate(0,529.205)"
       width="707.66528"
       height="321.90369" />
    <g
       id="g4695"
       transform="matrix(0.99906028,0.0433423,-0.0433423,0.99906028,304.89912,-330.86166)">
      <path
         style="font-size:medium;font-style:normal;font-variant:normal;font-weight:normal;font-stretch:normal;text-indent:0;text-align:start;text-decoration:none;line-height:normal;letter-spacing:normal;word-spacing:normal;text-transform:none;direction:ltr;block-progression:tb;writing-mode:lr-tb;text-anchor:start;baseline-shift:baseline;color:#000000;fill:#ffcc00;fill-opacity:1;fill-rule:evenodd;stroke:#000000;stroke-width:0.99999994;stroke-miterlimit:4;stroke-dasharray:none;marker:none;visibility:visible;display:inline;overflow:visible;enable-background:accumulate;font-family:Sans;-inkscape-font-specification:Sans"
         d="m -34.027787,824.01153 3.91125,3.6413 -12.77398,-2.9043 -163.184073,27.729 0.31387,11.5953 163.382393,-27.7627 12.57566,-5.845 -2.94551,4.7958 15.42774,-8.3482 z"
         id="use8506"
         inkscape:connector-curvature="0"
         sodipodi:nodetypes="cccccccccc" />
    </g>
    <use
       x="0"
       y="0"
       xlink:href="#g4695"
       id="use4699"
       transform="translate(-173.71687,64.943151)"
       width="707.66528"
       height="321.90369" />
    <use
       x="0"
       y="0"
       xlink:href="#g4695"
       id="use4705"
       transform="matrix(1,0,0,-1,2.5642136e-7,1194.8841)"
       width="707.66528"
       height="321.90369" />
    <use
       height="321.90369"
       width="707.66528"
       transform="matrix(1,0,0,-1,-169.18496,1130.8392)"
       id="use4703"
       xlink:href="#g4695"
       y="0"
       x="0" />
    <text
       xml:space="preserve"
       style="font-size:18px;font-style:normal;font-variant:normal;font-weight:normal;font-stretch:normal;text-align:center;line-height:125%;letter-spacing:0px;word-spacing:0px;writing-mode:lr-tb;text-anchor:middle;fill:#000000;fill-opacity:1;stroke:none;font-family:DejaVu Sans;-inkscape-font-specification:DejaVu Sans"
       x="15.292079"
       y="485.76202"
       id="text4707"
       sodipodi:linespacing="125%"><tspan
         sodipodi:role="line"
         id="tspan4709"
         x="15.292079"
         y="485.76202">Irradiation de l'étoile</tspan></text>
    <use
       height="321.90369"
       width="707.66528"
       transform="translate(541.11578,529.205)"
       id="use4711"
       xlink:href="#g4167"
       y="0"
       x="0" />
    <text
       xml:space="preserve"
       style="font-size:18px;font-style:normal;font-variant:normal;font-weight:normal;font-stretch:normal;text-align:center;line-height:125%;letter-spacing:0px;word-spacing:0px;writing-mode:lr-tb;text-anchor:middle;fill:#000000;fill-opacity:1;stroke:none;font-family:DejaVu Sans;-inkscape-font-specification:DejaVu Sans"
       x="561.30664"
       y="285.56009"
       id="text4717"
       sodipodi:linespacing="125%"
       transform="translate(-69.418793,136.25592)"><tspan
         sodipodi:role="line"
         id="tspan4719"
         x="564.17188"
         y="285.56009">Chauffage par </tspan><tspan
         sodipodi:role="line"
         x="561.30664"
         y="308.06009"
         id="tspan4721">l'enveloppe du disque</tspan><tspan
         sodipodi:role="line"
         x="561.30664"
         y="330.56009"
         id="tspan4723">à ~10K</tspan></text>
    <path
       style="font-size:medium;font-style:normal;font-variant:normal;font-weight:normal;font-stretch:normal;text-indent:0;text-align:start;text-decoration:none;line-height:normal;letter-spacing:normal;word-spacing:normal;text-transform:none;direction:ltr;block-progression:tb;writing-mode:lr-tb;text-anchor:start;baseline-shift:baseline;color:#000000;fill:#ffcc00;fill-opacity:1;fill-rule:evenodd;stroke:#000000;stroke-width:0.69309336;stroke-miterlimit:4;stroke-dasharray:none;marker:none;visibility:visible;display:inline;overflow:visible;enable-background:accumulate;font-family:Sans;-inkscape-font-specification:Sans"
       d="m 744.81806,506.59169 -1.99402,4.1606 -0.3911,-7.65302 -54.79089,-54.95382 -8.84162,7.79796 54.85747,55.0206 7.07051,1.78632 -4.28809,1.8445 9.57852,1.41381 z"
       id="path4727"
       inkscape:connector-curvature="0"
       sodipodi:nodetypes="cccccccccc" />
    <use
       id="use4735"
       xlink:href="#path4727"
       y="0"
       x="0"
       transform="translate(-71.781423,27.379588)"
       width="1"
       height="1" />
    <use
       id="use4737"
       xlink:href="#path4727"
       y="0"
       x="0"
       transform="translate(-158.83498,51.150248)"
       width="1"
       height="1" />
    <use
       id="use4739"
       xlink:href="#path4727"
       y="0"
       x="0"
       transform="translate(-242.96368,69.322046)"
       width="1"
       height="1" />
    <use
       height="321.90369"
       width="707.66528"
       transform="matrix(1,0,0,-1,-247.00185,1129.7194)"
       id="use4741"
       xlink:href="#path4727"
       y="0"
       x="0" />
    <use
       height="321.90369"
       width="707.66528"
       transform="matrix(1,0,0,-1,-158.83498,1144.8626)"
       id="use4743"
       xlink:href="#path4727"
       y="0"
       x="0" />
    <use
       height="321.90369"
       width="707.66528"
       transform="matrix(1,0,0,-1,-62.863781,1170.4841)"
       id="use4745"
       xlink:href="#path4727"
       y="0"
       x="0" />
    <use
       x="0"
       y="0"
       xlink:href="#path4727"
       id="use4733"
       transform="matrix(1,0,0,-1,8.749385,1198.3684)"
       width="707.66528"
       height="321.90369" />
  </g>
</svg>
