<?xml version="1.0" encoding="UTF-8" standalone="no"?>
<!-- Created with Inkscape (http://www.inkscape.org/) -->

<svg
   xmlns:dc="http://purl.org/dc/elements/1.1/"
   xmlns:cc="http://creativecommons.org/ns#"
   xmlns:rdf="http://www.w3.org/1999/02/22-rdf-syntax-ns#"
   xmlns:svg="http://www.w3.org/2000/svg"
   xmlns="http://www.w3.org/2000/svg"
   xmlns:xlink="http://www.w3.org/1999/xlink"
   xmlns:sodipodi="http://sodipodi.sourceforge.net/DTD/sodipodi-0.dtd"
   xmlns:inkscape="http://www.inkscape.org/namespaces/inkscape"
   inkscape:version="0.48.1 r9760"
   version="1.1"
   id="svg2"
   height="411.452"
   width="1049.9033"
   sodipodi:docname="disk_collapse.svg">
  <sodipodi:namedview
     id="base"
     pagecolor="#ffffff"
     bordercolor="#666666"
     borderopacity="1.0"
     inkscape:pageopacity="0.0"
     inkscape:pageshadow="2"
     inkscape:zoom="0.7"
     inkscape:cx="391.04883"
     inkscape:cy="104.10387"
     inkscape:document-units="px"
     inkscape:current-layer="layer1"
     showgrid="false"
     inkscape:object-nodes="true"
     inkscape:snap-object-midpoints="true"
     inkscape:snap-global="false"
     inkscape:object-paths="false"
     inkscape:snap-smooth-nodes="true"
     fit-margin-top="0"
     fit-margin-left="0"
     fit-margin-right="0"
     fit-margin-bottom="0" />
  <defs
     id="defs4">
    <marker
       inkscape:stockid="Arrow1Lstart"
       orient="auto"
       refY="0"
       refX="0"
       id="Arrow1Lstart"
       style="overflow:visible">
      <path
         id="path3903"
         d="M 0,0 5,-5 -12.5,0 5,5 0,0 z"
         style="fill-rule:evenodd;stroke:#000000;stroke-width:1pt;marker-start:none"
         transform="matrix(0.8,0,0,0.8,10,0)"
         inkscape:connector-curvature="0" />
    </marker>
    <marker
       inkscape:stockid="Arrow1Lend"
       orient="auto"
       refY="0"
       refX="0"
       id="Arrow1Lend"
       style="overflow:visible">
      <path
         id="path3906"
         d="M 0,0 5,-5 -12.5,0 5,5 0,0 z"
         style="fill-rule:evenodd;stroke:#000000;stroke-width:1pt;marker-start:none"
         transform="matrix(-0.8,0,0,-0.8,-10,0)"
         inkscape:connector-curvature="0" />
    </marker>
    <marker
       inkscape:stockid="Arrow1Lendk"
       orient="auto"
       refY="0"
       refX="0"
       id="Arrow1Lendk"
       style="overflow:visible">
      <path
         id="path6342"
         d="M 0,0 5,-5 -12.5,0 5,5 0,0 z"
         style="fill:#0000ff;fill-rule:evenodd;stroke:#0000ff;stroke-width:1pt;marker-start:none"
         transform="matrix(-0.8,0,0,-0.8,-10,0)"
         inkscape:connector-curvature="0" />
    </marker>
    <marker
       inkscape:stockid="Arrow1Lend9"
       orient="auto"
       refY="0"
       refX="0"
       id="Arrow1Lend9"
       style="overflow:visible">
      <path
         id="path6345"
         d="M 0,0 5,-5 -12.5,0 5,5 0,0 z"
         style="fill:#0000ff;fill-rule:evenodd;stroke:#0000ff;stroke-width:1pt;marker-start:none"
         transform="matrix(-0.8,0,0,-0.8,-10,0)"
         inkscape:connector-curvature="0" />
    </marker>
    <marker
       inkscape:stockid="Arrow1LendP"
       orient="auto"
       refY="0"
       refX="0"
       id="Arrow1LendP"
       style="overflow:visible">
      <path
         id="path6348"
         d="M 0,0 5,-5 -12.5,0 5,5 0,0 z"
         style="fill:#0000ff;fill-rule:evenodd;stroke:#0000ff;stroke-width:1pt;marker-start:none"
         transform="matrix(-0.8,0,0,-0.8,-10,0)"
         inkscape:connector-curvature="0" />
    </marker>
  </defs>
  <metadata
     id="metadata7">
    <rdf:RDF>
      <cc:Work
         rdf:about="">
        <dc:format>image/svg+xml</dc:format>
        <dc:type
           rdf:resource="http://purl.org/dc/dcmitype/StillImage" />
      </cc:Work>
    </rdf:RDF>
  </metadata>
  <g
     inkscape:label="Calque 1"
     inkscape:groupmode="layer"
     id="layer1"
     transform="translate(53.357134,-18.553044)">
    <path
       sodipodi:type="arc"
       style="fill:#000000;fill-opacity:1;fill-rule:evenodd;stroke:#000000;stroke-width:1;stroke-miterlimit:10;stroke-opacity:1;stroke-dasharray:none;stroke-dashoffset:0"
       id="path2985"
       sodipodi:cx="41.42857"
       sodipodi:cy="182.36218"
       sodipodi:rx="7.857142"
       sodipodi:ry="7.857142"
       d="m 49.285712,182.36218 c 0,4.33938 -3.517763,7.85714 -7.857142,7.85714 -4.33938,0 -7.857142,-3.51776 -7.857142,-7.85714 0,-4.33938 3.517762,-7.85714 7.857142,-7.85714 4.339379,0 7.857142,3.51776 7.857142,7.85714 z"
       transform="translate(130.0639,-1.319856)" />
    <use
       x="0"
       y="0"
       xlink:href="#path2985"
       id="use3755"
       transform="translate(-98.81812,54.320842)"
       width="744.09448"
       height="1052.3622" />
    <use
       height="1052.3622"
       width="744.09448"
       transform="translate(-72.792391,-12.456128)"
       id="use3757"
       xlink:href="#path2985"
       y="0"
       x="0" />
    <use
       height="1052.3622"
       width="744.09448"
       transform="translate(-9.8545455,45.952315)"
       id="use3807"
       xlink:href="#path2985"
       y="0"
       x="0" />
    <use
       height="1052.3622"
       width="744.09448"
       transform="translate(-12.711688,84.523743)"
       id="use3809"
       xlink:href="#path2985"
       y="0"
       x="0" />
    <use
       height="1052.3622"
       width="744.09448"
       transform="translate(15.85974,135.95231)"
       id="use3811"
       xlink:href="#path2985"
       y="0"
       x="0" />
    <use
       height="1052.3622"
       width="744.09448"
       transform="translate(-18.425974,147.38089)"
       id="use3813"
       xlink:href="#path2985"
       y="0"
       x="0" />
    <use
       height="1052.3622"
       width="744.09448"
       transform="translate(-19.854545,117.38089)"
       id="use3815"
       xlink:href="#path2985"
       y="0"
       x="0" />
    <use
       height="1052.3622"
       width="744.09448"
       transform="translate(-56.997403,137.38089)"
       id="use3817"
       xlink:href="#path2985"
       y="0"
       x="0" />
    <use
       height="1052.3622"
       width="744.09448"
       transform="translate(-92.711688,124.52374)"
       id="use3819"
       xlink:href="#path2985"
       y="0"
       x="0" />
    <use
       height="1052.3622"
       width="744.09448"
       transform="translate(-71.283117,108.80946)"
       id="use3821"
       xlink:href="#path2985"
       y="0"
       x="0" />
    <use
       height="1052.3622"
       width="744.09448"
       transform="translate(27.288312,-39.761971)"
       id="use3823"
       xlink:href="#path2985"
       y="0"
       x="0" />
    <use
       height="1052.3622"
       width="744.09448"
       transform="translate(-15.568831,-54.047685)"
       id="use3825"
       xlink:href="#path2985"
       y="0"
       x="0" />
    <use
       height="1052.3622"
       width="744.09448"
       transform="translate(-51.283117,-49.761971)"
       id="use3827"
       xlink:href="#path2985"
       y="0"
       x="0" />
    <use
       height="1052.3622"
       width="744.09448"
       transform="translate(-101.28312,13.095172)"
       id="use3829"
       xlink:href="#path2985"
       y="0"
       x="0" />
    <use
       x="0"
       y="0"
       xlink:href="#path2985"
       id="use3759"
       transform="translate(-44.14026,51.6666)"
       width="744.09448"
       height="1052.3622" />
    <use
       height="1052.3622"
       width="744.09448"
       transform="translate(82.327217,62.924138)"
       id="use3761"
       xlink:href="#path2985"
       y="0"
       x="0" />
    <use
       x="0"
       y="0"
       xlink:href="#path2985"
       id="use3763"
       transform="translate(-51.759216,-11.853106)"
       width="744.09448"
       height="1052.3622" />
    <use
       height="1052.3622"
       width="744.09448"
       transform="translate(70.879757,5.952161)"
       id="use3765"
       xlink:href="#path2985"
       y="0"
       x="0" />
    <use
       x="0"
       y="0"
       xlink:href="#path2985"
       id="use3767"
       transform="translate(21.322617,-9.844515)"
       width="744.09448"
       height="1052.3622" />
    <use
       height="1052.3622"
       width="744.09448"
       transform="translate(60.933727,106.25742)"
       id="use3769"
       xlink:href="#path2985"
       y="0"
       x="0" />
    <use
       x="0"
       y="0"
       xlink:href="#path2985"
       id="use3771"
       transform="translate(-79.324048,48.366377)"
       width="744.09448"
       height="1052.3622" />
    <use
       height="1052.3622"
       width="744.09448"
       transform="translate(-128.73004,37.803798)"
       id="use3773"
       xlink:href="#path2985"
       y="0"
       x="0" />
    <use
       x="0"
       y="0"
       xlink:href="#path2985"
       id="use3775"
       transform="translate(-109.48244,-31.146274)"
       width="744.09448"
       height="1052.3622" />
    <use
       height="1052.3622"
       width="744.09448"
       transform="translate(-47.152677,22.514138)"
       id="use3777"
       xlink:href="#path2985"
       y="0"
       x="0" />
    <use
       x="0"
       y="0"
       xlink:href="#path2985"
       id="use3779"
       transform="translate(34.685397,9.180682)"
       width="744.09448"
       height="1052.3622" />
    <use
       height="1052.3622"
       width="744.09448"
       transform="translate(-88.208532,-27.00203)"
       id="use3781"
       xlink:href="#path2985"
       y="0"
       x="0" />
    <use
       x="0"
       y="0"
       xlink:href="#path2985"
       id="use3783"
       transform="translate(-61.653792,82.295726)"
       width="744.09448"
       height="1052.3622" />
    <use
       height="1052.3622"
       width="744.09448"
       transform="translate(41.820967,49.361885)"
       id="use3785"
       xlink:href="#path2985"
       y="0"
       x="0" />
    <use
       x="0"
       y="0"
       xlink:href="#path2985"
       id="use3787"
       transform="translate(25.731197,99.576214)"
       width="744.09448"
       height="1052.3622" />
    <use
       height="1052.3622"
       width="744.09448"
       transform="translate(-107.70912,65.709299)"
       id="use3789"
       xlink:href="#path2985"
       y="0"
       x="0" />
    <use
       x="0"
       y="0"
       xlink:href="#path2985"
       id="use3791"
       transform="translate(67.638247,2.953297)"
       width="744.09448"
       height="1052.3622" />
    <use
       height="1052.3622"
       width="744.09448"
       transform="translate(73.26739,37.263777)"
       id="use3793"
       xlink:href="#path2985"
       y="0"
       x="0" />
    <use
       x="0"
       y="0"
       xlink:href="#path2985"
       id="use3795"
       transform="translate(-127.47406,100.78389)"
       width="744.09448"
       height="1052.3622" />
    <use
       height="1052.3622"
       width="744.09448"
       transform="translate(72.186077,76.800311)"
       id="use3797"
       xlink:href="#path2985"
       y="0"
       x="0" />
    <use
       x="0"
       y="0"
       xlink:href="#path2985"
       id="use3799"
       transform="translate(14.670867,63.915766)"
       width="744.09448"
       height="1052.3622" />
    <use
       height="1052.3622"
       width="744.09448"
       transform="translate(90.161627,84.121924)"
       id="use3801"
       xlink:href="#path2985"
       y="0"
       x="0" />
    <use
       x="0"
       y="0"
       xlink:href="#path2985"
       id="use3803"
       transform="translate(-27.039582,-24.700395)"
       width="744.09448"
       height="1052.3622" />
    <path
       style="fill:none;stroke:#ff0000;stroke-width:1;stroke-miterlimit:10;stroke-opacity:1;stroke-dasharray:none;stroke-dashoffset:0;marker-end:url(#Arrow1Lend)"
       d="m 142.85715,38.076461 0,68.571429"
       id="path3898"
       inkscape:connector-curvature="0"
       inkscape:transform-center-y="-161.42857" />
    <use
       id="use4346"
       inkscape:transform-center-y="-161.42857"
       xlink:href="#path3898"
       y="0"
       x="0"
       transform="matrix(0.8660254,0.5,-0.5,0.8660254,136.0346,-40.106554)"
       width="1"
       height="1" />
    <use
       id="use4348"
       inkscape:transform-center-y="-161.42857"
       xlink:href="#path3898"
       y="0"
       x="0"
       transform="matrix(0.5,0.8660254,-0.8660254,0.5,273.8973,-6.8225483)"
       width="1"
       height="1" />
    <use
       id="use4350"
       inkscape:transform-center-y="-161.42857"
       xlink:href="#path3898"
       y="0"
       x="0"
       transform="matrix(0,1,-1,0,376.6479,90.933595)"
       width="1"
       height="1" />
    <use
       id="use4352"
       inkscape:transform-center-y="-161.42857"
       xlink:href="#path3898"
       y="0"
       x="0"
       transform="matrix(-0.5,0.8660254,-0.8660254,-0.5,416.75445,226.9682)"
       width="1"
       height="1" />
    <use
       id="use4354"
       inkscape:transform-center-y="-161.42857"
       xlink:href="#path3898"
       y="0"
       x="0"
       transform="matrix(-0.8660254,0.5,-0.5,-0.8660254,383.47044,364.8309)"
       width="1"
       height="1" />
    <use
       id="use4356"
       inkscape:transform-center-y="-161.42857"
       xlink:href="#path3898"
       y="0"
       x="0"
       transform="matrix(-1,0,0,-1,285.7143,467.58149)"
       width="1"
       height="1" />
    <use
       id="use4358"
       inkscape:transform-center-y="-161.42857"
       xlink:href="#path3898"
       y="0"
       x="0"
       transform="matrix(-0.8660254,-0.5,0.5,-0.8660254,149.6797,507.68805)"
       width="1"
       height="1" />
    <use
       id="use4360"
       inkscape:transform-center-y="-161.42857"
       xlink:href="#path3898"
       y="0"
       x="0"
       transform="matrix(-0.5,-0.8660254,0.8660254,-0.5,11.817,474.40404)"
       width="1"
       height="1" />
    <use
       id="use4362"
       inkscape:transform-center-y="-161.42857"
       xlink:href="#path3898"
       y="0"
       x="0"
       transform="matrix(0,-1,1,0,-90.933595,376.6479)"
       width="1"
       height="1" />
    <use
       id="use4364"
       inkscape:transform-center-y="-161.42857"
       xlink:href="#path3898"
       y="0"
       x="0"
       transform="matrix(0.5,-0.8660254,0.8660254,0.5,-131.04015,240.61329)"
       width="1"
       height="1" />
    <use
       x="0"
       y="0"
       xlink:href="#path3898"
       inkscape:transform-center-y="-139.80124"
       id="use4344"
       transform="matrix(0.8660254,-0.5,0.5,0.8660254,-97.756144,102.7506)"
       width="744.09448"
       height="1052.3622"
       inkscape:transform-center-x="80.714286" />
    <use
       height="1052.3622"
       width="744.09448"
       transform="matrix(0.58058653,0,0,0.58068085,417.06177,124.5854)"
       id="use4368"
       xlink:href="#path2985"
       y="0"
       x="0" />
    <use
       x="0"
       y="0"
       xlink:href="#path2985"
       id="use4370"
       transform="matrix(0.58058653,0,0,0.58068085,432.17195,108.91147)"
       width="744.09448"
       height="1052.3622" />
    <use
       x="0"
       y="0"
       xlink:href="#path2985"
       id="use4372"
       transform="matrix(0.58058653,0,0,0.58068085,468.71282,119.72596)"
       width="744.09448"
       height="1052.3622" />
    <use
       x="0"
       y="0"
       xlink:href="#path2985"
       id="use4374"
       transform="matrix(0.58058653,0,0,0.58068085,467.05401,128.04582)"
       width="744.09448"
       height="1052.3622" />
    <use
       x="0"
       y="0"
       xlink:href="#path2985"
       id="use4376"
       transform="matrix(0.58058653,0,0,0.58068085,483.64219,157.90941)"
       width="744.09448"
       height="1052.3622" />
    <use
       x="0"
       y="0"
       xlink:href="#path2985"
       id="use4378"
       transform="matrix(0.58058653,0,0,0.58068085,463.73637,164.54576)"
       width="744.09448"
       height="1052.3622" />
    <use
       x="0"
       y="0"
       xlink:href="#path2985"
       id="use4380"
       transform="matrix(0.58058653,0,0,0.58068085,462.90696,147.12533)"
       width="744.09448"
       height="1052.3622" />
    <use
       x="0"
       y="0"
       xlink:href="#path2985"
       id="use4382"
       transform="matrix(0.58058653,0,0,0.58068085,441.34231,158.73896)"
       width="744.09448"
       height="1052.3622" />
    <use
       x="0"
       y="0"
       xlink:href="#path2985"
       id="use4384"
       transform="matrix(0.58058653,0,0,0.58068085,420.60708,151.27305)"
       width="744.09448"
       height="1052.3622" />
    <use
       x="0"
       y="0"
       xlink:href="#path2985"
       id="use4386"
       transform="matrix(0.58058653,0,0,0.58068085,433.04822,142.14807)"
       width="744.09448"
       height="1052.3622" />
    <use
       x="0"
       y="0"
       xlink:href="#path2985"
       id="use4388"
       transform="matrix(0.58058653,0,0,0.58068085,490.27746,93.05549)"
       width="744.09448"
       height="1052.3622" />
    <use
       x="0"
       y="0"
       xlink:href="#path2985"
       id="use4390"
       transform="matrix(0.58058653,0,0,0.58068085,465.39518,84.76005)"
       width="744.09448"
       height="1052.3622" />
    <use
       x="0"
       y="0"
       xlink:href="#path2985"
       id="use4392"
       transform="matrix(0.58058653,0,0,0.58068085,444.65995,87.248682)"
       width="744.09448"
       height="1052.3622" />
    <use
       x="0"
       y="0"
       xlink:href="#path2985"
       id="use4394"
       transform="matrix(0.58058653,0,0,0.58068085,415.63062,112.96455)"
       width="744.09448"
       height="1052.3622" />
    <use
       height="1052.3622"
       width="744.09448"
       transform="matrix(0.58058653,0,0,0.58068085,448.807,123.04414)"
       id="use4396"
       xlink:href="#path2985"
       y="0"
       x="0" />
    <use
       x="0"
       y="0"
       xlink:href="#path2985"
       id="use4398"
       transform="matrix(0.58058653,0,0,0.58068085,522.23231,129.58117)"
       width="744.09448"
       height="1052.3622" />
    <use
       height="1052.3622"
       width="744.09448"
       transform="matrix(0.58058653,0,0,0.58068085,444.38354,109.26163)"
       id="use4400"
       xlink:href="#path2985"
       y="0"
       x="0" />
    <use
       x="0"
       y="0"
       xlink:href="#path2985"
       id="use4402"
       transform="matrix(0.58058653,0,0,0.58068085,515.58606,119.60081)"
       width="744.09448"
       height="1052.3622" />
    <use
       height="1052.3622"
       width="744.09448"
       transform="matrix(0.58058653,0,0,0.58068085,486.81386,110.42798)"
       id="use4404"
       xlink:href="#path2985"
       y="0"
       x="0" />
    <use
       x="0"
       y="0"
       xlink:href="#path2985"
       id="use4406"
       transform="matrix(0.58058653,0,0,0.58068085,509.81154,140.66615)"
       width="744.09448"
       height="1052.3622" />
    <use
       height="1052.3622"
       width="744.09448"
       transform="matrix(0.58058653,0,0,0.58068085,428.37976,121.12776)"
       id="use4408"
       xlink:href="#path2985"
       y="0"
       x="0" />
    <use
       x="0"
       y="0"
       xlink:href="#path2985"
       id="use4410"
       transform="matrix(0.58058653,0,0,0.58068085,394.41699,122.03319)"
       width="744.09448"
       height="1052.3622" />
    <use
       height="1052.3622"
       width="744.09448"
       transform="matrix(0.58058653,0,0,0.58068085,410.87021,98.058461)"
       id="use4412"
       xlink:href="#path2985"
       y="0"
       x="0" />
    <use
       x="0"
       y="0"
       xlink:href="#path2985"
       id="use4414"
       transform="matrix(0.58058653,0,0,0.58068085,449.40395,137.2044)"
       width="744.09448"
       height="1052.3622" />
    <use
       height="1052.3622"
       width="744.09448"
       transform="matrix(0.58058653,0,0,0.58068085,494.57211,121.47555)"
       id="use4416"
       xlink:href="#path2985"
       y="0"
       x="0" />
    <use
       x="0"
       y="0"
       xlink:href="#path2985"
       id="use4418"
       transform="matrix(0.58058653,0,0,0.58068085,423.22155,100.46494)"
       width="744.09448"
       height="1052.3622" />
    <use
       height="1052.3622"
       width="744.09448"
       transform="matrix(0.58058653,0,0,0.58068085,438.63887,126.75205)"
       id="use4420"
       xlink:href="#path2985"
       y="0"
       x="0" />
    <use
       x="0"
       y="0"
       xlink:href="#path2985"
       id="use4422"
       transform="matrix(0.58058653,0,0,0.58068085,498.71493,121.70583)"
       width="744.09448"
       height="1052.3622" />
    <use
       height="1052.3622"
       width="744.09448"
       transform="matrix(0.58058653,0,0,0.58068085,489.37342,136.7865)"
       id="use4424"
       xlink:href="#path2985"
       y="0"
       x="0" />
    <use
       x="0"
       y="0"
       xlink:href="#path2985"
       id="use4426"
       transform="matrix(0.58058653,0,0,0.58068085,411.89978,117.12063)"
       width="744.09448"
       height="1052.3622" />
    <use
       height="1052.3622"
       width="744.09448"
       transform="matrix(0.58058653,0,0,0.58068085,504.44964,106.58497)"
       id="use4428"
       xlink:href="#path2985"
       y="0"
       x="0" />
    <use
       x="0"
       y="0"
       xlink:href="#path2985"
       id="use4430"
       transform="matrix(0.58058653,0,0,0.58068085,516.9723,126.99879)"
       width="744.09448"
       height="1052.3622" />
    <use
       height="1052.3622"
       width="744.09448"
       transform="matrix(0.58058653,0,0,0.58068085,400.42452,137.48778)"
       id="use4432"
       xlink:href="#path2985"
       y="0"
       x="0" />
    <use
       x="0"
       y="0"
       xlink:href="#path2985"
       id="use4434"
       transform="matrix(0.58058653,0,0,0.58068085,505.24978,136.10366)"
       width="744.09448"
       height="1052.3622" />
    <use
       height="1052.3622"
       width="744.09448"
       transform="matrix(0.58058653,0,0,0.58068085,482.95195,130.15699)"
       id="use4436"
       xlink:href="#path2985"
       y="0"
       x="0" />
    <use
       x="0"
       y="0"
       xlink:href="#path2985"
       id="use4438"
       transform="matrix(0.58058653,0,0,0.58068085,526.78086,127.81249)"
       width="744.09448"
       height="1052.3622" />
    <use
       height="1052.3622"
       width="744.09448"
       transform="matrix(0.58058653,0,0,0.58068085,458.73542,101.80146)"
       id="use4440"
       xlink:href="#path2985"
       y="0"
       x="0" />
    <path
       inkscape:transform-center-y="-108.55178"
       inkscape:connector-curvature="0"
       id="path4444"
       d="m 556.45404,128.73995 0,46.11049"
       style="fill:none;stroke:#ff0000;stroke-width:1;stroke-miterlimit:10;stroke-opacity:1;stroke-dasharray:none;stroke-dashoffset:0;marker-end:url(#Arrow1Lend)" />
    <path
       inkscape:transform-center-y="-161.42857"
       inkscape:connector-curvature="0"
       id="use4456"
       d="m 559.81571,328.52127 0,-46.1105"
       style="fill:none;stroke:#ff0000;stroke-width:0.80000001;stroke-miterlimit:10;stroke-opacity:1;stroke-dasharray:none;stroke-dashoffset:0;marker-end:url(#Arrow1Lend)" />
    <path
       inkscape:transform-center-y="-161.42857"
       inkscape:connector-curvature="0"
       id="use4462"
       d="m 453.95592,228.64518 17.7028,0"
       style="fill:none;stroke:#ff0000;stroke-width:0.80000001;stroke-miterlimit:10;stroke-opacity:1;stroke-dasharray:none;stroke-dashoffset:0;marker-end:url(#Arrow1Lend)" />
    <path
       inkscape:transform-center-y="-161.42857"
       inkscape:connector-curvature="0"
       id="use4464"
       d="m 463.97843,190.82295 18.9125,10.92091"
       style="fill:none;stroke:#ff0000;stroke-width:0.80000001;stroke-miterlimit:10;stroke-opacity:1;stroke-dasharray:none;stroke-dashoffset:0;marker-end:url(#Arrow1Lend)" />
    <path
       inkscape:transform-center-y="-161.42857"
       inkscape:connector-curvature="0"
       id="use4466"
       d="m 499.06844,155.8578 15.1188,26.19078"
       style="fill:none;stroke:#ff0000;stroke-width:0.80000001;stroke-miterlimit:10;stroke-opacity:1;stroke-dasharray:none;stroke-dashoffset:0;marker-end:url(#Arrow1Lend)" />
    <path
       transform="matrix(0.42436651,0,0,0.39553224,108.30159,41.390581)"
       d="m 98.265314,-48.333777 c 26.405166,1.246723 40.272716,5.127356 30.974046,8.667638 -9.29868,3.540282 -38.24236,5.399578 -64.647527,4.152855 -26.405166,-1.246723 -40.272717,-5.127357 -30.974042,-8.667638 4.356431,-1.658623 13.338302,-3.026284 25.058275,-3.8156"
       sodipodi:ry="6.7961078"
       sodipodi:rx="50.688725"
       sodipodi:cy="-41.923531"
       sodipodi:cx="81.428574"
       id="path4652"
       style="fill:none;stroke:#0000ff;stroke-width:2.44083548;stroke-miterlimit:10;stroke-opacity:1;stroke-dasharray:none;stroke-dashoffset:0;marker-start:url(#Arrow1Lstart);marker-end:none"
       sodipodi:type="arc"
       sodipodi:start="5.0509811"
       sodipodi:end="10.530077"
       sodipodi:open="true" />
    <use
       height="1052.3622"
       width="744.09448"
       transform="matrix(0.58058653,0,0,0.58068085,472.91881,107.51565)"
       id="use5320"
       xlink:href="#path2985"
       y="0"
       x="0" />
    <path
       sodipodi:open="true"
       sodipodi:end="10.530077"
       sodipodi:start="5.0509811"
       sodipodi:type="arc"
       style="fill:none;stroke:#0000ff;stroke-width:2.16141915;stroke-miterlimit:10;stroke-opacity:1;stroke-dasharray:none;stroke-dashoffset:0;marker-start:url(#Arrow1Lstart);marker-end:none"
       id="path5322"
       sodipodi:cx="81.428574"
       sodipodi:cy="-41.923531"
       sodipodi:rx="50.688725"
       sodipodi:ry="6.7961078"
       d="m 98.265314,-48.333777 c 26.405166,1.246723 40.272716,5.127356 30.974046,8.667638 -9.29868,3.540282 -38.24236,5.399578 -64.647527,4.152855 -26.405166,-1.246723 -40.272717,-5.127357 -30.974042,-8.667638 4.356431,-1.658623 13.338302,-3.026284 25.058275,-3.8156"
       transform="matrix(0.4702212,0,0,0.45521839,518.61268,131.8512)" />
    <use
       x="0"
       y="0"
       xlink:href="#path2985"
       id="use5324"
       transform="matrix(0.45401374,0,0,0.45372865,802.5134,149.72826)"
       width="744.09448"
       height="1052.3622" />
    <use
       height="1052.3622"
       width="744.09448"
       transform="matrix(0.45401374,0,0,0.45372865,814.32943,137.48106)"
       id="use5326"
       xlink:href="#path2985"
       y="0"
       x="0" />
    <use
       height="1052.3622"
       width="744.09448"
       transform="matrix(0.45401374,0,0,0.45372865,842.90408,145.93121)"
       id="use5328"
       xlink:href="#path2985"
       y="0"
       x="0" />
    <use
       height="1052.3622"
       width="744.09448"
       transform="matrix(0.45401374,0,0,0.45372865,841.6069,152.43214)"
       id="use5330"
       xlink:href="#path2985"
       y="0"
       x="0" />
    <use
       height="1052.3622"
       width="744.09448"
       transform="matrix(0.45401374,0,0,0.45372865,871.1178,151.45986)"
       id="use5332"
       xlink:href="#path2985"
       y="0"
       x="0" />
    <use
       height="1052.3622"
       width="744.09448"
       transform="matrix(0.45401374,0,0,0.45372865,857.49739,150.48758)"
       id="use5334"
       xlink:href="#path2985"
       y="0"
       x="0" />
    <use
       height="1052.3622"
       width="744.09448"
       transform="matrix(0.45401374,0,0,0.45372865,838.36395,167.34036)"
       id="use5336"
       xlink:href="#path2985"
       y="0"
       x="0" />
    <use
       height="1052.3622"
       width="744.09448"
       transform="matrix(0.45401374,0,0,0.45372865,851.66006,148.21894)"
       id="use5338"
       xlink:href="#path2985"
       y="0"
       x="0" />
    <use
       height="1052.3622"
       width="744.09448"
       transform="matrix(0.45401374,0,0,0.45372865,807.23158,152.43213)"
       id="use5340"
       xlink:href="#path2985"
       y="0"
       x="0" />
    <use
       height="1052.3622"
       width="744.09448"
       transform="matrix(0.45401374,0,0,0.45372865,815.01467,163.45126)"
       id="use5342"
       xlink:href="#path2985"
       y="0"
       x="0" />
    <use
       height="1052.3622"
       width="744.09448"
       transform="matrix(0.45401374,0,0,0.45372865,863.01041,137.08302)"
       id="use5344"
       xlink:href="#path2985"
       y="0"
       x="0" />
    <use
       height="1052.3622"
       width="744.09448"
       transform="matrix(0.45401374,0,0,0.45372865,849.38999,133.19391)"
       id="use5346"
       xlink:href="#path2985"
       y="0"
       x="0" />
    <use
       height="1052.3622"
       width="744.09448"
       transform="matrix(0.45401374,0,0,0.45372865,828.63508,146.15759)"
       id="use5348"
       xlink:href="#path2985"
       y="0"
       x="0" />
    <use
       height="1052.3622"
       width="744.09448"
       transform="matrix(0.45401374,0,0,0.45372865,801.39426,140.64802)"
       id="use5350"
       xlink:href="#path2985"
       y="0"
       x="0" />
    <use
       x="0"
       y="0"
       xlink:href="#path2985"
       id="use5352"
       transform="matrix(0.45401374,0,0,0.45372865,827.3379,148.52395)"
       width="744.09448"
       height="1052.3622" />
    <use
       height="1052.3622"
       width="744.09448"
       transform="matrix(0.45401374,0,0,0.45372865,884.75587,153.63181)"
       id="use5354"
       xlink:href="#path2985"
       y="0"
       x="0" />
    <use
       x="0"
       y="0"
       xlink:href="#path2985"
       id="use5356"
       transform="matrix(0.45401374,0,0,0.45372865,823.87879,137.75466)"
       width="744.09448"
       height="1052.3622" />
    <use
       height="1052.3622"
       width="744.09448"
       transform="matrix(0.45401374,0,0,0.45372865,879.55857,145.83342)"
       id="use5358"
       xlink:href="#path2985"
       y="0"
       x="0" />
    <use
       x="0"
       y="0"
       xlink:href="#path2985"
       id="use5360"
       transform="matrix(0.45401374,0,0,0.45372865,857.05894,138.66602)"
       width="744.09448"
       height="1052.3622" />
    <use
       height="1052.3622"
       width="744.09448"
       transform="matrix(0.45401374,0,0,0.45372865,875.04293,162.29333)"
       id="use5362"
       xlink:href="#path2985"
       y="0"
       x="0" />
    <use
       x="0"
       y="0"
       xlink:href="#path2985"
       id="use5364"
       transform="matrix(0.45401374,0,0,0.45372865,811.36397,147.02654)"
       width="744.09448"
       height="1052.3622" />
    <use
       height="1052.3622"
       width="744.09448"
       transform="matrix(0.45401374,0,0,0.45372865,784.80537,147.73402)"
       id="use5366"
       xlink:href="#path2985"
       y="0"
       x="0" />
    <use
       x="0"
       y="0"
       xlink:href="#path2985"
       id="use5368"
       transform="matrix(0.45401374,0,0,0.45372865,835.61424,148.12223)"
       width="744.09448"
       height="1052.3622" />
    <use
       height="1052.3622"
       width="744.09448"
       transform="matrix(0.45401374,0,0,0.45372865,827.80471,159.5884)"
       id="use5370"
       xlink:href="#path2985"
       y="0"
       x="0" />
    <use
       x="0"
       y="0"
       xlink:href="#path2985"
       id="use5372"
       transform="matrix(0.45401374,0,0,0.45372865,863.12583,147.29829)"
       width="744.09448"
       height="1052.3622" />
    <use
       height="1052.3622"
       width="744.09448"
       transform="matrix(0.45401374,0,0,0.45372865,808.30318,140.60392)"
       id="use5374"
       xlink:href="#path2985"
       y="0"
       x="0" />
    <use
       x="0"
       y="0"
       xlink:href="#path2985"
       id="use5376"
       transform="matrix(0.45401374,0,0,0.45372865,819.38652,151.42122)"
       width="744.09448"
       height="1052.3622" />
    <use
       height="1052.3622"
       width="744.09448"
       transform="matrix(0.45401374,0,0,0.45372865,866.36547,147.47824)"
       id="use5378"
       xlink:href="#path2985"
       y="0"
       x="0" />
    <use
       x="0"
       y="0"
       xlink:href="#path2985"
       id="use5380"
       transform="matrix(0.45401374,0,0,0.45372865,859.0605,159.26187)"
       width="744.09448"
       height="1052.3622" />
    <use
       height="1052.3622"
       width="744.09448"
       transform="matrix(0.45401374,0,0,0.45372865,798.47676,143.89548)"
       id="use5382"
       xlink:href="#path2985"
       y="0"
       x="0" />
    <use
       x="0"
       y="0"
       xlink:href="#path2985"
       id="use5384"
       transform="matrix(0.45401374,0,0,0.45372865,870.84997,135.66319)"
       width="744.09448"
       height="1052.3622" />
    <use
       height="1052.3622"
       width="744.09448"
       transform="matrix(0.45401374,0,0,0.45372865,880.64258,151.61402)"
       id="use5386"
       xlink:href="#path2985"
       y="0"
       x="0" />
    <use
       x="0"
       y="0"
       xlink:href="#path2985"
       id="use5388"
       transform="matrix(0.45401374,0,0,0.45372865,794.36764,156.56891)"
       width="744.09448"
       height="1052.3622" />
    <use
       height="1052.3622"
       width="744.09448"
       transform="matrix(0.45401374,0,0,0.45372865,871.47569,158.72832)"
       id="use5390"
       xlink:href="#path2985"
       y="0"
       x="0" />
    <use
       x="0"
       y="0"
       xlink:href="#path2985"
       id="use5392"
       transform="matrix(0.45401374,0,0,0.45372865,854.03896,154.08175)"
       width="744.09448"
       height="1052.3622" />
    <use
       height="1052.3622"
       width="744.09448"
       transform="matrix(0.45401374,0,0,0.45372865,888.3128,152.24982)"
       id="use5394"
       xlink:href="#path2985"
       y="0"
       x="0" />
    <use
       x="0"
       y="0"
       xlink:href="#path2985"
       id="use5396"
       transform="matrix(0.45401374,0,0,0.45372865,835.10184,131.92548)"
       width="744.09448"
       height="1052.3622" />
    <use
       x="0"
       y="0"
       xlink:href="#path2985"
       id="use5424"
       transform="matrix(0.45401374,0,0,0.45372865,846.19314,136.3904)"
       width="744.09448"
       height="1052.3622" />
    <path
       transform="matrix(0.61902203,0,0,0.83733848,861.47302,206.33388)"
       d="m 98.265314,-48.333777 c 26.405166,1.246723 40.272716,5.127356 30.974046,8.667638 -9.29868,3.540282 -38.24236,5.399578 -64.647527,4.152855 -26.405166,-1.246723 -40.272717,-5.127357 -30.974042,-8.667638 4.356431,-1.658623 13.338302,-3.026284 25.058275,-3.8156"
       sodipodi:ry="6.7961078"
       sodipodi:rx="50.688725"
       sodipodi:cy="-41.923531"
       sodipodi:cx="81.428574"
       id="path5426"
       style="fill:none;stroke:#0000ff;stroke-width:1.38898134;stroke-miterlimit:10;stroke-opacity:1;stroke-dasharray:none;stroke-dashoffset:0;marker-start:url(#Arrow1Lstart);marker-end:none"
       sodipodi:type="arc"
       sodipodi:start="5.0509811"
       sodipodi:end="10.530077"
       sodipodi:open="true" />
    <path
       style="fill:none;stroke:#ff0000;stroke-width:0.80000001;stroke-miterlimit:10;stroke-opacity:1;stroke-dasharray:none;stroke-dashoffset:0;marker-end:url(#Arrow1Lend)"
       d="m 659.91258,228.64514 -17.7028,0"
       id="path6085"
       inkscape:connector-curvature="0"
       inkscape:transform-center-y="-161.42857" />
    <path
       style="fill:none;stroke:#ff0000;stroke-width:0.80000001;stroke-miterlimit:10;stroke-opacity:1;stroke-dasharray:none;stroke-dashoffset:0;marker-end:url(#Arrow1Lend)"
       d="m 649.89007,190.82291 -18.9125,10.92091"
       id="path6087"
       inkscape:connector-curvature="0"
       inkscape:transform-center-y="-161.42857" />
    <path
       style="fill:none;stroke:#ff0000;stroke-width:0.80000001;stroke-miterlimit:10;stroke-opacity:1;stroke-dasharray:none;stroke-dashoffset:0;marker-end:url(#Arrow1Lend)"
       d="m 614.80006,155.85776 -15.1188,26.19078"
       id="path6089"
       inkscape:connector-curvature="0"
       inkscape:transform-center-y="-161.42857" />
    <path
       style="fill:none;stroke:#ff0000;stroke-width:0.80000001;stroke-miterlimit:10;stroke-opacity:1;stroke-dasharray:none;stroke-dashoffset:0;marker-end:url(#Arrow1Lend)"
       d="m 463.97848,266.46738 18.9125,-10.92091"
       id="path6099"
       inkscape:connector-curvature="0"
       inkscape:transform-center-y="-161.42857" />
    <path
       style="fill:none;stroke:#ff0000;stroke-width:0.80000001;stroke-miterlimit:10;stroke-opacity:1;stroke-dasharray:none;stroke-dashoffset:0;marker-end:url(#Arrow1Lend)"
       d="m 499.06849,301.43253 15.1188,-26.19078"
       id="path6101"
       inkscape:connector-curvature="0"
       inkscape:transform-center-y="-161.42857" />
    <path
       inkscape:transform-center-y="-161.42857"
       inkscape:connector-curvature="0"
       id="path6103"
       d="m 649.89012,266.46742 -18.9125,-10.92091"
       style="fill:none;stroke:#ff0000;stroke-width:0.80000001;stroke-miterlimit:10;stroke-opacity:1;stroke-dasharray:none;stroke-dashoffset:0;marker-end:url(#Arrow1Lend)" />
    <path
       inkscape:transform-center-y="-161.42857"
       inkscape:connector-curvature="0"
       id="path6105"
       d="m 614.80011,301.43257 -15.1188,-26.19078"
       style="fill:none;stroke:#ff0000;stroke-width:0.80000001;stroke-miterlimit:10;stroke-opacity:1;stroke-dasharray:none;stroke-dashoffset:0;marker-end:url(#Arrow1Lend)" />
    <path
       style="fill:none;stroke:#ff0000;stroke-width:1;stroke-miterlimit:10;stroke-opacity:1;stroke-dasharray:none;stroke-dashoffset:0;marker-end:url(#Arrow1Lend)"
       d="m 911.90414,159.55049 0,46.11049"
       id="path6117"
       inkscape:connector-curvature="0"
       inkscape:transform-center-y="-108.55178" />
    <path
       style="fill:none;stroke:#ff0000;stroke-width:0.80000001;stroke-miterlimit:10;stroke-opacity:1;stroke-dasharray:none;stroke-dashoffset:0;marker-end:url(#Arrow1Lend)"
       d="m 911.90414,302.57854 0,-46.1105"
       id="path6119"
       inkscape:connector-curvature="0"
       inkscape:transform-center-y="-161.42857" />
    <path
       style="fill:none;stroke:#ff0000;stroke-width:0.80000001;stroke-miterlimit:10;stroke-opacity:1;stroke-dasharray:none;stroke-dashoffset:0;marker-end:url(#Arrow1Lend)"
       d="m 827.66208,231.06451 17.7028,0"
       id="path6121"
       inkscape:connector-curvature="0"
       inkscape:transform-center-y="-161.42857" />
    <path
       inkscape:transform-center-y="-161.42857"
       inkscape:connector-curvature="0"
       id="path6123"
       d="m 996.14623,231.06451 -17.70283,0"
       style="fill:none;stroke:#ff0000;stroke-width:0.80000001;stroke-miterlimit:10;stroke-opacity:1;stroke-dasharray:none;stroke-dashoffset:0;marker-end:url(#Arrow1Lend)" />
    <path
       sodipodi:nodetypes="cc"
       inkscape:connector-curvature="0"
       id="path6144"
       d="m 112.40762,244.61502 c 11.06201,8.64159 24.94342,8.11071 41.08496,2.22802"
       style="fill:none;stroke:#0000ff;stroke-width:0.80000001;stroke-miterlimit:10;stroke-opacity:1;stroke-dasharray:none;stroke-dashoffset:0;marker-end:url(#Arrow1Lend9)" />
    <path
       style="fill:none;stroke:#0000ff;stroke-width:0.80000001;stroke-miterlimit:10;stroke-opacity:1;stroke-dasharray:none;stroke-dashoffset:0;marker-end:url(#Arrow1Lendk)"
       d="m 510.3244,241.71703 c 18.75479,8.64159 42.28965,8.11071 69.65639,2.22802"
       id="path6330"
       inkscape:connector-curvature="0"
       sodipodi:nodetypes="cc" />
    <path
       sodipodi:nodetypes="cc"
       inkscape:connector-curvature="0"
       id="path6332"
       d="m 861.03871,238.1456 c 27.21684,8.64159 61.3705,8.11071 101.08496,2.22802"
       style="fill:none;stroke:#0000ff;stroke-width:0.80000001;stroke-miterlimit:10;stroke-opacity:1;stroke-dasharray:none;stroke-dashoffset:0;marker-end:url(#Arrow1LendP)" />
  </g>
</svg>
