<?xml version="1.0" encoding="UTF-8" standalone="no"?>
<!-- Created with Inkscape (http://www.inkscape.org/) -->

<svg
   xmlns:dc="http://purl.org/dc/elements/1.1/"
   xmlns:cc="http://creativecommons.org/ns#"
   xmlns:rdf="http://www.w3.org/1999/02/22-rdf-syntax-ns#"
   xmlns:svg="http://www.w3.org/2000/svg"
   xmlns="http://www.w3.org/2000/svg"
   xmlns:sodipodi="http://sodipodi.sourceforge.net/DTD/sodipodi-0.dtd"
   xmlns:inkscape="http://www.inkscape.org/namespaces/inkscape"
   id="svg2"
   version="1.1"
   inkscape:version="0.48.4 r9939"
   width="631.8"
   height="505.6"
   xml:space="preserve"
   sodipodi:docname="energy_error.svg"><metadata
     id="metadata8"><rdf:RDF><cc:Work
         rdf:about=""><dc:format>image/svg+xml</dc:format><dc:type
           rdf:resource="http://purl.org/dc/dcmitype/StillImage" /><dc:title /></cc:Work></rdf:RDF></metadata><defs
     id="defs6" /><sodipodi:namedview
     pagecolor="#ffffff"
     bordercolor="#666666"
     borderopacity="1"
     objecttolerance="10"
     gridtolerance="10"
     guidetolerance="10"
     inkscape:pageopacity="0"
     inkscape:pageshadow="2"
     inkscape:window-width="1615"
     inkscape:window-height="1026"
     id="namedview4"
     showgrid="false"
     fit-margin-top="0"
     fit-margin-left="0"
     fit-margin-right="0"
     fit-margin-bottom="0"
     inkscape:zoom="1.7126126"
     inkscape:cx="389.23712"
     inkscape:cy="312.49739"
     inkscape:window-x="65"
     inkscape:window-y="24"
     inkscape:window-maximized="1"
     inkscape:current-layer="g10" /><g
     id="g10"
     inkscape:groupmode="layer"
     inkscape:label="energy_error"
     transform="matrix(1.25,0,0,-1.25,-26.99,503.5)"><path
       d="m 73.12,44.1 453.38,0 0,352.8 -453.38,0 0,-352.8 z"
       style="fill:#ffffff;fill-opacity:1;fill-rule:nonzero;stroke:none"
       id="path14"
       clip-path="none"
       inkscape:connector-curvature="0" /><path
       d="m 73.5,299.1 0.38,1.7 0.38,-6.8 0.38,0.3 0.37,17.1 0.38,-18.3 0.38,0.9 0.38,-62.7 0.38,63.6 0.37,7.8 0.38,37.2 0.38,-87 0.38,55.7 0.37,39.1 0.38,-54.8 0.38,4.2 0.38,35.8 0.38,-41.2 0.37,8.3 0.38,3.7 0.38,-11.8 0.38,17.3 0.37,-13.3 0.38,-3 0.38,-66.9 0.38,67.3 0.38,1.7 0.37,14.1 0.38,-17.1 0.38,10 0.38,-0.4 0.37,-10 0.38,45.6 0.38,-39.9 0.38,-5 0.38,11.5 0.37,-2.7 0.38,10.7 0.38,-97.3 0.38,99 0.38,-16.1 0.37,-66.7 0.38,63.7 0.38,-1.4 0.38,18.5 0.37,-17.5 0.38,-0.3 0.38,8.9 0.38,-5.5 0.38,-1.6 0.37,1.2 0.38,22.3 0.38,-19.3 0.38,-5.5 0.37,-124.8 0.38,140.3 0.38,-16.9 0.38,15.5 0.38,-80.1 0.37,63.9 0.38,5.6 0.38,14 0.38,-18.7 0.37,7.6 0.38,19.4 0.38,-97.2 0.38,96.7 0.38,-10.3 0.37,-15.9 0.38,8.4 0.38,18.7 0.35,-28.8 0.4,18.2 0.4,-214.88 0.4,197.08 0.3,-68.3 0.4,94.3 0.4,-25 0.4,16 0.3,-12.8 0.4,-1.4 0.4,6.3 0.4,-8.2 0.4,4.9 0.3,-1.6 0.4,-4 0.4,12.2 0.4,-9.8 0.4,-1.8 0.3,35 0.4,-31 0.4,7.6 0.4,-218.05 0.3,224.05 0.4,-8.1 0.4,41 0.4,-50 0.4,1.3 0.3,14.4 0.4,-16.9 0.8,7 0.3,-6.6 0.4,6.9 0.4,-4 0.4,-0.8 0.4,14.4 0.3,-15.7 0.4,11.7 0.4,-80.2 0.4,67.4 0.3,20.4 0.4,-2.9 0.4,-18.1 0.4,44 0.4,-32.9 0.3,-10.4 0.4,14.4 0.4,0.5 0.4,1.7 0.3,-27.4 0.4,28 0.4,-14.2 0.4,17.7 0.4,-16 0.3,-4.8 0.4,-66 0.4,75.5 0.4,-9.1 0.7,34.6 0.4,-33.4 0.4,7.7 0.4,28.6 0.3,-34.1 0.4,0.1 0.4,6.1 0.4,-1.6 0.3,-6.6 0.4,0.5 0.4,16.7 0.4,-18.1 0.4,1 0.3,-63.4 0.4,63.6 0.4,5.9 0.4,38.3 0.3,-154.4 0.4,130.4 0.4,29.3 0.4,-50.5 0.4,3.8 0.3,-5.4 0.4,-0.1 0.8,15.7 0.3,-15.4 0.4,17.2 0.4,-12.7 0.4,-3.6 0.4,-69 0.3,69.6 0.4,1.5 0.4,14.1 0.4,-16.9 0.3,8.3 0.4,1.2 0.4,-10 0.4,37.2 0.4,-31.6 0.3,-5 0.4,-129.3 0.4,136.4 0.4,7.6 0.3,-36.1 0.4,45.2 0.4,-16.7 0.4,-66.5 0.4,61.6 0.3,-1.3 0.4,18.5 0.4,-17.9 0.4,0.1 0.3,8.9 0.4,-6.9 0.4,-0.3 0.4,1.3 0.4,14.7 0.3,-11.7 0.4,-5.6 0.4,-202.63 0.4,217.93 0.3,-16.7 0.4,21.2 0.4,-88.3 0.4,66.4 0.4,6.8 0.3,12.7 0.4,-19 0.4,7.4 0.4,15.3 0.3,-34.5 0.4,33.7 0.4,-4.2 0.4,-16.4 0.7,18.3 0.4,-20.6 0.4,18.7 0.4,-72.4 0.3,54.1 0.4,-67.7 0.4,101.3 0.4,-32.7 0.4,16.1 0.3,-11.6 0.4,-2.7 0.4,6.4 0.4,-7.9 0.3,4.3 0.4,-1.3 0.4,-3.9 0.4,11.6 0.4,-9.4 0.3,-1.8 0.4,30.7 0.4,-27.5 0.4,5.7 0.3,-65.9 0.4,42.6 0.4,27.6 0.4,46.9 0.4,-59.3 0.3,1.3 0.4,15.8 0.4,-18.5 0.7,7.3 0.4,-7 0.4,7.2 0.4,-4.1 0.4,-1.2 0.3,14.9 0.4,-15.7 0.4,7.9 0.4,-77.3 0.3,68.1 0.4,41.9 0.8,-42.5 0.4,38.3 0.3,-27.2 0.4,-10.6 0.4,16.2 0.4,-4.2 0.3,8.8 0.4,-112.7 0.4,114.4 0.4,-17.8 0.4,16.9 0.3,-17 0.4,-4.5 0.4,-65.7 0.4,73.8 0.3,-7.7 0.8,38.8 0.4,-37.6 0.4,7.5 0.3,-29.5 0.4,24.1 0.4,0.2 0.4,9.4 0.3,-4.9 0.4,-6.6 0.4,1.1 0.4,16.1 0.4,-18.2 0.3,1.1 0.4,-65.7 0.4,65.3 0.4,5.1 0.3,33.2 0.4,-108.6 0.4,93.6 0.4,20.4 0.4,-43.7 0.3,3.7 0.4,-116.9 0.4,111.1 0.4,8.6 0.3,11.3 0.4,-19.7 0.4,17.6 0.4,-12.1 0.4,-4.6 0.3,-68.7 0.4,69.8 0.4,0.6 0.4,14.5 0.3,-16.7 0.4,6.9 0.4,2.3 0.4,-9.7 0.4,28.3 0.3,-23 0.4,-4.9 0.4,-171.8 0.4,177.7 0.3,5 0.4,31.4 0.4,-26.8 0.4,-6.2 0.4,-68.9 0.3,61.9 0.4,-1.2 0.4,19 0.4,-18.7 0.3,0.3 0.4,8.9 0.4,-7.9 0.4,0.7 0.4,1.3 0.3,10.1 0.8,-12.6 0.4,-117.1 0.3,132.4 0.4,-16.8 0.4,31.6 0.4,-99.1 0.4,66.8 0.3,8.1 0.4,11 0.4,-18.7 0.4,7.1 0.3,12.8 0.4,-3.2 0.4,-28.2 0.4,32.2 0.4,-18.6 0.3,7.9 0.4,5.2 0.4,-16 0.4,18.6 0.3,12.2 0.4,-30.5 0.4,-69 0.4,110.8 0.4,-40.9 0.3,16.2 0.4,-10.1 0.4,-4.5 0.4,6.5 0.3,-7.6 0.4,3.9 0.4,-1.2 0.4,-3.6 0.4,10.8 0.3,-8.9 0.4,-1.7 0.4,28 0.4,-25.3 0.3,4 0.4,-14 0.4,-84.3 0.4,109.5 0.4,39.5 0.3,-56.3 0.4,1.3 0.4,19 0.4,-22 0.7,7.6 0.4,-7.4 0.4,7.2 0.4,-3.9 0.3,-1.9 0.4,15.4 0.4,-15.5 0.4,5.1 0.3,-75.9 0.4,69.5 0.4,36.6 0.8,-37.3 0.3,-2.8 0.4,13.5 0.4,-10.3 0.4,19.2 0.3,-8.7 0.4,5.1 0.4,-84.8 0.4,95.3 0.4,-19.6 0.3,16 0.4,-17.9 0.4,-4.3 0.4,-66 0.3,72.2 0.4,-5.9 0.4,17.3 0.4,12.2 0.4,-28.4 0.3,7.8 0.4,-173.3 0.4,167.7 0.4,0.2 0.3,14.6 0.4,-10.2 0.4,-6.5 0.4,1.8 0.4,15.2 0.3,-18 0.4,1.3 0.4,-66.5 0.4,65.5 0.3,4.2 0.4,28.8 0.4,-34.7 0.4,14 0.4,26.3 0.3,-37.7 0.4,3.4 0.4,-200.58 0.4,194.68 0.4,8.7 0.3,17.9 0.4,-26.5 0.4,17.6 0.4,-10.8 0.3,-6.1 0.4,-69.2 0.4,70.6 0.4,0.4 0.4,14.8 0.3,-16.8 0.4,6.1 0.4,3.1 0.4,-9.8 0.3,20.5 0.4,-15.4 0.4,-4.7 0.4,-29.9 0.4,35.3 0.3,2.3 0.4,65 0.4,-96 0.4,35.7 0.3,-68.8 0.4,58.9 0.4,-1.3 0.4,19.3 0.4,-19.3 0.3,0.5 0.4,9 0.4,-8.4 0.7,2.6 0.4,6.1 0.4,-3.4 0.4,-5.4 0.4,-1.9 0.3,17.1 0.4,-16.7 0.4,39.5 0.4,-108.2 0.3,67.9 0.8,19.3 0.4,-19.1 0.4,7.3 0.3,10.8 0.4,2.5 0.4,-96.2 0.4,99.9 0.3,-20.6 0.4,7.1 0.4,1.7 0.4,-13 0.4,18.7 0.3,24.4 0.4,-42.9 0.4,-68.2 0.4,103.3 0.3,-34.2 0.4,16.4 0.8,-14.7 0.4,6.5 0.3,-6.8 0.4,3 0.4,-1.1 0.4,-3.5 0.3,10.2 0.4,-8.5 0.4,-1.6 0.4,25.9 0.4,-23.6 0.3,2.5 0.4,-16.5 0.4,-78.2 0.4,112.2 0.3,-46 0.4,25.4 0.4,0.8 0.4,21.9 0.4,-25 0.7,8.2 0.4,-8.1 0.4,7.4 0.3,-3.8 0.4,-2.5 0.4,15.8 0.4,-15.5 0.4,3.8 0.3,-75.2 0.4,70.1 0.4,27.7 0.4,-10.4 0.3,-17.9 0.4,-119.9 0.4,130.6 0.4,-10.6 0.4,23.8 0.3,-14.5 0.4,2 0.4,-0.3 0.4,4.9 0.3,-6.1 0.4,13.6 0.4,-18.6 0.4,-4.2 0.4,-66 0.3,71.1 0.4,-4.9 0.4,17.6 0.4,3 0.3,-19.5 0.4,7.6 0.4,-169.2 0.4,163.8 0.4,0.3 0.3,21.3 0.4,-17 0.4,-6.5 0.4,2.4 0.3,14.4 0.4,-17.9 0.4,1.7 0.4,-68.5 0.4,67 0.3,3.8 0.4,25.3 0.4,-10.2 0.4,-46.9 0.3,66.2 0.4,-36.3 0.4,2.8 0.4,-108 0.4,101.9 0.3,8.8 0.4,28.1 0.4,-36.9 0.4,18 0.7,-17.2 0.4,-69.1 0.4,70.9 0.4,-0.1 0.3,14.8 0.4,-16.6 0.8,8.8 0.3,-9.4 0.4,16.2 0.4,-11.2 0.4,-4.9 0.4,41.6 0.3,-36.7 0.4,1.5 0.4,74.9 0.4,-164.8 0.3,100.7 0.4,-72.3 0.4,58.1 0.4,-1.3 0.4,19.6 0.3,-20 0.4,0.7 0.4,9.2 0.4,-9.3 0.7,3.1 0.4,3.4 0.4,-0.6 0.4,-5.3 0.3,36.1 0.8,-37.6 0.4,27.3 0.3,-96.4 0.4,68.2 0.4,13.2 0.4,5.8 0.4,-18.9 0.7,16.2 0.4,0.9 0.4,-110.5 0.3,122.5 0.4,-23.5 0.4,6 0.4,-1.3 0.4,-10.6 0.7,36.9 0.4,-36.8 0.4,-68.7 0.3,55.3 0.8,30.8 0.4,-4 0.4,-10.9 0.3,6.5 0.4,-6.2 0.4,2.2 0.4,-0.9 0.3,-3.2 0.4,10 0.4,-8.5 0.4,-1.6 0.4,24.3 0.3,-22.5 0.4,2.1 0.4,-30.6 0.4,11.1 0.3,30.5 0.4,-175 0.4,162.4 0.4,0.6 0.4,27.4 0.3,-31 0.8,9.1 0.4,-9 0.3,7.6 0.8,-6.6 0.4,16.1 0.4,-15.4 0.3,2.3 0.4,-74 0.4,70.3 0.4,20.7 0.3,-3.3 0.4,-18.2 0.4,-196.2 0.4,206.7 0.4,-10.3 0.3,31.5 0.4,-23.4 0.4,-0.2 0.4,28 0.3,-67.6 0.4,44.4 0.4,11.8 0.4,-19.8 0.4,-4 0.3,-66.7 0.4,70.8 0.4,-3.9 0.4,17.5 0.3,-4.2 0.4,-12.2 0.4,7.6 0.4,-37 0.4,31.4 0.3,0.4 0.4,28.5 0.4,-24.4 0.4,-6.4 0.3,4 0.4,13 0.4,-18 0.4,1.9 0.4,-69.6 0.3,67.6 0.4,3.8 0.4,23.1 0.4,-6.7 0.3,-116.7 0.4,134.7 0.4,-35.1 0.4,2.5 0.4,12.9 0.3,-19.6 0.4,9 0.4,34.8 0.4,-43.8 0.3,17.9 0.4,-7.4 0.4,-9.8 0.4,-69.9 0.4,72.1 0.3,-0.7 0.4,15 0.4,-16.4 0.7,8.6 0.4,-9.3 0.4,13.1 0.4,-8.3 0.4,-4.6 0.3,50.6 0.4,-46.2 0.4,0.3 0.4,67.7 0.3,-173 0.4,121.6 0.4,-72.1 0.4,54.2 0.4,-1.3 0.3,20.2 0.4,-20.9 0.4,0.8 0.4,9.1 0.3,-9.5 0.8,3.7 0.8,2.6 0.3,-5.4 0.4,33.2 0.8,-34.7 0.3,-73.4 0.4,2.9 0.4,69.6 0.4,16.6 0.4,2.2 0.3,-18.8 0.8,15.1 0.4,-2.6 0.3,-32.5 0.4,45.2 0.4,-16.9 0.4,4.4 0.4,-3.2 0.3,-9.6 0.4,18.9 0.4,10.1 0.4,-29 0.7,-128.3 0.4,129.2 0.4,16.6 0.4,0.8 0.3,-15.9 0.4,6.5 0.4,-5.1 0.4,1.3 0.3,-1 0.4,-3 0.4,9.3 0.4,-8.1 0.4,-1.4 0.3,22.9 0.4,-21.5 0.4,1.3 0.4,-43.1 0.4,60.2 0.3,-53.5 0.4,-72.9 0.4,109.5 0.4,0.2 0.3,33.1 0.4,-36.9 0.4,4 0.4,5.7 0.4,-9.8 0.3,7.9 0.8,-7.1 0.4,16.4 0.3,-15.3 0.4,1.5 0.4,-73.6 0.4,70.6 0.4,16.4 0.3,0.8 0.4,-17.9 0.4,-79.4 0.4,89.7 0.3,-10.3 0.4,41.8 0.4,-34.2 0.4,-2.1 0.4,32.1 0.3,-136 0.4,115.7 0.4,8.8 0.4,-21.1 0.3,-4.1 0.4,-66.8 0.4,70.1 0.4,-3.2 0.4,17.9 0.7,-16.9 0.4,7.7 0.4,24 0.3,-29.6 0.4,0.4 0.4,36.7 0.4,-32.5 0.4,-6.4 0.3,5.6 0.4,11 0.4,-17.8 0.4,2.4 0.3,-71 0.4,68.5 0.4,3.6 0.4,21.7 0.4,-9.5 0.3,-113.6 0.4,138.3 0.4,-35.9 0.4,1.4 0.3,40.4 0.4,-47.3 0.4,8.9 0.4,12.8 0.4,-21.8 0.3,18.3 0.4,-5 0.4,-12.6 0.4,-69 0.3,71.5 0.4,-1 0.4,15.3 0.4,-16.5 0.7,8.2 0.4,-9 0.4,10.7 0.7,-10.6 0.4,45 0.4,-40.8 0.4,-0.7 0.4,11 0.3,-45 0.4,50.7 0.4,-65.4 0.4,49.1 0.3,-1.9 0.4,20.9 0.4,-21.9 0.4,1 0.4,9.4 0.3,-10.1 0.8,3.9 0.4,-0.5 0.3,3 0.4,-5.2 0.4,23.9 0.4,-8.7 0.4,-16.8 0.3,-196.36 0.4,126.46 0.4,69 0.4,21.6 0.3,-2.7 0.4,-18.9 0.8,13.9 0.4,-5.6 0.3,16 0.4,-41.5 0.4,29.8 0.4,1.1 0.3,-5.1 0.4,-8.6 0.4,18.7 0.4,2.8 0.4,-21.6 0.3,-69.2 0.4,-123.59 0.4,193.69 0.4,16.7 0.3,9.8 0.4,-25 0.4,6.6 0.4,-3.9 0.4,-0.3 0.3,-0.8 0.4,-2.8 0.4,9.1 0.4,-8 0.3,-1.4 0.4,22 0.4,-20.8 0.4,1 0.4,-51.7 0.3,70.6 0.4,-124.1 0.4,120.8 0.4,-13.6 0.3,-0.9 0.4,41.1 0.4,-45.2 0.4,4.2 0.4,7.5 0.3,-11.8 0.4,8 0.8,-7.3 0.3,16.5 0.4,-15.1 0.4,1 0.4,-73.8 0.4,71.3 0.3,12.2 0.4,4.9 0.4,-17.9 0.4,25.8 0.3,-15.6 0.4,-10.2 0.4,45.8 0.4,-38.8 0.4,-2.9 0.3,31.2 0.4,-121.1 0.4,107.2 0.4,6.2 0.3,-22.4 0.4,-4.1 0.4,-67.7 0.4,70.3 0.4,-2.7 0.3,18 0.4,-11.1 0.4,-5.8 0.4,7.7 0.3,30.4 0.4,-36.1 0.4,0.4 0.4,29.4 0.4,-25.4 0.3,-6.2 0.8,16.6 0.4,-17.8 0.3,3.1 0.4,-72.3 0.4,69 0.4,3.6 0.4,20.3 0.3,-11.6 0.4,-40.7 0.4,65.7 0.4,-30 0.3,-0.5 0.4,32.4 0.4,-40 0.4,9.3 0.4,-100 0.3,90.5 0.4,18.1 0.4,-1.5 0.4,-15.9 0.3,-70.1 0.4,73.4 0.4,-1.9 0.4,15.4 0.4,-16.2 0.3,3.2 0.4,4.8 0.4,-8.9 0.4,9.7 0.7,-9.8 0.4,36.1 0.4,-32.2 0.4,-0.9 0.3,-119 0.4,130.7 0.8,-50.8 0.3,40.8 0.4,-2.2 0.4,21.6 0.4,-23.1 0.4,1.1 0.3,9.5 0.4,-10.5 0.4,2.6 0.4,1.8 0.3,-1.7 0.4,4.1 0.4,-5.2 0.4,15.2 0.4,-0.3 0.3,-16.6 0.4,-129.7 0.8,128.8 0.3,27.9 0.4,-9.3 0.4,-18.8 0.4,9.1 0.4,4.1 0.3,-7.2 0.4,22 0.4,-121 0.4,110.6 0.3,-2.3 0.8,-15 0.4,19.1 0.4,-1.7 0.3,-17.6 0.4,-68.5 0.4,6.7 0.4,62.7 0.7,36.4 0.4,-35 0.4,6.6 0.4,-2.5 0.3,-1.6 0.4,-0.7 0.4,-2.5 0.4,8.6 0.3,-7.9 0.4,-1.3 0.4,20.8 0.4,-20 0.4,1 0.3,-57.7 0.4,71.8 0.4,-100.7 0.4,159.2 0.3,-69 0.4,-1.6 0.4,47.8 0.4,-52.4 0.4,4.2 0.3,9.1 0.4,-13.6 0.4,8.3 0.4,-2.9 0.3,-4.7 0.4,16.8 0.4,-15.1 0.4,0.2 0.4,-72.6 0.3,70.7 0.8,17.2 0.4,-18 0.3,44.6 0.4,-34.7 0.4,-10 0.4,14 0.4,-7.3 0.3,-3.4 0.4,30.5 0.4,-57.2 0.4,43.4 0.3,10.4 0.4,-24.8 0.4,-4.2 0.4,-68.4 0.4,70.4 0.3,-2.2 0.4,18.1 0.4,-13.2 0.4,-3.9 0.3,7.7 0.4,24.4 0.4,-30.2 0.4,0.6 0.4,-39 0.3,43.1 0.4,-6.4 0.4,13.4 0.4,3.1 0.3,-17.7 0.4,3.6 0.4,-73.3 0.4,69.4 0.4,3.7 0.3,19.4 0.4,-14.4 0.4,5.4 0.4,-3.9 0.3,-0.1 0.4,-2 0.4,22.8 0.4,-31.5 0.4,9.1 0.3,-209 0.4,199.6 0.4,18.4 0.4,3.8 0.4,-21.5 0.3,-70 0.4,74 0.4,-2.7 0.4,15.6 0.3,-16.1 0.4,2.7 0.4,4.8 0.4,-8.5 0.4,8.4 0.7,-8.5 0.4,29.6 0.4,-26 0.3,-1.4 0.4,-156.6 0.4,177.8 0.4,-112.9 0.4,67.1 0.3,28.2 0.4,-3 0.4,22.6 0.4,-24.5 0.3,1.2 0.4,9.6 0.4,-10.8 0.4,2.7 0.4,1.9 0.3,-2.8 0.4,5.1 0.4,-5.2 0.4,9.6 0.3,5.5 0.8,-33.1 0.4,-54.2 0.4,69.6 0.3,35.5 0.8,-35.7 0.4,10.5 0.3,2 0.4,-8.5 0.4,20.7 0.4,-99.9 0.4,96.1 0.3,-3.5 0.8,-17 0.4,18.9 0.3,-6.2 0.4,-12.9 0.4,-70.3 0.4,100.8 0.4,-29.8 0.7,38 0.4,-36.6 0.4,6.7 0.3,-0.3 0.4,-3.9 0.4,-0.7 0.4,-2.1 0.4,8 0.3,-7.7 0.4,-1 0.4,20.4 0.4,-19.9 0.3,0.7 0.4,-60.8 0.4,70.8 0.4,-30.1 0.4,95.6 0.3,-69.6 0.4,-3.1 0.4,38.8 0.4,-43.8 0.3,4.3 0.4,12.2 0.4,-16.9 0.4,8.4 0.4,-2.2 0.3,-5.6 0.4,16.9 0.4,-15 0.4,0 0.3,-73.2 0.4,71.6 0.4,7.4 0,0"
       style="fill:none;stroke:#bf00bf;stroke-width:1;stroke-linecap:square;stroke-linejoin:round;stroke-miterlimit:10;stroke-opacity:1;stroke-dasharray:none"
       id="path64"
       inkscape:connector-curvature="0"
       clip-path="none" /><path
       d="m 73.5,296.2 2.65,0.5 1.51,0.2 0.75,0.1 0.38,0 0.38,0.3 0.76,0 0.75,0.4 2.27,0.4 0.38,0.2 1.88,0.2 1.14,0.1 2.64,0.4 0.76,0.2 0.75,0 0.76,0.4 0.38,0.1 0.38,0.1 0.37,0 0.38,0.2 0.76,0.1 2.64,0.1 0.38,0.3 0.38,0 0.37,0.2 0.76,0.2 0.76,0.1 1.48,0.4 0.4,0.3 1.1,0 0.4,0.2 0.4,0 1.1,0.5 2.7,0.2 1.1,0.4 0.8,0.1 0.7,0.3 0.8,0 0.4,0.2 0.7,0.1 0.4,0.2 4.1,0.5 0.8,0.1 0.8,0.1 1.5,0.2 0.7,0.2 0.4,0.1 0.8,0.4 10.2,0.9 0.3,0.1 0.8,0.1 3.4,0.5 0.7,0.1 1.6,0.7 1.5,0.2 0.7,0.2 1.2,0.2 3.4,0.4 1.1,0.3 0.4,0 0.3,0.2 1.6,0.2 1.8,0.2 0.4,0 0.8,0.1 0.7,0.2 1.2,0.2 0.7,0.1 0.4,0.3 1.5,0.1 1.1,0.1 1.2,0.1 1.5,0.4 1.5,0.1 1.1,0.2 4.6,0.5 0.3,0.2 0.8,0.1 1.5,0.2 1.5,0.1 0.4,0.2 1.5,0.3 0.4,0.2 0.7,0 0.8,0.4 2.3,0.2 0.7,0.2 0.8,0.1 0.4,0.2 1.1,0.2 0.4,0.2 3,0.5 2.6,0.7 1.2,0.1 0.7,0.2 0.8,0 0.7,0.2 1.2,0 0.7,0.3 1.5,0.1 1.5,0.1 1.2,0.2 1.1,0.1 2.7,0.3 2.2,0.4 0.4,0.2 3,0.2 1.5,0.3 0.8,0.1 0.4,0.2 3.7,0.5 0.4,0.1 2.3,0.5 1.1,0.5 2.7,0.4 1.1,0.2 1.5,0.1 0.4,0.2 1.1,0.2 0.4,0.2 1.9,0.1 3,0.5 0.8,0.3 3.4,0.3 0.4,0.2 0.3,0 0.8,0.2 1.5,0.3 0.4,0.2 1.5,0 0.7,0.2 1.6,0.2 1.1,0.1 2.6,0.2 2.3,0.2 0.8,0.2 1.5,0.4 0.7,0.1 1.5,0.2 0.8,0.2 1.9,0.2 0.7,0.1 0.8,0.3 1.1,0.1 0.8,0.1 0.4,0 0.7,0.3 1.1,0.1 0.8,0.2 5.7,0.7 1.1,0.4 1.5,0.2 1.9,0.1 0.4,0.2 0.4,0 0.3,0.3 3.4,0.5 0.4,0.3 0.4,0 1.1,0.2 1.5,0.4 0.4,0 0.8,0.4 0.7,0.2 2.3,0.3 0.7,0.2 2.7,0.2 1.1,0.2 1.2,0.3 0.7,0.1 0.4,0.3 2.3,0.1 0.7,0.1 1.9,0.2 4.9,0.6 1.1,0.4 1.2,0.2 1.1,0.1 2.7,0.2 0.7,0.2 1.5,0.1 1.2,0.1 0.7,0.4 0.8,0.1 1.5,0.5 0.7,0.1 0.8,0.4 1.1,0.1 3.8,1.1 1.9,0.2 0.7,0.4 0.4,0 0.8,0.3 1.1,0.1 0.4,0.2 1.1,0 0.4,0.2 2.6,0.3 0.8,0.2 0.4,0 0.4,0.2 0.3,0 0.8,0.4 1.1,0.1 0.4,0.1 1.1,0.1 0.4,0.2 4.2,0.4 0.3,0 0.4,0.3 0.8,0.1 1.1,0.1 3,0.2 0.8,0.1 0.7,0.3 1.6,0.3 1.1,0.6 0.8,0.1 1.5,0.7 1.9,0.2 0.7,0.1 0.8,0.1 0.7,0.2 0.8,0.1 0.7,0.1 0.8,0.1 2.3,0.1 0.7,0.1 4.2,0.3 1.5,0.4 1.1,0.2 0.8,0.3 2.2,0.2 0.8,0.4 0.7,0.1 0.4,0.2 1.5,0.1 0.4,0.2 1.5,0.1 8,1.1 1.5,0.2 1.5,0.2 1.1,0.5 0.4,0 0.4,0.1 0.3,0.1 0.8,0.2 2.3,0.3 2.2,0.2 0.4,0.2 1.1,0.1 0.4,0.2 0.4,0.1 0.8,0.3 3.4,0.2 0.7,0.4 1.1,0.1 0.4,0.2 6.4,0.7 0.8,0.3 1.5,0.4 1.5,0.1 1.5,0.2 1.5,0.2 5,1.1 0.3,0.1 6.5,0.5 0.3,0 0.4,0.2 1.1,0.1 0.4,0.2 0.4,0 0.4,0.2 1.9,0.2 0.7,0.2 4.2,0.5 0.4,0.1 1.1,0.1 0.7,0.2 0.4,0.2 1.5,0.1 1.9,0 0.4,0.3 0.8,0.1 0.7,0 0.4,0.3 1.5,0.1 1.9,0.2 0.4,0 0.7,0.3 0.4,0 0.8,0.2 2.2,0.2 0.4,0 0.8,0.3 3.4,0.8 0.3,0 0.4,0.2 0.8,0.2 0.3,0.2 3.1,0.3 0.7,0.1 1.5,0.4 1.2,0 0.7,0.5 3.8,0.8 0.4,0.1 0.4,0.2 1.5,0.2 1.1,0.1 0.4,0.3 2.3,0.2 0.3,0.2 1.5,0.1 1.2,0.2 0.7,0.1 0.4,0 1.1,0.5 1.2,0.1 0.4,0.3 1.5,0.4 0.3,0 0.4,0.2 0.4,0 0.8,0.4 0.7,0.2 1.9,0.2 1.9,0.1 0.4,0.2 1.5,0.1 0.7,0.2 3.1,0.4 0.7,0.3 1.1,0.1 0.8,0.4 1.1,0.3 0.8,0.4 3,0.1 0.4,0.2 1.5,0 0.8,0.2 1.5,0.1 1.5,0.2 1.5,0.3 0.7,0.1 0.8,0 0.4,0.3 0.4,0 0.3,0.2 0.8,0.2 0.7,0.2 4.2,0.4 1.1,0.3 1.9,0.2 1.2,0.3 1.5,0.1 0.7,0.1 0.4,0.2 1.9,0.1 0.7,0.3 0.8,0.4 0,0"
       style="fill:none;stroke:#0000ff;stroke-width:1;stroke-linecap:square;stroke-linejoin:round;stroke-miterlimit:10;stroke-opacity:1;stroke-dasharray:none"
       id="path24"
       inkscape:connector-curvature="0"
       clip-path="none" /><path
       d="m 73.5,296.1 3.4,0.8 1.89,0 0.76,0.1 0.75,0.2 1.51,0 0.76,0.4 1.51,0 0.38,0.2 1.13,0.1 0.38,0.1 0.38,0 0.75,0.5 1.14,0.2 0.75,0 4.91,0.7 0.38,0.3 0.38,0.1 0.76,0.5 0.37,0.1 0.76,0 0.38,0.3 0.75,0.1 1.14,0 2.68,0.6 0.3,0.3 0.8,0 0.4,0.2 0.7,0.1 2.7,0.2 0.4,0.2 0.3,0 0.4,0.1 1.1,0.1 1.2,0.2 1.9,0.3 0.7,0.4 1.9,0.4 1.5,0.6 0.4,0 0.4,0.2 0.7,0.1 1.2,0.3 0.3,0.2 1.2,0.1 1.1,0.2 1.1,-0.1 1.2,0.1 0.7,0.2 0.8,0.1 2.6,0.3 0.8,0.1 0.7,0 0.8,0.2 1.1,0.5 1.2,0.3 0.3,-0.1 0.8,0.4 0.8,0.4 0.3,0.1 0.8,0.1 0.7,0 0.8,0.1 1.5,0.1 0.8,0.1 1.9,0.2 0.3,0.3 0.8,0 0.7,0.1 1.9,0 0.8,0.3 0.4,0 0.3,0.2 4.2,0.3 0.4,0.3 1.1,0.1 0.4,0 0.7,0.3 4.2,0.7 0.4,0.2 0.4,0 1.5,0.5 0.7,0.2 1.2,0 0.3,0.3 0.4,-0.1 4.2,1.2 1.1,0 2.6,0.5 1.2,0.2 0.4,0.2 1.1,0.2 1.1,0.4 0.4,0 0.4,0.2 1.1,0.1 0.4,0.2 2.3,0.4 0.7,0.1 0.8,0 0.3,0.2 1.2,0.1 1.1,0.5 0.4,0 0.4,0.3 1.1,0.1 1.1,0.5 1.5,-0.1 0.4,0.2 1.2,0 0.7,0.2 0.8,0.1 1.1,0 0.8,0.2 1.1,0 0.7,0.2 0.8,0.2 2.3,0.6 0.3,0 0.4,0.2 0.8,0.1 0.7,0.1 0.8,0 0.7,0.1 0.4,-0.1 0.8,0.3 0.4,0.2 1.8,0.3 0.8,0 0.8,0.3 2.2,0.6 0.8,0.2 1.1,0.2 0.4,0 0.4,0.1 3,0.4 0.7,0.1 1.2,0 1.9,0.6 0.3,-0.1 0.4,0.2 2.3,0.1 1.1,0.1 0.4,0 1.5,0.6 0.4,0.1 0.4,0.2 0.4,-0.1 1.1,0.4 0.4,0.2 1.9,0.2 0.3,-0.1 0.4,0.2 0.8,0 0.3,0.3 0.4,-0.1 0.8,0.2 1.1,0.1 0.8,0.2 0.3,0 0.4,0.2 1.5,0.2 0.8,0.1 0.4,-0.1 0.3,0.2 0.8,-0.1 0.8,0.1 1.8,0.6 3.4,0.3 1.2,0.1 0.4,0 4.5,0.6 1.1,0.2 0.4,0 0.4,0.2 0.4,0.1 0.3,0.2 1.2,0.1 1.5,0.2 1.5,0.5 0.7,0.2 0.8,0 1.1,0.2 0.8,0.2 1.1,0.2 0.4,0.2 5.3,0.6 0.4,0.1 0.7,0.3 1.2,0.5 0.7,0.4 1.1,0.2 0.4,-0.1 0.8,0.4 0.7,0.2 0.8,0 1.1,0 0.4,0.1 0.4,0 1.1,0.3 1.1,0 1.6,0 0.3,0.2 3.4,0.3 0.8,0.3 0.7,0.1 0.8,0 0.8,0.1 0.7,0.4 0.8,0 0.7,0.3 4.6,1.1 1.5,0 0.3,0.1 1.6,0 0.7,0.4 1.1,0 0.8,-0.1 0.4,0.1 0.7,0.1 1.2,0.1 0.7,0.4 0.8,0.1 3.4,0.7 0.7,0.2 0.4,0.1 0.4,0.1 0.7,0.1 0.4,0.3 0.8,0 0.4,0.1 0.3,0.2 0.8,0.2 0.7,0.2 1.2,0.1 1.5,0.4 1.5,0.3 1.1,0.1 0.8,0 0.4,0.2 0.3,0 0.8,0.3 3.8,0.8 0.7,0.3 0.8,0 0.4,0.1 0.7,-0.1 4.2,0.8 0.7,0 0.4,0 0.4,0.2 1.1,0 0.8,0.1 0.7,0.3 2.3,0.4 0.4,0.3 0.4,0 0.7,0.1 0.4,0 0.4,0.2 0.7,0.1 1.2,0.2 0.7,0.3 0.4,0.1 0.7,0 3.5,0.5 1.8,0.4 1.2,0.2 0.7,0.2 0.8,0.2 0.4,0 1.1,0.4 0.8,0.3 1.1,0.4 1.5,0.1 1.1,0.5 0.8,-0.1 2.3,0.8 0.3,0 0.4,0.2 0.8,0 1.9,0.2 1.1,0 0.4,0.2 1.5,0.4 1.9,0.4 0.3,0 0.4,0.3 3,0.8 1.2,0.3 0.4,0.1 0.7,0.4 1.5,0.1 1.2,0.5 1.5,0.2 0.7,0 0.4,0.1 0.4,0.2 0.4,0 1.1,0.2 0.7,0.1 0.8,0.2 1.9,0.1 0.4,0.2 1.5,0.1 0.4,0 0.3,0.2 1.2,0.1 2.2,0.6 0.8,0.2 1.1,0 2.7,0.2 0.3,0.2 0.4,0 2.7,0.6 2.6,0.4 0.4,0.2 0.7,0.1 0.4,0.1 1.5,0.1 1.5,0.2 0.4,0.3 0.4,0.1 0.8,0.3 0.7,0.1 2.3,0.3 0.4,0.3 0.7,0 0.4,0 0.4,0.2 1.1,0.1 1.5,0.2 1.1,0.2 0.8,0.1 1.1,0.1 0.8,0.1 4.9,1.1 0.4,0 0.4,0.2 0.7,-0.1 1.1,0.1 0.8,0.2 3,0.3 0.8,0 0.7,0.3 0.4,0.1 0.8,0.1 0.7,0.1 2.3,0.3 0.4,0.2 3.4,0.3 1.1,0.3 0.4,0.1 0.7,0.1 0.8,0.1 0.7,0 1.6,0 0.3,0.1 1.2,0.1 2.6,0.3 0.8,0 0.7,0.2 1.5,0.3 0.8,0.1 1.5,0.1 1.1,0.1 0.8,0.5 0.7,-0.1 0.8,0.3 1.1,0 1.5,0.3 0.4,0.1 0.4,0 0.8,0.3 0.3,0 0.4,0.2 0.8,0 1.1,0.4 1.5,0 0.4,0 0.4,0.3 0.7,0.2 1.2,0.1 0.7,0 0.8,0 1.1,0 1.1,0.3 0.4,0.1 1.9,0.6 0.8,0 1.5,0.3 1.5,0.1 0.4,0.2 1.9,0 0.3,0.2 1.2,0.1 1.1,0.2 0.8,0.5 0.3,0 0.8,0.3 1.5,-0.1 2.3,0.6 2.2,0.5 4.2,0.5 0.7,0.4 0.4,0 0.8,0.3 0.7,0.1 1.2,0.1 0.3,0 0.4,0.3 2.3,0.2 1.1,0.4 0.4,0.1 0.4,0.2 1.5,0.3 1.5,0.5 3.8,0.4 0.4,0.1 0.3,-0.1 0.4,0.2 0.8,0 4.5,0.5 0.4,0.2 1.9,0.4 0.3,0.2 1.2,0.2 1.1,0.6 2.7,0.7 0.3,0.3 0.4,0.1 0.8,0 0.3,0.2 0.8,0 0,0"
       style="fill:none;stroke:#008000;stroke-width:1;stroke-linecap:square;stroke-linejoin:round;stroke-miterlimit:10;stroke-opacity:1;stroke-dasharray:none"
       id="path34"
       inkscape:connector-curvature="0"
       clip-path="none" /><path
       d="m 73.5,296.1 27.2,0 0.4,-0.3 0.4,0.3 0.7,0 12.1,0 1.1,0 5.3,0 1.2,0 11.3,0 11.7,0 0.4,-0.3 0.4,0.3 20,0 1.5,0 11.3,0 1.9,0 8.3,0 0.4,0 0.4,-0.3 0.4,0.3 42.3,0 1.1,0 0.4,-0.2 0.4,0.2 43.4,0 0.4,-0.3 0.4,0.3 43.4,0 0.4,-0.2 0.4,0.2 43.4,0 0.4,-0.3 0.4,0.3 43.4,0 0.4,-0.2 0.4,0.2 13.6,0 0.7,0 29.1,0 0.4,-0.3 0.4,0.3 7.9,0 6.8,0 4.2,0 3,0 1.5,0 8.3,0 4.9,0 4.2,0 2.6,0 0.4,-0.2 0.4,0.2 0.4,-0.1 0.7,0.1 26.1,0 0,0"
       style="fill:none;stroke:#00bfbf;stroke-width:1;stroke-linecap:square;stroke-linejoin:round;stroke-miterlimit:10;stroke-opacity:1;stroke-dasharray:none"
       id="path54"
       inkscape:connector-curvature="0"
       clip-path="none" /><path
       d="m 73.5,296.1 453,-0.1 0,0"
       style="fill:none;stroke:#ff0000;stroke-width:1;stroke-linecap:square;stroke-linejoin:round;stroke-miterlimit:10;stroke-opacity:1;stroke-dasharray:none"
       id="path44"
       inkscape:connector-curvature="0"
       clip-path="none" /><path
       d="m 73.12,44.1 0,352.8"
       style="fill:none;stroke:#000000;stroke-width:0.5;stroke-linecap:butt;stroke-linejoin:round;stroke-miterlimit:10;stroke-opacity:1;stroke-dasharray:1, 3;stroke-dashoffset:0"
       id="path74"
       inkscape:connector-curvature="0"
       clip-path="none" /><path
       d="m 73.12,44.1 0,4"
       style="fill:#000000;fill-opacity:1;fill-rule:nonzero;stroke:#000000;stroke-width:0.5;stroke-linecap:butt;stroke-linejoin:round;stroke-miterlimit:10;stroke-opacity:1;stroke-dasharray:none"
       id="path76"
       clip-path="none"
       inkscape:connector-curvature="0" /><path
       d="m 73.12,396.9 0,-4"
       style="fill:#000000;fill-opacity:1;fill-rule:nonzero;stroke:#000000;stroke-width:0.5;stroke-linecap:butt;stroke-linejoin:round;stroke-miterlimit:10;stroke-opacity:1;stroke-dasharray:none"
       id="path78"
       clip-path="none"
       inkscape:connector-curvature="0" /><text
       transform="scale(1,-1)"
       id="text80"
       clip-path="none"
       x="76.151253"
       y="-22.602127"
       style="font-size:16px;text-align:center;text-anchor:middle"><tspan
         style="font-size:16px;font-variant:normal;font-weight:normal;text-align:center;writing-mode:lr-tb;text-anchor:middle;fill:#000000;fill-opacity:1;fill-rule:nonzero;stroke:none;font-family:DejaVu Sans;-inkscape-font-specification:DejaVuSans"
         x="73.127815"
         y="-22.602127"
         id="tspan82">0</tspan></text>
<path
       d="m 148.7,44.1 0,352.8"
       style="fill:none;stroke:#000000;stroke-width:0.5;stroke-linecap:butt;stroke-linejoin:round;stroke-miterlimit:10;stroke-opacity:1;stroke-dasharray:1, 3;stroke-dashoffset:0"
       id="path92"
       inkscape:connector-curvature="0"
       clip-path="none" /><path
       d="m 148.7,44.1 0,4"
       style="fill:#000000;fill-opacity:1;fill-rule:nonzero;stroke:#000000;stroke-width:0.5;stroke-linecap:butt;stroke-linejoin:round;stroke-miterlimit:10;stroke-opacity:1;stroke-dasharray:none"
       id="path94"
       clip-path="none"
       inkscape:connector-curvature="0" /><path
       d="m 148.7,396.9 0,-4"
       style="fill:#000000;fill-opacity:1;fill-rule:nonzero;stroke:#000000;stroke-width:0.5;stroke-linecap:butt;stroke-linejoin:round;stroke-miterlimit:10;stroke-opacity:1;stroke-dasharray:none"
       id="path96"
       clip-path="none"
       inkscape:connector-curvature="0" /><text
       transform="scale(1,-1)"
       id="text98"
       clip-path="none"
       x="148.95335"
       y="-22.602127"
       style="font-size:16px;text-align:center;text-anchor:middle"><tspan
         style="font-size:16px;font-variant:normal;font-weight:normal;text-align:center;writing-mode:lr-tb;text-anchor:middle;fill:#000000;fill-opacity:1;fill-rule:nonzero;stroke:none;font-family:DejaVu Sans;-inkscape-font-specification:DejaVuSans"
         x="148.95335"
         y="-22.602127"
         sodipodi:role="line"
         id="tspan100">0.2</tspan></text>
<path
       d="m 224.3,44.1 0,352.8"
       style="fill:none;stroke:#000000;stroke-width:0.5;stroke-linecap:butt;stroke-linejoin:round;stroke-miterlimit:10;stroke-opacity:1;stroke-dasharray:1, 3;stroke-dashoffset:0"
       id="path110"
       inkscape:connector-curvature="0"
       clip-path="none" /><path
       d="m 224.3,44.1 0,4"
       style="fill:#000000;fill-opacity:1;fill-rule:nonzero;stroke:#000000;stroke-width:0.5;stroke-linecap:butt;stroke-linejoin:round;stroke-miterlimit:10;stroke-opacity:1;stroke-dasharray:none"
       id="path112"
       clip-path="none"
       inkscape:connector-curvature="0" /><path
       d="m 224.3,396.9 0,-4"
       style="fill:#000000;fill-opacity:1;fill-rule:nonzero;stroke:#000000;stroke-width:0.5;stroke-linecap:butt;stroke-linejoin:round;stroke-miterlimit:10;stroke-opacity:1;stroke-dasharray:none"
       id="path114"
       clip-path="none"
       inkscape:connector-curvature="0" /><text
       transform="scale(1,-1)"
       id="text116"
       clip-path="none"
       x="224.15779"
       y="-22.602127"
       style="font-size:16px;text-align:center;text-anchor:middle"><tspan
         style="font-size:16px;font-variant:normal;font-weight:normal;text-align:center;writing-mode:lr-tb;text-anchor:middle;fill:#000000;fill-opacity:1;fill-rule:nonzero;stroke:none;font-family:DejaVu Sans;-inkscape-font-specification:DejaVuSans"
         x="224.15779"
         y="-22.602127"
         sodipodi:role="line"
         id="tspan118">0.4</tspan></text>
<path
       d="m 299.8,44.1 0,352.8"
       style="fill:none;stroke:#000000;stroke-width:0.5;stroke-linecap:butt;stroke-linejoin:round;stroke-miterlimit:10;stroke-opacity:1;stroke-dasharray:1, 3;stroke-dashoffset:0"
       id="path128"
       inkscape:connector-curvature="0"
       clip-path="none" /><path
       d="m 299.8,44.1 0,4"
       style="fill:#000000;fill-opacity:1;fill-rule:nonzero;stroke:#000000;stroke-width:0.5;stroke-linecap:butt;stroke-linejoin:round;stroke-miterlimit:10;stroke-opacity:1;stroke-dasharray:none"
       id="path130"
       clip-path="none"
       inkscape:connector-curvature="0" /><path
       d="m 299.8,396.9 0,-4"
       style="fill:#000000;fill-opacity:1;fill-rule:nonzero;stroke:#000000;stroke-width:0.5;stroke-linecap:butt;stroke-linejoin:round;stroke-miterlimit:10;stroke-opacity:1;stroke-dasharray:none"
       id="path132"
       clip-path="none"
       inkscape:connector-curvature="0" /><text
       transform="scale(1,-1)"
       id="text134"
       clip-path="none"
       x="299.76846"
       y="-22.602127"
       style="font-size:16px;text-align:center;text-anchor:middle"><tspan
         style="font-size:16px;font-variant:normal;font-weight:normal;text-align:center;writing-mode:lr-tb;text-anchor:middle;fill:#000000;fill-opacity:1;fill-rule:nonzero;stroke:none;font-family:DejaVu Sans;-inkscape-font-specification:DejaVuSans"
         x="299.76846"
         y="-22.602127"
         sodipodi:role="line"
         id="tspan136">0.6</tspan></text>
<path
       d="m 375.4,44.1 0,352.8"
       style="fill:none;stroke:#000000;stroke-width:0.5;stroke-linecap:butt;stroke-linejoin:round;stroke-miterlimit:10;stroke-opacity:1;stroke-dasharray:1, 3;stroke-dashoffset:0"
       id="path146"
       inkscape:connector-curvature="0"
       clip-path="none" /><path
       d="m 375.4,44.1 0,4"
       style="fill:#000000;fill-opacity:1;fill-rule:nonzero;stroke:#000000;stroke-width:0.5;stroke-linecap:butt;stroke-linejoin:round;stroke-miterlimit:10;stroke-opacity:1;stroke-dasharray:none"
       id="path148"
       clip-path="none"
       inkscape:connector-curvature="0" /><path
       d="m 375.4,396.9 0,-4"
       style="fill:#000000;fill-opacity:1;fill-rule:nonzero;stroke:#000000;stroke-width:0.5;stroke-linecap:butt;stroke-linejoin:round;stroke-miterlimit:10;stroke-opacity:1;stroke-dasharray:none"
       id="path150"
       clip-path="none"
       inkscape:connector-curvature="0" /><text
       transform="scale(1,-1)"
       id="text152"
       clip-path="none"
       x="375.36743"
       y="-22.602127"
       style="font-size:16px;text-align:center;text-anchor:middle"><tspan
         style="font-size:16px;font-variant:normal;font-weight:normal;text-align:center;writing-mode:lr-tb;text-anchor:middle;fill:#000000;fill-opacity:1;fill-rule:nonzero;stroke:none;font-family:DejaVu Sans;-inkscape-font-specification:DejaVuSans"
         x="375.36743"
         y="-22.602127"
         sodipodi:role="line"
         id="tspan154">0.8</tspan></text>
<path
       d="m 450.9,44.1 0,352.8"
       style="fill:none;stroke:#000000;stroke-width:0.5;stroke-linecap:butt;stroke-linejoin:round;stroke-miterlimit:10;stroke-opacity:1;stroke-dasharray:1, 3;stroke-dashoffset:0"
       id="path164"
       inkscape:connector-curvature="0"
       clip-path="none" /><path
       d="m 450.9,44.1 0,4"
       style="fill:#000000;fill-opacity:1;fill-rule:nonzero;stroke:#000000;stroke-width:0.5;stroke-linecap:butt;stroke-linejoin:round;stroke-miterlimit:10;stroke-opacity:1;stroke-dasharray:none"
       id="path166"
       clip-path="none"
       inkscape:connector-curvature="0" /><path
       d="m 450.9,396.9 0,-4"
       style="fill:#000000;fill-opacity:1;fill-rule:nonzero;stroke:#000000;stroke-width:0.5;stroke-linecap:butt;stroke-linejoin:round;stroke-miterlimit:10;stroke-opacity:1;stroke-dasharray:none"
       id="path168"
       clip-path="none"
       inkscape:connector-curvature="0" /><text
       transform="scale(1,-1)"
       id="text170"
       clip-path="none"
       x="450.55624"
       y="-22.602127"
       style="font-size:16px;text-align:center;text-anchor:middle"><tspan
         style="font-size:16px;font-variant:normal;font-weight:normal;text-align:center;writing-mode:lr-tb;text-anchor:middle;fill:#000000;fill-opacity:1;fill-rule:nonzero;stroke:none;font-family:DejaVu Sans;-inkscape-font-specification:DejaVuSans"
         x="450.55624"
         y="-22.602127"
         sodipodi:role="line"
         id="tspan172">1.0</tspan></text>
<path
       d="m 526.5,44.1 0,352.8"
       style="fill:none;stroke:#000000;stroke-width:0.5;stroke-linecap:butt;stroke-linejoin:round;stroke-miterlimit:10;stroke-opacity:1;stroke-dasharray:1, 3;stroke-dashoffset:0"
       id="path182"
       inkscape:connector-curvature="0"
       clip-path="none" /><path
       d="m 526.5,44.1 0,4"
       style="fill:#000000;fill-opacity:1;fill-rule:nonzero;stroke:#000000;stroke-width:0.5;stroke-linecap:butt;stroke-linejoin:round;stroke-miterlimit:10;stroke-opacity:1;stroke-dasharray:none"
       id="path184"
       clip-path="none"
       inkscape:connector-curvature="0" /><path
       d="m 526.5,396.9 0,-4"
       style="fill:#000000;fill-opacity:1;fill-rule:nonzero;stroke:#000000;stroke-width:0.5;stroke-linecap:butt;stroke-linejoin:round;stroke-miterlimit:10;stroke-opacity:1;stroke-dasharray:none"
       id="path186"
       clip-path="none"
       inkscape:connector-curvature="0" /><text
       transform="scale(1,-1)"
       id="text192"
       clip-path="none"
       x="300.28656"
       y="-1.7060726"
       style="font-size:16px;text-align:center;text-anchor:middle"><tspan
         style="font-size:16px;font-variant:normal;font-weight:normal;text-align:center;writing-mode:lr-tb;text-anchor:middle;fill:#000000;fill-opacity:1;fill-rule:nonzero;stroke:none;font-family:DejaVu Sans;-inkscape-font-specification:DejaVuSans"
         x="300.28656"
         y="-1.7060726"
         sodipodi:role="line"
         id="tspan194">time [million years]</tspan></text>
<path
       d="m 73.12,44.1 453.38,0"
       style="fill:none;stroke:#000000;stroke-width:0.5;stroke-linecap:butt;stroke-linejoin:round;stroke-miterlimit:10;stroke-opacity:1;stroke-dasharray:1, 3;stroke-dashoffset:0"
       id="path204"
       inkscape:connector-curvature="0"
       clip-path="none" /><path
       d="m 73.12,44.1 4,0"
       style="fill:#000000;fill-opacity:1;fill-rule:nonzero;stroke:#000000;stroke-width:0.5;stroke-linecap:butt;stroke-linejoin:round;stroke-miterlimit:10;stroke-opacity:1;stroke-dasharray:none"
       id="path206"
       clip-path="none"
       inkscape:connector-curvature="0" /><path
       d="m 526.5,44.1 -4,0"
       style="fill:#000000;fill-opacity:1;fill-rule:nonzero;stroke:#000000;stroke-width:0.5;stroke-linecap:butt;stroke-linejoin:round;stroke-miterlimit:10;stroke-opacity:1;stroke-dasharray:none"
       id="path208"
       clip-path="none"
       inkscape:connector-curvature="0" /><text
       id="text212"
       transform="scale(1,-1)"
       x="72.082581"
       y="-38.381248"
       clip-path="none"
       style="font-size:16px;text-align:end;text-anchor:end"><tspan
         id="tspan214"
         y="-38.381248"
         x="66.422424"
         style="font-size:16px;font-variant:normal;font-weight:normal;text-align:end;writing-mode:lr-tb;text-anchor:end;fill:#000000;fill-opacity:1;fill-rule:nonzero;stroke:none;font-family:DejaVu Sans;-inkscape-font-specification:DejaVuSans">-5</tspan></text>
<path
       d="m 73.12,94.5 453.38,0"
       style="fill:none;stroke:#000000;stroke-width:0.5;stroke-linecap:butt;stroke-linejoin:round;stroke-miterlimit:10;stroke-opacity:1;stroke-dasharray:1, 3;stroke-dashoffset:0"
       id="path236"
       inkscape:connector-curvature="0"
       clip-path="none" /><path
       d="m 73.12,94.5 4,0"
       style="fill:#000000;fill-opacity:1;fill-rule:nonzero;stroke:#000000;stroke-width:0.5;stroke-linecap:butt;stroke-linejoin:round;stroke-miterlimit:10;stroke-opacity:1;stroke-dasharray:none"
       id="path238"
       clip-path="none"
       inkscape:connector-curvature="0" /><path
       d="m 526.5,94.5 -4,0"
       style="fill:#000000;fill-opacity:1;fill-rule:nonzero;stroke:#000000;stroke-width:0.5;stroke-linecap:butt;stroke-linejoin:round;stroke-miterlimit:10;stroke-opacity:1;stroke-dasharray:none"
       id="path240"
       clip-path="none"
       inkscape:connector-curvature="0" /><text
       id="text244"
       transform="scale(1,-1)"
       x="72.297424"
       y="-90.120003"
       clip-path="none"
       style="font-size:16px;text-align:end;text-anchor:end"><tspan
         id="tspan246"
         y="-90.120003"
         x="65.922424"
         style="font-size:16px;font-variant:normal;font-weight:normal;text-align:end;writing-mode:lr-tb;text-anchor:end;fill:#000000;fill-opacity:1;fill-rule:nonzero;stroke:none;font-family:DejaVu Sans;-inkscape-font-specification:DejaVuSans">-4</tspan></text>
<path
       d="m 73.12,144.9 453.38,0"
       style="fill:none;stroke:#000000;stroke-width:0.5;stroke-linecap:butt;stroke-linejoin:round;stroke-miterlimit:10;stroke-opacity:1;stroke-dasharray:1, 3;stroke-dashoffset:0"
       id="path268"
       inkscape:connector-curvature="0"
       clip-path="none" /><path
       d="m 73.12,144.9 4,0"
       style="fill:#000000;fill-opacity:1;fill-rule:nonzero;stroke:#000000;stroke-width:0.5;stroke-linecap:butt;stroke-linejoin:round;stroke-miterlimit:10;stroke-opacity:1;stroke-dasharray:none"
       id="path270"
       clip-path="none"
       inkscape:connector-curvature="0" /><path
       d="m 526.5,144.9 -4,0"
       style="fill:#000000;fill-opacity:1;fill-rule:nonzero;stroke:#000000;stroke-width:0.5;stroke-linecap:butt;stroke-linejoin:round;stroke-miterlimit:10;stroke-opacity:1;stroke-dasharray:none"
       id="path272"
       clip-path="none"
       inkscape:connector-curvature="0" /><text
       id="text276"
       transform="scale(1,-1)"
       x="72.065002"
       y="-140.60001"
       clip-path="none"
       style="font-size:16px;text-align:end;text-anchor:end"><tspan
         id="tspan278"
         y="-140.60001"
         x="66.305237"
         style="font-size:16px;font-variant:normal;font-weight:normal;text-align:end;writing-mode:lr-tb;text-anchor:end;fill:#000000;fill-opacity:1;fill-rule:nonzero;stroke:none;font-family:DejaVu Sans;-inkscape-font-specification:DejaVuSans">-3</tspan></text>
<path
       d="m 73.12,195.3 453.38,0"
       style="fill:none;stroke:#000000;stroke-width:0.5;stroke-linecap:butt;stroke-linejoin:round;stroke-miterlimit:10;stroke-opacity:1;stroke-dasharray:1, 3;stroke-dashoffset:0"
       id="path300"
       inkscape:connector-curvature="0"
       clip-path="none" /><path
       d="m 73.12,195.3 4,0"
       style="fill:#000000;fill-opacity:1;fill-rule:nonzero;stroke:#000000;stroke-width:0.5;stroke-linecap:butt;stroke-linejoin:round;stroke-miterlimit:10;stroke-opacity:1;stroke-dasharray:none"
       id="path302"
       clip-path="none"
       inkscape:connector-curvature="0" /><path
       d="m 526.5,195.3 -4,0"
       style="fill:#000000;fill-opacity:1;fill-rule:nonzero;stroke:#000000;stroke-width:0.5;stroke-linecap:butt;stroke-linejoin:round;stroke-miterlimit:10;stroke-opacity:1;stroke-dasharray:none"
       id="path304"
       clip-path="none"
       inkscape:connector-curvature="0" /><text
       id="text308"
       transform="scale(1,-1)"
       x="72.180237"
       y="-190.8"
       clip-path="none"
       style="font-size:16px;text-align:end;text-anchor:end"><tspan
         id="tspan310"
         y="-190.8"
         x="66.625549"
         style="font-size:16px;font-variant:normal;font-weight:normal;text-align:end;writing-mode:lr-tb;text-anchor:end;fill:#000000;fill-opacity:1;fill-rule:nonzero;stroke:none;font-family:DejaVu Sans;-inkscape-font-specification:DejaVuSans">-2</tspan></text>
<path
       d="m 73.12,245.7 453.38,0"
       style="fill:none;stroke:#000000;stroke-width:0.5;stroke-linecap:butt;stroke-linejoin:round;stroke-miterlimit:10;stroke-opacity:1;stroke-dasharray:1, 3;stroke-dashoffset:0"
       id="path332"
       inkscape:connector-curvature="0"
       clip-path="none" /><path
       d="m 73.12,245.7 4,0"
       style="fill:#000000;fill-opacity:1;fill-rule:nonzero;stroke:#000000;stroke-width:0.5;stroke-linecap:butt;stroke-linejoin:round;stroke-miterlimit:10;stroke-opacity:1;stroke-dasharray:none"
       id="path334"
       clip-path="none"
       inkscape:connector-curvature="0" /><path
       d="m 526.5,245.7 -4,0"
       style="fill:#000000;fill-opacity:1;fill-rule:nonzero;stroke:#000000;stroke-width:0.5;stroke-linecap:butt;stroke-linejoin:round;stroke-miterlimit:10;stroke-opacity:1;stroke-dasharray:none"
       id="path336"
       clip-path="none"
       inkscape:connector-curvature="0" /><text
       id="text340"
       transform="scale(1,-1)"
       x="71.709534"
       y="-241.3"
       clip-path="none"
       style="font-size:16px;text-align:end;text-anchor:end"><tspan
         id="tspan342"
         y="-241.3"
         x="66.500549"
         style="font-size:16px;font-variant:normal;font-weight:normal;text-align:end;writing-mode:lr-tb;text-anchor:end;fill:#000000;fill-opacity:1;fill-rule:nonzero;stroke:none;font-family:DejaVu Sans;-inkscape-font-specification:DejaVuSans">-1</tspan></text>
<path
       d="m 73.12,296.1 453.38,0"
       style="fill:none;stroke:#000000;stroke-width:0.5;stroke-linecap:butt;stroke-linejoin:round;stroke-miterlimit:10;stroke-opacity:1;stroke-dasharray:1, 3;stroke-dashoffset:0"
       id="path364"
       inkscape:connector-curvature="0"
       clip-path="none" /><path
       d="m 73.12,296.1 4,0"
       style="fill:#000000;fill-opacity:1;fill-rule:nonzero;stroke:#000000;stroke-width:0.5;stroke-linecap:butt;stroke-linejoin:round;stroke-miterlimit:10;stroke-opacity:1;stroke-dasharray:none"
       id="path366"
       clip-path="none"
       inkscape:connector-curvature="0" /><path
       d="m 526.5,296.1 -4,0"
       style="fill:#000000;fill-opacity:1;fill-rule:nonzero;stroke:#000000;stroke-width:0.5;stroke-linecap:butt;stroke-linejoin:round;stroke-miterlimit:10;stroke-opacity:1;stroke-dasharray:none"
       id="path368"
       clip-path="none"
       inkscape:connector-curvature="0" /><text
       transform="scale(1,-1)"
       id="text370"
       clip-path="none"
       x="72.133362"
       y="-291.70001"
       style="font-size:16px;text-align:end;text-anchor:end"><tspan
         style="font-size:16px;font-variant:normal;font-weight:normal;text-align:end;writing-mode:lr-tb;text-anchor:end;fill:#000000;fill-opacity:1;fill-rule:nonzero;stroke:none;font-family:DejaVu Sans;-inkscape-font-specification:DejaVuSans"
         x="66.086487"
         y="-291.70001"
         id="tspan372">0</tspan></text>
<path
       d="m 73.12,346.5 453.38,0"
       style="fill:none;stroke:#000000;stroke-width:0.5;stroke-linecap:butt;stroke-linejoin:round;stroke-miterlimit:10;stroke-opacity:1;stroke-dasharray:1, 3;stroke-dashoffset:0"
       id="path382"
       inkscape:connector-curvature="0"
       clip-path="none" /><path
       d="m 73.12,346.5 4,0"
       style="fill:#000000;fill-opacity:1;fill-rule:nonzero;stroke:#000000;stroke-width:0.5;stroke-linecap:butt;stroke-linejoin:round;stroke-miterlimit:10;stroke-opacity:1;stroke-dasharray:none"
       id="path384"
       clip-path="none"
       inkscape:connector-curvature="0" /><path
       d="m 526.5,346.5 -4,0"
       style="fill:#000000;fill-opacity:1;fill-rule:nonzero;stroke:#000000;stroke-width:0.5;stroke-linecap:butt;stroke-linejoin:round;stroke-miterlimit:10;stroke-opacity:1;stroke-dasharray:none"
       id="path386"
       clip-path="none"
       inkscape:connector-curvature="0" /><text
       transform="scale(1,-1)"
       id="text388"
       clip-path="none"
       x="71.709534"
       y="-342.10001"
       style="font-size:16px;text-align:end;text-anchor:end"><tspan
         style="font-size:16px;font-variant:normal;font-weight:normal;text-align:end;writing-mode:lr-tb;text-anchor:end;fill:#000000;fill-opacity:1;fill-rule:nonzero;stroke:none;font-family:DejaVu Sans;-inkscape-font-specification:DejaVuSans"
         x="66.500549"
         y="-342.10001"
         id="tspan390">1</tspan></text>
<path
       d="m 73.12,396.9 453.38,0"
       style="fill:none;stroke:#000000;stroke-width:0.5;stroke-linecap:butt;stroke-linejoin:round;stroke-miterlimit:10;stroke-opacity:1;stroke-dasharray:1, 3;stroke-dashoffset:0"
       id="path400"
       inkscape:connector-curvature="0"
       clip-path="none" /><path
       d="m 73.12,396.9 4,0"
       style="fill:#000000;fill-opacity:1;fill-rule:nonzero;stroke:#000000;stroke-width:0.5;stroke-linecap:butt;stroke-linejoin:round;stroke-miterlimit:10;stroke-opacity:1;stroke-dasharray:none"
       id="path402"
       clip-path="none"
       inkscape:connector-curvature="0" /><path
       d="m 526.5,396.9 -4,0"
       style="fill:#000000;fill-opacity:1;fill-rule:nonzero;stroke:#000000;stroke-width:0.5;stroke-linecap:butt;stroke-linejoin:round;stroke-miterlimit:10;stroke-opacity:1;stroke-dasharray:none"
       id="path404"
       clip-path="none"
       inkscape:connector-curvature="0" /><text
       transform="scale(1,-1)"
       id="text406"
       clip-path="none"
       x="72.180237"
       y="-390.96249"
       style="font-size:16px;text-align:end;text-anchor:end"><tspan
         style="font-size:16px;font-variant:normal;font-weight:normal;text-align:end;writing-mode:lr-tb;text-anchor:end;fill:#000000;fill-opacity:1;fill-rule:nonzero;stroke:none;font-family:DejaVu Sans;-inkscape-font-specification:DejaVuSans"
         x="66.625549"
         y="-390.96249"
         id="tspan408">2</tspan></text>
<text
       transform="matrix(0,1,1,0,0,0)"
       id="text410"
       clip-path="none"
       x="174.97308"
       y="34.170677"
       style="font-size:16px"><tspan
         style="font-size:16px;font-variant:normal;font-weight:normal;writing-mode:lr-tb;fill:#000000;fill-opacity:1;fill-rule:nonzero;stroke:none;font-family:DejaVu Sans;-inkscape-font-specification:DejaVuSans"
         x="174.97308"
         y="34.170677"
         sodipodi:role="line"
         id="tspan412">dE/E [x10<tspan
   style="font-size:52.0004%;baseline-shift:super"
   id="tspan3601">-8</tspan>]</tspan></text>
<path
       d="m 73.12,396.9 453.38,0"
       style="fill:none;stroke:#000000;stroke-width:1;stroke-linecap:square;stroke-linejoin:round;stroke-miterlimit:10;stroke-opacity:1;stroke-dasharray:none"
       id="path432"
       clip-path="none"
       inkscape:connector-curvature="0" /><path
       d="m 526.5,44.1 0,352.8"
       style="fill:none;stroke:#000000;stroke-width:1;stroke-linecap:square;stroke-linejoin:round;stroke-miterlimit:10;stroke-opacity:1;stroke-dasharray:none"
       id="path434"
       clip-path="none"
       inkscape:connector-curvature="0" /><path
       d="m 73.12,44.1 453.38,0"
       style="fill:none;stroke:#000000;stroke-width:1;stroke-linecap:square;stroke-linejoin:round;stroke-miterlimit:10;stroke-opacity:1;stroke-dasharray:none"
       id="path436"
       clip-path="none"
       inkscape:connector-curvature="0" /><path
       d="m 73.12,44.1 0,352.8"
       style="fill:none;stroke:#000000;stroke-width:1;stroke-linecap:square;stroke-linejoin:round;stroke-miterlimit:10;stroke-opacity:1;stroke-dasharray:none"
       id="path438"
       clip-path="none"
       inkscape:connector-curvature="0" /><g
       id="g3581"
       transform="translate(-25.69,-214.4)"><path
         clip-path="none"
         id="path440"
         style="fill:#ffffff;fill-opacity:1;fill-rule:nonzero;stroke:#000000;stroke-width:1;stroke-linecap:square;stroke-linejoin:round;stroke-miterlimit:10;stroke-opacity:1;stroke-dasharray:none"
         d="m 415,284.6 104.3,0 0,105.1 -104.3,0 0,-105.1 z"
         inkscape:connector-curvature="0" /><path
         clip-path="none"
         id="path442"
         style="fill:none;stroke:#0000ff;stroke-width:1;stroke-linecap:square;stroke-linejoin:round;stroke-miterlimit:10;stroke-opacity:1;stroke-dasharray:none"
         d="m 425.1,378.3 20.1,0"
         inkscape:connector-curvature="0" /><text
         clip-path="none"
         id="text444"
         transform="matrix(1,0,0,-1,461.1,373.3)"><tspan
           id="tspan446"
           sodipodi:role="line"
           y="0"
           x="0"
           style="font-size:14.4px;font-variant:normal;font-weight:normal;writing-mode:lr-tb;fill:#000000;fill-opacity:1;fill-rule:nonzero;stroke:none;font-family:DejaVu Sans;-inkscape-font-specification:DejaVuSans">BS</tspan></text>
<path
         clip-path="none"
         id="path448"
         style="fill:none;stroke:#008000;stroke-width:1;stroke-linecap:square;stroke-linejoin:round;stroke-miterlimit:10;stroke-opacity:1;stroke-dasharray:none"
         d="m 425.1,357.6 20.1,0"
         inkscape:connector-curvature="0" /><text
         clip-path="none"
         id="text450"
         transform="matrix(1,0,0,-1,461.1,352.6)"><tspan
           id="tspan452"
           sodipodi:role="line"
           y="0"
           x="0"
           style="font-size:14.4px;font-variant:normal;font-weight:normal;writing-mode:lr-tb;fill:#000000;fill-opacity:1;fill-rule:nonzero;stroke:none;font-family:DejaVu Sans;-inkscape-font-specification:DejaVuSans">BS2</tspan></text>
<path
         clip-path="none"
         id="path454"
         style="fill:none;stroke:#ff0000;stroke-width:1;stroke-linecap:square;stroke-linejoin:round;stroke-miterlimit:10;stroke-opacity:1;stroke-dasharray:none"
         d="m 425.1,336.8 20.1,0"
         inkscape:connector-curvature="0" /><text
         clip-path="none"
         id="text456"
         transform="matrix(1,0,0,-1,461.1,331.8)"><tspan
           id="tspan458"
           sodipodi:role="line"
           y="0"
           x="0"
           style="font-size:14.4px;font-variant:normal;font-weight:normal;writing-mode:lr-tb;fill:#000000;fill-opacity:1;fill-rule:nonzero;stroke:none;font-family:DejaVu Sans;-inkscape-font-specification:DejaVuSans">RADAU</tspan></text>
<path
         clip-path="none"
         id="path460"
         style="fill:none;stroke:#00bfbf;stroke-width:1;stroke-linecap:square;stroke-linejoin:round;stroke-miterlimit:10;stroke-opacity:1;stroke-dasharray:none"
         d="m 425.1,316.1 20.1,0"
         inkscape:connector-curvature="0" /><text
         clip-path="none"
         id="text462"
         transform="matrix(1,0,0,-1,461.1,311.1)"><tspan
           id="tspan464"
           sodipodi:role="line"
           y="0"
           x="0"
           style="font-size:14.4px;font-variant:normal;font-weight:normal;writing-mode:lr-tb;fill:#000000;fill-opacity:1;fill-rule:nonzero;stroke:none;font-family:DejaVu Sans;-inkscape-font-specification:DejaVuSans">MVS</tspan></text>
<path
         clip-path="none"
         id="path466"
         style="fill:none;stroke:#bf00bf;stroke-width:1;stroke-linecap:square;stroke-linejoin:round;stroke-miterlimit:10;stroke-opacity:1;stroke-dasharray:none"
         d="m 425.1,295.4 20.1,0"
         inkscape:connector-curvature="0" /><text
         clip-path="none"
         id="text468"
         transform="matrix(1,0,0,-1,461.1,290.3)"><tspan
           id="tspan470"
           sodipodi:role="line"
           y="0"
           x="0"
           style="font-size:14.4px;font-variant:normal;font-weight:normal;writing-mode:lr-tb;fill:#000000;fill-opacity:1;fill-rule:nonzero;stroke:none;font-family:DejaVu Sans;-inkscape-font-specification:DejaVuSans">HYBRID</tspan></text>
</g></g></svg>