<?xml version="1.0" encoding="UTF-8" standalone="no"?>
<!-- Created with Inkscape (http://www.inkscape.org/) -->

<svg
   xmlns:dc="http://purl.org/dc/elements/1.1/"
   xmlns:cc="http://creativecommons.org/ns#"
   xmlns:rdf="http://www.w3.org/1999/02/22-rdf-syntax-ns#"
   xmlns:svg="http://www.w3.org/2000/svg"
   xmlns="http://www.w3.org/2000/svg"
   xmlns:xlink="http://www.w3.org/1999/xlink"
   xmlns:sodipodi="http://sodipodi.sourceforge.net/DTD/sodipodi-0.dtd"
   xmlns:inkscape="http://www.inkscape.org/namespaces/inkscape"
   width="1764.9264"
   height="562.14386"
   id="svg2"
   version="1.1"
   inkscape:version="0.48.2 r9819"
   sodipodi:docname="lindblad_torque.svg">
  <defs
     id="defs4">
    <marker
       inkscape:stockid="Arrow2Mend"
       orient="auto"
       refY="0"
       refX="0"
       id="Arrow2Mend"
       style="overflow:visible">
      <path
         id="path5225"
         style="font-size:12px;fill-rule:evenodd;stroke-width:0.625;stroke-linejoin:round"
         d="M 8.7185878,4.0337352 -2.2072895,0.01601326 8.7185884,-4.0017078 c -1.7454984,2.3720609 -1.7354408,5.6174519 -6e-7,8.035443 z"
         transform="scale(-0.6,-0.6)"
         inkscape:connector-curvature="0" />
    </marker>
    <clipPath
       id="clipPath3404"
       clipPathUnits="userSpaceOnUse">
      <path
         id="path3406"
         d="m 295.2,43.2 c 45.8271,0 89.7834,18.207298 122.18805,50.611948 C 449.7927,126.2166 468,170.1729 468,216 468,261.8271 449.7927,305.7834 417.38805,338.18805 384.9834,370.5927 341.0271,388.8 295.2,388.8 249.3729,388.8 205.4166,370.5927 173.01195,338.18805 140.6073,305.7834 122.4,261.8271 122.4,216 122.4,170.1729 140.6073,126.2166 173.01195,93.811948 205.4166,61.407298 249.3729,43.2 295.2,43.2 z"
         inkscape:connector-curvature="0" />
    </clipPath>
    <clipPath
       id="clipPath3394"
       clipPathUnits="userSpaceOnUse">
      <path
         id="path3396"
         d="m 295.2,43.2 c 45.8271,0 89.7834,18.207298 122.18805,50.611948 C 449.7927,126.2166 468,170.1729 468,216 468,261.8271 449.7927,305.7834 417.38805,338.18805 384.9834,370.5927 341.0271,388.8 295.2,388.8 249.3729,388.8 205.4166,370.5927 173.01195,338.18805 140.6073,305.7834 122.4,261.8271 122.4,216 122.4,170.1729 140.6073,126.2166 173.01195,93.811948 205.4166,61.407298 249.3729,43.2 295.2,43.2 z"
         inkscape:connector-curvature="0" />
    </clipPath>
    <linearGradient
       id="linearGradient4033">
      <stop
         id="stop4035"
         offset="0"
         style="stop-color:#ffff00;stop-opacity:1;" />
      <stop
         id="stop4037"
         offset="1"
         style="stop-color:#ff8800;stop-opacity:1;" />
    </linearGradient>
    <radialGradient
       inkscape:collect="always"
       xlink:href="#linearGradient4033"
       id="radialGradient6593"
       gradientUnits="userSpaceOnUse"
       gradientTransform="matrix(1.3296497,0,0,1.3296497,-93.074866,-123.75106)"
       cx="282.34476"
       cy="375.4017"
       fx="282.34476"
       fy="375.4017"
       r="35.820995" />
  </defs>
  <sodipodi:namedview
     id="base"
     pagecolor="#ffffff"
     bordercolor="#666666"
     borderopacity="1.0"
     inkscape:pageopacity="0.0"
     inkscape:pageshadow="2"
     inkscape:zoom="0.5780693"
     inkscape:cx="704.11697"
     inkscape:cy="178.89654"
     inkscape:document-units="px"
     inkscape:current-layer="layer1"
     showgrid="false"
     inkscape:snap-object-midpoints="true"
     inkscape:snap-smooth-nodes="true"
     inkscape:snap-center="true"
     inkscape:object-nodes="true"
     inkscape:object-paths="true"
     fit-margin-top="0"
     fit-margin-left="0"
     fit-margin-right="0"
     fit-margin-bottom="0"
     inkscape:snap-global="true" />
  <metadata
     id="metadata7">
    <rdf:RDF>
      <cc:Work
         rdf:about="">
        <dc:format>image/svg+xml</dc:format>
        <dc:type
           rdf:resource="http://purl.org/dc/dcmitype/StillImage" />
        <dc:title />
      </cc:Work>
    </rdf:RDF>
  </metadata>
  <g
     inkscape:label="Calque 1"
     inkscape:groupmode="layer"
     id="layer1"
     transform="translate(197.7577,-309.21472)">
    <text
       xml:space="preserve"
       style="font-size:28px;font-style:normal;font-variant:normal;font-weight:normal;font-stretch:normal;text-align:center;line-height:125%;letter-spacing:0px;word-spacing:0px;writing-mode:lr-tb;text-anchor:middle;fill:#000000;fill-opacity:1;stroke:none;font-family:DejaVu Sans;-inkscape-font-specification:DejaVu Sans"
       x="684.53461"
       y="331.04871"
       id="text5105"
       sodipodi:linespacing="125%"><tspan
         sodipodi:role="line"
         x="684.53461"
         y="331.04871"
         id="tspan5109">Illustration de la superposition</tspan><tspan
         sodipodi:role="line"
         x="684.53461"
         y="366.04871"
         id="tspan5131">des modes m=3 et m=4</tspan></text>
    <text
       xml:space="preserve"
       style="font-size:28px;font-style:normal;font-variant:normal;font-weight:normal;font-stretch:normal;text-align:center;line-height:125%;letter-spacing:0px;word-spacing:0px;writing-mode:lr-tb;text-anchor:middle;fill:#000000;fill-opacity:1;stroke:none;font-family:DejaVu Sans;-inkscape-font-specification:DejaVu Sans"
       x="1329.1671"
       y="331.60925"
       id="text5111"
       sodipodi:linespacing="125%"><tspan
         sodipodi:role="line"
         id="tspan5113"
         x="1329.1671"
         y="331.60925">Interférence</tspan><tspan
         sodipodi:role="line"
         x="1329.1671"
         y="366.60925"
         id="tspan5115">de tous les modes m</tspan></text>
    <path
       style="fill:#cccccc;fill-opacity:1;fill-rule:evenodd;stroke:#000000;stroke-width:9;stroke-linecap:butt;stroke-linejoin:miter;stroke-miterlimit:4;stroke-opacity:1;stroke-dasharray:none;stroke-dashoffset:0;marker-end:url(#Arrow2Mend)"
       d="m 959.97006,622.68874 86.08924,0"
       id="path5193"
       inkscape:connector-curvature="0"
       sodipodi:nodetypes="cc" />
    <path
       inkscape:connector-curvature="0"
       id="path6021"
       style="fill:#cccccc;fill-rule:evenodd;stroke:#000000;stroke-width:1;stroke-linecap:butt;stroke-linejoin:miter;stroke-miterlimit:4;stroke-opacity:1;stroke-dasharray:none;stroke-dashoffset:0"
       d="m 1381.6521,632.93312 c 0,29.22507 -23.6881,52.91667 -52.9088,52.91667 -29.2208,0 -52.9089,-23.6916 -52.9089,-52.91667 0,-29.22507 23.6881,-52.91667 52.9089,-52.91667 29.2207,0 52.9088,23.6916 52.9088,52.91667 z m 185.0166,-2e-5 c 0,131.40259 -106.5229,237.92543 -237.9255,237.92543 -131.4025,0 -237.9254,-106.52284 -237.9254,-237.92543 0,-131.40259 106.5229,-237.92543 237.9254,-237.92543 131.4026,0 237.9255,106.52284 237.9255,237.92543 z" />
    <g
       id="g3390"
       transform="matrix(1.5241293,0,0,-1.5241293,878.82031,962.14502)"
       style="stroke:#000000">
      <g
         id="g3392"
         clip-path="url(#clipPath3394)"
         style="stroke:#000000">
        <path
           inkscape:connector-curvature="0"
           d="m 296.96584,251.85181 9.96306,-1.19817 9.17654,-3.79386 7.7823,-5.99515 5.9399,-7.68947 3.8169,-8.81746 1.5747,-9.36726 -0.64186,-9.36621 -2.71129,-8.87155 -4.53901,-7.96093 -6.05814,-6.7237 -7.22845,-5.25328 -8.03351,-3.64099 -8.47726,-1.97142 -8.57996,-0.31912 -8.37406,1.25334 -7.90044,2.69622 -7.20479,3.97257 -6.33473,5.05761 -5.3373,5.93751 -4.2571,6.60805 -3.1349,7.07295 -2.00671,7.34231 -0.90334,7.43106 0.14988,7.35754 1.13293,7.14222 2.0309,6.80659 2.83349,6.37231 3.53456,5.86043 4.1316,5.29086 4.62506,4.68201 5.01794,4.05045 5.31513,3.41081 5.52303,2.77574 5.64904,2.15587 5.70125,1.55994 5.68805,0.99487 5.61796,0.46598 5.49932,-0.0229 5.34014,-0.46941 5.14807,-0.87204 4.93012,-1.23045 4.69281,-1.54503 4.44196,-1.81685 4.18282,-2.04749 3.91996,-2.23893 3.65736,-2.39342 3.39841,-2.5134 3.14598,-2.60143 2.90237,-2.66013 2.6695,-2.69207 2.44879,-2.69979 2.24136,-2.68572 2.04793,-2.65218 1.86897,-2.60135 1.70469,-2.53524 1.55508,-2.4557 1.41994,-2.36445 1.29891,-2.26298 1.19152,-2.15269 1.09718,-2.03476 1.01522,-1.91024 0.94486,-1.78006 0.88535,-1.645 0.83582,-1.50569 0.79538,-1.36272 0.76317,-1.21649 0.73825,-1.06739 0.71969,-0.91568 0.70657,-0.76158 0.69794,-0.60524 0.69285,-0.44677 0.69037,-0.28622"
           style="fill:none;stroke:#000000;stroke-width:1;stroke-linecap:square;stroke-linejoin:round;stroke-miterlimit:10;stroke-opacity:1;stroke-dasharray:none"
           id="path3398"
           sodipodi:nodetypes="ccccccccccccccccccccccccccccccccccccccccccccccccccccccccccccccccccccccccc" />
      </g>
    </g>
    <g
       id="g3400"
       transform="matrix(1.5241293,0,0,-1.5241293,878.82031,962.14502)"
       style="stroke:#000000">
      <g
         id="g3402"
         clip-path="url(#clipPath3404)"
         style="stroke:#000000">
        <path
           inkscape:connector-curvature="0"
           d="m 382.4639,215.86975 0.68854,-0.29246 0.68605,-0.4619 0.68098,-0.63324 0.67234,-0.80641 0.65921,-0.9813 0.64066,-1.15779 0.61573,-1.33569 0.5835,-1.51475 0.54305,-1.6947 0.49346,-1.87513 0.43384,-2.05562 0.36333,-2.23563 0.28107,-2.41455 0.18625,-2.59165 0.0781,-2.76615 -0.0441,-2.93712 -0.18094,-3.10357 -0.33312,-3.26437 -0.50107,-3.41829 -0.68523,-3.56401 -0.8859,-3.70008 -1.10324,-3.82497 -1.33734,-3.93705 -1.58804,-4.03459 -1.85512,-4.11579 -2.1381,-4.17875 -2.43636,-4.22156 -2.74901,-4.24222 -3.07501,-4.23874 -3.41301,-4.2091 -3.76145,-4.1513 -4.11852,-4.06339 -4.48209,-3.94347 -4.8498,-3.78977 -5.21902,-3.60059 -5.58677,-3.37448 -5.94988,-3.11011 -6.30483,-2.80641 -6.64791,-2.46264 -6.97509,-2.07827 -7.28221,-1.65324 -7.5648,-1.187783 -7.81832,-0.682657 -8.03804,-0.139033 -8.21917,0.441384 -8.35688,1.056349 -8.44634,1.70306 -8.48282,2.37808 -8.46174,3.07742 -8.3787,3.79639 -8.22966,4.52973 -8.01088,5.27152 -7.71918,6.01523 -7.35182,6.75377 -6.90678,7.47943 -6.38274,8.18405 -5.77921,8.85899 -5.09656,9.49525 -4.33619,10.08353 -3.50052,10.61433 -2.59311,11.07806 -1.61867,11.46521 -0.58316,11.76643 0.50624,11.97265 1.64112,12.07539 2.81175,12.0667 4.00726,11.93955 5.21555,11.68783 6.42348,11.30666 7.61685,10.79247 8.78067,10.14324 9.89914,9.35859 10.956,8.43998 11.93458,7.39084 12.81815,6.21665 13.59009,4.92505 14.23418,3.52588 14.73493,2.03127 15.07784,0.45549 15.24968,-1.18495 15.23894,-2.87148 15.03598,-4.58359 14.63344,-6.299 14.02655,-7.99394 13.21334,-9.64334 12.19495,-11.22128 10.97579,-12.70126 9.56376,-14.05666 7.97036,-15.26117 6.21072,-16.28934 4.30363,-17.11697 2.2715,-17.72175 0.14012,-18.08372 -2.06142,-18.18582 -4.30118,-18.01443 -6.54467,-17.55984 -8.75529,-16.81668 -10.89497,-15.78435"
           style="fill:none;stroke:#000000;stroke-width:1;stroke-linecap:square;stroke-linejoin:round;stroke-miterlimit:10;stroke-opacity:1;stroke-dasharray:none"
           id="path3408"
           sodipodi:nodetypes="ccccccccccccccccccccccccccccccccccccccccccccccccccccccccccccccccccccccccccccccccccccccccccccccccccc" />
      </g>
    </g>
    <path
       sodipodi:type="arc"
       style="fill:none;stroke:#000000;stroke-width:0.99999994;stroke-linecap:butt;stroke-linejoin:miter;stroke-miterlimit:4;stroke-opacity:1;stroke-dasharray:5.99999982, 5.99999982;stroke-dashoffset:0"
       id="path2985"
       sodipodi:cx="302.35345"
       sodipodi:cy="336.49591"
       sodipodi:rx="254.55493"
       sodipodi:ry="254.55493"
       d="m 556.90839,336.49591 c 0,140.58681 -113.96813,254.55493 -254.55494,254.55493 -140.5868,0 -254.554927,-113.96812 -254.554927,-254.55493 0,-140.58681 113.968127,-254.554931 254.554927,-254.554931 140.58681,0 254.55494,113.968121 254.55494,254.554931 z"
       transform="matrix(0.51690929,0,0,0.51698552,1172.4539,458.96959)" />
    <g
       transform="matrix(0.20730299,0,0,0.20730299,1268.8616,550.26266)"
       id="layer1-2"
       inkscape:label="Calque 1">
      <path
         transform="translate(6.5158829,23.388712)"
         d="m 317.91575,375.4017 c 0,19.64532 -15.92567,35.571 -35.57099,35.571 -19.64532,0 -35.571,-15.92568 -35.571,-35.571 0,-19.64532 15.92568,-35.57099 35.571,-35.57099 19.64532,0 35.57099,15.92567 35.57099,35.57099 z"
         sodipodi:ry="35.570995"
         sodipodi:rx="35.570995"
         sodipodi:cy="375.4017"
         sodipodi:cx="282.34476"
         id="path3108"
         style="fill:url(#radialGradient6593);fill-opacity:1;fill-rule:evenodd;stroke:#000000;stroke-width:0.5;stroke-linecap:round;stroke-linejoin:round;stroke-miterlimit:4;stroke-opacity:1;stroke-dasharray:none;stroke-dashoffset:0"
         sodipodi:type="arc" />
      <path
         inkscape:tile-y0="345.59409"
         inkscape:tile-x0="282.96551"
         inkscape:tile-h="14.92895"
         inkscape:tile-w="11.79025"
         inkscape:tile-cy="398.79042"
         inkscape:tile-cx="288.86064"
         inkscape:transform-center-y="-60.178641"
         sodipodi:nodetypes="ccczc"
         inkscape:connector-curvature="0"
         d="m 296.61805,356.94694 c -3.84599,-3.84599 -5.87757,-9.05331 -7.7574,-16.06893 -1.92774,7.19443 -4.1359,12.44742 -7.75741,16.06893 4.74917,1.25562 4.3592,3.57611 7.75741,3.57611 3.39821,0 3.00823,-2.32049 7.7574,-3.57611 z"
         style="fill:#ffac00;fill-opacity:1;fill-rule:evenodd;stroke:#000000;stroke-width:0.5;stroke-linecap:round;stroke-linejoin:round;stroke-miterlimit:4;stroke-opacity:1;stroke-dasharray:none;stroke-dashoffset:0"
         id="path3120" />
      <use
         height="1052.3622"
         width="744.09448"
         inkscape:transform-center-y="-31.21388"
         inkscape:transform-center-x="-31.213884"
         id="use4075"
         transform="matrix(0.70710678,0.70710678,-0.70710678,0.70710678,366.59273,-87.452306)"
         xlink:href="#path3120"
         inkscape:tiled-clone-of="#path3120"
         y="0"
         x="0" />
      <use
         height="1052.3622"
         width="744.09448"
         inkscape:transform-center-x="-45.73185"
         id="use4077"
         transform="matrix(0,1,-1,0,687.65105,109.92978)"
         xlink:href="#path3120"
         inkscape:tiled-clone-of="#path3120"
         y="0"
         x="0" />
      <use
         height="1052.3622"
         width="744.09448"
         inkscape:transform-center-y="31.213884"
         inkscape:transform-center-x="-31.213884"
         id="use4079"
         transform="matrix(-0.70710678,0.70710678,-0.70710678,-0.70710678,775.10336,476.52251)"
         xlink:href="#path3120"
         inkscape:tiled-clone-of="#path3120"
         y="0"
         x="0" />
      <use
         height="1052.3622"
         width="744.09448"
         inkscape:transform-center-y="45.73185"
         id="use4081"
         transform="matrix(-1,0,0,-1,577.72127,797.58083)"
         xlink:href="#path3120"
         inkscape:tiled-clone-of="#path3120"
         y="0"
         x="0" />
      <use
         height="1052.3622"
         width="744.09448"
         inkscape:transform-center-y="31.213884"
         inkscape:transform-center-x="31.213884"
         id="use4083"
         transform="matrix(-0.70710678,-0.70710678,0.70710678,-0.70710678,211.12854,885.03314)"
         xlink:href="#path3120"
         inkscape:tiled-clone-of="#path3120"
         y="0"
         x="0" />
      <use
         height="1052.3622"
         width="744.09448"
         inkscape:transform-center-x="45.73185"
         id="use4085"
         transform="matrix(0,-1,1,0,-109.92978,687.65105)"
         xlink:href="#path3120"
         inkscape:tiled-clone-of="#path3120"
         y="0"
         x="0" />
      <use
         height="1052.3622"
         width="744.09448"
         inkscape:transform-center-y="-31.213884"
         inkscape:transform-center-x="31.213884"
         id="use4087"
         transform="matrix(0.70710678,-0.70710678,0.70710678,0.70710678,-197.38209,321.05832)"
         xlink:href="#path3120"
         inkscape:tiled-clone-of="#path3120"
         y="0"
         x="0" />
    </g>
    <path
       transform="matrix(1.1550726,0,0,1.1550726,518.21116,-97.601464)"
       d="m 821.46764,632.4577 c 0,3.22306 -2.61281,5.83587 -5.83587,5.83587 -3.22306,0 -5.83586,-2.61281 -5.83586,-5.83587 0,-3.22306 2.6128,-5.83586 5.83586,-5.83586 3.22306,0 5.83587,2.6128 5.83587,5.83586 z"
       sodipodi:ry="5.8358665"
       sodipodi:rx="5.8358665"
       sodipodi:cy="632.4577"
       sodipodi:cx="815.63177"
       id="path5123"
       style="fill:#0000ff;stroke:#000000;stroke-width:0.86574644;stroke-linecap:butt;stroke-linejoin:miter;stroke-miterlimit:4;stroke-opacity:1;stroke-dasharray:none;stroke-dashoffset:0"
       sodipodi:type="arc" />
    <text
       sodipodi:linespacing="125%"
       id="text6509"
       y="331.04871"
       x="40.524197"
       style="font-size:28px;font-style:normal;font-variant:normal;font-weight:normal;font-stretch:normal;text-align:center;line-height:125%;letter-spacing:0px;word-spacing:0px;writing-mode:lr-tb;text-anchor:middle;fill:#000000;fill-opacity:1;stroke:none;font-family:DejaVu Sans;-inkscape-font-specification:DejaVu Sans"
       xml:space="preserve"><tspan
         id="tspan6513"
         y="331.04871"
         x="40.524197"
         sodipodi:role="line">mode m=3</tspan></text>
    <use
       height="1052.3622"
       width="744.09448"
       transform="translate(-1288.0755,2.5844032e-5)"
       id="use6515"
       xlink:href="#path6021"
       y="0"
       x="0" />
    <use
       height="1052.3622"
       width="744.09448"
       transform="translate(-1288.0755,2.5844032e-5)"
       id="use6517"
       xlink:href="#layer1-2"
       y="0"
       x="0" />
    <path
       transform="translate(-1245.2522,0.38173591)"
       d="m 1329.5302,602.49716 c 20.4016,24.2939 15.0588,61.14313 -8.7847,81.03261 -27.9996,23.35635 -70.3501,17.16276 -93.1433,-10.33308 -26.6172,-32.10891 -19.4765,-80.54883 12.0715,-106.54872 36.6495,-30.20437 91.8066,-22.01305 121.3362,14.01421 34.1382,41.65007 24.7859,104.19299 -16.1763,137.59555 -47.1398,38.44 -117.7792,27.80911 -155.4193,-18.57304 -43.1315,-53.14889 -31.0967,-132.63875 21.2203,-174.90255 59.7085,-48.23494 148.8472,-34.66332 196.1431,24.13445 53.7734,66.85047 38.524,166.48208 -27.3322,219.24134 -74.6076,59.77021 -185.623,42.69399 -244.3003,-30.831 -66.2496,-83.01341 -47.189,-206.35144 34.6485,-271.42539 92.1023,-73.23614 228.7511,-52.02518 300.725,38.8029 41.8165,52.77075 57.9275,122.81165 44.9355,188.722"
       sodipodi:t0="0.68061262"
       sodipodi:argument="-249.96066"
       sodipodi:radius="237.63246"
       sodipodi:revolution="9.8234415"
       sodipodi:expansion="3.8800001"
       sodipodi:cy="632.93311"
       sodipodi:cx="1285.6505"
       id="path6523"
       style="fill:none;stroke:#ff0000;stroke-width:1px;stroke-linecap:butt;stroke-linejoin:miter;stroke-opacity:1"
       sodipodi:type="spiral" />
    <path
       sodipodi:nodetypes="cc"
       inkscape:connector-curvature="0"
       id="path6541"
       d="m 315.93233,622.68874 86.08923,0"
       style="fill:#cccccc;fill-opacity:1;fill-rule:evenodd;stroke:#000000;stroke-width:9;stroke-linecap:butt;stroke-linejoin:miter;stroke-miterlimit:4;stroke-opacity:1;stroke-dasharray:none;stroke-dashoffset:0;marker-end:url(#Arrow2Mend)" />
    <use
       x="0"
       y="0"
       xlink:href="#path6523"
       id="use6553"
       inkscape:transform-center-x="20.422995"
       inkscape:transform-center-y="-10.028889"
       width="1745.348"
       height="564.3717"
       transform="matrix(-0.5,-0.8660254,0.8660254,-0.5,-487.86927,984.95823)" />
    <use
       x="0"
       y="0"
       xlink:href="#path6523"
       id="use6557"
       width="1745.348"
       height="564.3717"
       inkscape:transform-center-x="-18.756522"
       inkscape:transform-center-y="21.001278"
       transform="matrix(-0.5,0.8660254,-0.8660254,-0.5,609.06421,914.9863)" />
    <path
       inkscape:connector-curvature="0"
       d="m 153.32023,632.93312 c 0,62.21625 -50.43624,112.65249 -112.652486,112.65249 -62.21625,0 -112.65249,-50.43624 -112.65249,-112.65249 0,-62.21625 50.43624,-112.65249 112.65249,-112.65249 62.216246,0 112.652486,50.43624 112.652486,112.65249 z m 36.41026,0 c 0,82.32508 -66.73767,149.06274 -149.062736,149.06274 -82.32508,0 -149.062744,-66.73766 -149.062744,-149.06274 0,-82.32508 66.737664,-149.06273 149.062744,-149.06273 82.325066,0 149.062736,66.73765 149.062736,149.06273 z"
       style="fill:#e28484;fill-opacity:1;fill-rule:evenodd;stroke:#ff0000;stroke-width:1;stroke-linecap:butt;stroke-linejoin:miter;stroke-miterlimit:4;stroke-opacity:1;stroke-dasharray:none;stroke-dashoffset:0"
       id="path6525" />
    <path
       sodipodi:type="arc"
       style="fill:none;stroke:#000000;stroke-width:1.00063562;stroke-linecap:butt;stroke-linejoin:miter;stroke-miterlimit:4;stroke-opacity:1;stroke-dasharray:6.00381367, 6.00381367;stroke-dashoffset:0"
       id="path6537"
       sodipodi:cx="302.35345"
       sodipodi:cy="336.49591"
       sodipodi:rx="254.55493"
       sodipodi:ry="254.55493"
       d="m 556.90839,336.49591 c 0,140.58681 -113.96813,254.55493 -254.55494,254.55493 -140.5868,0 -254.554927,-113.96812 -254.554927,-254.55493 0,-140.58681 113.968127,-254.554931 254.554927,-254.554931 140.58681,0 254.55494,113.968121 254.55494,254.554931 z"
       transform="matrix(0.5223678,0,0,0.51698552,-117.27196,458.96961)" />
    <use
       x="0"
       y="0"
       xlink:href="#path5123"
       id="use6539"
       transform="translate(-1286.686,2.4367815e-5)"
       width="744.09448"
       height="1052.3622" />
    <g
       id="g6577"
       transform="translate(-0.49481201,0)">
      <use
         height="1052.3622"
         width="744.09448"
         transform="translate(-643.54291,2.5844032e-5)"
         id="use6559"
         xlink:href="#path6021"
         y="0"
         x="0" />
      <use
         height="1052.3622"
         width="744.09448"
         transform="translate(-643.54291,2.5844032e-5)"
         id="use6561"
         xlink:href="#layer1-2"
         y="0"
         x="0" />
      <use
         x="0"
         y="0"
         xlink:href="#path6523"
         id="use6569"
         inkscape:transform-center-x="20.422995"
         inkscape:transform-center-y="-10.028889"
         width="1745.348"
         height="564.3717"
         transform="matrix(-0.5,-0.8660254,0.8660254,-0.5,156.66332,984.95823)" />
      <use
         transform="matrix(-0.5,0.8660254,-0.8660254,-0.5,1253.5968,914.98629)"
         height="564.3717"
         width="1745.348"
         inkscape:transform-center-y="20.959131"
         inkscape:transform-center-x="-19.403249"
         id="use6573"
         xlink:href="#path6523"
         y="0"
         x="0" />
      <use
         height="564.3717"
         width="1745.348"
         transform="translate(644.53259,0)"
         x="0"
         y="0"
         xlink:href="#path6523"
         id="use6575" />
      <path
         inkscape:connector-curvature="0"
         d="m 797.85282,632.93312 c 0,62.21625 -50.43624,112.65249 -112.65249,112.65249 -62.21625,0 -112.65249,-50.43624 -112.65249,-112.65249 0,-62.21625 50.43624,-112.65249 112.65249,-112.65249 62.21625,0 112.65249,50.43624 112.65249,112.65249 z m 36.41026,0 c 0,82.32508 -66.73767,149.06274 -149.06274,149.06274 -82.32508,0 -149.06274,-66.73766 -149.06274,-149.06274 0,-82.32508 66.73766,-149.06273 149.06274,-149.06273 82.32507,0 149.06274,66.73765 149.06274,149.06273 z"
         style="fill:#e28484;fill-opacity:1;fill-rule:evenodd;stroke:#ff0000;stroke-width:1;stroke-linecap:butt;stroke-linejoin:miter;stroke-miterlimit:4;stroke-opacity:1;stroke-dasharray:none;stroke-dashoffset:0"
         id="path6565" />
      <path
         sodipodi:type="arc"
         style="fill:none;stroke:#000000;stroke-width:1.00063562;stroke-linecap:butt;stroke-linejoin:miter;stroke-miterlimit:4;stroke-opacity:1;stroke-dasharray:6.00381367, 6.00381367;stroke-dashoffset:0"
         id="path6567"
         sodipodi:cx="302.35345"
         sodipodi:cy="336.49591"
         sodipodi:rx="254.55493"
         sodipodi:ry="254.55493"
         d="m 556.90839,336.49591 c 0,140.58681 -113.96813,254.55493 -254.55494,254.55493 -140.5868,0 -254.554927,-113.96812 -254.554927,-254.55493 0,-140.58681 113.968127,-254.554931 254.554927,-254.554931 140.58681,0 254.55494,113.968121 254.55494,254.554931 z"
         transform="matrix(0.5223678,0,0,0.51698552,523.01596,458.96959)" />
      <path
         transform="matrix(-0.5,-0.8660254,0.8660254,-0.5,778.4768,2061.9926)"
         sodipodi:type="spiral"
         style="fill:none;stroke:#0000ff;stroke-width:1px;stroke-linecap:butt;stroke-linejoin:miter;stroke-opacity:1"
         id="use4998"
         sodipodi:cx="1285.6505"
         sodipodi:cy="632.93311"
         sodipodi:expansion="3.8800001"
         sodipodi:revolution="4.9141526"
         sodipodi:radius="238.08939"
         sodipodi:argument="-249.96066"
         sodipodi:t0="0.67966998"
         d="m 1235.8715,614.11354 c 6.1635,-34.1364 42.049,-53.36212 74.6813,-47.04878 44.4723,8.60401 69.3608,55.55807 60.6271,98.20374 -11.6667,56.96694 -72.054,88.67523 -126.8303,76.90835 -71.8953,-15.44432 -111.725,-91.9384 -96.2205,-161.23534 20.0355,-89.54781 115.6368,-138.95326 202.1324,-118.90889 110.2299,25.54456 170.8262,143.59802 145.3362,250.27351 -8.4239,35.25388 -25.4029,68.24628 -48.8022,95.8949" />
      <use
         inkscape:transform-center-x="39.355146"
         transform="matrix(0,-1,1,0,52.93674,1317.1769)"
         height="1052.3622"
         width="744.09448"
         id="use5002"
         xlink:href="#use4998"
         y="0"
         x="0" />
      <use
         inkscape:transform-center-y="39.355156"
         x="0"
         y="0"
         xlink:href="#use4998"
         id="use5004"
         width="744.09448"
         height="1052.3622"
         transform="matrix(-1,0,0,-1,1370.1137,1264.24)"
         inkscape:transform-center-x="2.049478e-05" />
      <use
         inkscape:transform-center-x="-39.355136"
         transform="matrix(0,1,-1,0,1317.1769,-52.936728)"
         height="1052.3622"
         width="744.09448"
         id="use5006"
         xlink:href="#use4998"
         y="0"
         x="0"
         inkscape:transform-center-y="2.049478e-05" />
      <path
         inkscape:connector-curvature="0"
         d="m 804.40256,632.18954 c 0,65.804 -53.34463,119.1486 -119.14856,119.1486 -65.80393,0 -119.14856,-53.3446 -119.14856,-119.1486 0,-65.8039 53.34463,-119.1485 119.14856,-119.1485 65.80393,0 119.14856,53.3446 119.14856,119.1485 z m 23.90862,0 c 0,79.0083 -64.04886,143.0572 -143.05713,143.0572 -79.00827,0 -143.05713,-64.0489 -143.05713,-143.0572 0,-79.0082 64.04886,-143.0571 143.05713,-143.0571 79.00827,0 143.05713,64.0489 143.05713,143.0571 z"
         style="fill:#8484e2;fill-opacity:1;fill-rule:evenodd;stroke:#0000ff;stroke-width:1;stroke-linecap:butt;stroke-linejoin:miter;stroke-miterlimit:4;stroke-opacity:1;stroke-dasharray:none;stroke-dashoffset:0"
         id="path4092" />
      <path
         sodipodi:type="arc"
         style="fill:none;stroke:#000000;stroke-width:1.00063562;stroke-linecap:butt;stroke-linejoin:miter;stroke-miterlimit:4;stroke-opacity:1;stroke-dasharray:6.00381367, 6.00381367;stroke-dashoffset:0"
         id="path4088"
         sodipodi:cx="302.35345"
         sodipodi:cy="336.49591"
         sodipodi:rx="254.55493"
         sodipodi:ry="254.55493"
         d="m 556.90839,336.49591 c 0,140.58681 -113.96813,254.55493 -254.55494,254.55493 -140.5868,0 -254.554927,-113.96812 -254.554927,-254.55493 0,-140.58681 113.968127,-254.554931 254.554927,-254.554931 140.58681,0 254.55494,113.968121 254.55494,254.554931 z"
         transform="matrix(0.5223678,0,0,0.51698552,527.26063,458.96961)" />
      <use
         x="0"
         y="0"
         xlink:href="#path5123"
         id="use6571"
         transform="translate(-642.15344,2.4367815e-5)"
         width="744.09448"
         height="1052.3622" />
    </g>
  </g>
</svg>
