<?xml version="1.0" encoding="UTF-8" standalone="no"?>
<!-- Created with Inkscape (http://www.inkscape.org/) -->

<svg
   xmlns:dc="http://purl.org/dc/elements/1.1/"
   xmlns:cc="http://creativecommons.org/ns#"
   xmlns:rdf="http://www.w3.org/1999/02/22-rdf-syntax-ns#"
   xmlns:svg="http://www.w3.org/2000/svg"
   xmlns="http://www.w3.org/2000/svg"
   xmlns:sodipodi="http://sodipodi.sourceforge.net/DTD/sodipodi-0.dtd"
   xmlns:inkscape="http://www.inkscape.org/namespaces/inkscape"
   id="svg2"
   version="1.1"
   inkscape:version="0.48.2 r9819"
   width="609.95801"
   height="493.65518"
   xml:space="preserve"
   sodipodi:docname="N_30.svg"><metadata
     id="metadata8"><rdf:RDF><cc:Work
         rdf:about=""><dc:format>image/svg+xml</dc:format><dc:type
           rdf:resource="http://purl.org/dc/dcmitype/StillImage" /><dc:title></dc:title></cc:Work></rdf:RDF></metadata><defs
     id="defs6" /><sodipodi:namedview
     pagecolor="#ffffff"
     bordercolor="#666666"
     borderopacity="1"
     objecttolerance="10"
     gridtolerance="10"
     guidetolerance="10"
     inkscape:pageopacity="0"
     inkscape:pageshadow="2"
     inkscape:window-width="640"
     inkscape:window-height="480"
     id="namedview4"
     showgrid="false"
     fit-margin-top="0"
     fit-margin-left="0"
     fit-margin-right="0"
     fit-margin-bottom="0"
     inkscape:zoom="1.1233218"
     inkscape:cx="321.11041"
     inkscape:cy="235.68761"
     inkscape:current-layer="g10" /><g
     id="g10"
     inkscape:groupmode="layer"
     inkscape:label="number_effect_on_pr"
     transform="matrix(1.25,0,0,-1.25,-49.775391,513.43887)"><path
       d="m 103.88571,43.2 0.95897,0 0,0 0,0 0.95897,0 0,0 0,0 0.95897,0 0,0 0,0 0.95897,0 0,0 0,0 0.95897,0 0,0 0,0 0.95897,0 0,0 0,0 0.95897,0 0,0 0,0 0.95897,0 0,0 0,0 0.95896,0 0,0 0,0 0.95897,0 0,0 0,0 0.95897,0 0,0 0,0 0.95897,0 0,0 0,0 0.95897,0 0,0 0,0 0.95897,0 0,0 0,0 0.95897,0 0,0 0,0 0.95897,0 0,0 0,0 0.95896,0 0,0 0,0 0.95897,0 0,0 0,0 0.95897,0 0,0 0,0 0.95897,0 0,0 0,0 0.95897,0 0,0 0,0 0.95897,0 0,0 0,0 0.95897,0 0,0 0,0 0.95897,0 0,0 0,0 0.95897,0 0,0 0,0 0.95896,0 0,0 0,0 0.95897,0 0,0 0,0 0.95897,0 0,0 0,0 0.95897,0 0,0 0,0 0.95897,0 0,0 0,0 0.95897,0 0,0 0,0 0.95897,0 0,0 0,0 0.95897,0 0,164.6552 0.95897,0 0,-138.65701 0.95896,0 0,-12.999095 0.95897,0 0,-12.999095 28.76907,0 0,4.333032 0.95897,0 0,-4.333032 1.91793,0 0,4.333032 0.95897,0 0,4.333031 0.95897,0 0,-8.666063 0.95897,0 0,4.333032 2.87691,0 0,8.666063 0.95897,0 0,-12.999095 2.8769,0 0,4.333032 0.95897,0 0,4.333031 0.95897,0 0,25.99819 0.95897,0 0,-30.331221 1.91794,0 0,-4.333032 0.95897,0 0,4.333032 1.91793,0 0,-4.333032 0.95897,0 0,43.330317 0.95897,0 0,-4.333032 0.95897,0 0,-25.99819 0.95897,0 0,-12.999095 2.87691,0 0,4.333032 1.91793,0 0,-4.333032 1.91794,0 0,4.333032 0.95897,0 0,69.328508 0.95897,0 0,69.32851 0.95897,0 0,-103.992765 0.95897,0 0,-30.331222 0.95897,0 0,-8.666063 0.95896,0 0,8.666063 0.95897,0 0,-8.666063 0.95897,0 0,12.999095 0.95897,0 0,-8.666063 1.91794,0 0,-4.333032 2.87691,0 0,4.333032 0.95896,0 0,-4.333032 1.91794,0 0,21.665158 0.95897,0 0,173.321272 0.95897,0 0,-4.33304 0.95897,0 0,-99.65972 0.95897,0 0,-73.661543 0.95897,0 0,-8.666064 1.91793,0 0,-8.666063 0.95897,0 0,4.333032 0.95897,0 0,-4.333032 0.95897,0 0,4.333032 0.95897,0 0,-4.333032 0.95897,0 0,4.333032 0.95897,0 0,-4.333032 0.95897,0 0,4.333032 1.91793,0 0,-4.333032 8.63072,0 0,8.666063 0.95897,0 0,-8.666063 1.91794,0 0,12.999095 0.95897,0 0,151.656105 0.95897,0 0,21.66516 0.95897,0 0,-90.99366 0.95897,0 0,-60.662447 0.95896,0 0,-8.666063 0.95897,0 0,-12.999095 1.91794,0 0,-12.999095 2.87691,0 0,4.333032 1.91793,0 0,-4.333032 7.67176,0 0,4.333032 0.95896,0 0,-4.333032 1.91794,0 0,4.333032 0.95897,0 0,-4.333032 1.91794,0 0,4.333032 0.95897,0 0,-4.333032 2.8769,0 0,4.333032 0.95897,0 0,-4.333032 7.67175,0 0,4.333032 0.95897,0 0,-4.333032 5.75382,0 0,4.333032 1.91793,0 0,-4.333032 1.91794,0 0,8.666063 1.91794,0 0,-8.666063 1.91794,0 0,12.999095 0.95897,0 0,43.330317 0.95896,0 0,51.996378 0.95897,0 0,8.66607 0.95897,0 0,-60.662448 0.95897,0 0,-25.99819 1.91794,0 0,-21.665159 2.87691,0 0,-4.333031 0.95896,0 0,-4.333032 5.75382,0 0,4.333032 1.91793,0 0,-4.333032 0.95897,0 0,4.333032 0.95897,0 0,-4.333032 1.91794,0 0,4.333032 1.91794,0 0,-4.333032 8.63072,0 0,21.665158 0.95897,0 0,4.333032 0.95897,0 0,-21.665158 1.91793,0 0,4.333031 0.95897,0 0,-4.333031 0.95897,0 0,-4.333032 6.71278,0 0,4.333032 0.95897,0 0,-4.333032 1.91794,0 0,4.333032 1.91794,0 0,-4.333032 2.8769,0 0,4.333032 0.95897,0 0,4.333031 0.95897,0 0,-4.333031 0.95897,0 0,4.333031 0.95897,0 0,-4.333031 3.83587,0 0,-4.333032 2.87691,0 0,4.333032 0.95897,0 0,-4.333032 1.91794,0 0,4.333032 0.95897,0 0,-4.333032 0.95897,0 0,4.333032 0.95896,0 0,-4.333032 2.87691,0 0,4.333032 1.91794,0 0,-4.333032 0.95897,0 0,4.333032 1.91793,0 0,4.333031 0.95897,0 0,-4.333031 1.91794,0 0,-4.333032 1.91794,0 0,4.333032 0.95897,0 0,-4.333032 1.91794,0 0,4.333032 0.95896,0 0,-4.333032 8.63072,0 0,4.333032 0.95897,0 0,-4.333032 27.8101,0 0,4.333032 0.95897,0 0,-4.333032 23.97422,0 0,4.333032 0.95897,0 0,-4.333032 3.83587,0 0,4.333032 0.95897,0 0,-4.333032 2.87691,0 0,8.666063 0.95897,0 0,-8.666063 1.91794,0 0,4.333032 1.91793,0 0,12.999095 0.95897,0 0,60.662443 0.95897,0 0,-17.33213 0.95897,0 0,-38.997282 0.95897,0 0,4.333032 1.91794,0 0,-12.999095 0.95897,0 0,-8.666063 0.95896,0 0,8.666063 0.95897,0 0,-8.666063 1.91794,0 0,4.333031 0.95897,0 0,-4.333031 0.95897,0 0,-4.333032 1.91794,0 0,4.333032 0.95897,0 0,4.333031 0.95896,0 0,-8.666063 0.95897,0 0,4.333032 0.95897,0 0,-4.333032 2.87691,0 0,4.333032 0.95897,0 0,-4.333032 7.67175,0 0,4.333032 0.95897,0 0,-4.333032 0.95897,0 0,0"
       style="fill:none;stroke:#ff0000;stroke-width:1;stroke-linecap:square;stroke-linejoin:round;stroke-miterlimit:10;stroke-opacity:1;stroke-dasharray:none"
       id="path44"
       inkscape:connector-curvature="0"
       clip-path="none" /><path
       d="m 135.77143,43.2 0,345.6"
       style="fill:none;stroke:#000000;stroke-width:1;stroke-linecap:butt;stroke-linejoin:round;stroke-miterlimit:10;stroke-opacity:1;stroke-dasharray:6, 6;stroke-dashoffset:0"
       id="path54"
       inkscape:connector-curvature="0"
       clip-path="none" /><path
       d="m 454.62857,43.2 0,345.6"
       style="fill:none;stroke:#000000;stroke-width:1;stroke-linecap:butt;stroke-linejoin:round;stroke-miterlimit:10;stroke-opacity:1;stroke-dasharray:6, 6;stroke-dashoffset:0"
       id="path64"
       inkscape:connector-curvature="0"
       clip-path="none" /><path
       d="m 295.2,43.2 0,345.6"
       style="fill:none;stroke:#000000;stroke-width:1;stroke-linecap:butt;stroke-linejoin:round;stroke-miterlimit:10;stroke-opacity:1;stroke-dasharray:6, 6;stroke-dashoffset:0"
       id="path74"
       inkscape:connector-curvature="0"
       clip-path="none" /><path
       d="m 242.05714,43.2 0,345.6"
       style="fill:none;stroke:#000000;stroke-width:1;stroke-linecap:butt;stroke-linejoin:round;stroke-miterlimit:10;stroke-opacity:1;stroke-dasharray:6, 6;stroke-dashoffset:0"
       id="path84"
       inkscape:connector-curvature="0"
       clip-path="none" /><path
       d="m 215.48571,43.2 0,345.6"
       style="fill:none;stroke:#000000;stroke-width:1;stroke-linecap:butt;stroke-linejoin:round;stroke-miterlimit:10;stroke-opacity:1;stroke-dasharray:6, 6;stroke-dashoffset:0"
       id="path94"
       inkscape:connector-curvature="0"
       clip-path="none" /><path
       d="m 199.54286,43.2 0,345.6"
       style="fill:none;stroke:#000000;stroke-width:1;stroke-linecap:butt;stroke-linejoin:round;stroke-miterlimit:10;stroke-opacity:1;stroke-dasharray:6, 6;stroke-dashoffset:0"
       id="path104"
       inkscape:connector-curvature="0"
       clip-path="none" /><path
       d="m 188.91429,43.2 0,345.6"
       style="fill:none;stroke:#000000;stroke-width:1;stroke-linecap:butt;stroke-linejoin:round;stroke-miterlimit:10;stroke-opacity:1;stroke-dasharray:6, 6;stroke-dashoffset:0"
       id="path114"
       inkscape:connector-curvature="0"
       clip-path="none" /><path
       d="m 181.32245,43.2 0,345.6"
       style="fill:none;stroke:#000000;stroke-width:1;stroke-linecap:butt;stroke-linejoin:round;stroke-miterlimit:10;stroke-opacity:1;stroke-dasharray:6, 6;stroke-dashoffset:0"
       id="path124"
       inkscape:connector-curvature="0"
       clip-path="none" /><path
       d="m 175.62857,43.2 0,345.6"
       style="fill:none;stroke:#000000;stroke-width:1;stroke-linecap:butt;stroke-linejoin:round;stroke-miterlimit:10;stroke-opacity:1;stroke-dasharray:6, 6;stroke-dashoffset:0"
       id="path134"
       inkscape:connector-curvature="0"
       clip-path="none" /><path
       d="m 171.2,43.2 0,345.6"
       style="fill:none;stroke:#000000;stroke-width:1;stroke-linecap:butt;stroke-linejoin:round;stroke-miterlimit:10;stroke-opacity:1;stroke-dasharray:6, 6;stroke-dashoffset:0"
       id="path144"
       inkscape:connector-curvature="0"
       clip-path="none" /><path
       d="m 167.65714,43.2 0,345.6"
       style="fill:none;stroke:#000000;stroke-width:1;stroke-linecap:butt;stroke-linejoin:round;stroke-miterlimit:10;stroke-opacity:1;stroke-dasharray:6, 6;stroke-dashoffset:0"
       id="path154"
       inkscape:connector-curvature="0"
       clip-path="none" /><path
       d="m 72,43.2 0,4"
       style="fill:none;stroke:#000000;stroke-width:0.5;stroke-linecap:butt;stroke-linejoin:round;stroke-miterlimit:10;stroke-opacity:1;stroke-dasharray:none"
       id="path156"
       clip-path="none"
       inkscape:connector-curvature="0" /><path
       d="m 72,388.8 0,-4"
       style="fill:none;stroke:#000000;stroke-width:0.5;stroke-linecap:butt;stroke-linejoin:round;stroke-miterlimit:10;stroke-opacity:1;stroke-dasharray:none"
       id="path158"
       clip-path="none"
       inkscape:connector-curvature="0" /><text
       transform="matrix(1,0,0,-1,63.265625,30.29375)"
       id="text160"
       clip-path="none"><tspan
         style="font-size:12px;font-variant:normal;font-weight:normal;writing-mode:lr-tb;fill:#000000;fill-opacity:1;fill-rule:nonzero;stroke:none;font-family:Bitstream Vera Sans;-inkscape-font-specification:BitstreamVeraSans-Roman"
         x="0"
         y="0"
         sodipodi:role="line"
         id="tspan162">0.8</tspan></text>
<path
       d="m 135.77143,43.2 0,4"
       style="fill:none;stroke:#000000;stroke-width:0.5;stroke-linecap:butt;stroke-linejoin:round;stroke-miterlimit:10;stroke-opacity:1;stroke-dasharray:none"
       id="path164"
       clip-path="none"
       inkscape:connector-curvature="0" /><path
       d="m 135.77143,388.8 0,-4"
       style="fill:none;stroke:#000000;stroke-width:0.5;stroke-linecap:butt;stroke-linejoin:round;stroke-miterlimit:10;stroke-opacity:1;stroke-dasharray:none"
       id="path166"
       clip-path="none"
       inkscape:connector-curvature="0" /><text
       transform="matrix(1,0,0,-1,127.27924,30.29375)"
       id="text168"
       clip-path="none"><tspan
         style="font-size:12px;font-variant:normal;font-weight:normal;writing-mode:lr-tb;fill:#000000;fill-opacity:1;fill-rule:nonzero;stroke:none;font-family:Bitstream Vera Sans;-inkscape-font-specification:BitstreamVeraSans-Roman"
         x="0"
         y="0"
         sodipodi:role="line"
         id="tspan170">1.0</tspan></text>
<path
       d="m 199.54286,43.2 0,4"
       style="fill:none;stroke:#000000;stroke-width:0.5;stroke-linecap:butt;stroke-linejoin:round;stroke-miterlimit:10;stroke-opacity:1;stroke-dasharray:none"
       id="path172"
       clip-path="none"
       inkscape:connector-curvature="0" /><path
       d="m 199.54286,388.8 0,-4"
       style="fill:none;stroke:#000000;stroke-width:0.5;stroke-linecap:butt;stroke-linejoin:round;stroke-miterlimit:10;stroke-opacity:1;stroke-dasharray:none"
       id="path174"
       clip-path="none"
       inkscape:connector-curvature="0" /><text
       transform="matrix(1,0,0,-1,191.25379,30.29375)"
       id="text176"
       clip-path="none"><tspan
         style="font-size:12px;font-variant:normal;font-weight:normal;writing-mode:lr-tb;fill:#000000;fill-opacity:1;fill-rule:nonzero;stroke:none;font-family:Bitstream Vera Sans;-inkscape-font-specification:BitstreamVeraSans-Roman"
         x="0"
         y="0"
         sodipodi:role="line"
         id="tspan178">1.2</tspan></text>
<path
       d="m 263.31429,43.2 0,4"
       style="fill:none;stroke:#000000;stroke-width:0.5;stroke-linecap:butt;stroke-linejoin:round;stroke-miterlimit:10;stroke-opacity:1;stroke-dasharray:none"
       id="path180"
       clip-path="none"
       inkscape:connector-curvature="0" /><path
       d="m 263.31429,388.8 0,-4"
       style="fill:none;stroke:#000000;stroke-width:0.5;stroke-linecap:butt;stroke-linejoin:round;stroke-miterlimit:10;stroke-opacity:1;stroke-dasharray:none"
       id="path182"
       clip-path="none"
       inkscape:connector-curvature="0" /><text
       transform="matrix(1,0,0,-1,254.7596,30.45)"
       id="text184"
       clip-path="none"><tspan
         style="font-size:12px;font-variant:normal;font-weight:normal;writing-mode:lr-tb;fill:#000000;fill-opacity:1;fill-rule:nonzero;stroke:none;font-family:Bitstream Vera Sans;-inkscape-font-specification:BitstreamVeraSans-Roman"
         x="0"
         y="0"
         sodipodi:role="line"
         id="tspan186">1.4</tspan></text>
<path
       d="m 327.08571,43.2 0,4"
       style="fill:none;stroke:#000000;stroke-width:0.5;stroke-linecap:butt;stroke-linejoin:round;stroke-miterlimit:10;stroke-opacity:1;stroke-dasharray:none"
       id="path188"
       clip-path="none"
       inkscape:connector-curvature="0" /><path
       d="m 327.08571,388.8 0,-4"
       style="fill:none;stroke:#000000;stroke-width:0.5;stroke-linecap:butt;stroke-linejoin:round;stroke-miterlimit:10;stroke-opacity:1;stroke-dasharray:none"
       id="path190"
       clip-path="none"
       inkscape:connector-curvature="0" /><text
       transform="matrix(1,0,0,-1,318.5779,30.29375)"
       id="text192"
       clip-path="none"><tspan
         style="font-size:12px;font-variant:normal;font-weight:normal;writing-mode:lr-tb;fill:#000000;fill-opacity:1;fill-rule:nonzero;stroke:none;font-family:Bitstream Vera Sans;-inkscape-font-specification:BitstreamVeraSans-Roman"
         x="0"
         y="0"
         sodipodi:role="line"
         id="tspan194">1.6</tspan></text>
<path
       d="m 390.85714,43.2 0,4"
       style="fill:none;stroke:#000000;stroke-width:0.5;stroke-linecap:butt;stroke-linejoin:round;stroke-miterlimit:10;stroke-opacity:1;stroke-dasharray:none"
       id="path196"
       clip-path="none"
       inkscape:connector-curvature="0" /><path
       d="m 390.85714,388.8 0,-4"
       style="fill:none;stroke:#000000;stroke-width:0.5;stroke-linecap:butt;stroke-linejoin:round;stroke-miterlimit:10;stroke-opacity:1;stroke-dasharray:none"
       id="path198"
       clip-path="none"
       inkscape:connector-curvature="0" /><text
       transform="matrix(1,0,0,-1,382.38058,30.29375)"
       id="text200"
       clip-path="none"><tspan
         style="font-size:12px;font-variant:normal;font-weight:normal;writing-mode:lr-tb;fill:#000000;fill-opacity:1;fill-rule:nonzero;stroke:none;font-family:Bitstream Vera Sans;-inkscape-font-specification:BitstreamVeraSans-Roman"
         x="0"
         y="0"
         sodipodi:role="line"
         id="tspan202">1.8</tspan></text>
<path
       d="m 454.62857,43.2 0,4"
       style="fill:none;stroke:#000000;stroke-width:0.5;stroke-linecap:butt;stroke-linejoin:round;stroke-miterlimit:10;stroke-opacity:1;stroke-dasharray:none"
       id="path204"
       clip-path="none"
       inkscape:connector-curvature="0" /><path
       d="m 454.62857,388.8 0,-4"
       style="fill:none;stroke:#000000;stroke-width:0.5;stroke-linecap:butt;stroke-linejoin:round;stroke-miterlimit:10;stroke-opacity:1;stroke-dasharray:none"
       id="path206"
       clip-path="none"
       inkscape:connector-curvature="0" /><text
       transform="matrix(1,0,0,-1,445.91763,30.29375)"
       id="text208"
       clip-path="none"><tspan
         style="font-size:12px;font-variant:normal;font-weight:normal;writing-mode:lr-tb;fill:#000000;fill-opacity:1;fill-rule:nonzero;stroke:none;font-family:Bitstream Vera Sans;-inkscape-font-specification:BitstreamVeraSans-Roman"
         x="0"
         y="0"
         sodipodi:role="line"
         id="tspan210">2.0</tspan></text>
<path
       d="m 518.4,43.2 0,4"
       style="fill:none;stroke:#000000;stroke-width:0.5;stroke-linecap:butt;stroke-linejoin:round;stroke-miterlimit:10;stroke-opacity:1;stroke-dasharray:none"
       id="path212"
       clip-path="none"
       inkscape:connector-curvature="0" /><path
       d="m 518.4,388.8 0,-4"
       style="fill:none;stroke:#000000;stroke-width:0.5;stroke-linecap:butt;stroke-linejoin:round;stroke-miterlimit:10;stroke-opacity:1;stroke-dasharray:none"
       id="path214"
       clip-path="none"
       inkscape:connector-curvature="0" /><text
       transform="matrix(1,0,0,-1,509.89219,30.29375)"
       id="text216"
       clip-path="none"><tspan
         style="font-size:12px;font-variant:normal;font-weight:normal;writing-mode:lr-tb;fill:#000000;fill-opacity:1;fill-rule:nonzero;stroke:none;font-family:Bitstream Vera Sans;-inkscape-font-specification:BitstreamVeraSans-Roman"
         x="0"
         y="0"
         sodipodi:role="line"
         id="tspan218">2.2</tspan></text>
<text
       transform="matrix(1,0,0,-1,257.87969,15.996875)"
       id="text220"
       clip-path="none"><tspan
         style="font-size:12px;font-variant:normal;font-weight:normal;writing-mode:lr-tb;fill:#000000;fill-opacity:1;fill-rule:nonzero;stroke:none;font-family:Bitstream Vera Sans;-inkscape-font-specification:BitstreamVeraSans-Roman"
         x="0"
         y="0"
         sodipodi:role="line"
         id="tspan222">Period ratios</tspan></text>
<path
       d="m 72,43.2 4,0"
       style="fill:none;stroke:#000000;stroke-width:0.5;stroke-linecap:butt;stroke-linejoin:round;stroke-miterlimit:10;stroke-opacity:1;stroke-dasharray:none"
       id="path224"
       clip-path="none"
       inkscape:connector-curvature="0" /><path
       d="m 518.4,43.2 -4,0"
       style="fill:none;stroke:#000000;stroke-width:0.5;stroke-linecap:butt;stroke-linejoin:round;stroke-miterlimit:10;stroke-opacity:1;stroke-dasharray:none"
       id="path226"
       clip-path="none"
       inkscape:connector-curvature="0" /><text
       transform="matrix(1,0,0,-1,61.953125,38.832813)"
       id="text228"
       clip-path="none"><tspan
         style="font-size:12px;font-variant:normal;font-weight:normal;writing-mode:lr-tb;fill:#000000;fill-opacity:1;fill-rule:nonzero;stroke:none;font-family:Bitstream Vera Sans;-inkscape-font-specification:BitstreamVeraSans-Roman"
         x="0"
         y="0"
         id="tspan230">0</tspan></text>
<path
       d="m 72,86.4 4,0"
       style="fill:none;stroke:#000000;stroke-width:0.5;stroke-linecap:butt;stroke-linejoin:round;stroke-miterlimit:10;stroke-opacity:1;stroke-dasharray:none"
       id="path232"
       clip-path="none"
       inkscape:connector-curvature="0" /><path
       d="m 518.4,86.4 -4,0"
       style="fill:none;stroke:#000000;stroke-width:0.5;stroke-linecap:butt;stroke-linejoin:round;stroke-miterlimit:10;stroke-opacity:1;stroke-dasharray:none"
       id="path234"
       clip-path="none"
       inkscape:connector-curvature="0" /><text
       transform="matrix(1,0,0,-1,62.328125,82.110937)"
       id="text236"
       clip-path="none"><tspan
         style="font-size:12px;font-variant:normal;font-weight:normal;writing-mode:lr-tb;fill:#000000;fill-opacity:1;fill-rule:nonzero;stroke:none;font-family:Bitstream Vera Sans;-inkscape-font-specification:BitstreamVeraSans-Roman"
         x="0"
         y="0"
         id="tspan238">5</tspan></text>
<path
       d="m 72,129.6 4,0"
       style="fill:none;stroke:#000000;stroke-width:0.5;stroke-linecap:butt;stroke-linejoin:round;stroke-miterlimit:10;stroke-opacity:1;stroke-dasharray:none"
       id="path240"
       clip-path="none"
       inkscape:connector-curvature="0" /><path
       d="m 518.4,129.6 -4,0"
       style="fill:none;stroke:#000000;stroke-width:0.5;stroke-linecap:butt;stroke-linejoin:round;stroke-miterlimit:10;stroke-opacity:1;stroke-dasharray:none"
       id="path242"
       clip-path="none"
       inkscape:connector-curvature="0" /><text
       transform="matrix(1,0,0,-1,54.828125,125.23281)"
       id="text244"
       clip-path="none"><tspan
         style="font-size:12px;font-variant:normal;font-weight:normal;writing-mode:lr-tb;fill:#000000;fill-opacity:1;fill-rule:nonzero;stroke:none;font-family:Bitstream Vera Sans;-inkscape-font-specification:BitstreamVeraSans-Roman"
         x="0"
         y="0"
         sodipodi:role="line"
         id="tspan246">10</tspan></text>
<path
       d="m 72,172.8 4,0"
       style="fill:none;stroke:#000000;stroke-width:0.5;stroke-linecap:butt;stroke-linejoin:round;stroke-miterlimit:10;stroke-opacity:1;stroke-dasharray:none"
       id="path248"
       clip-path="none"
       inkscape:connector-curvature="0" /><path
       d="m 518.4,172.8 -4,0"
       style="fill:none;stroke:#000000;stroke-width:0.5;stroke-linecap:butt;stroke-linejoin:round;stroke-miterlimit:10;stroke-opacity:1;stroke-dasharray:none"
       id="path250"
       clip-path="none"
       inkscape:connector-curvature="0" /><text
       transform="matrix(1,0,0,-1,55.078125,168.51094)"
       id="text252"
       clip-path="none"><tspan
         style="font-size:12px;font-variant:normal;font-weight:normal;writing-mode:lr-tb;fill:#000000;fill-opacity:1;fill-rule:nonzero;stroke:none;font-family:Bitstream Vera Sans;-inkscape-font-specification:BitstreamVeraSans-Roman"
         x="0"
         y="0"
         sodipodi:role="line"
         id="tspan254">15</tspan></text>
<path
       d="m 72,216 4,0"
       style="fill:none;stroke:#000000;stroke-width:0.5;stroke-linecap:butt;stroke-linejoin:round;stroke-miterlimit:10;stroke-opacity:1;stroke-dasharray:none"
       id="path256"
       clip-path="none"
       inkscape:connector-curvature="0" /><path
       d="m 518.4,216 -4,0"
       style="fill:none;stroke:#000000;stroke-width:0.5;stroke-linecap:butt;stroke-linejoin:round;stroke-miterlimit:10;stroke-opacity:1;stroke-dasharray:none"
       id="path258"
       clip-path="none"
       inkscape:connector-curvature="0" /><text
       transform="matrix(1,0,0,-1,54.390625,211.63281)"
       id="text260"
       clip-path="none"><tspan
         style="font-size:12px;font-variant:normal;font-weight:normal;writing-mode:lr-tb;fill:#000000;fill-opacity:1;fill-rule:nonzero;stroke:none;font-family:Bitstream Vera Sans;-inkscape-font-specification:BitstreamVeraSans-Roman"
         x="0"
         y="0"
         sodipodi:role="line"
         id="tspan262">20</tspan></text>
<path
       d="m 72,259.2 4,0"
       style="fill:none;stroke:#000000;stroke-width:0.5;stroke-linecap:butt;stroke-linejoin:round;stroke-miterlimit:10;stroke-opacity:1;stroke-dasharray:none"
       id="path264"
       clip-path="none"
       inkscape:connector-curvature="0" /><path
       d="m 518.4,259.2 -4,0"
       style="fill:none;stroke:#000000;stroke-width:0.5;stroke-linecap:butt;stroke-linejoin:round;stroke-miterlimit:10;stroke-opacity:1;stroke-dasharray:none"
       id="path266"
       clip-path="none"
       inkscape:connector-curvature="0" /><text
       transform="matrix(1,0,0,-1,54.640625,254.83281)"
       id="text268"
       clip-path="none"><tspan
         style="font-size:12px;font-variant:normal;font-weight:normal;writing-mode:lr-tb;fill:#000000;fill-opacity:1;fill-rule:nonzero;stroke:none;font-family:Bitstream Vera Sans;-inkscape-font-specification:BitstreamVeraSans-Roman"
         x="0"
         y="0"
         sodipodi:role="line"
         id="tspan270">25</tspan></text>
<path
       d="m 72,302.4 4,0"
       style="fill:none;stroke:#000000;stroke-width:0.5;stroke-linecap:butt;stroke-linejoin:round;stroke-miterlimit:10;stroke-opacity:1;stroke-dasharray:none"
       id="path272"
       clip-path="none"
       inkscape:connector-curvature="0" /><path
       d="m 518.4,302.4 -4,0"
       style="fill:none;stroke:#000000;stroke-width:0.5;stroke-linecap:butt;stroke-linejoin:round;stroke-miterlimit:10;stroke-opacity:1;stroke-dasharray:none"
       id="path274"
       clip-path="none"
       inkscape:connector-curvature="0" /><text
       transform="matrix(1,0,0,-1,54.4375,298.03281)"
       id="text276"
       clip-path="none"><tspan
         style="font-size:12px;font-variant:normal;font-weight:normal;writing-mode:lr-tb;fill:#000000;fill-opacity:1;fill-rule:nonzero;stroke:none;font-family:Bitstream Vera Sans;-inkscape-font-specification:BitstreamVeraSans-Roman"
         x="0"
         y="0"
         sodipodi:role="line"
         id="tspan278">30</tspan></text>
<path
       d="m 72,345.6 4,0"
       style="fill:none;stroke:#000000;stroke-width:0.5;stroke-linecap:butt;stroke-linejoin:round;stroke-miterlimit:10;stroke-opacity:1;stroke-dasharray:none"
       id="path280"
       clip-path="none"
       inkscape:connector-curvature="0" /><path
       d="m 518.4,345.6 -4,0"
       style="fill:none;stroke:#000000;stroke-width:0.5;stroke-linecap:butt;stroke-linejoin:round;stroke-miterlimit:10;stroke-opacity:1;stroke-dasharray:none"
       id="path282"
       clip-path="none"
       inkscape:connector-curvature="0" /><text
       transform="matrix(1,0,0,-1,54.6875,341.23281)"
       id="text284"
       clip-path="none"><tspan
         style="font-size:12px;font-variant:normal;font-weight:normal;writing-mode:lr-tb;fill:#000000;fill-opacity:1;fill-rule:nonzero;stroke:none;font-family:Bitstream Vera Sans;-inkscape-font-specification:BitstreamVeraSans-Roman"
         x="0"
         y="0"
         sodipodi:role="line"
         id="tspan286">35</tspan></text>
<path
       d="m 72,388.8 4,0"
       style="fill:none;stroke:#000000;stroke-width:0.5;stroke-linecap:butt;stroke-linejoin:round;stroke-miterlimit:10;stroke-opacity:1;stroke-dasharray:none"
       id="path288"
       clip-path="none"
       inkscape:connector-curvature="0" /><path
       d="m 518.4,388.8 -4,0"
       style="fill:none;stroke:#000000;stroke-width:0.5;stroke-linecap:butt;stroke-linejoin:round;stroke-miterlimit:10;stroke-opacity:1;stroke-dasharray:none"
       id="path290"
       clip-path="none"
       inkscape:connector-curvature="0" /><text
       transform="matrix(1,0,0,-1,54.109375,384.43281)"
       id="text292"
       clip-path="none"><tspan
         style="font-size:12px;font-variant:normal;font-weight:normal;writing-mode:lr-tb;fill:#000000;fill-opacity:1;fill-rule:nonzero;stroke:none;font-family:Bitstream Vera Sans;-inkscape-font-specification:BitstreamVeraSans-Roman"
         x="0"
         y="0"
         sodipodi:role="line"
         id="tspan294">40</tspan></text>
<text
       transform="matrix(0,1,1,0,48.9375,182.09375)"
       id="text296"
       clip-path="none"><tspan
         style="font-size:12px;font-variant:normal;font-weight:normal;writing-mode:lr-tb;fill:#000000;fill-opacity:1;fill-rule:nonzero;stroke:none;font-family:Bitstream Vera Sans;-inkscape-font-specification:BitstreamVeraSans-Roman"
         x="0"
         y="0"
         sodipodi:role="line"
         id="tspan298">Distribution</tspan></text>
<path
       d="m 72,388.8 446.4,0"
       style="fill:none;stroke:#000000;stroke-width:1;stroke-linecap:square;stroke-linejoin:round;stroke-miterlimit:10;stroke-opacity:1;stroke-dasharray:none"
       id="path300"
       clip-path="none"
       inkscape:connector-curvature="0" /><path
       d="m 518.4,43.2 0,345.6"
       style="fill:none;stroke:#000000;stroke-width:1;stroke-linecap:square;stroke-linejoin:round;stroke-miterlimit:10;stroke-opacity:1;stroke-dasharray:none"
       id="path302"
       clip-path="none"
       inkscape:connector-curvature="0" /><path
       d="m 72,43.2 446.4,0"
       style="fill:none;stroke:#000000;stroke-width:1;stroke-linecap:square;stroke-linejoin:round;stroke-miterlimit:10;stroke-opacity:1;stroke-dasharray:none"
       id="path304"
       clip-path="none"
       inkscape:connector-curvature="0" /><path
       d="m 72,43.2 0,345.6"
       style="fill:none;stroke:#000000;stroke-width:1;stroke-linecap:square;stroke-linejoin:round;stroke-miterlimit:10;stroke-opacity:1;stroke-dasharray:none"
       id="path306"
       clip-path="none"
       inkscape:connector-curvature="0" /><text
       transform="matrix(0,1,1,0,138.32612,391.026)"
       id="text308"
       clip-path="none"><tspan
         style="font-size:7px;font-variant:normal;font-weight:normal;writing-mode:lr-tb;fill:#000000;fill-opacity:1;fill-rule:nonzero;stroke:none;font-family:Bitstream Vera Sans;-inkscape-font-specification:BitstreamVeraSans-Roman"
         x="0"
         y="0"
         sodipodi:role="line"
         id="tspan310">1:1</tspan></text>
<text
       transform="matrix(0,1,1,0,457.23013,391.026)"
       id="text312"
       clip-path="none"><tspan
         style="font-size:7px;font-variant:normal;font-weight:normal;writing-mode:lr-tb;fill:#000000;fill-opacity:1;fill-rule:nonzero;stroke:none;font-family:Bitstream Vera Sans;-inkscape-font-specification:BitstreamVeraSans-Roman"
         x="0"
         y="0"
         sodipodi:role="line"
         id="tspan314">2:1</tspan></text>
<text
       transform="matrix(0,1,1,0,297.75469,391.026)"
       id="text316"
       clip-path="none"><tspan
         style="font-size:7px;font-variant:normal;font-weight:normal;writing-mode:lr-tb;fill:#000000;fill-opacity:1;fill-rule:nonzero;stroke:none;font-family:Bitstream Vera Sans;-inkscape-font-specification:BitstreamVeraSans-Roman"
         x="0"
         y="0"
         sodipodi:role="line"
         id="tspan318">3:2</tspan></text>
<text
       transform="matrix(0,1,1,0,244.61183,391.026)"
       id="text320"
       clip-path="none"><tspan
         style="font-size:7px;font-variant:normal;font-weight:normal;writing-mode:lr-tb;fill:#000000;fill-opacity:1;fill-rule:nonzero;stroke:none;font-family:Bitstream Vera Sans;-inkscape-font-specification:BitstreamVeraSans-Roman"
         x="0"
         y="0"
         sodipodi:role="line"
         id="tspan322">4:3</tspan></text>
<text
       transform="matrix(0,1,1,0,217.99353,391.026)"
       id="text324"
       clip-path="none"><tspan
         style="font-size:7px;font-variant:normal;font-weight:normal;writing-mode:lr-tb;fill:#000000;fill-opacity:1;fill-rule:nonzero;stroke:none;font-family:Bitstream Vera Sans;-inkscape-font-specification:BitstreamVeraSans-Roman"
         x="0"
         y="0"
         sodipodi:role="line"
         id="tspan326">5:4</tspan></text>
<text
       transform="matrix(0,1,1,0,202.09754,391.026)"
       id="text328"
       clip-path="none"><tspan
         style="font-size:7px;font-variant:normal;font-weight:normal;writing-mode:lr-tb;fill:#000000;fill-opacity:1;fill-rule:nonzero;stroke:none;font-family:Bitstream Vera Sans;-inkscape-font-specification:BitstreamVeraSans-Roman"
         x="0"
         y="0"
         sodipodi:role="line"
         id="tspan330">6:5</tspan></text>
<text
       transform="matrix(0,1,1,0,191.46897,391.026)"
       id="text332"
       clip-path="none"><tspan
         style="font-size:7px;font-variant:normal;font-weight:normal;writing-mode:lr-tb;fill:#000000;fill-opacity:1;fill-rule:nonzero;stroke:none;font-family:Bitstream Vera Sans;-inkscape-font-specification:BitstreamVeraSans-Roman"
         x="0"
         y="0"
         sodipodi:role="line"
         id="tspan334">7:6</tspan></text>
<text
       transform="matrix(0,1,1,0,183.87714,391.026)"
       id="text336"
       clip-path="none"><tspan
         style="font-size:7px;font-variant:normal;font-weight:normal;writing-mode:lr-tb;fill:#000000;fill-opacity:1;fill-rule:nonzero;stroke:none;font-family:Bitstream Vera Sans;-inkscape-font-specification:BitstreamVeraSans-Roman"
         x="0"
         y="0"
         sodipodi:role="line"
         id="tspan338">8:7</tspan></text>
<text
       transform="matrix(0,1,1,0,178.18326,391.026)"
       id="text340"
       clip-path="none"><tspan
         style="font-size:7px;font-variant:normal;font-weight:normal;writing-mode:lr-tb;fill:#000000;fill-opacity:1;fill-rule:nonzero;stroke:none;font-family:Bitstream Vera Sans;-inkscape-font-specification:BitstreamVeraSans-Roman"
         x="0"
         y="0"
         sodipodi:role="line"
         id="tspan342">9:8</tspan></text>
<text
       transform="matrix(0,1,1,0,173.75469,391.026)"
       id="text344"
       clip-path="none"><tspan
         style="font-size:7px;font-variant:normal;font-weight:normal;writing-mode:lr-tb;fill:#000000;fill-opacity:1;fill-rule:nonzero;stroke:none;font-family:Bitstream Vera Sans;-inkscape-font-specification:BitstreamVeraSans-Roman"
         x="0"
         y="0"
         sodipodi:role="line"
         id="tspan346">10:9</tspan></text>
<text
       transform="matrix(0,1,1,0,170.21183,391.026)"
       id="text348"
       clip-path="none"><tspan
         style="font-size:7px;font-variant:normal;font-weight:normal;writing-mode:lr-tb;fill:#000000;fill-opacity:1;fill-rule:nonzero;stroke:none;font-family:Bitstream Vera Sans;-inkscape-font-specification:BitstreamVeraSans-Roman"
         x="0"
         y="0"
         sodipodi:role="line"
         id="tspan350">11:10</tspan></text>
<path
       d="m 420.64125,358.87052 90.55875,0 0,22.72948 -90.55875,0 z"
       style="fill:#ffffff;fill-opacity:1;fill-rule:nonzero;stroke:#000000;stroke-width:1;stroke-linecap:square;stroke-linejoin:round;stroke-miterlimit:10;stroke-opacity:1;stroke-dasharray:none"
       id="path352"
       clip-path="none"
       inkscape:connector-curvature="0"
       sodipodi:nodetypes="ccccc" /><path
       d="m 426.40125,365.19937 28.8,0 0,10.08 -28.8,0 0,-10.08 z"
       style="fill:none;stroke:#ff0000;stroke-width:1;stroke-linecap:square;stroke-linejoin:round;stroke-miterlimit:10;stroke-opacity:1;stroke-dasharray:none"
       id="path354"
       clip-path="none"
       inkscape:connector-curvature="0" /><text
       transform="matrix(1,0,0,-1,466.72125,365.19937)"
       id="text356"
       clip-path="none"><tspan
         style="font-size:14.39999962px;font-variant:normal;font-weight:normal;writing-mode:lr-tb;fill:#000000;fill-opacity:1;fill-rule:nonzero;stroke:none;font-family:Bitstream Vera Sans;-inkscape-font-specification:BitstreamVeraSans-Roman"
         x="0"
         y="0"
         sodipodi:role="line"
         id="tspan358">N~60</tspan></text>
</g></svg>