<?xml version="1.0" encoding="UTF-8" standalone="no"?>
<!-- Created with Inkscape (http://www.inkscape.org/) -->
<svg
   xmlns:dc="http://purl.org/dc/elements/1.1/"
   xmlns:cc="http://creativecommons.org/ns#"
   xmlns:rdf="http://www.w3.org/1999/02/22-rdf-syntax-ns#"
   xmlns:svg="http://www.w3.org/2000/svg"
   xmlns="http://www.w3.org/2000/svg"
   xmlns:sodipodi="http://sodipodi.sourceforge.net/DTD/sodipodi-0.dtd"
   xmlns:inkscape="http://www.inkscape.org/namespaces/inkscape"
   width="332.90704"
   height="359.63007"
   id="svg2473"
   sodipodi:version="0.32"
   inkscape:version="0.46"
   sodipodi:docname="logo-bx1.svg"
   inkscape:output_extension="org.inkscape.output.svg.inkscape"
   version="1.0">
  <defs
     id="defs2475" />
  <sodipodi:namedview
     id="base"
     pagecolor="#ffffff"
     bordercolor="#666666"
     borderopacity="1.0"
     inkscape:pageopacity="0.0"
     inkscape:pageshadow="2"
     inkscape:zoom="1"
     inkscape:cx="208.28738"
     inkscape:cy="263.30257"
     inkscape:document-units="px"
     inkscape:current-layer="layer1"
     showgrid="false"
     inkscape:window-width="1440"
     inkscape:window-height="817"
     inkscape:window-x="0"
     inkscape:window-y="29"
     showguides="true"
     inkscape:guide-bbox="true" />
  <metadata
     id="metadata2478">
    <rdf:RDF>
      <cc:Work
         rdf:about="">
        <dc:format>image/svg+xml</dc:format>
        <dc:type
           rdf:resource="http://purl.org/dc/dcmitype/StillImage" />
      </cc:Work>
    </rdf:RDF>
  </metadata>
  <g
     inkscape:label="Calque 1"
     inkscape:groupmode="layer"
     id="layer1"
     transform="translate(-211.63114,-353.45722)">
    <path
       id="path2393"
       style="fill:#146018;fill-opacity:1;fill-rule:evenodd;stroke:none;stroke-width:1px;stroke-linecap:butt;stroke-linejoin:miter;stroke-opacity:1"
       d="M 394.10714,353.45722 L 383.83929,353.46472 C 388.91914,435.40872 389.82236,549.0803 413.65747,638.95158 C 422.36698,638.95158 429.31222,638.13881 437.1396,636.57658 C 409.41356,546.54208 399.68972,444.50187 394.10714,353.45722 z M 406.71267,353.46471 L 397.35026,353.45722 C 412.85671,449.23832 436.90053,542.16224 488.53503,624.56258 C 495.70002,622.04694 502.199,618.86529 507.34912,614.33478 C 452.89108,526.65205 424.28549,438.80858 406.71267,353.46471 z M 410.62701,353.46543 C 432.68029,433.27895 478.75344,517.45566 532.7292,582.76752 C 548.97066,542.24215 532.25263,497.73277 487.65114,485.41407 C 544.67082,441.84415 537.02456,353.46543 410.62701,353.46543 z"
       sodipodi:nodetypes="cccccccccccccc" />
    <path
       id="path2381"
       style="fill:#0406a8;fill-opacity:1;fill-rule:evenodd;stroke:none;stroke-width:1px;stroke-linecap:butt;stroke-linejoin:miter;stroke-opacity:1"
       d="M 255.18979,550.94771 L 255.18979,353.46289 L 354.05847,353.45722 C 332.30279,427.84894 288.83809,500.88169 255.18979,550.94771 z M 367.19045,353.45722 L 357.21519,353.45722 C 339.38899,451.5522 300.26002,541.04415 255.18979,615.85001 L 255.18979,638.95725 L 265.16504,638.95725 C 317.41784,564.55817 350.06729,458.468 367.19045,353.45722 z M 380.70124,353.45722 L 369.71583,353.45722 C 363.7007,454.35115 351.18783,551.13479 325.26912,638.95725 L 347.99755,638.95725 C 369.46616,573.16481 377.11116,450.38558 380.70124,353.45722 z"
       sodipodi:nodetypes="ccccccccccccccc" />
    <text
       xml:space="preserve"
       style="font-size:42.66799545px;font-style:normal;font-weight:bold;fill:#0406a8;fill-opacity:1;stroke:none;stroke-width:1px;stroke-linecap:butt;stroke-linejoin:miter;stroke-opacity:1;font-family:Bitstream Vera Sans;-inkscape-font-specification:Bitstream Vera Sans Bold"
       x="197.10448"
       y="734.98053"
       id="text2400"
       transform="scale(1.0801885,0.9257644)"><tspan
         sodipodi:role="line"
         id="tspan2402"
         x="197.10448"
         y="734.98053">BORDEAUX 1</tspan></text>
    <text
       xml:space="preserve"
       style="font-size:38.88539505px;font-style:normal;font-variant:normal;font-weight:normal;font-stretch:normal;text-align:start;line-height:125%;writing-mode:lr-tb;text-anchor:start;fill:#146018;fill-opacity:1;stroke:none;stroke-width:1px;stroke-linecap:butt;stroke-linejoin:miter;stroke-opacity:1;font-family:Bitstream Vera Sans;-inkscape-font-specification:Bitstream Vera Sans"
       x="-511.35733"
       y="302.96954"
       id="text2404"
       transform="matrix(0,-1.261219,0.7928837,0,0,0)"
       sodipodi:linespacing="125%"><tspan
         sodipodi:role="line"
         id="tspan2406"
         x="-511.35733"
         y="302.96954">UNIVERSITÉ</tspan></text>
    <text
       xml:space="preserve"
       style="font-size:28.72572327px;font-style:normal;font-weight:normal;fill:#0406a8;fill-opacity:1;stroke:none;stroke-width:1px;stroke-linecap:butt;stroke-linejoin:miter;stroke-opacity:1;font-family:Bitstream Vera Sans"
       x="212.07108"
       y="717.59271"
       id="text2408"
       transform="scale(1.0146975,0.9855154)"><tspan
         sodipodi:role="line"
         id="tspan2410"
         x="212.07108"
         y="717.59271">Sciences Technologies</tspan></text>
  </g>
</svg>
