<?xml version="1.0" encoding="UTF-8" standalone="no"?>
<!-- Created with Inkscape (http://www.inkscape.org/) -->

<svg
   xmlns:dc="http://purl.org/dc/elements/1.1/"
   xmlns:cc="http://creativecommons.org/ns#"
   xmlns:rdf="http://www.w3.org/1999/02/22-rdf-syntax-ns#"
   xmlns:svg="http://www.w3.org/2000/svg"
   xmlns="http://www.w3.org/2000/svg"
   xmlns:sodipodi="http://sodipodi.sourceforge.net/DTD/sodipodi-0.dtd"
   xmlns:inkscape="http://www.inkscape.org/namespaces/inkscape"
   width="100.35625"
   height="83.792175"
   id="svg14212"
   sodipodi:version="0.32"
   inkscape:version="0.48.1 r9760"
   version="1.0"
   sodipodi:docname="logo_univ_de_bdx.svg"
   inkscape:output_extension="org.inkscape.output.svg.inkscape">
  <defs
     id="defs14214" />
  <sodipodi:namedview
     id="base"
     pagecolor="#ffffff"
     bordercolor="#666666"
     borderopacity="1.0"
     inkscape:pageopacity="0.0"
     inkscape:pageshadow="2"
     inkscape:zoom="5.6"
     inkscape:cx="86.975041"
     inkscape:cy="33.740517"
     inkscape:document-units="px"
     inkscape:current-layer="layer1"
     showgrid="false"
     inkscape:window-width="645"
     inkscape:window-height="726"
     inkscape:window-x="0"
     inkscape:window-y="25" />
  <metadata
     id="metadata14217">
    <rdf:RDF>
      <cc:Work
         rdf:about="">
        <dc:format>image/svg+xml</dc:format>
        <dc:type
           rdf:resource="http://purl.org/dc/dcmitype/StillImage" />
      </cc:Work>
    </rdf:RDF>
  </metadata>
  <g
     inkscape:label="Calque 1"
     inkscape:groupmode="layer"
     id="layer1"
     transform="translate(178.74955,100.96247)">
    <path
       inkscape:connector-curvature="0"
       id="path12328"
       style="fill:#b9d210;fill-opacity:1;fill-rule:nonzero;stroke:none"
       d="m -122.7458,-55.486062 c -1.21125,-7.71875 -3.6,-38.85 10.78875,-38.7925 l -0.63625,-6.678748 c -5.99125,0.83125 -11.9525,7.788748 -16.3025,18.678748 -4.36125,-10.89 -10.31375,-17.847498 -16.30125,-18.678748 l -0.63625,6.678748 c 14.3875,-0.0575 12,31.07375 10.7875,38.7925 l 0,0.02375 c 4.09875,-0.0175 8.2,0.02125 12.3,0" />
    <path
       inkscape:connector-curvature="0"
       id="path12332"
       style="fill:#231f20;fill-opacity:1;fill-rule:nonzero;stroke:none"
       d="m -136.3595,-62.140052 c -14.4,0.0575 -12.38625,-31.13125 -11.175,-38.817498 -4.1125,0.0187 -8.22625,-0.0175 -12.32625,0 2.49,25.512498 12.425,44.103748 22.47875,45.494998" />
    <path
       inkscape:connector-curvature="0"
       id="path12336"
       style="fill:#231f20;fill-opacity:1;fill-rule:nonzero;stroke:none"
       d="m -121.4345,-62.140052 c 14.4025,0.0575 12.39,-31.13125 11.175,-38.817498 4.10125,0.0187 8.21375,-0.0175 12.315,0 -2.475,25.512498 -12.42625,44.103748 -22.46375,45.494998" />
    <path
       inkscape:connector-curvature="0"
       id="path12340"
       style="fill:#231f20;fill-opacity:1;fill-rule:nonzero;stroke:none"
       d="m -178.1733,-42.307042 c 0,-3.60875 0.0125,-4.0375 -0.57625,-4.08625 l 0,-0.17625 c 0.33875,0.005 0.7775,0.015 1.29,0.015 0.48625,0 0.9125,-0.01 1.23625,-0.015 l 0,0.17625 c -0.6125,0.04875 -0.62375,0.4775 -0.62375,4.08625 l 0,2.12375 c 0,1.23875 0.225,1.9775 0.71125,2.57125 0.47625,0.60875 1.31375,0.93625 2.19,0.93625 0.86,0 1.6225,-0.29125 2.135,-0.9 0.50125,-0.58875 0.73875,-1.4375 0.73875,-2.66125 l 0,-2.07 c 0,-3.60625 0,-4.04375 -0.62375,-4.095 l 0,-0.1675 c 0.3475,0.005 0.77375,0.015 1.235,0.015 0.49,0 0.9,-0.01 1.2,-0.015 l 0,0.1675 c -0.54875,0.05125 -0.54875,0.48875 -0.54875,4.095 l 0,2.0725 c 0,1.62625 -0.35125,2.67 -1.01375,3.435 -0.63625,0.775 -1.76125,1.3475 -3.1375,1.3475 -1.46125,0 -2.625,-0.51625 -3.33625,-1.485 -0.6125,-0.765 -0.87625,-1.7225 -0.87625,-3.17125" />
    <path
       inkscape:connector-curvature="0"
       id="path12344"
       style="fill:#231f20;fill-opacity:1;fill-rule:nonzero;stroke:none"
       d="m -158.772,-35.476052 -0.19875,0 c -2.675,-3.1175 -4.265,-4.97375 -5.25,-6.1225 -0.65,-0.75 -1.1,-1.28125 -1.8025,-2.18125 l -0.0238,0 c 0,0.54 0,1.0825 0,3.7075 0,3.80375 0,4.245 0.6,4.29625 l 0,0.1775 c -0.375,-0.01 -0.78875,-0.015 -1.25125,-0.015 -0.48625,0 -0.7975,0.005 -1.125,0.015 l 0,-0.175 c 0.6,-0.0475 0.6,-0.495 0.6,-4.3525 l 0,-6.54625 0.20125,0 c 2.73625,3.2225 4.35,5.12125 5.33625,6.27375 0.615,0.71375 1.065,1.2325 1.71375,2.07875 l 0.0362,0 c -0.01,-0.56375 -0.01,-1.08875 -0.01,-4.01125 0,-3.57 0,-4.0175 -0.62625,-4.065 l 0,-0.17375 c 0.33625,0.0063 0.76125,0.015 1.1875,0.015 0.47375,0 0.8375,-0.0087 1.14875,-0.015 l 0,0.17375 c -0.53625,0.05125 -0.53625,0.495 -0.53625,4.10375" />
    <path
       inkscape:connector-curvature="0"
       id="path12348"
       style="fill:#231f20;fill-opacity:1;fill-rule:nonzero;stroke:none"
       d="m -154.6596,-40.117052 c 0,3.86125 0,4.26625 0.63875,4.3375 l 0,0.18 c -0.35,-0.0087 -0.8,-0.015 -1.29,-0.015 -0.54875,0 -0.95,0.0063 -1.275,0.015 l 0,-0.185 c 0.615,-0.06625 0.615,-0.46875 0.615,-4.32375 l 0,-2.19875 c 0,-3.60875 0,-4.0175 -0.59,-4.07125 l 0,-0.19125 c 0.3,0.005 0.725,0.015 1.22625,0.015 0.47375,0 0.93875,-0.01 1.25125,-0.015 l 0,0.185 c -0.57625,0.06 -0.57625,0.465 -0.57625,4.075" />
    <path
       inkscape:connector-curvature="0"
       id="path12352"
       style="fill:#231f20;fill-opacity:1;fill-rule:nonzero;stroke:none"
       d="m -148.1858,-35.452052 -0.1975,0 -2.82625,-6.855 c -1.5,-3.62125 -1.70125,-4.035 -2.1625,-4.0825 l 0,-0.18 c 0.2125,0.005 0.675,0.015 1.22625,0.015 0.5375,0 1.05,-0.01 1.375,-0.015 l 0,0.18 c -0.7,0.04125 -0.51375,0.47 0.8,3.705 0.9,2.225 1.3,3.2725 1.725,4.49 l 0.025,0 c 0.41,-1.20875 0.8,-2.23125 1.7125,-4.4875 1.29875,-3.23375 1.47625,-3.6575 0.825,-3.7075 l 0,-0.18 c 0.33625,0.005 0.87625,0.015 1.3375,0.015 0.475,0 0.88875,-0.01 1.09875,-0.015 l 0,0.18 c -0.435,0.0475 -0.62375,0.47375 -2.12375,4.0825" />
    <path
       inkscape:connector-curvature="0"
       id="path12356"
       style="fill:#231f20;fill-opacity:1;fill-rule:nonzero;stroke:none"
       d="m -141.9095,-42.307042 c 0,-3.6025 0,-4.0375 -0.525,-4.08625 l 0,-0.17625 c 0.51375,0.005 1.48875,0.015 2.625,0.015 1.1375,0 2.325,-0.01 3.06375,-0.015 -0.025,0.58125 -0.0513,1.185 -0.0513,1.785 l -0.17375,0 c -0.075,-0.57375 -0.475,-0.68125 -1.4375,-0.68125 l -2.19875,0 0,3.71125 1.935,0 c 0.99,0 1.30125,-0.0125 1.40125,-0.36 l 0.15,0 c -0.0125,0.31125 -0.025,0.59625 -0.025,0.88125 0,0.33625 0.0125,0.6425 0.025,0.98375 l -0.15,0 c -0.1,-0.3925 -0.3875,-0.41625 -1.375,-0.41625 l -1.96125,0 0,3.59375 c 0,0.29125 0.0112,0.32125 0.285,0.33625 1.05,0.0025 1.75125,0.0025 2.43875,0 0.6625,-0.0038 1.0375,-0.05375 1.14875,-0.62125 l 0.1625,0 c -0.0125,0.51 -0.0362,1.155 -0.0362,1.7575 -0.84875,-0.0087 -1.98875,-0.015 -3.03875,-0.015 -1.22375,0 -2.29875,0.0063 -2.82375,0.015 l 0,-0.18 c 0.56125,-0.0475 0.56125,-0.47375 0.56125,-4.335" />
    <path
       inkscape:connector-curvature="0"
       id="path12360"
       style="fill:#231f20;fill-opacity:1;fill-rule:nonzero;stroke:none"
       d="m -130.0833,-43.480042 c 0,-1.23625 -0.825,-2.01625 -2.2375,-2.01625 -0.27625,0 -0.58875,0.01875 -0.73875,0.03625 l 0,4.20875 c 0.15,0.0125 0.3125,0.01875 0.5375,0.01875 0.5125,0 1.00125,-0.1175 1.37625,-0.33375 0.55,-0.3 1.0625,-0.91125 1.0625,-1.89875 l 0,-0.015 z m -4.25125,1.1725 c 0,-3.60875 0,-4.0375 -0.5725,-4.0675 l 0,-0.165 c 0.36,-0.0063 0.675,-0.0125 1.11,-0.02125 0.375,-0.0087 0.95125,-0.0325 1.31375,-0.0325 0.71125,0 1.38625,0.0775 1.9375,0.285 0.825,0.3 1.8125,1.14625 1.8125,2.75375 0,1.3475 -0.72625,2.18125 -1.31375,2.595 -0.3,0.2225 -0.675,0.4075 -0.9875,0.50375 l 0,0.02375 c 0.3125,0.435 0.6275,0.865 2.67625,3.63625 0.375,0.50125 0.825,0.9725 1.1875,1.0175 l 0,0.17125 c -0.3,0 -0.6,-0.0062 -0.95,-0.0062 -0.25,0 -0.4,0.0062 -0.63625,0.0062 -0.1775,0 -0.36375,-0.06375 -0.48875,-0.18375 -0.88875,-1.26 -1.83625,-2.63125 -3.11125,-4.41875 -0.2525,0 -0.5525,-0.0063 -0.7025,-0.0063 l 0,0.59375 c 0,3.37 0,3.795 0.5525,3.84375 l 0,0.18 c -0.3275,-0.0087 -0.71375,-0.015 -1.17625,-0.015 -0.48875,0 -0.86375,0.0062 -1.22375,0.015 l 0,-0.18 c 0.585,-0.04875 0.5725,-0.47375 0.5725,-4.335" />
    <path
       inkscape:connector-curvature="0"
       id="path12364"
       style="fill:#231f20;fill-opacity:1;fill-rule:nonzero;stroke:none"
       d="m -121.4945,-38.383052 c 0,1.53625 -1.17625,2.91875 -3.39,2.91875 -0.71125,0 -1.52375,-0.17625 -1.97375,-0.36625 0.0362,-0.60875 0.0625,-1.1425 0.075,-1.85625 l 0.17375,0 c 0.075,0.3925 0.26375,0.65625 0.51375,0.825 0.3,0.17625 0.7375,0.26375 1.22625,0.26375 1.11,0 1.99875,-0.6575 1.99875,-1.7225 0,-0.6475 -0.26125,-1.16375 -0.9,-1.695 -0.45,-0.37125 -0.87375,-0.6775 -1.375,-1.08 -0.98625,-0.78875 -1.51125,-1.56 -1.51125,-2.69 0,-1.545 1.21125,-2.85375 3.2125,-2.85375 0.585,0 1.17375,0.09 1.575,0.2225 -0.0387,0.60625 -0.0512,1.15125 -0.075,1.79625 l -0.165,0 c -0.06,-0.35625 -0.225,-0.56 -0.45,-0.69875 -0.21,-0.12 -0.53625,-0.19125 -0.86125,-0.19125 -1.07375,0 -1.88625,0.62625 -1.88625,1.635 0,0.575 0.23625,1.035 0.675,1.45125 0.38625,0.36875 0.84875,0.7025 1.4725,1.185 0.96375,0.75 1.665,1.53 1.665,2.84125" />
    <path
       inkscape:connector-curvature="0"
       id="path12368"
       style="fill:#231f20;fill-opacity:1;fill-rule:nonzero;stroke:none"
       d="m -118.0958,-40.117052 c 0,3.86125 0,4.26625 0.6275,4.3375 l 0,0.18 c -0.33875,-0.0087 -0.78875,-0.015 -1.2775,-0.015 -0.55,0 -0.96375,0.0063 -1.275,0.015 l 0,-0.185 c 0.61125,-0.06625 0.61125,-0.46875 0.61125,-4.32375 l 0,-2.19875 c 0,-3.60875 0,-4.0175 -0.585,-4.07125 l 0,-0.19125 c 0.3,0.005 0.72375,0.015 1.22375,0.015 0.475,0 0.93625,-0.01 1.25125,-0.015 l 0,0.185 c -0.57625,0.06 -0.57625,0.465 -0.57625,4.075" />
    <path
       inkscape:connector-curvature="0"
       id="path12372"
       style="fill:#231f20;fill-opacity:1;fill-rule:nonzero;stroke:none"
       d="m -113.0346,-45.478052 -2.12375,0 c -0.77375,0 -1.02625,0.135 -1.14875,0.72875 l -0.1775,0 c 0,-0.615 -0.0113,-1.24125 -0.0113,-1.815 1.13625,0.0062 2.48625,0.0087 3.5125,0.0087 l 1.2,0 c 1.14875,0 2.49875,-0.0025 3.5125,-0.0087 0,0.57625 0,1.20375 0,1.815 l -0.18875,0 c -0.11125,-0.6 -0.39875,-0.72875 -1.13375,-0.72875 l -2.1275,0 0,5.36375 c 0,3.87375 0,4.29875 0.63625,4.33875 l 0,0.17625 c -0.3475,-0.0063 -0.7975,-0.015 -1.275,-0.015 -0.51,0 -0.98375,0.0087 -1.28375,0.015 l 0,-0.1825 c 0.60875,-0.0575 0.60875,-0.4625 0.60875,-4.3325" />
    <path
       inkscape:connector-curvature="0"
       id="path12376"
       style="fill:#231f20;fill-opacity:1;fill-rule:nonzero;stroke:none"
       d="m -105.0183,-47.470052 1.935,-1.67125 0.465,0.73875 -2.15125,1.26875 -0.24875,-0.33625 z m -1.65,5.1625 c 0,-3.6 0,-4.0375 -0.51375,-4.0825 l 0,-0.18 c 0.51375,0.0062 1.48875,0.015 2.625,0.015 1.1375,0 2.32625,-0.0087 3.06375,-0.015 -0.0275,0.5825 -0.0512,1.185 -0.0637,1.785 l -0.16125,0 c -0.075,-0.5725 -0.4775,-0.68125 -1.4525,-0.68125 l -2.18625,0 0,3.71125 1.925,0 c 1,0 1.31125,-0.0125 1.39875,-0.36 l 0.165,0 c -0.015,0.3125 -0.0275,0.6 -0.0275,0.8825 0,0.335 0.0125,0.64125 0.0275,0.98625 l -0.165,0 c -0.0875,-0.39625 -0.375,-0.42 -1.3625,-0.42 l -1.96125,0 0,3.59375 c 0,0.295 0.0113,0.32125 0.2875,0.34 1.05,0 1.74875,0.0025 2.43625,0 0.6625,-0.0063 1.0375,-0.0575 1.1525,-0.625 l 0.16125,0 c -0.0237,0.51 -0.0512,1.15875 -0.0512,1.75875 -0.83625,-0.0063 -1.97375,-0.015 -3.035,-0.015 -1.2125,0 -2.29,0.0087 -2.815,0.015 l 0,-0.1775 c 0.5525,-0.05125 0.5525,-0.47625 0.5525,-4.3375" />
    <path
       inkscape:connector-curvature="0"
       id="path12380"
       style="fill:#231f20;fill-opacity:1;fill-rule:nonzero;stroke:none"
       d="m -87.969504,-41.275052 c 0,-1.44 -0.62375,-2.685 -1.6375,-3.4075 -0.6875,-0.49 -1.7375,-0.76875 -2.85,-0.76875 -0.45,0 -0.79875,0.01875 -1.18875,0.04875 l 0,8.42 c 0,0.15625 0.03875,0.19875 0.165,0.21625 0.26125,0.03875 0.64875,0.05125 0.9875,0.05125 1.2,0 2.27375,-0.3325 3.03625,-0.9925 0.92625,-0.79 1.4875,-1.9925 1.4875,-3.555 l 0,-0.0125 z m 1.38875,-0.05375 c 0,1.97625 -0.7375,3.50625 -2.04,4.54125 -1.0225,0.835 -2.34875,1.2125 -4.07375,1.2125 -0.41125,0 -1.05,-0.02375 -1.55125,-0.03 -0.46125,-0.0087 -0.9,-0.0087 -1.3225,-0.015 l 0,-0.18625 c 0.6125,-0.05125 0.6125,-0.46125 0.6125,-4.3075 l 0,-2.19375 c 0,-3.60875 0,-3.995 -0.58875,-4.0375 l 0,-0.18625 c 0.3625,-0.0063 0.92375,-0.0325 1.40125,-0.04125 0.525,-0.01 0.975,-0.03 1.6375,-0.03 1.575,0 2.7,0.2875 3.675,0.87 1.41,0.8575 2.25,2.52 2.25,4.38875" />
    <path
       inkscape:connector-curvature="0"
       id="path12384"
       style="fill:#231f20;fill-opacity:1;fill-rule:nonzero;stroke:none"
       d="m -84.555804,-42.307042 c 0,-3.6025 0,-4.0375 -0.5125,-4.08625 l 0,-0.17625 c 0.5125,0.005 1.4875,0.015 2.625,0.015 1.1375,0 2.325,-0.01 3.0625,-0.015 -0.03875,0.58125 -0.05,1.185 -0.05,1.785 l -0.175,0 c -0.075,-0.57375 -0.47625,-0.68125 -1.44,-0.68125 l -2.19875,0 0,3.71125 1.92625,0 c 0.99875,0 1.31125,-0.0125 1.3975,-0.36 l 0.165,0 c -0.015,0.31125 -0.02625,0.59625 -0.02625,0.88125 0,0.33625 0.01125,0.6425 0.02625,0.98375 l -0.165,0 c -0.08625,-0.3925 -0.375,-0.41625 -1.36125,-0.41625 l -1.9625,0 0,3.59375 c 0,0.29125 0.0125,0.32125 0.2875,0.33625 1.05125,0.0025 1.75,0.0025 2.43625,0 0.66375,-0.0038 1.03875,-0.05375 1.1525,-0.62125 l 0.16125,0 c -0.01125,0.51 -0.05,1.155 -0.05,1.7575 -0.8375,-0.0087 -1.975,-0.015 -3.03625,-0.015 -1.2125,0 -2.28875,0.0063 -2.81375,0.015 l 0,-0.18 c 0.55125,-0.0475 0.55125,-0.47375 0.55125,-4.335" />
    <path
       inkscape:connector-curvature="0"
       id="path12388"
       style="fill:#231f20;fill-opacity:1;fill-rule:nonzero;stroke:none"
       d="m -171.7858,-21.556052 c 0,-1.3475 -0.93625,-2.12375 -1.86,-2.4125 -0.45,-0.135 -1.03875,-0.21875 -1.6025,-0.21875 -0.18625,0 -0.5375,0.0062 -0.72625,0.02375 l 0,4.875 c 0,0.28875 0.015,0.325 0.13875,0.3725 0.25125,0.0575 0.56375,0.0625 0.825,0.0625 0.575,0 1.23875,-0.13125 1.665,-0.32375 0.7225,-0.30625 1.56,-1.04125 1.56,-2.36375 l 0,-0.015 z m -0.6,-6.57 c 0,-1.59625 -1.1375,-2.39375 -2.65,-2.39375 -0.39875,0 -0.75,0.02625 -0.93875,0.045 l 0,4.88375 c 0.13875,0.015 0.33875,0.02125 0.51375,0.02125 0.38625,0 0.86375,-0.03875 1.29,-0.16875 0.86,-0.25125 1.785,-0.99875 1.785,-2.36625 l 0,-0.02125 z m 2.4,6.6575 c 0,1.45125 -0.71125,2.585 -1.785,3.26625 -0.87625,0.5675 -1.99,0.83375 -3.615,0.83375 -0.55,0 -1.11375,-0.03875 -1.63875,-0.0475 -0.32375,-0.0062 -0.84875,-0.0125 -1.41,-0.0125 l 0,-0.23625 c 0.78625,-0.0275 0.78625,-0.59375 0.78625,-5.7125 l 0,-2.9125 c 0,-4.7975 0,-5.325 -0.69875,-5.3975 l 0,-0.22125 c 0.375,-0.0038 0.9625,-0.02125 1.37375,-0.025 0.47375,-0.01125 1.1875,-0.03875 1.8125,-0.03875 0.8,0 1.60125,0.11125 2.1625,0.3 1.05,0.33375 2.3875,1.31375 2.3875,3.41125 0,1.71625 -1.1875,2.97625 -2.55,3.26375 l 0,0.03375 c 1.7375,0.23 3.175,1.5475 3.175,3.47625" />
    <path
       inkscape:connector-curvature="0"
       id="path12392"
       style="fill:#231f20;fill-opacity:1;fill-rule:nonzero;stroke:none"
       d="m -155.1458,-24.724052 c 0,-3.315 -2.42625,-5.835 -5.6,-5.835 -3.175,0 -5.59,2.5325 -5.59,5.91625 0,3.38375 2.44,5.9275 5.59,5.9275 3.185,0 5.6,-2.49625 5.6,-5.99125 l 0,-0.0175 z m 1.875,-0.0725 c 0,4.26 -3.15,7.62625 -7.575,7.62625 -4.125,0 -7.38875,-3.2425 -7.38875,-7.40625 0,-4.37125 3.3,-7.545 7.6625,-7.545 4.17625,0 7.30125,3.11 7.30125,7.3075" />
    <path
       inkscape:connector-curvature="0"
       id="path12396"
       style="fill:#231f20;fill-opacity:1;fill-rule:nonzero;stroke:none"
       d="m -144.9208,-27.850052 c 0,-1.64125 -1.10125,-2.67625 -2.98875,-2.67625 -0.35125,0 -0.77375,0.02125 -0.975,0.04875 l 0,5.58875 c 0.20125,0.02125 0.42625,0.02625 0.72625,0.02625 0.675,0 1.32625,-0.155 1.8125,-0.44 0.7375,-0.4025 1.425,-1.215 1.425,-2.53 l 0,-0.0175 z m -5.65,1.56 c 0,-4.7975 0,-5.36375 -0.765,-5.40625 l 0,-0.21875 c 0.4775,-0.0025 0.88875,-0.0175 1.47625,-0.02375 0.50125,-0.015 1.26375,-0.04875 1.74875,-0.04875 0.94,0 1.84,0.105 2.5775,0.38125 1.10125,0.39875 2.4,1.52375 2.4,3.66 0,1.785 -0.9625,2.89875 -1.7375,3.44375 -0.40125,0.2975 -0.9,0.54375 -1.325,0.6725 l 0,0.0325 c 0.425,0.57625 0.83625,1.14625 3.56375,4.8275 0.4975,0.675 1.0975,1.2925 1.575,1.35625 l 0,0.2275 c -0.39,0 -0.78875,-0.0087 -1.25125,-0.0087 -0.33875,0 -0.5375,0.0087 -0.8375,0.0087 -0.25125,0 -0.5,-0.08375 -0.675,-0.24875 -1.175,-1.67375 -2.42625,-3.4925 -4.125,-5.8675 -0.32625,0 -0.725,-0.0062 -0.93875,-0.0062 l 0,0.78875 c 0,4.4725 0.0125,5.04 0.73875,5.10625 l 0,0.23625 c -0.42625,-0.0087 -0.95125,-0.0175 -1.55125,-0.0175 -0.66375,0 -1.16125,0.0087 -1.63875,0.0175 l 0,-0.23625 c 0.7775,-0.06625 0.765,-0.63375 0.765,-5.76375" />
    <path
       inkscape:connector-curvature="0"
       id="path12400"
       style="fill:#231f20;fill-opacity:1;fill-rule:nonzero;stroke:none"
       d="m -130.1583,-24.922062 c 0,-1.91375 -0.8375,-3.5675 -2.1625,-4.5275 -0.9125,-0.6475 -2.325,-1.02 -3.80125,-1.02 -0.6,0 -1.0625,0.0275 -1.575,0.07 l 0,11.18375 c 0,0.20625 0.0512,0.26375 0.2125,0.2875 0.36375,0.04875 0.87625,0.06875 1.31375,0.06875 1.6,0 3.025,-0.44375 4.03875,-1.31625 1.22375,-1.05625 1.97375,-2.6525 1.97375,-4.72875 l 0,-0.0175 z m 1.83625,-0.06875 c 0,2.6275 -0.975,4.65875 -2.685,6.03625 -1.365,1.10375 -3.13875,1.6075 -5.4275,1.6075 -0.54875,0 -1.3975,-0.03 -2.06125,-0.0425 -0.61125,-0.005 -1.1875,-0.01125 -1.76375,-0.0175 l 0,-0.24625 c 0.825,-0.07125 0.825,-0.61125 0.825,-5.72375 l 0,-2.9125 c 0,-4.7975 0,-5.3075 -0.78625,-5.3675 l 0,-0.2425 c 0.48625,-0.0125 1.225,-0.04875 1.86375,-0.0575 0.69875,-0.0125 1.28625,-0.03875 2.16,-0.03875 2.1,0 3.615,0.38125 4.89,1.15125 1.88625,1.14375 2.985,3.34875 2.985,5.835" />
    <path
       inkscape:connector-curvature="0"
       id="path12404"
       style="fill:#231f20;fill-opacity:1;fill-rule:nonzero;stroke:none"
       d="m -125.6196,-26.290052 c 0,-4.7875 0,-5.36375 -0.69,-5.4275 l 0,-0.24 c 0.69,0.0063 1.98875,0.02125 3.50125,0.02125 1.5,0 3.075,-0.01125 4.0625,-0.02125 -0.0362,0.775 -0.075,1.57875 -0.075,2.37375 l -0.225,0 c -0.1,-0.75875 -0.63625,-0.90375 -1.91125,-0.90375 l -2.925,0 0,4.92625 2.57375,0 c 1.32625,0 1.725,-0.01125 1.85125,-0.47375 l 0.2125,0 c -0.015,0.41375 -0.0262,0.7925 -0.0262,1.1725 0,0.445 0.0112,0.85 0.0262,1.305 l -0.20125,0 c -0.125,-0.52125 -0.525,-0.55125 -1.82375,-0.55125 l -2.6125,0 0,4.7725 c 0,0.3875 0.0237,0.42875 0.38625,0.45 1.38625,0 2.325,0.0038 3.2375,0 0.8875,-0.0087 1.37375,-0.07125 1.52375,-0.8275 l 0.225,0 c -0.0237,0.67125 -0.06,1.53625 -0.06,2.33625 -1.125,-0.01125 -2.64,-0.02 -4.0375,-0.02 -1.61375,0 -3.05125,0.0088 -3.75,0.02 l 0,-0.24 c 0.7375,-0.0625 0.7375,-0.63 0.7375,-5.76" />
    <path
       inkscape:connector-curvature="0"
       id="path12408"
       style="fill:#231f20;fill-opacity:1;fill-rule:nonzero;stroke:none"
       d="m -108.957,-22.951042 -0.0275,-0.06625 c -1.65,-4.46125 -1.8475,-4.99125 -1.9975,-5.51375 l -0.0275,0 c -0.15,0.51625 -0.375,1.05875 -2.10875,5.51375 l -0.015,0.06625 4.17625,0 z m -4.71375,1.41 c -1.3225,3.2975 -1.5475,3.86375 -0.75,3.92125 l 0,0.2425 c -0.47375,-0.01125 -1.0375,-0.02125 -1.6375,-0.02125 -0.6875,0 -1.1875,0.01 -1.52375,0.02125 l 0,-0.2425 c 0.5725,-0.05125 0.84875,-0.615 2.96375,-5.775 l 3.5725,-8.79 0.28875,0 3.47375,8.805 c 2.04,5.1325 2.27625,5.69625 2.8375,5.76 l 0,0.2425 c -0.3,-0.01125 -0.785,-0.02125 -1.4875,-0.02125 -0.64875,0 -1.2875,0.01 -1.77625,0.02125 l 0,-0.2425 c 0.78875,-0.0575 0.5525,-0.62125 -0.7225,-3.92125" />
    <path
       inkscape:connector-curvature="0"
       id="path12412"
       style="fill:#231f20;fill-opacity:1;fill-rule:nonzero;stroke:none"
       d="m -102.9458,-26.290052 c 0,-4.7975 0,-5.36375 -0.77375,-5.4275 l 0,-0.24 c 0.45,0.01 1.02625,0.02125 1.7125,0.02125 0.64875,0 1.225,-0.01125 1.63875,-0.02125 l 0,0.24 c -0.8125,0.06375 -0.8125,0.63 -0.8125,5.4275 l 0,2.8225 c 0,1.645 0.3,2.62875 0.935,3.415 0.6275,0.80625 1.7375,1.24125 2.90125,1.24125 1.14875,0 2.1625,-0.38375 2.85,-1.19125 0.66375,-0.785 0.975,-1.91375 0.975,-3.54 l 0,-2.7475 c 0,-4.79375 0.0125,-5.37625 -0.825,-5.4425 l 0,-0.225 c 0.4625,0.01 1.02625,0.02125 1.63875,0.02125 0.65,0 1.1875,-0.01125 1.58625,-0.02125 l 0,0.225 c -0.71125,0.06625 -0.72625,0.64875 -0.72625,5.4425 l 0,2.75375 c 0,2.16375 -0.46125,3.54875 -1.35,4.56625 -0.83625,1.02875 -2.33625,1.7875 -4.16125,1.7875 -1.9375,0 -3.48875,-0.69 -4.42375,-1.97375 -0.825,-1.01375 -1.165,-2.2825 -1.165,-4.21125" />
    <path
       inkscape:connector-curvature="0"
       id="path12416"
       style="fill:#231f20;fill-opacity:1;fill-rule:nonzero;stroke:none"
       d="m -85.218304,-24.751042 -1.48875,-2.51125 c -2.32375,-3.795 -2.63625,-4.37125 -3.275,-4.455 l 0,-0.24 c 0.275,0.0087 0.87625,0.02125 1.61375,0.02125 0.6625,0 1.2875,-0.0125 1.83625,-0.02125 l 0,0.24 c -0.8375,0.07875 -0.42375,0.67875 1.2,3.4625 0.3625,0.61125 0.76125,1.28625 1.1125,1.9225 l 0.02375,0 c 0.36375,-0.65625 0.765,-1.31125 1.11375,-1.91625 1.62625,-2.8 2,-3.3875 1.2625,-3.46875 l 0,-0.24 c 0.6125,0.0087 1.16375,0.02125 1.8,0.02125 0.69875,0 1.125,-0.0125 1.38875,-0.02125 l 0,0.24 c -0.62625,0.09375 -0.915,0.6425 -3.225,4.44 l -1.4125,2.39125 1.3375,2.27125 c 2.65,4.4425 2.91375,4.9225 3.5375,4.9975 l 0,0.24 c -0.3125,-0.01125 -0.87625,-0.02125 -1.6775,-0.02125 -0.75,0 -1.3225,0.01 -1.835,0.02125 l 0,-0.24 c 0.84875,-0.05625 0.5125,-0.65375 -1.225,-3.72 -0.40125,-0.68625 -0.8125,-1.3825 -1.16375,-2.00375 l -0.02375,0 c -0.33875,0.63 -0.72625,1.305 -1.1125,1.95625 -1.77625,3.07125 -2.1125,3.69625 -1.35,3.765 l 0,0.2425 c -0.4625,-0.01125 -1.10125,-0.02125 -1.77625,-0.02125 -0.69875,0 -1.24875,0.01 -1.5875,0.02125 l 0,-0.24 c 0.65125,-0.0775 0.99875,-0.67125 3.63875,-4.9675" />
  </g>
</svg>
