<?xml version="1.0" encoding="UTF-8" standalone="no"?>
<!-- Created with Inkscape (http://www.inkscape.org/) -->

<svg
   xmlns:dc="http://purl.org/dc/elements/1.1/"
   xmlns:cc="http://creativecommons.org/ns#"
   xmlns:rdf="http://www.w3.org/1999/02/22-rdf-syntax-ns#"
   xmlns:svg="http://www.w3.org/2000/svg"
   xmlns="http://www.w3.org/2000/svg"
   xmlns:xlink="http://www.w3.org/1999/xlink"
   xmlns:sodipodi="http://sodipodi.sourceforge.net/DTD/sodipodi-0.dtd"
   xmlns:inkscape="http://www.inkscape.org/namespaces/inkscape"
   width="119.87759"
   height="119.87944"
   id="svg2"
   version="1.1"
   inkscape:version="0.48.2 r9819"
   sodipodi:docname="logo-cnrs.svg">
  <defs
     id="defs4">
    <radialGradient
       id="radialGradient2889"
       spreadMethod="pad"
       gradientTransform="matrix(60.5359,0,0,-60.5359,58.8594,62.7852)"
       gradientUnits="userSpaceOnUse"
       r="1"
       cy="0"
       cx="0"
       fy="0"
       fx="0">
      <stop
         id="stop2891"
         offset="0"
         style="stop-opacity:1;stop-color:#486492" />
      <stop
         id="stop2893"
         offset="1"
         style="stop-opacity:1;stop-color:#132746" />
    </radialGradient>
    <radialGradient
       inkscape:collect="always"
       xlink:href="#radialGradient2889"
       id="radialGradient3053"
       gradientUnits="userSpaceOnUse"
       gradientTransform="matrix(64.411186,0,0,64.411186,-326.99676,1078.0563)"
       spreadMethod="pad"
       cx="8.9046431"
       cy="-8.596447"
       fx="8.9046431"
       fy="-8.596447"
       r="1" />
  </defs>
  <sodipodi:namedview
     id="base"
     pagecolor="#ffffff"
     bordercolor="#666666"
     borderopacity="1.0"
     inkscape:pageopacity="0.0"
     inkscape:pageshadow="2"
     inkscape:zoom="2.519963"
     inkscape:cx="198.84875"
     inkscape:cy="47.704787"
     inkscape:document-units="px"
     inkscape:current-layer="layer1"
     showgrid="false"
     inkscape:window-width="1680"
     inkscape:window-height="975"
     inkscape:window-x="0"
     inkscape:window-y="24"
     inkscape:window-maximized="1"
     fit-margin-top="0"
     fit-margin-left="0"
     fit-margin-right="0"
     fit-margin-bottom="0" />
  <metadata
     id="metadata7">
    <rdf:RDF>
      <cc:Work
         rdf:about="">
        <dc:format>image/svg+xml</dc:format>
        <dc:type
           rdf:resource="http://purl.org/dc/dcmitype/StillImage" />
        <dc:title />
      </cc:Work>
    </rdf:RDF>
  </metadata>
  <g
     inkscape:label="Calque 1"
     inkscape:groupmode="layer"
     id="layer1"
     transform="translate(-173.99614,-472.16759)">
    <path
       id="path2895"
       style="fill:url(#radialGradient3053);fill-opacity:1;fill-rule:nonzero;stroke:none"
       d="m 231.39285,472.26875 c -1.07813,-0.066 -2.14937,-0.10013 -3.21287,-0.10113 -14.83738,-0.0171 -28.27738,6.30225 -39.98925,18.82025 -10.64751,11.38 -14.22612,20.53813 -14.19438,31.59775 0.0166,5.9155 1.06689,12.3755 2.6211,20.01025 2.92285,14.35588 11.44477,28.21725 23.38177,38.03075 9.14113,7.51072 19.334,11.34715 30.07675,11.41941 5.56638,0.0366 11.28025,-0.93847 17.07175,-2.93701 18.69825,-6.45415 36.5845,-24.93315 43.499,-44.93503 2.186,-6.33162 3.25,-12.49024 3.22663,-18.3545 -0.0557,-14.32762 -6.60113,-26.88624 -19.107,-35.86574 -15.17138,-10.89601 -29.76263,-16.84425 -43.3735,-17.685"
       inkscape:connector-curvature="0" />
    <g
       id="g3066">
      <path
         d="m 211.5716,529.11437 -4.11238,0 -0.005,0.11675 c -0.0323,0.79738 -0.50637,7.7925 -6.76563,7.7925 -5.59325,0 -8.43112,-5.01325 -8.4375,-14.8995 0.006,-9.88763 2.84425,-14.90038 8.4375,-14.90038 6.36725,0 6.75288,7.47463 6.76563,7.79201 l 0.005,0.11624 4.11238,0 c 0.37887,0 0.749,-0.15487 1.01213,-0.42675 0.25487,-0.26175 0.38424,-0.59775 0.36775,-0.94875 -0.086,-1.93949 -1.08113,-11.61675 -12.31988,-11.61675 -9.0835,0 -13.88375,6.90288 -13.88375,19.96338 0,13.087 4.80025,20.00437 13.88375,20.00437 10.81637,0 12.16162,-8.83787 12.31738,-11.54587 0.0269,-0.375 -0.10113,-0.73387 -0.36376,-1.00875 -0.26175,-0.27838 -0.63425,-0.4385 -1.01362,-0.4385"
         style="fill:#ffffff;fill-opacity:1;fill-rule:nonzero;stroke:none"
         id="path2905"
         inkscape:connector-curvature="0" />
      <path
         d="m 271.22785,519.74812 0.002,0.002 -3.54201,-1.54488 c -3.40575,-1.49712 -4.61225,-2.95124 -4.61225,-5.56499 0,-3.40575 2.49076,-5.69476 6.19925,-5.69476 2.19238,0 3.99113,0.44826 6.18651,2.686 l 0.12012,0.12213 1.89062,-1.729 c 1.09375,-1.01575 0.77726,-1.93225 0.32026,-2.51863 -1.84325,-2.17575 -4.80363,-3.36912 -8.33688,-3.36912 -6.8155,0 -11.76175,4.44525 -11.76175,10.57075 0,6.02537 3.79587,8.543 7.8965,10.36525 l 3.61325,1.61325 c 3.63137,1.6285 5.35987,3.01763 5.35987,6.51175 0,4.76462 -4.30562,6.03512 -6.84912,6.03512 -2.18938,0 -4.626,-0.46774 -7.62063,-3.86024 l -0.11612,-0.13288 -1.96925,1.7285 c -1.01175,0.89113 -1.0215,1.65487 -0.0342,2.92487 2.711,3.48438 6.68412,4.21475 9.54062,4.21475 6.17676,0 12.43063,-3.79387 12.43063,-11.04537 0,-6.27588 -3.48488,-9.062 -8.71725,-11.314"
         style="fill:#66cde2;fill-opacity:1;fill-rule:nonzero;stroke:none"
         id="path2907"
         inkscape:connector-curvature="0" />
      <path
         d="m 239.1321,513.57487 c 0,-6.17 -4.9995,-11.397 -11.17288,-11.397 -2.90324,0 -5.54537,1.1065 -7.53312,2.92087 l 0,-2.12012 -3.71688,0 c -1.11912,0 -1.54637,0.7315 -1.54637,1.57037 l 0,36.00538 c 0,1.01362 0.61812,1.55513 1.52875,1.55513 l 3.71838,0 c 0,0 0,-28.31451 0,-28.31538 0,-3.72025 3.017,-6.73737 6.73575,-6.73737 3.71925,0 6.73637,3.01712 6.73637,6.73737 0,8.7e-4 0,28.32025 0,28.32025 l 3.69388,0 c 1.02487,0 1.55612,-0.56887 1.55612,-1.54837 0,0 0,-26.9555 0,-26.99113"
         style="fill:#66cde2;fill-opacity:1;fill-rule:nonzero;stroke:none"
         id="path2909"
         inkscape:connector-curvature="0" />
      <path
         d="m 258.33035,504.86875 c 0.19387,-0.24063 0.314,-0.54338 0.314,-0.875 0,-0.61963 -0.40388,-1.14013 -0.959,-1.3295 -1.07575,-0.35988 -2.22175,-0.55713 -3.41263,-0.55713 -2.90287,0 -5.54587,1.10738 -7.53275,2.92187 l 0,-2.12112 -3.71725,0 c -1.11962,0 -1.54787,0.73188 -1.54787,1.57075 l 0,36.00538 c 0,1.01412 0.62112,1.55525 1.53225,1.55525 l 3.71675,0 c 0,0 0,-28.31501 0,-28.316 0,-3.72013 3.01662,-6.73575 6.73687,-6.73575 0.97463,0 1.89838,0.21087 2.73488,0.58337 l 2.147,-2.69375 -0.0122,-0.008"
         style="fill:#ffffff;fill-opacity:1;fill-rule:nonzero;stroke:none"
         id="path2911"
         inkscape:connector-curvature="0" />
      <path
         d="m 228.15897,581.05975 c 0,0.55174 -0.44725,0.9985 -0.99949,0.9985 l 0,0 c -0.55088,0 -0.99913,-0.44676 -0.99913,-0.9985 l 0,-67.93125 c 0,-0.55226 0.44825,-0.9995 0.99913,-0.9995 l 0,0 c 0.55224,0 0.99949,0.44724 0.99949,0.9995 l 0,67.93125"
         style="fill:#ffffff;fill-opacity:1;fill-rule:nonzero;stroke:none"
         id="path2913"
         inkscape:connector-curvature="0" />
    </g>
  </g>
</svg>
