<?xml version="1.0" encoding="UTF-8" standalone="no"?>
<!-- Created with Inkscape (http://www.inkscape.org/) -->

<svg
   xmlns:dc="http://purl.org/dc/elements/1.1/"
   xmlns:cc="http://creativecommons.org/ns#"
   xmlns:rdf="http://www.w3.org/1999/02/22-rdf-syntax-ns#"
   xmlns:svg="http://www.w3.org/2000/svg"
   xmlns="http://www.w3.org/2000/svg"
   xmlns:xlink="http://www.w3.org/1999/xlink"
   xmlns:sodipodi="http://sodipodi.sourceforge.net/DTD/sodipodi-0.dtd"
   xmlns:inkscape="http://www.inkscape.org/namespaces/inkscape"
   width="2593.2332"
   height="1985.9926"
   id="svg2"
   version="1.1"
   inkscape:version="0.48.2 r9819"
   sodipodi:docname="AF_points_zone.svg">
  <defs
     id="defs4" />
  <sodipodi:namedview
     id="base"
     pagecolor="#ffffff"
     bordercolor="#666666"
     borderopacity="1.0"
     inkscape:pageopacity="0.0"
     inkscape:pageshadow="2"
     inkscape:zoom="0.24748738"
     inkscape:cx="1661.3972"
     inkscape:cy="1324.3159"
     inkscape:document-units="px"
     inkscape:current-layer="layer1"
     showgrid="false"
     inkscape:object-nodes="true"
     inkscape:snap-to-guides="true"
     inkscape:snap-object-midpoints="true"
     fit-margin-top="0"
     fit-margin-left="0"
     fit-margin-right="0"
     fit-margin-bottom="0" />
  <metadata
     id="metadata7">
    <rdf:RDF>
      <cc:Work
         rdf:about="">
        <dc:format>image/svg+xml</dc:format>
        <dc:type
           rdf:resource="http://purl.org/dc/dcmitype/StillImage" />
        <dc:title />
      </cc:Work>
    </rdf:RDF>
  </metadata>
  <g
     inkscape:label="Calque 1"
     inkscape:groupmode="layer"
     id="layer1"
     transform="translate(2824.0393,-95.570335)">
    <rect
       style="fill:#000000;stroke:none"
       id="rect6042"
       width="838.94745"
       height="645.99255"
       x="-1946.8966"
       y="95.570335" />
    <rect
       y="131.28462"
       x="-1907.968"
       height="505.09973"
       width="765.19751"
       id="rect6044"
       style="fill:#83a0c1;fill-opacity:1;stroke:none" />
    <rect
       style="fill:#f4de78;fill-opacity:1;stroke:none"
       id="rect6046"
       width="83.842659"
       height="72.983521"
       x="-1932.1863"
       y="111.82749"
       rx="0"
       ry="0" />
    <rect
       style="fill:none;stroke:#000000;stroke-width:3;stroke-linecap:round;stroke-linejoin:round;stroke-miterlimit:4;stroke-opacity:1;stroke-dasharray:none;stroke-dashoffset:0"
       id="rect6048"
       width="9.2176418"
       height="9.2176418"
       x="-1741.1451"
       y="381.36853" />
    <use
       x="0"
       y="0"
       xlink:href="#rect3126"
       id="use6050"
       transform="translate(432.71005,-1340)"
       width="744.09448"
       height="1052.3622" />
    <use
       height="1052.3622"
       width="744.09448"
       transform="translate(362.32097,-1340)"
       id="use6052"
       xlink:href="#rect3126"
       y="0"
       x="0" />
    <use
       x="0"
       y="0"
       xlink:href="#rect3126"
       id="use6054"
       transform="translate(291.93194,-1340)"
       width="744.09448"
       height="1052.3622" />
    <use
       x="0"
       y="0"
       xlink:href="#rect3126"
       id="use6056"
       transform="translate(151.15392,-1340)"
       width="744.09448"
       height="1052.3622" />
    <use
       height="1052.3622"
       width="744.09448"
       transform="translate(80.764971,-1340)"
       id="use6058"
       xlink:href="#rect3126"
       y="0"
       x="0" />
    <use
       x="0"
       y="0"
       xlink:href="#rect3126"
       id="use6060"
       transform="translate(362.32097,-1396.2388)"
       width="744.09448"
       height="1052.3622" />
    <use
       x="0"
       y="0"
       xlink:href="#rect3126"
       id="use6068"
       transform="translate(80.764971,-1396.2388)"
       width="744.09448"
       height="1052.3622" />
    <use
       height="1052.3622"
       width="744.09448"
       transform="translate(362.32097,-1283.7612)"
       id="use6070"
       xlink:href="#rect3126"
       y="0"
       x="0" />
    <use
       x="0"
       y="0"
       xlink:href="#rect3126"
       id="use6072"
       transform="translate(291.93198,-1283.7612)"
       width="744.09448"
       height="1052.3622" />
    <use
       height="1052.3622"
       width="744.09448"
       transform="translate(221.54297,-1283.7612)"
       id="use6074"
       xlink:href="#rect3126"
       y="0"
       x="0" />
    <use
       x="0"
       y="0"
       xlink:href="#rect3126"
       id="use6076"
       transform="translate(151.15396,-1283.7612)"
       width="744.09448"
       height="1052.3622" />
    <use
       height="1052.3622"
       width="744.09448"
       transform="translate(80.764971,-1283.7612)"
       id="use6078"
       xlink:href="#rect3126"
       y="0"
       x="0" />
    <use
       x="0"
       y="0"
       xlink:href="#rect3126"
       id="use6080"
       transform="translate(221.54302,-1227.5225)"
       width="744.09448"
       height="1052.3622" />
    <rect
       y="311.37979"
       x="-1608.2242"
       height="36.717625"
       width="24.931919"
       id="rect6084"
       style="fill:none;stroke:#ff0000;stroke-width:3;stroke-linecap:round;stroke-linejoin:round;stroke-miterlimit:4;stroke-opacity:1;stroke-dasharray:none;stroke-dashoffset:0" />
    <use
       height="1052.3622"
       width="744.09448"
       transform="translate(221.54301,-1340)"
       id="use6090"
       xlink:href="#rect3126"
       y="0"
       x="0" />
    <path
       id="path6098"
       style="fill:none;stroke:#ff0000;stroke-width:1;stroke-miterlimit:10;stroke-opacity:1;stroke-dasharray:none;stroke-dashoffset:0"
       d="m -1467.9157,256.64784 c 16.2131,9.18532 31.5649,20.18439 31.5649,33.31878 l 0,53.58693 c 0,6.83536 -3.3646,10.9125 -8.7078,14.52286 m -137.7643,-101.42857 c -16.2132,9.18532 -31.565,20.18439 -31.565,33.31878 l 0,53.58693 c 0,6.83536 3.3647,10.9125 8.7079,14.52286"
       inkscape:connector-curvature="0" />
    <path
       id="path6110"
       style="fill:#000000;fill-opacity:1;fill-rule:evenodd;stroke:#000000;stroke-width:1;stroke-miterlimit:10;stroke-opacity:1;stroke-dasharray:none;stroke-dashoffset:0"
       d="m -1372.3298,131.28462 0,110.36322 m 0,287.14286 0,107.59364 m -153.0395,-505.09972 0,110.36322 m 0,287.14286 0,107.59364 m 159.8176,-110.5606 222.7812,0 m -352.5858,0 103.5406,0 m -271.731,0 106.066,0 m -350.4874,0 216.6422,0 m 325.7742,-283.9785 222.7812,0 m -352.5858,0 103.5406,0 m -271.731,0 106.066,0 m -350.4874,0 216.6422,0 m 411.1321,141.98925 137.4233,0 m -765.1976,0 135.83,0 m 552.8478,-252.54987 0,505.09972 m -459.1185,-505.09972 0,110.36322 m 0,287.14286 0,107.59364 m -153.0395,-505.09972 0,505.09972" />
    <path
       sodipodi:nodetypes="cssccssc"
       inkscape:connector-curvature="0"
       d="m -1874.13,133.05072 c 0.4947,0.55038 0.8648,1.45517 0.8648,2.28424 l 0,26.69415 c 0,0.82907 -0.3701,1.73386 -0.8648,2.28424 m -32.6328,-31.26263 c -0.4946,0.55038 -0.8648,1.45517 -0.8648,2.28424 l 0,26.69415 c 0,0.82907 0.3702,1.73386 0.8648,2.28424"
       style="fill:none;stroke:#000000;stroke-width:1;stroke-miterlimit:10;stroke-opacity:1;stroke-dasharray:none;stroke-dashoffset:0"
       id="path6112" />
    <use
       id="use6365"
       xlink:href="#rect6084"
       y="0"
       x="0"
       transform="translate(70.388977,-6.7626952e-6)"
       width="1"
       height="1"
       style="stroke:#ff0000" />
    <use
       id="use6367"
       xlink:href="#rect6084"
       y="0"
       x="0"
       transform="translate(140.77799,-6.7626952e-6)"
       width="1"
       height="1"
       style="stroke:#ff0000" />
    <use
       x="0"
       y="0"
       xlink:href="#rect6084"
       id="use6363"
       transform="translate(70.389027,-60.524507)"
       width="744.09448"
       height="1052.3622"
       style="stroke:#ff0000" />
    <rect
       y="765.57031"
       x="-2824.0393"
       height="645.99255"
       width="838.94745"
       id="rect6186"
       style="fill:#000000;stroke:none" />
    <rect
       style="fill:#83a0c1;fill-opacity:1;stroke:none"
       id="rect6188"
       width="765.19751"
       height="505.09973"
       x="-2785.1108"
       y="801.28461" />
    <rect
       ry="0"
       rx="0"
       y="781.82751"
       x="-2809.3291"
       height="72.983521"
       width="83.842659"
       id="rect6190"
       style="fill:#f4de78;fill-opacity:1;stroke:none" />
    <rect
       y="1051.3685"
       x="-2477.5098"
       height="9.2176418"
       width="9.2176418"
       id="rect6192"
       style="fill:none;stroke:#000000;stroke-width:3;stroke-linecap:round;stroke-linejoin:round;stroke-miterlimit:4;stroke-opacity:1;stroke-dasharray:none;stroke-dashoffset:0" />
    <use
       height="1052.3622"
       width="744.09448"
       transform="translate(-444.43268,-669.99998)"
       id="use6194"
       xlink:href="#rect3126"
       y="0"
       x="0" />
    <use
       x="0"
       y="0"
       xlink:href="#rect3126"
       id="use6196"
       transform="translate(-514.82178,-669.99998)"
       width="744.09448"
       height="1052.3622" />
    <use
       height="1052.3622"
       width="744.09448"
       transform="translate(-585.21078,-669.99998)"
       id="use6198"
       xlink:href="#rect3126"
       y="0"
       x="0" />
    <use
       height="1052.3622"
       width="744.09448"
       transform="translate(-514.82178,-726.23875)"
       id="use6204"
       xlink:href="#rect3126"
       y="0"
       x="0" />
    <use
       x="0"
       y="0"
       xlink:href="#rect3126"
       id="use6206"
       transform="translate(-585.21078,-726.23875)"
       width="744.09448"
       height="1052.3622" />
    <use
       height="1052.3622"
       width="744.09448"
       transform="translate(-655.59978,-726.23875)"
       id="use6208"
       xlink:href="#rect3126"
       y="0"
       x="0" />
    <use
       x="0"
       y="0"
       xlink:href="#rect3126"
       id="use6210"
       transform="translate(-725.98878,-726.23875)"
       width="744.09448"
       height="1052.3622" />
    <use
       x="0"
       y="0"
       xlink:href="#rect3126"
       id="use6214"
       transform="translate(-514.82178,-613.76121)"
       width="744.09448"
       height="1052.3622" />
    <use
       height="1052.3622"
       width="744.09448"
       transform="translate(-585.21078,-613.76121)"
       id="use6216"
       xlink:href="#rect3126"
       y="0"
       x="0" />
    <use
       x="0"
       y="0"
       xlink:href="#rect3126"
       id="use6218"
       transform="translate(-655.59978,-613.76121)"
       width="744.09448"
       height="1052.3622" />
    <use
       height="1052.3622"
       width="744.09448"
       transform="translate(-725.98878,-613.76121)"
       id="use6220"
       xlink:href="#rect3126"
       y="0"
       x="0" />
    <use
       height="1052.3622"
       width="744.09448"
       transform="translate(-655.59968,-557.52244)"
       id="use6224"
       xlink:href="#rect3126"
       y="0"
       x="0" />
    <use
       x="0"
       y="0"
       xlink:href="#rect3126"
       id="use6226"
       transform="translate(-655.59968,-786.76323)"
       width="744.09448"
       height="1052.3622" />
    <rect
       style="fill:none;stroke:#ff0000;stroke-width:3;stroke-linecap:round;stroke-linejoin:round;stroke-miterlimit:4;stroke-opacity:1;stroke-dasharray:none;stroke-dashoffset:0"
       id="rect6228"
       width="24.931919"
       height="36.717625"
       x="-2626.145"
       y="1037.6185" />
    <use
       x="0"
       y="0"
       xlink:href="#rect3126"
       id="use6232"
       transform="translate(-655.59968,-670)"
       width="744.09448"
       height="1052.3622" />
    <path
       inkscape:connector-curvature="0"
       d="m -2588.6948,963.47048 c -36.4781,21.13356 -52.8134,32.66945 -52.8134,57.58042 l 0,65.5671 c 0,24.911 16.3353,36.4469 52.8134,57.5805 m 72.2002,-180.54936 c 2.9219,3.25089 5.1081,8.59514 5.1081,13.49214 l 0,157.67202 c 0,4.897 -2.1862,10.2413 -5.1081,13.4922"
       style="fill:none;stroke:#ff0000;stroke-width:1;stroke-miterlimit:10;stroke-opacity:1;stroke-dasharray:none;stroke-dashoffset:0"
       id="path6246" />
    <path
       id="path6252"
       style="fill:#000000;fill-opacity:1;fill-rule:evenodd;stroke:#000000;stroke-width:1;stroke-miterlimit:10;stroke-opacity:1;stroke-dasharray:none;stroke-dashoffset:0"
       d="m -2249.4725,801.28462 0,110.36322 m 0,287.14286 0,107.5936 m -153.0395,-505.09968 0,110.36322 m 0,287.14286 0,107.5936 m 159.8175,-110.5606 222.7812,0 m -352.5858,0 103.5407,0 m -271.7311,0 106.0661,0 m -350.4874,0 216.6421,0 m 325.7742,-283.97846 222.7812,0 m -352.5858,0 103.5407,0 m -271.7311,0 106.0661,0 m -350.4874,0 216.6421,0 m 411.1321,141.98926 137.4233,0 m -765.1975,0 135.8299,0 m 552.8479,-252.54988 0,505.09968 m -459.1185,-505.09968 0,110.36322 m 0,287.14286 0,107.5936 m -153.0395,-505.09968 0,505.09968" />
    <path
       id="path6254"
       style="fill:none;stroke:#000000;stroke-width:1;stroke-miterlimit:10;stroke-opacity:1;stroke-dasharray:none;stroke-dashoffset:0"
       d="m -2751.2727,803.05072 c 0.4947,0.55038 0.8648,1.45517 0.8648,2.28424 l 0,26.69415 c 0,0.82907 -0.3701,1.73386 -0.8648,2.28424 m -32.6328,-31.26263 c -0.4946,0.55038 -0.8648,1.45517 -0.8648,2.28424 l 0,26.69415 c 0,0.82907 0.3702,1.73386 0.8648,2.28424"
       inkscape:connector-curvature="0"
       sodipodi:nodetypes="cssccssc" />
    <use
       height="1052.3622"
       width="744.09448"
       transform="translate(70.389005,-56.238747)"
       id="use6371"
       xlink:href="#rect6228"
       y="0"
       x="0"
       style="stroke:#ff0000" />
    <use
       height="1052.3622"
       width="744.09448"
       transform="translate(70.389005,2.3398437e-5)"
       id="use6373"
       xlink:href="#rect6228"
       y="0"
       x="0"
       style="stroke:#ff0000" />
    <use
       x="0"
       y="0"
       xlink:href="#rect6228"
       id="use6369"
       transform="translate(70.389005,56.238793)"
       width="744.09448"
       height="1052.3622"
       style="stroke:#ff0000" />
    <rect
       y="765.57031"
       x="-1946.8966"
       height="645.99255"
       width="838.94745"
       id="rect5970"
       style="fill:#000000;stroke:none" />
    <rect
       style="fill:#83a0c1;fill-opacity:1;stroke:none"
       id="rect5972"
       width="765.19751"
       height="505.09973"
       x="-1907.9679"
       y="801.28467" />
    <rect
       ry="0"
       rx="0"
       y="781.82751"
       x="-1932.1862"
       height="72.983521"
       width="83.842659"
       id="rect5974"
       style="fill:#f4de78;fill-opacity:1;stroke:none" />
    <rect
       y="1051.3685"
       x="-1741.1451"
       height="9.2176418"
       width="9.2176418"
       id="rect5976"
       style="fill:none;stroke:#000000;stroke-width:3;stroke-linecap:round;stroke-linejoin:round;stroke-miterlimit:4;stroke-opacity:1;stroke-dasharray:none;stroke-dashoffset:0" />
    <use
       height="1052.3622"
       width="744.09448"
       transform="translate(432.71014,-670)"
       id="use5978"
       xlink:href="#rect3126"
       y="0"
       x="0" />
    <use
       x="0"
       y="0"
       xlink:href="#rect3126"
       id="use5980"
       transform="translate(362.32106,-670)"
       width="744.09448"
       height="1052.3622" />
    <use
       x="0"
       y="0"
       xlink:href="#rect3126"
       id="use5986"
       transform="translate(80.765058,-670)"
       width="744.09448"
       height="1052.3622" />
    <use
       height="1052.3622"
       width="744.09448"
       transform="translate(362.32106,-726.2387)"
       id="use5988"
       xlink:href="#rect3126"
       y="0"
       x="0" />
    <use
       height="1052.3622"
       width="744.09448"
       transform="translate(80.765058,-726.2387)"
       id="use5996"
       xlink:href="#rect3126"
       y="0"
       x="0" />
    <use
       x="0"
       y="0"
       xlink:href="#rect3126"
       id="use5998"
       transform="translate(362.32106,-613.7612)"
       width="744.09448"
       height="1052.3622" />
    <use
       x="0"
       y="0"
       xlink:href="#rect3126"
       id="use6006"
       transform="translate(80.765058,-613.7612)"
       width="744.09448"
       height="1052.3622" />
    <use
       height="1052.3622"
       width="744.09448"
       transform="translate(221.54311,-557.5224)"
       id="use6008"
       xlink:href="#rect3126"
       y="0"
       x="0" />
    <use
       x="0"
       y="0"
       xlink:href="#rect3126"
       id="use6010"
       transform="translate(221.54311,-786.7632)"
       width="744.09448"
       height="1052.3622" />
    <rect
       style="fill:none;stroke:#ff0000;stroke-width:3;stroke-linecap:round;stroke-linejoin:round;stroke-miterlimit:4;stroke-opacity:1;stroke-dasharray:none;stroke-dashoffset:0"
       id="rect6012"
       width="24.931919"
       height="36.717625"
       x="-1537.8351"
       y="1037.6185" />
    <path
       sodipodi:nodetypes="cssccssc"
       inkscape:connector-curvature="0"
       d="m -1430.066,963.64912 c 2.9219,3.2509 5.108,8.5952 5.108,13.4922 l 0,157.67208 c 0,4.897 -2.1861,10.2412 -5.108,13.4921 m -192.7491,-184.65638 c -2.9219,3.2509 -5.1081,8.5952 -5.1081,13.4922 l 0,157.67208 c 0,4.897 2.1862,10.2412 5.1081,13.4921"
       style="fill:none;stroke:#ff0000;stroke-width:1;stroke-miterlimit:10;stroke-opacity:1;stroke-dasharray:none;stroke-dashoffset:0"
       id="path6016" />
    <path
       id="path6038"
       style="fill:#000000;fill-opacity:1;fill-rule:evenodd;stroke:#000000;stroke-width:1;stroke-miterlimit:10;stroke-opacity:1;stroke-dasharray:none;stroke-dashoffset:0"
       d="m -1372.3297,801.28462 0,110.3632 m 0,287.14288 0,107.5936 m -153.0395,-505.09968 0,110.3632 m 0,287.14288 0,107.5936 m 159.8176,-110.5606 222.7812,0 m -352.5858,0 103.5406,0 m -271.731,0 106.066,0 m -350.4873,0 216.6421,0 m 325.7742,-283.97848 222.7812,0 m -352.5858,0 103.5406,0 m -271.731,0 106.066,0 m -350.4873,0 216.6421,0 m 411.1321,141.98928 137.4233,0 m -765.1975,0 135.8299,0 m 552.8479,-252.54988 0,505.09968 m -459.1185,-505.09968 0,110.3632 m 0,287.14288 0,107.5936 m -153.0395,-505.09968 0,505.09968" />
    <path
       id="path6040"
       style="fill:none;stroke:#000000;stroke-width:1;stroke-miterlimit:10;stroke-opacity:1;stroke-dasharray:none;stroke-dashoffset:0"
       d="m -1874.1299,803.05072 c 0.4947,0.5504 0.8648,1.4552 0.8648,2.2843 l 0,26.6941 c 0,0.8291 -0.3701,1.7339 -0.8648,2.2842 m -32.6327,-31.2626 c -0.4946,0.5504 -0.8648,1.4552 -0.8648,2.2843 l 0,26.6941 c 0,0.8291 0.3702,1.7339 0.8648,2.2842"
       inkscape:connector-curvature="0"
       sodipodi:nodetypes="cssccssc" />
    <use
       id="use6377"
       xlink:href="#rect6012"
       y="0"
       x="0"
       transform="translate(-70.389105,-56.238697)"
       width="1"
       height="1"
       style="stroke:#ff0000" />
    <use
       id="use6379"
       xlink:href="#rect6012"
       y="0"
       x="0"
       transform="translate(-9.5292969e-5,-56.238697)"
       width="1"
       height="1"
       style="stroke:#ff0000" />
    <use
       id="use6381"
       xlink:href="#rect6012"
       y="0"
       x="0"
       transform="translate(70.388915,-56.238697)"
       width="1"
       height="1"
       style="stroke:#ff0000" />
    <use
       id="use6383"
       xlink:href="#rect6012"
       y="0"
       x="0"
       transform="translate(70.388875,3.3984375e-6)"
       width="1"
       height="1"
       style="stroke:#ff0000" />
    <use
       id="use6385"
       xlink:href="#rect6012"
       y="0"
       x="0"
       transform="translate(-70.389145,3.3984375e-6)"
       width="1"
       height="1"
       style="stroke:#ff0000" />
    <use
       id="use6387"
       xlink:href="#rect6012"
       y="0"
       x="0"
       transform="translate(-70.389105,56.238803)"
       width="1"
       height="1"
       style="stroke:#ff0000" />
    <use
       id="use6389"
       xlink:href="#rect6012"
       y="0"
       x="0"
       transform="translate(-9.5292969e-5,56.238803)"
       width="1"
       height="1"
       style="stroke:#ff0000" />
    <use
       x="0"
       y="0"
       xlink:href="#rect6012"
       id="use6375"
       transform="translate(70.388915,56.238803)"
       width="744.09448"
       height="1052.3622"
       style="stroke:#ff0000" />
    <rect
       style="fill:#000000;stroke:none"
       id="rect6114"
       width="838.94745"
       height="645.99255"
       x="-1069.7537"
       y="765.57031" />
    <rect
       y="801.28461"
       x="-1030.8251"
       height="505.09973"
       width="765.19751"
       id="rect6116"
       style="fill:#83a0c1;fill-opacity:1;stroke:none" />
    <rect
       style="fill:#f4de78;fill-opacity:1;stroke:none"
       id="rect6118"
       width="83.842659"
       height="72.983521"
       x="-1055.0433"
       y="781.82751"
       rx="0"
       ry="0" />
    <rect
       style="fill:none;stroke:#000000;stroke-width:3;stroke-linecap:round;stroke-linejoin:round;stroke-miterlimit:4;stroke-opacity:1;stroke-dasharray:none;stroke-dashoffset:0"
       id="rect6120"
       width="9.2176418"
       height="9.2176418"
       x="-864.0022"
       y="1051.3685" />
    <use
       x="0"
       y="0"
       xlink:href="#rect3126"
       id="use6126"
       transform="translate(1169.0749,-669.99998)"
       width="744.09448"
       height="1052.3622" />
    <use
       x="0"
       y="0"
       xlink:href="#rect3126"
       id="use6128"
       transform="translate(1028.2969,-669.99998)"
       width="744.09448"
       height="1052.3622" />
    <use
       height="1052.3622"
       width="744.09448"
       transform="translate(957.90796,-669.99998)"
       id="use6130"
       xlink:href="#rect3126"
       y="0"
       x="0" />
    <use
       height="1052.3622"
       width="744.09448"
       transform="translate(1169.075,-726.23875)"
       id="use6134"
       xlink:href="#rect3126"
       y="0"
       x="0" />
    <use
       x="0"
       y="0"
       xlink:href="#rect3126"
       id="use6136"
       transform="translate(1098.686,-726.23875)"
       width="744.09448"
       height="1052.3622" />
    <use
       height="1052.3622"
       width="744.09448"
       transform="translate(1028.297,-726.23875)"
       id="use6138"
       xlink:href="#rect3126"
       y="0"
       x="0" />
    <use
       x="0"
       y="0"
       xlink:href="#rect3126"
       id="use6140"
       transform="translate(957.90796,-726.23875)"
       width="744.09448"
       height="1052.3622" />
    <use
       x="0"
       y="0"
       xlink:href="#rect3126"
       id="use6144"
       transform="translate(1169.075,-613.76121)"
       width="744.09448"
       height="1052.3622" />
    <use
       height="1052.3622"
       width="744.09448"
       transform="translate(1098.686,-613.76121)"
       id="use6146"
       xlink:href="#rect3126"
       y="0"
       x="0" />
    <use
       x="0"
       y="0"
       xlink:href="#rect3126"
       id="use6148"
       transform="translate(1028.297,-613.76121)"
       width="744.09448"
       height="1052.3622" />
    <use
       height="1052.3622"
       width="744.09448"
       transform="translate(957.90796,-613.76121)"
       id="use6150"
       xlink:href="#rect3126"
       y="0"
       x="0" />
    <use
       x="0"
       y="0"
       xlink:href="#rect3126"
       id="use6152"
       transform="translate(1098.686,-557.52244)"
       width="744.09448"
       height="1052.3622" />
    <use
       height="1052.3622"
       width="744.09448"
       transform="translate(1098.686,-786.76323)"
       id="use6154"
       xlink:href="#rect3126"
       y="0"
       x="0" />
    <rect
       y="1037.6185"
       x="-519.91425"
       height="36.717625"
       width="24.931919"
       id="rect6156"
       style="fill:none;stroke:#ff0000;stroke-width:3;stroke-linecap:round;stroke-linejoin:round;stroke-miterlimit:4;stroke-opacity:1;stroke-dasharray:none;stroke-dashoffset:0" />
    <use
       height="1052.3622"
       width="744.09448"
       transform="translate(1098.686,-670)"
       id="use6162"
       xlink:href="#rect3126"
       y="0"
       x="0" />
    <path
       id="path6174"
       style="fill:none;stroke:#ff0000;stroke-width:1;stroke-miterlimit:10;stroke-opacity:1;stroke-dasharray:none;stroke-dashoffset:0"
       d="m -462.04352,963.47048 c 36.47807,21.13356 52.81343,32.66945 52.81343,57.58042 l 0,65.5671 c 0,24.911 -16.33536,36.4469 -52.81343,57.5805 m -75.05732,-180.54936 c -2.92187,3.25089 -5.10804,8.59514 -5.10804,13.49214 l 0,157.67202 c 0,4.897 2.18617,10.2413 5.10804,13.4922"
       inkscape:connector-curvature="0" />
    <path
       id="path6182"
       style="fill:#000000;fill-opacity:1;fill-rule:evenodd;stroke:#000000;stroke-width:1;stroke-miterlimit:10;stroke-opacity:1;stroke-dasharray:none;stroke-dashoffset:0"
       d="m -495.18683,801.28462 0,110.36322 m 0,287.14286 0,107.5936 m -153.03949,-505.09968 0,110.36322 m 0,287.14286 0,107.5936 m 159.81757,-110.5606 222.78119,0 m -352.58579,0 103.54063,0 m -271.73103,0 106.06601,0 m -350.48736,0 216.64215,0 m 325.7742,-283.97846 222.78119,0 m -352.58579,0 103.54063,0 m -271.73103,0 106.06601,0 m -350.48736,0 216.64215,0 m 411.13209,141.98926 137.4233,0 m -765.19754,0 135.82995,0 m 552.84787,-252.54988 0,505.09968 m -459.11852,-505.09968 0,110.36322 m 0,287.14286 0,107.5936 m -153.03949,-505.09968 0,505.09968" />
    <path
       sodipodi:nodetypes="cssccssc"
       inkscape:connector-curvature="0"
       d="m -996.98702,803.05072 c 0.49468,0.55038 0.86481,1.45517 0.86481,2.28424 l 0,26.69415 c 0,0.82907 -0.37013,1.73386 -0.86481,2.28424 m -32.63278,-31.26263 c -0.4946,0.55038 -0.8648,1.45517 -0.8648,2.28424 l 0,26.69415 c 0,0.82907 0.3702,1.73386 0.8648,2.28424"
       style="fill:none;stroke:#000000;stroke-width:1;stroke-miterlimit:10;stroke-opacity:1;stroke-dasharray:none;stroke-dashoffset:0"
       id="path6184" />
    <use
       id="use6393"
       xlink:href="#rect6156"
       y="0"
       x="0"
       transform="translate(-4.5166016e-6,-56.238747)"
       width="1"
       height="1"
       style="stroke:#ff0000" />
    <use
       id="use6395"
       xlink:href="#rect6156"
       y="0"
       x="0"
       transform="translate(70.388995,2.3398437e-5)"
       width="1"
       height="1"
       style="stroke:#ff0000" />
    <use
       x="0"
       y="0"
       xlink:href="#rect6156"
       id="use6391"
       transform="translate(-4.5166016e-6,56.238793)"
       width="744.09448"
       height="1052.3622"
       style="stroke:#ff0000" />
    <rect
       style="fill:#000000;stroke:none"
       id="rect3068"
       width="838.94745"
       height="645.99255"
       x="-1946.8966"
       y="1435.5703" />
    <rect
       y="1471.2845"
       x="-1907.968"
       height="505.09973"
       width="765.19751"
       id="rect3070"
       style="fill:#83a0c1;fill-opacity:1;stroke:none" />
    <rect
       style="fill:#f4de78;fill-opacity:1;stroke:none"
       id="rect3975"
       width="83.842659"
       height="72.983521"
       x="-1932.1863"
       y="1451.8275"
       rx="0"
       ry="0" />
    <rect
       style="fill:none;stroke:#000000;stroke-width:3;stroke-linecap:round;stroke-linejoin:round;stroke-miterlimit:4;stroke-opacity:1;stroke-dasharray:none;stroke-dashoffset:0"
       id="rect3126"
       width="9.2176418"
       height="9.2176418"
       x="-1741.1451"
       y="1721.3685" />
    <use
       x="0"
       y="0"
       xlink:href="#rect3126"
       id="use3136"
       transform="translate(422.33412,-1.607666e-5)"
       width="744.09448"
       height="1052.3622" />
    <use
       height="1052.3622"
       width="744.09448"
       transform="translate(351.94504,-1.607666e-5)"
       id="use3138"
       xlink:href="#rect3126"
       y="0"
       x="0" />
    <use
       x="0"
       y="0"
       xlink:href="#rect3126"
       id="use3140"
       transform="translate(281.55601,-1.607666e-5)"
       width="744.09448"
       height="1052.3622" />
    <use
       x="0"
       y="0"
       xlink:href="#rect3126"
       id="use3144"
       transform="translate(140.77799,-1.607666e-5)"
       width="744.09448"
       height="1052.3622" />
    <use
       height="1052.3622"
       width="744.09448"
       transform="translate(70.389041,-1.607666e-5)"
       id="use3146"
       xlink:href="#rect3126"
       y="0"
       x="0" />
    <use
       x="0"
       y="0"
       xlink:href="#rect3126"
       id="use3148"
       transform="translate(351.94504,-56.238816)"
       width="744.09448"
       height="1052.3622" />
    <use
       height="1052.3622"
       width="744.09448"
       transform="translate(281.55605,-56.238816)"
       id="use3150"
       xlink:href="#rect3126"
       y="0"
       x="0" />
    <use
       x="0"
       y="0"
       xlink:href="#rect3126"
       id="use3152"
       transform="translate(211.16704,-56.238816)"
       width="744.09448"
       height="1052.3622" />
    <use
       height="1052.3622"
       width="744.09448"
       transform="translate(140.77803,-56.238816)"
       id="use3154"
       xlink:href="#rect3126"
       y="0"
       x="0" />
    <use
       x="0"
       y="0"
       xlink:href="#rect3126"
       id="use3156"
       transform="translate(70.389041,-56.238816)"
       width="744.09448"
       height="1052.3622" />
    <use
       height="1052.3622"
       width="744.09448"
       transform="translate(351.94504,56.238784)"
       id="use3158"
       xlink:href="#rect3126"
       y="0"
       x="0" />
    <use
       height="1052.3622"
       width="744.09448"
       transform="translate(70.389041,56.238784)"
       id="use3166"
       xlink:href="#rect3126"
       y="0"
       x="0" />
    <use
       height="1052.3622"
       width="744.09448"
       transform="translate(211.16709,-116.76322)"
       id="use3170"
       xlink:href="#rect3126"
       y="0"
       x="0" />
    <rect
       y="1763.8573"
       x="-1537.8352"
       height="36.717625"
       width="24.931919"
       id="use4927"
       style="fill:none;stroke:#ff0000;stroke-width:3;stroke-linecap:round;stroke-linejoin:round;stroke-miterlimit:4;stroke-opacity:1;stroke-dasharray:none;stroke-dashoffset:0" />
    <use
       height="1052.3622"
       width="744.09448"
       transform="translate(211.16708,-1.607666e-5)"
       id="use4744"
       xlink:href="#rect3126"
       y="0"
       x="0" />
    <path
       d="m -1467.9157,1852.1246 c 16.2132,-9.1853 31.565,-20.1843 31.565,-33.3187 l 0,-53.587 c 0,-6.8353 -3.3646,-10.9125 -8.7078,-14.5228 m -137.7643,101.4285 c -16.2132,-9.1853 -31.565,-20.1843 -31.565,-33.3187 l 0,-53.587 c 0,-6.8353 3.3646,-10.9125 8.7078,-14.5228"
       style="fill:none;stroke:#ff0000;stroke-width:1;stroke-miterlimit:10;stroke-opacity:1;stroke-dasharray:none;stroke-dashoffset:0"
       id="path4850"
       inkscape:connector-curvature="0" />
    <path
       id="path4887"
       style="fill:#000000;fill-opacity:1;fill-rule:evenodd;stroke:#000000;stroke-width:1;stroke-miterlimit:10;stroke-opacity:1;stroke-dasharray:none;stroke-dashoffset:0"
       d="m -1372.3298,1471.2846 0,110.3632 m 0,287.1429 0,107.5936 m -153.0394,-505.0997 0,110.3632 m 0,287.1429 0,107.5936 m 159.8175,-110.5606 222.7812,0 m -352.5858,0 103.5407,0 m -271.7311,0 106.066,0 m -350.4873,0 216.6421,0 m 325.7742,-283.9785 222.7812,0 m -352.5858,0 103.5407,0 m -271.7311,0 106.066,0 m -350.4873,0 216.6421,0 m 411.1321,141.9893 137.4233,0 m -765.1975,0 135.8299,0 m 552.8479,-252.5499 0,505.0997 m -459.1185,-505.0997 0,110.3632 m 0,287.1429 0,107.5936 m -153.0395,-505.0997 0,505.0997" />
    <path
       sodipodi:nodetypes="cssccssc"
       inkscape:connector-curvature="0"
       d="m -1874.1299,1473.0507 c 0.4946,0.5504 0.8648,1.4552 0.8648,2.2842 l 0,26.6942 c 0,0.8291 -0.3702,1.7338 -0.8648,2.2842 m -32.6328,-31.2626 c -0.4946,0.5504 -0.8648,1.4552 -0.8648,2.2842 l 0,26.6942 c 0,0.8291 0.3702,1.7338 0.8648,2.2842"
       style="fill:none;stroke:#000000;stroke-width:1;stroke-miterlimit:10;stroke-opacity:1;stroke-dasharray:none;stroke-dashoffset:0"
       id="path4902" />
    <use
       id="use6399"
       xlink:href="#use4927"
       y="0"
       x="0"
       transform="translate(-70.389023,1.446875e-5)"
       width="1"
       height="1"
       style="stroke:#ff0000" />
    <use
       id="use6401"
       xlink:href="#use4927"
       y="0"
       x="0"
       transform="translate(70.388997,1.446875e-5)"
       width="1"
       height="1"
       style="stroke:#ff0000" />
    <use
       x="0"
       y="0"
       xlink:href="#use4927"
       id="use6397"
       transform="translate(3.6777344e-5,56.23881)"
       width="744.09448"
       height="1052.3622"
       style="stroke:#ff0000" />
  </g>
</svg>
