<?xml version="1.0" encoding="UTF-8" standalone="no"?>
<!-- Created with Inkscape (http://www.inkscape.org/) -->

<svg
   xmlns:dc="http://purl.org/dc/elements/1.1/"
   xmlns:cc="http://creativecommons.org/ns#"
   xmlns:rdf="http://www.w3.org/1999/02/22-rdf-syntax-ns#"
   xmlns:svg="http://www.w3.org/2000/svg"
   xmlns="http://www.w3.org/2000/svg"
   xmlns:xlink="http://www.w3.org/1999/xlink"
   xmlns:sodipodi="http://sodipodi.sourceforge.net/DTD/sodipodi-0.dtd"
   xmlns:inkscape="http://www.inkscape.org/namespaces/inkscape"
   width="2593.2332"
   height="1985.9926"
   id="svg2"
   version="1.1"
   inkscape:version="0.48.2 r9819"
   sodipodi:docname="AF_points_zone.svg">
  <defs
     id="defs4" />
  <sodipodi:namedview
     id="base"
     pagecolor="#ffffff"
     bordercolor="#666666"
     borderopacity="1.0"
     inkscape:pageopacity="0.0"
     inkscape:pageshadow="2"
     inkscape:zoom="0.24748738"
     inkscape:cx="933.9441"
     inkscape:cy="1188.3692"
     inkscape:document-units="px"
     inkscape:current-layer="layer1"
     showgrid="false"
     inkscape:object-nodes="true"
     inkscape:snap-to-guides="true"
     inkscape:snap-object-midpoints="true"
     fit-margin-top="0"
     fit-margin-left="0"
     fit-margin-right="0"
     fit-margin-bottom="0" />
  <metadata
     id="metadata7">
    <rdf:RDF>
      <cc:Work
         rdf:about="">
        <dc:format>image/svg+xml</dc:format>
        <dc:type
           rdf:resource="http://purl.org/dc/dcmitype/StillImage" />
        <dc:title></dc:title>
      </cc:Work>
    </rdf:RDF>
  </metadata>
  <g
     inkscape:label="Calque 1"
     inkscape:groupmode="layer"
     id="layer1"
     transform="translate(2824.0393,-95.570335)">
    <g
       id="g6435"
       transform="translate(8.5712895,-6.1035156e-5)">
      <rect
         y="95.570396"
         x="-1955.4679"
         height="645.99255"
         width="838.94745"
         id="rect6042"
         style="fill:#000000;stroke:none" />
      <rect
         style="fill:#83a0c1;fill-opacity:1;stroke:none"
         id="rect6044"
         width="765.19751"
         height="505.09973"
         x="-1916.5393"
         y="131.28468" />
      <rect
         ry="0"
         rx="0"
         y="111.82755"
         x="-1940.7576"
         height="72.983521"
         width="83.842659"
         id="rect6046"
         style="fill:#f4de78;fill-opacity:1;stroke:none" />
      <rect
         y="381.36859"
         x="-1749.7164"
         height="9.2176418"
         width="9.2176418"
         id="rect6048"
         style="fill:none;stroke:#000000;stroke-width:3;stroke-linecap:round;stroke-linejoin:round;stroke-miterlimit:4;stroke-opacity:1;stroke-dasharray:none;stroke-dashoffset:0" />
      <use
         height="1052.3622"
         width="744.09448"
         transform="translate(424.13876,-1339.9999)"
         id="use6050"
         xlink:href="#rect3126"
         y="0"
         x="0" />
      <use
         x="0"
         y="0"
         xlink:href="#rect3126"
         id="use6052"
         transform="translate(353.74968,-1339.9999)"
         width="744.09448"
         height="1052.3622" />
      <use
         height="1052.3622"
         width="744.09448"
         transform="translate(283.36065,-1339.9999)"
         id="use6054"
         xlink:href="#rect3126"
         y="0"
         x="0" />
      <use
         height="1052.3622"
         width="744.09448"
         transform="translate(142.58263,-1339.9999)"
         id="use6056"
         xlink:href="#rect3126"
         y="0"
         x="0" />
      <use
         x="0"
         y="0"
         xlink:href="#rect3126"
         id="use6058"
         transform="translate(72.193681,-1339.9999)"
         width="744.09448"
         height="1052.3622" />
      <use
         height="1052.3622"
         width="744.09448"
         transform="translate(353.74968,-1396.2387)"
         id="use6060"
         xlink:href="#rect3126"
         y="0"
         x="0" />
      <use
         height="1052.3622"
         width="744.09448"
         transform="translate(72.193681,-1396.2387)"
         id="use6068"
         xlink:href="#rect3126"
         y="0"
         x="0" />
      <use
         x="0"
         y="0"
         xlink:href="#rect3126"
         id="use6070"
         transform="translate(353.74968,-1283.7611)"
         width="744.09448"
         height="1052.3622" />
      <use
         height="1052.3622"
         width="744.09448"
         transform="translate(283.36069,-1283.7611)"
         id="use6072"
         xlink:href="#rect3126"
         y="0"
         x="0" />
      <use
         x="0"
         y="0"
         xlink:href="#rect3126"
         id="use6074"
         transform="translate(212.97168,-1283.7611)"
         width="744.09448"
         height="1052.3622" />
      <use
         height="1052.3622"
         width="744.09448"
         transform="translate(142.58267,-1283.7611)"
         id="use6076"
         xlink:href="#rect3126"
         y="0"
         x="0" />
      <use
         x="0"
         y="0"
         xlink:href="#rect3126"
         id="use6078"
         transform="translate(72.193681,-1283.7611)"
         width="744.09448"
         height="1052.3622" />
      <use
         height="1052.3622"
         width="744.09448"
         transform="translate(212.97173,-1227.5224)"
         id="use6080"
         xlink:href="#rect3126"
         y="0"
         x="0" />
      <rect
         style="fill:none;stroke:#000000;stroke-width:3;stroke-linecap:round;stroke-linejoin:round;stroke-miterlimit:4;stroke-opacity:1;stroke-dasharray:none;stroke-dashoffset:0"
         id="rect6084"
         width="24.931919"
         height="36.717625"
         x="-1616.7955"
         y="311.37985" />
      <use
         x="0"
         y="0"
         xlink:href="#rect3126"
         id="use6090"
         transform="translate(212.97172,-1339.9999)"
         width="744.09448"
         height="1052.3622" />
      <path
         inkscape:connector-curvature="0"
         id="path6092"
         d="m -1840.0196,131.28468 0,505.09972"
         style="fill:#000000;fill-opacity:1;fill-rule:evenodd;stroke:#ff0000;stroke-width:1;stroke-miterlimit:10;stroke-opacity:1;stroke-dasharray:none;stroke-dashoffset:0" />
      <path
         sodipodi:nodetypes="cccc"
         inkscape:connector-curvature="0"
         id="path6094"
         d="m -1686.9801,131.28468 0,110.36322 m 0,287.14286 0,107.59364"
         style="fill:#000000;fill-opacity:1;fill-rule:evenodd;stroke:#ff0000;stroke-width:1;stroke-miterlimit:10;stroke-opacity:1;stroke-dasharray:none;stroke-dashoffset:0" />
      <path
         inkscape:connector-curvature="0"
         id="path6096"
         d="m -1227.8616,131.28468 0,505.09972"
         style="fill:#000000;fill-opacity:1;fill-rule:evenodd;stroke:#ff0000;stroke-width:1;stroke-miterlimit:10;stroke-opacity:1;stroke-dasharray:none;stroke-dashoffset:0" />
      <path
         inkscape:connector-curvature="0"
         d="m -1476.487,256.6479 c 16.2131,9.18532 31.5649,20.18439 31.5649,33.31878 l 0,53.58693 c 0,6.83536 -3.3646,10.9125 -8.7078,14.52286 M -1591.3942,256.6479 c -16.2132,9.18532 -31.565,20.18439 -31.565,33.31878 l 0,53.58693 c 0,6.83536 3.3647,10.9125 8.7079,14.52286"
         style="fill:none;stroke:#ff0000;stroke-width:1;stroke-miterlimit:10;stroke-opacity:1;stroke-dasharray:none;stroke-dashoffset:0"
         id="path6098" />
      <path
         inkscape:connector-curvature="0"
         d="m -1374.123,525.8238 222.7812,0 m -352.5858,0 103.5406,0 m -271.731,0 106.066,0 m -350.4874,0 216.6422,0 m 325.7742,-283.9785 222.7812,0 m -352.5858,0 103.5406,0 m -271.731,0 106.066,0 m -350.4874,0 216.6422,0 m 411.1321,141.98925 137.4233,0 m -765.1976,0 135.83,0"
         style="fill:#000000;fill-opacity:1;fill-rule:evenodd;stroke:#ff0000;stroke-width:1;stroke-miterlimit:10;stroke-opacity:1;stroke-dasharray:none;stroke-dashoffset:0"
         id="path6106" />
      <path
         style="fill:#000000;fill-opacity:1;fill-rule:evenodd;stroke:#ff0000;stroke-width:1;stroke-miterlimit:10;stroke-opacity:1;stroke-dasharray:none;stroke-dashoffset:0"
         d="m -1533.9406,131.28468 0,110.36322 m 0,287.14286 0,107.59364"
         id="path6108"
         inkscape:connector-curvature="0"
         sodipodi:nodetypes="cccc" />
      <path
         sodipodi:nodetypes="cccc"
         inkscape:connector-curvature="0"
         id="path6110"
         d="m -1380.9011,131.28468 0,110.36322 m 0,287.14286 0,107.59364"
         style="fill:#000000;fill-opacity:1;fill-rule:evenodd;stroke:#ff0000;stroke-width:1;stroke-miterlimit:10;stroke-opacity:1;stroke-dasharray:none;stroke-dashoffset:0" />
      <path
         id="path6112"
         style="fill:none;stroke:#000000;stroke-width:1;stroke-miterlimit:10;stroke-opacity:1;stroke-dasharray:none;stroke-dashoffset:0"
         d="m -1882.7013,133.05078 c 0.4947,0.55038 0.8648,1.45517 0.8648,2.28424 l 0,26.69415 c 0,0.82907 -0.3701,1.73386 -0.8648,2.28424 m -32.6328,-31.26263 c -0.4946,0.55038 -0.8648,1.45517 -0.8648,2.28424 l 0,26.69415 c 0,0.82907 0.3702,1.73386 0.8648,2.28424"
         inkscape:connector-curvature="0"
         sodipodi:nodetypes="cssccssc" />
      <use
         height="1"
         width="1"
         transform="translate(70.388977,-6.7626952e-6)"
         x="0"
         y="0"
         xlink:href="#rect6084"
         id="use6365" />
      <use
         height="1"
         width="1"
         transform="translate(140.77799,-6.7626952e-6)"
         x="0"
         y="0"
         xlink:href="#rect6084"
         id="use6367" />
      <use
         height="1052.3622"
         width="744.09448"
         transform="translate(70.389027,-60.524507)"
         id="use6363"
         xlink:href="#rect6084"
         y="0"
         x="0" />
    </g>
    <g
       id="g6403"
       transform="translate(0,-4.2857666)">
      <rect
         style="fill:#000000;stroke:none"
         id="rect6186"
         width="838.94745"
         height="645.99255"
         x="-2824.0393"
         y="769.85608" />
      <rect
         y="805.57037"
         x="-2785.1108"
         height="505.09973"
         width="765.19751"
         id="rect6188"
         style="fill:#83a0c1;fill-opacity:1;stroke:none" />
      <rect
         style="fill:#f4de78;fill-opacity:1;stroke:none"
         id="rect6190"
         width="83.842659"
         height="72.983521"
         x="-2809.3291"
         y="786.11328"
         rx="0"
         ry="0" />
      <rect
         style="fill:none;stroke:#000000;stroke-width:3;stroke-linecap:round;stroke-linejoin:round;stroke-miterlimit:4;stroke-opacity:1;stroke-dasharray:none;stroke-dashoffset:0"
         id="rect6192"
         width="9.2176418"
         height="9.2176418"
         x="-2477.5098"
         y="1055.6543" />
      <use
         x="0"
         y="0"
         xlink:href="#rect3126"
         id="use6194"
         transform="translate(-444.43268,-665.71421)"
         width="744.09448"
         height="1052.3622" />
      <use
         height="1052.3622"
         width="744.09448"
         transform="translate(-514.82178,-665.71421)"
         id="use6196"
         xlink:href="#rect3126"
         y="0"
         x="0" />
      <use
         x="0"
         y="0"
         xlink:href="#rect3126"
         id="use6198"
         transform="translate(-585.21078,-665.71421)"
         width="744.09448"
         height="1052.3622" />
      <use
         x="0"
         y="0"
         xlink:href="#rect3126"
         id="use6204"
         transform="translate(-514.82178,-721.95298)"
         width="744.09448"
         height="1052.3622" />
      <use
         height="1052.3622"
         width="744.09448"
         transform="translate(-585.21078,-721.95298)"
         id="use6206"
         xlink:href="#rect3126"
         y="0"
         x="0" />
      <use
         x="0"
         y="0"
         xlink:href="#rect3126"
         id="use6208"
         transform="translate(-655.59978,-721.95298)"
         width="744.09448"
         height="1052.3622" />
      <use
         height="1052.3622"
         width="744.09448"
         transform="translate(-725.98878,-721.95298)"
         id="use6210"
         xlink:href="#rect3126"
         y="0"
         x="0" />
      <use
         height="1052.3622"
         width="744.09448"
         transform="translate(-514.82178,-609.47544)"
         id="use6214"
         xlink:href="#rect3126"
         y="0"
         x="0" />
      <use
         x="0"
         y="0"
         xlink:href="#rect3126"
         id="use6216"
         transform="translate(-585.21078,-609.47544)"
         width="744.09448"
         height="1052.3622" />
      <use
         height="1052.3622"
         width="744.09448"
         transform="translate(-655.59978,-609.47544)"
         id="use6218"
         xlink:href="#rect3126"
         y="0"
         x="0" />
      <use
         x="0"
         y="0"
         xlink:href="#rect3126"
         id="use6220"
         transform="translate(-725.98878,-609.47544)"
         width="744.09448"
         height="1052.3622" />
      <use
         x="0"
         y="0"
         xlink:href="#rect3126"
         id="use6224"
         transform="translate(-655.59968,-553.23667)"
         width="744.09448"
         height="1052.3622" />
      <use
         height="1052.3622"
         width="744.09448"
         transform="translate(-655.59968,-782.47746)"
         id="use6226"
         xlink:href="#rect3126"
         y="0"
         x="0" />
      <rect
         y="1041.9043"
         x="-2626.145"
         height="36.717625"
         width="24.931919"
         id="rect6228"
         style="fill:none;stroke:#000000;stroke-width:3;stroke-linecap:round;stroke-linejoin:round;stroke-miterlimit:4;stroke-opacity:1;stroke-dasharray:none;stroke-dashoffset:0" />
      <use
         height="1052.3622"
         width="744.09448"
         transform="translate(-655.59968,-665.71423)"
         id="use6232"
         xlink:href="#rect3126"
         y="0"
         x="0" />
      <path
         style="fill:#000000;fill-opacity:1;fill-rule:evenodd;stroke:#ff0000;stroke-width:1;stroke-miterlimit:10;stroke-opacity:1;stroke-dasharray:none;stroke-dashoffset:0"
         d="m -2708.591,805.57039 0,505.09971"
         id="path6234"
         inkscape:connector-curvature="0" />
      <path
         style="fill:#000000;fill-opacity:1;fill-rule:evenodd;stroke:#ff0000;stroke-width:1;stroke-miterlimit:10;stroke-opacity:1;stroke-dasharray:none;stroke-dashoffset:0"
         d="m -2555.5515,805.57039 0,110.36322 m 0,287.14289 0,107.5936"
         id="path6236"
         inkscape:connector-curvature="0"
         sodipodi:nodetypes="cccc" />
      <path
         style="fill:#000000;fill-opacity:1;fill-rule:evenodd;stroke:#ff0000;stroke-width:1;stroke-miterlimit:10;stroke-opacity:1;stroke-dasharray:none;stroke-dashoffset:0"
         d="m -2096.433,805.57039 0,505.09971"
         id="path6238"
         inkscape:connector-curvature="0" />
      <path
         id="path6246"
         style="fill:none;stroke:#ff0000;stroke-width:1;stroke-miterlimit:10;stroke-opacity:1;stroke-dasharray:none;stroke-dashoffset:0"
         d="m -2588.6948,967.75625 c -36.4781,21.13356 -52.8134,32.66945 -52.8134,57.58045 l 0,65.5671 c 0,24.911 16.3353,36.4469 52.8134,57.5805 m 72.2002,-180.54939 c 2.9219,3.25089 5.1081,8.59514 5.1081,13.49214 l 0,157.67205 c 0,4.897 -2.1862,10.2413 -5.1081,13.4922"
         inkscape:connector-curvature="0" />
      <path
         id="path6248"
         style="fill:#000000;fill-opacity:1;fill-rule:evenodd;stroke:#ff0000;stroke-width:1;stroke-miterlimit:10;stroke-opacity:1;stroke-dasharray:none;stroke-dashoffset:0"
         d="m -2242.6945,1200.1095 222.7812,0 m -352.5858,0 103.5407,0 m -271.7311,0 106.0661,0 m -350.4874,0 216.6421,0 m 325.7742,-283.97849 222.7812,0 m -352.5858,0 103.5407,0 m -271.7311,0 106.0661,0 m -350.4874,0 216.6421,0 m 411.1321,141.98929 137.4233,0 m -765.1975,0 135.8299,0"
         inkscape:connector-curvature="0" />
      <path
         sodipodi:nodetypes="cccc"
         inkscape:connector-curvature="0"
         id="path6250"
         d="m -2402.512,805.57039 0,110.36322 m 0,287.14289 0,107.5936"
         style="fill:#000000;fill-opacity:1;fill-rule:evenodd;stroke:#ff0000;stroke-width:1;stroke-miterlimit:10;stroke-opacity:1;stroke-dasharray:none;stroke-dashoffset:0" />
      <path
         style="fill:#000000;fill-opacity:1;fill-rule:evenodd;stroke:#ff0000;stroke-width:1;stroke-miterlimit:10;stroke-opacity:1;stroke-dasharray:none;stroke-dashoffset:0"
         d="m -2249.4725,805.57039 0,110.36322 m 0,287.14289 0,107.5936"
         id="path6252"
         inkscape:connector-curvature="0"
         sodipodi:nodetypes="cccc" />
      <path
         sodipodi:nodetypes="cssccssc"
         inkscape:connector-curvature="0"
         d="m -2751.2727,807.33649 c 0.4947,0.55038 0.8648,1.45517 0.8648,2.28424 l 0,26.69415 c 0,0.82907 -0.3701,1.73386 -0.8648,2.28424 m -32.6328,-31.26263 c -0.4946,0.55038 -0.8648,1.45517 -0.8648,2.28424 l 0,26.69415 c 0,0.82907 0.3702,1.73386 0.8648,2.28424"
         style="fill:none;stroke:#000000;stroke-width:1;stroke-miterlimit:10;stroke-opacity:1;stroke-dasharray:none;stroke-dashoffset:0"
         id="path6254" />
      <use
         x="0"
         y="0"
         xlink:href="#rect6228"
         id="use6371"
         transform="translate(70.389005,-56.238747)"
         width="744.09448"
         height="1052.3622" />
      <use
         x="0"
         y="0"
         xlink:href="#rect6228"
         id="use6373"
         transform="translate(70.389005,2.3398437e-5)"
         width="744.09448"
         height="1052.3622" />
      <use
         height="1052.3622"
         width="744.09448"
         transform="translate(70.389005,56.238793)"
         id="use6369"
         xlink:href="#rect6228"
         y="0"
         x="0" />
    </g>
    <g
       id="g6531"
       transform="translate(10.375977,-4.2857666)">
      <rect
         style="fill:#000000;stroke:none"
         id="rect5970"
         width="838.94745"
         height="645.99255"
         x="-1957.2726"
         y="769.85608" />
      <rect
         y="805.57043"
         x="-1918.3439"
         height="505.09973"
         width="765.19751"
         id="rect5972"
         style="fill:#83a0c1;fill-opacity:1;stroke:none" />
      <rect
         style="fill:#f4de78;fill-opacity:1;stroke:none"
         id="rect5974"
         width="83.842659"
         height="72.983521"
         x="-1942.5621"
         y="786.11328"
         rx="0"
         ry="0" />
      <rect
         style="fill:none;stroke:#000000;stroke-width:3;stroke-linecap:round;stroke-linejoin:round;stroke-miterlimit:4;stroke-opacity:1;stroke-dasharray:none;stroke-dashoffset:0"
         id="rect5976"
         width="9.2176418"
         height="9.2176418"
         x="-1751.5211"
         y="1055.6543" />
      <use
         x="0"
         y="0"
         xlink:href="#rect3126"
         id="use5978"
         transform="translate(422.33416,-665.71423)"
         width="744.09448"
         height="1052.3622" />
      <use
         height="1052.3622"
         width="744.09448"
         transform="translate(351.94508,-665.71423)"
         id="use5980"
         xlink:href="#rect3126"
         y="0"
         x="0" />
      <use
         height="1052.3622"
         width="744.09448"
         transform="translate(70.389081,-665.71423)"
         id="use5986"
         xlink:href="#rect3126"
         y="0"
         x="0" />
      <use
         x="0"
         y="0"
         xlink:href="#rect3126"
         id="use5988"
         transform="translate(351.94508,-721.95293)"
         width="744.09448"
         height="1052.3622" />
      <use
         x="0"
         y="0"
         xlink:href="#rect3126"
         id="use5996"
         transform="translate(70.389081,-721.95293)"
         width="744.09448"
         height="1052.3622" />
      <use
         height="1052.3622"
         width="744.09448"
         transform="translate(351.94508,-609.47543)"
         id="use5998"
         xlink:href="#rect3126"
         y="0"
         x="0" />
      <use
         height="1052.3622"
         width="744.09448"
         transform="translate(70.389081,-609.47543)"
         id="use6006"
         xlink:href="#rect3126"
         y="0"
         x="0" />
      <use
         x="0"
         y="0"
         xlink:href="#rect3126"
         id="use6008"
         transform="translate(211.16713,-553.23663)"
         width="744.09448"
         height="1052.3622" />
      <use
         height="1052.3622"
         width="744.09448"
         transform="translate(211.16713,-782.47743)"
         id="use6010"
         xlink:href="#rect3126"
         y="0"
         x="0" />
      <rect
         y="1041.9043"
         x="-1548.2111"
         height="36.717625"
         width="24.931919"
         id="rect6012"
         style="fill:none;stroke:#000000;stroke-width:3;stroke-linecap:round;stroke-linejoin:round;stroke-miterlimit:4;stroke-opacity:1;stroke-dasharray:none;stroke-dashoffset:0" />
      <path
         id="path6016"
         style="fill:none;stroke:#000000;stroke-width:1;stroke-miterlimit:10;stroke-opacity:1;stroke-dasharray:none;stroke-dashoffset:0"
         d="m -1440.442,967.93489 c 2.9219,3.2509 5.108,8.5952 5.108,13.4922 l 0,157.67211 c 0,4.897 -2.1861,10.2412 -5.108,13.4921 m -192.7491,-184.65641 c -2.9219,3.2509 -5.1081,8.5952 -5.1081,13.4922 l 0,157.67211 c 0,4.897 2.1862,10.2412 5.1081,13.4921"
         inkscape:connector-curvature="0"
         sodipodi:nodetypes="cssccssc" />
      <path
         inkscape:connector-curvature="0"
         style="fill:#000000;fill-opacity:1;fill-rule:evenodd;stroke:#ff0000;stroke-width:1;stroke-miterlimit:10;stroke-opacity:1;stroke-dasharray:none;stroke-dashoffset:0"
         d="m -1841.8241,805.57039 0,505.09971"
         id="path6020" />
      <path
         style="fill:#000000;fill-opacity:1;fill-rule:evenodd;stroke:#ff0000;stroke-width:1;stroke-miterlimit:10;stroke-opacity:1;stroke-dasharray:none;stroke-dashoffset:0"
         d="m -1688.7846,805.57039 0,110.3632 m 0,287.14291 0,107.5936"
         id="path6022"
         inkscape:connector-curvature="0"
         sodipodi:nodetypes="cccc" />
      <path
         inkscape:connector-curvature="0"
         style="fill:#000000;fill-opacity:1;fill-rule:evenodd;stroke:#ff0000;stroke-width:1;stroke-miterlimit:10;stroke-opacity:1;stroke-dasharray:none;stroke-dashoffset:0"
         d="m -1229.6661,805.57039 0,505.09971"
         id="path6024" />
      <path
         inkscape:connector-curvature="0"
         id="path6034"
         style="fill:#000000;fill-opacity:1;fill-rule:evenodd;stroke:#ff0000;stroke-width:1;stroke-miterlimit:10;stroke-opacity:1;stroke-dasharray:none;stroke-dashoffset:0"
         d="m -1375.9276,1200.1095 222.7812,0 m -352.5858,0 103.5406,0 m -271.731,0 106.066,0 m -350.4873,0 216.6421,0 m 325.7742,-283.97851 222.7812,0 m -352.5858,0 103.5406,0 m -271.731,0 106.066,0 m -350.4873,0 216.6421,0 m 411.1321,141.98931 137.4233,0 m -765.1975,0 135.8299,0" />
      <path
         sodipodi:nodetypes="cccc"
         inkscape:connector-curvature="0"
         id="path6036"
         d="m -1535.7452,805.57039 0,110.3632 m 0,287.14291 0,107.5936"
         style="fill:#000000;fill-opacity:1;fill-rule:evenodd;stroke:#ff0000;stroke-width:1;stroke-miterlimit:10;stroke-opacity:1;stroke-dasharray:none;stroke-dashoffset:0" />
      <path
         style="fill:#000000;fill-opacity:1;fill-rule:evenodd;stroke:#ff0000;stroke-width:1;stroke-miterlimit:10;stroke-opacity:1;stroke-dasharray:none;stroke-dashoffset:0"
         d="m -1382.7057,805.57039 0,110.3632 m 0,287.14291 0,107.5936"
         id="path6038"
         inkscape:connector-curvature="0"
         sodipodi:nodetypes="cccc" />
      <path
         sodipodi:nodetypes="cssccssc"
         inkscape:connector-curvature="0"
         d="m -1884.5059,807.33649 c 0.4947,0.5504 0.8648,1.4552 0.8648,2.2843 l 0,26.6941 c 0,0.8291 -0.3701,1.7339 -0.8648,2.2842 m -32.6327,-31.2626 c -0.4946,0.5504 -0.8648,1.4552 -0.8648,2.2843 l 0,26.6941 c 0,0.8291 0.3702,1.7339 0.8648,2.2842"
         style="fill:none;stroke:#000000;stroke-width:1;stroke-miterlimit:10;stroke-opacity:1;stroke-dasharray:none;stroke-dashoffset:0"
         id="path6040" />
      <use
         height="1"
         width="1"
         transform="translate(-70.389105,-56.238697)"
         x="0"
         y="0"
         xlink:href="#rect6012"
         id="use6377" />
      <use
         height="1"
         width="1"
         transform="translate(-9.5292969e-5,-56.238697)"
         x="0"
         y="0"
         xlink:href="#rect6012"
         id="use6379" />
      <use
         height="1"
         width="1"
         transform="translate(70.388915,-56.238697)"
         x="0"
         y="0"
         xlink:href="#rect6012"
         id="use6381" />
      <use
         height="1"
         width="1"
         transform="translate(70.388875,3.3984375e-6)"
         x="0"
         y="0"
         xlink:href="#rect6012"
         id="use6383" />
      <use
         height="1"
         width="1"
         transform="translate(-70.389145,3.3984375e-6)"
         x="0"
         y="0"
         xlink:href="#rect6012"
         id="use6385" />
      <use
         height="1"
         width="1"
         transform="translate(-70.389105,56.238803)"
         x="0"
         y="0"
         xlink:href="#rect6012"
         id="use6387" />
      <use
         height="1"
         width="1"
         transform="translate(-9.5292969e-5,56.238803)"
         x="0"
         y="0"
         xlink:href="#rect6012"
         id="use6389" />
      <use
         height="1052.3622"
         width="744.09448"
         transform="translate(70.388915,56.238803)"
         id="use6375"
         xlink:href="#rect6012"
         y="0"
         x="0" />
    </g>
    <g
       id="g6467"
       transform="translate(0,-4.2857666)">
      <rect
         y="769.85608"
         x="-1069.7537"
         height="645.99255"
         width="838.94745"
         id="rect6114"
         style="fill:#000000;stroke:none" />
      <rect
         style="fill:#83a0c1;fill-opacity:1;stroke:none"
         id="rect6116"
         width="765.19751"
         height="505.09973"
         x="-1030.8251"
         y="805.57037" />
      <rect
         ry="0"
         rx="0"
         y="786.11328"
         x="-1055.0433"
         height="72.983521"
         width="83.842659"
         id="rect6118"
         style="fill:#f4de78;fill-opacity:1;stroke:none" />
      <rect
         y="1055.6543"
         x="-864.0022"
         height="9.2176418"
         width="9.2176418"
         id="rect6120"
         style="fill:none;stroke:#000000;stroke-width:3;stroke-linecap:round;stroke-linejoin:round;stroke-miterlimit:4;stroke-opacity:1;stroke-dasharray:none;stroke-dashoffset:0" />
      <use
         height="1052.3622"
         width="744.09448"
         transform="translate(1169.0749,-665.71421)"
         id="use6126"
         xlink:href="#rect3126"
         y="0"
         x="0" />
      <use
         height="1052.3622"
         width="744.09448"
         transform="translate(1028.2969,-665.71421)"
         id="use6128"
         xlink:href="#rect3126"
         y="0"
         x="0" />
      <use
         x="0"
         y="0"
         xlink:href="#rect3126"
         id="use6130"
         transform="translate(957.90796,-665.71421)"
         width="744.09448"
         height="1052.3622" />
      <use
         x="0"
         y="0"
         xlink:href="#rect3126"
         id="use6134"
         transform="translate(1169.075,-721.95298)"
         width="744.09448"
         height="1052.3622" />
      <use
         height="1052.3622"
         width="744.09448"
         transform="translate(1098.686,-721.95298)"
         id="use6136"
         xlink:href="#rect3126"
         y="0"
         x="0" />
      <use
         x="0"
         y="0"
         xlink:href="#rect3126"
         id="use6138"
         transform="translate(1028.297,-721.95298)"
         width="744.09448"
         height="1052.3622" />
      <use
         height="1052.3622"
         width="744.09448"
         transform="translate(957.90796,-721.95298)"
         id="use6140"
         xlink:href="#rect3126"
         y="0"
         x="0" />
      <use
         height="1052.3622"
         width="744.09448"
         transform="translate(1169.075,-609.47544)"
         id="use6144"
         xlink:href="#rect3126"
         y="0"
         x="0" />
      <use
         x="0"
         y="0"
         xlink:href="#rect3126"
         id="use6146"
         transform="translate(1098.686,-609.47544)"
         width="744.09448"
         height="1052.3622" />
      <use
         height="1052.3622"
         width="744.09448"
         transform="translate(1028.297,-609.47544)"
         id="use6148"
         xlink:href="#rect3126"
         y="0"
         x="0" />
      <use
         x="0"
         y="0"
         xlink:href="#rect3126"
         id="use6150"
         transform="translate(957.90796,-609.47544)"
         width="744.09448"
         height="1052.3622" />
      <use
         height="1052.3622"
         width="744.09448"
         transform="translate(1098.686,-553.23667)"
         id="use6152"
         xlink:href="#rect3126"
         y="0"
         x="0" />
      <use
         x="0"
         y="0"
         xlink:href="#rect3126"
         id="use6154"
         transform="translate(1098.686,-782.47746)"
         width="744.09448"
         height="1052.3622" />
      <rect
         style="fill:none;stroke:#000000;stroke-width:3;stroke-linecap:round;stroke-linejoin:round;stroke-miterlimit:4;stroke-opacity:1;stroke-dasharray:none;stroke-dashoffset:0"
         id="rect6156"
         width="24.931919"
         height="36.717625"
         x="-519.91425"
         y="1041.9043" />
      <use
         x="0"
         y="0"
         xlink:href="#rect3126"
         id="use6162"
         transform="translate(1098.686,-665.71423)"
         width="744.09448"
         height="1052.3622" />
      <path
         inkscape:connector-curvature="0"
         id="path6164"
         d="m -954.30529,805.57039 0,505.09971"
         style="fill:#000000;fill-opacity:1;fill-rule:evenodd;stroke:#ff0000;stroke-width:1;stroke-miterlimit:10;stroke-opacity:1;stroke-dasharray:none;stroke-dashoffset:0" />
      <path
         sodipodi:nodetypes="cccc"
         inkscape:connector-curvature="0"
         id="path6166"
         d="m -801.2658,805.57039 0,110.36322 m 0,287.14289 0,107.5936"
         style="fill:#000000;fill-opacity:1;fill-rule:evenodd;stroke:#ff0000;stroke-width:1;stroke-miterlimit:10;stroke-opacity:1;stroke-dasharray:none;stroke-dashoffset:0" />
      <path
         inkscape:connector-curvature="0"
         id="path6168"
         d="m -342.14728,805.57039 0,505.09971"
         style="fill:#000000;fill-opacity:1;fill-rule:evenodd;stroke:#ff0000;stroke-width:1;stroke-miterlimit:10;stroke-opacity:1;stroke-dasharray:none;stroke-dashoffset:0" />
      <path
         inkscape:connector-curvature="0"
         d="m -462.04352,967.75625 c 36.47807,21.13356 52.81343,32.66945 52.81343,57.58045 l 0,65.5671 c 0,24.911 -16.33536,36.4469 -52.81343,57.5805 m -75.05732,-180.54939 c -2.92187,3.25089 -5.10804,8.59514 -5.10804,13.49214 l 0,157.67205 c 0,4.897 2.18617,10.2413 5.10804,13.4922"
         style="fill:none;stroke:#ff0000;stroke-width:1;stroke-miterlimit:10;stroke-opacity:1;stroke-dasharray:none;stroke-dashoffset:0"
         id="path6174" />
      <path
         inkscape:connector-curvature="0"
         d="m -488.40875,1200.1095 222.78119,0 m -352.58579,0 103.54063,0 m -271.73103,0 106.06601,0 m -350.48736,0 216.64215,0 m 325.7742,-283.97849 222.78119,0 m -352.58579,0 103.54063,0 m -271.73103,0 106.06601,0 m -350.48736,0 216.64215,0 m 411.13209,141.98929 137.4233,0 m -765.19754,0 135.82995,0"
         style="fill:#000000;fill-opacity:1;fill-rule:evenodd;stroke:#ff0000;stroke-width:1;stroke-miterlimit:10;stroke-opacity:1;stroke-dasharray:none;stroke-dashoffset:0"
         id="path6178" />
      <path
         style="fill:#000000;fill-opacity:1;fill-rule:evenodd;stroke:#ff0000;stroke-width:1;stroke-miterlimit:10;stroke-opacity:1;stroke-dasharray:none;stroke-dashoffset:0"
         d="m -648.22632,805.57039 0,110.36322 m 0,287.14289 0,107.5936"
         id="path6180"
         inkscape:connector-curvature="0"
         sodipodi:nodetypes="cccc" />
      <path
         sodipodi:nodetypes="cccc"
         inkscape:connector-curvature="0"
         id="path6182"
         d="m -495.18683,805.57039 0,110.36322 m 0,287.14289 0,107.5936"
         style="fill:#000000;fill-opacity:1;fill-rule:evenodd;stroke:#ff0000;stroke-width:1;stroke-miterlimit:10;stroke-opacity:1;stroke-dasharray:none;stroke-dashoffset:0" />
      <path
         id="path6184"
         style="fill:none;stroke:#000000;stroke-width:1;stroke-miterlimit:10;stroke-opacity:1;stroke-dasharray:none;stroke-dashoffset:0"
         d="m -996.98702,807.33649 c 0.49468,0.55038 0.86481,1.45517 0.86481,2.28424 l 0,26.69415 c 0,0.82907 -0.37013,1.73386 -0.86481,2.28424 m -32.63278,-31.26263 c -0.4946,0.55038 -0.8648,1.45517 -0.8648,2.28424 l 0,26.69415 c 0,0.82907 0.3702,1.73386 0.8648,2.28424"
         inkscape:connector-curvature="0"
         sodipodi:nodetypes="cssccssc" />
      <use
         height="1"
         width="1"
         transform="translate(-4.5166016e-6,-56.238747)"
         x="0"
         y="0"
         xlink:href="#rect6156"
         id="use6393" />
      <use
         height="1"
         width="1"
         transform="translate(70.388995,2.3398437e-5)"
         x="0"
         y="0"
         xlink:href="#rect6156"
         id="use6395" />
      <use
         height="1052.3622"
         width="744.09448"
         transform="translate(-4.5166016e-6,56.238793)"
         id="use6391"
         xlink:href="#rect6156"
         y="0"
         x="0" />
    </g>
    <g
       id="g6499"
       transform="translate(10.375977,0)">
      <rect
         y="1435.5703"
         x="-1957.2726"
         height="645.99255"
         width="838.94745"
         id="rect3068"
         style="fill:#000000;stroke:none" />
      <rect
         style="fill:#83a0c1;fill-opacity:1;stroke:none"
         id="rect3070"
         width="765.19751"
         height="505.09973"
         x="-1918.344"
         y="1471.2845" />
      <rect
         ry="0"
         rx="0"
         y="1451.8275"
         x="-1942.5623"
         height="72.983521"
         width="83.842659"
         id="rect3975"
         style="fill:#f4de78;fill-opacity:1;stroke:none" />
      <rect
         y="1721.3685"
         x="-1751.5211"
         height="9.2176418"
         width="9.2176418"
         id="rect3126"
         style="fill:none;stroke:#000000;stroke-width:3;stroke-linecap:round;stroke-linejoin:round;stroke-miterlimit:4;stroke-opacity:1;stroke-dasharray:none;stroke-dashoffset:0" />
      <use
         height="1052.3622"
         width="744.09448"
         transform="translate(422.33412,-1.607666e-5)"
         id="use3136"
         xlink:href="#rect3126"
         y="0"
         x="0" />
      <use
         x="0"
         y="0"
         xlink:href="#rect3126"
         id="use3138"
         transform="translate(351.94504,-1.607666e-5)"
         width="744.09448"
         height="1052.3622" />
      <use
         height="1052.3622"
         width="744.09448"
         transform="translate(281.55601,-1.607666e-5)"
         id="use3140"
         xlink:href="#rect3126"
         y="0"
         x="0" />
      <use
         height="1052.3622"
         width="744.09448"
         transform="translate(140.77799,-1.607666e-5)"
         id="use3144"
         xlink:href="#rect3126"
         y="0"
         x="0" />
      <use
         x="0"
         y="0"
         xlink:href="#rect3126"
         id="use3146"
         transform="translate(70.389041,-1.607666e-5)"
         width="744.09448"
         height="1052.3622" />
      <use
         height="1052.3622"
         width="744.09448"
         transform="translate(351.94504,-56.238816)"
         id="use3148"
         xlink:href="#rect3126"
         y="0"
         x="0" />
      <use
         x="0"
         y="0"
         xlink:href="#rect3126"
         id="use3150"
         transform="translate(281.55605,-56.238816)"
         width="744.09448"
         height="1052.3622" />
      <use
         height="1052.3622"
         width="744.09448"
         transform="translate(211.16704,-56.238816)"
         id="use3152"
         xlink:href="#rect3126"
         y="0"
         x="0" />
      <use
         x="0"
         y="0"
         xlink:href="#rect3126"
         id="use3154"
         transform="translate(140.77803,-56.238816)"
         width="744.09448"
         height="1052.3622" />
      <use
         height="1052.3622"
         width="744.09448"
         transform="translate(70.389041,-56.238816)"
         id="use3156"
         xlink:href="#rect3126"
         y="0"
         x="0" />
      <use
         x="0"
         y="0"
         xlink:href="#rect3126"
         id="use3158"
         transform="translate(351.94504,56.238784)"
         width="744.09448"
         height="1052.3622" />
      <use
         x="0"
         y="0"
         xlink:href="#rect3126"
         id="use3166"
         transform="translate(70.389041,56.238784)"
         width="744.09448"
         height="1052.3622" />
      <use
         x="0"
         y="0"
         xlink:href="#rect3126"
         id="use3170"
         transform="translate(211.16709,-116.76322)"
         width="744.09448"
         height="1052.3622" />
      <rect
         style="fill:none;stroke:#000000;stroke-width:3;stroke-linecap:round;stroke-linejoin:round;stroke-miterlimit:4;stroke-opacity:1;stroke-dasharray:none;stroke-dashoffset:0"
         id="use4927"
         width="24.931919"
         height="36.717625"
         x="-1548.2112"
         y="1763.8573" />
      <use
         x="0"
         y="0"
         xlink:href="#rect3126"
         id="use4744"
         transform="translate(211.16708,-1.607666e-5)"
         width="744.09448"
         height="1052.3622" />
      <path
         inkscape:connector-curvature="0"
         id="path4883"
         d="m -1841.8242,1471.2846 0,505.0997"
         style="fill:#000000;fill-opacity:1;fill-rule:evenodd;stroke:#ff0000;stroke-width:1;stroke-miterlimit:10;stroke-opacity:1;stroke-dasharray:none;stroke-dashoffset:0" />
      <path
         sodipodi:nodetypes="cccc"
         inkscape:connector-curvature="0"
         id="path4881"
         d="m -1688.7847,1471.2846 0,110.3632 m 0,287.1429 0,107.5936"
         style="fill:#000000;fill-opacity:1;fill-rule:evenodd;stroke:#ff0000;stroke-width:1;stroke-miterlimit:10;stroke-opacity:1;stroke-dasharray:none;stroke-dashoffset:0" />
      <path
         inkscape:connector-curvature="0"
         id="use4824"
         d="m -1229.6662,1471.2846 0,505.0997"
         style="fill:#000000;fill-opacity:1;fill-rule:evenodd;stroke:#ff0000;stroke-width:1;stroke-miterlimit:10;stroke-opacity:1;stroke-dasharray:none;stroke-dashoffset:0" />
      <path
         inkscape:connector-curvature="0"
         id="path4850"
         style="fill:none;stroke:#ff0000;stroke-width:1;stroke-miterlimit:10;stroke-opacity:1;stroke-dasharray:none;stroke-dashoffset:0"
         d="m -1478.2917,1852.1246 c 16.2132,-9.1853 31.565,-20.1843 31.565,-33.3187 l 0,-53.587 c 0,-6.8353 -3.3646,-10.9125 -8.7078,-14.5228 m -137.7643,101.4285 c -16.2132,-9.1853 -31.565,-20.1843 -31.565,-33.3187 l 0,-53.587 c 0,-6.8353 3.3646,-10.9125 8.7078,-14.5228" />
      <path
         inkscape:connector-curvature="0"
         d="m -1375.9277,1865.8237 222.7812,0 m -352.5858,0 103.5407,0 m -271.7311,0 106.066,0 m -350.4873,0 216.6421,0 m 325.7742,-283.9785 222.7812,0 m -352.5858,0 103.5407,0 m -271.7311,0 106.066,0 m -350.4873,0 216.6421,0 m 411.1321,141.9893 137.4233,0 m -765.1975,0 135.8299,0"
         style="fill:#000000;fill-opacity:1;fill-rule:evenodd;stroke:#ff0000;stroke-width:1;stroke-miterlimit:10;stroke-opacity:1;stroke-dasharray:none;stroke-dashoffset:0"
         id="path4872" />
      <path
         style="fill:#000000;fill-opacity:1;fill-rule:evenodd;stroke:#ff0000;stroke-width:1;stroke-miterlimit:10;stroke-opacity:1;stroke-dasharray:none;stroke-dashoffset:0"
         d="m -1535.7452,1471.2846 0,110.3632 m 0,287.1429 0,107.5936"
         id="path4885"
         inkscape:connector-curvature="0"
         sodipodi:nodetypes="cccc" />
      <path
         sodipodi:nodetypes="cccc"
         inkscape:connector-curvature="0"
         id="path4887"
         d="m -1382.7058,1471.2846 0,110.3632 m 0,287.1429 0,107.5936"
         style="fill:#000000;fill-opacity:1;fill-rule:evenodd;stroke:#ff0000;stroke-width:1;stroke-miterlimit:10;stroke-opacity:1;stroke-dasharray:none;stroke-dashoffset:0" />
      <path
         id="path4902"
         style="fill:none;stroke:#000000;stroke-width:1;stroke-miterlimit:10;stroke-opacity:1;stroke-dasharray:none;stroke-dashoffset:0"
         d="m -1884.5059,1473.0507 c 0.4946,0.5504 0.8648,1.4552 0.8648,2.2842 l 0,26.6942 c 0,0.8291 -0.3702,1.7338 -0.8648,2.2842 m -32.6328,-31.2626 c -0.4946,0.5504 -0.8648,1.4552 -0.8648,2.2842 l 0,26.6942 c 0,0.8291 0.3702,1.7338 0.8648,2.2842"
         inkscape:connector-curvature="0"
         sodipodi:nodetypes="cssccssc" />
      <use
         height="1"
         width="1"
         transform="translate(-70.389023,1.446875e-5)"
         x="0"
         y="0"
         xlink:href="#use4927"
         id="use6399" />
      <use
         height="1"
         width="1"
         transform="translate(70.388997,1.446875e-5)"
         x="0"
         y="0"
         xlink:href="#use4927"
         id="use6401" />
      <use
         height="1052.3622"
         width="744.09448"
         transform="translate(3.6777344e-5,56.23881)"
         id="use6397"
         xlink:href="#use4927"
         y="0"
         x="0" />
    </g>
  </g>
</svg>
