<?xml version="1.0" encoding="UTF-8" standalone="no"?>
<!-- Created with Inkscape (http://www.inkscape.org/) -->

<svg
   xmlns:dc="http://purl.org/dc/elements/1.1/"
   xmlns:cc="http://creativecommons.org/ns#"
   xmlns:rdf="http://www.w3.org/1999/02/22-rdf-syntax-ns#"
   xmlns:svg="http://www.w3.org/2000/svg"
   xmlns="http://www.w3.org/2000/svg"
   xmlns:sodipodi="http://sodipodi.sourceforge.net/DTD/sodipodi-0.dtd"
   xmlns:inkscape="http://www.inkscape.org/namespaces/inkscape"
   width="838.94745"
   height="645.99255"
   id="svg2"
   version="1.1"
   inkscape:version="0.48.2 r9819"
   sodipodi:docname="AF_points_automatic.svg">
  <defs
     id="defs4" />
  <sodipodi:namedview
     id="base"
     pagecolor="#ffffff"
     bordercolor="#666666"
     borderopacity="1.0"
     inkscape:pageopacity="0.0"
     inkscape:pageshadow="2"
     inkscape:zoom="0.9899495"
     inkscape:cx="380.0017"
     inkscape:cy="378.98927"
     inkscape:document-units="px"
     inkscape:current-layer="layer1"
     showgrid="false"
     inkscape:object-nodes="true"
     inkscape:snap-to-guides="true"
     inkscape:snap-object-midpoints="true"
     fit-margin-top="0"
     fit-margin-left="0"
     fit-margin-right="0"
     fit-margin-bottom="0" />
  <metadata
     id="metadata7">
    <rdf:RDF>
      <cc:Work
         rdf:about="">
        <dc:format>image/svg+xml</dc:format>
        <dc:type
           rdf:resource="http://purl.org/dc/dcmitype/StillImage" />
        <dc:title></dc:title>
      </cc:Work>
    </rdf:RDF>
  </metadata>
  <g
     inkscape:label="Calque 1"
     inkscape:groupmode="layer"
     id="layer1"
     transform="translate(1069.7537,-95.570396)">
    <rect
       style="fill:#000000;stroke:none"
       id="rect3068"
       width="838.94745"
       height="645.99255"
       x="-1069.7537"
       y="95.570396" />
    <rect
       y="131.28468"
       x="-1030.8251"
       height="505.09973"
       width="765.19751"
       id="rect3070"
       style="fill:#83a0c1;fill-opacity:1;stroke:none" />
    <rect
       style="fill:#f4de78;fill-opacity:1;stroke:none"
       id="rect3975"
       width="83.842659"
       height="72.983521"
       x="-1055.0433"
       y="111.82755"
       rx="0"
       ry="0" />
    <path
       id="path4855"
       style="fill:none;stroke:#ff0000;stroke-width:1;stroke-miterlimit:10;stroke-opacity:1;stroke-dasharray:none;stroke-dashoffset:0"
       d="m -541.75034,509.66356 19.47214,0 c 17.07955,-10.57949 32.05168,-19.25489 45.03067,-26.71575 m -64.50281,-224.94227 19.47214,0 c 17.07955,10.57949 32.05168,19.25489 45.03067,26.71575 m 15.20401,8.74925 c 36.47807,21.13356 52.81343,32.66943 52.81343,57.58047 l 0,65.56708 c 0,24.91104 -16.33536,36.44691 -52.81343,57.58047 m -292.65874,35.465 -19.47214,0 c -17.07955,-10.57949 -32.05168,-19.25489 -45.03067,-26.71575 m 64.50281,-224.94227 -19.47214,0 c -17.07955,10.57949 -32.05168,19.25489 -45.03067,26.71575 m -15.20401,8.74925 c -36.47807,21.13356 -52.81343,32.66943 -52.81343,57.58047 l 0,65.56708 c 0,24.91104 16.33536,36.44691 52.81343,57.58047"
       inkscape:connector-curvature="0" />
    <path
       id="path4887"
       style="fill:#000000;fill-opacity:1;fill-rule:evenodd;stroke:#000000;stroke-width:1;stroke-miterlimit:10;stroke-opacity:1;stroke-dasharray:none;stroke-dashoffset:0"
       d="m -495.18683,131.28468 0,110.36322 m 0,287.14286 0,107.59364 m -153.03949,-505.09972 0,110.36322 m 0,287.14286 0,107.59364 m 159.81757,-110.5606 222.78119,0 m -352.58579,0 103.54063,0 m -271.73103,0 106.06601,0 m -350.48736,0 216.64215,0 m 325.7742,-283.9785 222.78119,0 m -352.58579,0 103.54063,0 m -271.73103,0 106.06601,0 m -350.48736,0 216.64215,0 m 411.13209,141.98925 137.4233,0 m -765.19754,0 135.82995,0 m 552.84787,-252.54987 0,505.09972 m -459.11852,-505.09972 0,110.36322 m 0,287.14286 0,107.59364 m -153.03949,-505.09972 0,505.09972" />
    <path
       inkscape:connector-curvature="0"
       d="m -995.09543,169.62237 3.29666,0 c 2.8916,-1.79113 5.4264,-3.25989 7.62377,-4.52302 m -10.92043,-38.0831 3.29666,0 c 2.8916,1.79112 5.4264,3.25988 7.62377,4.52302 m 2.57406,1.48126 c 6.17581,3.57795 8.9414,5.53099 8.9414,9.74847 l 0,11.10062 c 0,4.21748 -2.76559,6.17052 -8.9414,9.74847 m -49.54756,6.00428 -3.2967,0 c -2.8916,-1.79113 -5.4264,-3.25989 -7.6238,-4.52302 m 10.9205,-38.0831 -3.2967,0 c -2.8916,1.79112 -5.4264,3.25988 -7.6238,4.52302 m -2.5741,1.48126 c -6.1757,3.57795 -8.9413,5.53099 -8.9413,9.74847 l 0,11.10062 c 0,4.21748 2.7656,6.17052 8.9413,9.74847"
       style="fill:none;stroke:#000000;stroke-width:1;stroke-miterlimit:10;stroke-opacity:1;stroke-dasharray:none;stroke-dashoffset:0"
       id="path4906" />
  </g>
</svg>
