<?xml version="1.0" encoding="UTF-8" standalone="no"?>
<!-- Created with Inkscape (http://www.inkscape.org/) -->

<svg
   xmlns:dc="http://purl.org/dc/elements/1.1/"
   xmlns:cc="http://creativecommons.org/ns#"
   xmlns:rdf="http://www.w3.org/1999/02/22-rdf-syntax-ns#"
   xmlns:svg="http://www.w3.org/2000/svg"
   xmlns="http://www.w3.org/2000/svg"
   xmlns:sodipodi="http://sodipodi.sourceforge.net/DTD/sodipodi-0.dtd"
   xmlns:inkscape="http://www.inkscape.org/namespaces/inkscape"
   width="747.51257"
   height="449.29004"
   id="svg2"
   version="1.1"
   inkscape:version="0.48.3.1 r9886"
   sodipodi:docname="first_second_curtain_fast.svg">
  <defs
     id="defs4">
    <marker
       inkscape:stockid="Arrow1Lend"
       orient="auto"
       refY="0"
       refX="0"
       id="Arrow1Lend"
       style="overflow:visible">
      <path
         id="path5254"
         d="M 0,0 5,-5 -12.5,0 5,5 0,0 z"
         style="fill-rule:evenodd;stroke:#000000;stroke-width:1pt"
         transform="matrix(-0.8,0,0,-0.8,-10,0)"
         inkscape:connector-curvature="0" />
    </marker>
  </defs>
  <sodipodi:namedview
     id="base"
     pagecolor="#ffffff"
     bordercolor="#666666"
     borderopacity="1.0"
     inkscape:pageopacity="0.0"
     inkscape:pageshadow="2"
     inkscape:zoom="0.98994949"
     inkscape:cx="287.77856"
     inkscape:cy="233.13064"
     inkscape:document-units="px"
     inkscape:current-layer="layer1"
     showgrid="false"
     inkscape:object-nodes="true"
     inkscape:window-width="1615"
     inkscape:window-height="1026"
     inkscape:window-x="65"
     inkscape:window-y="24"
     inkscape:window-maximized="1"
     inkscape:object-paths="true"
     inkscape:snap-global="false"
     fit-margin-top="0"
     fit-margin-left="0"
     fit-margin-right="0"
     fit-margin-bottom="0" />
  <metadata
     id="metadata7">
    <rdf:RDF>
      <cc:Work
         rdf:about="">
        <dc:format>image/svg+xml</dc:format>
        <dc:type
           rdf:resource="http://purl.org/dc/dcmitype/StillImage" />
      </cc:Work>
    </rdf:RDF>
  </metadata>
  <g
     inkscape:label="Calque 1"
     inkscape:groupmode="layer"
     id="layer1"
     transform="translate(-13.142128,-39.931957)">
    <g
       id="g5697">
      <rect
         y="58.372078"
         x="14.142136"
         height="175.02393"
         width="233.36525"
         id="rect2985"
         style="fill:#ffffff;fill-opacity:1;fill-rule:nonzero;stroke:#000000;stroke-width:2;stroke-linecap:butt;stroke-linejoin:miter;stroke-miterlimit:4;stroke-opacity:1;stroke-dasharray:none;stroke-dashoffset:0" />
      <rect
         style="fill:#4d4d4d;fill-opacity:1;fill-rule:nonzero;stroke:#000000;stroke-width:2;stroke-linecap:butt;stroke-linejoin:miter;stroke-miterlimit:4;stroke-opacity:1;stroke-dasharray:none;stroke-dashoffset:0"
         id="rect2987"
         width="233.36525"
         height="192.46405"
         x="14.142136"
         y="58.372078" />
      <rect
         y="40.931957"
         x="14.142136"
         height="17.440121"
         width="233.36525"
         id="rect2989"
         style="fill:#4d4d4d;fill-opacity:1;fill-rule:nonzero;stroke:#000000;stroke-width:2;stroke-linecap:butt;stroke-linejoin:miter;stroke-miterlimit:4;stroke-opacity:1;stroke-dasharray:none;stroke-dashoffset:0" />
      <text
         sodipodi:linespacing="125%"
         id="text3782"
         y="73.288956"
         x="71.426323"
         style="font-size:16px;font-style:normal;font-variant:normal;font-weight:normal;font-stretch:normal;text-align:start;line-height:125%;letter-spacing:0px;word-spacing:0px;writing-mode:lr-tb;text-anchor:start;fill:#ff0000;fill-opacity:1;stroke:none;font-family:Sans;-inkscape-font-specification:Sans"
         xml:space="preserve"><tspan
           y="73.288956"
           x="71.426323"
           id="tspan3784"
           sodipodi:role="line">premier rideau</tspan></text>
      <text
         sodipodi:linespacing="125%"
         id="text3786"
         y="55.937172"
         x="63.398979"
         style="font-size:16px;font-style:normal;font-variant:normal;font-weight:normal;font-stretch:normal;text-align:start;line-height:125%;letter-spacing:0px;word-spacing:0px;writing-mode:lr-tb;text-anchor:start;fill:#ff0000;fill-opacity:1;stroke:none;font-family:Sans;-inkscape-font-specification:Sans"
         xml:space="preserve"><tspan
           y="55.937172"
           x="63.398979"
           id="tspan3788"
           sodipodi:role="line">deuxième rideau</tspan></text>
      <rect
         style="fill:none;stroke:#000000;stroke-width:2;stroke-linecap:butt;stroke-linejoin:miter;stroke-miterlimit:4;stroke-opacity:1;stroke-dasharray:4, 4;stroke-dashoffset:0"
         id="rect3790"
         width="233.36525"
         height="175.02393"
         x="14.142136"
         y="58.372078" />
    </g>
    <g
       id="g5735"
       transform="translate(-3.3136291,0)">
      <rect
         y="295.75793"
         x="273.52942"
         height="175.02393"
         width="233.36525"
         id="rect3810"
         style="fill:#ffffff;fill-opacity:1;fill-rule:nonzero;stroke:#000000;stroke-width:2;stroke-linecap:butt;stroke-linejoin:miter;stroke-miterlimit:4;stroke-opacity:1;stroke-dasharray:none;stroke-dashoffset:0" />
      <rect
         style="fill:#4d4d4d;fill-opacity:1;fill-rule:nonzero;stroke:#000000;stroke-width:2;stroke-linecap:butt;stroke-linejoin:miter;stroke-miterlimit:4;stroke-opacity:1;stroke-dasharray:none;stroke-dashoffset:0"
         id="rect3812"
         width="233.36526"
         height="17.440125"
         x="273.52942"
         y="470.78186" />
      <rect
         y="278.31781"
         x="273.52942"
         height="192.46404"
         width="233.36523"
         id="rect3814"
         style="fill:#4d4d4d;fill-opacity:1;fill-rule:nonzero;stroke:#000000;stroke-width:2;stroke-linecap:butt;stroke-linejoin:miter;stroke-miterlimit:4;stroke-opacity:1;stroke-dasharray:none;stroke-dashoffset:0" />
      <text
         sodipodi:linespacing="125%"
         id="text3816"
         y="483.91599"
         x="330.8136"
         style="font-size:16px;font-style:normal;font-variant:normal;font-weight:normal;font-stretch:normal;text-align:start;line-height:125%;letter-spacing:0px;word-spacing:0px;writing-mode:lr-tb;text-anchor:start;fill:#ff0000;fill-opacity:1;stroke:none;font-family:Sans;-inkscape-font-specification:Sans"
         xml:space="preserve"><tspan
           y="483.91599"
           x="330.8136"
           id="tspan3818"
           sodipodi:role="line">premier rideau</tspan></text>
      <text
         sodipodi:linespacing="125%"
         id="text3820"
         y="464.54388"
         x="322.78625"
         style="font-size:16px;font-style:normal;font-variant:normal;font-weight:normal;font-stretch:normal;text-align:start;line-height:125%;letter-spacing:0px;word-spacing:0px;writing-mode:lr-tb;text-anchor:start;fill:#ff0000;fill-opacity:1;stroke:none;font-family:Sans;-inkscape-font-specification:Sans"
         xml:space="preserve"><tspan
           y="464.54388"
           x="322.78625"
           id="tspan3822"
           sodipodi:role="line">deuxième rideau</tspan></text>
      <rect
         style="fill:none;stroke:#000000;stroke-width:2;stroke-linecap:butt;stroke-linejoin:miter;stroke-miterlimit:4;stroke-opacity:1;stroke-dasharray:4, 4;stroke-dashoffset:0"
         id="rect3824"
         width="233.36525"
         height="175.02393"
         x="273.52942"
         y="295.75793" />
    </g>
    <g
       id="g5790">
      <rect
         style="fill:#ffffff;fill-opacity:1;fill-rule:nonzero;stroke:#000000;stroke-width:2;stroke-linecap:butt;stroke-linejoin:miter;stroke-miterlimit:4;stroke-opacity:1;stroke-dasharray:none;stroke-dashoffset:0"
         id="rect3794"
         width="233.36525"
         height="175.02393"
         x="270.21579"
         y="58.372078" />
      <path
         sodipodi:nodetypes="cccccccccccccccccccccccccccccccccccccccccccccccccccccccccccccccccccccccccccccccccccccccccccccccccccccccccccccccccccccccccccccccccccccccccccccccccccccccccccccccccccccccccccccccccccccccccccccccccccccccccccccc"
         inkscape:connector-curvature="0"
         id="path5199"
         style="fill:none;stroke:#000000;stroke-width:0.5;stroke-linecap:butt;stroke-linejoin:miter;stroke-miterlimit:4;stroke-opacity:1;stroke-dasharray:none"
         d="m 271.21579,57.372078 0,177.023922 m 4,-177.023922 0,177.023922 m 4,-177.023922 0,177.023922 m 4,-177.023922 0,177.023922 m 4,-177.023922 0,177.023922 m 4,-177.023922 0,177.023922 m 4,-177.023922 0,177.023922 m 4,-177.023922 0,177.023922 m 4,-177.023922 0,177.023922 m 4,-177.023922 0,177.023922 m 4,-177.023922 0,177.023922 m 4,-177.023922 0,177.023922 m 4,-177.023922 0,177.023922 m 4,-177.023922 0,177.023922 m 4,-177.023922 0,177.023922 m 4,-177.023922 0,177.023922 m 4,-177.023922 0,177.023922 m 4,-177.023922 0,177.023922 m 4,-177.023922 0,177.023922 m 4,-177.023922 0,177.023922 m 4,-177.023922 0,177.023922 m 4,-177.023922 0,177.023922 m 4,-177.023922 0,177.023922 m 4,-177.023922 0,177.023922 m 4,-177.023922 0,177.023922 m 4,-177.023922 0,177.023922 m 4,-177.023922 0,177.023922 m 4,-177.023922 0,177.023922 m 4,-177.023922 0,177.023922 m 4,-177.023922 0,177.023922 m 4,-177.023922 0,177.023922 m 4,-177.023922 0,177.023922 m 4,-177.023922 0,177.023922 m 4,-177.023922 0,177.023922 m 4,-177.023922 0,177.023922 m 4,-177.023922 0,177.023922 m 4,-177.023922 0,177.023922 m 4,-177.023922 0,177.023922 m 4,-177.023922 0,177.023922 m 4,-177.023922 0,177.023922 m 4,-177.023922 0,177.023922 m 4,-177.023922 0,177.023922 m 4,-177.023922 0,177.023922 m 4,-177.023922 0,177.023922 m 4,-177.023922 0,177.023922 m 4,-177.023922 0,177.023922 m 4,-177.023922 0,177.023922 m 4,-177.023922 0,177.023922 m 4,-177.023922 0,177.023922 m 4,-177.023922 0,177.023922 m 4,-177.023922 0,177.023922 m 4,-177.023922 0,177.023922 m 4,-177.023922 0,177.023922 m 4,-177.023922 0,177.023922 m 4,-177.023922 0,177.023922 m 4,-177.023922 0,177.023922 m 4,-177.023922 0,177.023922 m 4,-177.023922 0,177.023922 m 4,-177.023922 0,177.023922 m -232,-175.023922 232.36525,0.08929 m -232.36525,3.910714 232.36525,0.08929 m -232.36525,3.910714 232.36525,0.08929 m -232.36525,3.910714 232.36525,0.08929 m -232.36525,3.910714 232.36525,0.08929 m -232.36525,3.910714 232.36525,0.08929 m -232.36525,3.910714 232.36525,0.08929 m -232.36525,3.910714 232.36525,0.08929 M 271.21579,91.37211 503.58104,91.4614 m -232.36525,3.910714 232.36525,0.08929 m -232.36525,3.910714 232.36525,0.08929 m -232.36525,3.910712 232.36525,0.0893 m -232.36525,3.91071 232.36525,0.0893 m -232.36525,3.91071 232.36525,0.0893 m -232.36525,3.91071 232.36525,0.0893 m -232.36525,3.91071 232.36525,0.0893 m -232.36525,3.91071 232.36525,0.0893 m -232.36525,3.91071 232.36525,0.0893 m -232.36525,3.91071 232.36525,0.0893 m -232.36525,3.91071 232.36525,0.0893 m -232.36525,3.91071 232.36525,0.0893 m -232.36525,3.91071 232.36525,0.0893 m -232.36525,3.91071 232.36525,0.0893 m -232.36525,3.91071 232.36525,0.0893 m -232.36525,3.91071 232.36525,0.0893 m -232.36525,3.91071 232.36525,0.0893 m -232.36525,3.91071 232.36525,0.0893 m -232.36525,3.91071 232.36525,0.0893 m -232.36525,3.91071 232.36525,0.0893 m -232.36525,3.91071 232.36525,0.0893 m -232.36525,3.91071 232.36525,0.0893 m -232.36525,3.91071 232.36525,0.0893 m -232.36525,3.91071 232.36525,0.0893 m -232.36525,3.91071 232.36525,0.0893 m -232.36525,3.91071 232.36525,0.0893 m -232.36525,3.91071 232.36525,0.0893 m -232.36525,3.91071 232.36525,0.0893 m -232.36525,3.91071 232.36525,0.0893 m -232.36525,3.91071 232.36525,0.0893 m -232.36525,3.91071 232.36525,0.0893 m -232.36525,3.91071 232.36525,0.0893 m -232.36525,3.91071 232.36525,0.0893 m -232.36525,3.91071 232.36525,0.0893 m -232.36525,3.91071 232.36525,0.0893" />
      <text
         sodipodi:linespacing="125%"
         id="text3828"
         y="166.2688"
         x="326.26364"
         style="font-size:56px;font-style:normal;font-variant:normal;font-weight:normal;font-stretch:normal;text-align:start;line-height:125%;letter-spacing:0px;word-spacing:0px;writing-mode:lr-tb;text-anchor:start;fill:#ff0000;fill-opacity:1;stroke:none;font-family:Sans;-inkscape-font-specification:Sans"
         xml:space="preserve"><tspan
           y="166.2688"
           x="326.26364"
           id="tspan3830"
           sodipodi:role="line">CCD</tspan></text>
      <rect
         y="103.37232"
         x="270.21579"
         height="147.46381"
         width="233.36526"
         id="rect3796"
         style="fill:#4d4d4d;fill-opacity:1;fill-rule:nonzero;stroke:#000000;stroke-width:2;stroke-linecap:butt;stroke-linejoin:miter;stroke-miterlimit:4;stroke-opacity:1;stroke-dasharray:none;stroke-dashoffset:0" />
      <rect
         style="fill:#4d4d4d;fill-opacity:1;fill-rule:nonzero;stroke:#000000;stroke-width:2;stroke-linecap:butt;stroke-linejoin:miter;stroke-miterlimit:4;stroke-opacity:1;stroke-dasharray:none;stroke-dashoffset:0"
         id="rect3798"
         width="233.36525"
         height="17.440121"
         x="270.21579"
         y="40.931957" />
      <text
         xml:space="preserve"
         style="font-size:16px;font-style:normal;font-variant:normal;font-weight:normal;font-stretch:normal;text-align:start;line-height:125%;letter-spacing:0px;word-spacing:0px;writing-mode:lr-tb;text-anchor:start;fill:#ff0000;fill-opacity:1;stroke:none;font-family:Sans;-inkscape-font-specification:Sans"
         x="327.49997"
         y="118.74583"
         id="text3800"
         sodipodi:linespacing="125%"><tspan
           sodipodi:role="line"
           id="tspan3802"
           x="327.49997"
           y="118.74583">premier rideau</tspan></text>
      <text
         xml:space="preserve"
         style="font-size:16px;font-style:normal;font-variant:normal;font-weight:normal;font-stretch:normal;text-align:start;line-height:125%;letter-spacing:0px;word-spacing:0px;writing-mode:lr-tb;text-anchor:start;fill:#ff0000;fill-opacity:1;stroke:none;font-family:Sans;-inkscape-font-specification:Sans"
         x="319.47263"
         y="55.937172"
         id="text3804"
         sodipodi:linespacing="125%"><tspan
           sodipodi:role="line"
           id="tspan3806"
           x="319.47263"
           y="55.937172">deuxième rideau</tspan></text>
      <rect
         y="58.372078"
         x="270.21579"
         height="175.02393"
         width="233.36525"
         id="rect3808"
         style="fill:none;stroke:#000000;stroke-width:2;stroke-linecap:butt;stroke-linejoin:miter;stroke-miterlimit:4;stroke-opacity:1;stroke-dasharray:4, 4;stroke-dashoffset:0" />
      <path
         inkscape:connector-curvature="0"
         id="path5245"
         d="m 300.08445,103.38052 0,49.28572"
         style="fill:#ff0000;fill-opacity:1;fill-rule:nonzero;stroke:#0000ff;stroke-width:2;stroke-linecap:butt;stroke-linejoin:miter;stroke-miterlimit:4;stroke-opacity:1;stroke-dasharray:none;stroke-dashoffset:0;marker-end:url(#Arrow1Lend)"
         sodipodi:nodetypes="cc" />
      <path
         style="fill:#ff0000;fill-opacity:1;fill-rule:nonzero;stroke:#0000ff;stroke-width:2;stroke-linecap:butt;stroke-linejoin:miter;stroke-miterlimit:4;stroke-opacity:1;stroke-dasharray:none;stroke-dashoffset:0;marker-end:url(#Arrow1Lend)"
         d="m 473.71238,103.02338 0,49.28572"
         id="path5691"
         inkscape:connector-curvature="0"
         sodipodi:nodetypes="cc" />
    </g>
    <g
       id="g5805"
       transform="translate(0,-3.0304565)">
      <rect
         y="298.78839"
         x="14.142128"
         height="175.02393"
         width="233.36525"
         id="rect5201"
         style="fill:#ffffff;fill-opacity:1;fill-rule:nonzero;stroke:#000000;stroke-width:2;stroke-linecap:butt;stroke-linejoin:miter;stroke-miterlimit:4;stroke-opacity:1;stroke-dasharray:none;stroke-dashoffset:0" />
      <rect
         style="fill:#4d4d4d;fill-opacity:1;fill-rule:nonzero;stroke:#000000;stroke-width:2;stroke-linecap:butt;stroke-linejoin:miter;stroke-miterlimit:4;stroke-opacity:1;stroke-dasharray:none;stroke-dashoffset:0"
         id="rect5203"
         width="233.36526"
         height="17.440125"
         x="14.142128"
         y="473.81232" />
      <path
         d="m 15.142153,297.78838 0,177.02393 m 4,-177.02393 0,177.02393 m 4,-177.02393 0,177.02393 m 4,-177.02393 0,177.02393 m 4,-177.02393 0,177.02393 m 4,-177.02393 0,177.02393 m 4,-177.02393 0,177.02393 m 4,-177.02393 0,177.02393 m 4,-177.02393 0,177.02393 m 4,-177.02393 0,177.02393 m 4,-177.02393 0,177.02393 m 4,-177.02393 0,177.02393 m 3.999999,-177.02393 0,177.02393 m 4,-177.02393 0,177.02393 m 4,-177.02393 0,177.02393 m 4,-177.02393 0,177.02393 m 4,-177.02393 0,177.02393 m 4,-177.02393 0,177.02393 m 4,-177.02393 0,177.02393 m 4,-177.02393 0,177.02393 m 4,-177.02393 0,177.02393 m 4.000001,-177.02393 0,177.02393 m 3.999997,-177.02393 0,177.02393 m 4,-177.02393 0,177.02393 m 4,-177.02393 0,177.02393 m 4,-177.02393 0,177.02393 m 4,-177.02393 0,177.02393 m 4,-177.02393 0,177.02393 m 4,-177.02393 0,177.02393 m 4,-177.02393 0,177.02393 m 4,-177.02393 0,177.02393 m 4,-177.02393 0,177.02393 m 4,-177.02393 0,177.02393 m 4,-177.02393 0,177.02393 m 4,-177.02393 0,177.02393 m 4,-177.02393 0,177.02393 m 4,-177.02393 0,177.02393 m 4,-177.02393 0,177.02393 m 4,-177.02393 0,177.02393 m 4,-177.02393 0,177.02393 m 4,-177.02393 0,177.02393 m 4,-177.02393 0,177.02393 m 4,-177.02393 0,177.02393 m 4,-177.02393 0,177.02393 m 4,-177.02393 0,177.02393 m 4,-177.02393 0,177.02393 m 4,-177.02393 0,177.02393 m 4,-177.02393 0,177.02393 m 4,-177.02393 0,177.02393 m 4,-177.02393 0,177.02393 m 4,-177.02393 0,177.02393 m 4,-177.02393 0,177.02393 m 4,-177.02393 0,177.02393 m 4,-177.02393 0,177.02393 m 4,-177.02393 0,177.02393 m 4,-177.02393 0,177.02393 m 4,-177.02393 0,177.02393 m 4,-177.02393 0,177.02393 m 4,-177.02393 0,177.02393 M 15.142153,299.78838 247.5074,299.87768 M 15.142152,303.7884 247.5074,303.8777 m -232.365248,3.91071 232.365248,0.0893 m -232.365248,3.91072 232.365248,0.0893 m -232.365248,3.91071 232.365248,0.0893 m -232.365248,3.91071 232.365248,0.0893 m -232.365248,3.91072 232.365248,0.0893 m -232.365248,3.91071 232.365248,0.0893 M 15.142152,331.7885 247.5074,331.8778 m -232.365248,3.91071 232.365248,0.0893 m -232.365248,3.91071 232.365248,0.0893 m -232.365248,3.91072 232.365248,0.0893 m -232.365248,3.91071 232.365248,0.0893 m -232.365248,3.91071 232.365248,0.0893 m -232.365248,3.91071 232.365248,0.0893 m -232.365248,3.91071 232.365248,0.0893 m -232.365248,3.91071 232.365248,0.0893 M 15.142152,367.7886 247.5074,367.8779 m -232.365248,3.91071 232.365248,0.0893 m -232.365248,3.91071 232.365248,0.0893 m -232.365248,3.91071 232.365248,0.0893 m -232.365248,3.91071 232.365248,0.0893 m -232.365248,3.91071 232.365248,0.0893 m -232.365248,3.91071 232.365248,0.0893 m -232.365248,3.91071 232.365248,0.0893 m -232.365248,3.91071 232.365248,0.0893 m -232.365248,3.91071 232.365248,0.0893 M 15.142153,407.7887 247.5074,407.878 m -232.365248,3.91071 232.365248,0.0893 m -232.365248,3.91071 232.365248,0.0893 m -232.365248,3.91071 232.365248,0.0893 m -232.365248,3.91071 232.365248,0.0893 m -232.365248,3.91071 232.365248,0.0893 m -232.365248,3.91071 232.365248,0.0893 m -232.365248,3.91071 232.365248,0.0893 m -232.365248,3.91071 232.365248,0.0893 m -232.365248,3.91071 232.365248,0.0893 M 15.142152,447.7888 247.5074,447.8781 M 15.142152,451.7887 247.5074,451.878 m -232.365248,3.91071 232.365248,0.0893 m -232.365248,3.91071 232.365248,0.0893 m -232.365248,3.91071 232.365248,0.0893 m -232.365248,3.91071 232.365248,0.0893 m -232.365248,3.91071 232.365248,0.0893"
         style="fill:none;stroke:#000000;stroke-width:0.5;stroke-linecap:butt;stroke-linejoin:miter;stroke-miterlimit:4;stroke-opacity:1;stroke-dasharray:none"
         id="path5217"
         inkscape:connector-curvature="0"
         sodipodi:nodetypes="cccccccccccccccccccccccccccccccccccccccccccccccccccccccccccccccccccccccccccccccccccccccccccccccccccccccccccccccccccccccccccccccccccccccccccccccccccccccccccccccccccccccccccccccccccccccccccccccccccccccccccccc" />
      <text
         xml:space="preserve"
         style="font-size:56px;font-style:normal;font-variant:normal;font-weight:normal;font-stretch:normal;text-align:start;line-height:125%;letter-spacing:0px;word-spacing:0px;writing-mode:lr-tb;text-anchor:start;fill:#ff0000;fill-opacity:1;stroke:none;font-family:Sans;-inkscape-font-specification:Sans"
         x="70.18998"
         y="406.68512"
         id="text5219"
         sodipodi:linespacing="125%"><tspan
           sodipodi:role="line"
           id="tspan5221"
           x="70.18998"
           y="406.68512">CCD</tspan></text>
      <path
         style="fill:#ff0000;fill-opacity:1;fill-rule:nonzero;stroke:#0000ff;stroke-width:2;stroke-linecap:butt;stroke-linejoin:miter;stroke-miterlimit:4;stroke-opacity:1;stroke-dasharray:none;stroke-dashoffset:0;marker-end:url(#Arrow1Lend)"
         d="m 44.725093,429.37438 -1.428571,55.83946"
         id="path5693"
         inkscape:connector-curvature="0"
         sodipodi:nodetypes="cc" />
      <path
         inkscape:connector-curvature="0"
         id="path5695"
         d="m 218.35303,429.16298 -1.42857,55.83946"
         style="fill:#ff0000;fill-opacity:1;fill-rule:nonzero;stroke:#0000ff;stroke-width:2;stroke-linecap:butt;stroke-linejoin:miter;stroke-miterlimit:4;stroke-opacity:1;stroke-dasharray:none;stroke-dashoffset:0;marker-end:url(#Arrow1Lend)"
         sodipodi:nodetypes="cc" />
      <rect
         y="281.34827"
         x="14.142128"
         height="147.81471"
         width="233.36526"
         id="rect5205"
         style="fill:#4d4d4d;fill-opacity:1;fill-rule:nonzero;stroke:#000000;stroke-width:2;stroke-linecap:butt;stroke-linejoin:miter;stroke-miterlimit:4;stroke-opacity:1;stroke-dasharray:none;stroke-dashoffset:0" />
      <text
         sodipodi:linespacing="125%"
         id="text5207"
         y="486.94644"
         x="71.426338"
         style="font-size:16px;font-style:normal;font-variant:normal;font-weight:normal;font-stretch:normal;text-align:start;line-height:125%;letter-spacing:0px;word-spacing:0px;writing-mode:lr-tb;text-anchor:start;fill:#ff0000;fill-opacity:1;stroke:none;font-family:Sans;-inkscape-font-specification:Sans"
         xml:space="preserve"><tspan
           y="486.94644"
           x="71.426338"
           id="tspan5209"
           sodipodi:role="line">premier rideau</tspan></text>
      <text
         sodipodi:linespacing="125%"
         id="text5211"
         y="423.86475"
         x="63.398964"
         style="font-size:16px;font-style:normal;font-variant:normal;font-weight:normal;font-stretch:normal;text-align:start;line-height:125%;letter-spacing:0px;word-spacing:0px;writing-mode:lr-tb;text-anchor:start;fill:#ff0000;fill-opacity:1;stroke:none;font-family:Sans;-inkscape-font-specification:Sans"
         xml:space="preserve"><tspan
           y="423.86475"
           x="63.398964"
           id="tspan5213"
           sodipodi:role="line">deuxième rideau</tspan></text>
      <rect
         style="fill:none;stroke:#000000;stroke-width:2;stroke-linecap:butt;stroke-linejoin:miter;stroke-miterlimit:4;stroke-opacity:1;stroke-dasharray:4, 4;stroke-dashoffset:0"
         id="rect5215"
         width="233.36525"
         height="175.02393"
         x="14.142128"
         y="298.78839" />
    </g>
    <text
       xml:space="preserve"
       style="font-size:16px;font-style:normal;font-variant:normal;font-weight:normal;font-stretch:normal;text-align:center;line-height:125%;letter-spacing:0px;word-spacing:0px;writing-mode:lr-tb;text-anchor:middle;fill:#000000;fill-opacity:1;stroke:none;font-family:Sans;-inkscape-font-specification:Sans"
       x="642.58142"
       y="349.34802"
       id="text5820"
       sodipodi:linespacing="125%"><tspan
         sodipodi:role="line"
         id="tspan5822"
         x="642.58142"
         y="349.34802">Pour des vitesses</tspan><tspan
         sodipodi:role="line"
         x="645.1283"
         y="369.34802"
         id="tspan5921">rapides : </tspan><tspan
         sodipodi:role="line"
         x="642.58142"
         y="389.34802"
         id="tspan5824">1/500s</tspan><tspan
         sodipodi:role="line"
         x="642.58142"
         y="409.34802"
         id="tspan5826">1/1000s</tspan><tspan
         sodipodi:role="line"
         x="642.58142"
         y="429.34802"
         id="tspan5832">...</tspan></text>
    <g
       id="g6122">
      <rect
         y="58.372082"
         x="526.28943"
         height="175.02393"
         width="233.36525"
         id="rect5878"
         style="fill:#ffffff;fill-opacity:1;fill-rule:nonzero;stroke:#000000;stroke-width:2;stroke-linecap:butt;stroke-linejoin:miter;stroke-miterlimit:4;stroke-opacity:1;stroke-dasharray:none;stroke-dashoffset:0" />
      <path
         d="m 527.28943,57.372082 0,177.023918 m 4,-177.023918 0,177.023918 m 4,-177.023918 0,177.023918 m 4,-177.023918 0,177.023918 m 4,-177.023918 0,177.023918 m 4,-177.023918 0,177.023918 m 4,-177.023918 0,177.023918 m 4,-177.023918 0,177.023918 m 4,-177.023918 0,177.023918 m 4,-177.023918 0,177.023918 m 4,-177.023918 0,177.023918 m 4,-177.023918 0,177.023918 m 4,-177.023918 0,177.023918 m 4,-177.023918 0,177.023918 m 4,-177.023918 0,177.023918 m 4,-177.023918 0,177.023918 m 4,-177.023918 0,177.023918 m 4,-177.023918 0,177.023918 m 4,-177.023918 0,177.023918 m 4,-177.023918 0,177.023918 m 4,-177.023918 0,177.023918 m 4,-177.023918 0,177.023918 m 4,-177.023918 0,177.023918 m 4,-177.023918 0,177.023918 m 4,-177.023918 0,177.023918 m 4,-177.023918 0,177.023918 m 4,-177.023918 0,177.023918 m 4,-177.023918 0,177.023918 m 4,-177.023918 0,177.023918 m 4,-177.023918 0,177.023918 m 4,-177.023918 0,177.023918 m 4,-177.023918 0,177.023918 m 4,-177.023918 0,177.023918 m 4,-177.023918 0,177.023918 m 4,-177.023918 0,177.023918 m 4,-177.023918 0,177.023918 m 4,-177.023918 0,177.023918 m 4,-177.023918 0,177.023918 m 4,-177.023918 0,177.023918 m 4,-177.023918 0,177.023918 m 4,-177.023918 0,177.023918 m 4,-177.023918 0,177.023918 m 4,-177.023918 0,177.023918 m 4,-177.023918 0,177.023918 m 4,-177.023918 0,177.023918 m 4,-177.023918 0,177.023918 m 4,-177.023918 0,177.023918 m 4,-177.023918 0,177.023918 m 4,-177.023918 0,177.023918 m 4,-177.023918 0,177.023918 m 4,-177.023918 0,177.023918 m 4,-177.023918 0,177.023918 m 4,-177.023918 0,177.023918 m 4,-177.023918 0,177.023918 m 4,-177.023918 0,177.023918 m 4,-177.023918 0,177.023918 m 4,-177.023918 0,177.023918 m 4,-177.023918 0,177.023918 m 4,-177.023918 0,177.023918 m -232,-175.023918 232.36525,0.08929 m -232.36525,3.910714 232.36525,0.08929 m -232.36525,3.910714 232.36525,0.08929 m -232.36525,3.910714 232.36525,0.08929 m -232.36525,3.910714 232.36525,0.08929 m -232.36525,3.910714 232.36525,0.08929 m -232.36525,3.910714 232.36525,0.08929 M 527.28943,87.37211 759.65468,87.4614 m -232.36525,3.910714 232.36525,0.08929 m -232.36525,3.910714 232.36525,0.08929 m -232.36525,3.910714 232.36525,0.08929 m -232.36525,3.910708 232.36525,0.0893 m -232.36525,3.91071 232.36525,0.0893 m -232.36525,3.91071 232.36525,0.0893 m -232.36525,3.91071 232.36525,0.0893 m -232.36525,3.91071 232.36525,0.0893 m -232.36525,3.91071 232.36525,0.0893 m -232.36525,3.91071 232.36525,0.0893 m -232.36525,3.91071 232.36525,0.0893 m -232.36525,3.91071 232.36525,0.0893 m -232.36525,3.91071 232.36525,0.0893 m -232.36525,3.91071 232.36525,0.0893 m -232.36525,3.91071 232.36525,0.0893 m -232.36525,3.91071 232.36525,0.0893 m -232.36525,3.91071 232.36525,0.0893 m -232.36525,3.91071 232.36525,0.0893 m -232.36525,3.91071 232.36525,0.0893 m -232.36525,3.91071 232.36525,0.0893 m -232.36525,3.91071 232.36525,0.0893 m -232.36525,3.91071 232.36525,0.0893 m -232.36525,3.91071 232.36525,0.0893 m -232.36525,3.91071 232.36525,0.0893 m -232.36525,3.91071 232.36525,0.0893 m -232.36525,3.91071 232.36525,0.0893 m -232.36525,3.91071 232.36525,0.0893 m -232.36525,3.91071 232.36525,0.0893 m -232.36525,3.91071 232.36525,0.0893 m -232.36525,3.91071 232.36525,0.0893 m -232.36525,3.91071 232.36525,0.0893 m -232.36525,3.91071 232.36525,0.0893 m -232.36525,3.91071 232.36525,0.0893 m -232.36525,3.91071 232.36525,0.0893 m -232.36525,3.91071 232.36525,0.0893 m -232.36525,3.91071 232.36525,0.0893"
         style="fill:none;stroke:#000000;stroke-width:0.5;stroke-linecap:butt;stroke-linejoin:miter;stroke-miterlimit:4;stroke-opacity:1;stroke-dasharray:none"
         id="path5880"
         inkscape:connector-curvature="0"
         sodipodi:nodetypes="cccccccccccccccccccccccccccccccccccccccccccccccccccccccccccccccccccccccccccccccccccccccccccccccccccccccccccccccccccccccccccccccccccccccccccccccccccccccccccccccccccccccccccccccccccccccccccccccccccccccccccccc" />
      <text
         xml:space="preserve"
         style="font-size:56px;font-style:normal;font-variant:normal;font-weight:normal;font-stretch:normal;text-align:start;line-height:125%;letter-spacing:0px;word-spacing:0px;writing-mode:lr-tb;text-anchor:start;fill:#ff0000;fill-opacity:1;stroke:none;font-family:Sans;-inkscape-font-specification:Sans"
         x="582.33728"
         y="166.2688"
         id="text5882"
         sodipodi:linespacing="125%"><tspan
           sodipodi:role="line"
           id="tspan5884"
           x="582.33728"
           y="166.2688">CCD</tspan></text>
      <rect
         style="fill:#4d4d4d;fill-opacity:1;fill-rule:nonzero;stroke:#000000;stroke-width:2;stroke-linecap:butt;stroke-linejoin:miter;stroke-miterlimit:4;stroke-opacity:1;stroke-dasharray:none;stroke-dashoffset:0"
         id="rect5886"
         width="233.36523"
         height="94.46376"
         x="526.28943"
         y="156.37236" />
      <rect
         y="40.931961"
         x="526.28943"
         height="67.529434"
         width="233.36523"
         id="rect5888"
         style="fill:#4d4d4d;fill-opacity:1;fill-rule:nonzero;stroke:#000000;stroke-width:2;stroke-linecap:butt;stroke-linejoin:miter;stroke-miterlimit:4;stroke-opacity:1;stroke-dasharray:none;stroke-dashoffset:0" />
      <text
         sodipodi:linespacing="125%"
         id="text5890"
         y="171.24583"
         x="583.57361"
         style="font-size:16px;font-style:normal;font-variant:normal;font-weight:normal;font-stretch:normal;text-align:start;line-height:125%;letter-spacing:0px;word-spacing:0px;writing-mode:lr-tb;text-anchor:start;fill:#ff0000;fill-opacity:1;stroke:none;font-family:Sans;-inkscape-font-specification:Sans"
         xml:space="preserve"><tspan
           y="171.24583"
           x="583.57361"
           id="tspan5892"
           sodipodi:role="line">premier rideau</tspan></text>
      <text
         sodipodi:linespacing="125%"
         id="text5894"
         y="104.50861"
         x="575.54626"
         style="font-size:16px;font-style:normal;font-variant:normal;font-weight:normal;font-stretch:normal;text-align:start;line-height:125%;letter-spacing:0px;word-spacing:0px;writing-mode:lr-tb;text-anchor:start;fill:#ff0000;fill-opacity:1;stroke:none;font-family:Sans;-inkscape-font-specification:Sans"
         xml:space="preserve"><tspan
           y="104.50861"
           x="575.54626"
           id="tspan5896"
           sodipodi:role="line">deuxième rideau</tspan></text>
      <rect
         style="fill:none;stroke:#000000;stroke-width:2;stroke-linecap:butt;stroke-linejoin:miter;stroke-miterlimit:4;stroke-opacity:1;stroke-dasharray:4, 4;stroke-dashoffset:0"
         id="rect5898"
         width="233.36525"
         height="175.02393"
         x="526.28943"
         y="58.372082" />
      <path
         sodipodi:nodetypes="cc"
         style="fill:#ff0000;fill-opacity:1;fill-rule:nonzero;stroke:#0000ff;stroke-width:2;stroke-linecap:butt;stroke-linejoin:miter;stroke-miterlimit:4;stroke-opacity:1;stroke-dasharray:none;stroke-dashoffset:0;marker-end:url(#Arrow1Lend)"
         d="m 555.97952,157.27608 0,52.5"
         id="path5900"
         inkscape:connector-curvature="0" />
      <path
         sodipodi:nodetypes="cc"
         inkscape:connector-curvature="0"
         id="path5902"
         d="m 729.60745,156.91894 0,52.5"
         style="fill:#ff0000;fill-opacity:1;fill-rule:nonzero;stroke:#0000ff;stroke-width:2;stroke-linecap:butt;stroke-linejoin:miter;stroke-miterlimit:4;stroke-opacity:1;stroke-dasharray:none;stroke-dashoffset:0;marker-end:url(#Arrow1Lend)" />
      <path
         sodipodi:nodetypes="cc"
         inkscape:connector-curvature="0"
         id="path5917"
         d="m 556.15809,108.77383 0,41.07143"
         style="fill:#ff0000;fill-opacity:1;fill-rule:nonzero;stroke:#0000ff;stroke-width:2;stroke-linecap:butt;stroke-linejoin:miter;stroke-miterlimit:4;stroke-opacity:1;stroke-dasharray:none;stroke-dashoffset:0;marker-end:url(#Arrow1Lend)" />
      <path
         sodipodi:nodetypes="cc"
         style="fill:#ff0000;fill-opacity:1;fill-rule:nonzero;stroke:#0000ff;stroke-width:2;stroke-linecap:butt;stroke-linejoin:miter;stroke-miterlimit:4;stroke-opacity:1;stroke-dasharray:none;stroke-dashoffset:0;marker-end:url(#Arrow1Lend)"
         d="m 729.78602,108.41669 0,41.07143"
         id="path5919"
         inkscape:connector-curvature="0" />
    </g>
  </g>
</svg>
