<?xml version="1.0" encoding="UTF-8" standalone="no"?>
<!-- Created with Inkscape (http://www.inkscape.org/) -->

<svg
   xmlns:dc="http://purl.org/dc/elements/1.1/"
   xmlns:cc="http://creativecommons.org/ns#"
   xmlns:rdf="http://www.w3.org/1999/02/22-rdf-syntax-ns#"
   xmlns:svg="http://www.w3.org/2000/svg"
   xmlns="http://www.w3.org/2000/svg"
   xmlns:xlink="http://www.w3.org/1999/xlink"
   xmlns:sodipodi="http://sodipodi.sourceforge.net/DTD/sodipodi-0.dtd"
   xmlns:inkscape="http://www.inkscape.org/namespaces/inkscape"
   width="839.44745"
   height="646.49255"
   id="svg2"
   version="1.1"
   inkscape:version="0.48.2 r9819"
   sodipodi:docname="metering_spot.svg">
  <defs
     id="defs4" />
  <sodipodi:namedview
     id="base"
     pagecolor="#ffffff"
     bordercolor="#666666"
     borderopacity="1.0"
     inkscape:pageopacity="0.0"
     inkscape:pageshadow="2"
     inkscape:zoom="0.98994949"
     inkscape:cx="255.24314"
     inkscape:cy="277.34018"
     inkscape:document-units="px"
     inkscape:current-layer="layer1"
     showgrid="false"
     inkscape:object-nodes="true"
     inkscape:object-paths="true"
     inkscape:snap-intersection-paths="true"
     inkscape:snap-object-midpoints="true"
     inkscape:window-width="1614"
     inkscape:window-height="1026"
     inkscape:window-x="66"
     inkscape:window-y="24"
     inkscape:window-maximized="1"
     inkscape:snap-global="false"
     fit-margin-top="0"
     fit-margin-left="0"
     fit-margin-right="0"
     fit-margin-bottom="0" />
  <metadata
     id="metadata7">
    <rdf:RDF>
      <cc:Work
         rdf:about="">
        <dc:format>image/svg+xml</dc:format>
        <dc:type
           rdf:resource="http://purl.org/dc/dcmitype/StillImage" />
        <dc:title />
      </cc:Work>
    </rdf:RDF>
  </metadata>
  <g
     inkscape:label="Calque 1"
     inkscape:groupmode="layer"
     id="layer1"
     transform="translate(-11.682426,-57.39603)">
    <rect
       style="fill:#000000;stroke:none;stroke-width:0.49999997000000002;stroke-linecap:round;stroke-linejoin:round;stroke-miterlimit:4;stroke-opacity:1;stroke-dasharray:2.99999982000000021, 2.99999982000000021;stroke-dashoffset:0"
       id="rect3068"
       width="838.94745"
       height="645.99255"
       x="11.932426"
       y="57.64603" />
    <rect
       y="93.360313"
       x="50.860996"
       height="505.09973"
       width="765.19751"
       id="rect3070"
       style="fill:#83a0c1;fill-opacity:1;stroke:none;stroke-width:0.49999997000000002;stroke-linecap:round;stroke-linejoin:round;stroke-miterlimit:4;stroke-opacity:1;stroke-dasharray:2.99999982000000021, 2.99999982000000021;stroke-dashoffset:0" />
    <path
       sodipodi:type="arc"
       style="fill:#f4de78;fill-opacity:0.50000000000000000;fill-rule:nonzero;stroke:#f4de78;stroke-opacity:1;stroke-width:1.13859548;stroke-miterlimit:4;stroke-dasharray:none"
       id="path4318"
       sodipodi:cx="408.60672"
       sodipodi:cy="272.23105"
       sodipodi:rx="31.848211"
       sodipodi:ry="31.848211"
       d="m 440.45493,272.23105 c 0,17.58928 -14.25893,31.84821 -31.84821,31.84821 -17.58928,0 -31.84821,-14.25893 -31.84821,-31.84821 0,-17.58928 14.25893,-31.84821 31.84821,-31.84821 17.58928,0 31.84821,14.25893 31.84821,31.84821 z"
       transform="matrix(1.7565501,0,0,1.7565501,-284.27841,-132.27731)" />
    <rect
       style="fill:none;stroke:#000000;stroke-width:3;stroke-linecap:round;stroke-linejoin:round;stroke-miterlimit:4;stroke-opacity:1;stroke-dasharray:none;stroke-dashoffset:0"
       id="rect3126"
       width="9.2176418"
       height="9.2176418"
       x="260.04999"
       y="340.58698" />
    <use
       x="0"
       y="0"
       xlink:href="#rect3126"
       id="use3136"
       transform="translate(338.0484,0)"
       width="744.09448"
       height="1052.3622" />
    <use
       height="1052.3622"
       width="744.09448"
       transform="translate(281.70703,0)"
       id="use3138"
       xlink:href="#rect3126"
       y="0"
       x="0" />
    <use
       x="0"
       y="0"
       xlink:href="#rect3126"
       id="use3140"
       transform="translate(225.3656,0)"
       width="744.09448"
       height="1052.3622" />
    <use
       height="1052.3622"
       width="744.09448"
       transform="translate(169.0242,0)"
       id="use3142"
       xlink:href="#rect3126"
       y="0"
       x="0" />
    <use
       x="0"
       y="0"
       xlink:href="#rect3126"
       id="use3144"
       transform="translate(112.6828,0)"
       width="744.09448"
       height="1052.3622" />
    <use
       height="1052.3622"
       width="744.09448"
       transform="translate(56.341399,0)"
       id="use3146"
       xlink:href="#rect3126"
       y="0"
       x="0" />
    <use
       x="0"
       y="0"
       xlink:href="#rect3126"
       id="use3148"
       transform="translate(281.70707,-56.23877)"
       width="744.09448"
       height="1052.3622" />
    <use
       height="1052.3622"
       width="744.09448"
       transform="translate(225.36564,-56.23877)"
       id="use3150"
       xlink:href="#rect3126"
       y="0"
       x="0" />
    <use
       x="0"
       y="0"
       xlink:href="#rect3126"
       id="use3152"
       transform="translate(169.02424,-56.23877)"
       width="744.09448"
       height="1052.3622" />
    <use
       height="1052.3622"
       width="744.09448"
       transform="translate(112.68284,-56.23877)"
       id="use3154"
       xlink:href="#rect3126"
       y="0"
       x="0" />
    <use
       x="0"
       y="0"
       xlink:href="#rect3126"
       id="use3156"
       transform="translate(56.341431,-56.23877)"
       width="744.09448"
       height="1052.3622" />
    <use
       height="1052.3622"
       width="744.09448"
       transform="translate(281.70707,56.23877)"
       id="use3158"
       xlink:href="#rect3126"
       y="0"
       x="0" />
    <use
       x="0"
       y="0"
       xlink:href="#rect3126"
       id="use3160"
       transform="translate(225.36564,56.23877)"
       width="744.09448"
       height="1052.3622" />
    <use
       height="1052.3622"
       width="744.09448"
       transform="translate(169.02424,56.23877)"
       id="use3162"
       xlink:href="#rect3126"
       y="0"
       x="0" />
    <use
       x="0"
       y="0"
       xlink:href="#rect3126"
       id="use3164"
       transform="translate(112.68284,56.23877)"
       width="744.09448"
       height="1052.3622" />
    <use
       height="1052.3622"
       width="744.09448"
       transform="translate(56.341431,56.23877)"
       id="use3166"
       xlink:href="#rect3126"
       y="0"
       x="0" />
    <use
       x="0"
       y="0"
       xlink:href="#rect3126"
       id="use3168"
       transform="translate(169.02423,112.47754)"
       width="744.09448"
       height="1052.3622" />
    <use
       height="1052.3622"
       width="744.09448"
       transform="translate(169.02423,-112.47754)"
       id="use3170"
       xlink:href="#rect3126"
       y="0"
       x="0" />
    <path
       id="path3197"
       transform="matrix(1.4407507,0,0,1.4407507,-167.53907,-136.02818)"
       style="fill:none;stroke:#000000;stroke-width:0.69408262;stroke-linecap:round;stroke-linejoin:round;stroke-miterlimit:4;stroke-opacity:1;stroke-dasharray:none;stroke-dashoffset:0"
       d="m 452.99876,349.35704 c -3.939,9.50957 -11.49433,17.0649 -21.0039,21.0039 m -29.70401,0 c -9.50958,-3.939 -17.06491,-11.49433 -21.0039,-21.0039 m 0,-29.704 c 3.93899,-9.50958 11.49432,-17.06491 21.0039,-21.00391 m 29.70401,0 c 9.50957,3.939 17.0649,11.49433 21.0039,21.0039"
       inkscape:connector-curvature="0" />
    <rect
       style="fill:#f4de78;fill-opacity:1;stroke:none"
       id="rect3975"
       width="83.842659"
       height="72.983521"
       x="26.642773"
       y="73.903175"
       rx="0"
       ry="0" />
    <path
       sodipodi:type="arc"
       style="fill:#000000;stroke:none"
       id="path3977"
       sodipodi:cx="67.806488"
       sodipodi:cy="111.15255"
       sodipodi:rx="8.9651041"
       sodipodi:ry="8.9651041"
       d="m 76.771592,111.15255 c 0,4.95129 -4.013814,8.9651 -8.965104,8.9651 -4.95129,0 -8.965104,-4.01381 -8.965104,-8.9651 0,-4.95129 4.013814,-8.9651 8.965104,-8.9651 4.95129,0 8.965104,4.01381 8.965104,8.9651 z"
       transform="matrix(0.97887324,0,0,0.97887324,2.1901436,1.5906753)" />
    <path
       id="path3979"
       style="fill:none;stroke:#000000;stroke-width:3;stroke-linecap:butt;stroke-linejoin:round;stroke-miterlimit:4;stroke-opacity:1;stroke-dasharray:none;stroke-dashoffset:0"
       d="m 73.867397,80.532301 27.021583,0 c 1.60892,0 2.90419,1.29527 2.90419,2.90419 l 0,53.916889 c 0,1.60892 -1.29527,2.90419 -2.90419,2.90419 l -27.021583,0 m -10.606593,0 -27.021582,0 c -1.60892,0 -2.904189,-1.29527 -2.904189,-2.90419 l 0,-53.916891 c 0,-1.60892 1.295269,-2.904188 2.904189,-2.904188 l 27.021582,0"
       inkscape:connector-curvature="0" />
  </g>
</svg>
