<?xml version="1.0" encoding="UTF-8" standalone="no"?>
<!-- Created with Inkscape (http://www.inkscape.org/) -->

<svg xmlns:dc="http://purl.org/dc/elements/1.1/" xmlns:cc="http://creativecommons.org/ns#" xmlns:rdf="http://www.w3.org/1999/02/22-rdf-syntax-ns#" xmlns:svg="http://www.w3.org/2000/svg" xmlns="http://www.w3.org/2000/svg" xmlns:sodipodi="http://sodipodi.sourceforge.net/DTD/sodipodi-0.dtd" xmlns:inkscape="http://www.inkscape.org/namespaces/inkscape" id="svg2" version="1.1" inkscape:version="0.48.3.1 r9886" width="626.3" height="482.4" xml:space="preserve" sodipodi:docname="m_tot_hist_m.svg"><metadata id="metadata8"><rdf:RDF><cc:Work rdf:about=""><dc:format>image/svg+xml</dc:format><dc:type rdf:resource="http://purl.org/dc/dcmitype/StillImage" /><dc:title /></cc:Work></rdf:RDF></metadata><defs id="defs6" /><sodipodi:namedview pagecolor="#ffffff" bordercolor="#666666" borderopacity="1" objecttolerance="10" gridtolerance="10" guidetolerance="10" inkscape:pageopacity="0" inkscape:pageshadow="2" inkscape:window-width="1615" inkscape:window-height="1026" id="namedview4" showgrid="false" fit-margin-top="0" fit-margin-left="0" fit-margin-right="0" fit-margin-bottom="0" inkscape:zoom="0.8563" inkscape:cx="301.2" inkscape:cy="392.6" inkscape:window-x="65" inkscape:window-y="24" inkscape:window-maximized="1" inkscape:current-layer="g10" /><g id="g10" inkscape:groupmode="layer" inkscape:label="m_tot_hist_m" transform="matrix(1.25,0,0,-1.25,-46.52,501.6)"><path d="m 73.12,44.1 0,67.1 9.26,0 0,10.1 9.25,0 0,12.2 9.27,0 0,-16.2 9.2,0 0,-16.3 9.3,0 0,0 9.2,0 0,16.3 9.3,0 0,-8.2 9.2,0 0,12.2 9.3,0 0,0 9.3,0 0,10.2 9.2,0 0,-20.3 9.3,0 0,0 9.2,0 0,-6.1 9.3,0 0,-26.45 9.2,0 0,40.65 9.3,0 0,-10.2 9.2,0 0,-12.15 9.3,0 0,-8.13 9.2,0 0,28.48 9.3,0 0,8.1 9.2,0 0,-24.4 9.3,0 0,0 9.2,0 0,40.7 9.3,0 0,10.1 9.2,0 0,2.1 9.3,0 0,14.2 9.2,0 0,34.5 9.3,0 0,24.4 9.2,0 0,20.4 9.3,0 0,34.5 9.3,0 0,14.2 9.2,0 0,24.4 9.3,0 0,-69.1 9.2,0 0,-4 9.3,0 0,-30.5 9.2,0 0,-61 9.3,0 0,-40.7 9.2,0 0,-34.51 9.3,0 0,-16.26 9.2,0 0,-14.23 9.3,0 0,-6.1 9.2,0 0,0 9.3,0 0,0 9.2,0 0,0 9.3,0 0,0 9.2,0 0,0 9.3,0 0,0 9.2,0 0,0 9.3,0 0,0" style="fill:none;stroke:#0000ff;stroke-width:1;stroke-linecap:square;stroke-linejoin:round;stroke-miterlimit:10;stroke-opacity:1;stroke-dasharray:none" id="path24" inkscape:connector-curvature="0" clip-path="none" /><path d="m 73.12,44.1 0,137.4 9.26,0 0,-36.6 9.25,0 0,39.7 9.27,0 0,-6.1 9.2,0 0,-30.6 9.3,0 0,0 9.2,0 0,-39.7 9.3,0 0,12.2 9.2,0 0,12.2 9.3,0 0,-9.1 9.3,0 0,-24.44 9.2,0 0,9.14 9.3,0 0,9.2 9.2,0 0,-3.1 9.3,0 0,-12.2 9.2,0 0,-6.09 9.3,0 0,0 9.2,0 0,12.19 9.3,0 0,-24.41 9.2,0 0,3.06 9.3,0 0,12.21 9.2,0 0,6.14 9.3,0 0,-12.25 9.2,0 0,12.25 9.3,0 0,0 9.2,0 0,-18.35 9.3,0 0,3.05 9.2,0 0,9.16 9.3,0 0,21.34 9.2,0 0,-9.1 9.3,0 0,54.9 9.3,0 0,15.3 9.2,0 0,55 9.3,0 0,85.5 9.2,0 0,-39.7 9.3,0 0,-67.2 9.2,0 0,24.4 9.3,0 0,-76.3 9.2,0 0,-18.3 9.3,0 0,21.3 9.2,0 0,-58 9.3,0 0,15.3 9.2,0 0,-3.1 9.3,0 0,-51.87 9.2,0 0,-9.16 9.3,0 0,-9.16 9.2,0 0,-6.11 9.3,0 0,0 9.2,0 0,0 9.3,0 0,0" style="fill:none;stroke:#008000;stroke-width:1;stroke-linecap:square;stroke-linejoin:round;stroke-miterlimit:10;stroke-opacity:1;stroke-dasharray:none" id="path34" inkscape:connector-curvature="0" clip-path="none" /><path d="m 73.12,44.1 0,36.52 9.26,0 0,26.08 9.25,0 0,-20.87 9.27,0 0,0 9.2,0 0,5.22 9.3,0 0,-5.22 9.2,0 0,41.77 9.3,0 0,-10.5 9.2,0 0,5.3 9.3,0 0,-31.35 9.3,0 0,-20.87 9.2,0 0,0 9.3,0 0,31.32 9.2,0 0,-10.45 9.3,0 0,10.45 9.2,0 0,-5.23 9.3,0 0,-5.22 9.2,0 0,62.65 9.3,0 0,5.2 9.2,0 0,-41.8 9.3,0 0,130.5 9.2,0 0,-52.2 9.3,0 0,20.9 9.2,0 0,41.7 9.3,0 0,46.9 9.2,0 0,57.4 9.3,0 0,-104.3 9.2,0 0,67.8 9.3,0 0,-57.4 9.2,0 0,-5.2 9.3,0 0,-36.5 9.3,0 0,5.2 9.2,0 0,-83.5 9.3,0 0,-10.4 9.2,0 0,-31.3 9.3,0 0,-15.65 9.2,0 0,-31.3 9.3,0 0,-15.65 9.2,0 0,0 9.3,0 0,0 9.2,0 0,0 9.3,0 0,0 9.2,0 0,0 9.3,0 0,0 9.2,0 0,0 9.3,0 0,0 9.2,0 0,0 9.3,0 0,0 9.2,0 0,0 9.3,0 0,0" style="fill:none;stroke:#ff0000;stroke-width:1;stroke-linecap:square;stroke-linejoin:round;stroke-miterlimit:10;stroke-opacity:1;stroke-dasharray:none" id="path44" inkscape:connector-curvature="0" clip-path="none" /><path d="m 73.12,44.1 0,4" style="fill:#000000;fill-opacity:1;fill-rule:nonzero;stroke:#000000;stroke-width:0.5;stroke-linecap:butt;stroke-linejoin:round;stroke-miterlimit:10;stroke-opacity:1;stroke-dasharray:none" id="path46" clip-path="none" inkscape:connector-curvature="0" /><path d="m 73.12,396.9 0,-4" style="fill:#000000;fill-opacity:1;fill-rule:nonzero;stroke:#000000;stroke-width:0.5;stroke-linecap:butt;stroke-linejoin:round;stroke-miterlimit:10;stroke-opacity:1;stroke-dasharray:none" id="path48" clip-path="none" inkscape:connector-curvature="0" /><text transform="matrix(1,0,0,-1,64.53,31.19)" id="text50" clip-path="none"><tspan style="font-size:12px;font-variant:normal;font-weight:normal;writing-mode:lr-tb;fill:#000000;fill-opacity:1;fill-rule:nonzero;stroke:none;font-family:DejaVu Sans;-inkscape-font-specification:DejaVuSans" x="0" y="0" sodipodi:role="line" id="tspan52">0.1</tspan></text>

<path d="m 148.7,44.1 0,4" style="fill:#000000;fill-opacity:1;fill-rule:nonzero;stroke:#000000;stroke-width:0.5;stroke-linecap:butt;stroke-linejoin:round;stroke-miterlimit:10;stroke-opacity:1;stroke-dasharray:none" id="path54" clip-path="none" inkscape:connector-curvature="0" /><path d="m 148.7,396.9 0,-4" style="fill:#000000;fill-opacity:1;fill-rule:nonzero;stroke:#000000;stroke-width:0.5;stroke-linecap:butt;stroke-linejoin:round;stroke-miterlimit:10;stroke-opacity:1;stroke-dasharray:none" id="path56" clip-path="none" inkscape:connector-curvature="0" /><text transform="matrix(1,0,0,-1,132.3,31.19)" id="text58" clip-path="none"><tspan style="font-size:12px;font-variant:normal;font-weight:normal;writing-mode:lr-tb;fill:#000000;fill-opacity:1;fill-rule:nonzero;stroke:none;font-family:DejaVu Sans;-inkscape-font-specification:DejaVuSans" x="0" y="0" sodipodi:role="line" id="tspan60">0.316</tspan></text>

<path d="m 224.3,44.1 0,4" style="fill:#000000;fill-opacity:1;fill-rule:nonzero;stroke:#000000;stroke-width:0.5;stroke-linecap:butt;stroke-linejoin:round;stroke-miterlimit:10;stroke-opacity:1;stroke-dasharray:none" id="path62" clip-path="none" inkscape:connector-curvature="0" /><path d="m 224.3,396.9 0,-4" style="fill:#000000;fill-opacity:1;fill-rule:nonzero;stroke:#000000;stroke-width:0.5;stroke-linecap:butt;stroke-linejoin:round;stroke-miterlimit:10;stroke-opacity:1;stroke-dasharray:none" id="path64" clip-path="none" inkscape:connector-curvature="0" /><text transform="matrix(1,0,0,-1,221.6,31.35)" id="text66" clip-path="none"><tspan style="font-size:12px;font-variant:normal;font-weight:normal;writing-mode:lr-tb;fill:#000000;fill-opacity:1;fill-rule:nonzero;stroke:none;font-family:DejaVu Sans;-inkscape-font-specification:DejaVuSans" x="0" y="0" id="tspan68">1</tspan></text>

<path d="m 299.8,44.1 0,4" style="fill:#000000;fill-opacity:1;fill-rule:nonzero;stroke:#000000;stroke-width:0.5;stroke-linecap:butt;stroke-linejoin:round;stroke-miterlimit:10;stroke-opacity:1;stroke-dasharray:none" id="path70" clip-path="none" inkscape:connector-curvature="0" /><path d="m 299.8,396.9 0,-4" style="fill:#000000;fill-opacity:1;fill-rule:nonzero;stroke:#000000;stroke-width:0.5;stroke-linecap:butt;stroke-linejoin:round;stroke-miterlimit:10;stroke-opacity:1;stroke-dasharray:none" id="path72" clip-path="none" inkscape:connector-curvature="0" /><text transform="matrix(1,0,0,-1,287.3,31.19)" id="text74" clip-path="none"><tspan style="font-size:12px;font-variant:normal;font-weight:normal;writing-mode:lr-tb;fill:#000000;fill-opacity:1;fill-rule:nonzero;stroke:none;font-family:DejaVu Sans;-inkscape-font-specification:DejaVuSans" x="0" y="0" sodipodi:role="line" id="tspan76">3.16</tspan></text>

<path d="m 375.4,44.1 0,4" style="fill:#000000;fill-opacity:1;fill-rule:nonzero;stroke:#000000;stroke-width:0.5;stroke-linecap:butt;stroke-linejoin:round;stroke-miterlimit:10;stroke-opacity:1;stroke-dasharray:none" id="path78" clip-path="none" inkscape:connector-curvature="0" /><path d="m 375.4,396.9 0,-4" style="fill:#000000;fill-opacity:1;fill-rule:nonzero;stroke:#000000;stroke-width:0.5;stroke-linecap:butt;stroke-linejoin:round;stroke-miterlimit:10;stroke-opacity:1;stroke-dasharray:none" id="path80" clip-path="none" inkscape:connector-curvature="0" /><text transform="matrix(1,0,0,-1,368.8,31.19)" id="text82" clip-path="none"><tspan style="font-size:12px;font-variant:normal;font-weight:normal;writing-mode:lr-tb;fill:#000000;fill-opacity:1;fill-rule:nonzero;stroke:none;font-family:DejaVu Sans;-inkscape-font-specification:DejaVuSans" x="0" y="0" sodipodi:role="line" id="tspan84">10</tspan></text>

<path d="m 450.9,44.1 0,4" style="fill:#000000;fill-opacity:1;fill-rule:nonzero;stroke:#000000;stroke-width:0.5;stroke-linecap:butt;stroke-linejoin:round;stroke-miterlimit:10;stroke-opacity:1;stroke-dasharray:none" id="path86" clip-path="none" inkscape:connector-curvature="0" /><path d="m 450.9,396.9 0,-4" style="fill:#000000;fill-opacity:1;fill-rule:nonzero;stroke:#000000;stroke-width:0.5;stroke-linecap:butt;stroke-linejoin:round;stroke-miterlimit:10;stroke-opacity:1;stroke-dasharray:none" id="path88" clip-path="none" inkscape:connector-curvature="0" /><text transform="matrix(1,0,0,-1,438.4,31.19)" id="text90" clip-path="none"><tspan style="font-size:12px;font-variant:normal;font-weight:normal;writing-mode:lr-tb;fill:#000000;fill-opacity:1;fill-rule:nonzero;stroke:none;font-family:DejaVu Sans;-inkscape-font-specification:DejaVuSans" x="0" y="0" sodipodi:role="line" id="tspan92">31.6</tspan></text>

<path d="m 526.5,44.1 0,4" style="fill:#000000;fill-opacity:1;fill-rule:nonzero;stroke:#000000;stroke-width:0.5;stroke-linecap:butt;stroke-linejoin:round;stroke-miterlimit:10;stroke-opacity:1;stroke-dasharray:none" id="path94" clip-path="none" inkscape:connector-curvature="0" /><path d="m 526.5,396.9 0,-4" style="fill:#000000;fill-opacity:1;fill-rule:nonzero;stroke:#000000;stroke-width:0.5;stroke-linecap:butt;stroke-linejoin:round;stroke-miterlimit:10;stroke-opacity:1;stroke-dasharray:none" id="path96" clip-path="none" inkscape:connector-curvature="0" /><text transform="matrix(1,0,0,-1,516.1,31.19)" id="text98" clip-path="none"><tspan style="font-size:12px;font-variant:normal;font-weight:normal;writing-mode:lr-tb;fill:#000000;fill-opacity:1;fill-rule:nonzero;stroke:none;font-family:DejaVu Sans;-inkscape-font-specification:DejaVuSans" x="0" y="0" sodipodi:role="line" id="tspan100">100</tspan></text>

<text transform="matrix(1,0,0,-1,259.4,16.9)" id="text102" clip-path="none"><tspan style="font-size:12px;font-variant:normal;font-weight:normal;writing-mode:lr-tb;fill:#000000;fill-opacity:1;fill-rule:nonzero;stroke:none;font-family:DejaVu Sans;-inkscape-font-specification:DejaVuSans" x="0" y="0" sodipodi:role="line" id="tspan104">Mass [Earths]</tspan></text>

<path d="m 73.12,44.1 4,0" style="fill:#000000;fill-opacity:1;fill-rule:nonzero;stroke:#000000;stroke-width:0.5;stroke-linecap:butt;stroke-linejoin:round;stroke-miterlimit:10;stroke-opacity:1;stroke-dasharray:none" id="path106" clip-path="none" inkscape:connector-curvature="0" /><path d="m 526.5,44.1 -4,0" style="fill:#000000;fill-opacity:1;fill-rule:nonzero;stroke:#000000;stroke-width:0.5;stroke-linecap:butt;stroke-linejoin:round;stroke-miterlimit:10;stroke-opacity:1;stroke-dasharray:none" id="path108" clip-path="none" inkscape:connector-curvature="0" /><text transform="matrix(1,0,0,-1,51.63,39.73)" id="text110" clip-path="none"><tspan style="font-size:12px;font-variant:normal;font-weight:normal;writing-mode:lr-tb;fill:#000000;fill-opacity:1;fill-rule:nonzero;stroke:none;font-family:DejaVu Sans;-inkscape-font-specification:DejaVuSans" x="0" y="0" sodipodi:role="line" id="tspan112">0.0</tspan></text>

<path d="m 73.12,94.5 4,0" style="fill:#000000;fill-opacity:1;fill-rule:nonzero;stroke:#000000;stroke-width:0.5;stroke-linecap:butt;stroke-linejoin:round;stroke-miterlimit:10;stroke-opacity:1;stroke-dasharray:none" id="path114" clip-path="none" inkscape:connector-curvature="0" /><path d="m 526.5,94.5 -4,0" style="fill:#000000;fill-opacity:1;fill-rule:nonzero;stroke:#000000;stroke-width:0.5;stroke-linecap:butt;stroke-linejoin:round;stroke-miterlimit:10;stroke-opacity:1;stroke-dasharray:none" id="path116" clip-path="none" inkscape:connector-curvature="0" /><text transform="matrix(1,0,0,-1,52.03,90.13)" id="text118" clip-path="none"><tspan style="font-size:12px;font-variant:normal;font-weight:normal;writing-mode:lr-tb;fill:#000000;fill-opacity:1;fill-rule:nonzero;stroke:none;font-family:DejaVu Sans;-inkscape-font-specification:DejaVuSans" x="0" y="0" sodipodi:role="line" id="tspan120">0.2</tspan></text>

<path d="m 73.12,144.9 4,0" style="fill:#000000;fill-opacity:1;fill-rule:nonzero;stroke:#000000;stroke-width:0.5;stroke-linecap:butt;stroke-linejoin:round;stroke-miterlimit:10;stroke-opacity:1;stroke-dasharray:none" id="path122" clip-path="none" inkscape:connector-curvature="0" /><path d="m 526.5,144.9 -4,0" style="fill:#000000;fill-opacity:1;fill-rule:nonzero;stroke:#000000;stroke-width:0.5;stroke-linecap:butt;stroke-linejoin:round;stroke-miterlimit:10;stroke-opacity:1;stroke-dasharray:none" id="path124" clip-path="none" inkscape:connector-curvature="0" /><text transform="matrix(1,0,0,-1,51.5,140.5)" id="text126" clip-path="none"><tspan style="font-size:12px;font-variant:normal;font-weight:normal;writing-mode:lr-tb;fill:#000000;fill-opacity:1;fill-rule:nonzero;stroke:none;font-family:DejaVu Sans;-inkscape-font-specification:DejaVuSans" x="0" y="0" sodipodi:role="line" id="tspan128">0.4</tspan></text>

<path d="m 73.12,195.3 4,0" style="fill:#000000;fill-opacity:1;fill-rule:nonzero;stroke:#000000;stroke-width:0.5;stroke-linecap:butt;stroke-linejoin:round;stroke-miterlimit:10;stroke-opacity:1;stroke-dasharray:none" id="path130" clip-path="none" inkscape:connector-curvature="0" /><path d="m 526.5,195.3 -4,0" style="fill:#000000;fill-opacity:1;fill-rule:nonzero;stroke:#000000;stroke-width:0.5;stroke-linecap:butt;stroke-linejoin:round;stroke-miterlimit:10;stroke-opacity:1;stroke-dasharray:none" id="path132" clip-path="none" inkscape:connector-curvature="0" /><text transform="matrix(1,0,0,-1,51.59,190.9)" id="text134" clip-path="none"><tspan style="font-size:12px;font-variant:normal;font-weight:normal;writing-mode:lr-tb;fill:#000000;fill-opacity:1;fill-rule:nonzero;stroke:none;font-family:DejaVu Sans;-inkscape-font-specification:DejaVuSans" x="0" y="0" sodipodi:role="line" id="tspan136">0.6</tspan></text>

<path d="m 73.12,245.7 4,0" style="fill:#000000;fill-opacity:1;fill-rule:nonzero;stroke:#000000;stroke-width:0.5;stroke-linecap:butt;stroke-linejoin:round;stroke-miterlimit:10;stroke-opacity:1;stroke-dasharray:none" id="path138" clip-path="none" inkscape:connector-curvature="0" /><path d="m 526.5,245.7 -4,0" style="fill:#000000;fill-opacity:1;fill-rule:nonzero;stroke:#000000;stroke-width:0.5;stroke-linecap:butt;stroke-linejoin:round;stroke-miterlimit:10;stroke-opacity:1;stroke-dasharray:none" id="path140" clip-path="none" inkscape:connector-curvature="0" /><text transform="matrix(1,0,0,-1,51.66,241.3)" id="text142" clip-path="none"><tspan style="font-size:12px;font-variant:normal;font-weight:normal;writing-mode:lr-tb;fill:#000000;fill-opacity:1;fill-rule:nonzero;stroke:none;font-family:DejaVu Sans;-inkscape-font-specification:DejaVuSans" x="0" y="0" sodipodi:role="line" id="tspan144">0.8</tspan></text>

<path d="m 73.12,296.1 4,0" style="fill:#000000;fill-opacity:1;fill-rule:nonzero;stroke:#000000;stroke-width:0.5;stroke-linecap:butt;stroke-linejoin:round;stroke-miterlimit:10;stroke-opacity:1;stroke-dasharray:none" id="path146" clip-path="none" inkscape:connector-curvature="0" /><path d="m 526.5,296.1 -4,0" style="fill:#000000;fill-opacity:1;fill-rule:nonzero;stroke:#000000;stroke-width:0.5;stroke-linecap:butt;stroke-linejoin:round;stroke-miterlimit:10;stroke-opacity:1;stroke-dasharray:none" id="path148" clip-path="none" inkscape:connector-curvature="0" /><text transform="matrix(1,0,0,-1,52.14,291.7)" id="text150" clip-path="none"><tspan style="font-size:12px;font-variant:normal;font-weight:normal;writing-mode:lr-tb;fill:#000000;fill-opacity:1;fill-rule:nonzero;stroke:none;font-family:DejaVu Sans;-inkscape-font-specification:DejaVuSans" x="0" y="0" sodipodi:role="line" id="tspan152">1.0</tspan></text>

<path d="m 73.12,346.5 4,0" style="fill:#000000;fill-opacity:1;fill-rule:nonzero;stroke:#000000;stroke-width:0.5;stroke-linecap:butt;stroke-linejoin:round;stroke-miterlimit:10;stroke-opacity:1;stroke-dasharray:none" id="path154" clip-path="none" inkscape:connector-curvature="0" /><path d="m 526.5,346.5 -4,0" style="fill:#000000;fill-opacity:1;fill-rule:nonzero;stroke:#000000;stroke-width:0.5;stroke-linecap:butt;stroke-linejoin:round;stroke-miterlimit:10;stroke-opacity:1;stroke-dasharray:none" id="path156" clip-path="none" inkscape:connector-curvature="0" /><text transform="matrix(1,0,0,-1,52.55,342)" id="text158" clip-path="none"><tspan style="font-size:12px;font-variant:normal;font-weight:normal;writing-mode:lr-tb;fill:#000000;fill-opacity:1;fill-rule:nonzero;stroke:none;font-family:DejaVu Sans;-inkscape-font-specification:DejaVuSans" x="0" y="0" sodipodi:role="line" id="tspan160">1.2</tspan></text>

<path d="m 73.12,396.9 4,0" style="fill:#000000;fill-opacity:1;fill-rule:nonzero;stroke:#000000;stroke-width:0.5;stroke-linecap:butt;stroke-linejoin:round;stroke-miterlimit:10;stroke-opacity:1;stroke-dasharray:none" id="path162" clip-path="none" inkscape:connector-curvature="0" /><path d="m 526.5,396.9 -4,0" style="fill:#000000;fill-opacity:1;fill-rule:nonzero;stroke:#000000;stroke-width:0.5;stroke-linecap:butt;stroke-linejoin:round;stroke-miterlimit:10;stroke-opacity:1;stroke-dasharray:none" id="path164" clip-path="none" inkscape:connector-curvature="0" /><text transform="matrix(1,0,0,-1,52.02,392.5)" id="text166" clip-path="none"><tspan style="font-size:12px;font-variant:normal;font-weight:normal;writing-mode:lr-tb;fill:#000000;fill-opacity:1;fill-rule:nonzero;stroke:none;font-family:DejaVu Sans;-inkscape-font-specification:DejaVuSans" x="0" y="0" sodipodi:role="line" id="tspan168">1.4</tspan></text>

<text transform="matrix(0,1,1,0,46.33,186.6)" id="text170" clip-path="none"><tspan style="font-size:12px;font-variant:normal;font-weight:normal;writing-mode:lr-tb;fill:#000000;fill-opacity:1;fill-rule:nonzero;stroke:none;font-family:DejaVu Sans;-inkscape-font-specification:DejaVuSans" x="0" y="0" sodipodi:role="line" id="tspan172">Distribution</tspan></text>

<path d="m 73.12,396.9 453.38,0" style="fill:none;stroke:#000000;stroke-width:1;stroke-linecap:square;stroke-linejoin:round;stroke-miterlimit:10;stroke-opacity:1;stroke-dasharray:none" id="path174" clip-path="none" inkscape:connector-curvature="0" /><path d="m 526.5,44.1 0,352.8" style="fill:none;stroke:#000000;stroke-width:1;stroke-linecap:square;stroke-linejoin:round;stroke-miterlimit:10;stroke-opacity:1;stroke-dasharray:none" id="path176" clip-path="none" inkscape:connector-curvature="0" /><path d="m 73.12,44.1 453.38,0" style="fill:none;stroke:#000000;stroke-width:1;stroke-linecap:square;stroke-linejoin:round;stroke-miterlimit:10;stroke-opacity:1;stroke-dasharray:none" id="path178" clip-path="none" inkscape:connector-curvature="0" /><path d="m 73.12,44.1 0,352.8" style="fill:none;stroke:#000000;stroke-width:1;stroke-linecap:square;stroke-linejoin:round;stroke-miterlimit:10;stroke-opacity:1;stroke-dasharray:none" id="path180" clip-path="none" inkscape:connector-curvature="0" /><path d="m 85.36,322.4 141.04,0 0,67.3 -141.04,0 z" style="fill:#ffffff;fill-opacity:1;fill-rule:nonzero;stroke:#000000;stroke-width:1;stroke-linecap:square;stroke-linejoin:round;stroke-miterlimit:10;stroke-opacity:1;stroke-dasharray:none" id="path182" clip-path="none" inkscape:connector-curvature="0" sodipodi:nodetypes="ccccc" /><path d="m 91.06,352.6 28.84,0 0,10.1 -28.84,0 0,-10.1 z" style="fill:none;stroke:#0000ff;stroke-width:1;stroke-linecap:square;stroke-linejoin:round;stroke-miterlimit:10;stroke-opacity:1;stroke-dasharray:none" id="path184" clip-path="none" inkscape:connector-curvature="0" /><text transform="scale(1,-1)" id="text186" clip-path="none" x="131.35782" y="-353.74927"><tspan style="font-size:14.4px;font-variant:normal;font-weight:normal;writing-mode:lr-tb;fill:#000000;fill-opacity:1;fill-rule:nonzero;stroke:none;font-family:DejaVu Sans;-inkscape-font-specification:DejaVuSans" x="131.35782" y="-353.74927" sodipodi:role="line" id="tspan188">M<tspan style="font-size:52.0004%;baseline-shift:sub" id="tspan3188">tot</tspan> = 60M<tspan style="font-size:52.0004%;baseline-shift:sub" id="tspan3186">⊕</tspan></tspan></text>

<path d="m 91.06,331.5 28.84,0 0,10 -28.84,0 0,-10 z" style="fill:none;stroke:#008000;stroke-width:1;stroke-linecap:square;stroke-linejoin:round;stroke-miterlimit:10;stroke-opacity:1;stroke-dasharray:none" id="path190" clip-path="none" inkscape:connector-curvature="0" /><text transform="scale(1,-1)" id="text192" clip-path="none" x="131.35782" y="-332.59927"><tspan style="font-size:14.4px;font-variant:normal;font-weight:normal;writing-mode:lr-tb;fill:#000000;fill-opacity:1;fill-rule:nonzero;stroke:none;font-family:DejaVu Sans;-inkscape-font-specification:DejaVuSans" x="131.35782" y="-332.59927" sodipodi:role="line" id="tspan194">M<tspan style="font-size:52.0004%;baseline-shift:sub" id="tspan3190">tot</tspan> = 120M<tspan style="font-size:52.0004%;baseline-shift:sub" id="tspan3194">⊕</tspan></tspan></text>

<path d="m 91.06,373.3 28.84,0 0,10.1 -28.84,0 0,-10.1 z" style="fill:none;stroke:#ff0000;stroke-width:1;stroke-linecap:square;stroke-linejoin:round;stroke-miterlimit:10;stroke-opacity:1;stroke-dasharray:none" id="path196" clip-path="none" inkscape:connector-curvature="0" /><text transform="scale(1,-1)" id="text198" clip-path="none" x="131.35782" y="-374.49927"><tspan style="font-size:14.4px;font-variant:normal;font-weight:normal;writing-mode:lr-tb;fill:#000000;fill-opacity:1;fill-rule:nonzero;stroke:none;font-family:DejaVu Sans;-inkscape-font-specification:DejaVuSans" x="131.35782" y="-374.49927" sodipodi:role="line" id="tspan200">M<tspan style="font-size:52.0004%;baseline-shift:sub" id="tspan3192">tot</tspan> = 30M<tspan style="font-size:52.0004%;baseline-shift:sub" id="tspan3196">⊕</tspan></tspan></text>

</g></svg>