<?xml version="1.0" encoding="UTF-8" standalone="no"?>
<!-- Created with Inkscape (http://www.inkscape.org/) -->

<svg
   xmlns:dc="http://purl.org/dc/elements/1.1/"
   xmlns:cc="http://creativecommons.org/ns#"
   xmlns:rdf="http://www.w3.org/1999/02/22-rdf-syntax-ns#"
   xmlns:svg="http://www.w3.org/2000/svg"
   xmlns="http://www.w3.org/2000/svg"
   xmlns:sodipodi="http://sodipodi.sourceforge.net/DTD/sodipodi-0.dtd"
   xmlns:inkscape="http://www.inkscape.org/namespaces/inkscape"
   id="svg2"
   version="1.1"
   inkscape:version="0.48.2 r9819"
   width="632.37793"
   height="479.1582"
   xml:space="preserve"
   sodipodi:docname="no_damping_hist_m.svg"><metadata
     id="metadata8"><rdf:RDF><cc:Work
         rdf:about=""><dc:format>image/svg+xml</dc:format><dc:type
           rdf:resource="http://purl.org/dc/dcmitype/StillImage" /><dc:title></dc:title></cc:Work></rdf:RDF></metadata><defs
     id="defs6" /><sodipodi:namedview
     pagecolor="#ffffff"
     bordercolor="#666666"
     borderopacity="1"
     objecttolerance="10"
     gridtolerance="10"
     guidetolerance="10"
     inkscape:pageopacity="0"
     inkscape:pageshadow="2"
     inkscape:window-width="640"
     inkscape:window-height="480"
     id="namedview4"
     showgrid="false"
     fit-margin-top="0"
     fit-margin-left="0"
     fit-margin-right="0"
     fit-margin-bottom="0"
     inkscape:zoom="1.1233218"
     inkscape:cx="332.79687"
     inkscape:cy="256.16602"
     inkscape:current-layer="g10" /><g
     id="g10"
     inkscape:groupmode="layer"
     inkscape:label="no_damping_hist_m"
     transform="matrix(1.25,0,0,-1.25,-27.203125,492.99219)"><path
       d="m 72,43.2 446.4,0 0,345.6 -446.4,0 0,-345.6 z"
       style="fill:#ffffff;fill-opacity:1;fill-rule:nonzero;stroke:none"
       id="path14"
       inkscape:connector-curvature="0" /><path
       d="m 72,43.2 0,270.14095 8.928,0 0,-195.53524 8.928,0 0,-25.356186 8.928,0 0,6.826666 8.928,0 0,-4.388571 8.928,0 0,4.876191 8.928,0 0,-3.413334 8.928,0 0,-0.487619 8.928,0 0,0.975238 8.928,0 0,-4.388571 8.928,0 0,-10.24 8.928,0 0,-8.289524 8.928,0 0,1.950476 8.928,0 0,-12.678095 8.928,0 0,5.363809 8.928,0 0,-11.702857 8.928,0 0,-0.975238 8.928,0 0,-2.438095 8.928,0 0,-0.975238 8.928,0 0,-1.950476 8.928,0 0,-2.925715 8.928,0 0,0.487619 8.928,0 0,-3.413333 8.928,0 0,-0.487619 8.928,0 0,1.462857 8.928,0 0,0 8.928,0 0,-1.462857 8.928,0 0,-0.487619 8.928,0 0,0 8.928,0 0,0.487619 8.928,0 0,-0.975238 8.928,0 0,0 8.928,0 0,0 8.928,0 0,0 8.928,0 0,0 8.928,0 0,0 8.928,0 0,0 8.928,0 0,0 8.928,0 0,0 8.928,0 0,0 8.928,0 0,0 8.928,0 0,0 8.928,0 0,0 8.928,0 0,0 8.928,0 0,0 8.928,0 0,0 8.928,0 0,0 8.928,0 0,0 8.928,0 0,0 8.928,0 0,0"
       style="fill:none;stroke:#0000ff;stroke-width:1;stroke-linecap:square;stroke-linejoin:round;stroke-miterlimit:10;stroke-opacity:1;stroke-dasharray:none"
       id="path24"
       inkscape:connector-curvature="0" /><path
       d="m 72,43.2 0,311.61778 8.928,0 0,-214.13454 8.928,0 0,-8.21488 8.928,0 0,15.8821 8.928,0 0,-3.28595 8.928,0 0,-5.47659 8.928,0 0,-25.73995 8.928,0 0,-20.811032 8.928,0 0,-19.715711 8.928,0 0,-18.072736 8.928,0 0,-2.738294 8.928,0 0,-1.642976 8.928,0 0,-4.928928 8.928,0 0,-1.642976 8.928,0 0,-0.547658 8.928,0 0,0.547658 8.928,0 0,-1.095317 8.928,0 0,0 8.928,0 0,0.547659 8.928,0 0,-0.547659 8.928,0 0,0 8.928,0 0,0 8.928,0 0,0 8.928,0 0,0 8.928,0 0,0 8.928,0 0,0 8.928,0 0,0 8.928,0 0,0 8.928,0 0,0 8.928,0 0,0 8.928,0 0,0 8.928,0 0,0 8.928,0 0,0 8.928,0 0,0 8.928,0 0,0 8.928,0 0,0 8.928,0 0,0 8.928,0 0,0 8.928,0 0,0 8.928,0 0,0 8.928,0 0,0 8.928,0 0,0 8.928,0 0,0 8.928,0 0,0 8.928,0 0,0 8.928,0 0,0 8.928,0 0,0 8.928,0 0,0 8.928,0 0,0 8.928,0 0,0"
       style="fill:none;stroke:#008000;stroke-width:1;stroke-linecap:square;stroke-linejoin:round;stroke-miterlimit:10;stroke-opacity:1;stroke-dasharray:none"
       id="path34"
       inkscape:connector-curvature="0" /><path
       d="m 72,43.2 0,4"
       style="fill:none;stroke:#000000;stroke-width:0.5;stroke-linecap:butt;stroke-linejoin:round;stroke-miterlimit:10;stroke-opacity:1;stroke-dasharray:none"
       id="path36"
       inkscape:connector-curvature="0" /><path
       d="m 72,388.8 0,-4"
       style="fill:none;stroke:#000000;stroke-width:0.5;stroke-linecap:butt;stroke-linejoin:round;stroke-miterlimit:10;stroke-opacity:1;stroke-dasharray:none"
       id="path38"
       inkscape:connector-curvature="0" /><text
       transform="matrix(1,0,0,-1,68.382812,28.809375)"
       id="text40"><tspan
         style="font-size:14.39999962px;font-variant:normal;font-weight:normal;writing-mode:lr-tb;fill:#000000;fill-opacity:1;fill-rule:nonzero;stroke:none;font-family:Bitstream Vera Sans;-inkscape-font-specification:BitstreamVeraSans-Roman"
         x="0"
         y="0"
         id="tspan42">0</tspan></text>
<path
       d="m 161.28,43.2 0,4"
       style="fill:none;stroke:#000000;stroke-width:0.5;stroke-linecap:butt;stroke-linejoin:round;stroke-miterlimit:10;stroke-opacity:1;stroke-dasharray:none"
       id="path44"
       inkscape:connector-curvature="0" /><path
       d="m 161.28,388.8 0,-4"
       style="fill:none;stroke:#000000;stroke-width:0.5;stroke-linecap:butt;stroke-linejoin:round;stroke-miterlimit:10;stroke-opacity:1;stroke-dasharray:none"
       id="path46"
       inkscape:connector-curvature="0" /><text
       transform="matrix(1,0,0,-1,153.405,28.809375)"
       id="text48"><tspan
         style="font-size:14.39999962px;font-variant:normal;font-weight:normal;writing-mode:lr-tb;fill:#000000;fill-opacity:1;fill-rule:nonzero;stroke:none;font-family:Bitstream Vera Sans;-inkscape-font-specification:BitstreamVeraSans-Roman"
         x="0"
         y="0"
         sodipodi:role="line"
         id="tspan50">10</tspan></text>
<path
       d="m 250.56,43.2 0,4"
       style="fill:none;stroke:#000000;stroke-width:0.5;stroke-linecap:butt;stroke-linejoin:round;stroke-miterlimit:10;stroke-opacity:1;stroke-dasharray:none"
       id="path52"
       inkscape:connector-curvature="0" /><path
       d="m 250.56,388.8 0,-4"
       style="fill:none;stroke:#000000;stroke-width:0.5;stroke-linecap:butt;stroke-linejoin:round;stroke-miterlimit:10;stroke-opacity:1;stroke-dasharray:none"
       id="path54"
       inkscape:connector-curvature="0" /><text
       transform="matrix(1,0,0,-1,242.41937,28.809375)"
       id="text56"><tspan
         style="font-size:14.39999962px;font-variant:normal;font-weight:normal;writing-mode:lr-tb;fill:#000000;fill-opacity:1;fill-rule:nonzero;stroke:none;font-family:Bitstream Vera Sans;-inkscape-font-specification:BitstreamVeraSans-Roman"
         x="0"
         y="0"
         sodipodi:role="line"
         id="tspan58">20</tspan></text>
<path
       d="m 339.84,43.2 0,4"
       style="fill:none;stroke:#000000;stroke-width:0.5;stroke-linecap:butt;stroke-linejoin:round;stroke-miterlimit:10;stroke-opacity:1;stroke-dasharray:none"
       id="path60"
       inkscape:connector-curvature="0" /><path
       d="m 339.84,388.8 0,-4"
       style="fill:none;stroke:#000000;stroke-width:0.5;stroke-linecap:butt;stroke-linejoin:round;stroke-miterlimit:10;stroke-opacity:1;stroke-dasharray:none"
       id="path62"
       inkscape:connector-curvature="0" /><text
       transform="matrix(1,0,0,-1,331.72281,28.809375)"
       id="text64"><tspan
         style="font-size:14.39999962px;font-variant:normal;font-weight:normal;writing-mode:lr-tb;fill:#000000;fill-opacity:1;fill-rule:nonzero;stroke:none;font-family:Bitstream Vera Sans;-inkscape-font-specification:BitstreamVeraSans-Roman"
         x="0"
         y="0"
         sodipodi:role="line"
         id="tspan66">30</tspan></text>
<path
       d="m 429.12,43.2 0,4"
       style="fill:none;stroke:#000000;stroke-width:0.5;stroke-linecap:butt;stroke-linejoin:round;stroke-miterlimit:10;stroke-opacity:1;stroke-dasharray:none"
       id="path68"
       inkscape:connector-curvature="0" /><path
       d="m 429.12,388.8 0,-4"
       style="fill:none;stroke:#000000;stroke-width:0.5;stroke-linecap:butt;stroke-linejoin:round;stroke-miterlimit:10;stroke-opacity:1;stroke-dasharray:none"
       id="path70"
       inkscape:connector-curvature="0" /><text
       transform="matrix(1,0,0,-1,420.8075,28.809375)"
       id="text72"><tspan
         style="font-size:14.39999962px;font-variant:normal;font-weight:normal;writing-mode:lr-tb;fill:#000000;fill-opacity:1;fill-rule:nonzero;stroke:none;font-family:Bitstream Vera Sans;-inkscape-font-specification:BitstreamVeraSans-Roman"
         x="0"
         y="0"
         sodipodi:role="line"
         id="tspan74">40</tspan></text>
<path
       d="m 518.4,43.2 0,4"
       style="fill:none;stroke:#000000;stroke-width:0.5;stroke-linecap:butt;stroke-linejoin:round;stroke-miterlimit:10;stroke-opacity:1;stroke-dasharray:none"
       id="path76"
       inkscape:connector-curvature="0" /><path
       d="m 518.4,388.8 0,-4"
       style="fill:none;stroke:#000000;stroke-width:0.5;stroke-linecap:butt;stroke-linejoin:round;stroke-miterlimit:10;stroke-opacity:1;stroke-dasharray:none"
       id="path78"
       inkscape:connector-curvature="0" /><text
       transform="matrix(1,0,0,-1,510.29062,28.809375)"
       id="text80"><tspan
         style="font-size:14.39999962px;font-variant:normal;font-weight:normal;writing-mode:lr-tb;fill:#000000;fill-opacity:1;fill-rule:nonzero;stroke:none;font-family:Bitstream Vera Sans;-inkscape-font-specification:BitstreamVeraSans-Roman"
         x="0"
         y="0"
         sodipodi:role="line"
         id="tspan82">50</tspan></text>
<text
       transform="matrix(1,0,0,-1,246.80937,12.965625)"
       id="text84"><tspan
         style="font-size:14.39999962px;font-variant:normal;font-weight:normal;writing-mode:lr-tb;fill:#000000;fill-opacity:1;fill-rule:nonzero;stroke:none;font-family:Bitstream Vera Sans;-inkscape-font-specification:BitstreamVeraSans-Roman"
         x="0"
         y="0"
         sodipodi:role="line"
         id="tspan86">Mass [Earths]</tspan></text>
<path
       d="m 72,43.2 4,0"
       style="fill:none;stroke:#000000;stroke-width:0.5;stroke-linecap:butt;stroke-linejoin:round;stroke-miterlimit:10;stroke-opacity:1;stroke-dasharray:none"
       id="path88"
       inkscape:connector-curvature="0" /><path
       d="m 518.4,43.2 -4,0"
       style="fill:none;stroke:#000000;stroke-width:0.5;stroke-linecap:butt;stroke-linejoin:round;stroke-miterlimit:10;stroke-opacity:1;stroke-dasharray:none"
       id="path90"
       inkscape:connector-curvature="0" /><text
       transform="matrix(1,0,0,-1,37.90625,38.10625)"
       id="text92"><tspan
         style="font-size:14.39999962px;font-variant:normal;font-weight:normal;writing-mode:lr-tb;fill:#000000;fill-opacity:1;fill-rule:nonzero;stroke:none;font-family:Bitstream Vera Sans;-inkscape-font-specification:BitstreamVeraSans-Roman"
         x="0"
         y="0"
         sodipodi:role="line"
         id="tspan94">0.00</tspan></text>
<path
       d="m 72,92.571429 4,0"
       style="fill:none;stroke:#000000;stroke-width:0.5;stroke-linecap:butt;stroke-linejoin:round;stroke-miterlimit:10;stroke-opacity:1;stroke-dasharray:none"
       id="path96"
       inkscape:connector-curvature="0" /><path
       d="m 518.4,92.571429 -4,0"
       style="fill:none;stroke:#000000;stroke-width:0.5;stroke-linecap:butt;stroke-linejoin:round;stroke-miterlimit:10;stroke-opacity:1;stroke-dasharray:none"
       id="path98"
       inkscape:connector-curvature="0" /><text
       transform="matrix(1,0,0,-1,38.203125,87.477679)"
       id="text100"><tspan
         style="font-size:14.39999962px;font-variant:normal;font-weight:normal;writing-mode:lr-tb;fill:#000000;fill-opacity:1;fill-rule:nonzero;stroke:none;font-family:Bitstream Vera Sans;-inkscape-font-specification:BitstreamVeraSans-Roman"
         x="0"
         y="0"
         sodipodi:role="line"
         id="tspan102">0.05</tspan></text>
<path
       d="m 72,141.94286 4,0"
       style="fill:none;stroke:#000000;stroke-width:0.5;stroke-linecap:butt;stroke-linejoin:round;stroke-miterlimit:10;stroke-opacity:1;stroke-dasharray:none"
       id="path104"
       inkscape:connector-curvature="0" /><path
       d="m 518.4,141.94286 -4,0"
       style="fill:none;stroke:#000000;stroke-width:0.5;stroke-linecap:butt;stroke-linejoin:round;stroke-miterlimit:10;stroke-opacity:1;stroke-dasharray:none"
       id="path106"
       inkscape:connector-curvature="0" /><text
       transform="matrix(1,0,0,-1,37.90625,136.84911)"
       id="text108"><tspan
         style="font-size:14.39999962px;font-variant:normal;font-weight:normal;writing-mode:lr-tb;fill:#000000;fill-opacity:1;fill-rule:nonzero;stroke:none;font-family:Bitstream Vera Sans;-inkscape-font-specification:BitstreamVeraSans-Roman"
         x="0"
         y="0"
         sodipodi:role="line"
         id="tspan110">0.10</tspan></text>
<path
       d="m 72,191.31429 4,0"
       style="fill:none;stroke:#000000;stroke-width:0.5;stroke-linecap:butt;stroke-linejoin:round;stroke-miterlimit:10;stroke-opacity:1;stroke-dasharray:none"
       id="path112"
       inkscape:connector-curvature="0" /><path
       d="m 518.4,191.31429 -4,0"
       style="fill:none;stroke:#000000;stroke-width:0.5;stroke-linecap:butt;stroke-linejoin:round;stroke-miterlimit:10;stroke-opacity:1;stroke-dasharray:none"
       id="path114"
       inkscape:connector-curvature="0" /><text
       transform="matrix(1,0,0,-1,38.203125,186.22054)"
       id="text116"><tspan
         style="font-size:14.39999962px;font-variant:normal;font-weight:normal;writing-mode:lr-tb;fill:#000000;fill-opacity:1;fill-rule:nonzero;stroke:none;font-family:Bitstream Vera Sans;-inkscape-font-specification:BitstreamVeraSans-Roman"
         x="0"
         y="0"
         sodipodi:role="line"
         id="tspan118">0.15</tspan></text>
<path
       d="m 72,240.68571 4,0"
       style="fill:none;stroke:#000000;stroke-width:0.5;stroke-linecap:butt;stroke-linejoin:round;stroke-miterlimit:10;stroke-opacity:1;stroke-dasharray:none"
       id="path120"
       inkscape:connector-curvature="0" /><path
       d="m 518.4,240.68571 -4,0"
       style="fill:none;stroke:#000000;stroke-width:0.5;stroke-linecap:butt;stroke-linejoin:round;stroke-miterlimit:10;stroke-opacity:1;stroke-dasharray:none"
       id="path122"
       inkscape:connector-curvature="0" /><text
       transform="matrix(1,0,0,-1,37.90625,235.59196)"
       id="text124"><tspan
         style="font-size:14.39999962px;font-variant:normal;font-weight:normal;writing-mode:lr-tb;fill:#000000;fill-opacity:1;fill-rule:nonzero;stroke:none;font-family:Bitstream Vera Sans;-inkscape-font-specification:BitstreamVeraSans-Roman"
         x="0"
         y="0"
         sodipodi:role="line"
         id="tspan126">0.20</tspan></text>
<path
       d="m 72,290.05714 4,0"
       style="fill:none;stroke:#000000;stroke-width:0.5;stroke-linecap:butt;stroke-linejoin:round;stroke-miterlimit:10;stroke-opacity:1;stroke-dasharray:none"
       id="path128"
       inkscape:connector-curvature="0" /><path
       d="m 518.4,290.05714 -4,0"
       style="fill:none;stroke:#000000;stroke-width:0.5;stroke-linecap:butt;stroke-linejoin:round;stroke-miterlimit:10;stroke-opacity:1;stroke-dasharray:none"
       id="path130"
       inkscape:connector-curvature="0" /><text
       transform="matrix(1,0,0,-1,38.203125,284.96339)"
       id="text132"><tspan
         style="font-size:14.39999962px;font-variant:normal;font-weight:normal;writing-mode:lr-tb;fill:#000000;fill-opacity:1;fill-rule:nonzero;stroke:none;font-family:Bitstream Vera Sans;-inkscape-font-specification:BitstreamVeraSans-Roman"
         x="0"
         y="0"
         sodipodi:role="line"
         id="tspan134">0.25</tspan></text>
<path
       d="m 72,339.42857 4,0"
       style="fill:none;stroke:#000000;stroke-width:0.5;stroke-linecap:butt;stroke-linejoin:round;stroke-miterlimit:10;stroke-opacity:1;stroke-dasharray:none"
       id="path136"
       inkscape:connector-curvature="0" /><path
       d="m 518.4,339.42857 -4,0"
       style="fill:none;stroke:#000000;stroke-width:0.5;stroke-linecap:butt;stroke-linejoin:round;stroke-miterlimit:10;stroke-opacity:1;stroke-dasharray:none"
       id="path138"
       inkscape:connector-curvature="0" /><text
       transform="matrix(1,0,0,-1,37.90625,334.33482)"
       id="text140"><tspan
         style="font-size:14.39999962px;font-variant:normal;font-weight:normal;writing-mode:lr-tb;fill:#000000;fill-opacity:1;fill-rule:nonzero;stroke:none;font-family:Bitstream Vera Sans;-inkscape-font-specification:BitstreamVeraSans-Roman"
         x="0"
         y="0"
         sodipodi:role="line"
         id="tspan142">0.30</tspan></text>
<path
       d="m 72,388.8 4,0"
       style="fill:none;stroke:#000000;stroke-width:0.5;stroke-linecap:butt;stroke-linejoin:round;stroke-miterlimit:10;stroke-opacity:1;stroke-dasharray:none"
       id="path144"
       inkscape:connector-curvature="0" /><path
       d="m 518.4,388.8 -4,0"
       style="fill:none;stroke:#000000;stroke-width:0.5;stroke-linecap:butt;stroke-linejoin:round;stroke-miterlimit:10;stroke-opacity:1;stroke-dasharray:none"
       id="path146"
       inkscape:connector-curvature="0" /><text
       transform="matrix(1,0,0,-1,38.203125,383.70625)"
       id="text148"><tspan
         style="font-size:14.39999962px;font-variant:normal;font-weight:normal;writing-mode:lr-tb;fill:#000000;fill-opacity:1;fill-rule:nonzero;stroke:none;font-family:Bitstream Vera Sans;-inkscape-font-specification:BitstreamVeraSans-Roman"
         x="0"
         y="0"
         sodipodi:role="line"
         id="tspan150">0.35</tspan></text>
<text
       transform="matrix(0,1,1,0,32.703125,175.375)"
       id="text152"><tspan
         style="font-size:14.39999962px;font-variant:normal;font-weight:normal;writing-mode:lr-tb;fill:#000000;fill-opacity:1;fill-rule:nonzero;stroke:none;font-family:Bitstream Vera Sans;-inkscape-font-specification:BitstreamVeraSans-Roman"
         x="0"
         y="0"
         sodipodi:role="line"
         id="tspan154">Distribution</tspan></text>
<path
       d="m 72,388.8 446.4,0"
       style="fill:none;stroke:#000000;stroke-width:1;stroke-linecap:square;stroke-linejoin:round;stroke-miterlimit:10;stroke-opacity:1;stroke-dasharray:none"
       id="path156"
       inkscape:connector-curvature="0" /><path
       d="m 518.4,43.2 0,345.6"
       style="fill:none;stroke:#000000;stroke-width:1;stroke-linecap:square;stroke-linejoin:round;stroke-miterlimit:10;stroke-opacity:1;stroke-dasharray:none"
       id="path158"
       inkscape:connector-curvature="0" /><path
       d="m 72,43.2 446.4,0"
       style="fill:none;stroke:#000000;stroke-width:1;stroke-linecap:square;stroke-linejoin:round;stroke-miterlimit:10;stroke-opacity:1;stroke-dasharray:none"
       id="path160"
       inkscape:connector-curvature="0" /><path
       d="m 72,43.2 0,345.6"
       style="fill:none;stroke:#000000;stroke-width:1;stroke-linecap:square;stroke-linejoin:round;stroke-miterlimit:10;stroke-opacity:1;stroke-dasharray:none"
       id="path162"
       inkscape:connector-curvature="0" /><path
       d="m 373.59437,335.39562 137.60563,0 0,46.20438 -137.60563,0 0,-46.20438 z"
       style="fill:#ffffff;fill-opacity:1;fill-rule:nonzero;stroke:#000000;stroke-width:1;stroke-linecap:square;stroke-linejoin:round;stroke-miterlimit:10;stroke-opacity:1;stroke-dasharray:none"
       id="path164"
       inkscape:connector-curvature="0" /><path
       d="m 379.35437,365.19937 28.80001,0 0,10.08 -28.80001,0 0,-10.08 z"
       style="fill:none;stroke:#0000ff;stroke-width:1;stroke-linecap:square;stroke-linejoin:round;stroke-miterlimit:10;stroke-opacity:1;stroke-dasharray:none"
       id="path166"
       inkscape:connector-curvature="0" /><text
       transform="matrix(1,0,0,-1,419.67437,365.19937)"
       id="text168"><tspan
         style="font-size:14.39999962px;font-variant:normal;font-weight:normal;writing-mode:lr-tb;fill:#000000;fill-opacity:1;fill-rule:nonzero;stroke:none;font-family:Bitstream Vera Sans;-inkscape-font-specification:BitstreamVeraSans-Roman"
         x="0"
         y="0"
         sodipodi:role="line"
         id="tspan170">Fiducial</tspan></text>
<path
       d="m 379.35437,344.4525 28.80001,0 0,10.08 -28.80001,0 0,-10.08 z"
       style="fill:none;stroke:#008000;stroke-width:1;stroke-linecap:square;stroke-linejoin:round;stroke-miterlimit:10;stroke-opacity:1;stroke-dasharray:none"
       id="path172"
       inkscape:connector-curvature="0" /><text
       transform="matrix(1,0,0,-1,419.67437,344.4525)"
       id="text174"><tspan
         style="font-size:14.39999962px;font-variant:normal;font-weight:normal;writing-mode:lr-tb;fill:#000000;fill-opacity:1;fill-rule:nonzero;stroke:none;font-family:Bitstream Vera Sans;-inkscape-font-specification:BitstreamVeraSans-Roman"
         x="0"
         y="0"
         sodipodi:role="line"
         id="tspan176">No damping</tspan></text>
</g></svg>