<?xml version="1.0" encoding="UTF-8" standalone="no"?>
<!-- Created with Inkscape (http://www.inkscape.org/) -->

<svg
   xmlns:dc="http://purl.org/dc/elements/1.1/"
   xmlns:cc="http://creativecommons.org/ns#"
   xmlns:rdf="http://www.w3.org/1999/02/22-rdf-syntax-ns#"
   xmlns:svg="http://www.w3.org/2000/svg"
   xmlns="http://www.w3.org/2000/svg"
   xmlns:xlink="http://www.w3.org/1999/xlink"
   xmlns:sodipodi="http://sodipodi.sourceforge.net/DTD/sodipodi-0.dtd"
   xmlns:inkscape="http://www.inkscape.org/namespaces/inkscape"
   width="647.85754"
   height="621.37573"
   id="svg2"
   version="1.1"
   inkscape:version="0.48.0 r9654"
   sodipodi:docname="couteaux.svg">
  <defs
     id="defs4">
    <linearGradient
       id="linearGradient4738">
      <stop
         style="stop-color:#6c6560;stop-opacity:1;"
         offset="0"
         id="stop4740" />
      <stop
         style="stop-color:#8d8581;stop-opacity:1;"
         offset="1"
         id="stop4742" />
    </linearGradient>
    <linearGradient
       inkscape:collect="always"
       xlink:href="#linearGradient4738"
       id="linearGradient4020"
       gradientUnits="userSpaceOnUse"
       x1="192.28976"
       y1="-597.31696"
       x2="194.59798"
       y2="-690.45081" />
  </defs>
  <sodipodi:namedview
     id="base"
     pagecolor="#ffffff"
     bordercolor="#666666"
     borderopacity="1.0"
     inkscape:pageopacity="0.0"
     inkscape:pageshadow="2"
     inkscape:zoom="1.2069992"
     inkscape:cx="323.92877"
     inkscape:cy="310.68786"
     inkscape:document-units="px"
     inkscape:current-layer="layer1"
     showgrid="false"
     inkscape:window-width="1680"
     inkscape:window-height="973"
     inkscape:window-x="0"
     inkscape:window-y="24"
     inkscape:window-maximized="1"
     inkscape:snap-bbox="true"
     inkscape:object-nodes="true"
     showguides="true"
     inkscape:guide-bbox="true"
     inkscape:object-paths="true"
     inkscape:snap-global="false"
     inkscape:snap-intersection-paths="true"
     fit-margin-top="0"
     fit-margin-left="0"
     fit-margin-right="0"
     fit-margin-bottom="0">
    <sodipodi:guide
       orientation="0,1"
       position="-84.359648,1618.9838"
       id="guide3646" />
    <sodipodi:guide
       orientation="0,1"
       position="805.67009,1400.8353"
       id="guide3648" />
    <sodipodi:guide
       orientation="1,0"
       position="985.66865,1398.1339"
       id="guide3938" />
  </sodipodi:namedview>
  <metadata
     id="metadata7">
    <rdf:RDF>
      <cc:Work
         rdf:about="">
        <dc:format>image/svg+xml</dc:format>
        <dc:type
           rdf:resource="http://purl.org/dc/dcmitype/StillImage" />
        <dc:title />
      </cc:Work>
    </rdf:RDF>
  </metadata>
  <g
     inkscape:label="Calque 1"
     inkscape:groupmode="layer"
     id="layer1"
     transform="translate(-67.187055,-158.96472)">
    <g
       id="g3973"
       transform="matrix(0.21608288,0,0,0.21608288,214.30746,343.79159)">
      <g
         id="g3951">
        <path
           style="fill:#1a1a1a;stroke:#000000"
           d="m 1280.8735,-619.44028 -80.8123,0 0,-218.19295 1029.3455,0 c 109.2381,0 131.9921,217.1828 -24.2437,217.1828 -9.2669,0 -34.1028,-48.69593 -123.3346,-53.91884 -105.0882,-6.15102 -193.5209,33.24378 -350.4252,33.24378 -156.9044,0 -252.3188,-42.19661 -347.4429,-42.19661 -79.2286,0 -82.139,63.30645 -103.0868,63.88182 z"
           id="path3613"
           inkscape:connector-curvature="0"
           sodipodi:nodetypes="cccssszsc" />
        <path
           sodipodi:type="inkscape:offset"
           inkscape:radius="-16.162441"
           inkscape:original="M 1200.0625 -837.625 L 1200.0625 -619.4375 L 1280.875 -619.4375 C 1301.8228 -620.01287 1304.7402 -683.3125 1383.9688 -683.3125 C 1479.0928 -683.3125 1574.5019 -641.125 1731.4062 -641.125 C 1888.3106 -641.125 1976.7556 -680.52602 2081.8438 -674.375 C 2171.0756 -669.15209 2195.8893 -620.4375 2205.1562 -620.4375 C 2361.392 -620.4375 2338.6444 -837.625 2229.4062 -837.625 L 1200.0625 -837.625 z "
           style="fill:#000000;stroke:none"
           id="path3623"
           d="m 1216.2188,-821.46875 0,185.875 62.3124,0 c 0.5793,-0.54931 1.5734,-1.55124 3.1563,-3.6875 3.7009,-4.99457 8.9026,-13.57969 16.4687,-22.65625 15.1323,-18.15313 41.8939,-37.53125 85.8126,-37.53125 99.9026,0 193.4303,42.1875 347.4374,42.1875 154.1987,0 241.7396,-39.63593 351.375,-33.21875 47.4549,2.77762 79.3632,17.54479 99.9063,31.78125 10.2715,7.11823 17.7873,14.06875 22.8125,18.71875 1.749,1.61845 2.6321,2.38896 3.625,3.25 32.9835,-0.86719 54.5875,-12.15473 69.0312,-28.375 15.033,-16.88193 22.4175,-40.11288 22.5,-63.96875 0.083,-23.85587 -7.3299,-47.90423 -19.9687,-65 -12.6388,-17.09577 -29.3274,-27.375 -51.2813,-27.375 l -1013.1874,0 z m 993.9374,185.625 c 0.1084,0.089 0.4812,0.43723 0.5626,0.5 0.4075,0.31442 0.3877,-0.0723 -0.5626,-0.5 z" />
        <path
           sodipodi:type="arc"
           style="fill:#646263;fill-opacity:1;stroke:none"
           id="path3615"
           sodipodi:cx="1330.3708"
           sodipodi:cy="-748.73981"
           sodipodi:rx="30.304577"
           sodipodi:ry="30.304577"
           d="m 1360.6754,-748.73981 c 0,16.73676 -13.5678,30.30458 -30.3046,30.30458 -16.7367,0 -30.3045,-13.56782 -30.3045,-30.30458 0,-16.73675 13.5678,-30.30457 30.3045,-30.30457 16.7368,0 30.3046,13.56782 30.3046,30.30457 z"
           transform="translate(3.5355339,-1.767767)" />
        <use
           x="0"
           y="0"
           xlink:href="#path3615"
           id="use3617"
           transform="translate(826.30478,0)"
           width="744.09448"
           height="1052.3622" />
        <use
           height="1052.3622"
           width="744.09448"
           transform="translate(413.15241,0)"
           id="use3619"
           xlink:href="#path3615"
           y="0"
           x="0" />
      </g>
      <path
         sodipodi:nodetypes="scccscccscscscscsccscscscsccsccsccsccscscscscscsccscscsccscscscscscsccscscccs"
         inkscape:connector-curvature="0"
         id="path3644"
         d="m -214.375,-855.0625 c -101.42322,0 -208.72983,0.96994 -296.625,2.8125 -95.74552,49.42637 -145.45049,121.07952 -169.5625,200.375 39.64106,2.38746 79.48565,4.63838 119.46875,6.75 9.13098,-18.58837 27.93646,-23.91702 42.03125,-11.875 4.30244,3.67584 7.81372,8.71267 10.21875,14.5625 0.0312,0.002 0.0625,-0.002 0.0937,0 l -0.0937,-0.0312 c 9.13098,-18.58837 27.93647,-23.88577 42.03125,-11.84375 4.25523,3.6355 7.72281,8.6075 10.125,14.375 9.13098,-18.58837 27.96771,-23.88578 42.0625,-11.84375 4.21722,3.60303 7.66302,8.48605 10.0625,14.1875 9.13554,-18.5683 27.97398,-23.88043 42.0625,-11.84375 4.182,3.57294 7.60338,8.42211 10,14.0625 9.1356,-18.568 27.97407,-23.88035 42.0625,-11.84375 4.14405,3.54051 7.54432,8.33147 9.9375,13.90625 9.1356,-18.568 27.94282,-23.88035 42.03125,-11.84375 4.10966,3.51113 7.48526,8.26576 9.875,13.78125 0.0208,7.5e-4 0.0417,-7.5e-4 0.0625,0 9.13795,-18.55763 27.91481,-23.87758 42,-11.84375 4.08097,3.48662 7.45711,8.1901 9.84375,13.65625 9.13098,-18.58837 27.93646,-23.88578 42.03125,-11.84375 4.04949,3.45973 7.39827,8.08787 9.78125,13.5 9.13098,-18.58837 27.93646,-23.88578 42.03125,-11.84375 4.017883,3.43272 7.339699,8.04821 9.71875,13.40625 9.130976,-18.58837 27.967718,-23.91702 42.0625,-11.875 3.985249,3.40485 7.250276,7.97893 9.625,13.28125 0.01041,2.7e-4 0.02084,-2.7e-4 0.03125,0 9.130976,-18.58837 27.936468,-23.88578 42.03125,-11.84375 3.9531168,3.37739 7.2235545,7.8774 9.59375,13.125 0.02082,5e-4 0.04168,-5e-4 0.0625,0 9.137949,-18.55763 27.914816,-23.87757 42,-11.84375 3.921004,3.34995 7.165846,7.83818 9.53125,13.03125 0.02082,4.6e-4 0.04168,-4.6e-4 0.0625,0 9.137949,-18.55763 27.946063,-23.87758 42.03125,-11.84375 3.89844,3.33068 7.10687,7.78266 9.46875,12.9375 0.0104,2.1e-4 0.0208,-2.1e-4 0.0312,0 9.13098,-18.58837 27.93646,-23.88577 42.03125,-11.84375 3.86941,3.30588 7.1116,7.6755 9.46875,12.78125 9.1356,-18.568 27.94282,-23.8491 42.03125,-11.8125 3.84374,3.28394 7.05346,7.62506 9.40625,12.6875 9.1356,-18.568 27.97407,-23.88034 42.0625,-11.84375 3.81946,3.2632 6.99524,7.60344 9.34375,12.625 9.13098,-18.58837 27.96771,-23.88578 42.0625,-11.84375 3.79669,3.24374 6.96813,7.5167 9.3125,12.5 9.13098,-18.58837 27.93646,-23.88578 42.03125,-11.84375 3.77096,3.22176 6.94173,7.46608 9.28125,12.40625 9.13098,-18.58837 27.96771,-23.88577 42.0625,-11.84375 3.7409,3.19608 6.85385,7.42261 9.1875,12.3125 0.0104,9e-5 0.0208,-9e-5 0.0312,0 9.1356,-18.568 27.94282,-23.88035 42.03125,-11.84375 3.72484,3.18236 6.85708,7.38692 9.1875,12.25 9.13098,-18.58837 27.96771,-23.88577 42.0625,-11.84375 3.70878,3.16864 6.79788,7.31994 9.125,12.15625 9.13098,-18.58837 27.96771,-23.91703 42.0625,-11.875 3.67641,3.14098 6.74222,7.28003 9.0625,12.0625 0.0104,4e-5 0.0208,-4e-5 0.0312,0 9.1356,-18.568 27.94282,-23.88035 42.03125,-11.84375 3.6606,3.12747 6.74566,7.24377 9.0625,12 9.13098,-18.58837 27.96771,-23.88577 42.0625,-11.84375 3.63467,3.10533 6.68894,7.16173 9,11.875 9.13554,-18.5683 27.97398,-23.84918 42.0625,-11.8125 3.61878,3.09175 6.66131,7.12549 8.96875,11.8125 9.13098,-18.58837 27.96771,-23.88578 42.0625,-11.84375 3.60203,3.07743 6.63395,7.09065 8.9375,11.75 9.13098,-18.58837 27.96771,-23.88578 42.0625,-11.84375 3.57924,3.05797 6.6081,7.03445 8.90625,11.65625 9.1356,-18.568 27.97407,-23.8491 42.0625,-11.8125 3.56355,3.04456 6.54939,6.99777 8.84375,11.59375 0.0104,-6e-5 0.0208,6e-5 0.0312,0 9.13098,-18.58837 27.93646,-23.88578 42.03125,-11.84375 3.54661,3.03009 6.55356,6.96309 8.84375,11.53125 9.1356,-18.568 27.97407,-23.88035 42.0625,-11.84375 3.52467,3.01134 6.49656,6.93656 8.78125,11.46875 73.11885,-0.5792 145.52945,-1.32697 216.96875,-2.25 l 0,-218.1875 c -1040.79621,0 -1106.129292,-17.4375 -1414.4375,-17.4375 z"
         style="fill:url(#linearGradient4020);fill-opacity:1;stroke:#000000;stroke-width:0.5;stroke-linecap:round;stroke-linejoin:round;stroke-miterlimit:4;stroke-opacity:1;stroke-dasharray:none;stroke-dashoffset:1.48818896" />
      <path
         sodipodi:nodetypes="ccscscscscscsccscscscsccsccsccsccscscscscscsccscscsccscscscscscsccscsccccsscsscsscsscsscsscsscsscsscsscsscsscsscsscsscsscsscsscsscsscsscsscsscsscsscsscsscsscsscssccccccc"
         inkscape:connector-curvature="0"
         id="path3948"
         d="m -680.5625,-651.875 c 39.64106,2.38746 79.48565,4.63838 119.46875,6.75 9.13098,-18.58837 27.93646,-23.91702 42.03125,-11.875 4.29595,3.6703 7.81402,8.69269 10.21875,14.53125 9.13098,-18.58837 27.93647,-23.88577 42.03125,-11.84375 4.25523,3.6355 7.72281,8.6075 10.125,14.375 9.13098,-18.58837 27.96771,-23.88578 42.0625,-11.84375 4.21722,3.60303 7.66302,8.48605 10.0625,14.1875 9.13554,-18.5683 27.97398,-23.88043 42.0625,-11.84375 4.182,3.57294 7.60338,8.42211 10,14.0625 9.1356,-18.568 27.97407,-23.88035 42.0625,-11.84375 4.14405,3.54051 7.54432,8.33147 9.9375,13.90625 9.1356,-18.568 27.94282,-23.88035 42.03125,-11.84375 4.10966,3.51113 7.48526,8.26576 9.875,13.78125 0.0208,7.5e-4 0.0417,-7.5e-4 0.0625,0 9.13795,-18.55763 27.91481,-23.87758 42,-11.84375 4.08097,3.48662 7.45711,8.1901 9.84375,13.65625 9.13098,-18.58837 27.93646,-23.88578 42.03125,-11.84375 4.04949,3.45973 7.39827,8.08787 9.78125,13.5 9.13098,-18.58837 27.93646,-23.88578 42.03125,-11.84375 4.017883,3.43272 7.339699,8.04821 9.71875,13.40625 9.130976,-18.58837 27.967718,-23.91702 42.0625,-11.875 3.985249,3.40485 7.250276,7.97893 9.625,13.28125 0.01041,2.7e-4 0.02084,-2.7e-4 0.03125,0 9.130976,-18.58837 27.936468,-23.88578 42.03125,-11.84375 3.9531168,3.37739 7.2235545,7.8774 9.59375,13.125 0.02082,5e-4 0.04168,-5e-4 0.0625,0 9.137949,-18.55763 27.914816,-23.87757 42,-11.84375 3.921004,3.34995 7.165846,7.83818 9.53125,13.03125 0.02082,4.6e-4 0.04168,-4.6e-4 0.0625,0 9.137949,-18.55763 27.946063,-23.87758 42.03125,-11.84375 3.89844,3.33068 7.10687,7.78266 9.46875,12.9375 0.0104,2.1e-4 0.0208,-2.1e-4 0.0312,0 9.13098,-18.58837 27.93646,-23.88577 42.03125,-11.84375 3.86941,3.30588 7.1116,7.6755 9.46875,12.78125 9.1356,-18.568 27.94282,-23.8491 42.03125,-11.8125 3.84374,3.28394 7.05346,7.62506 9.40625,12.6875 9.1356,-18.568 27.97407,-23.88034 42.0625,-11.84375 3.81946,3.2632 6.99524,7.60344 9.34375,12.625 9.13098,-18.58837 27.96771,-23.88578 42.0625,-11.84375 3.79669,3.24374 6.96813,7.5167 9.3125,12.5 9.13098,-18.58837 27.93646,-23.88578 42.03125,-11.84375 3.77096,3.22176 6.94173,7.46608 9.28125,12.40625 9.13098,-18.58837 27.96771,-23.88577 42.0625,-11.84375 3.7409,3.19608 6.85385,7.42261 9.1875,12.3125 0.0104,9e-5 0.0208,-9e-5 0.0312,0 9.1356,-18.568 27.94282,-23.88035 42.03125,-11.84375 3.72484,3.18236 6.85708,7.38692 9.1875,12.25 9.13098,-18.58837 27.96771,-23.88577 42.0625,-11.84375 3.70878,3.16864 6.79788,7.31994 9.125,12.15625 9.13098,-18.58837 27.96771,-23.91703 42.0625,-11.875 3.67641,3.14098 6.74222,7.28003 9.0625,12.0625 0.0104,4e-5 0.0208,-4e-5 0.0312,0 9.1356,-18.568 27.94282,-23.88035 42.03125,-11.84375 3.6606,3.12747 6.74566,7.24377 9.0625,12 9.13098,-18.58837 27.96771,-23.88577 42.0625,-11.84375 3.63467,3.10533 6.68894,7.16173 9,11.875 9.13554,-18.5683 27.97398,-23.84918 42.0625,-11.8125 3.61878,3.09175 6.66131,7.12549 8.96875,11.8125 9.13098,-18.58837 27.96771,-23.88578 42.0625,-11.84375 3.60203,3.07743 6.63395,7.09065 8.9375,11.75 9.13098,-18.58837 27.96771,-23.88578 42.0625,-11.84375 3.57924,3.05797 6.6081,7.03445 8.90625,11.65625 9.1356,-18.568 27.97407,-23.8491 42.0625,-11.8125 3.56355,3.04456 6.54939,6.99777 8.84375,11.59375 0.0104,-6e-5 0.0208,6e-5 0.0312,0 9.13098,-18.58837 27.93646,-23.88578 42.03125,-11.84375 3.54661,3.03009 6.55356,6.96309 8.84375,11.53125 9.1356,-18.568 27.97407,-23.88035 42.0625,-11.84375 3.52467,3.01134 6.49656,6.93656 8.78125,11.46875 73.11885,-0.5792 145.52945,-1.32697 216.96875,-2.25 l -6.4375,-6.375 c -68.2101,0.87084 -137.2628,1.59833 -207,2.15625 -2.29015,-3.70185 -4.89852,-7.11842 -8.125,-9.875 -8.47408,-7.23992 -19.19334,-9.58477 -28.8125,-6.875 -6.677,1.88094 -12.66592,6.14825 -17.5,12.0625 -1.44347,-1.72804 -2.90449,-3.43176 -4.59375,-4.875 -8.47374,-7.23963 -19.1975,-9.58409 -28.8125,-6.875 -6.67411,1.88048 -12.63927,6.14387 -17.46875,12.0625 -1.45228,-1.75373 -2.91,-3.47227 -4.625,-4.9375 -8.472,-7.23814 -19.19205,-9.57526 -28.8125,-6.875 -6.66482,1.87067 -12.63788,6.10616 -17.46875,12 -1.46836,-1.76991 -2.9627,-3.49515 -4.6875,-4.96875 -8.47552,-7.24115 -19.19139,-9.58303 -28.8125,-6.875 -6.66528,1.87606 -12.64019,6.13067 -17.46875,12.03125 -1.48013,-1.79573 -2.97041,-3.56879 -4.71875,-5.0625 -8.47552,-7.24115 -19.19139,-9.58303 -28.8125,-6.875 -6.6522,1.87238 -12.61362,6.11793 -17.4375,12 -1.49082,-1.81386 -3.01759,-3.58695 -4.78125,-5.09375 -8.47202,-7.23816 -19.19202,-9.57523 -28.8125,-6.875 -6.65176,1.86698 -12.61133,6.09334 -17.4375,11.96875 -1.50171,-1.83256 -3.0332,-3.63608 -4.8125,-5.15625 -8.47552,-7.24114 -19.19139,-9.58303 -28.8125,-6.875 -6.63912,1.86869 -12.58708,6.10518 -17.40625,11.96875 -1.52599,-1.87554 -3.09184,-3.69984 -4.90625,-5.25 -8.4723,-7.2384 -19.19945,-9.58582 -28.8125,-6.875 -6.63355,1.87062 -12.55874,6.11045 -17.375,11.96875 -1.53104,-1.89628 -3.10193,-3.74426 -4.9375,-5.3125 -8.47761,-7.24293 -19.19268,-9.56129 -28.8125,-6.84375 -6.62514,1.87156 -12.56202,6.09048 -17.375,11.9375 -1.55126,-1.92419 -3.14235,-3.78789 -5,-5.375 -8.47552,-7.24114 -19.19139,-9.58303 -28.8125,-6.875 -6.59988,1.85765 -12.50759,6.06676 -17.3125,11.875 -1.57356,-1.95875 -3.24187,-3.79738 -5.125,-5.40625 -8.4723,-7.2384 -19.19945,-9.58582 -28.8125,-6.875 -6.58751,1.85764 -12.48179,6.05032 -17.28125,11.84375 -1.57323,-1.97028 -3.25968,-3.81715 -5.15625,-5.4375 -8.47552,-7.24114 -19.19139,-9.58303 -28.8125,-6.875 -6.5868,1.85397 -12.48115,6.05391 -17.28125,11.84375 -1.6078,-2.01214 -3.32457,-3.88624 -5.25,-5.53125 -8.47374,-7.23963 -19.1975,-9.58409 -28.8125,-6.875 -6.56954,1.85101 -12.42722,6.04147 -17.21875,11.8125 -1.62058,-2.04099 -3.3614,-3.92681 -5.3125,-5.59375 -8.47552,-7.24115 -19.19139,-9.58303 -28.8125,-6.875 -6.56064,1.84661 -12.42832,6.02813 -17.21875,11.78125 -1.62874,-2.06971 -3.3978,-3.99826 -5.375,-5.6875 -8.47408,-7.23992 -19.19334,-9.58476 -28.8125,-6.875 -6.55931,1.84779 -12.42753,6.03281 -17.21875,11.78125 -1.65296,-2.09929 -3.43956,-4.04304 -5.4375,-5.75 -8.47021,-7.23662 -19.19816,-9.57631 -28.8125,-6.875 -6.54918,1.8401 -12.40112,5.98227 -17.1875,11.71875 -1.67204,-2.12674 -3.48203,-4.08842 -5.5,-5.8125 -8.47374,-7.23962 -19.1975,-9.58409 -28.8125,-6.875 -6.53656,1.84172 -12.377,5.99396 -17.15625,11.71875 -1.67618,-2.16947 -3.50139,-4.17656 -5.5625,-5.9375 -8.471567,-7.23777 -19.200447,-9.55545 -28.8125,-6.84375 -6.541392,1.84543 -12.373259,5.99142 -17.15625,11.71875 -1.706531,-2.2202 -3.55689,-4.26889 -5.65625,-6.0625 -8.469782,-7.23624 -19.175312,-9.55651 -28.78125,-6.84375 -6.530398,1.84422 -12.379577,5.97015 -17.15625,11.6875 -1.7243329,-2.24432 -3.6017159,-4.31629 -5.71875,-6.125 -8.4737375,-7.23963 -19.197499,-9.58409 -28.8125,-6.875 -6.510417,1.83435 -12.324342,5.968 -17.09375,11.65625 -1.732572,-2.28128 -3.630001,-4.3808 -5.78125,-6.21875 -8.477606,-7.24293 -19.192681,-9.56129 -28.8125,-6.84375 -6.500601,1.83638 -12.326995,5.9526 -17.09375,11.625 -1.760279,-2.31849 -3.699088,-4.45349 -5.875,-6.3125 -8.47374,-7.23963 -19.1975,-9.58409 -28.8125,-6.875 -6.49734,1.83067 -12.29805,5.95499 -17.0625,11.625 -1.78404,-2.35499 -3.73448,-4.52408 -5.9375,-6.40625 -8.47374,-7.23963 -19.1975,-9.58409 -28.8125,-6.875 -6.48427,1.82699 -12.27177,5.94196 -17.03125,11.59375 -1.80384,-2.40087 -3.79187,-4.61801 -6.03125,-6.53125 -8.46978,-7.23625 -19.17531,-9.55652 -28.78125,-6.84375 -6.47816,1.82947 -12.27439,5.918 -17.03125,11.5625 -1.8224,-2.45302 -3.84146,-4.70528 -6.125,-6.65625 -8.4723,-7.2384 -19.19945,-9.58582 -28.8125,-6.875 -6.46305,1.82254 -12.2474,5.91168 -17,11.53125 -1.83528,-2.47528 -3.856,-4.75351 -6.15625,-6.71875 -8.47408,-7.23992 -19.19334,-9.58477 -28.8125,-6.875 -6.44785,1.81639 -12.21985,5.90682 -16.96875,11.5 -1.86074,-2.5332 -3.93507,-4.83926 -6.28125,-6.84375 -8.4741,-7.23994 -19.19331,-9.58474 -28.8125,-6.875 -6.44103,1.81445 -12.22251,5.88498 -16.96875,11.46875 -1.87766,-2.56417 -3.97424,-4.91308 -6.34375,-6.9375 -8.47552,-7.24115 -19.19139,-9.58303 -28.8125,-6.875 -6.42923,1.80962 -12.19707,5.86741 -16.9375,11.4375 -1.90186,-2.62965 -4.01572,-5.02468 -6.4375,-7.09375 -8.47374,-7.23962 -19.1975,-9.58409 -28.8125,-6.875 -6.41208,1.80665 -12.14343,5.85462 -16.875,11.40625 -1.93447,-2.6864 -4.10081,-5.11557 -6.5625,-7.21875 -8.47583,-7.2414 -19.1988,-9.56235 -28.8125,-6.84375 -8.37451,2.36818 -15.61944,8.44476 -20.84375,16.96875 -35.9125,-1.90498 -78.25236,-4.80903 -113.89029,-6.93679 -0.77397,2.37598 -1.42731,4.54119 -2.14096,6.81179 z m 171.71875,9.40625 c 0.004,0.009 -0.004,0.0224 0,0.0312 0.0312,0.002 0.0625,-0.002 0.0937,0 z"
         style="fill:#acada8;fill-opacity:1;stroke:none" />
      <path
         style="fill:#605b52;fill-opacity:1;stroke:none"
         d="m -214.375,-855.0625 c -101.42322,0 -208.72983,0.96994 -296.625,2.8125 -57.97447,29.92796 -99.06876,68.00508 -127.82225,110.9936 l 1691.67795,38.46903 0,84.99383 c 49.4639,-0.46811 98.5604,-1.01538 147.2066,-1.64391 l 0,-218.1875 c -1040.79621,0 -1106.129292,-17.4375 -1414.4375,-17.4375 z"
         id="path3936"
         inkscape:connector-curvature="0"
         sodipodi:nodetypes="cccccccsc" />
      <path
         style="fill:none;stroke:#000000;stroke-width:0.5;stroke-linecap:round;stroke-linejoin:round;stroke-miterlimit:4;stroke-opacity:1;stroke-dasharray:none;stroke-dashoffset:1.48818896"
         d="m -214.375,-855.0625 c -101.42322,0 -208.72983,0.96994 -296.625,2.8125 -95.74552,49.42637 -145.45049,121.07952 -169.5625,200.375 39.64106,2.38746 79.48565,4.63838 119.46875,6.75 9.13098,-18.58837 27.93646,-23.91702 42.03125,-11.875 4.30244,3.67584 7.81372,8.71267 10.21875,14.5625 0.0312,0.002 0.0625,-0.002 0.0937,0 l -0.0937,-0.0312 c 9.13098,-18.58837 27.93647,-23.88577 42.03125,-11.84375 4.25523,3.6355 7.72281,8.6075 10.125,14.375 9.13098,-18.58837 27.96771,-23.88578 42.0625,-11.84375 4.21722,3.60303 7.66302,8.48605 10.0625,14.1875 9.13554,-18.5683 27.97398,-23.88043 42.0625,-11.84375 4.182,3.57294 7.60338,8.42211 10,14.0625 9.1356,-18.568 27.97407,-23.88035 42.0625,-11.84375 4.14405,3.54051 7.54432,8.33147 9.9375,13.90625 9.1356,-18.568 27.94282,-23.88035 42.03125,-11.84375 4.10966,3.51113 7.48526,8.26576 9.875,13.78125 0.0208,7.5e-4 0.0417,-7.5e-4 0.0625,0 9.13795,-18.55763 27.91481,-23.87758 42,-11.84375 4.08097,3.48662 7.45711,8.1901 9.84375,13.65625 9.13098,-18.58837 27.93646,-23.88578 42.03125,-11.84375 4.04949,3.45973 7.39827,8.08787 9.78125,13.5 9.13098,-18.58837 27.93646,-23.88578 42.03125,-11.84375 4.017883,3.43272 7.339699,8.04821 9.71875,13.40625 9.130976,-18.58837 27.967718,-23.91702 42.0625,-11.875 3.985249,3.40485 7.250276,7.97893 9.625,13.28125 0.01041,2.7e-4 0.02084,-2.7e-4 0.03125,0 9.130976,-18.58837 27.936468,-23.88578 42.03125,-11.84375 3.9531168,3.37739 7.2235545,7.8774 9.59375,13.125 0.02082,5e-4 0.04168,-5e-4 0.0625,0 9.137949,-18.55763 27.914816,-23.87757 42,-11.84375 3.921004,3.34995 7.165846,7.83818 9.53125,13.03125 0.02082,4.6e-4 0.04168,-4.6e-4 0.0625,0 9.137949,-18.55763 27.946063,-23.87758 42.03125,-11.84375 3.89844,3.33068 7.10687,7.78266 9.46875,12.9375 0.0104,2.1e-4 0.0208,-2.1e-4 0.0312,0 9.13098,-18.58837 27.93646,-23.88577 42.03125,-11.84375 3.86941,3.30588 7.1116,7.6755 9.46875,12.78125 9.1356,-18.568 27.94282,-23.8491 42.03125,-11.8125 3.84374,3.28394 7.05346,7.62506 9.40625,12.6875 9.1356,-18.568 27.97407,-23.88034 42.0625,-11.84375 3.81946,3.2632 6.99524,7.60344 9.34375,12.625 9.13098,-18.58837 27.96771,-23.88578 42.0625,-11.84375 3.79669,3.24374 6.96813,7.5167 9.3125,12.5 9.13098,-18.58837 27.93646,-23.88578 42.03125,-11.84375 3.77096,3.22176 6.94173,7.46608 9.28125,12.40625 9.13098,-18.58837 27.96771,-23.88577 42.0625,-11.84375 3.7409,3.19608 6.85385,7.42261 9.1875,12.3125 0.0104,9e-5 0.0208,-9e-5 0.0312,0 9.1356,-18.568 27.94282,-23.88035 42.03125,-11.84375 3.72484,3.18236 6.85708,7.38692 9.1875,12.25 9.13098,-18.58837 27.96771,-23.88577 42.0625,-11.84375 3.70878,3.16864 6.79788,7.31994 9.125,12.15625 9.13098,-18.58837 27.96771,-23.91703 42.0625,-11.875 3.67641,3.14098 6.74222,7.28003 9.0625,12.0625 0.0104,4e-5 0.0208,-4e-5 0.0312,0 9.1356,-18.568 27.94282,-23.88035 42.03125,-11.84375 3.6606,3.12747 6.74566,7.24377 9.0625,12 9.13098,-18.58837 27.96771,-23.88577 42.0625,-11.84375 3.63467,3.10533 6.68894,7.16173 9,11.875 9.13554,-18.5683 27.97398,-23.84918 42.0625,-11.8125 3.61878,3.09175 6.66131,7.12549 8.96875,11.8125 9.13098,-18.58837 27.96771,-23.88578 42.0625,-11.84375 3.60203,3.07743 6.63395,7.09065 8.9375,11.75 9.13098,-18.58837 27.96771,-23.88578 42.0625,-11.84375 3.57924,3.05797 6.6081,7.03445 8.90625,11.65625 9.1356,-18.568 27.97407,-23.8491 42.0625,-11.8125 3.56355,3.04456 6.54939,6.99777 8.84375,11.59375 0.0104,-6e-5 0.0208,6e-5 0.0312,0 9.13098,-18.58837 27.93646,-23.88578 42.03125,-11.84375 3.54661,3.03009 6.55356,6.96309 8.84375,11.53125 9.1356,-18.568 27.97407,-23.88035 42.0625,-11.84375 3.52467,3.01134 6.49656,6.93656 8.78125,11.46875 73.11885,-0.5792 145.52945,-1.32697 216.96875,-2.25 l 0,-218.1875 c -1040.79621,0 -1106.129292,-17.4375 -1414.4375,-17.4375 z"
         id="path3935"
         inkscape:connector-curvature="0"
         sodipodi:nodetypes="scccscccscscscscsccscscscsccsccsccsccscscscscscsccscscsccscscscscscsccscscccs" />
    </g>
    <g
       id="g3985"
       transform="matrix(0.21608288,0,0,0.21608288,222.3334,302.4989)">
      <use
         x="0"
         y="0"
         xlink:href="#g3951"
         id="use3960"
         transform="translate(-37.142857,608.57143)"
         width="744.09448"
         height="1052.3622" />
      <path
         sodipodi:nodetypes="scccs"
         inkscape:connector-curvature="0"
         id="path3017"
         d="m 155.95917,-229.0618 c -104.813231,0 -505.39411,1.82026 -774.17254,117.72823 433.09645,247.42605 1297.36795,283.16767 1781.13167,275.77165 l 0,-393.49988 z"
         style="fill:#89817d;fill-opacity:1;stroke:#000000;stroke-width:1;stroke-linecap:round;stroke-linejoin:round;stroke-miterlimit:4;stroke-opacity:1;stroke-dasharray:none;stroke-dashoffset:1.48818896" />
      <path
         style="fill:#605b52;fill-opacity:1;stroke:none"
         d="m 155.95917,-229.0618 c -92.009744,0 -411.94141,1.40271 -670.55358,80.1545 C -63.583861,27.615097 611.54896,52.415536 968.92951,70.095004 c 10.14497,26.483489 4.80991,67.721086 1.06645,94.814296 69.00244,0.69222 133.80374,0.43262 192.92234,-0.47122 l 0,-393.49988 z"
         id="path3787"
         inkscape:connector-curvature="0"
         sodipodi:nodetypes="scccccs" />
      <path
         sodipodi:nodetypes="ccccccc"
         inkscape:connector-curvature="0"
         id="path3803"
         d="M -618.21875,-111.34375 C -239.78562,104.85339 467.84458,159.4368 963.17887,164.83708 963.09187,156.97876 959.73283,153.11962 953.58581,152.668 837.10629,151.30652 720.65727,147.40291 604.375,140.5 351.09049,124.71781 97.627378,98.503011 -150.21875,42.75 -301.80344,7.8058941 -467.7276,-39.914547 -605.76223,-116.58978 c -3.79716,1.56015 -8.81495,3.67564 -12.45652,5.24603 z"
         style="fill:#acada8;fill-opacity:1;stroke:none" />
      <path
         style="fill:none;stroke:#000000;stroke-width:1;stroke-linecap:round;stroke-linejoin:round;stroke-miterlimit:4;stroke-opacity:1;stroke-dasharray:none;stroke-dashoffset:1.48818896"
         d="m 155.95917,-229.0618 c -104.813231,0 -505.39411,1.82026 -774.17254,117.72823 433.09645,247.42605 1297.36795,283.16767 1781.13167,275.77165 l 0,-393.49988 z"
         id="path3937"
         inkscape:connector-curvature="0"
         sodipodi:nodetypes="scccs" />
    </g>
    <g
       id="g3992"
       transform="matrix(0.21608288,0,0,0.21608288,265.29754,282.59136)">
      <use
         x="0"
         y="0"
         xlink:href="#g3951"
         id="use3962"
         transform="translate(-235.97466,1302.8572)"
         width="744.09448"
         height="1052.3622" />
      <path
         sodipodi:nodetypes="cccccc"
         inkscape:connector-curvature="0"
         id="path3012"
         d="m -455.5788,462.19351 c 172.71523,225.10477 738.09818,127.76228 1193.49523,181.05689 55.38683,0 104.91526,8.77982 152.53304,40.16652 l 73.63707,0 0,-218.19295 z"
         style="fill:#89817d;fill-opacity:1;stroke:#000000;stroke-width:1;stroke-linecap:round;stroke-linejoin:round;stroke-miterlimit:4;stroke-opacity:1;stroke-dasharray:none;stroke-dashoffset:1.48818896" />
      <path
         style="fill:#605b52;fill-opacity:1;stroke:none"
         d="m 727.27834,569.33637 c 11.99841,17.73324 12.21111,46.53793 10.63809,73.91403 55.38683,0 104.91526,8.77982 152.53304,40.16652 l 73.63707,0 0,-218.19295 -1333.73019,-2.84702 c 190.28919,120.28984 657.04686,83.35058 1096.92199,106.95942 z"
         id="path3782"
         inkscape:connector-curvature="0"
         sodipodi:nodetypes="ccccccc" />
      <path
         sodipodi:nodetypes="cccscccc"
         inkscape:connector-curvature="0"
         id="path3800"
         d="M 707.8955,625.50009 C 510.42046,606.61143 311.66562,611.33925 113.5625,605.90625 -9.4063362,601.41709 -133.89175,597.22291 -253.3125,565.15625 -315.03933,548.6366 -376.27362,522.64599 -423,477.75 c -6.29195,-6.04547 -10.68145,-9.94393 -15.34375,-15.53125 l -17.25,-0.0312 c 171.11567,223.02002 727.66423,129.54316 1180.81945,179.62016 -0.88464,-4.22221 -4.84259,-15.06259 -17.3302,-16.30757 z"
         style="fill:#acada8;fill-opacity:1;stroke:none" />
      <path
         style="fill:none;stroke:#000000;stroke-width:1;stroke-linecap:round;stroke-linejoin:round;stroke-miterlimit:4;stroke-opacity:1;stroke-dasharray:none;stroke-dashoffset:1.48818896"
         d="m -455.5788,462.19351 c 172.71523,225.10477 738.09818,127.76228 1193.49523,181.05689 55.38683,0 104.91526,8.77982 152.53304,40.16652 l 73.63707,0 0,-218.19295 z"
         id="path3939"
         inkscape:connector-curvature="0"
         sodipodi:nodetypes="cccccc" />
    </g>
    <g
       id="g3999"
       transform="matrix(0.21608288,0,0,0.21608288,236.58939,285.69976)">
      <use
         x="0"
         y="0"
         xlink:href="#g3951"
         id="use3964"
         transform="translate(-103.11751,1791.4286)"
         width="744.09448"
         height="1052.3622" />
      <path
         sodipodi:nodetypes="ccccc"
         inkscape:connector-curvature="0"
         id="path3856"
         d="m 1096.9437,953.79537 c -578.33967,0 -1165.13421,32.53886 -1746.9437,-0.7189 259.56231,344.50153 931.00036,209.89743 1610.14999,209.89743 46.89001,0 92.70571,-2.2922 136.79371,9.0144 z"
         style="fill:#89817d;fill-opacity:1;stroke:#000000;stroke-width:1;stroke-linecap:round;stroke-linejoin:round;stroke-miterlimit:4;stroke-opacity:1;stroke-dasharray:none;stroke-dashoffset:1.48818896" />
      <path
         style="fill:#605b52;fill-opacity:1;stroke:none"
         d="m 1096.9437,953.79537 c -542.04821,0 -1091.523478,28.58329 -1637.36055,4.78902 256.04957,219.80031 1127.85357,115.71041 1494.53909,115.71041 15.85394,10.6311 7.94982,71.6194 6.02775,88.6791 46.89001,0 92.70571,-2.2922 136.79371,9.0144 z"
         id="path3858"
         inkscape:connector-curvature="0"
         sodipodi:nodetypes="cccccc" />
      <path
         sodipodi:nodetypes="cccccccc"
         inkscape:connector-curvature="0"
         id="path3882"
         d="m -650,953.0625 c 255.49184,339.099 910.04864,214.0099 1578.21208,210.0032 -2.90843,-8.1903 -6.81473,-20.3769 -24.28841,-20.0357 -40.64318,0.4934 -81.28649,1.5993 -121.89242,2.72 -245.65726,5.6448 -490.95815,26.4694 -736.8125,22.4062 -136.892209,-2.8206 -275.47133,-11.5443 -407.21875,-51 -90.81454,-26.4902 -207.98426,-92.7415 -261.6485,-162.61824 z"
         style="fill:#acada8;fill-opacity:1;stroke:none" />
      <path
         style="fill:none;stroke:#000000;stroke-width:1;stroke-linecap:round;stroke-linejoin:round;stroke-miterlimit:4;stroke-opacity:1;stroke-dasharray:none;stroke-dashoffset:1.48818896"
         d="m 1096.9437,953.79537 c -578.33967,0 -1165.13421,32.53886 -1746.9437,-0.7189 259.56231,344.50153 931.00036,209.89743 1610.14999,209.89743 46.89001,0 92.70571,-2.2922 136.79371,9.0144 z"
         id="path3941"
         inkscape:connector-curvature="0"
         sodipodi:nodetypes="ccccc" />
    </g>
    <g
       id="g4006"
       transform="matrix(0.21608288,0,0,0.21608288,365.95814,304.85256)">
      <use
         x="0"
         y="0"
         xlink:href="#g3951"
         id="use3966"
         transform="matrix(0.86185623,0,0,0.86185623,-381.69133,2122.7885)"
         width="744.09448"
         height="1052.3622" />
      <path
         sodipodi:nodetypes="csscccc"
         inkscape:connector-curvature="0"
         id="path3885"
         d="m 652.58889,1400.8691 -361.66496,0 c -8.41754,0 -12.24454,1.0345 -19.95795,3.1382 l -325.514217,88.7814 c 122.832813,76.1592 385.363037,60.1399 636.273547,60.1399 55.58444,0 59.58574,35.9914 70.86358,35.9914 z"
         style="fill:#89817d;fill-opacity:1;stroke:#000000;stroke-width:1;stroke-linecap:round;stroke-linejoin:round;stroke-miterlimit:4;stroke-opacity:1;stroke-dasharray:none;stroke-dashoffset:1.48818896" />
      <path
         style="fill:#605b52;fill-opacity:1;stroke:none"
         d="m 652.58889,1400.8691 -361.66496,0 c -8.41754,0 -12.24454,1.0345 -19.95795,3.1382 l -184.579711,50.3426 c 148.978971,36.1627 316.939461,27.7245 481.922641,27.7245 12.09118,14.2133 15.179,54.4303 13.4164,70.8542 55.58444,0 59.58574,35.9914 70.86358,35.9914 z"
         id="path3887"
         inkscape:connector-curvature="0"
         sodipodi:nodetypes="cssccccc" />
      <path
         sodipodi:nodetypes="cccccc"
         inkscape:connector-curvature="0"
         id="path3907"
         d="m -54.5625,1492.7812 c 118.039783,73.1875 365.0946,61.2649 606.86497,60.223 0,-6.9445 -4.17881,-15.8504 -15.1543,-15.8504 -109.05619,-0.2865 -218.21278,4.0764 -327.17942,-2.1538 -74.10337,-5.303 -172.44825,-15.2033 -240.719305,-48.7019 z"
         style="fill:#acada8;fill-opacity:1;stroke:none" />
      <path
         style="fill:none;stroke:#000000;stroke-width:1;stroke-linecap:round;stroke-linejoin:round;stroke-miterlimit:4;stroke-opacity:1;stroke-dasharray:none;stroke-dashoffset:1.48818896"
         d="m 652.58889,1400.8691 -361.66496,0 c -8.41754,0 -12.24454,1.0345 -19.95795,3.1382 l -325.514217,88.7814 c 122.832813,76.1592 385.363037,60.1399 636.273547,60.1399 55.58444,0 59.58574,35.9914 70.86358,35.9914 z"
         id="path3943"
         inkscape:connector-curvature="0"
         sodipodi:nodetypes="csscccc" />
    </g>
    <g
       id="g4013"
       transform="matrix(0.21608288,0,0,0.21608288,299.28415,326.56548)">
      <use
         x="0"
         y="0"
         xlink:href="#g3951"
         id="use3968"
         transform="matrix(0.86439986,0,0,0.86439986,-79.028283,2536.349)"
         width="744.09448"
         height="1052.3622" />
      <path
         sodipodi:nodetypes="cccc"
         inkscape:connector-curvature="0"
         id="path3910"
         d="m 958.30445,1812.299 -1155.2842,0 c 184.261059,211.5311 757.61208,188.6059 1155.2842,188.6059 z"
         style="fill:#89817d;fill-opacity:1;stroke:#000000;stroke-width:1;stroke-linecap:round;stroke-linejoin:round;stroke-miterlimit:4;stroke-opacity:1;stroke-dasharray:none;stroke-dashoffset:1.48818896" />
      <path
         style="fill:#605b52;fill-opacity:1;stroke:none"
         d="m 958.30445,1812.299 -1026.994823,0 c 190.981033,121.8491 599.250543,114.1472 985.908883,114.1472 14.05818,7.6503 26.26465,50.1507 26.26465,74.4687 4.96655,-0.01 9.90733,-0.01 14.82129,-0.01 z"
         id="path3912"
         inkscape:connector-curvature="0"
         sodipodi:nodetypes="cccccc" />
      <path
         sodipodi:nodetypes="ccccccc"
         inkscape:connector-curvature="0"
         id="path3932"
         d="m -196.96875,1812.3125 c 176.869647,203.0458 712.23688,190.0566 1106.61323,188.6878 0,-5.7501 -5.30583,-15.9549 -17.67859,-15.9549 -136.37586,0.5226 -272.78944,1.9148 -409.09089,-3.4204 -140.32318,-6.5879 -281.68969,-15.7523 -418.25,-50.4688 -79.425912,-20.6279 -162.088869,-54.2707 -237.24096,-118.8572 z"
         style="fill:#acada8;fill-opacity:1;stroke:none" />
      <path
         style="fill:none;stroke:#000000;stroke-width:1;stroke-linecap:round;stroke-linejoin:round;stroke-miterlimit:4;stroke-opacity:1;stroke-dasharray:none;stroke-dashoffset:1.48818896"
         d="m 958.30445,1812.299 -1155.2842,0 c 184.261059,211.5311 757.61208,188.6059 1155.2842,188.6059 z"
         id="path3945"
         inkscape:connector-curvature="0"
         sodipodi:nodetypes="cccc" />
    </g>
    <text
       xml:space="preserve"
       style="font-size:14px;font-style:normal;font-variant:normal;font-weight:normal;font-stretch:normal;text-align:center;line-height:125%;letter-spacing:0px;word-spacing:0px;writing-mode:lr-tb;text-anchor:middle;fill:#000000;fill-opacity:1;stroke:none;font-family:Sans;-inkscape-font-specification:Sans"
       x="613.67963"
       y="224.1727"
       id="text4041"
       sodipodi:linespacing="125%"><tspan
         sodipodi:role="line"
         id="tspan4043"
         x="613.67963"
         y="224.1727">Couteau à pain</tspan></text>
    <text
       xml:space="preserve"
       style="font-size:14px;font-style:normal;font-variant:normal;font-weight:normal;font-stretch:normal;text-align:center;line-height:125%;letter-spacing:0px;word-spacing:0px;writing-mode:lr-tb;text-anchor:middle;fill:#000000;fill-opacity:1;stroke:none;font-family:Sans;-inkscape-font-specification:Sans"
       x="618.08197"
       y="335.90848"
       id="text4045"
       sodipodi:linespacing="125%"><tspan
         sodipodi:role="line"
         id="tspan4047"
         x="618.08197"
         y="335.90848">Couteau de chef</tspan></text>
    <text
       xml:space="preserve"
       style="font-size:14px;font-style:normal;font-variant:normal;font-weight:normal;font-stretch:normal;text-align:center;line-height:125%;letter-spacing:0px;word-spacing:0px;writing-mode:lr-tb;text-anchor:middle;fill:#000000;fill-opacity:1;stroke:none;font-family:Sans;-inkscape-font-specification:Sans"
       x="629.73041"
       y="446.60693"
       id="text4049"
       sodipodi:linespacing="125%"><tspan
         sodipodi:role="line"
         id="tspan4051"
         x="629.73041"
         y="446.60693">Couteau à désosser</tspan></text>
    <text
       xml:space="preserve"
       style="font-size:14px;font-style:normal;font-variant:normal;font-weight:normal;font-stretch:normal;text-align:center;line-height:125%;letter-spacing:0px;word-spacing:0px;writing-mode:lr-tb;text-anchor:middle;fill:#000000;fill-opacity:1;stroke:none;font-family:Sans;-inkscape-font-specification:Sans"
       x="629.18353"
       y="666.67389"
       id="text4053"
       sodipodi:linespacing="125%"><tspan
         sodipodi:role="line"
         id="tspan4055"
         x="629.18353"
         y="666.67389">Couteau à éplucher</tspan></text>
    <text
       xml:space="preserve"
       style="font-size:14px;font-style:normal;font-variant:normal;font-weight:normal;font-stretch:normal;text-align:center;line-height:125%;letter-spacing:0px;word-spacing:0px;writing-mode:lr-tb;text-anchor:middle;fill:#000000;fill-opacity:1;stroke:none;font-family:Sans;-inkscape-font-specification:Sans"
       x="622.12885"
       y="557.36145"
       id="text4057"
       sodipodi:linespacing="125%"><tspan
         sodipodi:role="line"
         id="tspan4059"
         x="622.12885"
         y="557.36145">Couteau à viande</tspan></text>
    <text
       xml:space="preserve"
       style="font-size:14px;font-style:normal;font-variant:normal;font-weight:normal;font-stretch:normal;text-align:center;line-height:125%;letter-spacing:0px;word-spacing:0px;writing-mode:lr-tb;text-anchor:middle;fill:#000000;fill-opacity:1;stroke:none;font-family:Sans;-inkscape-font-specification:Sans"
       x="633.59955"
       y="777.42834"
       id="text4061"
       sodipodi:linespacing="125%"><tspan
         sodipodi:role="line"
         id="tspan4063"
         x="633.59955"
         y="777.42834">Couteau multi-usage</tspan></text>
  </g>
</svg>
