<?xml version="1.0" encoding="UTF-8" standalone="no"?>
<!-- Created with Inkscape (http://www.inkscape.org/) -->

<svg
   xmlns:dc="http://purl.org/dc/elements/1.1/"
   xmlns:cc="http://creativecommons.org/ns#"
   xmlns:rdf="http://www.w3.org/1999/02/22-rdf-syntax-ns#"
   xmlns:svg="http://www.w3.org/2000/svg"
   xmlns="http://www.w3.org/2000/svg"
   xmlns:xlink="http://www.w3.org/1999/xlink"
   xmlns:sodipodi="http://sodipodi.sourceforge.net/DTD/sodipodi-0.dtd"
   xmlns:inkscape="http://www.inkscape.org/namespaces/inkscape"
   width="498.15048"
   height="359.22864"
   id="svg2"
   version="1.1"
   inkscape:version="0.48.4 r9939"
   sodipodi:docname="couverture.svg">
  <defs
     id="defs4" />
  <sodipodi:namedview
     id="base"
     pagecolor="#ffffff"
     bordercolor="#666666"
     borderopacity="1.0"
     inkscape:pageopacity="0.0"
     inkscape:pageshadow="2"
     inkscape:zoom="0.9899495"
     inkscape:cx="189.54717"
     inkscape:cy="49.145676"
     inkscape:document-units="px"
     inkscape:current-layer="layer1"
     showgrid="false"
     inkscape:window-width="1615"
     inkscape:window-height="1026"
     inkscape:window-x="65"
     inkscape:window-y="24"
     inkscape:window-maximized="1"
     inkscape:object-paths="true"
     inkscape:object-nodes="true"
     inkscape:snap-global="true"
     inkscape:snap-midpoints="true"
     inkscape:snap-smooth-nodes="true"
     fit-margin-top="0"
     fit-margin-left="0"
     fit-margin-right="0"
     fit-margin-bottom="0" />
  <metadata
     id="metadata7">
    <rdf:RDF>
      <cc:Work
         rdf:about="">
        <dc:format>image/svg+xml</dc:format>
        <dc:type
           rdf:resource="http://purl.org/dc/dcmitype/StillImage" />
        <dc:title />
      </cc:Work>
    </rdf:RDF>
  </metadata>
  <g
     inkscape:label="Calque 1"
     inkscape:groupmode="layer"
     id="layer1"
     transform="translate(-74.819074,-156.69845)">
    <g
       id="g16290"
       transform="matrix(1.1206197,0,0,1.1206197,654.66973,-649.9026)">
      <path
         id="rect15495"
         d="m -460.4375,720.03125 c -6.42673,0 -12.27246,3.03882 -16.71875,8 -10.31156,-4.55088 -21.51758,-3.60743 -28.5625,3.4375 -7.04497,7.04496 -7.98846,18.25089 -3.4375,28.5625 -4.98075,4.44984 -8.03125,10.30907 -8.03125,16.75 0,8.55762 5.36322,16.11248 13.53125,20.65625 -8.17364,4.54317 -13.53125,12.09516 -13.53125,20.65625 0,8.55762 5.36322,16.11248 13.53125,20.65625 -8.17364,4.54317 -13.53125,12.09516 -13.53125,20.65625 0,8.55762 5.36322,16.11248 13.53125,20.65625 -8.17364,4.54317 -13.53125,12.09516 -13.53125,20.65625 0,8.55762 5.36322,16.11248 13.53125,20.65625 -8.17364,4.54317 -13.53125,12.09516 -13.53125,20.65625 0,8.55762 5.36322,16.11248 13.53125,20.65625 -8.17364,4.54317 -13.53125,12.09516 -13.53125,20.65625 0,6.43475 3.02776,12.33296 8,16.78125 -4.53445,10.3026 -3.56875,21.4938 3.46875,28.5312 7.0364,7.0365 18.22999,8.0008 28.53125,3.4688 4.44766,4.9687 10.31782,7.9688 16.75,7.9688 8.55186,0 16.11148,-5.3413 20.65625,-13.5 4.54422,8.1639 12.10118,13.5 20.65625,13.5 8.5647,0 16.14496,-5.3518 20.6875,-13.5313 4.54336,8.1719 12.09624,13.5313 20.65625,13.5313 8.55507,0 16.11203,-5.3361 20.65625,-13.5 4.54477,8.1587 12.10439,13.5 20.65625,13.5 8.55507,0 16.11203,-5.3361 20.65625,-13.5 4.54477,8.1587 12.10439,13.5 20.65625,13.5 8.55507,0 16.11203,-5.3361 20.65625,-13.5 4.54477,8.1587 12.10439,13.5 20.65625,13.5 8.55507,0 16.11203,-5.3361 20.65625,-13.5 4.54477,8.1587 12.10439,13.5 20.65625,13.5 8.56341,0 16.11349,-5.3539 20.65625,-13.5313 4.54276,8.1774 12.09284,13.5313 20.65625,13.5313 8.56341,0 16.11349,-5.3539 20.65625,-13.5313 4.54276,8.1774 12.09284,13.5313 20.65625,13.5313 6.43965,0 12.30048,-3.0211 16.75,-8 10.30973,4.5474 21.51909,3.6058 28.5625,-3.4376 7.043411,-7.0434 7.98502,-18.2527 3.4375,-28.5624 4.96291,-4.44666 8,-10.32207 8,-16.75005 0,-8.55507 -5.336079,-16.11203 -13.5,-20.65625 8.158727,-4.54477 13.5,-12.10439 13.5,-20.65625 0,-8.55507 -5.336079,-16.11203 -13.5,-20.65625 8.158727,-4.54477 13.5,-12.10439 13.5,-20.65625 0,-8.55507 -5.336079,-16.11203 -13.5,-20.65625 8.158727,-4.54477 13.5,-12.10439 13.5,-20.65625 0,-8.55507 -5.336079,-16.11203 -13.5,-20.65625 8.158727,-4.54477 13.5,-12.10439 13.5,-20.65625 0,-8.55507 -5.336079,-16.11203 -13.5,-20.65625 8.158727,-4.54477 13.5,-12.10439 13.5,-20.65625 0,-6.43348 -3.029521,-12.30202 -8,-16.75 4.54497,-10.30834 3.604762,-21.52025 -3.4375,-28.5625 -7.043403,-7.04341 -18.25277,-7.98502 -28.5625,-3.4375 -4.44798,-4.97048 -10.31652,-8 -16.75,-8 -8.56109,0 -16.11308,5.35761 -20.65625,13.53125 -4.54317,-8.17364 -12.09516,-13.53125 -20.65625,-13.53125 -8.56109,0 -16.11308,5.35761 -20.65625,13.53125 -4.54317,-8.17364 -12.09516,-13.53125 -20.65625,-13.53125 -8.55762,0 -16.11248,5.36322 -20.65625,13.53125 -4.54317,-8.17364 -12.09516,-13.53125 -20.65625,-13.53125 -8.55762,0 -16.11248,5.36322 -20.65625,13.53125 -4.54317,-8.17364 -12.09516,-13.53125 -20.65625,-13.53125 -8.55762,0 -16.11248,5.36322 -20.65625,13.53125 -4.54317,-8.17364 -12.09516,-13.53125 -20.65625,-13.53125 -8.55762,0 -16.11248,5.36322 -20.65625,13.53125 -4.54317,-8.17364 -12.09516,-13.53125 -20.65625,-13.53125 -8.55762,0 -16.11248,5.36322 -20.65625,13.53125 -4.54293,-8.17589 -12.12501,-13.53125 -20.6875,-13.53125 -8.56109,0 -16.11308,5.35761 -20.65625,13.53125 -4.54377,-8.16803 -12.09863,-13.53125 -20.65625,-13.53125 z"
         style="fill:#ffffff;stroke:#000000;stroke-width:0.5;stroke-linejoin:round;stroke-miterlimit:4;stroke-dasharray:none"
         inkscape:connector-curvature="0" />
      <path
         d="m -93.36388,1023.4519 c -1.65621,-1.6562 -2.2034,-3.7942 -1.22219,-4.7754 0.98122,-0.9813 3.11928,-0.4341 4.77549,1.2221 1.65621,1.6562 2.2034,3.7943 1.22218,4.7755 -0.98121,0.9812 -3.11926,0.434 -4.77548,-1.2222 z m -7.12088,3.326 c -0.37776,-1.4222 -0.003,-2.7591 0.83602,-2.986 0.83949,-0.2269 1.82628,0.7421 2.20398,2.1644 0.37775,1.4222 0.003,2.7591 -0.83602,2.986 -0.83949,0.2269 -1.82628,-0.7421 -2.20398,-2.1644 z m 14.00015,-14.0001 c -1.42222,-0.3778 -2.75909,0 -2.98599,0.836 -0.2269,0.8395 0.74209,1.8263 2.16438,2.204 1.42221,0.3777 2.75909,0 2.98599,-0.8361 0.2269,-0.8395 -0.7421,-1.8262 -2.16439,-2.2039 z m -414.034,7.1208 c 1.65621,-1.6562 3.79427,-2.2034 4.77549,-1.2222 0.98121,0.9813 0.43402,3.1193 -1.22216,4.7755 -1.65623,1.6562 -3.79427,2.2034 -4.7755,1.2222 -0.98121,-0.9812 -0.43402,-3.1193 1.22217,-4.7755 z m -3.32596,-7.1209 c 1.42221,-0.3777 2.75908,0 2.98599,0.8361 0.2269,0.8395 -0.7421,1.8263 -2.16438,2.204 -1.42222,0.3777 -2.75909,0 -2.986,-0.8361 -0.22689,-0.8395 0.7421,-1.8263 2.16439,-2.204 z m 14.00015,14.0002 c 0.37775,-1.4222 0.003,-2.7591 -0.83605,-2.986 -0.8395,-0.2269 -1.82627,0.7421 -2.20398,2.1644 -0.37776,1.4222 -0.003,2.7591 0.83604,2.986 0.8395,0.2269 1.82628,-0.7421 2.20398,-2.1644 z m -17.44541,-45.9316 c 2.34223,0 4.24099,1.12491 4.241,2.51256 -10e-6,1.38765 -1.89877,2.51256 -4.24098,2.51258 -2.34225,-10e-6 -4.241,-1.12491 -4.241,-2.51257 0,-1.38764 1.89875,-2.51255 4.24098,-2.51257 z m 2.68341,-7.38704 c 1.27277,0.73854 1.95341,1.94853 1.52026,2.70258 -0.43317,0.75405 -1.81612,0.76662 -3.0889,0.028 -1.27277,-0.73855 -1.95341,-1.94854 -1.52026,-2.70258 0.43317,-0.75405 1.81611,-0.76663 3.0889,-0.028 z m 0,19.79921 c 1.27277,-0.73855 1.95341,-1.94854 1.52024,-2.70259 -0.43317,-0.75406 -1.81611,-0.76663 -3.0889,-0.028 -1.27277,0.73854 -1.95341,1.94853 -1.52024,2.70258 0.43317,0.75406 1.81611,0.76663 3.0889,0.028 z m -2.68341,-53.72741 c 2.34223,0 4.24099,1.12491 4.241,2.51256 -10e-6,1.38765 -1.89877,2.51256 -4.24098,2.51258 -2.34225,-10e-6 -4.241,-1.12491 -4.241,-2.51257 0,-1.38764 1.89875,-2.51255 4.24098,-2.51257 z m 2.68341,-7.38704 c 1.27277,0.73854 1.95341,1.94853 1.52026,2.70258 -0.43317,0.75405 -1.81612,0.76662 -3.0889,0.028 -1.27277,-0.73855 -1.95341,-1.94854 -1.52026,-2.70258 0.43317,-0.75405 1.81611,-0.76663 3.0889,-0.028 z m 0,19.79921 c 1.27277,-0.73855 1.95341,-1.94854 1.52024,-2.70259 -0.43317,-0.75406 -1.81611,-0.76663 -3.0889,-0.028 -1.27277,0.73854 -1.95341,1.94853 -1.52024,2.70258 0.43317,0.75406 1.81611,0.76663 3.0889,0.028 z m -2.68341,-53.7274 c 2.34223,0 4.24099,1.12491 4.241,2.51256 -10e-6,1.38765 -1.89877,2.51256 -4.24098,2.51258 -2.34225,-10e-6 -4.241,-1.12491 -4.241,-2.51257 0,-1.38764 1.89875,-2.51255 4.24098,-2.51257 z m 2.68341,-7.38704 c 1.27277,0.73854 1.95341,1.94853 1.52026,2.70258 -0.43317,0.75405 -1.81612,0.76662 -3.0889,0.028 -1.27277,-0.73855 -1.95341,-1.94854 -1.52026,-2.70258 0.43317,-0.75405 1.81611,-0.76663 3.0889,-0.028 z m 0,19.79921 c 1.27277,-0.73855 1.95341,-1.94854 1.52024,-2.70259 -0.43317,-0.75406 -1.81611,-0.76663 -3.0889,-0.028 -1.27277,0.73854 -1.95341,1.94853 -1.52024,2.70258 0.43317,0.75406 1.81611,0.76663 3.0889,0.028 z m -2.68341,-53.72741 c 2.34223,0 4.24099,1.12491 4.241,2.51256 -10e-6,1.38765 -1.89877,2.51256 -4.24098,2.51258 -2.34225,-1e-5 -4.241,-1.12491 -4.241,-2.51257 0,-1.38764 1.89875,-2.51255 4.24098,-2.51257 z m 2.68341,-7.38704 c 1.27277,0.73854 1.95341,1.94853 1.52026,2.70258 -0.43317,0.75405 -1.81612,0.76662 -3.0889,0.028 -1.27277,-0.73855 -1.95341,-1.94854 -1.52026,-2.70258 0.43317,-0.75405 1.81611,-0.76663 3.0889,-0.028 z m 0,19.79921 c 1.27277,-0.73855 1.95341,-1.94854 1.52024,-2.70259 -0.43317,-0.75406 -1.81611,-0.76663 -3.0889,-0.028 -1.27277,0.73854 -1.95341,1.94853 -1.52024,2.70258 0.43317,0.75406 1.81611,0.76663 3.0889,0.028 z m -2.68341,-53.72741 c 2.34223,0 4.24099,1.12491 4.241,2.51256 -10e-6,1.38765 -1.89877,2.51256 -4.24098,2.51258 -2.34225,-10e-6 -4.241,-1.12491 -4.241,-2.51257 0,-1.38764 1.89875,-2.51255 4.24098,-2.51257 z m 2.68341,-7.38704 c 1.27277,0.73854 1.95341,1.94853 1.52026,2.70258 -0.43317,0.75405 -1.81612,0.76662 -3.0889,0.028 -1.27277,-0.73855 -1.95341,-1.94854 -1.52026,-2.70258 0.43317,-0.75405 1.81611,-0.76663 3.0889,-0.028 z m 0,19.79921 c 1.27277,-0.73855 1.95341,-1.94854 1.52024,-2.70259 -0.43317,-0.75406 -1.81611,-0.76663 -3.0889,-0.028 -1.27277,0.73854 -1.95341,1.94853 -1.52024,2.70258 0.43317,0.75406 1.81611,0.76663 3.0889,0.028 z m -2.68341,-53.72742 c 2.34223,0 4.24099,1.12491 4.241,2.51256 -10e-6,1.38765 -1.89877,2.51256 -4.24098,2.51258 -2.34225,-1e-5 -4.241,-1.12491 -4.241,-2.51257 0,-1.38764 1.89875,-2.51255 4.24098,-2.51257 z m 2.68341,-7.38704 c 1.27277,0.73854 1.95341,1.94853 1.52026,2.70258 -0.43317,0.75405 -1.81612,0.76662 -3.0889,0.028 -1.27277,-0.73855 -1.95341,-1.94854 -1.52026,-2.70258 0.43317,-0.75405 1.81611,-0.76663 3.0889,-0.028 z m 0,19.79921 c 1.27277,-0.73855 1.95341,-1.94854 1.52024,-2.70259 -0.43317,-0.75406 -1.81611,-0.76663 -3.0889,-0.028 -1.27277,0.73854 -1.95341,1.94853 -1.52024,2.70258 0.43317,0.75406 1.81611,0.76663 3.0889,0.028 z m 421.56707,-7.38699 c -2.34223,0 -4.24099,-1.12491 -4.241,-2.51256 1e-5,-1.38765 1.89877,-2.51256 4.24098,-2.51258 2.34225,10e-6 4.241,1.12491 4.241,2.51257 0,1.38764 -1.89875,2.51255 -4.24098,2.51257 z m -2.68341,7.38704 c -1.27277,-0.73854 -1.95341,-1.94853 -1.52026,-2.70258 0.43317,-0.75405 1.81612,-0.76662 3.0889,-0.028 1.27277,0.73855 1.95341,1.94854 1.52026,2.70258 -0.43317,0.75405 -1.81611,0.76663 -3.0889,0.028 z m 0,-19.79921 c -1.27277,0.73855 -1.95341,1.94854 -1.52024,2.70259 0.43317,0.75406 1.81611,0.76663 3.0889,0.028 1.27277,-0.73854 1.95341,-1.94853 1.52024,-2.70258 -0.43317,-0.75406 -1.81611,-0.76663 -3.0889,-0.028 z m -41.66829,-36.96471 c 0,2.34223 -1.12491,4.24099 -2.51256,4.241 -1.38765,-10e-6 -2.51256,-1.89877 -2.51258,-4.24098 1e-5,-2.34225 1.12491,-4.241 2.51257,-4.241 1.38764,0 2.51255,1.89875 2.51257,4.24098 z m 7.38704,2.68341 c -0.73854,1.27277 -1.94853,1.95341 -2.70258,1.52026 -0.75405,-0.43317 -0.76662,-1.81612 -0.028,-3.0889 0.73855,-1.27277 1.94854,-1.95341 2.70258,-1.52026 0.75405,0.43317 0.76663,1.81611 0.028,3.0889 z m -19.79921,0 c 0.73855,1.27277 1.94854,1.95341 2.70259,1.52024 0.75406,-0.43317 0.76663,-1.81611 0.028,-3.0889 -0.73854,-1.27277 -1.94853,-1.95341 -2.70258,-1.52024 -0.75406,0.43317 -0.76663,1.81611 -0.028,3.0889 z m 56.76387,88.00867 c -2.34223,0 -4.24099,-1.12491 -4.241,-2.51256 1e-5,-1.38765 1.89877,-2.51256 4.24098,-2.51258 2.34225,10e-6 4.241,1.12491 4.241,2.51257 0,1.38764 -1.89875,2.51255 -4.24098,2.51257 z m -2.68341,7.38704 c -1.27277,-0.73854 -1.95341,-1.94853 -1.52026,-2.70258 0.43317,-0.75405 1.81612,-0.76662 3.0889,-0.028 1.27277,0.73855 1.95341,1.94854 1.52026,2.70258 -0.43317,0.75405 -1.81611,0.76663 -3.0889,0.028 z m 0,-19.79921 c -1.27277,0.73855 -1.95341,1.94854 -1.52024,2.70259 0.43317,0.75406 1.81611,0.76663 3.0889,0.028 1.27277,-0.73854 1.95341,-1.94853 1.52024,-2.70258 -0.43317,-0.75406 -1.81611,-0.76663 -3.0889,-0.028 z m 2.68341,53.72747 c -2.34223,0 -4.24099,-1.12491 -4.241,-2.51256 1e-5,-1.38765 1.89877,-2.51256 4.24098,-2.51258 2.34225,1e-5 4.241,1.12491 4.241,2.51257 0,1.38764 -1.89875,2.51255 -4.24098,2.51257 z m -2.68341,7.38704 c -1.27277,-0.73854 -1.95341,-1.94853 -1.52026,-2.70258 0.43317,-0.75405 1.81612,-0.76662 3.0889,-0.028 1.27277,0.73855 1.95341,1.94854 1.52026,2.70258 -0.43317,0.75405 -1.81611,0.76663 -3.0889,0.028 z m 0,-19.79921 c -1.27277,0.73855 -1.95341,1.94854 -1.52024,2.70259 0.43317,0.75406 1.81611,0.76663 3.0889,0.028 1.27277,-0.73854 1.95341,-1.94853 1.52024,-2.70258 -0.43317,-0.75406 -1.81611,-0.76663 -3.0889,-0.028 z m 2.68341,53.72737 c -2.34223,0 -4.24099,-1.12491 -4.241,-2.51256 1e-5,-1.38765 1.89877,-2.51256 4.24098,-2.51258 2.34225,1e-5 4.241,1.12491 4.241,2.51257 0,1.38764 -1.89875,2.51255 -4.24098,2.51257 z m -2.68341,7.38704 c -1.27277,-0.73854 -1.95341,-1.94853 -1.52026,-2.70258 0.43317,-0.75405 1.81612,-0.76662 3.0889,-0.028 1.27277,0.73855 1.95341,1.94854 1.52026,2.70258 -0.43317,0.75405 -1.81611,0.76663 -3.0889,0.028 z m 0,-19.79921 c -1.27277,0.73855 -1.95341,1.94854 -1.52024,2.70259 0.43317,0.75406 1.81611,0.76663 3.0889,0.028 1.27277,-0.73854 1.95341,-1.94853 1.52024,-2.70258 -0.43317,-0.75406 -1.81611,-0.76663 -3.0889,-0.028 z m 2.68341,53.72737 c -2.34223,0 -4.24099,-1.12491 -4.241,-2.51256 1e-5,-1.38765 1.89877,-2.51256 4.24098,-2.51258 2.34225,1e-5 4.241,1.12491 4.241,2.51257 0,1.38764 -1.89875,2.51255 -4.24098,2.51257 z m -2.68341,7.38704 c -1.27277,-0.73854 -1.95341,-1.94853 -1.52026,-2.70258 0.43317,-0.75405 1.81612,-0.76662 3.0889,-0.028 1.27277,0.73855 1.95341,1.94854 1.52026,2.70258 -0.43317,0.75405 -1.81611,0.76663 -3.0889,0.028 z m 0,-19.79921 c -1.27277,0.73855 -1.95341,1.94854 -1.52024,2.70259 0.43317,0.75406 1.81611,0.76663 3.0889,0.028 1.27277,-0.73854 1.95341,-1.94853 1.52024,-2.70258 -0.43317,-0.75406 -1.81611,-0.76663 -3.0889,-0.028 z m 2.68341,53.72747 c -2.34223,0 -4.24099,-1.12491 -4.241,-2.51256 1e-5,-1.38765 1.89877,-2.51256 4.24098,-2.51258 2.34225,10e-6 4.241,1.12491 4.241,2.51257 0,1.38764 -1.89875,2.51255 -4.24098,2.51257 z m -2.68341,7.38704 c -1.27277,-0.73854 -1.95341,-1.94853 -1.52026,-2.70258 0.43317,-0.75405 1.81612,-0.76662 3.0889,-0.028 1.27277,0.73855 1.95341,1.94854 1.52026,2.70258 -0.43317,0.75405 -1.81611,0.76663 -3.0889,0.028 z m 0,-19.79921 c -1.27277,0.73855 -1.95341,1.94854 -1.52024,2.70259 0.43317,0.75406 1.81611,0.76663 3.0889,0.028 1.27277,-0.73854 1.95341,-1.94853 1.52024,-2.70258 -0.43317,-0.75406 -1.81611,-0.76663 -3.0889,-0.028 z m -46.69345,56.76389 c 0,-2.3423 1.12491,-4.241 2.51256,-4.241 1.38765,0 2.51256,1.8987 2.51258,4.2409 -1e-5,2.3423 -1.12491,4.241 -2.51257,4.241 -1.38764,0 -2.51255,-1.8987 -2.51257,-4.2409 z m -7.38704,-2.6834 c 0.73854,-1.2728 1.94853,-1.9535 2.70258,-1.5203 0.75405,0.4332 0.76662,1.8161 0.028,3.0889 -0.73855,1.2728 -1.94854,1.9534 -2.70258,1.5202 -0.75405,-0.4331 -0.76663,-1.8161 -0.028,-3.0888 z m 19.79921,0 c -0.73855,-1.2728 -1.94854,-1.9535 -2.70259,-1.5203 -0.75406,0.4332 -0.76663,1.8161 -0.028,3.0889 0.73854,1.2728 1.94853,1.9534 2.70258,1.5202 0.75406,-0.4331 0.76663,-1.8161 0.028,-3.0888 z m -53.72741,2.6834 c 0,-2.3423 1.12491,-4.241 2.51256,-4.241 1.38765,0 2.51256,1.8987 2.51258,4.2409 -1e-5,2.3423 -1.12491,4.241 -2.51257,4.241 -1.38764,0 -2.51255,-1.8987 -2.51257,-4.2409 z m -7.38704,-2.6834 c 0.73854,-1.2728 1.94853,-1.9535 2.70258,-1.5203 0.75405,0.4332 0.76662,1.8161 0.028,3.0889 -0.73855,1.2728 -1.94854,1.9534 -2.70258,1.5202 -0.75405,-0.4331 -0.76663,-1.8161 -0.028,-3.0888 z m 19.79921,0 c -0.73855,-1.2728 -1.94854,-1.9535 -2.70259,-1.5203 -0.75406,0.4332 -0.76663,1.8161 -0.028,3.0889 0.73854,1.2728 1.94853,1.9534 2.70258,1.5202 0.75406,-0.4331 0.76663,-1.8161 0.028,-3.0888 z m -53.7274,2.6834 c 0,-2.3423 1.12491,-4.241 2.51256,-4.241 1.38765,0 2.51256,1.8987 2.51258,4.2409 -1e-5,2.3423 -1.12491,4.241 -2.51257,4.241 -1.38764,0 -2.51255,-1.8987 -2.51257,-4.2409 z m -7.38704,-2.6834 c 0.73854,-1.2728 1.94853,-1.9535 2.70258,-1.5203 0.75405,0.4332 0.76662,1.8161 0.028,3.0889 -0.73855,1.2728 -1.94854,1.9534 -2.70258,1.5202 -0.75405,-0.4331 -0.76663,-1.8161 -0.028,-3.0888 z m 19.79921,0 c -0.73855,-1.2728 -1.94854,-1.9535 -2.70259,-1.5203 -0.75406,0.4332 -0.76663,1.8161 -0.028,3.0889 0.73854,1.2728 1.94853,1.9534 2.70258,1.5202 0.75406,-0.4331 0.76663,-1.8161 0.028,-3.0888 z m -53.72742,2.6834 c 0,-2.3423 1.12491,-4.241 2.51256,-4.241 1.38765,0 2.51256,1.8987 2.51258,4.2409 -1e-5,2.3423 -1.12491,4.241 -2.51257,4.241 -1.38764,0 -2.51255,-1.8987 -2.51257,-4.2409 z m -7.38704,-2.6834 c 0.73854,-1.2728 1.94853,-1.9535 2.70258,-1.5203 0.75405,0.4332 0.76662,1.8161 0.028,3.0889 -0.73855,1.2728 -1.94854,1.9534 -2.70258,1.5202 -0.75405,-0.4331 -0.76663,-1.8161 -0.028,-3.0888 z m 19.79921,0 c -0.73855,-1.2728 -1.94854,-1.9535 -2.70259,-1.5203 -0.75406,0.4332 -0.76663,1.8161 -0.028,3.0889 0.73854,1.2728 1.94853,1.9534 2.70258,1.5202 0.75406,-0.4331 0.76663,-1.8161 0.028,-3.0888 z m -53.72741,2.6834 c 0,-2.3423 1.12491,-4.241 2.51256,-4.241 1.38765,0 2.51256,1.8987 2.51258,4.2409 -10e-6,2.3423 -1.12491,4.241 -2.51257,4.241 -1.38764,0 -2.51255,-1.8987 -2.51257,-4.2409 z m -7.38704,-2.6834 c 0.73854,-1.2728 1.94853,-1.9535 2.70258,-1.5203 0.75405,0.4332 0.76662,1.8161 0.028,3.0889 -0.73855,1.2728 -1.94854,1.9534 -2.70258,1.5202 -0.75405,-0.4331 -0.76663,-1.8161 -0.028,-3.0888 z m 19.79921,0 c -0.73855,-1.2728 -1.94854,-1.9535 -2.70259,-1.5203 -0.75406,0.4332 -0.76663,1.8161 -0.028,3.0889 0.73854,1.2728 1.94853,1.9534 2.70258,1.5202 0.75406,-0.4331 0.76663,-1.8161 0.028,-3.0888 z m -53.7274,2.6834 c 0,-2.3423 1.12491,-4.241 2.51256,-4.241 1.38765,0 2.51256,1.8987 2.51258,4.2409 -10e-6,2.3423 -1.12491,4.241 -2.51257,4.241 -1.38764,0 -2.51255,-1.8987 -2.51257,-4.2409 z m -7.38704,-2.6834 c 0.73854,-1.2728 1.94853,-1.9535 2.70258,-1.5203 0.75405,0.4332 0.76662,1.8161 0.028,3.0889 -0.73855,1.2728 -1.94854,1.9534 -2.70258,1.5202 -0.75405,-0.4331 -0.76663,-1.8161 -0.028,-3.0888 z m 19.79921,0 c -0.73855,-1.2728 -1.94854,-1.9535 -2.70259,-1.5203 -0.75406,0.4332 -0.76663,1.8161 -0.028,3.0889 0.73854,1.2728 1.94853,1.9534 2.70258,1.5202 0.75406,-0.4331 0.76663,-1.8161 0.028,-3.0888 z m -53.72741,2.6834 c 0,-2.3423 1.12491,-4.241 2.51256,-4.241 1.38765,0 2.51256,1.8987 2.51258,4.2409 -10e-6,2.3423 -1.12491,4.241 -2.51257,4.241 -1.38764,0 -2.51255,-1.8987 -2.51257,-4.2409 z m -7.38704,-2.6834 c 0.73854,-1.2728 1.94853,-1.9535 2.70258,-1.5203 0.75405,0.4332 0.76662,1.8161 0.028,3.0889 -0.73855,1.2728 -1.94854,1.9534 -2.70258,1.5202 -0.75405,-0.4331 -0.76663,-1.8161 -0.028,-3.0888 z m 19.79921,0 c -0.73855,-1.2728 -1.94854,-1.9535 -2.70259,-1.5203 -0.75406,0.4332 -0.76663,1.8161 -0.028,3.0889 0.73854,1.2728 1.94853,1.9534 2.70258,1.5202 0.75406,-0.4331 0.76663,-1.8161 0.028,-3.0888 z m -53.72741,2.6834 c 0,-2.3423 1.12491,-4.241 2.51256,-4.241 1.38765,0 2.51256,1.8987 2.51258,4.2409 -1e-5,2.3423 -1.12491,4.241 -2.51257,4.241 -1.38764,0 -2.51255,-1.8987 -2.51257,-4.2409 z m -7.38704,-2.6834 c 0.73854,-1.2728 1.94853,-1.9535 2.70258,-1.5203 0.75405,0.4332 0.76662,1.8161 0.028,3.0889 -0.73855,1.2728 -1.94854,1.9534 -2.70258,1.5202 -0.75405,-0.4331 -0.76663,-1.8161 -0.028,-3.0888 z m 19.79921,0 c -0.73855,-1.2728 -1.94854,-1.9535 -2.70259,-1.5203 -0.75406,0.4332 -0.76663,1.8161 -0.028,3.0889 0.73854,1.2728 1.94853,1.9534 2.70258,1.5202 0.75406,-0.4331 0.76663,-1.8161 0.028,-3.0888 z m -53.72742,2.6834 c 0,-2.3423 1.12491,-4.241 2.51256,-4.241 1.38765,0 2.51256,1.8987 2.51258,4.2409 -1e-5,2.3423 -1.12491,4.241 -2.51257,4.241 -1.38764,0 -2.51255,-1.8987 -2.51257,-4.2409 z m -7.38704,-2.6834 c 0.73854,-1.2728 1.94853,-1.9535 2.70258,-1.5203 0.75405,0.4332 0.76662,1.8161 0.028,3.0889 -0.73855,1.2728 -1.94854,1.9534 -2.70258,1.5202 -0.75405,-0.4331 -0.76663,-1.8161 -0.028,-3.0888 z m 19.79921,0 c -0.73855,-1.2728 -1.94854,-1.9535 -2.70259,-1.5203 -0.75406,0.4332 -0.76663,1.8161 -0.028,3.0889 0.73854,1.2728 1.94853,1.9534 2.70258,1.5202 0.75406,-0.4331 0.76663,-1.8161 0.028,-3.0888 z m 33.92822,-297.6214 c 0,2.34223 -1.12491,4.24099 -2.51256,4.241 -1.38765,-10e-6 -2.51256,-1.89877 -2.51258,-4.24098 1e-5,-2.34225 1.12491,-4.241 2.51257,-4.241 1.38764,0 2.51255,1.89875 2.51257,4.24098 z m 7.38704,2.68341 c -0.73854,1.27277 -1.94853,1.95341 -2.70258,1.52026 -0.75405,-0.43317 -0.76662,-1.81612 -0.028,-3.0889 0.73855,-1.27277 1.94854,-1.95341 2.70258,-1.52026 0.75405,0.43317 0.76663,1.81611 0.028,3.0889 z m -19.79921,0 c 0.73855,1.27277 1.94854,1.95341 2.70259,1.52024 0.75406,-0.43317 0.76663,-1.81611 0.028,-3.0889 -0.73854,-1.27277 -1.94853,-1.95341 -2.70258,-1.52024 -0.75406,0.43317 -0.76663,1.81611 -0.028,3.0889 z m 53.7274,-2.68341 c 0,2.34223 -1.12491,4.24099 -2.51256,4.241 -1.38765,-10e-6 -2.51256,-1.89877 -2.51258,-4.24098 1e-5,-2.34225 1.12491,-4.241 2.51257,-4.241 1.38764,0 2.51255,1.89875 2.51257,4.24098 z m 7.38704,2.68341 c -0.73854,1.27277 -1.94853,1.95341 -2.70258,1.52026 -0.75405,-0.43317 -0.76662,-1.81612 -0.028,-3.0889 0.73855,-1.27277 1.94854,-1.95341 2.70258,-1.52026 0.75405,0.43317 0.76663,1.81611 0.028,3.0889 z m -19.79921,0 c 0.73855,1.27277 1.94854,1.95341 2.70259,1.52024 0.75406,-0.43317 0.76663,-1.81611 0.028,-3.0889 -0.73854,-1.27277 -1.94853,-1.95341 -2.70258,-1.52024 -0.75406,0.43317 -0.76663,1.81611 -0.028,3.0889 z m 53.72743,-2.68341 c 0,2.34223 -1.12491,4.24099 -2.51256,4.241 -1.38765,-10e-6 -2.51256,-1.89877 -2.51258,-4.24098 10e-6,-2.34225 1.12491,-4.241 2.51257,-4.241 1.38764,0 2.51255,1.89875 2.51257,4.24098 z m 7.38704,2.68341 c -0.73854,1.27277 -1.94853,1.95341 -2.70258,1.52026 -0.75405,-0.43317 -0.76662,-1.81612 -0.028,-3.0889 0.73855,-1.27277 1.94854,-1.95341 2.70258,-1.52026 0.75405,0.43317 0.76663,1.81611 0.028,3.0889 z m -19.79921,0 c 0.73855,1.27277 1.94854,1.95341 2.70259,1.52024 0.75406,-0.43317 0.76663,-1.81611 0.028,-3.0889 -0.73854,-1.27277 -1.94853,-1.95341 -2.70258,-1.52024 -0.75406,0.43317 -0.76663,1.81611 -0.028,3.0889 z m 53.72741,-2.68341 c 0,2.34223 -1.12491,4.24099 -2.51256,4.241 -1.38765,-10e-6 -2.51256,-1.89877 -2.51258,-4.24098 10e-6,-2.34225 1.12491,-4.241 2.51257,-4.241 1.38764,0 2.51255,1.89875 2.51257,4.24098 z m 7.38704,2.68341 c -0.73854,1.27277 -1.94853,1.95341 -2.70258,1.52026 -0.75405,-0.43317 -0.76662,-1.81612 -0.028,-3.0889 0.73855,-1.27277 1.94854,-1.95341 2.70258,-1.52026 0.75405,0.43317 0.76663,1.81611 0.028,3.0889 z m -19.79921,0 c 0.73855,1.27277 1.94854,1.95341 2.70259,1.52024 0.75406,-0.43317 0.76663,-1.81611 0.028,-3.0889 -0.73854,-1.27277 -1.94853,-1.95341 -2.70258,-1.52024 -0.75406,0.43317 -0.76663,1.81611 -0.028,3.0889 z m 53.7274,-2.68341 c 0,2.34223 -1.12491,4.24099 -2.51256,4.241 -1.38765,-10e-6 -2.51256,-1.89877 -2.51258,-4.24098 10e-6,-2.34225 1.12491,-4.241 2.51257,-4.241 1.38764,0 2.51255,1.89875 2.51257,4.24098 z m 7.38704,2.68341 c -0.73854,1.27277 -1.94853,1.95341 -2.70258,1.52026 -0.75405,-0.43317 -0.76662,-1.81612 -0.028,-3.0889 0.73855,-1.27277 1.94854,-1.95341 2.70258,-1.52026 0.75405,0.43317 0.76663,1.81611 0.028,3.0889 z m -19.79921,0 c 0.73855,1.27277 1.94854,1.95341 2.70259,1.52024 0.75406,-0.43317 0.76663,-1.81611 0.028,-3.0889 -0.73854,-1.27277 -1.94853,-1.95341 -2.70258,-1.52024 -0.75406,0.43317 -0.76663,1.81611 -0.028,3.0889 z m 53.72741,-2.68341 c 0,2.34223 -1.12491,4.24099 -2.51256,4.241 -1.38765,-10e-6 -2.51256,-1.89877 -2.51258,-4.24098 1e-5,-2.34225 1.12491,-4.241 2.51257,-4.241 1.38764,0 2.51255,1.89875 2.51257,4.24098 z m 7.38704,2.68341 c -0.73854,1.27277 -1.94853,1.95341 -2.70258,1.52026 -0.75405,-0.43317 -0.76662,-1.81612 -0.028,-3.0889 0.73855,-1.27277 1.94854,-1.95341 2.70258,-1.52026 0.75405,0.43317 0.76663,1.81611 0.028,3.0889 z m -19.79921,0 c 0.73855,1.27277 1.94854,1.95341 2.70259,1.52024 0.75406,-0.43317 0.76663,-1.81611 0.028,-3.0889 -0.73854,-1.27277 -1.94853,-1.95341 -2.70258,-1.52024 -0.75406,0.43317 -0.76663,1.81611 -0.028,3.0889 z m 53.72741,-2.68341 c 0,2.34223 -1.12491,4.24099 -2.51256,4.241 -1.38765,-10e-6 -2.51256,-1.89877 -2.51258,-4.24098 1e-5,-2.34225 1.12491,-4.241 2.51257,-4.241 1.38764,0 2.51255,1.89875 2.51257,4.24098 z m 7.38704,2.68341 c -0.73854,1.27277 -1.94853,1.95341 -2.70258,1.52026 -0.75405,-0.43317 -0.76662,-1.81612 -0.028,-3.0889 0.73855,-1.27277 1.94854,-1.95341 2.70258,-1.52026 0.75405,0.43317 0.76663,1.81611 0.028,3.0889 z m -19.79921,0 c 0.73855,1.27277 1.94854,1.95341 2.70259,1.52024 0.75406,-0.43317 0.76663,-1.81611 0.028,-3.0889 -0.73854,-1.27277 -1.94853,-1.95341 -2.70258,-1.52024 -0.75406,0.43317 -0.76663,1.81611 -0.028,3.0889 z m -276.79451,-2.68341 c 0,2.34223 -1.12491,4.24099 -2.51256,4.241 -1.38765,-10e-6 -2.51256,-1.89877 -2.51258,-4.24098 1e-5,-2.34225 1.12491,-4.241 2.51257,-4.241 1.38764,0 2.51255,1.89875 2.51257,4.24098 z m 7.38704,2.68341 c -0.73854,1.27277 -1.94853,1.95341 -2.70258,1.52026 -0.75405,-0.43317 -0.76662,-1.81612 -0.028,-3.0889 0.73855,-1.27277 1.94854,-1.95341 2.70258,-1.52026 0.75405,0.43317 0.76663,1.81611 0.028,3.0889 z m -19.79921,0 c 0.73855,1.27277 1.94854,1.95341 2.70259,1.52024 0.75406,-0.43317 0.76663,-1.81611 0.028,-3.0889 -0.73854,-1.27277 -1.94853,-1.95341 -2.70258,-1.52024 -0.75406,0.43317 -0.76663,1.81611 -0.028,3.0889 z m 380.51458,7.64113 c -1.65621,1.65621 -3.79427,2.2034 -4.77549,1.22219 -0.98121,-0.98122 -0.43402,-3.11928 1.22216,-4.77549 1.65623,-1.65621 3.79427,-2.2034 4.7755,-1.22218 0.98121,0.98121 0.43402,3.11926 -1.22217,4.77548 z m 3.32596,7.12088 c -1.42221,0.37776 -2.75908,0.003 -2.98599,-0.83602 -0.2269,-0.83949 0.7421,-1.82628 2.16438,-2.20398 1.42222,-0.37775 2.75909,-0.003 2.986,0.83602 0.22689,0.83949 -0.7421,1.82628 -2.16439,2.20398 z m -14.00015,-14.00015 c -0.37775,1.42222 -0.003,2.75909 0.83605,2.98599 0.8395,0.2269 1.82627,-0.74209 2.20398,-2.16438 0.37776,-1.42221 0.003,-2.75909 -0.83604,-2.98599 -0.8395,-0.2269 -1.82628,0.7421 -2.20398,2.16439 z m -396.48054,3.32594 c 1.65621,1.65621 2.2034,3.79427 1.22219,4.77549 -0.98122,0.98121 -3.11928,0.43402 -4.77549,-1.22216 -1.65621,-1.65623 -2.2034,-3.79427 -1.22218,-4.7755 0.98121,-0.98121 3.11926,-0.43402 4.77548,1.22217 z m 7.12088,-3.32596 c 0.37776,1.42221 0.003,2.75908 -0.83602,2.98599 -0.83949,0.2269 -1.82628,-0.7421 -2.20398,-2.16438 -0.37775,-1.42222 -0.003,-2.75909 0.83602,-2.986 0.83949,-0.22689 1.82628,0.7421 2.20398,2.16439 z m -14.00015,14.00015 c 1.42222,0.37775 2.75909,0.003 2.98599,-0.83605 0.2269,-0.8395 -0.74209,-1.82627 -2.16438,-2.20398 -1.42221,-0.37776 -2.75909,-0.003 -2.98599,0.83604 -0.2269,0.8395 0.7421,1.82628 2.16439,2.20398 z"
         style="fill:#ffffff;fill-rule:evenodd;stroke:#000000;stroke-width:0.5;stroke-miterlimit:4;stroke-dasharray:none"
         id="path15760"
         inkscape:connector-curvature="0" />
    </g>
    <rect
       style="fill:#000000;stroke:#ff0000;stroke-width:0.5;stroke-linejoin:round;stroke-miterlimit:4;stroke-dasharray:none"
       id="rect15432"
       width="602.14288"
       height="415.71429"
       x="-795"
       y="155.93362" />
    <path
       sodipodi:nodetypes="cccc"
       inkscape:connector-curvature="0"
       id="path14874"
       d="m 335.71621,409.86219 -16.4732,-39.41964 c 13.51046,2.84187 21.42164,16.39204 18.47798,29.17288 1.93577,-0.24674 6.6882,7.12993 -2.00478,10.24676 z"
       style="fill:none;stroke:#000000;stroke-width:0.5;stroke-linecap:butt;stroke-linejoin:miter;stroke-miterlimit:4;stroke-opacity:1;stroke-dasharray:none" />
    <path
       style="fill:none;stroke:#000000;stroke-width:0.5;stroke-linecap:butt;stroke-linejoin:miter;stroke-miterlimit:4;stroke-opacity:1;stroke-dasharray:none"
       d="m 289.64286,404.1479 14.01785,-27.58929 -3.08036,-7.45535 c -10.53703,-4.12769 -18.40411,23.45806 -10.93749,35.04464 z"
       id="path14872"
       inkscape:connector-curvature="0"
       sodipodi:nodetypes="cccc" />
    <path
       style="fill:none;stroke:#000000;stroke-width:0.5;stroke-linecap:butt;stroke-linejoin:miter;stroke-miterlimit:4;stroke-opacity:1;stroke-dasharray:none"
       d="m 227.66313,368.36264 c -14.04303,-53.97661 9.11934,-80.42146 24.99663,-80.42146 13.94815,0 19.7695,27.54924 -20.82975,81.30535 z"
       id="path3817"
       inkscape:connector-curvature="0"
       sodipodi:nodetypes="cscc" />
    <path
       sodipodi:nodetypes="cscc"
       inkscape:connector-curvature="0"
       id="path3819"
       d="m 228.30117,367.65031 c -10.50162,-53.35255 13.51187,-79.49166 25.38519,-79.49166 10.43067,0 8.09172,27.23073 -22.26912,80.36533 z"
       style="fill:none;stroke:#000000;stroke-width:0.5;stroke-linecap:butt;stroke-linejoin:miter;stroke-miterlimit:4;stroke-opacity:1;stroke-dasharray:none" />
    <path
       style="fill:none;stroke:#000000;stroke-width:0.5;stroke-linecap:butt;stroke-linejoin:miter;stroke-miterlimit:4;stroke-opacity:1;stroke-dasharray:none"
       d="m 228.65964,366.97729 c -8.46251,-53.38168 20.4847,-78.39864 25.50687,-78.77745 8.38152,-0.63219 1.46978,26.48799 -22.99585,79.6516 z"
       id="path3821"
       inkscape:connector-curvature="0"
       sodipodi:nodetypes="cscc" />
    <path
       sodipodi:nodetypes="cscc"
       inkscape:connector-curvature="0"
       id="path3823"
       d="m 229.68643,366.97729 c -0.4268,-50.79239 22.58279,-78.77745 24.48008,-78.77745 3.3894,0 -2.36951,25.41656 -23.79942,78.84803 z"
       style="fill:none;stroke:#000000;stroke-width:0.5;stroke-linecap:butt;stroke-linejoin:miter;stroke-miterlimit:4;stroke-opacity:1;stroke-dasharray:none" />
    <path
       style="fill:none;stroke:#000000;stroke-width:0.5;stroke-linecap:butt;stroke-linejoin:miter;stroke-miterlimit:4;stroke-opacity:1;stroke-dasharray:none"
       d="m 229.68643,366.97729 c 7.60891,-48.8281 22.64744,-79.2685 24.48008,-78.77745 1.5705,0.42081 -10.49451,27.11299 -23.79942,78.84803 z"
       id="path3825"
       inkscape:connector-curvature="0"
       sodipodi:nodetypes="cscc" />
    <path
       style="fill:#ffffff;stroke:#000000;stroke-width:0.5;stroke-linecap:butt;stroke-linejoin:miter;stroke-miterlimit:4;stroke-opacity:1;stroke-dasharray:none"
       d="m 190.50939,381.29702 c 5.06008,-0.0678 13.37342,9.79406 21.11757,9.79406 2.53574,0 4.16089,-8.76212 12.25444,-9.15637 4.10465,-0.19994 10.55748,1.533 10.97907,5.62083 0.50379,4.8849 -10.49164,11.24693 -13.8732,11.24693 -4.51773,0 -7.03773,-5.81736 -9.23404,-5.81736 -2.20092,0 -5.44077,8.45347 -15.78364,5.68211 -6.34044,-1.69891 -12.02372,-17.28219 -5.4602,-17.3702 z"
       id="path3043"
       inkscape:connector-curvature="0"
       sodipodi:nodetypes="ssssssss" />
    <path
       style="fill:#ffffff;stroke:#000000;stroke-width:0.5;stroke-linecap:butt;stroke-linejoin:miter;stroke-miterlimit:4;stroke-opacity:1;stroke-dasharray:none"
       d="m 168.82174,377.70655 c -9.84438,1.98766 -17.46527,9.73023 -21.59201,26.5165 0,0 -8.69409,6.56744 -8.83883,11.36422 -0.0831,2.75393 1.91819,6.72984 4.67195,6.81853 3.61367,0.11638 5.05077,-6.43972 5.05077,-6.43972 0,0 5.55584,1.92714 5.55584,-5.42957 0,-2.46611 -3.40927,-6.56599 -3.40927,-6.56599 4.62388,-11.0452 10.01112,-11.78496 15.27856,-14.14214 -8.50211,17.63558 -7.06366,40.15167 -13.8896,55.11645 -5.34188,1.50532 -9.17234,2.40929 -12.50064,10.29093 l 23.99113,0 c 0,0 2.14657,-1.25685 2.14657,-3.03046 0,-5.08985 -10.48033,-6.81853 -10.48033,-6.81853 -0.0315,-0.8217 -0.12421,-2.6421 0.44869,-3.24164 17.80692,-18.6349 32.88027,-8.8749 42.98787,5.89329 l 0.63134,2.14658 c -5.56455,2.76574 -5.30847,5.85485 -6.9448,8.83883 l 22.09709,0 c 2.61506,-6.0917 -3.45288,-7.16878 -12.46308,-9.53163 -0.46784,-0.12268 -0.76504,-1.76068 -0.80152,-2.7714 0,0 5.14682,-5.25883 5.1464,-13.89703 -0.001,-21.90923 -16.71052,-41.98105 -15.24158,-52.97065 z"
       id="path3095"
       inkscape:connector-curvature="0"
       sodipodi:nodetypes="ccsscscccccscsccccscscc" />
    <path
       style="fill:#ffffff;stroke:#000000;stroke-width:0.5;stroke-linecap:butt;stroke-linejoin:miter;stroke-miterlimit:4;stroke-opacity:1;stroke-dasharray:none"
       d="m 152.67857,349.32647 c 0.46315,14.97772 15.7476,32.34519 30.71429,31.60714 19.66763,-0.96987 30.71428,-19.04258 30.71428,-36.60714 0,-20.42118 -21.64761,-26.20373 -36.07143,-24.46429 -13.22158,1.59446 -25.76875,16.15327 -25.35714,29.46429 z"
       id="path3091"
       inkscape:connector-curvature="0"
       sodipodi:nodetypes="sssss" />
    <path
       style="fill:#000000;stroke:#000000;stroke-width:0.5;stroke-linecap:butt;stroke-linejoin:miter;stroke-miterlimit:4;stroke-opacity:1;stroke-dasharray:none"
       d="m 179.68088,324.54727 c 0.30444,9.05876 7.67593,11.54351 18.18275,11.11168 -10.21479,-4.32474 -7.26529,-9.95563 -5.23305,-15.18292 z"
       id="path3093"
       inkscape:connector-curvature="0"
       sodipodi:nodetypes="cccc" />
    <path
       style="fill:#ffffff;stroke:#000000;stroke-width:0.5;stroke-linecap:butt;stroke-linejoin:miter;stroke-miterlimit:4;stroke-opacity:1;stroke-dasharray:none"
       d="m 189.15106,284.89879 c 0,0 29.7995,-1.66315 29.7995,-21.97082 0,-9.7748 -6.64544,-15.15229 -13.38452,-15.15229 -19.3598,0 -30.47044,24.23281 -48.73986,25.25381 -7.74202,0.43267 -14.16449,-7.08376 -24.03971,-7.08376 -12.04795,0 -17.37654,15.33833 -17.37654,29.05458 0,20.90145 38.63833,11.11168 38.63833,11.11168 -0.71209,11.03509 -1.32806,22.08619 0.75762,33.58757 15.63004,-13.1106 32.32083,-15.6137 49.3712,-14.52094 -6.38353,-12.56733 -12.39353,-25.36811 -15.02602,-40.27983 z"
       id="path3070"
       inkscape:connector-curvature="0"
       sodipodi:nodetypes="cssssscccc" />
    <path
       style="fill:#808080;stroke:#000000;stroke-width:0.5;stroke-linecap:butt;stroke-linejoin:miter;stroke-miterlimit:4;stroke-opacity:1;stroke-dasharray:none"
       d="m 217.68228,412.82918 c -5.06138,0 4.05326,-39.82142 9.55357,-39.82142 5.50031,0 -2.62428,39.82142 -9.55357,39.82142 z"
       id="path3813"
       inkscape:connector-curvature="0"
       sodipodi:nodetypes="szs" />
    <path
       sodipodi:nodetypes="zzz"
       inkscape:connector-curvature="0"
       id="path3815"
       d="m 227.67857,377.71932 c -10.54891,0 -4.69674,-11.69642 1.60714,-11.69642 6.30388,0 8.94176,11.69642 -1.60714,11.69642 z"
       style="fill:#808080;stroke:#000000;stroke-width:0.5;stroke-linecap:butt;stroke-linejoin:miter;stroke-miterlimit:4;stroke-opacity:1;stroke-dasharray:none" />
    <path
       sodipodi:nodetypes="cssc"
       inkscape:connector-curvature="0"
       id="path3829"
       d="m 167.91989,411.1052 c -2.64275,5.37141 -2.51621,26.15871 -0.69775,26.15871 4.11403,0 3.99133,-4.11139 17.63969,-4.11139 6.33057,0 16.49376,0.23127 20.41066,4.66621"
       style="fill:#ffffff;stroke:#000000;stroke-width:0.5;stroke-linecap:butt;stroke-linejoin:miter;stroke-miterlimit:4;stroke-opacity:1;stroke-dasharray:none" />
    <path
       style="fill:none;stroke:#000000;stroke-width:0.5;stroke-linecap:butt;stroke-linejoin:miter;stroke-miterlimit:4;stroke-opacity:1;stroke-dasharray:none"
       d="m 201.76268,412.16198 c -1.12462,-2.98091 -38.10739,-3.79189 -43.22658,2.73626"
       id="path3827"
       inkscape:connector-curvature="0"
       sodipodi:nodetypes="cc" />
    <path
       transform="matrix(0.45764768,-0.57360942,0.57360942,0.45764768,-143.5033,317.60813)"
       d="m 173.66072,406.42468 c 0,1.30675 -1.47906,2.36607 -3.30357,2.36607 -1.82451,0 -3.30357,-1.05932 -3.30357,-2.36607 0,-1.30674 1.47906,-2.36607 3.30357,-2.36607 1.82451,0 3.30357,1.05933 3.30357,2.36607 z"
       sodipodi:ry="2.3660715"
       sodipodi:rx="3.3035715"
       sodipodi:cy="406.42468"
       sodipodi:cx="170.35715"
       id="path3833"
       style="fill:none;stroke:#000000;stroke-width:0.68138033;stroke-miterlimit:4;stroke-dasharray:none"
       sodipodi:type="arc" />
    <path
       transform="matrix(0.45764768,-0.57360942,0.57360942,0.45764768,-140.91401,309.75098)"
       d="m 173.66072,406.42468 c 0,1.30675 -1.47906,2.36607 -3.30357,2.36607 -1.82451,0 -3.30357,-1.05932 -3.30357,-2.36607 0,-1.30674 1.47906,-2.36607 3.30357,-2.36607 1.82451,0 3.30357,1.05933 3.30357,2.36607 z"
       sodipodi:ry="2.3660715"
       sodipodi:rx="3.3035715"
       sodipodi:cy="406.42468"
       sodipodi:cx="170.35715"
       id="path3835"
       style="fill:none;stroke:#000000;stroke-width:0.68138033;stroke-miterlimit:4;stroke-dasharray:none"
       sodipodi:type="arc" />
    <path
       sodipodi:type="arc"
       style="fill:none;stroke:#000000;stroke-width:0.68138033;stroke-miterlimit:4;stroke-dasharray:none"
       id="path3831"
       sodipodi:cx="170.35715"
       sodipodi:cy="406.42468"
       sodipodi:rx="3.3035715"
       sodipodi:ry="2.3660715"
       d="m 173.66072,406.42468 c 0,1.30675 -1.47906,2.36607 -3.30357,2.36607 -1.82451,0 -3.30357,-1.05932 -3.30357,-2.36607 0,-1.30674 1.47906,-2.36607 3.30357,-2.36607 1.82451,0 3.30357,1.05933 3.30357,2.36607 z"
       transform="matrix(0.45764768,-0.57360942,0.57360942,0.45764768,-138.41401,302.25098)" />
    <path
       sodipodi:type="arc"
       style="fill:#000000;stroke:#000000;stroke-width:0.59653687;stroke-miterlimit:4;stroke-dasharray:none"
       id="path3839"
       sodipodi:cx="170.35715"
       sodipodi:cy="406.42468"
       sodipodi:rx="3.8426108"
       sodipodi:ry="2.6075528"
       d="m 174.19976,406.42468 c 0,1.44011 -1.7204,2.60756 -3.84261,2.60756 -2.12222,0 -3.84261,-1.16745 -3.84261,-2.60756 0,-1.44011 1.72039,-2.60755 3.84261,-2.60755 2.12221,0 3.84261,1.16744 3.84261,2.60755 z"
       transform="matrix(0.15178585,-0.95002942,0.70689141,0.20399318,-136.72735,436.61112)" />
    <path
       transform="matrix(0.15178585,-0.95002942,0.70689141,0.20399318,-122.62021,435.71826)"
       d="m 174.19976,406.42468 c 0,1.44011 -1.7204,2.60756 -3.84261,2.60756 -2.12222,0 -3.84261,-1.16745 -3.84261,-2.60756 0,-1.44011 1.72039,-2.60755 3.84261,-2.60755 2.12221,0 3.84261,1.16744 3.84261,2.60755 z"
       sodipodi:ry="2.6075528"
       sodipodi:rx="3.8426108"
       sodipodi:cy="406.42468"
       sodipodi:cx="170.35715"
       id="path3837"
       style="fill:#000000;stroke:#000000;stroke-width:0.59653687;stroke-miterlimit:4;stroke-dasharray:none"
       sodipodi:type="arc" />
    <path
       sodipodi:type="arc"
       style="fill:#ffffff;stroke:#000000;stroke-width:1.32436538;stroke-miterlimit:4;stroke-dasharray:none"
       id="path3841"
       sodipodi:cx="170.35715"
       sodipodi:cy="406.42468"
       sodipodi:rx="3.8426108"
       sodipodi:ry="2.6075528"
       d="m 174.19976,406.42468 c 0,1.44011 -1.7204,2.60756 -3.84261,2.60756 -2.12222,0 -3.84261,-1.16745 -3.84261,-2.60756 0,-1.44011 1.72039,-2.60755 3.84261,-2.60755 2.12221,0 3.84261,1.16744 3.84261,2.60755 z"
       transform="matrix(0.06836924,-0.42792389,0.31840669,0.09188511,50.332502,391.70599)" />
    <path
       style="fill:none;stroke:#000000;stroke-width:1px;stroke-linecap:butt;stroke-linejoin:miter;stroke-opacity:1"
       d="m 166.96428,298.61219 c 2.16945,4.92356 4.00227,10.81492 4.28572,21.16071"
       id="path3843"
       inkscape:connector-curvature="0"
       sodipodi:nodetypes="cc" />
    <path
       sodipodi:nodetypes="cc"
       inkscape:connector-curvature="0"
       id="path3845"
       d="m 178.30357,291.82648 c 2.08016,4.92356 2.71138,16.33436 4.01786,20.98213"
       style="fill:none;stroke:#000000;stroke-width:1px;stroke-linecap:butt;stroke-linejoin:miter;stroke-opacity:1" />
    <g
       id="g14685"
       transform="matrix(0.23167439,1.1394829,-1.1394829,0.23167439,946.66189,-30.085701)"
       inkscape:transform-center-y="65.603109"
       inkscape:transform-center-x="-12.833936">
      <rect
         y="523.33508"
         x="229.64285"
         height="5.7142859"
         width="57.142857"
         id="rect14675"
         style="fill:#808080;stroke:#000000;stroke-width:0.5;stroke-miterlimit:4;stroke-dasharray:none" />
      <rect
         style="fill:#808080;stroke:#000000;stroke-width:0.5;stroke-miterlimit:4;stroke-dasharray:none"
         id="rect14677"
         width="57.142853"
         height="2.8571515"
         x="286.78571"
         y="524.76361" />
      <rect
         ry="1.9571706"
         rx="1.9571706"
         y="522.67218"
         x="284.73215"
         height="7.0401196"
         width="4.201355"
         id="rect14679"
         style="fill:#000000;stroke:#000000;stroke-width:0.5;stroke-miterlimit:4;stroke-dasharray:none" />
      <rect
         style="fill:#000000;stroke:#000000;stroke-width:0.31236193;stroke-miterlimit:4;stroke-dasharray:none"
         id="rect14681"
         width="2.6246865"
         height="4.3981304"
         x="342.61621"
         y="523.99316"
         rx="1.2226911"
         ry="1.2226911" />
    </g>
    <g
       inkscape:transform-center-y="57.481645"
       transform="matrix(-0.08214632,0.99662028,-0.99662028,-0.08214632,932.6978,167.75902)"
       id="g14850"
       inkscape:transform-center-x="4.3250305">
      <rect
         style="fill:#808080;stroke:#000000;stroke-width:0.5;stroke-miterlimit:4;stroke-dasharray:none"
         id="rect14852"
         width="57.142857"
         height="5.7142859"
         x="229.64285"
         y="523.33508" />
      <rect
         y="524.76361"
         x="286.78571"
         height="2.8571515"
         width="57.142853"
         id="rect14854"
         style="fill:#808080;stroke:#000000;stroke-width:0.5;stroke-miterlimit:4;stroke-dasharray:none" />
      <rect
         style="fill:#000000;stroke:#000000;stroke-width:0.5;stroke-miterlimit:4;stroke-dasharray:none"
         id="rect14856"
         width="4.201355"
         height="7.0401196"
         x="284.73215"
         y="522.67218"
         rx="1.9571706"
         ry="1.9571706" />
      <rect
         ry="1.2226911"
         rx="1.2226911"
         y="523.99316"
         x="342.61621"
         height="4.3981304"
         width="2.6246865"
         id="rect14858"
         style="fill:#000000;stroke:#000000;stroke-width:0.31236193;stroke-miterlimit:4;stroke-dasharray:none" />
    </g>
    <path
       sodipodi:nodetypes="ccsccscsccccscscc"
       inkscape:connector-curvature="0"
       id="path14870"
       d="m 302.70022,365.28096 c -9.68245,17.30185 -23.30212,62.96697 -17.6444,72.90321 -0.73203,0.20628 0.2513,2.32094 -0.67259,2.32094 -10.038,0 -16.80401,7.14979 -16.81907,13.59422 l 27.9197,0 c 0,0 2.14657,-1.25685 2.14657,-3.03046 0,-5.08985 -10.30176,-9.85424 -10.30176,-9.85424 0.5367,-0.69543 -0.057,-2.58446 0.44869,-3.24164 11.61974,-15.09937 39.32525,-5.61049 49.43285,9.1577 l 0.25253,0.94702 c -5.56455,2.76574 -8.97027,7.49635 -8.9651,10.29093 l 24.4962,-0.25254 c 2.61506,-6.0917 -3.45288,-8.68401 -12.46308,-11.04686 -0.46784,-0.12268 -0.76504,-1.76068 -0.80152,-2.7714 0,0 -1.99604,-11.42217 -1.99646,-20.06037 -10e-4,-21.90923 -17.87124,-50.73105 -18.45587,-58.77422 z"
       style="fill:#ffffff;stroke:#000000;stroke-width:0.5;stroke-linecap:butt;stroke-linejoin:miter;stroke-miterlimit:4;stroke-opacity:1;stroke-dasharray:none" />
    <g
       id="g14860"
       transform="matrix(-0.31946527,1.1054008,-1.1054008,-0.31946527,1033.6207,267.77322)"
       inkscape:transform-center-y="63.564729"
       inkscape:transform-center-x="17.879815">
      <rect
         y="523.33508"
         x="229.64285"
         height="5.7142859"
         width="57.142857"
         id="rect14862"
         style="fill:#808080;stroke:#000000;stroke-width:0.5;stroke-miterlimit:4;stroke-dasharray:none" />
      <rect
         style="fill:#808080;stroke:#000000;stroke-width:0.5;stroke-miterlimit:4;stroke-dasharray:none"
         id="rect14864"
         width="57.142853"
         height="2.8571515"
         x="286.78571"
         y="524.76361" />
      <rect
         ry="1.9571706"
         rx="1.9571706"
         y="522.67218"
         x="284.73215"
         height="7.0401196"
         width="4.201355"
         id="rect14866"
         style="fill:#000000;stroke:#000000;stroke-width:0.5;stroke-miterlimit:4;stroke-dasharray:none" />
      <rect
         style="fill:#000000;stroke:#000000;stroke-width:0.31236193;stroke-miterlimit:4;stroke-dasharray:none"
         id="rect14868"
         width="2.6246865"
         height="4.3981304"
         x="342.61621"
         y="523.99316"
         rx="1.2226911"
         ry="1.2226911" />
    </g>
    <path
       style="fill:#808080;stroke:#000000;stroke-width:0.5;stroke-linecap:butt;stroke-linejoin:miter;stroke-miterlimit:4;stroke-opacity:1;stroke-dasharray:none"
       d="m 402.67858,354.78994 c 0,0 6.875,-4.77644 6.875,-8.39285 0,-6.1764 -12.79425,-16.83807 -21.78572,-16.07143 -8.2634,0.70456 -17.012,9.65597 -17.23214,17.94643 -0.0762,2.86881 5.625,6.51785 5.625,6.51785 z"
       id="path14828"
       inkscape:connector-curvature="0"
       sodipodi:nodetypes="cssscc" />
    <path
       sodipodi:nodetypes="sssss"
       inkscape:connector-curvature="0"
       id="path14876"
       d="m 281.66428,338.06686 c 0.46315,14.97772 16.81903,31.98805 31.78572,31.25 19.66763,-0.96987 30.71428,-19.04258 30.71428,-36.60714 0,-20.42118 -25.04047,-30.1323 -39.46429,-28.39286 -13.22158,1.59446 -23.44732,20.43898 -23.03571,33.75 z"
       style="fill:#ffffff;stroke:#000000;stroke-width:0.5;stroke-linecap:butt;stroke-linejoin:miter;stroke-miterlimit:4;stroke-opacity:1;stroke-dasharray:none" />
    <path
       style="fill:#000000;stroke:#000000;stroke-width:0.5;stroke-linecap:butt;stroke-linejoin:miter;stroke-miterlimit:4;stroke-opacity:1;stroke-dasharray:none"
       d="m 298.6875,306.28125 c -6.7951,3.64098 -12.25231,11.58953 -15.03125,19.8125 3.12035,-2.04242 5.57294,-5.17958 7.25,-9.53125 17.26559,1.04833 22.96875,-0.31408 22.96875,-3.59375 0,-2.44338 -9.60059,-3.38936 -15.1875,-6.6875 z"
       id="path14878"
       inkscape:connector-curvature="0" />
    <path
       transform="matrix(-0.84363023,-0.46247473,0.42986377,-0.59709784,270.19361,658.93281)"
       d="m 174.19976,406.42468 c 0,1.9007 -1.7204,3.44152 -3.84261,3.44152 -2.12222,0 -3.84261,-1.54082 -3.84261,-3.44152 0,-1.90069 1.72039,-3.44151 3.84261,-3.44151 2.12221,0 3.84261,1.54082 3.84261,3.44151 z"
       sodipodi:ry="3.441515"
       sodipodi:rx="3.8426108"
       sodipodi:cy="406.42468"
       sodipodi:cx="170.35715"
       id="path14883"
       style="fill:#000000;stroke:#000000;stroke-width:0.59653687;stroke-miterlimit:4;stroke-dasharray:none"
       sodipodi:type="arc" />
    <g
       id="g14814"
       transform="matrix(0.96592583,-0.25881905,0.25881905,0.96592583,-370.78697,179.22006)">
      <path
         id="path14756"
         d="m 649.95089,325.73899 -20.59375,0 0,0 c -0.23724,2.57836 -0.35305,5.16145 -0.34375,7.78125 0.009,2.60978 0.15524,5.21262 0.40625,7.78125 l 20.5625,0"
         style="fill:#ffffff;stroke:#000000;stroke-width:0.47334236px;stroke-linecap:butt;stroke-linejoin:miter;stroke-opacity:1"
         inkscape:connector-curvature="0" />
      <path
         transform="translate(-224.34779,8.571418)"
         d="m 1045.7883,324.94882 c 0,19.18469 -4.3694,34.73695 -9.7594,34.73695 -5.3899,0 -9.7594,-15.55226 -9.7594,-34.73695 0,-19.18469 4.3695,-34.73695 9.7594,-34.73695 5.39,0 9.7594,15.55226 9.7594,34.73695 z"
         sodipodi:ry="34.73695"
         sodipodi:rx="9.7593851"
         sodipodi:cy="324.94882"
         sodipodi:cx="1036.0289"
         id="path14761"
         style="fill:#ffffff;stroke:#000000;stroke-width:1;stroke-miterlimit:4;stroke-dasharray:none"
         sodipodi:type="arc" />
      <path
         transform="matrix(0.65150838,0,0,0.65150838,127.32856,119.5493)"
         inkscape:transform-center-y="-0.38331896"
         d="m 1054.8214,299.59367 1.3594,4.29039 4.5004,-0.033 -3.6603,2.61861 1.4221,4.27 -3.6216,-2.672 -3.6215,2.672 1.4221,-4.27 -3.6604,-2.61861 4.5005,0.033 z"
         inkscape:randomized="0"
         inkscape:rounded="0"
         inkscape:flatsided="false"
         sodipodi:arg2="-0.94247777"
         sodipodi:arg1="-1.5707963"
         sodipodi:r2="2.3126493"
         sodipodi:r1="6.1613612"
         sodipodi:cy="305.75504"
         sodipodi:cx="1054.8214"
         sodipodi:sides="5"
         id="path14763"
         style="fill:none;stroke:#000000;stroke-width:1;stroke-miterlimit:4;stroke-dasharray:none"
         sodipodi:type="star" />
      <rect
         ry="0"
         rx="0"
         y="321.58411"
         x="652.99146"
         height="23.872284"
         width="38.017311"
         id="rect14801"
         style="fill:#ffffff;stroke:#000000;stroke-width:0.47170374;stroke-miterlimit:4;stroke-dasharray:none" />
      <path
         sodipodi:nodetypes="csccccscc"
         inkscape:connector-curvature="0"
         d="m 655.73687,346.63445 c -0.76003,-4.32681 -1.1714,-8.69901 -1.1875,-13.12947 -0.0161,-4.43046 0.35141,-8.77213 1.09375,-13.09894 l 0,0 -5.00027,0 0,0 c -0.74234,4.32681 -1.10985,8.66848 -1.09375,13.09894 0.0161,4.43046 0.42747,8.80266 1.1875,13.12947 z"
         style="fill:#000000;stroke:#000000;stroke-width:0.61427575px;stroke-linecap:butt;stroke-linejoin:round;stroke-opacity:1"
         id="path14789" />
      <rect
         style="fill:#ffffff;stroke:#000000;stroke-width:0.45288518;stroke-miterlimit:4;stroke-dasharray:none"
         id="rect14803"
         width="29.987762"
         height="34.92511"
         x="691.34033"
         y="316.05768"
         rx="0"
         ry="0" />
      <path
         sodipodi:nodetypes="csccccscc"
         inkscape:connector-curvature="0"
         d="m 689.46428,352.03891 c -1.54732,-6.11035 -2.2897,-12.25025 -2.3125,-18.53393 -0.0228,-6.27688 0.67985,-12.3996 2.21875,-18.5034 l 0,0 5.00031,0 0,0 c -1.5389,6.1038 -2.24155,12.22652 -2.21875,18.5034 0.0228,6.28368 0.76518,12.42358 2.3125,18.53393 z"
         style="fill:#000000;stroke:#000000;stroke-width:0.73030537px;stroke-linecap:butt;stroke-linejoin:round;stroke-opacity:1"
         id="path14787" />
      <rect
         ry="0"
         rx="0"
         y="308.0611"
         x="721.9314"
         height="50.918304"
         width="51.16304"
         id="rect14805"
         style="fill:#ffffff;stroke:#000000;stroke-width:0.440685;stroke-miterlimit:4;stroke-dasharray:none" />
      <path
         sodipodi:nodetypes="csccccccscc"
         inkscape:connector-curvature="0"
         d="m 722.00005,359.85552 c -3.21723,-8.71443 -4.7174,-17.38692 -4.75,-26.35054 -0.0325,-8.94386 1.40254,-17.56393 4.65625,-26.25895 0.008,-0.0212 0.0232,-0.0399 0.0312,-0.0611 l 0,0 5.00011,0 0,0 c -0.008,0.0212 -0.0233,0.0399 -0.0312,0.0611 -3.25371,8.69502 -4.68874,17.31509 -4.65625,26.25895 0.0326,8.96362 1.53277,17.63611 4.75,26.35054 z"
         style="fill:#000000;stroke:#000000;stroke-width:0.87080067px;stroke-linecap:butt;stroke-linejoin:round;stroke-opacity:1"
         id="path14785" />
      <path
         sodipodi:nodetypes="cccccc"
         inkscape:connector-curvature="0"
         id="rect14809"
         d="m 776.08636,300.28079 25.59468,0 0,66.4789 -25.59468,0 -6.06092,-33.23945 z"
         style="fill:#ffffff;stroke:#000000;stroke-width:0.43149254;stroke-miterlimit:4" />
      <path
         sodipodi:nodetypes="csccscc"
         inkscape:connector-curvature="0"
         d="m 781.09099,367.46092 c -5.4729,-11.31356 -7.9343,-22.37949 -7.9763,-33.94068 -0.042,-11.56119 2.338,-22.62712 7.9763,-33.94068 l -5.00005,0 c -5.6383,11.31356 -8.0183,22.37949 -7.9763,33.94068 0.042,11.56119 2.5034,22.62712 7.9763,33.94068 z"
         style="fill:#000000;stroke:#000000;stroke-width:0.9884721px;stroke-linecap:butt;stroke-linejoin:round;stroke-opacity:1"
         id="path14791" />
      <path
         id="path14811"
         style="fill:#000000;stroke:#000000;stroke-width:1px;stroke-linecap:butt;stroke-linejoin:round;stroke-opacity:1"
         d="m 811.68114,368.25719 c -5.4729,-11.57898 -7.9343,-22.90453 -7.9763,-34.73695 -0.042,-11.83242 2.338,-23.15797 7.9763,-34.73695 l -10.00008,0 c -5.6383,11.57898 -8.0183,22.90453 -7.9763,34.73695 0.042,11.83242 2.5034,23.15797 7.9763,34.73695 z"
         inkscape:connector-curvature="0"
         sodipodi:nodetypes="csccscc" />
    </g>
    <g
       id="g15454"
       transform="translate(-204.28571,0)">
      <rect
         y="234.80853"
         x="-472.47333"
         height="265.10672"
         width="378.72388"
         id="rect15083"
         style="fill:#ffffff;stroke:#ff0000;stroke-width:0.45833439;stroke-linejoin:round;stroke-miterlimit:4;stroke-dasharray:none" />
      <path
         sodipodi:nodetypes="cscsccccccsccsssssssss"
         inkscape:connector-curvature="0"
         d="m -490.98743,235.22095 c 1.42222,0.37775 2.75909,0.003 2.98599,-0.83605 0.2269,-0.8395 -0.74209,-1.82627 -2.16438,-2.20398 -1.42221,-0.37776 -2.75909,-0.003 -2.98599,0.83604 -0.2269,0.8395 0.7421,1.82628 2.16439,2.20398 z m 14.00015,-14.00015 c 0.37776,1.42221 0.003,2.75908 -0.83602,2.98599 -0.83949,0.2269 -1.82628,-0.7421 -2.20398,-2.16438 -0.37775,-1.42222 -0.003,-2.75909 0.83602,-2.986 0.83949,-0.22689 1.82628,0.7421 2.20398,2.16439 z m -7.12088,3.32596 c 1.65621,1.65621 2.2034,3.79427 1.22219,4.77549 -0.98122,0.98121 -3.11928,0.43402 -4.77549,-1.22216 -1.65621,-1.65623 -2.2034,-3.79427 -1.22218,-4.7755 0.98121,-0.98121 3.11926,-0.43402 4.77548,1.22217 z m 27.47698,-1.22216 c 12.28873,12.28873 18.08208,30.68812 8.25888,40.51132 -9.8232,9.8232 -27.74845,2.83686 -40.03718,-9.45187 -1.92355,-1.92355 -3.59498,1.00243 -5.00842,-1.14465 -7.61637,-11.56961 -7.7414,-25.61933 0.54418,-33.9049 7.79783,-7.79784 20.70114,-8.14613 31.8376,-1.81117 2.89253,1.64541 1.87122,3.26755 4.40494,5.80127 z"
         style="fill:#ffffff;fill-rule:evenodd;stroke:none"
         id="path15444" />
      <use
         x="0"
         y="0"
         xlink:href="#path15444"
         id="use15446"
         transform="matrix(0,1,-1,0,147.59333,712.20824)"
         width="744.09448"
         height="1052.3622" />
      <g
         transform="translate(-67.518813,-0.71428571)"
         id="g15099">
        <path
           sodipodi:nodetypes="cscsccccccsccsssssss"
           inkscape:connector-curvature="0"
           d="m -389.94919,221.17325 c 0.73855,1.27277 1.94854,1.95341 2.70259,1.52024 0.75406,-0.43317 0.76663,-1.81611 0.028,-3.0889 -0.73854,-1.27277 -1.94853,-1.95341 -2.70258,-1.52024 -0.75406,0.43317 -0.76663,1.81611 -0.028,3.0889 z m 19.79921,0 c -0.73854,1.27277 -1.94853,1.95341 -2.70258,1.52026 -0.75405,-0.43317 -0.76662,-1.81612 -0.028,-3.0889 0.73855,-1.27277 1.94854,-1.95341 2.70258,-1.52026 0.75405,0.43317 0.76663,1.81611 0.028,3.0889 z m -7.38704,-2.68341 c 0,2.34223 -1.12491,4.24099 -2.51256,4.241 -1.38765,-1e-5 -2.51256,-1.89877 -2.51258,-4.24098 1e-5,-2.34225 1.12491,-4.241 2.51257,-4.241 1.38764,0 2.51255,1.89875 2.51257,4.24098 z m 22.64131,21.58344 c 0,17.37889 -11.26177,31.46726 -25.15387,31.46726 -13.8921,0 -25.15387,-14.08837 -25.15387,-31.46726 0,-17.37889 11.26177,-31.46726 25.15387,-31.46726 13.8921,0 25.15387,14.08837 25.15387,31.46726 z"
           style="fill:#ffffff;fill-rule:evenodd;stroke:none"
           id="path15077" />
      </g>
      <use
         x="0"
         y="0"
         xlink:href="#g15099"
         id="use15121"
         transform="translate(289.20667,0)"
         width="744.09448"
         height="1052.3622" />
      <use
         height="1052.3622"
         width="744.09448"
         transform="translate(247.89143,0)"
         id="use15123"
         xlink:href="#g15099"
         y="0"
         x="0" />
      <use
         x="0"
         y="0"
         xlink:href="#g15099"
         id="use15125"
         transform="translate(206.57619,0)"
         width="744.09448"
         height="1052.3622" />
      <use
         height="1052.3622"
         width="744.09448"
         transform="translate(165.26096,0)"
         id="use15127"
         xlink:href="#g15099"
         y="0"
         x="0" />
      <use
         x="0"
         y="0"
         xlink:href="#g15099"
         id="use15129"
         transform="translate(123.94572,0)"
         width="744.09448"
         height="1052.3622" />
      <use
         height="1052.3622"
         width="744.09448"
         transform="translate(82.63047,0)"
         id="use15131"
         xlink:href="#g15099"
         y="0"
         x="0" />
      <use
         x="0"
         y="0"
         xlink:href="#g15099"
         id="use15133"
         transform="translate(41.315239,0)"
         width="744.09448"
         height="1052.3622" />
      <use
         x="0"
         y="0"
         xlink:href="#g15099"
         id="use15157"
         transform="matrix(-1,0,0,-1,-895.13682,735.85586)"
         width="744.09448"
         height="1052.3622" />
      <use
         height="1052.3622"
         width="744.09448"
         transform="matrix(-1,0,0,-1,-853.82157,735.85586)"
         id="use15159"
         xlink:href="#g15099"
         y="0"
         x="0" />
      <use
         x="0"
         y="0"
         xlink:href="#g15099"
         id="use15161"
         transform="matrix(-1,0,0,-1,-812.50633,735.85586)"
         width="744.09448"
         height="1052.3622" />
      <use
         height="1052.3622"
         width="744.09448"
         transform="matrix(-1,0,0,-1,-771.19109,735.85586)"
         id="use15163"
         xlink:href="#g15099"
         y="0"
         x="0" />
      <use
         x="0"
         y="0"
         xlink:href="#g15099"
         id="use15165"
         transform="matrix(-1,0,0,-1,-729.87586,735.85586)"
         width="744.09448"
         height="1052.3622" />
      <use
         height="1052.3622"
         width="744.09448"
         transform="matrix(-1,0,0,-1,-688.56062,735.85586)"
         id="use15167"
         xlink:href="#g15099"
         y="0"
         x="0" />
      <use
         x="0"
         y="0"
         xlink:href="#g15099"
         id="use15169"
         transform="matrix(-1,0,0,-1,-647.24537,735.85586)"
         width="744.09448"
         height="1052.3622" />
      <use
         height="1052.3622"
         width="744.09448"
         transform="matrix(-1,0,0,-1,-605.93014,735.85586)"
         id="use15171"
         xlink:href="#g15099"
         y="0"
         x="0" />
      <use
         transform="matrix(-1,0,0,-1,-564.6149,735.85586)"
         x="0"
         y="0"
         xlink:href="#g15099"
         id="use15177"
         width="744.09448"
         height="1052.3622" />
      <use
         x="0"
         y="0"
         xlink:href="#g15099"
         id="use15244"
         transform="matrix(0,1,-1,0,147.59334,918.78444)"
         width="744.09448"
         height="1052.3622" />
      <use
         height="1052.3622"
         width="744.09448"
         transform="matrix(0,1,-1,0,147.59334,877.46919)"
         id="use15246"
         xlink:href="#g15099"
         y="0"
         x="0" />
      <use
         x="0"
         y="0"
         xlink:href="#g15099"
         id="use15248"
         transform="matrix(0,1,-1,0,147.59334,836.15395)"
         width="744.09448"
         height="1052.3622" />
      <use
         height="1052.3622"
         width="744.09448"
         transform="matrix(0,1,-1,0,147.59334,794.83871)"
         id="use15250"
         xlink:href="#g15099"
         y="0"
         x="0" />
      <use
         x="0"
         y="0"
         xlink:href="#g15099"
         id="use15252"
         transform="matrix(0,1,-1,0,147.59334,753.52348)"
         width="744.09448"
         height="1052.3622" />
      <g
         id="g15434">
        <use
           x="0"
           y="0"
           xlink:href="#g15099"
           id="use15119"
           transform="translate(330.52192,0)"
           width="744.09448"
           height="1052.3622" />
        <use
           x="0"
           y="0"
           xlink:href="#g15099"
           id="use15254"
           transform="matrix(0,1,-1,0,147.59334,712.20824)"
           width="744.09448"
           height="1052.3622" />
      </g>
      <use
         height="1052.3622"
         width="744.09448"
         transform="matrix(0,-1,1,0,-712.20824,-182.92858)"
         id="use15343"
         xlink:href="#g15099"
         y="0"
         x="0" />
      <use
         x="0"
         y="0"
         xlink:href="#g15099"
         id="use15345"
         transform="matrix(0,-1,1,0,-712.20824,-141.61333)"
         width="744.09448"
         height="1052.3622" />
      <use
         height="1052.3622"
         width="744.09448"
         transform="matrix(0,-1,1,0,-712.20824,-100.29809)"
         id="use15347"
         xlink:href="#g15099"
         y="0"
         x="0" />
      <use
         x="0"
         y="0"
         xlink:href="#g15099"
         id="use15349"
         transform="matrix(0,-1,1,0,-712.20824,-58.98285)"
         width="744.09448"
         height="1052.3622" />
      <use
         height="1052.3622"
         width="744.09448"
         transform="matrix(0,-1,1,0,-712.20824,-17.66762)"
         id="use15351"
         xlink:href="#g15099"
         y="0"
         x="0" />
      <use
         x="0"
         y="0"
         xlink:href="#g15099"
         id="use15353"
         transform="matrix(0,-1,1,0,-712.20824,23.64762)"
         width="744.09448"
         height="1052.3622" />
      <use
         x="0"
         y="0"
         xlink:href="#path15444"
         id="use15452"
         transform="matrix(0,-1,1,0,-712.20823,23.64762)"
         width="744.09448"
         height="1052.3622" />
      <use
         height="1052.3622"
         width="744.09448"
         transform="matrix(-1,0,0,-1,-564.6149,735.85584)"
         id="use15450"
         xlink:href="#path15444"
         y="0"
         x="0" />
    </g>
  </g>
</svg>
