<?xml version="1.0" encoding="UTF-8" standalone="no"?>
<!-- Created with Inkscape (http://www.inkscape.org/) -->
<svg
   xmlns:dc="http://purl.org/dc/elements/1.1/"
   xmlns:cc="http://creativecommons.org/ns#"
   xmlns:rdf="http://www.w3.org/1999/02/22-rdf-syntax-ns#"
   xmlns:svg="http://www.w3.org/2000/svg"
   xmlns="http://www.w3.org/2000/svg"
   xmlns:sodipodi="http://sodipodi.sourceforge.net/DTD/sodipodi-0.dtd"
   xmlns:inkscape="http://www.inkscape.org/namespaces/inkscape"
   width="847.14288"
   height="847.14288"
   id="svg2"
   sodipodi:version="0.32"
   inkscape:version="0.46"
   sodipodi:docname="logo-autiwa.svg"
   inkscape:output_extension="org.inkscape.output.svg.inkscape"
   version="1.0">
  <defs
     id="defs4" />
  <sodipodi:namedview
     id="base"
     pagecolor="#ffffff"
     bordercolor="#666666"
     borderopacity="1.0"
     inkscape:pageopacity="0.0"
     inkscape:pageshadow="2"
     inkscape:zoom="0.67993253"
     inkscape:cx="423.57144"
     inkscape:cy="423.57144"
     inkscape:document-units="px"
     inkscape:current-layer="layer1"
     showgrid="false"
     inkscape:window-width="1440"
     inkscape:window-height="809"
     inkscape:window-x="0"
     inkscape:window-y="33" />
  <metadata
     id="metadata7">
    <rdf:RDF>
      <cc:Work
         rdf:about="">
        <dc:format>image/svg+xml</dc:format>
        <dc:type
           rdf:resource="http://purl.org/dc/dcmitype/StillImage" />
      </cc:Work>
    </rdf:RDF>
  </metadata>
  <g
     inkscape:label="Calque 1"
     inkscape:groupmode="layer"
     id="layer1"
     transform="translate(48.571439,-108.79074)">
    <path
       sodipodi:nodetypes="cssccsscsccccsccccssscscsssscc"
       id="path2161"
       d="M 132.33811,792.46031 C 107.24875,791.59386 100.3924,776.59704 104.75203,761.02411 C 106.75689,753.86261 113.64924,747.72268 117.7457,740.7403 C 125.21377,728.01092 123.70314,718.62352 130.36891,705.16405 C 169.67448,625.79822 119.79887,566.26936 191.9378,576.53829 C 195.34753,576.73338 197.08039,572.95999 197.72271,570.73348 C 218.06761,500.21236 162.74222,381.26163 232.76892,368.91137 C 243.5298,367.01352 259.13693,383.37449 281.40985,413.98048 C 290.42517,422.84814 297.13037,407.418 297.87265,400.61313 C 304.58283,339.09669 300.90656,225.69332 383.93293,276.07461 C 390.29646,281.96687 394.16721,275.39535 397.87364,268.00226 C 424.62804,207.87908 464.93139,201.0705 498.927,224.30553 C 513.9134,235.63154 533.70114,205.65527 564.76219,213.28466 C 579.10448,222.10609 603.05232,224.73933 614.73201,237.53526 C 624.82868,248.59689 625.20651,262.63722 621.75168,295.50617 C 621.4129,299.66345 627.00963,303.72291 630.43492,305.98795 C 681.47333,339.73801 650.68976,375.2078 613.19601,400.34941 C 608.59442,403.80856 606.83981,407.12297 613.57887,410.00549 C 662.49417,436.8445 651.59748,470.80562 618.91863,480.78973 C 613.21803,482.53138 612.59708,485.29956 610.87768,488.23078 C 599.05201,508.39095 584.21103,510.53975 567.48326,509.94123 C 552.28925,509.39759 524.75141,515.9193 504.72746,519.69382 C 497.53154,522.51436 500.66468,526.81026 506.06531,531.04165 C 566.49502,578.38812 490.65296,619.4464 429.44936,601.08448 C 410.99026,595.54649 365.72293,611.67291 372.33202,635.99296 C 382.0404,671.71787 357.24774,678.64289 334.70887,686.73615 C 322.8774,690.98457 286.25028,692.19084 298.08615,716.03927 C 313.4649,747.02631 286.94685,747.38949 254.82887,769.89312 C 204.62965,805.06546 142.53205,856.23758 142.53866,810.10193 C 135.74497,808.50889 117.70464,818.49612 132.33811,792.46031 z"
       style="fill:#99ba64;fill-opacity:1;fill-rule:evenodd;stroke:none;stroke-width:1px;stroke-linecap:butt;stroke-linejoin:miter;stroke-opacity:1" />
    <path
       transform="matrix(0.1903275,-0.1903275,0.1903275,0.1903275,-80.929445,671.04708)"
       sodipodi:nodetypes="cccsccccccsccscccccsscccccccccccccccccccccccccccccccccc"
       style="fill:#897f2e;fill-opacity:1;fill-rule:evenodd;stroke:none;stroke-width:1px;stroke-linecap:butt;stroke-linejoin:miter;stroke-opacity:1;"
       d="M 415.8982,1084.47 C 381.93118,998.38251 364.63745,942.92581 278.13884,917.31861 C 210.9324,923.32061 83.845652,962.52491 12.734541,967.60431 C -9.0423152,945.56431 3.5727908,950.09871 4.2007788,935.25621 C 4.8517318,919.87091 -1.4757312,898.38751 21.300362,901.76491 C 73.790864,921.29461 163.84565,887.47741 229.8774,888.36631 C 291.24343,893.20831 274.28534,766.04921 273.43694,726.03291 C 279.68858,770.62211 285.95,861.80351 252.34877,885.59551 C 318.45402,896.68431 363.32395,889.09501 437.65941,670.82811 C 441.41933,670.12871 384.28635,859.36941 315.85211,887.23731 C 355.43231,882.82351 415.21132,871.46751 450.27662,862.99641 C 490.65731,853.24111 539.44517,792.19271 584.51571,673.46711 C 571.64373,730.43741 513.38338,838.25971 464.64122,860.82901 C 514.34962,851.28361 574.68995,842.83841 627.46794,828.12391 C 725.788,800.71211 831.25669,675.39181 879.75456,449.30721 C 835.95198,675.83511 740.66014,774.33911 662.1905,823.42681 C 678.09456,821.88081 855.67574,786.83381 1032.8196,740.83391 C 1128.3444,751.61821 1274.053,385.01608 1591.1389,29.06978 C 1517.4089,119.45577 1321.1794,387.9359 1101.8872,726.59741 C 1233.121,722.46651 1324.0598,700.31671 1483.1715,683.22981 C 1595.9629,671.11721 1705.9746,589.75421 1994.633,282.80741 C 2052.5265,221.24598 2105.0649,166.21641 2171.8627,61.74786 C 2087.2445,225.31609 1789.6222,523.45449 1585.7769,672.04251 C 1716.8285,693.81601 1750.8725,696.95621 1933.9661,685.07781 C 1958.0506,686.80121 1987.0018,681.35531 2032.9651,676.04111 C 2086.0131,585.08251 2378.1046,338.50821 2602.5382,241.36418 C 2479.0095,303.93364 2083.4982,552.96051 2066.7401,678.28021 C 2123.0149,683.80221 2392.8097,699.81871 2616.9776,653.80571 C 2719.4884,530.32858 2808.5549,486.42947 2880.1634,491.10397 C 2824.8878,493.30753 2723.515,518.59124 2637.4417,655.02441 C 2669.9699,654.00271 2787.2272,656.09161 2879.8569,649.39071 C 2847.4326,658.88331 2739.8144,658.61901 2632.6793,664.06761 L 2584.8744,674.41181 C 2591.8514,720.36701 2623.619,755.24291 2775.3686,847.13651 C 2632.7532,767.50691 2597.9054,735.60211 2571.0381,677.77171 C 2571.0381,677.77171 2365.0683,696.38311 2206.2982,697.43951 C 2228.0227,765.04271 2607.1109,962.68991 2801.278,1041.3313 C 2642.4054,991.98861 2247.2173,789.58641 2187.1788,701.11751 C 2024.9198,678.97621 1844.5172,713.74951 1732.411,710.73121 C 1779.4578,747.89521 2219.18,1086.6769 2434.4415,1279.3168 C 2221.9247,1120.4151 1836.4149,814.78921 1710.3652,709.03711 C 1568.6624,672.84781 1388.1249,702.15531 1274.1598,729.07291 C 1358.461,790.94751 1760.6699,1114.8679 1847.6581,1307.7979 C 1722.4675,1099.5511 1340.0174,786.12121 1252.5769,729.58841 C 1119.1435,744.94261 1022.9321,760.42341 919.75451,791.27481 C 1015.791,893.71961 1179.3244,1050.4456 1236.5251,1126.6391 C 1145.7528,1029.134 919.94943,794.51811 901.76299,794.43951 C 815.82934,806.62501 680.63144,830.85871 590.22705,854.72501 C 665.52031,892.53271 804.5918,1060.0239 817.0221,1119.9203 C 781.00121,1033.0194 636.69862,875.43891 585.67401,857.93001 C 557.89831,861.20701 439.64876,886.42891 411.62826,895.35901 C 488.78477,929.73161 546.70181,1023.4514 569.03686,1081.2578 C 531.17521,991.86821 449.63203,911.89691 402.55949,897.64991 C 380.63889,897.64991 313.58705,909.67841 286.38923,915.78841 C 363.59864,935.33141 382.62847,986.12431 415.8982,1084.47 z"
       id="path4148" />
    <path
       sodipodi:type="arc"
       style="fill:none;fill-opacity:1;fill-rule:evenodd;stroke:#000000;stroke-width:20.24179649;stroke-linecap:butt;stroke-linejoin:round;stroke-miterlimit:4;stroke-dasharray:none;stroke-dashoffset:0;stroke-opacity:1"
       id="path3279"
       sodipodi:cx="351.42856"
       sodipodi:cy="499.50504"
       sodipodi:rx="418.57144"
       sodipodi:ry="418.57144"
       d="M 770,499.50504 A 418.57144,418.57144 0 1 1 -67.142883,499.50504 A 418.57144,418.57144 0 1 1 770,499.50504 z"
       transform="matrix(0.9880546,0,0,0.9880546,27.769396,38.823935)" />
    <text
       xml:space="preserve"
       style="font-size:276.94631958px;font-style:normal;font-weight:normal;fill:#000000;fill-opacity:1;stroke:none;stroke-width:1px;stroke-linecap:butt;stroke-linejoin:miter;stroke-opacity:1;font-family:Bitstream Vera Sans"
       x="-22.704647"
       y="631.34888"
       id="text2448"><tspan
         sodipodi:role="line"
         id="tspan2450"
         x="-22.704647"
         y="631.34888">オ—ク</tspan></text>
    <text
       xml:space="preserve"
       style="font-size:20px;font-style:normal;font-weight:normal;fill:#000000;fill-opacity:1;stroke:none;stroke-width:1px;stroke-linecap:butt;stroke-linejoin:miter;stroke-opacity:1;font-family:Bitstream Vera Sans"
       x="213.57143"
       y="42.362183"
       id="text2472"><tspan
         sodipodi:role="line"
         id="tspan2474"
         x="213.57143"
         y="42.362183" /></text>
  </g>
</svg>
